<svg width="26" height="26" viewBox="0 0 26 26" fill="none" xmlns="http://www.w3.org/2000/svg">
<path d="M11.2385 0.124096C12.6376 -0.184563 14.716 0.124105 16.0714 0.592826C16.5211 0.748352 16.9359 0.97315 17.3741 1.13831C18.0139 1.37953 18.9292 1.62777 19.4983 2.00197C20.5404 2.46755 21.3467 3.48185 21.9354 4.43684C22.2256 4.90783 22.6227 5.31243 22.9519 5.75434C23.504 6.55595 24.2649 7.80334 24.4592 8.76865C24.5567 9.19551 24.7837 9.39736 24.9122 9.78306C25.1166 10.3954 25.203 11.0827 25.3254 11.7202C25.489 12.6871 25.5856 13.5788 25.4969 14.5663C25.4525 15.0638 25.2582 15.5568 25.1263 16.035C24.5424 18.7857 22.9696 21.2351 20.7434 22.8884C20.5368 23.0417 20.3199 23.2155 20.0998 23.3515C18.717 24.0389 17.3797 24.9369 15.7872 24.9555C15.1521 24.9631 14.7203 25.1877 14.128 25.3293C12.9236 25.617 11.6683 25.5964 10.4737 25.2693C9.65831 25.048 9.1539 24.7385 8.36611 24.5393L7.94649 24.4734C7.47917 24.3991 6.88927 24.1234 6.46039 23.9054C5.64279 23.4899 5.28981 23.1671 4.82936 22.3653C4.50776 22.3503 4.19912 22.296 3.92457 22.0947C3.19001 21.5561 2.45442 20.7052 2.05056 19.8766C1.93527 19.64 1.84447 19.2061 1.72826 19.0119C1.41724 18.4923 1.23676 18.2858 1.0222 17.7053C0.790812 17.0791 0.748142 16.555 0.578088 15.9643C0.436453 15.4723 0.275722 15.2247 0.155091 14.6446C-0.074444 13.5408 -0.0300127 12.7742 0.163276 11.6633C0.18906 11.515 0.379808 11.1649 0.383809 11.0901C0.399203 10.8042 0.351906 10.5145 0.412713 10.2107C0.466879 9.93987 0.552959 9.67486 0.62278 9.41096C0.957769 8.14503 1.52106 6.99765 2.2239 5.90674C2.8462 4.94082 3.61177 4.10206 4.50403 3.39279C4.87215 3.10012 5.19772 2.77596 5.61727 2.52561C6.00847 2.29214 6.41538 2.1093 6.81337 1.8909C6.94283 1.82706 7.10893 1.64566 7.22909 1.59396C7.83699 1.33231 8.46035 0.914267 9.06906 0.689953C9.75335 0.437811 10.5281 0.276904 11.2385 0.124096Z" fill="#F9C356"/>
<path d="M4.82936 22.3653C4.50776 22.3503 4.19912 22.296 3.92457 22.0947C3.19001 21.5561 2.45442 20.7052 2.05056 19.8766C1.93527 19.64 1.84447 19.2061 1.72826 19.0119C1.41724 18.4923 1.23676 18.2858 1.0222 17.7053C0.790812 17.0791 0.748142 16.555 0.578088 15.9643C0.436453 15.4723 0.275722 15.2247 0.155091 14.6446C-0.074444 13.5408 -0.0300127 12.7742 0.163276 11.6633C0.18906 11.515 0.379808 11.1649 0.383809 11.0901C0.399203 10.8042 0.351906 10.5145 0.412713 10.2107C0.466879 9.93987 0.552959 9.67486 0.62278 9.41096C0.957769 8.14503 1.52106 6.99765 2.2239 5.90674C2.8462 4.94082 3.61177 4.10206 4.50403 3.39279C4.87215 3.10012 5.19772 2.77596 5.61727 2.52561C6.00847 2.29214 6.41538 2.1093 6.81337 1.8909C6.94283 1.82706 7.10893 1.64566 7.22909 1.59396C7.83699 1.33231 8.46035 0.914267 9.06906 0.689953C9.75335 0.437811 10.5281 0.276904 11.2385 0.124096C11.2645 0.25195 11.5261 0.524394 11.6398 0.554437C11.1758 0.615992 9.87082 0.895141 9.47049 1.10273L9.68056 1.09125C9.40289 1.19174 8.92136 1.34307 8.70675 1.53293L8.70318 1.62182C8.6637 1.63817 8.64128 1.64727 8.60276 1.66648L8.65923 1.69768C8.4873 1.79779 7.76178 2.144 7.67903 2.23495C7.68766 2.13033 7.64218 2.11601 7.56909 2.07271L7.56635 2.022C7.45052 2.09289 7.32266 2.17185 7.20216 2.23309C4.51759 3.59713 2.63576 5.52104 1.47781 8.38808C1.07537 9.20535 0.893056 10.36 0.762256 11.2558C0.750463 11.3365 0.663254 11.3019 0.645885 11.3707C0.581587 11.5252 0.547525 11.945 0.565581 12.1041C0.472529 13.0785 0.420812 13.9445 0.661657 14.9191C0.721705 15.162 0.933578 15.5758 0.976514 15.7924C1.09912 16.4768 1.26927 17.085 1.52311 17.7279C1.67289 18.1072 2.08551 18.5978 2.18189 18.8784C2.61791 20.1477 3.32357 21.1944 4.50227 21.851C4.58122 21.895 4.86244 21.9047 4.9611 21.926C5.13733 22.096 5.29288 22.4266 5.47373 22.6063C5.816 22.9464 6.17227 23.1602 6.57753 23.3873C6.7939 23.7172 7.81216 23.9852 8.19664 24.0013C8.64999 24.002 8.88311 24.1749 9.26381 24.3461C10.3487 24.8339 11.623 25.1605 12.8149 25.0507C12.9254 25.0405 13.0463 25.0387 13.1591 25.0332C13.7237 24.9671 14.1728 24.8054 14.7184 24.7246C14.9829 24.6586 15.2039 24.5896 15.4777 24.5414C16.1484 24.4237 16.7451 24.4077 17.3946 24.1822C17.9021 24.0061 18.3396 23.6529 18.7647 23.4708C19.5021 23.1549 19.681 23.1266 20.3348 22.5972C20.7359 22.2514 21.2661 21.9082 21.6101 21.5442C22.2574 20.8592 22.9655 20.0377 23.4048 19.1924C23.9563 18.4937 24.2631 17.0701 24.5673 16.2265C24.7919 15.6041 24.9173 15.119 24.9836 14.4562C25.0557 13.7362 24.9715 13.0572 24.9687 12.3458C24.9833 12.1064 25.0434 11.9308 25.2905 11.8301L25.3254 11.7202C25.489 12.6871 25.5856 13.5788 25.4969 14.5663C25.4525 15.0638 25.2582 15.5568 25.1263 16.035C24.5424 18.7857 22.9696 21.2351 20.7434 22.8884C20.5368 23.0417 20.3199 23.2155 20.0998 23.3515C18.717 24.0389 17.3797 24.9369 15.7872 24.9555C15.1521 24.9631 14.7203 25.1877 14.128 25.3293C12.9236 25.617 11.6683 25.5964 10.4737 25.2693C9.65831 25.048 9.1539 24.7385 8.36611 24.5393L7.94649 24.4734C7.47917 24.3991 6.88927 24.1234 6.46039 23.9054C5.64279 23.4899 5.28981 23.1671 4.82936 22.3653Z" fill="#5E1302"/>
<path d="M8.19664 24.0013C8.64999 24.002 8.88311 24.1749 9.26381 24.3461C10.3487 24.8339 11.623 25.1605 12.8149 25.0507C12.9254 25.0405 13.0463 25.0387 13.1591 25.0332C11.8722 25.442 9.87525 24.8758 8.72733 24.2175C8.5856 24.1363 8.35211 24.0647 8.19664 24.0013Z" fill="#631003"/>
<path d="M20.3348 22.5972C20.1319 23.0144 19.1648 23.3534 18.7772 23.5451C18.2678 23.7971 17.8028 24.1136 17.2576 24.3026C16.9751 24.4007 16.5847 24.3973 16.3589 24.485L16.3617 24.5047C16.4105 24.5067 16.4989 24.5065 16.5424 24.519C16.4107 24.5584 16.3376 24.5392 16.2147 24.5689C16.1563 24.583 15.9618 24.7166 15.901 24.7232C15.5289 24.7646 15.0849 24.7674 14.7184 24.7246C14.9829 24.6586 15.2039 24.5896 15.4777 24.5414C16.1484 24.4237 16.7451 24.4077 17.3946 24.1822C17.9021 24.0061 18.3396 23.6529 18.7647 23.4708C19.5021 23.1549 19.681 23.1266 20.3348 22.5972Z" fill="#631003"/>
<path d="M7.56635 2.022C7.89651 1.78857 9.06664 1.20774 9.47049 1.10273L9.68056 1.09125C9.40289 1.19174 8.92136 1.34307 8.70675 1.53293L8.70318 1.62182C8.6637 1.63817 8.64128 1.64727 8.60276 1.66648L8.65923 1.69768C8.4873 1.79779 7.76178 2.144 7.67903 2.23495C7.68766 2.13033 7.64218 2.11601 7.56909 2.07271L7.56635 2.022Z" fill="#F4BD70"/>
<path d="M7.94649 24.4734C7.86964 24.3888 7.86715 24.4122 7.85134 24.3175C7.96352 24.2308 8.44425 24.2964 8.51538 24.4696C8.48172 24.5327 8.44016 24.541 8.36611 24.5393L7.94649 24.4734Z" fill="#631003"/>
<path d="M0.565581 12.1041C0.547525 11.945 0.581587 11.5252 0.645885 11.3707C0.663254 11.3019 0.750463 11.3365 0.762256 11.2558C0.893056 10.36 1.07537 9.20535 1.47781 8.38808C1.4574 8.52366 1.4366 8.63238 1.441 8.77003L1.39678 8.87235C1.52037 8.91774 1.61382 8.86219 1.74208 8.81494C2.095 8.75217 2.61147 8.88141 2.86937 9.1374C3.17426 9.37922 3.43876 9.65342 3.60505 10.0178C3.61554 10.0861 3.62973 10.1668 3.63472 10.2355C3.70328 11.178 2.88193 12.3665 2.00105 12.6079C1.55269 12.4871 1.20156 12.3898 0.947605 11.9077C0.881701 11.7826 0.890563 11.6496 0.791405 11.5259L0.763273 11.5235C0.715643 11.7557 0.627309 11.8078 0.565581 12.1041Z" fill="#984819"/>
<path d="M1.74208 8.81494C2.095 8.75217 2.61147 8.88141 2.86937 9.1374C2.51168 9.04209 2.1408 8.87397 1.77382 8.90432C1.61043 8.91783 1.49482 9.03441 1.37274 9.01929C1.35018 8.94881 1.36232 8.96214 1.39678 8.87235C1.52037 8.91774 1.61382 8.86219 1.74208 8.81494Z" fill="#F4BD70"/>
<path d="M19.2066 2.37265L19.2443 2.35155C19.1474 2.20997 17.9369 1.77399 17.6931 1.67025C17.7522 1.59424 17.7574 1.55077 17.7954 1.46563C17.8065 1.44076 17.8624 1.37058 17.8696 1.37242C18.4164 1.51081 18.9345 1.78109 19.4439 2.02055C19.462 2.01437 19.4802 2.00818 19.4983 2.00197C20.5404 2.46755 21.3467 3.48185 21.9354 4.43684C22.2256 4.90783 22.6227 5.31243 22.9519 5.75434C23.504 6.55595 24.2649 7.80334 24.4592 8.76865C24.4367 8.93458 24.474 8.97299 24.3759 9.09084C24.2882 9.06632 24.0991 8.79609 23.9775 8.70981C23.7398 8.21426 23.7209 8.29377 23.345 7.96167C23.2858 7.74126 23.2878 7.21966 23.2054 7.04335C22.8886 6.33374 22.2297 5.74664 21.8039 5.11203C20.9774 3.88044 20.5511 3.10629 19.2066 2.37265Z" fill="#5E1302"/>
<path d="M11.2385 0.124096C12.6376 -0.184563 14.716 0.124105 16.0714 0.592826C16.5211 0.748352 16.9359 0.97315 17.3741 1.13831C18.0139 1.37953 18.9292 1.62777 19.4983 2.00197C19.4802 2.00818 19.462 2.01437 19.4439 2.02055C18.9345 1.78109 18.4164 1.51081 17.8696 1.37242C17.8624 1.37058 17.8065 1.44076 17.7954 1.46563C17.7574 1.55077 17.7522 1.59424 17.6931 1.67025C17.9369 1.77399 19.1474 2.20997 19.2443 2.35155L19.2066 2.37265C18.2743 1.93563 17.3309 1.61205 16.3796 1.22313C14.8174 0.584428 13.3138 0.358654 11.6398 0.554437C11.5261 0.524394 11.2645 0.25195 11.2385 0.124096Z" fill="#631003"/>
<path d="M6.57753 23.3873C7.01168 23.5875 7.50837 23.8487 8.00086 23.8767C8.33319 23.8956 8.89793 23.6275 9.21117 23.6826C9.48743 23.7311 9.67889 24.12 10.024 24.1846C9.88145 24.1869 9.64774 24.0411 9.53357 23.9593C9.37602 24.0814 9.2438 24.1077 9.18485 24.1606L9.19556 24.2033C9.79521 24.4052 10.345 24.6343 10.9629 24.7823C11.7978 24.9825 12.5749 25.0002 13.4211 24.8518C13.6085 24.8192 13.8333 24.8263 14.0216 24.7836C14.2699 24.7001 14.4772 24.591 14.7375 24.5425C16.1571 24.3315 17.5238 24.21 18.7375 23.3413C18.9243 23.2318 19.283 23.1797 19.4528 23.0646C20.0866 22.6351 20.8411 22.1277 21.4251 21.6478C21.7837 21.3528 22.1883 20.7702 22.5129 20.4191C22.8064 20.1016 23.0601 19.4955 23.3882 19.1999C23.3939 19.1974 23.3994 19.1949 23.4048 19.1924C22.9655 20.0377 22.2574 20.8592 21.6101 21.5442C21.2661 21.9082 20.7359 22.2514 20.3348 22.5972C19.681 23.1266 19.5021 23.1549 18.7647 23.4708C18.3396 23.6529 17.9021 24.0061 17.3946 24.1822C16.7451 24.4077 16.1484 24.4237 15.4777 24.5414C15.2039 24.5896 14.9829 24.6586 14.7184 24.7246C14.1728 24.8054 13.7237 24.9671 13.1591 25.0332C13.0463 25.0387 12.9254 25.0405 12.8149 25.0507C11.623 25.1605 10.3487 24.8339 9.26381 24.3461C8.88311 24.1749 8.64999 24.002 8.19664 24.0013C7.81216 23.9852 6.7939 23.7172 6.57753 23.3873Z" fill="#D37F2B"/>
<path d="M3.60505 10.0178C4.02603 10.4378 4.33285 10.6734 4.31261 11.3197C4.26986 12.6853 3.03371 12.9133 2.00105 12.6079C2.88193 12.3665 3.70328 11.178 3.63472 10.2355C3.62973 10.1668 3.61554 10.0861 3.60505 10.0178Z" fill="#B36D33"/>
<path d="M7.71255 2.44517L7.73926 2.42617C7.76841 2.40523 7.77615 2.39896 7.8012 2.37162C7.89882 2.35877 7.89101 2.344 7.96719 2.37838C7.96103 2.50863 7.87823 2.58718 7.79553 2.69617C7.52344 2.94901 7.29123 3.07936 6.96072 3.22862C6.81809 3.30896 6.5642 3.3976 6.43842 3.49505C5.55088 4.18279 4.61995 4.8494 3.93029 5.75581C3.74163 6.00379 3.59141 6.13889 3.31418 6.27337C3.53757 5.7832 4.44398 4.69809 4.85524 4.31681C5.40072 3.81113 6.31292 3.37533 6.94266 2.95912C7.1903 2.79543 7.45851 2.59504 7.71255 2.44517Z" fill="#F7F6F2"/>
<path d="M23.9775 8.70981C24.0991 8.79609 24.2882 9.06632 24.3759 9.09084C24.474 8.97299 24.4367 8.93458 24.4592 8.76865C24.5567 9.19551 24.7837 9.39736 24.9122 9.78306C25.1166 10.3954 25.203 11.0827 25.3254 11.7202L25.2905 11.8301C25.0434 11.9308 24.9833 12.1064 24.9687 12.3458C24.9125 12.1389 24.8741 11.7196 24.8147 11.4685C24.5922 10.5283 24.3685 9.59214 23.9775 8.70981Z" fill="#631003"/>
<path d="M11.5361 0.675702C11.6401 0.677637 11.6582 0.660916 11.7376 0.712338C11.6517 0.899516 9.96763 1.10502 9.64359 1.29837C9.31373 1.41608 8.98942 1.5719 8.65923 1.69768L8.60276 1.66648C8.64128 1.64727 8.6637 1.63817 8.70318 1.62182L8.70675 1.53293C8.92136 1.34307 9.40289 1.19174 9.68056 1.09125C9.95491 0.951237 11.1702 0.729208 11.5361 0.675702Z" fill="#F8E6C8"/>
<path d="M11.5361 0.675702C11.7517 0.629153 12.4289 0.549259 12.6138 0.613652C12.6434 0.642302 12.6351 0.624979 12.6399 0.664954C12.5089 0.844429 11.8728 0.824421 11.6633 0.859022C11.2933 0.920114 10.9306 1.00962 10.5657 1.09634C10.3888 1.13611 9.76034 1.31349 9.64359 1.29837C9.96763 1.10502 11.6517 0.899516 11.7376 0.712338C11.6582 0.660916 11.6401 0.677637 11.5361 0.675702Z" fill="#F4BD70"/>
<path d="M7.37408 2.28336L7.39252 2.32128C7.17951 2.56113 6.82051 2.91237 6.45826 2.8287L6.47526 2.78135C6.68732 2.60351 7.11794 2.39664 7.37408 2.28336Z" fill="#FCE2B6"/>
<path d="M7.56909 2.07271C7.64218 2.11601 7.68766 2.13033 7.67903 2.23495C7.82914 2.32375 8.0576 2.27104 8.11526 2.42604C8.06109 2.53474 7.90081 2.6245 7.79553 2.69617C7.87823 2.58718 7.96103 2.50863 7.96719 2.37838C7.89101 2.344 7.89882 2.35877 7.8012 2.37162C7.77615 2.39896 7.76841 2.40523 7.73926 2.42617L7.71255 2.44517C7.66731 2.42098 7.46418 2.35121 7.39252 2.32128L7.37408 2.28336C7.39954 2.20702 7.50404 2.1307 7.56909 2.07271Z" fill="#FCE2B6"/>
<path d="M14.342 12.6726C14.759 12.6528 15.2761 12.6801 15.3925 13.1664C15.6944 14.4275 14.7558 15.6505 13.6725 16.0276C13.0284 16.2465 12.3254 16.1947 11.7188 15.8835C10.887 15.4901 10.3781 14.7765 10.2625 13.8501C10.1331 12.8125 11.3913 12.8932 12.0872 12.8326C12.8374 12.7598 13.5892 12.7064 14.342 12.6726Z" fill="#5E1302"/>
<path d="M12.8113 14.1978C12.8472 14.1938 12.8831 14.1911 12.9191 14.1896C13.5481 14.163 14.1839 14.2949 14.6601 14.7375C14.2289 15.3758 13.819 15.5376 13.1256 15.7286C13.0987 15.7311 13.0719 15.7331 13.045 15.7346C12.2418 15.7783 11.8097 15.5237 11.2431 15.0032C11.7139 14.493 12.121 14.2768 12.8113 14.1978Z" fill="#ED6D49"/>
<path d="M13.8931 1.85295C14.5451 1.8333 14.7943 1.95692 15.304 2.38342C15.9667 2.938 16.2235 3.88525 15.6138 4.58864C15.2894 4.96286 14.8234 5.02856 14.3516 5.05464C13.5028 5.04074 12.4836 4.56922 12.2731 3.63556C12.0815 2.78535 13.1553 1.98328 13.8931 1.85295Z" fill="#A3541D"/>
<path d="M16.9502 9.05751C17.8511 8.91728 18.6923 9.55076 18.8267 10.4708C18.9611 11.3908 18.3377 12.2472 17.4359 12.3815C16.5381 12.5151 15.7037 11.8823 15.5699 10.9666C15.4361 10.0508 16.0533 9.19709 16.9502 9.05751Z" fill="#5E1302"/>
<path d="M16.701 9.64084C17.3218 9.73936 17.3542 10.5248 16.7218 10.7317C16.4675 10.6994 16.2836 10.57 16.2205 10.3066C16.1847 10.1622 16.2089 10.0091 16.2874 9.88349C16.3911 9.71893 16.5268 9.67532 16.701 9.64084Z" fill="#F7F6F2"/>
<path d="M17.8295 11.069C17.9202 11.0259 18.0267 11.0364 18.1078 11.0963C18.1888 11.1562 18.2317 11.2563 18.22 11.3577C18.2082 11.4592 18.1435 11.5461 18.051 11.5851C17.9122 11.6434 17.7531 11.5779 17.6929 11.4376C17.6326 11.2973 17.6933 11.1335 17.8295 11.069Z" fill="#F7F6F2"/>
<path d="M8.24567 9.3857C10.3207 9.27183 10.6588 12.3599 8.63917 12.7702C7.60594 12.8129 6.98891 12.3709 6.83464 11.2833C6.70111 10.3416 7.29275 9.47529 8.24567 9.3857Z" fill="#5E1302"/>
<path d="M7.73466 10.0734C7.99633 9.98999 8.27509 10.1369 8.35988 10.403C8.44469 10.6691 8.30399 10.9553 8.04427 11.0449C7.87358 11.1038 7.68503 11.0645 7.55061 10.9421C7.41618 10.8196 7.35666 10.6328 7.39475 10.453C7.43284 10.2733 7.56266 10.1283 7.73466 10.0734Z" fill="#F7F6F2"/>
<path d="M9.05609 11.4455C9.15345 11.4226 9.2552 11.4559 9.32149 11.5321C9.38778 11.6083 9.408 11.7154 9.37421 11.8113C9.34043 11.9073 9.25805 11.9767 9.15937 11.9924C9.01411 12.0156 8.87694 11.9172 8.84913 11.7698C8.82132 11.6225 8.91282 11.4791 9.05609 11.4455Z" fill="#F7F6F2"/>
<path d="M19.1687 16.0635C20.1332 15.9756 20.6671 16.5144 20.8566 17.4601C20.9274 17.8139 20.7122 18.301 20.5097 18.5806C20.2232 18.9766 19.8881 19.1291 19.4201 19.1977C19.0388 19.1548 18.6957 19.1251 18.3631 18.8968C18.0356 18.6661 17.7426 18.1721 17.686 17.7686C17.5479 16.7843 18.342 16.2085 19.1687 16.0635Z" fill="#984819"/>
<path d="M6.94162 18.7058C6.57876 19.1491 5.92204 19.2946 5.37282 19.1772C4.86904 19.0508 4.49437 18.5755 4.34764 18.086C4.33235 18.035 4.40437 17.8618 4.41666 17.8043C4.45 17.6484 4.47399 17.4914 4.50849 17.3357C4.67714 16.5748 5.53175 16.2314 6.2203 16.4266C6.65589 16.5501 6.86817 16.7665 7.08172 17.157C7.49573 17.5653 7.39384 18.3652 6.94162 18.7058Z" fill="#B36D33"/>
<path d="M7.08172 17.157C7.49573 17.5653 7.39384 18.3652 6.94162 18.7058C6.98141 18.6314 7.02046 18.5566 7.0587 18.4813C7.3069 17.9922 7.23732 17.6591 7.08172 17.157Z" fill="#F4BD70"/>
<path d="M7.57235 4.57297C7.89274 4.53191 8.31673 4.55958 8.59116 4.74932C8.86032 4.93646 9.04458 5.22609 9.10256 5.55321C9.26779 6.53921 8.64944 7.10961 7.75536 7.26624C7.09499 7.35782 6.37721 7.28902 6.22923 6.48132C6.05477 5.52923 6.64519 4.73238 7.57235 4.57297Z" fill="#984819"/>
<path d="M12.9705 20.3483C13.1766 19.7807 13.6321 19.4929 14.2075 19.4129C14.5855 19.3604 14.7828 19.4089 15.0725 19.6356C15.438 19.9417 15.3962 20.2291 15.3929 20.6915C15.4075 21.3112 14.7775 21.8831 14.1836 21.6429C14.0052 21.5708 13.8393 21.3579 13.6799 21.2518C13.4097 21.072 13.1948 21.0172 12.97 20.7658C12.9618 20.6331 12.9466 20.4775 12.9705 20.3483Z" fill="#984819"/>
<path d="M15.0725 19.6356C15.438 19.9417 15.3962 20.2291 15.3929 20.6915C15.4075 21.3112 14.7775 21.8831 14.1836 21.6429C14.0052 21.5708 13.8393 21.3579 13.6799 21.2518C13.4097 21.072 13.1948 21.0172 12.97 20.7658C12.9618 20.6331 12.9466 20.4775 12.9705 20.3483C13.0332 20.9134 13.28 20.8639 13.6796 21.1347C13.8512 21.2513 14.0176 21.4692 14.2142 21.539C15.1172 21.8594 15.3434 20.9724 15.261 20.2489C15.2287 19.9659 15.1846 19.8793 15.0725 19.6356Z" fill="#D37F2B"/>
<path d="M18.0838 4.82934C18.1917 4.81623 18.3403 4.82312 18.4525 4.82522C18.9217 5.14768 19.3319 5.72988 19.3475 6.3144C19.3626 6.88198 18.8652 7.28133 18.3418 7.26782C17.72 7.10044 16.6261 6.35708 17.1074 5.59262C17.3097 5.27138 17.7112 4.91439 18.0838 4.82934Z" fill="#AA5921"/>
<path d="M1.86638 7.74011C2.08848 7.22781 3.24831 5.15983 3.68863 5.01345L3.73017 5.04456C3.75645 5.36429 3.14509 5.90015 3.06491 6.17717C2.9719 6.49857 2.90054 6.82582 2.80328 7.15008C2.74786 7.26265 2.72813 7.32876 2.62283 7.37714L2.57026 7.34744C2.50769 7.25086 2.503 7.13704 2.48688 7.02086L2.44939 7.0391L2.44491 7.06189C2.24185 7.25632 2.09043 7.71814 1.9217 7.77314L1.86638 7.74011Z" fill="#FCE2B6"/>
<path d="M22.3366 8.23358C22.707 8.23211 23.0217 8.85875 23.1805 9.16298C23.3989 9.58066 23.5562 10.2319 23.4191 10.7019C23.4014 10.7626 23.3171 10.9301 23.2621 10.9585L23.279 10.8693C23.5712 10.5322 23.4074 9.90967 23.2955 9.52102C23.2615 9.40281 23.0385 8.9029 22.937 8.85272C22.8828 8.88709 22.8779 8.89301 22.8149 8.91326C22.6726 8.82927 22.4211 8.5464 22.318 8.39618C22.2875 8.35193 22.32 8.28855 22.3366 8.23358Z" fill="#FCE2B6"/>
<path d="M13.4656 22.7594C13.5663 22.7825 13.6038 22.7805 13.6709 22.8589C13.7082 22.9532 13.6992 22.9713 13.6872 23.0767C13.5044 23.0405 13.4481 22.9447 13.4656 22.7594Z" fill="#F4BD70"/>
</svg>
