<svg width="253" height="57" viewBox="0 0 253 57" fill="none" xmlns="http://www.w3.org/2000/svg">
<path d="M217.492 13.4426H224.332V1.15161H242.079V13.4426H250.726V27.8461H242.079V36.3602C242.079 39.3689 242.724 40.0091 246.08 40.0091H252.016L251.371 55.0528H243.563C229.043 55.0528 224.332 51.5959 224.332 38.9208V27.8461H217.492V13.4426Z" fill="#3D2000"/>
<path d="M197.137 23.6861V13.4436H214.883V24.9664L197.137 23.6861ZM197.137 55.0538V26.2467H214.883V55.0538H197.137Z" fill="#3D2000"/>
<path d="M151.634 55.0533V13.4432H169.38V55.0533H151.634ZM170.025 16.4519C173.445 13.4432 177.253 12.1628 181.77 12.1628C190.998 12.1628 194.547 16.7079 194.547 27.6546V36.0407L176.801 37.321V30.2793C176.801 28.9989 176.349 28.6789 175.188 28.6789C174.284 28.6789 172.929 29.319 171.316 30.5353L170.025 16.4519Z" fill="#3D2000"/>
<path d="M124.546 56.3336C109.703 56.3336 99.8301 47.8836 99.3784 35.1444H117.512C117.899 38.6013 120.545 40.9699 124.546 40.9699C128.869 40.9699 131.644 38.1532 131.644 34.1842C131.644 30.2152 128.869 27.5266 124.546 27.5266C120.545 27.5266 117.576 30.0872 117.512 34.5043L99.3784 33.224C99.8947 20.5489 109.768 12.1628 124.546 12.1628C139.71 12.1628 149.713 20.997 149.713 34.2482C149.713 47.4995 139.71 56.3336 124.546 56.3336Z" fill="#3D2000"/>
<path d="M63.5361 13.4426H70.3764V1.15161H88.1225V13.4426H96.7697V27.8461H88.1225V36.3602C88.1225 39.3689 88.7679 40.0091 92.1235 40.0091H98.0604L97.415 55.0528H89.6068C75.0872 55.0528 70.3764 51.5959 70.3764 38.9208V27.8461H63.5361V13.4426Z" fill="#3D2000"/>
<path d="M2.32312 34.3764C12.6481 37.8972 21.5534 38.7935 29.6844 38.7935C35.6212 38.7935 36.9119 38.3454 36.9119 36.809C36.9119 35.2726 35.4922 34.8885 30.7814 34.8885C9.80875 34.8885 0 29.6392 0 17.7963C0 6.08148 10.9703 0 32.3947 0C41.7517 0 51.3023 1.47236 59.5623 4.48109L57.6909 20.8051C47.5595 17.9244 39.6222 17.2202 31.8139 17.2202C26.7159 17.2202 24.78 17.6683 24.78 19.2047C24.78 20.7411 26.3933 21.1252 30.3942 21.1252C52.9802 21.1252 61.6273 26.3104 61.6273 38.1533C61.6273 50.3163 52.3348 56.3337 33.4917 56.3337C21.2953 56.3337 9.80875 54.7974 0.387187 51.2125L2.32312 34.3764Z" fill="#3D2000"/>
</svg>
