<svg width="184" height="221" viewBox="0 0 184 221" fill="none" xmlns="http://www.w3.org/2000/svg">
<path d="M49.8928 0.123715C58.0746 -0.541208 63.9966 1.46182 70.4059 6.43162C77.5549 3.2566 86.2455 3.50978 92.7228 7.95882C107.207 17.9056 103.502 40.0238 86.0387 43.8367C87.196 50.1487 89.3335 56.5665 90.9324 62.7885C91.8013 66.1662 93.8107 69.8353 93.0679 73.3311C97.9117 74.7633 100.76 76.1248 104.693 79.3367C106.342 80.4544 108.157 81.5156 109.76 82.6857C123.886 92.9928 132.597 108.81 134.063 126.225C134.452 130.838 134.991 134.132 134.581 138.904C136.526 139.858 138.646 140.697 140.653 141.521C143.817 140.479 145.681 141.018 148.078 143.346C155.222 142.146 159.078 146.865 160.56 153.435C163.177 154.336 163.669 156.13 164.668 158.511C165.582 160.692 166.453 162.9 167.317 165.104C172.425 165.773 175.338 167.286 178.08 171.694C179.714 172.064 183.134 172.587 183.689 174.392C184.229 176.146 184.05 178.722 183.272 180.397C182.805 181.405 181.303 181.731 180.331 182.051C179.248 186.198 177.101 199.885 174.799 202.808C172.01 206.353 153.526 210.809 148.456 211.719C146.862 212.003 144.544 212.239 142.989 212.107C135.503 211.478 122.122 208.144 115.826 204.683C112.512 202.863 110.287 186.609 109.66 182.311C106.179 183.737 106.075 184.73 103.211 186.943C101.48 188.277 99.4516 189.134 97.4457 189.952C98.157 194.215 98.3287 197.144 98.2901 201.446C98.2796 202.845 98.0747 204.474 97.9345 205.884C98.2061 206.037 98.4741 206.199 98.7369 206.365C103.794 209.626 105.273 217.545 97.8399 218.393C93.0766 218.937 84.3939 219.523 80.2552 217.007C77.1292 215.109 79.1468 204.764 78.9695 201.616C78.9138 198.944 78.9157 197.284 78.5976 194.442C72.2166 195.548 69.0123 195.423 62.716 193.741C61.64 200.28 57.9953 204.264 53.4167 208.544C53.7796 213.06 53.6663 218.71 48.4733 220.635C46.4539 221.337 44.0619 220.97 42.1568 220.013C35.1907 216.519 32.2345 204.244 35.2013 197.386C36.2574 194.944 39.3614 193.72 41.7327 193.123C44.0542 192.54 45.1751 191.241 46.2591 189.116C42.8144 187.856 41.4759 187.025 38.3944 185.052C37.1607 184.288 35.2044 183.645 34.1514 182.678C28.4706 177.456 22.1701 172.206 18.287 165.441C16.8476 162.932 17.3324 160.95 16.272 158.692C15.4703 156.985 12.8821 155.277 12.4226 153.096C11.1403 147.462 9.8087 141.249 9.0922 135.535C8.81891 133.357 9.18171 129.432 9.39859 127.262C9.9308 121.936 11.7205 116.547 13.4795 111.529C13.8238 110.572 14.9521 109.003 15.3573 107.979C18.4748 100.1 23.5397 91.6457 30.267 86.2055C28.5327 83.5613 28.7527 77.9973 28.2129 74.7582C27.4456 70.1517 26.6051 65.6763 25.3361 61.1679C23.6695 61.7888 22.5657 62.0746 20.7718 62.2267C15.982 62.6305 11.2286 61.1089 7.55914 57.997C3.1853 54.2908 0.500765 48.5353 0.0538674 42.8509C-0.337847 37.5011 1.41874 32.2161 4.9333 28.1706C9.74476 22.5608 15.2675 20.6405 22.3945 20.0751C23.302 17.397 24.697 14.9107 26.5087 12.7425C32.1953 5.81375 40.9694 1.00934 49.8928 0.123715ZM135.566 162.806C135.943 163.907 136.283 164.953 136.763 166.017C137.614 165.956 138.753 165.84 139.576 165.898C140.01 165.784 141.85 164.114 142.589 163.605C142.078 163.064 141.673 162.66 141.244 162.042C140.524 161.979 139.401 161.91 138.73 161.791C137.759 162.089 136.489 162.439 135.566 162.806ZM158.004 164.957C158.424 165.52 158.78 166.175 159.403 166.366C159.919 166.28 159.948 166.236 160.399 165.998C160.954 165.791 161.513 165.587 162.072 165.39C161.747 164.568 160.251 160.655 159.759 160.154C159.176 161.469 158.38 163.552 158.004 164.957Z" fill="#65210F"/>
<path d="M32.989 86.7913C47.1217 86.1694 63.0849 82.8119 76.9256 79.7842C79.8787 79.09 82.7694 78.1862 85.6442 77.2323C87.4199 76.6431 89.7197 75.0764 91.4754 75.4295C93.1064 75.8654 95.6273 76.589 97.0691 77.4076C100.215 78.6357 100.007 79.2157 102.742 81.0902C104.423 82.2423 106.359 83.3576 108.102 84.5807C112.655 87.7745 119.013 93.6745 121.67 98.628C122.42 99.7389 123.145 100.868 123.841 102.013C127.576 107.404 130.235 116.64 131.195 123.037C131.302 123.752 131.728 126.154 131.722 126.791C131.793 127.364 131.941 128.32 131.927 128.864C132.188 130.485 132.306 132.126 132.276 133.767C132.364 134.651 132.609 136.023 132.274 136.788C131.123 137.515 128.122 134.949 126.977 134.151C126.11 133.814 125.519 133.39 124.682 133.398C124.1 133.775 124.302 133.522 124.076 134.199C127.418 137.796 130.503 138.543 133.858 140.927C135.82 141.825 137.791 142.706 139.77 143.569C140.881 143.825 141.307 143.827 141.92 144.875C142.577 149.202 141.78 153.821 138.04 156.543C131.514 154.309 126.134 152.014 120.754 147.472C119.813 146.677 118.309 145.098 117.123 145.518L116.823 146.071C119.312 150.104 123.599 152.404 127.529 154.78C127.246 155.796 126.929 157.083 126.602 158.067C124.303 163.568 121.488 168.77 116.995 172.787C113.382 176.016 109.975 178.934 105.792 181.382C105.171 181.744 104.408 182.968 103.81 183.468C100.254 186.4 95.0089 189.111 90.3385 188.944C89.7548 189.55 89.8518 189.28 89.7478 190.014C90.0643 190.913 90.7852 191.137 91.5998 191.459C89.1994 191.998 86.6405 192.507 84.2692 193.093C84.9519 192.635 86.1386 192.026 85.6286 191.099C84.4316 190.449 82.4974 191.028 81.2271 191.313C72.7769 193.313 67.2051 193.292 59.0228 190.043C56.6933 189.118 53.4072 188.77 50.9369 187.603C49.3291 186.843 46.3718 186.858 44.6644 186.002C42.9189 185.124 41.3961 183.889 39.7289 182.882C35.5408 181.194 33.8711 179.284 30.7153 176.164C26.8593 172.352 22.7845 168.751 20.1593 163.861C19.046 161.787 19.3132 159.766 18.3786 157.691C17.5111 156.028 15.149 154.134 14.7654 152.223C13.8171 147.506 12.1252 141.009 11.7291 136.315C10.9087 126.595 13.8993 116.75 17.8422 108.008C18.6683 106.177 19.6727 104.934 21.5971 104.29C21.7083 103.006 21.8224 101.189 22.2749 100.02C23.6688 96.4208 27.9938 91.9472 30.6403 89.1614L32.989 86.7913Z" fill="#F6C15A"/>
<path d="M115.45 140.428C116.641 136.991 119.857 132.49 124.076 134.199C127.418 137.796 130.503 138.543 133.858 140.927C135.82 141.825 137.791 142.706 139.77 143.569C140.881 143.825 141.307 143.827 141.92 144.875C142.577 149.202 141.78 153.821 138.04 156.543C131.514 154.309 126.134 152.014 120.754 147.472C119.813 146.677 118.309 145.098 117.123 145.518L116.823 146.071L116.69 146.54C116.187 145.616 114.994 144.594 114.808 143.904C115.273 143.157 115.341 141.391 115.45 140.428Z" fill="#F6C15A"/>
<path d="M114.808 143.904C115.273 143.157 115.341 141.391 115.45 140.428C116.474 145.3 132.9 152.357 138.012 152.799C140.277 151.309 141.994 147.686 140.935 145.105L141.079 144.733L141.624 145.33C141.881 145.095 141.822 145.195 141.92 144.875C142.577 149.202 141.78 153.821 138.04 156.543C131.514 154.309 126.134 152.014 120.754 147.472C119.813 146.677 118.309 145.098 117.123 145.518L116.823 146.071L116.69 146.54C116.187 145.616 114.994 144.594 114.808 143.904Z" fill="#DE9F55"/>
<path d="M139.77 143.569C139.844 143.627 139.918 143.688 139.989 143.75C140.44 144.136 140.622 144.349 140.671 144.889L140.328 145.118C137.674 145.007 122.017 137.159 123.399 134.853C125.547 135.221 130.156 140.449 133.858 140.927C135.82 141.825 137.791 142.706 139.77 143.569Z" fill="#FAE8C4"/>
<path d="M32.989 86.7913C47.1217 86.1694 63.0849 82.8119 76.9256 79.7842C79.8787 79.09 82.7694 78.1862 85.6442 77.2323C87.4199 76.6431 89.7197 75.0764 91.4754 75.4295C91.2459 76.7245 89.6933 77.8242 88.6796 78.5397C76.4325 87.186 47.0569 92.3768 32.4437 89.7874C31.7709 89.6682 31.2144 89.5619 30.6403 89.1614L32.989 86.7913Z" fill="#DE9F55"/>
<path d="M119.235 102.279C120.125 100.644 120.486 100.106 121.67 98.628C122.42 99.7389 123.145 100.868 123.841 102.013C127.576 107.404 130.235 116.64 131.195 123.037C131.302 123.752 131.728 126.154 131.722 126.791C131.085 126.971 131.071 127.052 130.649 127.613L130.331 127.708C129.713 127.779 129.103 127.841 128.49 127.944C128.023 126.78 127.492 123.554 127.052 122.139C126.639 120.006 124.941 117.237 124.489 115.219C123.552 111.021 123.44 109.236 121.113 105.45C120.306 104.372 119.859 103.461 119.235 102.279Z" fill="#F8D387"/>
<path d="M119.235 102.279C120.125 100.644 120.486 100.106 121.67 98.628C122.42 99.7389 123.145 100.868 123.841 102.013C122.597 103.616 122.445 103.154 121.113 105.45C120.306 104.372 119.859 103.461 119.235 102.279Z" fill="#FAE8C4"/>
<path d="M97.0691 77.4076C100.215 78.6357 100.007 79.2157 102.742 81.0902C104.423 82.2423 106.359 83.3576 108.102 84.5807C112.655 87.7745 119.013 93.6745 121.67 98.628C120.486 100.106 120.125 100.644 119.235 102.279C116.175 97.7968 114.078 95.2802 110.508 91.3088C107.678 88.9832 100.198 82.3143 96.8676 81.3135C96.3316 81.1065 96.1704 81.0974 95.8341 80.6649C95.8446 80.1796 95.9619 79.9598 96.3333 79.6095C97.3897 78.6148 96.8782 78.2958 97.0691 77.4076Z" fill="#F8D387"/>
<path d="M97.8784 78.2359C99.2291 78.8196 99.5935 79.0719 100.762 79.9733C100.236 80.3526 99.8475 80.5385 99.6075 81.1269C99.9964 82.6769 111.601 88.96 110.508 91.3088C107.678 88.9832 100.198 82.3143 96.8676 81.3135C96.4104 80.5777 96.3596 80.7559 96.4086 80.0551C96.9219 79.1795 97.3108 79.0592 97.8784 78.2359Z" fill="#FAE8C4"/>
<path d="M114.808 143.904C110.982 139.708 115.026 131.418 120.449 131.05C123.044 130.874 125.164 132.531 126.977 134.151C126.11 133.814 125.519 133.39 124.682 133.398C124.1 133.775 124.302 133.522 124.076 134.199C119.857 132.49 116.641 136.991 115.45 140.428C115.341 141.391 115.273 143.157 114.808 143.904Z" fill="#A55C29"/>
<path d="M116.823 146.071C119.312 150.104 123.599 152.404 127.529 154.78C127.246 155.796 126.929 157.083 126.602 158.067L126.504 157.882C126.013 156.943 121.618 154.288 120.102 152.341C118.132 149.806 118.123 149.372 116.69 146.54L116.823 146.071Z" fill="#DE9F55"/>
<path d="M81.2271 191.313C83.4768 190.035 87.7116 188.971 90.3385 188.944C89.7548 189.55 89.8518 189.28 89.7478 190.014C90.0643 190.913 90.7852 191.137 91.5998 191.459C89.1994 191.998 86.6405 192.507 84.2692 193.093C84.9519 192.635 86.1386 192.026 85.6286 191.099C84.4316 190.449 82.4974 191.028 81.2271 191.313Z" fill="#C48048"/>
<path d="M130.331 127.708L130.649 127.613C131.071 127.052 131.085 126.971 131.722 126.791C131.793 127.364 131.941 128.32 131.927 128.864C131.826 130.579 132.033 130.05 130.72 130.957C130.482 131.851 130.279 133.136 129.282 133.395C128.923 131.499 129.245 130.026 128.49 127.944C129.103 127.841 129.713 127.779 130.331 127.708Z" fill="#FAE8C4"/>
<path d="M130.331 127.708L130.649 127.613C131.071 127.052 131.085 126.971 131.722 126.791C131.793 127.364 131.941 128.32 131.927 128.864C131.826 130.579 132.033 130.05 130.72 130.957C130.706 129.772 130.782 128.797 130.331 127.708Z" fill="#F6C15A"/>
<path d="M131.927 128.864C132.188 130.485 132.306 132.126 132.276 133.767L132.115 132.954C131.982 132.29 131.91 131.964 131.178 131.848C130.33 132.493 130.559 133.094 129.627 133.96C129.279 133.762 129.431 133.903 129.282 133.395C130.279 133.136 130.482 131.851 130.72 130.957C132.033 130.05 131.826 130.579 131.927 128.864Z" fill="#F8D387"/>
<path d="M63.0883 128.284C60.3158 123.846 60.1339 118.739 64.923 115.287C66.798 113.935 70.359 113.921 72.5572 114.504C74.8113 115.123 76.7213 116.626 77.8558 118.674C80.4932 123.339 77.3751 127.885 73.5757 130.641C70.2344 133.195 64.8688 132.224 63.0883 128.284Z" fill="#994F20"/>
<path d="M63.0883 128.284C63.5232 128.656 64.2827 129.301 64.7734 129.536C66.6754 130.447 71.4253 130.764 73.5757 130.641C70.2344 133.195 64.8688 132.224 63.0883 128.284Z" fill="#C48048"/>
<path d="M100.138 165.51C99.3342 165.927 96.9482 166.293 95.9532 166.205C94.105 166.061 92.3952 165.164 91.2267 163.722C89.9182 162.123 89.3066 160.061 89.5297 158.005C90.0682 152.768 94.0331 150.857 98.8507 151.363C100.573 151.667 101.776 152.29 102.819 153.776C103.166 154.271 103.469 154.794 103.726 155.342C104.788 157.361 105.452 159.975 104.775 162.216C104.429 163.392 103.604 164.368 102.502 164.906C101.778 165.259 100.932 165.417 100.138 165.51Z" fill="#A55C29"/>
<path d="M98.8507 151.363C100.573 151.667 101.776 152.29 102.819 153.776C103.166 154.271 103.469 154.794 103.726 155.342C104.788 157.361 105.452 159.975 104.775 162.216C104.429 163.392 103.604 164.368 102.502 164.906C101.778 165.259 100.932 165.417 100.138 165.51C101.296 164.502 101.582 163.747 102.295 162.412L102.335 162.254C99.0855 163.201 99.6443 158.155 95.608 156.007C95.6921 153.656 95.9409 151.442 98.8507 151.363Z" fill="#87451D"/>
<path d="M103.726 155.342C104.788 157.361 105.452 159.975 104.775 162.216C104.429 163.392 103.604 164.368 102.502 164.906C101.778 165.259 100.932 165.417 100.138 165.51C101.296 164.502 101.582 163.747 102.295 162.412L102.335 162.254C104.331 160.251 103.964 157.932 103.726 155.342Z" fill="#C48048"/>
<path d="M95.608 156.007C99.6443 158.155 99.0855 163.201 102.335 162.254L102.295 162.412C101.787 162.609 101.55 162.681 101.021 162.811C100.382 162.721 96.7222 158.458 95.8253 157.745C95.4031 157.41 95.5502 156.566 95.608 156.007Z" fill="#994F20"/>
<path d="M34.6727 146.777C37.2302 144.417 41.3487 143.792 43.8342 146.607C45.6041 148.61 45.6153 150.645 45.5438 153.177C45.7173 158.493 43.0026 161.872 37.2092 160.744C35.1226 160.34 33.3651 158.913 32.208 157.14C30.2467 154.134 31.5954 148.531 34.6727 146.777Z" fill="#9C5120"/>
<path d="M34.6727 146.777C37.2302 144.417 41.3487 143.792 43.8342 146.607C45.6041 148.61 45.6153 150.645 45.5438 153.177C43.9509 147.477 40.3955 144.949 34.6727 146.777Z" fill="#C48048"/>
<path d="M92.8787 96.1193C94.6112 96.0131 96.5698 95.9269 98.1009 96.7813C103.378 99.7275 105.014 107.884 98.1097 110.039C86.7291 110.276 84.9321 98.7311 92.8787 96.1193Z" fill="#87451D"/>
<path d="M25.4072 105.572C26.4965 106.331 31.0033 107.107 31.3989 109.086C30.7261 108.864 30.48 108.504 29.9862 107.986C30.4392 109.756 31.0499 113.566 30.4462 115.359C30.1437 116.258 29.9828 115.868 30.5618 116.817C30.6725 117.7 28.6826 120.151 28.0486 121.109C27.2153 122.065 25.5806 122.193 24.4077 122.057C20.3708 121.643 19.4178 116.752 20.3126 113.498C21.0435 110.84 22.9944 107.04 25.4072 105.572Z" fill="#F8D387"/>
<path d="M40.7834 93.6745C42.8469 93.5302 45.6453 94.6569 46.583 96.5518C48.5815 100.59 44.8992 102.937 41.9541 104.45C33.9926 106.669 33.4222 95.1728 40.7834 93.6745Z" fill="#A95B24"/>
<path d="M30.8053 11.1625C36.6633 5.67592 45.8038 1.69551 53.8705 2.01805C62.7642 2.37361 68.203 6.16228 74.27 11.9533C73.5855 10.0653 73.1591 9.53676 71.8775 7.96251C77.7626 5.97897 83.9782 5.79778 89.6206 8.61461C98.397 12.9957 101.703 22.6475 98.0046 31.6063C95.9724 36.377 92.8174 39.3454 88.014 41.2617C87.2472 41.5626 86.4685 41.832 85.6796 42.0685C85.3012 39.9669 84.9195 37.5425 84.4016 35.4997C85.1518 35.1661 85.9738 34.8182 86.7048 34.4571C89.6742 32.6215 90.5925 31.5537 92.2743 28.5068C91.253 29.4781 90.209 30.4851 89.0025 31.2157C84.1087 35.5718 76.7126 35.0723 71.3955 31.7886C72.2888 30.579 72.8016 29.5873 73.4473 28.2389C73.6575 27.4177 73.8946 26.5531 74.0811 25.7311C73.4759 26.6922 72.4743 28.3899 71.7771 29.2049C66.0745 37.8928 51.591 40.3315 42.3861 37.0311C40.9433 36.5136 36.9811 34.419 35.9169 34.499C36.7481 35.4756 37.1915 35.8343 38.2258 36.6093C39.3456 37.2209 40.5209 37.7745 41.6698 38.3334C36.4862 46.262 27.9607 50.1843 18.8015 48.2113C18.0559 48.0507 16.793 47.6546 16.1528 48.0005L16.2375 48.2321C17.3031 49.0503 20.9016 49.9487 22.3033 50.3441C22.7999 52.3436 16.9829 54.3052 15.4379 55.0544C18.73 55.0721 20.114 54.6274 22.8724 52.7933C23.5651 55.0232 24.1972 57.4112 24.8326 59.6685C14.8094 62.0257 6.19218 56.8155 3.13012 46.9944C1.39158 41.4181 2.01472 37.4551 4.64039 32.3436C9.25441 24.8749 16.3838 21.5224 25.0426 21.2845C25.9329 21.2601 27.262 21.4797 28.1867 21.56C28.0802 21.2501 27.4279 21.0239 27.0466 20.8315C25.9503 20.5051 24.9899 20.3645 23.8691 20.1787C25.7936 16.9078 27.9225 13.675 30.8053 11.1625Z" fill="#FEFEFE"/>
<path d="M24.8326 59.6685C14.8094 62.0257 6.19218 56.8155 3.13012 46.9944C1.39158 41.4181 2.01472 37.4551 4.64039 32.3436C4.73552 39.2624 5.93886 43.829 12.6718 47.0307C12.8772 46.0248 12.9848 45.4779 13.338 44.5201C19.1499 46.9911 23.2305 47.6275 29.4102 45.1771C32.9508 43.7732 36.7296 41.5851 39.2662 38.7186C38.8638 38.0256 38.4224 37.377 38.2258 36.6093C39.3456 37.2209 40.5209 37.7745 41.6698 38.3334C36.4862 46.262 27.9607 50.1843 18.8015 48.2113C18.0559 48.0507 16.793 47.6546 16.1528 48.0005L16.2375 48.2321C17.3031 49.0503 20.9016 49.9487 22.3033 50.3441C22.7999 52.3436 16.9829 54.3052 15.4379 55.0544C18.73 55.0721 20.114 54.6274 22.8724 52.7933C23.5651 55.0232 24.1972 57.4112 24.8326 59.6685Z" fill="#DBD8DD"/>
<path d="M34.3188 32.0783C35.6038 32.4504 36.9848 33.0902 38.3297 33.5446C47.2153 36.5479 57.0454 37.1169 65.7961 33.3348C68.0129 32.3766 69.9606 29.9991 71.7771 29.2049C66.0745 37.8928 51.591 40.3315 42.3861 37.0311C40.9433 36.5136 36.9811 34.419 35.9169 34.499C35.4647 33.6914 34.8511 32.8482 34.3188 32.0783Z" fill="#DBD8DD"/>
<path d="M86.7048 34.4571C88.8643 37.4918 95.6536 32.8572 97.8417 31.6917L98.0046 31.6063C95.9724 36.377 92.8174 39.3454 88.014 41.2617C87.2472 41.5626 86.4685 41.832 85.6796 42.0685C85.3012 39.9669 84.9195 37.5425 84.4016 35.4997C85.1518 35.1661 85.9738 34.8182 86.7048 34.4571Z" fill="#DBD8DD"/>
<path d="M71.3955 31.7886C72.2888 30.579 72.8016 29.5873 73.4473 28.2389C75.4877 32.1401 82.4736 32.4131 86.2448 31.7105C86.9779 31.5739 88.3386 31.1765 89.0025 31.2157C84.1087 35.5718 76.7126 35.0723 71.3955 31.7886Z" fill="#DBD8DD"/>
<path d="M30.8053 11.1625C29.8334 13.2338 26.9684 18.892 27.0466 20.8315C25.9503 20.5051 24.9899 20.3645 23.8691 20.1787C25.7936 16.9078 27.9225 13.675 30.8053 11.1625Z" fill="#DBD8DD"/>
<path d="M70.6079 32.9023C74.3266 35.9565 78.0491 36.9059 82.7602 35.9816L83.0562 37.9917C84.4216 46.1574 86.2257 54.2434 88.4605 62.2142L85.3944 62.4455L82.9846 62.7164C82.2961 59.8895 81.6181 56.7809 80.6896 54.028C80.522 53.5307 80.5514 53.6308 80.1888 53.4773C80.5369 56.4099 81.4342 59.859 81.9576 62.847C79.3982 63.1244 76.8468 63.4716 74.3061 63.8879C73.7532 63.9994 73.7055 64.0245 73.1588 63.9433C72.7154 63.0386 72.6148 61.9956 72.3324 61.0686C71.6019 58.6715 70.7095 53.9205 69.5762 51.8731L69.3 51.9066C69.8247 55.3654 71.1193 60.7836 72.0103 64.2274C67.5241 64.883 63.0644 65.7083 58.6405 66.7014L57.8863 66.8736L57.5459 66.6359C57.0801 65.8268 56.937 64.4494 56.7774 63.4831C56.46 62.354 54.9663 56.595 54.2749 56.2956C54.9609 59.9436 55.737 63.5741 56.6022 67.1837C52.7937 67.9232 47.8587 68.9755 44.122 70.0298C43.5043 67.0868 42.6428 64.5654 41.9217 61.7193C41.626 61.0342 41.2637 59.8636 40.5814 59.6255C41.3061 63.3386 42.1484 66.6425 43.1135 70.3029C41.2315 70.7609 39.3612 71.2664 37.5046 71.819C36.8561 71.9935 36.0579 72.1761 35.454 72.4404C35.0325 72.6121 34.9038 72.7088 34.4567 72.7547C33.4678 72.9368 31.2871 73.7548 30.2477 74.1145C28.9091 66.0737 26.5595 57.9378 24.2245 50.1478C32.5512 50.0583 39.1715 46.0803 43.2943 38.8587C53.1183 41.7947 63.1857 40.2962 70.6079 32.9023Z" fill="#FEFEFE"/>
<path d="M70.6079 32.9023C74.3266 35.9565 78.0491 36.9059 82.7602 35.9816L83.0562 37.9917C78.5205 38.6998 74.5596 37.7727 70.675 35.3934C64.4964 40.5576 56.5332 43.0675 48.5176 42.377C46.8306 42.2363 44.9521 41.8869 43.4011 41.1806C39.2594 46.2659 37.3583 48.2126 31.3594 51.1676C32.9818 55.6575 34.0909 60.1801 35.4141 64.7561C35.9924 66.7561 36.6304 70.088 37.5046 71.819C36.8561 71.9935 36.0579 72.1761 35.454 72.4404C35.0325 72.6121 34.9038 72.7088 34.4567 72.7547C33.4678 72.9368 31.2871 73.7548 30.2477 74.1145C28.9091 66.0737 26.5595 57.9378 24.2245 50.1478C32.5512 50.0583 39.1715 46.0803 43.2943 38.8587C53.1183 41.7947 63.1857 40.2962 70.6079 32.9023Z" fill="#DBD8DD"/>
<path d="M34.4567 72.7547C33.7921 70.3501 32.625 65.5566 32.6227 63.1092C33.7153 66.1723 34.6603 69.2862 35.454 72.4404C35.0325 72.6121 34.9038 72.7088 34.4567 72.7547Z" fill="#763A2B"/>
<path d="M69.3 51.9066C68.9943 51.0845 68.2641 47.4116 68.6378 46.7263L68.8687 46.7466C69.8061 48.1156 73.5081 61.2166 74.3061 63.8879C73.7532 63.9994 73.7055 64.0245 73.1588 63.9433C72.7154 63.0386 72.6148 61.9956 72.3324 61.0686C71.6019 58.6715 70.7095 53.9205 69.5762 51.8731L69.3 51.9066Z" fill="#DBD8DD"/>
<path d="M80.1888 53.4773C79.6834 52.3659 79.0513 48.3184 79.2158 46.9449L79.4075 46.6629C80.5071 47.4883 82.5893 59.226 83.662 61.1163C84.3578 62.3429 83.7026 62.2304 85.3944 62.4455L82.9846 62.7164C82.2961 59.8895 81.6181 56.7809 80.6896 54.028C80.522 53.5307 80.5514 53.6308 80.1888 53.4773Z" fill="#D7D3D9"/>
<path d="M53.5144 50.8677C55.1054 54.2574 55.7438 57.7032 56.9097 61.2422C56.8738 61.8824 56.8475 62.8732 56.7774 63.4831C56.46 62.354 54.9663 56.595 54.2749 56.2956C53.8187 55.3557 53.5582 52.0183 53.5144 50.8677Z" fill="#CDC6D0"/>
<path d="M40.5814 59.6255C40.1772 58.6733 39.4497 55.4373 39.8368 54.5098C40.5274 55.2551 42.059 60.6809 41.9217 61.7193C41.626 61.0342 41.2637 59.8636 40.5814 59.6255Z" fill="#DBD8DD"/>
<path d="M56.9097 61.2422C57.3259 62.3798 58.2479 66.2849 58.6405 66.7014L57.8863 66.8736L57.5459 66.6359C57.0801 65.8268 56.937 64.4494 56.7774 63.4831C56.8475 62.8732 56.8738 61.8824 56.9097 61.2422Z" fill="#DBD8DD"/>
<path d="M38.1636 73.4138C54.7975 68.7839 71.768 65.4691 88.9193 63.5002C89.8499 66.254 90.7957 68.9467 91.337 71.8072C86.5443 76.6057 61.3396 80.8112 53.812 82.0316C52.6394 82.2216 47.2156 83.0547 45.9869 83.1041C43.9353 83.6303 33.4147 85.0212 31.7039 84.1282C31.0497 83.1274 30.6811 77.5138 30.4271 75.8379L38.1636 73.4138Z" fill="#FEFEFE"/>
<path d="M30.4271 75.8379L38.1636 73.4138C38.6848 75.7811 39.1717 80.5002 41.2077 81.9323C42.3879 82.7624 44.7648 82.2167 45.9869 83.1041C43.9353 83.6303 33.4147 85.0212 31.7039 84.1282C31.0497 83.1274 30.6811 77.5138 30.4271 75.8379Z" fill="#DBD8DD"/>
<path d="M111.133 182.896C113.268 183.522 115.443 184.058 117.599 184.695L118.629 184.902C121.033 185.519 123.443 186.103 125.863 186.655C126.285 186.723 126.756 186.774 127.154 186.92C129.28 187.433 132.558 188.221 134.708 188.461C135.3 188.491 135.356 188.479 135.895 188.695C137.276 189.036 141.988 190.149 143.271 190.21C144.083 190.351 144.196 190.23 144.725 190.737C145.124 191.808 144.811 193.293 144.872 194.659L144.881 195.274L144.858 205.512C144.853 205.87 144.888 206.367 144.775 206.676C144.723 207.705 144.781 209.979 144.091 210.623L143.689 210.692L136.878 209.754L136.307 209.649C133.704 208.931 130.782 208.299 128.086 207.575L127.108 207.298C126.088 206.913 121.383 205.379 120.286 205.115C119.815 205.02 119.675 204.936 119.253 204.736L118.783 204.527C116.036 203.286 115.823 202.768 114.791 200.03C114.554 199.546 114.537 199.367 114.421 198.831C114.206 197.495 113.729 195.734 113.405 194.389C113.274 194.094 113.188 193.476 113.125 193.127C112.857 191.481 112.561 190.221 112.163 188.607C111.993 188.198 111.909 187.557 111.828 187.104C111.685 185.615 111.461 184.356 111.133 182.896Z" fill="#87451D"/>
<path d="M135.906 194.375C138.539 194.933 142.193 195.307 144.881 195.274L144.858 205.512C144.853 205.87 144.888 206.367 144.775 206.676C144.723 207.705 144.781 209.979 144.091 210.623L143.689 210.692L136.878 209.754L136.307 209.649C135.736 208.083 135.391 207.21 135.396 205.552C135.899 204.573 135.965 205.507 136.477 203.913C136.386 202.589 136.304 201.263 136.228 199.939C137.637 200.243 143.178 201.339 144.238 200.659C143.206 199.89 137.812 199.037 136.123 198.714C135.96 197.276 135.946 195.822 135.906 194.375Z" fill="#DE9F55"/>
<path d="M136.477 203.913C138.844 204.399 142.554 205.259 144.858 205.512C144.853 205.87 144.888 206.367 144.775 206.676C144.723 207.705 144.781 209.979 144.091 210.623L143.689 210.692L136.878 209.754L136.307 209.649C135.736 208.083 135.391 207.21 135.396 205.552C135.899 204.573 135.965 205.507 136.477 203.913Z" fill="#C48048"/>
<path d="M136.477 203.913C138.844 204.399 142.554 205.259 144.858 205.512C144.853 205.87 144.888 206.367 144.775 206.676L144.616 206.267C142.957 205.872 139.087 205.723 136.568 205.189C136.654 206.711 136.757 208.234 136.878 209.754L136.307 209.649C135.736 208.083 135.391 207.21 135.396 205.552C135.899 204.573 135.965 205.507 136.477 203.913Z" fill="#994F20"/>
<path d="M135.895 188.695C137.276 189.036 141.988 190.149 143.271 190.21C144.083 190.351 144.196 190.23 144.725 190.737C145.124 191.808 144.811 193.293 144.872 194.659L144.646 194.665L135.897 193.046C135.781 192.186 135.527 189.346 135.895 188.695Z" fill="#DE9F55"/>
<path d="M135.895 188.695C137.276 189.036 141.988 190.149 143.271 190.21C144.083 190.351 144.196 190.23 144.725 190.737C145.124 191.808 144.811 193.293 144.872 194.659L144.646 194.665L144.639 192.177C141.731 191.517 138.886 191.123 135.997 190.5C136.002 191.418 135.962 192.129 135.897 193.046C135.781 192.186 135.527 189.346 135.895 188.695Z" fill="#C48048"/>
<path d="M126.903 191.172C126.754 190.309 126.521 187.447 127.154 186.92C129.28 187.433 132.558 188.221 134.708 188.461C134.687 189.109 134.513 192.379 134.406 192.763C132.826 192.265 128.634 191.501 126.903 191.172Z" fill="#C48048"/>
<path d="M126.903 191.172C126.928 190.44 126.968 189.682 126.945 188.953C129.421 189.417 131.817 190.001 134.271 190.558C134.294 191.178 134.301 192.184 134.406 192.763C132.826 192.265 128.634 191.501 126.903 191.172Z" fill="#DE9F55"/>
<path d="M127.614 203.572C129.773 204.153 131.989 204.446 134.179 204.885C134.953 205.04 135.021 205.001 135.396 205.552C135.391 207.21 135.736 208.083 136.307 209.649C133.704 208.931 130.782 208.299 128.086 207.575L127.614 203.572Z" fill="#C48048"/>
<path d="M118.629 184.902C121.033 185.519 123.443 186.103 125.863 186.655C125.71 188.205 125.645 189.383 125.605 190.935L118.799 189.188L118.629 184.902Z" fill="#C48048"/>
<path d="M111.133 182.896C113.268 183.522 115.443 184.058 117.599 184.695C117.534 186.084 117.478 187.475 117.433 188.865C116.031 188.437 113.063 187.627 111.828 187.104C111.685 185.615 111.461 184.356 111.133 182.896Z" fill="#C48048"/>
<path d="M119.901 203.138C119.876 202.536 119.756 202.215 120.025 201.769C122.199 202.239 124.303 202.912 126.458 203.395C126.547 204.668 127.084 206.715 127.108 207.298C126.088 206.913 121.383 205.379 120.286 205.115L119.901 203.138Z" fill="#C48048"/>
<path d="M112.163 188.607C112.892 188.458 116.404 189.77 117.501 190.105C117.555 191.562 117.608 192.918 117.736 194.375C116.12 193.88 114.787 193.453 113.125 193.127C112.857 191.481 112.561 190.221 112.163 188.607Z" fill="#C48048"/>
<path d="M113.405 194.389L113.647 194.191C114.994 194.549 116.445 195.188 117.709 195.465C117.846 196.768 117.986 198.606 118.205 199.853C117.112 199.577 115.434 199.207 114.421 198.831C114.206 197.495 113.729 195.734 113.405 194.389Z" fill="#C48048"/>
<path d="M114.791 200.03C115.686 200.127 117.506 200.982 118.424 201.37C118.568 202.206 118.657 202.994 118.974 203.779L119.253 204.736L118.783 204.527C116.036 203.286 115.823 202.768 114.791 200.03Z" fill="#C48048"/>
<path d="M126.912 192.591C129.068 193.235 132.327 193.864 134.543 194.136C134.545 195.483 134.664 197.019 134.737 198.376C132.372 197.997 129.47 197.258 127.063 196.733L126.912 192.591Z" fill="#DE9F55"/>
<path d="M127.138 198.025C129.668 198.65 132.222 199.177 134.793 199.607C134.851 200.931 134.99 202.281 135.105 203.604L127.369 202.102C127.311 200.743 127.234 199.384 127.138 198.025Z" fill="#DE9F55"/>
<path d="M118.838 190.51C120.992 191.202 123.398 191.761 125.609 192.317C125.601 193.887 125.651 194.898 125.787 196.456C124.291 195.904 120.707 195.077 118.994 194.631C118.962 193.257 118.909 191.884 118.838 190.51Z" fill="#DE9F55"/>
<path d="M119.09 195.899C121.443 196.603 123.455 197.176 125.85 197.755C125.978 199.13 126.096 200.506 126.199 201.883L119.537 200.187C119.444 198.859 119.234 197.244 119.09 195.899Z" fill="#C48048"/>
<path d="M170.13 184.748C172.914 184.232 175.953 183.352 178.684 182.587L178.101 185.08L177.737 186.995L177.554 187.871C177.153 189.483 176.787 191.102 176.458 192.73C176.396 192.997 176.269 193.634 176.184 193.862C175.829 195.163 175.163 197.328 174.911 198.582L174.543 199.569C173.189 203.135 171.929 203.23 168.585 204.539L167.621 204.913C166.169 205.186 162.573 206.46 160.996 206.973L160.069 207.292C157.622 207.939 155.187 208.657 152.738 209.278L151.683 209.492C149.777 209.873 147.747 210.24 145.86 210.662L145.653 210.532C145.483 210.091 145.746 207.152 145.778 206.408C145.751 204.766 145.639 201.795 145.895 200.29L145.879 197.887C145.564 197.47 145.734 195.327 145.757 194.661L145.753 192.419C145.692 191.754 145.534 190.856 145.723 190.252C147.135 190.187 150.958 189.306 152.361 188.921C152.725 188.713 153.025 188.732 153.445 188.699C155.747 188.298 158.61 187.719 160.849 187.108C161.152 187.013 161.469 186.951 161.779 186.881C163.608 186.574 167.441 185.554 169.212 185.018C169.606 184.816 169.694 184.836 170.13 184.748Z" fill="#87451D"/>
<path d="M145.895 200.29C146.261 200.192 146.836 200.099 147.219 200.023C146.878 200.236 146.671 200.362 146.352 200.62C146.885 200.649 147.416 200.691 147.946 200.749C149.416 200.594 150.739 200.355 152.193 200.101C152.153 201.286 152.039 203.036 152.089 204.178C151.991 204.657 152.1 208.225 152.084 209.162C152.776 208.272 152.338 206.185 153.081 205.394C153.114 206.529 152.555 208.757 152.738 209.278L151.683 209.492C149.777 209.873 147.747 210.24 145.86 210.662L145.653 210.532C145.483 210.091 145.746 207.152 145.778 206.408C145.751 204.766 145.639 201.795 145.895 200.29Z" fill="#DE9F55"/>
<path d="M145.974 206.346C146.895 206.132 150.474 205.739 151.683 205.551C151.97 205.853 151.948 205.951 152.033 206.36C151.709 207.329 151.725 208.46 151.683 209.492C149.777 209.873 147.747 210.24 145.86 210.662L145.653 210.532C145.483 210.091 145.746 207.152 145.778 206.408L145.974 206.346Z" fill="#C48048"/>
<path d="M145.974 206.346C146.895 206.132 150.474 205.739 151.683 205.551C151.97 205.853 151.948 205.951 152.033 206.36C151.382 206.625 146.692 207.93 146.07 208.04C145.818 207.522 145.935 206.948 145.974 206.346Z" fill="#DE9F55"/>
<path d="M145.895 200.29C146.261 200.192 146.836 200.099 147.219 200.023C146.878 200.236 146.671 200.362 146.352 200.62C146.885 200.649 147.416 200.691 147.946 200.749C147.116 200.886 146.771 200.928 145.921 200.952L145.926 205.781C147.743 205.286 150.445 204.72 152.089 204.178C151.991 204.657 152.1 208.225 152.084 209.162C152.776 208.272 152.338 206.185 153.081 205.394C153.114 206.529 152.555 208.757 152.738 209.278L151.683 209.492C151.725 208.46 151.709 207.329 152.033 206.36C151.948 205.951 151.97 205.853 151.683 205.551C150.474 205.739 146.895 206.132 145.974 206.346L145.778 206.408C145.751 204.766 145.639 201.795 145.895 200.29Z" fill="#994F20"/>
<path d="M170.324 189.973C172.716 189.353 175.242 188.425 177.554 187.871C177.153 189.483 176.787 191.102 176.458 192.73C176.396 192.997 176.269 193.634 176.184 193.862C175.363 193.608 171.962 195.023 170.642 195.288L170.635 195.139L170.393 195.077L170.326 194.942C170.424 194.672 170.498 194.489 170.619 194.228L170.251 194.141C170.004 193.583 170.272 190.827 170.324 189.973Z" fill="#DE9F55"/>
<path d="M176.458 192.73C176.396 192.997 176.269 193.634 176.184 193.862C175.363 193.608 171.962 195.023 170.642 195.288L170.635 195.139L170.393 195.077L170.326 194.942C170.424 194.672 170.498 194.489 170.619 194.228C171.771 193.718 175.174 193.011 176.458 192.73Z" fill="#994F20"/>
<path d="M170.13 184.748C172.914 184.232 175.953 183.352 178.684 182.587L178.101 185.08L177.737 186.995C175.445 187.232 172.689 188.347 170.426 188.774C170.302 188.249 170.176 185.492 170.13 184.748Z" fill="#C48048"/>
<path d="M170.423 186.469C172.838 186.198 176.006 185.154 178.101 185.08L177.737 186.995C175.445 187.232 172.689 188.347 170.426 188.774C170.5 188.059 170.444 187.197 170.423 186.469Z" fill="#DE9F55"/>
<path d="M160.849 187.108C161.027 187.791 161.024 190.361 160.884 191.03C159.927 191.262 154.078 192.756 153.6 192.53C153.461 191.884 153.163 189.255 153.445 188.699C155.747 188.298 158.61 187.719 160.849 187.108Z" fill="#C48048"/>
<path d="M153.6 192.53C153.615 191.861 153.61 191.636 153.748 190.992C155.372 190.547 159.036 189.592 160.605 189.376C160.805 189.754 160.831 190.554 160.884 191.03C159.927 191.262 154.078 192.756 153.6 192.53Z" fill="#DE9F55"/>
<path d="M145.865 195.304C148.065 195.255 150.247 194.9 152.351 194.249C152.286 195.752 152.238 197.255 152.207 198.757C150.998 199.081 148.213 199.686 147.219 200.023C146.836 200.099 146.261 200.192 145.895 200.29L145.879 197.887C145.886 197.026 145.881 196.164 145.865 195.304Z" fill="#DE9F55"/>
<path d="M169.212 185.018C169.203 186.117 169.244 188.138 169.079 189.155C167.921 189.427 163.363 190.542 162.369 190.591C162.124 189.966 162.157 189.799 162.135 189.109L161.779 186.881C163.608 186.574 167.441 185.554 169.212 185.018Z" fill="#C48048"/>
<path d="M168.965 187.213L169.079 189.155C167.921 189.427 163.363 190.542 162.369 190.591C162.124 189.966 162.157 189.799 162.135 189.109C162.751 188.286 167.655 187.473 168.965 187.213Z" fill="#DE9F55"/>
<path d="M153.081 205.394C153.859 204.567 158.834 204.032 160.332 203.591C160.269 204.827 160.181 206.062 160.069 207.292C157.622 207.939 155.187 208.657 152.738 209.278C152.555 208.757 153.114 206.529 153.081 205.394Z" fill="#C48048"/>
<path d="M152.361 188.921C152.375 189.705 152.45 192.507 152.322 193.09C150.35 193.457 147.365 194.417 145.757 194.661L145.753 192.419C145.692 191.754 145.534 190.856 145.723 190.252C147.135 190.187 150.958 189.306 152.361 188.921Z" fill="#C48048"/>
<path d="M152.137 191.069C152.191 191.673 152.238 192.51 152.322 193.09C150.35 193.457 147.365 194.417 145.757 194.661L145.753 192.419C147.239 191.938 150.441 191.416 152.137 191.069Z" fill="#DE9F55"/>
<path d="M170.642 195.288C171.962 195.023 175.363 193.608 176.184 193.862C175.829 195.163 175.163 197.328 174.911 198.582C173.471 198.582 170.978 199.384 169.512 199.79C169.624 198.578 169.718 197.197 169.951 196.008C170.055 195.481 170.155 195.55 170.642 195.288Z" fill="#DE9F55"/>
<path d="M161.59 203.293C163.816 202.626 165.775 202.236 168.066 201.451C167.979 202.826 167.882 203.561 167.621 204.913C166.169 205.186 162.573 206.46 160.996 206.973C161.304 205.549 161.476 204.762 161.59 203.293Z" fill="#C48048"/>
<path d="M169.289 201.175C170.882 200.722 173.054 199.879 174.543 199.569C173.189 203.135 171.929 203.23 168.585 204.539C169.002 203.231 169.091 202.55 169.289 201.175Z" fill="#C48048"/>
<path d="M160.556 192.537L160.747 192.574C160.996 193.162 160.836 195.913 160.817 196.733C158.645 197.186 155.994 197.801 153.899 198.429L153.736 198.387C153.489 197.804 153.621 194.793 153.633 193.957C155.76 193.646 158.414 192.998 160.556 192.537Z" fill="#DE9F55"/>
<path d="M160.304 198.129C160.528 198.141 160.406 198.108 160.653 198.292C160.742 199.321 160.547 201.089 160.463 202.173C158.223 202.778 155.849 203.321 153.584 203.874L153.486 203.855C153.205 203.475 153.482 200.533 153.522 199.822C155.707 199.402 158.132 198.705 160.304 198.129Z" fill="#DE9F55"/>
<path d="M168.625 190.384C168.827 190.396 168.753 190.403 168.967 190.561C169.023 191.643 168.83 193.52 168.746 194.659C166.698 195.176 164.656 195.715 162.618 196.273L162.317 196.257C162.072 195.579 162.21 192.967 162.226 192.089C164.409 191.56 166.483 191.078 168.625 190.384Z" fill="#DE9F55"/>
<path d="M168.319 196.045L168.427 196.12C168.608 196.612 168.348 199.358 168.31 200.099C166.397 200.763 164.067 201.317 162.082 201.839L161.97 201.746C161.719 201.244 162.015 198.412 162.063 197.648C164.16 197.163 166.246 196.628 168.319 196.045Z" fill="#DE9F55"/>
<path d="M178.716 173.218C179.821 173.455 181.615 173.65 182.281 174.65C182.878 175.551 182.58 177.7 182.34 178.736C182.232 179.201 182.072 179.767 181.633 180.02C179.578 181.203 147.433 189.011 144.551 188.851C142.06 188.714 139.285 187.847 136.824 187.331C129.527 185.798 122.313 184.005 115.054 182.323L110.951 181.206C112.661 180.002 114.386 178.49 116.001 177.135C123.964 179.391 136.473 182.105 144.835 182.992C146.112 183.127 152.936 181.535 154.425 181.182L163.632 179.04L173.166 176.782C174.401 176.487 179.306 175.572 179.746 174.608C179.543 173.869 179 174.004 178.716 173.218Z" fill="#DE9F55"/>
<path d="M91.5998 191.459C92.9978 191.295 93.8404 191.192 95.2244 190.856C95.3155 191.569 95.4311 192.744 95.5695 193.413C96.1073 197.432 96.2142 201.979 95.4188 205.97C95.1035 206.515 94.832 206.748 94.895 207.273C98.4163 208.241 101.153 210.295 100.671 214.288C100.356 216.913 90.5224 216.665 88.5754 216.519C86.2763 216.568 80.4237 216.516 80.6891 213.31C80.9146 210.588 80.7604 206.487 81.2641 203.893C81.3704 200.211 81.2798 197.553 81.0265 193.862C82.2586 193.688 83.0858 193.437 84.2692 193.093C86.6405 192.507 89.1994 191.998 91.5998 191.459Z" fill="#F6C15A"/>
<path d="M81.2641 203.893C81.2623 204.592 81.1371 205.198 81.4443 205.719H81.6262L82.6937 206.306C87.0285 208.072 90.9026 205.667 95.4188 205.97C95.1035 206.515 94.832 206.748 94.895 207.273C98.4163 208.241 101.153 210.295 100.671 214.288C100.356 216.913 90.5224 216.665 88.5754 216.519C86.2763 216.568 80.4237 216.516 80.6891 213.31C80.9146 210.588 80.7604 206.487 81.2641 203.893Z" fill="#A55C29"/>
<path d="M81.2641 203.893C81.2623 204.592 81.1371 205.198 81.4443 205.719H81.6262L82.6937 206.306C82.2383 208.437 81.9003 210.607 81.9494 212.795C83.8724 215.668 85.5137 215.476 88.5754 216.519C86.2763 216.568 80.4237 216.516 80.6891 213.31C80.9146 210.588 80.7604 206.487 81.2641 203.893Z" fill="#994F20"/>
<path d="M91.5998 191.459C92.9978 191.295 93.8404 191.192 95.2244 190.856C95.3155 191.569 95.4311 192.744 95.5695 193.413C93.0066 193.609 85.2753 198.085 83.7193 200.375C82.4185 202.288 82.2004 203.189 82.0471 205.502C81.9212 205.526 81.7952 205.552 81.6691 205.579L81.6262 205.719H81.4443C81.1371 205.198 81.2623 204.592 81.2641 203.893C81.3704 200.211 81.2798 197.553 81.0265 193.862C82.2586 193.688 83.0858 193.437 84.2692 193.093C86.6405 192.507 89.1994 191.998 91.5998 191.459Z" fill="#DE9F55"/>
<path d="M39.3237 196.419C41.9692 196.322 43.916 197.349 45.0046 199.837C46.7363 203.983 47.8717 208.787 48.4309 213.252C48.7785 216.028 49.0637 218.686 45.68 218.761C36.6255 217.59 33.2351 199.112 39.3237 196.419Z" fill="#87451D"/>
<path d="M48.5826 189.715C53.1744 190.862 56.5201 192.075 60.8629 193.337C59.927 196.545 59.2757 198.099 57.4345 200.884C56.1564 202.604 55.2792 203.665 53.6493 205.142C52.9867 205.893 52.7699 205.965 51.8027 206.114C51.6984 206.13 51.2302 206.318 51.23 206.32C51.0653 207.909 51.4998 211.232 51.2974 212.62C50.9352 215.102 50.7959 215.511 49.7169 217.46C49.8432 212.836 49.0393 210.232 48.1198 205.747C47.6979 203.69 47.3833 201.353 46.5771 199.428C45.4722 196.791 44.8527 196.262 42.3551 195.2C43.3493 194.914 44.6178 194.749 45.6216 194.475C46.2001 194.319 45.6186 194.126 45.9457 193.523L46.7545 192.777C47.5795 191.724 48.0705 190.972 48.5826 189.715Z" fill="#A55C29"/>
<path d="M48.5826 189.715C53.1744 190.862 56.5201 192.075 60.8629 193.337C59.927 196.545 59.2757 198.099 57.4345 200.884C56.7219 199.321 56.8233 198.849 55.754 197.114C53.7174 193.81 50.3118 193.602 46.7545 192.777C47.5795 191.724 48.0705 190.972 48.5826 189.715Z" fill="#DE9F55"/>
<path d="M45.9457 193.523L46.7545 192.777C50.3118 193.602 53.7174 193.81 55.754 197.114C56.8233 198.849 56.7219 199.321 57.4345 200.884C56.1564 202.604 55.2792 203.665 53.6493 205.142C53.3192 204.39 53.5533 201.844 52.8207 200.071C51.3635 196.543 49.3007 195.055 45.9457 193.523Z" fill="#F6C15A"/>
<path d="M148.743 144.749C153.724 143.957 156.445 146.68 158.396 151.182C159.451 153.612 159.025 156.197 157.962 158.574C154.528 164.331 147.685 166.402 142.643 161.364C144.045 160.671 144.225 160.484 145.448 159.628C149.605 155.465 150.684 150.26 148.743 144.749Z" fill="#FEFEFE"/>
<path d="M145.448 159.628C145.643 160.24 146.345 160.648 146.888 160.858C149.737 161.965 152.661 162.165 155.234 160.295C156.029 159.717 157.045 158.917 157.962 158.574C154.528 164.331 147.685 166.402 142.643 161.364C144.045 160.671 144.225 160.484 145.448 159.628Z" fill="#DBD8DD"/>
<path d="M144.604 172.729C145.627 171.616 146.533 170.803 147.925 170.173C152.538 168.085 158.829 168.826 162.585 172.315C163.505 173.168 165.61 175.688 164.41 176.959C164.037 177.331 163.815 177.333 163.315 177.337C162.273 176.669 161.112 175.393 160.106 177.05C159.684 177.744 159.982 178.097 159.12 178.338C156.816 178.977 154.46 179.368 152.139 179.958C151.741 178.474 151.594 177.862 150.711 176.571C148.74 176.278 149.285 174.303 147.416 173.904C146.939 173.802 146.936 173.809 146.58 173.49L144.604 172.729Z" fill="#F6C15A"/>
<path d="M146.58 173.49C146.995 173.133 147.81 172.175 148.297 172.333C149.726 172.796 149.605 173.535 149.097 174.519C149.239 175.037 150.299 176.113 150.711 176.571C148.74 176.278 149.285 174.303 147.416 173.904C146.939 173.802 146.936 173.809 146.58 173.49Z" fill="#713112"/>
<path d="M155.159 174.408C157.452 174.341 158.937 175.755 156.576 177.302C156.467 177.314 156.359 177.323 156.248 177.328C154.132 177.442 153.218 175.957 155.159 174.408Z" fill="#713112"/>
<path d="M151.236 169.804C153.533 169.76 154.055 171.14 152.245 172.67C150.977 172.705 150.042 172.443 150.052 171.032C150.355 170.328 150.604 170.238 151.236 169.804Z" fill="#713112"/>
<path d="M158.242 171.223C159.36 171.234 160.413 171.197 160.684 172.543C160.526 173.177 160.418 173.205 159.883 173.646C158.778 173.686 158.179 173.499 157.753 172.484C157.799 171.813 157.839 171.79 158.242 171.223Z" fill="#713112"/>
<path d="M164.792 166.395C166.483 166.252 168.185 166.426 169.811 166.909C172.392 167.657 177.915 170.907 176.987 174.159C176.778 174.292 171.766 175.374 170.808 175.665L166.357 176.62C165.344 172.243 163.168 169.787 158.74 168.579C161.005 167.202 162.189 166.677 164.792 166.395Z" fill="#F6C15A"/>
<path d="M165.2 167.355C167.324 167.358 168.403 168.886 166.234 170.345C165.454 170.356 164.748 170.264 164.233 169.597C164.021 169.32 163.942 168.963 164.018 168.623C164.163 167.959 164.659 167.701 165.2 167.355Z" fill="#713112"/>
<path d="M170.449 168.791C171.721 168.586 172.907 168.774 173.227 170.184C173.101 170.861 173.019 170.882 172.478 171.372C170.614 171.69 168.848 170.7 170.449 168.791Z" fill="#713112"/>
<path d="M167.613 172.989C168.806 172.956 169.795 173.291 169.825 174.661C169.55 175.318 169.454 175.332 168.832 175.744C166.555 175.756 165.766 174.661 167.613 172.989Z" fill="#713112"/>
<path d="M141.47 155.988C143.775 152.552 145.539 146.196 142.411 142.784C142.577 142.474 142.715 142.519 143.073 142.407C143.731 142.2 144.523 142.449 145.093 142.802C149.67 145.636 148.945 153.319 146.053 157.034C144.514 157.515 142.314 157.673 141.47 155.988Z" fill="#FEFEFE"/>
<path d="M134.967 158.637C135.41 158.753 136.354 160.144 136.903 160.736C136.384 160.85 135.859 160.964 135.356 161.138C134.885 161.301 134.436 161.522 134.226 162.003C133.686 163.25 140.506 178.49 141.445 180.69L141.314 180.905L140.776 180.854C139.394 180.676 139.29 180.697 138.681 179.345C136.512 174.485 134.42 169.594 132.188 164.76C131.433 163.127 130.522 161.926 131.155 160.137C131.987 159.233 133.734 158.952 134.967 158.637Z" fill="#C48048"/>
<path d="M140.557 174.547C140.259 174.227 140.301 174.239 140.084 173.853L140.229 173.586C141.063 173.402 141.985 173.614 142.857 173.737C146.625 174.771 149.768 176.032 150.66 180.255C149.511 180.487 148.365 180.732 147.223 180.996L146.843 181.112C145.517 181.298 144.662 181.278 143.321 181.252C142.798 180.255 141.969 178.188 141.468 177.079C141.447 176.15 140.937 175.481 140.557 174.547Z" fill="#F6C15A"/>
<path d="M140.557 174.547C140.259 174.227 140.301 174.239 140.084 173.853L140.229 173.586C141.063 173.402 141.985 173.614 142.857 173.737L142.405 174.364C144.392 175.642 143.549 177.019 141.468 177.079C141.447 176.15 140.937 175.481 140.557 174.547Z" fill="#713112"/>
<path d="M140.557 174.547C140.259 174.227 140.301 174.239 140.084 173.853L140.229 173.586C141.063 173.402 141.985 173.614 142.857 173.737L142.405 174.364C141.974 174.39 140.914 174.42 140.557 174.547Z" fill="#DE9F55"/>
<path d="M146.843 181.112C145.571 180.797 144.227 179.66 145.191 178.645C146.392 177.375 150.143 178.518 147.223 180.996L146.843 181.112Z" fill="#65210F"/>
<path d="M129.548 161.724C129.711 161.986 130.668 164.995 130.89 165.55C129.939 167.696 127.439 176.984 126.544 178.085L126.092 178.043L124.293 177.621C125.71 172.928 127.663 166.208 129.548 161.724Z" fill="#C48048"/>
<path d="M137.553 167.446C141.074 167.206 143.236 167.662 146.266 169.378L144.388 170.747C144.068 171.167 143.67 171.822 143.372 172.282C141.943 172.092 140.841 172.103 139.411 172.094C138.881 170.682 137.889 168.8 137.553 167.446Z" fill="#DE9F55"/>
<path d="M141.046 168.833L141.189 168.83C142.321 168.807 143.427 168.658 143.64 170.068C143.446 170.768 143.318 170.858 142.796 171.378C140.774 171.655 139.324 170.433 141.046 168.833Z" fill="#713112"/>
<path d="M134.913 174.138C135.904 174.361 135.946 176.092 136.132 177.066C136.752 178.104 137.244 179.228 137.752 180.325C137.435 180.248 135.04 179.716 134.885 179.617C133.621 178.808 133.562 177.377 131.558 178.632L131.509 178.864C131.018 179.091 130.034 178.78 129.378 178.661L129.435 178.557L129.531 178.387C130.116 177.331 130.249 177.161 131.062 176.243C132.162 175.337 133.613 174.745 134.913 174.138Z" fill="#DE9F55"/>
<path d="M136.132 177.066C136.752 178.104 137.244 179.228 137.752 180.325C137.435 180.248 135.04 179.716 134.885 179.617C133.621 178.808 133.562 177.377 131.558 178.632L131.758 178.204C132.197 177.784 132.511 177.818 133.15 177.726C133.853 178.172 134.503 178.002 135.019 177.428C135.238 177.331 135.874 177.149 136.132 177.066Z" fill="#DE9F55"/>
<path d="M134.913 174.138C135.904 174.361 135.946 176.092 136.132 177.066C135.874 177.149 135.238 177.331 135.019 177.428C134.648 177.163 134.585 177.077 134.278 176.752C133.779 174.947 135.853 175.62 134.913 174.138Z" fill="#713112"/>
<path d="M160.733 154.778C162.559 155.34 165.227 162.632 165.982 164.626L165.845 164.899C164.964 164.904 164.347 164.997 163.477 165.115C162.968 163.733 161.106 158.734 160.311 157.77C160.495 156.748 160.61 155.811 160.733 154.778Z" fill="#C48048"/>
<path d="M154.616 164.558C155.514 164.64 157.622 166.3 157.802 167.264L157.569 167.539C156.084 167.855 154.323 166.962 152.836 166.823C151.716 166.718 151.215 167.516 150.429 167.79C149.609 168.048 148.745 168.363 147.927 168.644C147.309 167.976 146.454 166.904 146.727 165.899C150.952 165.892 150.602 166.565 154.616 164.558Z" fill="#DE9F55"/>
<path d="M143.271 190.21C144.239 190.173 144.756 190.168 145.723 190.252C145.534 190.856 145.692 191.754 145.753 192.419L145.757 194.661C145.734 195.327 145.564 197.47 145.879 197.887L145.895 200.29C145.639 201.795 145.751 204.766 145.778 206.408C145.746 207.152 145.483 210.091 145.653 210.532L145.86 210.662C145.522 210.848 144.076 210.855 143.689 210.692L144.091 210.623C144.781 209.979 144.723 207.705 144.775 206.676C144.888 206.367 144.853 205.87 144.858 205.512L144.881 195.274L144.872 194.659C144.811 193.293 145.124 191.808 144.725 190.737C144.196 190.23 144.083 190.351 143.271 190.21Z" fill="#713112"/>
<path d="M123.296 169.666L125.531 169.655C124.943 171.242 123.883 175.476 123.082 176.712C121.422 176.566 120.686 176.483 119.036 176.094C118.386 175.934 118.459 176.055 118.056 175.649C118.196 175.005 119.384 174.087 119.961 173.541C120.523 173.904 121.43 174.606 122.093 174.441C123.307 174.138 123.851 173.353 123.575 172.176C122.954 171.458 122.898 171.808 122.171 171.372C122.276 170.889 122.965 170.099 123.296 169.666Z" fill="#DE9F55"/>
<path d="M146.053 157.034C144.719 159.348 140.984 161.366 138.458 159.77C137.949 159.449 137.202 159.115 137.029 158.511C137.963 157.668 138.798 158.895 141.47 155.988C142.314 157.673 144.514 157.515 146.053 157.034Z" fill="#DBD8DD"/>
<path d="M159.759 160.154C160.251 160.655 161.747 164.568 162.072 165.39C161.513 165.587 160.954 165.791 160.399 165.998C159.948 166.236 159.919 166.28 159.403 166.366C158.78 166.175 158.424 165.52 158.004 164.957C158.38 163.552 159.176 161.469 159.759 160.154Z" fill="#FEFEFE" fill-opacity="0.980392"/>
<path d="M130.587 170.756C131.486 171.084 133.134 171.902 133.408 172.868C133.122 173.444 132.91 173.386 132.209 173.707C131.7 173.929 131.09 174.296 130.614 174.248C130.353 172.585 130.023 172.213 130.587 170.756Z" fill="#DE9F55"/>
<path d="M127.481 162.486L127.956 162.855C127.243 164.649 126.759 168.505 124.501 168.263L124.4 168.029C124.689 167.251 126.786 163.907 127.481 162.486Z" fill="#F1F0F1"/>
<path d="M130.062 155.907C131.33 156.42 132.52 156.908 133.821 157.342C131.98 157.865 130.899 158.014 129.519 159.447L129.188 158.581C129.485 157.698 129.799 156.799 130.062 155.907Z" fill="#FEFEFE"/>
<path d="M143.607 164.537C144.274 164.753 144.683 164.881 145.326 165.19L145.345 165.473C144.693 165.878 144.546 166.019 144.115 166.653C143.286 166.431 142.283 166.259 141.429 166.094C142.1 165.492 142.854 165.032 143.607 164.537Z" fill="#DE9F55"/>
<path d="M129.188 158.581L129.519 159.447C128.834 160.499 128.306 161.649 127.956 162.855L127.481 162.486C127.938 161.146 128.45 159.791 129.188 158.581Z" fill="#B59793"/>
</svg>
