<svg width="18" height="20" viewBox="0 0 18 20" fill="none" xmlns="http://www.w3.org/2000/svg">
<g clip-path="url(#clip0_1716_49670)">
<path d="M10 14.8281C10.0829 14.803 10.1967 14.741 10.2772 14.7005C10.4156 14.6321 10.5528 14.5612 10.6888 14.4878C11.6853 13.9437 12.4685 13.3408 13.029 12.2973C13.3711 11.6603 13.6121 11.0504 13.8374 10.3602C13.8609 10.2881 13.931 9.99705 13.9882 9.97119C14.0235 10.0397 14.0513 10.1558 14.0769 10.2318C14.2273 10.6789 14.3893 11.1211 14.5708 11.5548C15.09 12.7952 15.8289 13.6284 16.9612 14.2745C17.1887 14.4055 17.4203 14.5287 17.6555 14.644C17.7574 14.6951 17.8987 14.7562 17.9934 14.8096C17.2417 15.2091 16.5594 15.5147 15.9134 16.1157C14.9508 17.0113 14.4961 18.2336 14.0975 19.4777C14.0805 19.5304 14.0449 19.6661 14.0222 19.7084C13.9936 19.6872 13.8741 19.3239 13.8539 19.2617C13.4972 18.1607 13.0365 17.0556 12.2117 16.244C11.7494 15.789 11.1938 15.4493 10.6283 15.155C10.4293 15.0521 10.1938 14.9493 10 14.8371V14.8281Z" fill="#5D3300"/>
</g>
<path d="M0 5.82447C0.10364 5.79441 0.245845 5.72005 0.346529 5.67143C0.519536 5.58949 0.691062 5.50446 0.861023 5.41639C2.10662 4.76393 3.08562 4.04095 3.7862 2.78955C4.21386 2.02566 4.51515 1.2942 4.79669 0.466517C4.8261 0.380053 4.91375 0.0310068 4.9853 0C5.02942 0.0822041 5.0641 0.221384 5.09607 0.312564C5.28406 0.848692 5.48658 1.379 5.7135 1.89907C6.36251 3.38656 7.28614 4.38575 8.7015 5.1606C8.98594 5.31768 9.2754 5.46547 9.56942 5.60375C9.69674 5.665 9.87334 5.73823 9.9917 5.80236C9.05209 6.28134 8.19922 6.64788 7.39176 7.36864C6.18855 8.44267 5.62015 9.9084 5.12188 11.4004C5.10064 11.4636 5.05618 11.6264 5.02774 11.6771C4.99196 11.6517 4.84259 11.2159 4.81737 11.1413C4.37149 9.821 3.7956 8.4958 2.76468 7.5225C2.18671 6.97684 1.49221 6.56945 0.785363 6.21648C0.536651 6.09314 0.242312 5.96989 0 5.83527V5.82447Z" fill="#5D3300"/>
<defs>
<clipPath id="clip0_1716_49670">
<rect width="8" height="10" fill="white" transform="translate(10 9.82666)"/>
</clipPath>
</defs>
</svg>
