<svg width="27" height="27" viewBox="0 0 27 27" fill="none" xmlns="http://www.w3.org/2000/svg">
<path d="M0 13.125C0 15.7209 0.769768 18.2585 2.21196 20.4169C3.65416 22.5753 5.704 24.2575 8.10228 25.2509C10.5006 26.2443 13.1396 26.5042 15.6856 25.9978C18.2316 25.4914 20.5702 24.2413 22.4058 22.4058C24.2413 20.5702 25.4914 18.2316 25.9978 15.6856C26.5042 13.1396 26.2443 10.5006 25.2509 8.10228C24.2575 5.704 22.5753 3.65416 20.4169 2.21196C18.2585 0.769768 15.7209 0 13.125 0C9.64403 0 6.30564 1.38281 3.84422 3.84422C1.38281 6.30564 0 9.64403 0 13.125ZM5.625 12.1875H17.0156L11.7844 6.93094L13.125 5.625L20.625 13.125L13.125 20.625L11.7844 19.2872L17.0156 14.0625H5.625V12.1875Z" fill="#3D2000"/>
</svg>
