<svg width="330" height="363" viewBox="0 0 330 363" fill="none" xmlns="http://www.w3.org/2000/svg">
<rect width="330" height="363" rx="24" fill="white"/>
<path fill-rule="evenodd" clip-rule="evenodd" d="M297.5 30.7105L303.024 36.2344C303.317 36.5275 303.715 36.6922 304.129 36.6922C304.544 36.6922 304.941 36.5275 305.234 36.2344C305.527 35.9413 305.692 35.5438 305.692 35.1292C305.692 34.7147 305.527 34.3171 305.234 34.024L299.708 28.5001L305.233 22.9761C305.378 22.831 305.493 22.6587 305.572 22.4691C305.65 22.2795 305.691 22.0762 305.691 21.871C305.691 21.6658 305.65 21.4626 305.572 21.2731C305.493 21.0835 305.378 20.9113 305.233 20.7662C305.088 20.6211 304.915 20.5061 304.726 20.4276C304.536 20.3491 304.333 20.3087 304.128 20.3088C303.922 20.3088 303.719 20.3493 303.53 20.4279C303.34 20.5064 303.168 20.6216 303.023 20.7667L297.5 26.2907L291.976 20.7667C291.832 20.6174 291.66 20.4983 291.469 20.4163C291.278 20.3343 291.073 20.2912 290.866 20.2893C290.658 20.2874 290.453 20.3268 290.261 20.4053C290.069 20.4837 289.894 20.5997 289.747 20.7463C289.6 20.8929 289.484 21.0673 289.406 21.2593C289.327 21.4513 289.287 21.6571 289.289 21.8645C289.291 22.072 289.334 22.277 289.416 22.4677C289.497 22.6584 289.616 22.8308 289.766 22.9751L295.292 28.5001L289.767 34.0251C289.617 34.1693 289.498 34.3417 289.417 34.5324C289.335 34.7231 289.292 34.9281 289.29 35.1356C289.288 35.3431 289.328 35.5488 289.407 35.7408C289.485 35.9328 289.601 36.1072 289.748 36.2538C289.895 36.4004 290.07 36.5164 290.262 36.5948C290.454 36.6733 290.659 36.7128 290.867 36.7109C291.074 36.709 291.279 36.6658 291.47 36.5838C291.661 36.5018 291.833 36.3827 291.977 36.2334L297.5 30.7105Z" fill="#888880" fill-opacity="0.8"/>
<path d="M142.97 51.0576C151.948 50.4639 159.131 54.5137 165.119 60.7764C176.394 48.9347 193.476 49.2937 205.25 60.4071C208.706 63.6702 210.628 67.8211 211.859 72.3739C212.344 71.6769 212.824 71.0011 213.371 70.3445C217.327 65.8562 223.473 69.6821 228.682 68.5177C232.271 67.7155 234.798 65.3463 238.139 64.8166C240.718 64.408 242.167 66.7217 241.985 69.1466C241.765 72.0699 239.62 74.2603 237.563 76.198C240.552 78.1759 239.123 81.282 237.139 83.3101C235.562 84.9248 233.791 85.9379 231.789 86.9009L231.836 87.2423C232.493 91.801 227.73 94.1882 223.807 94.1747C223.763 94.2825 223.72 94.3888 223.675 94.4952C222.096 98.2392 218.27 98.2886 215.005 96.8689C213.633 100.243 209.661 98.7094 207.51 97.1399C202.664 106.046 193.081 113.864 185.035 120.004C182.101 122.262 179.052 124.368 175.903 126.313C173.19 127.966 164.711 132.998 161.914 131.824C147.568 125.796 129.069 109.985 121.455 97.1609C119.365 98.4054 116.054 99.6769 114.508 96.9542C113.874 96.7745 111.503 98.1957 109.857 97.6881C107.626 97.0007 107.057 96.7865 106.035 94.5027C105.866 94.1253 104.415 94.1163 103.865 94.004C100.409 93.3031 97.8181 90.9968 98.4101 87.2423C95.5927 85.8556 90.8307 83.0781 91.03 79.1659C91.0883 78.0213 91.7696 77.3485 92.6395 76.7003C91.9178 76.0737 91.2349 75.4037 90.5947 74.694C89.1304 73.0956 87.855 71.0908 88.0133 68.8598C88.022 68.0849 88.372 66.6588 89.0869 66.2231C93.2645 63.6772 97.5201 68.9243 101.975 69.2396C105.913 69.5183 108.416 68.5107 112.139 68.6509C114.663 68.746 116.198 70.4673 117.658 72.2412C117.861 70.9013 118.293 69.4991 118.766 68.2295C122.569 58.0127 132.378 51.9325 142.97 51.0576Z" fill="#58230A"/>
<path d="M122.414 93.8018C117.242 85.0241 118.26 69.8382 125.023 62.1913C133.645 52.4418 149.794 50.1634 159.921 59.0631C161.052 59.762 163.121 61.9729 163.972 63.0716C163.243 64.098 162.399 65.0087 162.418 66.2571C163.063 65.9372 165.45 63.2053 166.163 62.5032C173.904 54.8791 183.182 52.2294 193.622 56.0306C212.631 61.896 214.156 84.569 203.756 98.7259C195.375 110.13 182.694 119.465 170.578 126.587C168.825 127.594 163.794 130.126 162.041 129.398C160.842 128.901 158.078 127.668 156.978 126.824C154.18 125.606 142.67 117.395 140.629 115.077C138.096 113.167 130.984 106.359 129.21 103.881C126.955 101.697 123.847 96.6203 122.414 93.8018Z" fill="#F5C161"/>
<path d="M193.622 56.0306C212.631 61.896 214.156 84.569 203.756 98.7259C195.375 110.13 182.694 119.465 170.578 126.587C168.825 127.594 163.794 130.126 162.041 129.398C160.842 128.901 158.078 127.668 156.978 126.824C157.584 126.9 158.282 127.239 158.862 127.478C170.06 124.851 189.43 108.02 196.658 99.1752C205.952 87.8039 208.328 67.0688 195.242 57.0933C194.657 56.7645 194.169 56.4137 193.622 56.0306Z" fill="#DD9B44"/>
<path d="M206.796 76.2355C209.082 76.3389 209.85 78.1711 207.802 79.7108C205.139 79.6679 205.047 77.8686 206.796 76.2355Z" fill="#D18B3A"/>
<path d="M122.414 93.8018C117.242 85.0241 118.26 69.8382 125.023 62.1913C133.645 52.4418 149.794 50.1634 159.921 59.0631C159.957 59.5272 159.888 59.3137 160.167 59.7156L160.035 59.8392C159.336 59.6947 158.989 58.9316 158.233 58.545C157.362 58.0988 156.478 57.7035 155.531 57.4254C146.995 54.9188 138.423 55.9713 130.93 60.7881C125.401 64.342 122.838 70.2114 121.518 76.3809C120.404 81.59 121.677 88.3431 124.193 93.038C126.478 97.1834 127.783 99.2351 130.582 102.973C129.837 102.534 130.085 102.524 129.437 102.671C129.056 103.102 129.061 103.367 129.21 103.881C126.955 101.697 123.847 96.6203 122.414 93.8018Z" fill="#FAD89B"/>
<path d="M162.418 66.2571C163.063 65.9372 165.45 63.2053 166.163 62.5032C173.904 54.8791 183.182 52.2294 193.622 56.0306C194.169 56.4137 194.657 56.7645 195.242 57.0933C194.772 57.2835 193.296 56.964 192.732 56.8835C186.456 55.9902 181.14 56.2831 175.317 58.9787C173.051 60.0277 170.866 61.1381 168.816 62.6969C167.185 63.7385 164.239 67.3326 162.371 66.7705L162.152 66.5042C162.311 66.2911 162.223 66.3251 162.418 66.2571Z" fill="#FAD89B"/>
<path d="M129.21 103.881C129.061 103.367 129.056 103.102 129.437 102.671C130.085 102.524 129.837 102.534 130.582 102.973C132.416 105.246 134.258 107.538 136.142 109.778C136.905 110.684 140.791 114.006 140.864 114.855L140.629 115.077C138.096 113.167 130.984 106.359 129.21 103.881Z" fill="#FAD89B"/>
<path d="M135.301 80.1277C132.864 78.7336 131.545 75.9759 131.988 73.2028C132.431 70.4297 134.543 68.2205 137.293 67.6553C140.042 67.0902 142.854 68.2871 144.354 70.6609C147.215 73.0941 147.585 76.9202 145.106 79.7758C143.897 81.173 142.178 82.0265 140.335 82.1445C138.688 82.2366 136.301 81.4672 135.301 80.1277Z" fill="#58230A"/>
<path d="M144.354 70.6609C147.215 73.0941 147.585 76.9202 145.106 79.7758C143.897 81.173 142.178 82.0265 140.335 82.1445C138.688 82.2366 136.301 81.4672 135.301 80.1277C137.991 81.6668 141.383 81.1747 143.526 78.9343C145.668 76.694 146.01 73.2817 144.354 70.6609Z" fill="#DD9B44"/>
<path d="M137.38 69.6622C139.567 69.2631 141.431 69.8228 142.754 71.6368L143.348 71.5305C144.939 72.8302 143.115 78.7293 139.137 78.9774C138.354 79.031 137.57 78.8844 136.859 78.5515L136.692 78.4878C134.274 77.5577 133.234 75.185 134.146 72.806C134.719 71.4413 134.724 71.2106 135.958 70.3212C136.349 69.9974 136.893 69.8437 137.38 69.6622Z" fill="#7B3D19"/>
<path d="M142.754 71.6368L143.348 71.5305C144.939 72.8302 143.115 78.7293 139.137 78.9774C138.354 79.031 137.57 78.8844 136.859 78.5515C139.994 78.0715 143.016 74.9275 142.754 71.6368Z" fill="#6D3314"/>
<path d="M134.146 72.806C134.719 71.4413 134.724 71.2106 135.958 70.3212C136.479 70.6535 136.566 70.7486 136.985 71.208C136.312 71.911 135.015 73.7514 134.146 72.806Z" fill="#B67140"/>
<path d="M137.38 69.6622C137.918 69.6595 138.393 69.5774 138.805 69.8716C138.627 70.2985 137.462 70.9106 136.985 71.208C136.566 70.7486 136.479 70.6535 135.958 70.3212C136.349 69.9974 136.893 69.8437 137.38 69.6622Z" fill="#935026"/>
<path d="M182.381 64.4311C184.279 61.3757 186.354 60.5377 189.891 61.1771C191.489 61.2612 192.894 62.3908 193.92 63.5087C196.571 66.3963 195.797 70.6321 192.982 73.0941C191.015 74.8136 187.394 75.8021 185.533 73.4803C185.385 73.2963 185.251 73.101 185.131 72.8961C183.879 72.0555 183.426 71.6411 182.552 70.4186C182.448 70.2139 182.354 70.0047 182.269 69.7916C181.547 67.9626 181.64 66.2255 182.381 64.4311Z" fill="#58230A"/>
<path d="M186.556 62.9804C187.523 62.7 189.02 62.773 189.951 63.2795C193.386 65.1467 191.686 70.7258 188.304 71.4992C186.848 71.8322 185.514 71.2118 184.535 70.0757L184.405 69.9274C184.379 69.8973 184.354 69.8674 184.328 69.8373C183.751 70.4922 183.384 70.4029 182.552 70.4186C182.448 70.2139 182.354 70.0047 182.269 69.7916C181.547 67.9626 181.64 66.2255 182.381 64.4311C183.233 64.4055 183.589 64.4998 183.951 65.3398C184.641 63.9627 185.243 63.5709 186.556 62.9804Z" fill="#7B3D19"/>
<path d="M182.381 64.4311C183.233 64.4055 183.589 64.4998 183.951 65.3398L183.897 65.5995C183.408 66.7233 183.559 67.9855 184.001 69.0999C184.101 69.3495 184.21 69.5954 184.328 69.8373C183.751 70.4922 183.384 70.4029 182.552 70.4186C182.448 70.2139 182.354 70.0047 182.269 69.7916C181.547 67.9626 181.64 66.2255 182.381 64.4311Z" fill="#58230A"/>
<path d="M186.556 62.9804L187.044 63.1662C187.102 64.081 185.007 65.7074 184.204 65.8973C183.914 65.7527 183.996 65.8654 183.897 65.5995L183.951 65.3398C184.641 63.9627 185.243 63.5709 186.556 62.9804Z" fill="#B67140"/>
<path d="M189.891 61.1771C191.489 61.2612 192.894 62.3908 193.92 63.5087C196.571 66.3963 195.797 70.6321 192.982 73.0941C191.015 74.8136 187.394 75.8021 185.533 73.4803C185.385 73.2963 185.251 73.101 185.131 72.8961C192.838 76.2019 197.924 65.1287 189.891 61.1771Z" fill="#DD9B44"/>
<path d="M156.399 95.1212C154.553 93.6371 153.743 91.2095 154.327 88.9136C154.911 86.6163 156.782 84.8719 159.113 84.4499C161.444 84.0277 163.806 85.0058 165.158 86.9518C166.142 87.6107 166.912 89.2431 167.194 90.3828C168.653 96.2998 159.239 101.309 156.399 95.1212Z" fill="#58230A"/>
<path d="M165.158 86.9518C166.142 87.6107 166.912 89.2431 167.194 90.3828C168.653 96.2998 159.239 101.309 156.399 95.1212C158.743 97.0067 162.115 96.8838 164.315 94.8321C166.514 92.7804 166.874 89.4228 165.158 86.9518Z" fill="#DD9B44"/>
<path d="M159.375 86.2434C163.67 85.8196 166.079 90.0848 163.097 92.9616C162.145 93.8647 160.868 94.3454 159.557 94.293C156.484 94.1552 155.429 91.4266 156.29 88.8223C157.201 87.0941 157.533 86.8829 159.375 86.2434Z" fill="#7B3D19"/>
<path d="M159.375 86.2434L159.96 86.6613L159.964 86.847C158.947 87.6482 157.803 88.5108 156.833 89.3509L156.29 88.8223C157.201 87.0941 157.533 86.8829 159.375 86.2434Z" fill="#B67140"/>
<path d="M178.651 105.901C177.708 104.965 177.124 104.11 176.861 102.777C176.591 101.447 176.865 100.063 177.621 98.9355C178.381 97.7779 179.58 96.9812 180.943 96.7281C182.594 96.4286 183.897 96.8868 185.225 97.8213L186.063 98.6345C188.85 100.572 188.687 102.48 187.544 105.306C185.646 108.836 180.88 109.429 178.651 105.901Z" fill="#58230A"/>
<path d="M182.302 98.323C182.92 98.4893 183.311 98.5746 183.893 98.8682C185.46 100.499 185.212 101.685 183.495 103.258C182.736 103.952 181.411 104.832 180.413 105.011C179.947 105.071 179.359 104.141 179.061 104.006C178.497 102.708 178.182 101.365 178.997 100.077C179.768 98.5372 180.733 98.335 182.302 98.323Z" fill="#7B3D19"/>
<path d="M178.997 100.077C179.768 98.5372 180.733 98.335 182.302 98.323L182.377 98.5941C181.576 98.9655 180.155 99.7323 179.332 100.182C179.22 100.147 179.109 100.113 178.997 100.077Z" fill="#935026"/>
<path d="M185.225 97.8213L186.063 98.6345C188.85 100.572 188.687 102.48 187.544 105.306C187.175 104.643 186.831 104.303 186.86 103.55L186.713 103.997C186.34 103.643 186.306 103.708 186.029 103.247L185.972 103.151C185.336 103.085 183.733 105.643 182.397 105.739C181.309 105.819 179.194 105.224 179.061 104.006C179.359 104.141 179.947 105.071 180.413 105.011C181.411 104.832 182.736 103.952 183.495 103.258C185.212 101.685 185.46 100.499 183.893 98.8682C184.638 98.6675 184.821 98.4638 185.225 97.8213Z" fill="#6D3314"/>
<path d="M186.063 98.6345C188.85 100.572 188.687 102.48 187.544 105.306C187.175 104.643 186.831 104.303 186.86 103.55C187.391 101.455 187.09 100.466 186.063 98.6345Z" fill="#DD9B44"/>
<path d="M186.86 103.55C186.831 104.303 187.175 104.643 187.544 105.306C185.646 108.836 180.88 109.429 178.651 105.901C181.646 107.581 185.188 107.622 186.713 103.997L186.86 103.55Z" fill="#DD9B44"/>
<path d="M158.199 122.379C156.611 121.256 155.834 119.301 156.215 117.392C156.596 115.484 158.064 113.979 159.962 113.552C161.86 113.124 163.831 113.855 164.992 115.415C170.077 118.343 164.696 127.078 159.713 123.758C159.208 123.421 158.497 122.905 158.199 122.379Z" fill="#58230A"/>
<path d="M164.992 115.415C170.077 118.343 164.696 127.078 159.713 123.758C159.208 123.421 158.497 122.905 158.199 122.379C160.176 123.779 162.876 123.532 164.567 121.799C166.258 120.065 166.439 117.359 164.992 115.415Z" fill="#DD9B44"/>
<path d="M159.818 115.403C160.721 115.129 160.883 115.186 161.775 115.388C162.669 115.604 163.054 115.83 163.653 116.532C164.128 117.543 164.41 118.403 164.008 119.521C163.733 120.278 163.163 120.892 162.429 121.223C161.624 121.587 160.705 121.597 159.892 121.256C159.287 121.004 158.71 120.486 158.265 120.007C157.688 119.152 157.412 117.841 158.154 117.001C158.627 116.092 158.974 115.927 159.818 115.403Z" fill="#7B3D19"/>
<path d="M163.653 116.532C164.128 117.543 164.41 118.403 164.008 119.521C163.733 120.278 163.163 120.892 162.429 121.223C161.624 121.587 160.705 121.597 159.892 121.256C159.287 121.004 158.71 120.486 158.265 120.007C161.032 120.544 162.557 118.895 163.653 116.532Z" fill="#6D3314"/>
<path d="M159.818 115.403C160.721 115.129 160.883 115.186 161.775 115.388C161.074 117.043 160.155 117.009 158.648 117.455C158.47 117.356 158.304 117.155 158.154 117.001C158.627 116.092 158.974 115.927 159.818 115.403Z" fill="#6D3314"/>
<path d="M159.818 115.403L160.435 115.563L160.54 115.786C160.136 116.489 159.261 116.821 158.648 117.455C158.47 117.356 158.304 117.155 158.154 117.001C158.627 116.092 158.974 115.927 159.818 115.403Z" fill="#B67140"/>
<path d="M140.043 107.744C138.118 107.129 136.867 105.27 137.02 103.255C137.173 101.237 138.69 99.59 140.686 99.271C142.682 98.9535 144.636 100.048 145.408 101.917C146.802 103.485 146.886 106.283 145.217 107.738C144.436 108.415 143.416 108.748 142.387 108.662C141.502 108.594 140.763 108.239 140.043 107.744Z" fill="#58230A"/>
<path d="M145.408 101.917C146.802 103.485 146.886 106.283 145.217 107.738C144.436 108.415 143.416 108.748 142.387 108.662C141.502 108.594 140.763 108.239 140.043 107.744C141.661 108.263 143.433 107.794 144.584 106.543C145.735 105.293 146.056 103.488 145.408 101.917Z" fill="#DD9B44"/>
<path d="M141.874 100.974C145.687 101.546 143.315 106.771 140.342 106.103C139.353 105.881 138.77 104.499 138.646 103.587C138.861 101.279 139.847 101.079 141.874 100.974Z" fill="#7B3D19"/>
<path d="M138.646 103.587C138.861 101.279 139.847 101.079 141.874 100.974C141.232 101.706 139.624 103.605 138.646 103.587Z" fill="#B67140"/>
<path d="M174.055 78.6427C173.118 78.1702 172.574 77.1644 172.69 76.1212C172.807 75.078 173.56 74.2176 174.578 73.9642C175.597 73.7108 176.665 74.118 177.257 74.985C178.495 76.0357 179.467 77.4299 178.094 78.9147C177.582 79.4619 176.856 79.759 176.108 79.7284C175.365 79.7043 174.467 79.2646 174.055 78.6427Z" fill="#58230A"/>
<path d="M177.257 74.985C178.495 76.0357 179.467 77.4299 178.094 78.9147C177.582 79.4619 176.856 79.759 176.108 79.7284C175.365 79.7043 174.467 79.2646 174.055 78.6427C175.078 79.1579 176.319 78.916 177.072 78.0546C177.826 77.1932 177.902 75.9306 177.257 74.985Z" fill="#DD9B44"/>
<path d="M174.862 74.9628C176.929 74.8488 177.591 77.1777 176.1 77.9622C174.328 77.375 173.165 76.6786 174.862 74.9628Z" fill="#6D3314"/>
<path d="M175.136 75.6039C175.457 75.6042 175.744 75.6223 176.063 75.6394C176.537 75.9674 176.376 75.7579 176.585 76.2744C176.513 76.8522 176.468 76.8694 176.058 77.3202C175.738 77.3949 175.704 77.3691 175.371 77.3354C175.046 76.7982 175.337 76.3553 175.136 75.6039Z" fill="#7B3D19"/>
<path d="M196.351 85.5334C195.308 85.3136 194.524 84.4481 194.407 83.3875C194.29 82.3271 194.866 81.3114 195.838 80.8696C196.808 80.4278 197.953 80.6598 198.676 81.4447C202.417 82.926 199.258 87.8503 196.351 85.5334Z" fill="#58230A"/>
<path d="M198.676 81.4447C202.417 82.926 199.258 87.8503 196.351 85.5334C197.402 85.7552 198.474 85.2713 199.005 84.3377C199.535 83.4043 199.402 82.2348 198.676 81.4447Z" fill="#DD9B44"/>
<path d="M195.41 82.676C196.347 80.7053 197.995 81.5783 198.182 83.5708C197.481 84.2091 196.39 84.2891 195.628 83.7073C195.297 83.0741 195.344 83.3465 195.41 82.676Z" fill="#6D3314"/>
<path d="M195.41 82.676C196.034 82.471 196.48 82.2398 197.092 82.4064C197.222 82.5965 197.269 82.6416 197.362 82.8512C196.802 82.9153 196.014 83.1463 195.633 83.0256L195.41 82.676Z" fill="#935026"/>
<path d="M146.934 64.9842C145.309 62.0718 147.293 59.2864 150.581 61.4985C152.671 63.1596 151.724 66.2427 149.291 66.3959C148.678 66.4379 148.074 66.2312 147.616 65.8224C147.311 65.5464 147.139 65.3309 146.934 64.9842Z" fill="#58230A"/>
<path d="M150.581 61.4985C152.671 63.1596 151.724 66.2427 149.291 66.3959C148.678 66.4379 148.074 66.2312 147.616 65.8224C147.311 65.5464 147.139 65.3309 146.934 64.9842C149.937 66.4045 151.574 64.5413 150.581 61.4985Z" fill="#DD9B44"/>
<path d="M147.878 62.1266C148.635 62.0898 148.926 62.0029 149.472 62.5576C149.496 63.0569 149.423 63.6214 148.999 63.9487L149.015 64.1848C148.122 64.2051 147.553 63.8959 147.268 63.0562C147.429 62.4306 147.36 62.6377 147.878 62.1266Z" fill="#6D3314"/>
<path d="M124.915 89.0484C124.073 88.7968 123.46 88.0675 123.358 87.1929C123.255 86.3198 123.681 85.4681 124.442 85.0275C125.204 84.5869 126.154 84.6415 126.86 85.1662C127.48 85.3964 128.044 85.896 128.337 86.486C128.581 86.9743 128.608 87.5433 128.412 88.054C127.914 89.3689 126.444 89.7298 125.228 89.1952C125.123 89.1488 125.019 89.0993 124.915 89.0484Z" fill="#6F371A"/>
<path d="M126.86 85.1662C127.48 85.3964 128.044 85.896 128.337 86.486C128.581 86.9743 128.608 87.5433 128.412 88.054C127.914 89.3689 126.444 89.7298 125.228 89.1952C125.123 89.1488 125.019 89.0993 124.915 89.0484C125.94 89.3539 127.036 88.8792 127.515 87.9237C127.995 86.9668 127.718 85.8046 126.86 85.1662Z" fill="#DD9B44"/>
<path d="M191.462 99.0913C192.063 98.8787 192.73 99.0104 193.206 99.4328C193.682 99.8551 193.892 100.502 193.753 101.124C193.615 101.744 193.149 102.241 192.54 102.42C191.63 102.689 190.672 102.182 190.38 101.281C190.088 100.378 190.569 99.4073 191.462 99.0913Z" fill="#DD9B44"/>
<path d="M187.318 90.8725C188.132 90.597 189.014 91.0343 189.289 91.849C189.563 92.6636 189.126 93.5457 188.312 93.8198C187.497 94.0938 186.617 93.6566 186.342 92.8434C186.068 92.0302 186.505 91.1481 187.318 90.8725Z" fill="#DD9B44"/>
<path d="M148.121 96.3163C148.909 96.1201 149.712 96.5813 149.94 97.3616C150.167 98.1418 149.74 98.9625 148.97 99.2216C148.444 99.3983 147.863 99.274 147.456 98.8951C147.05 98.5162 146.883 97.9456 147.021 97.408C147.16 96.8704 147.582 96.451 148.121 96.3163Z" fill="#DD9B44"/>
<path d="M169.52 107.395C170.267 107.166 171.059 107.584 171.291 108.331C171.523 109.077 171.108 109.871 170.363 110.106C169.614 110.343 168.816 109.925 168.583 109.175C168.349 108.424 168.77 107.626 169.52 107.395Z" fill="#58230A"/>
<path d="M176.274 59.4571C176.974 59.194 177.756 59.5476 178.022 60.248C178.287 60.9483 177.937 61.7315 177.238 61.9996C176.534 62.2692 175.747 61.9162 175.481 61.2122C175.214 60.5083 175.569 59.7215 176.274 59.4571Z" fill="#58230A"/>
<path d="M212.315 74.9047C212.92 73.8781 214.382 71.5974 215.312 70.8678C218.539 68.3367 223.621 71.1354 227.791 70.4014C230.629 70.1435 233.02 68.8544 235.448 67.4823C236.963 66.6267 237.835 66.1828 239.543 66.6866C240.103 67.2649 240.488 67.7282 240.468 68.5938C240.392 71.9838 234.678 77.3106 231.846 78.6599C231.439 78.9112 230.646 79.2807 230.559 79.6474C231.629 80.0823 234.871 78.2252 236.168 77.7456L236.316 77.6913C237.202 77.855 237.72 78.793 237.494 79.6094C236.795 82.1258 232.792 84.9238 230.477 85.866C229.106 86.5025 226.642 87.0791 225.821 87.6122L225.863 87.8069C226.513 88.0675 227.04 87.9986 227.731 87.9732L230.538 87.479C229.748 92.0736 225.224 93.4633 221.132 92.4884L220.795 92.6906C220.719 93.0425 220.704 93.1234 221.009 93.4274C221.638 93.7614 221.957 93.8108 221.964 94.5431C221.675 95.0193 221.383 95.2335 220.927 95.536C217.828 97.5907 214.954 94.4757 212.821 94.0774L212.633 94.2346C212.772 95.3069 214.056 95.8011 213.318 96.809C211.672 97.7 209.679 96.8554 208.38 95.7307C210.009 92.6352 210.842 90.1656 211.718 86.82C212.291 85.1334 212.302 82.1066 212.8 80.8515C213.767 78.4174 217.056 75.2499 219.505 74.2052C220.599 73.7382 221.421 73.6344 222.244 73.2591C217.988 72.525 214.787 76.3602 212.645 79.4177C212.57 77.831 212.499 76.4803 212.315 74.9047Z" fill="#FEFDFD"/>
<path d="M211.718 86.82C212.805 88.7759 212.769 90.4427 212.796 92.6621C216.134 94.4712 217.2 95.6978 220.894 93.7838L221.009 93.4274C221.638 93.7614 221.957 93.8108 221.964 94.5431C221.675 95.0193 221.383 95.2335 220.927 95.536C217.828 97.5907 214.954 94.4757 212.821 94.0774L212.633 94.2346C212.772 95.3069 214.056 95.8011 213.318 96.809C211.672 97.7 209.679 96.8554 208.38 95.7307C210.009 92.6352 210.842 90.1656 211.718 86.82Z" fill="#DADBE6"/>
<path d="M239.543 66.6866C240.103 67.2649 240.488 67.7282 240.468 68.5938C240.392 71.9838 234.678 77.3106 231.846 78.6599C231.671 78.4853 231.595 78.5479 231.261 78.5338C231.478 77.745 236.511 73.7375 237.513 71.924C238.771 69.646 238.834 69.2239 239.543 66.6866Z" fill="#DADBE6"/>
<path d="M236.316 77.6913C237.202 77.855 237.72 78.793 237.494 79.6094C236.795 82.1258 232.792 84.9238 230.477 85.866C231.025 83.8109 236.03 82.4758 236.316 77.6913Z" fill="#DADBE6"/>
<path d="M227.731 87.9732L230.538 87.479C229.748 92.0736 225.224 93.4633 221.132 92.4884L222.09 92.4809C223.853 92.4749 228.886 90.2809 228.868 88.2876C228.468 87.9147 228.378 88.0226 227.731 87.9732Z" fill="#DADBE6"/>
<path d="M226.917 76.9365C228.58 77.8244 227.959 79.8966 226.992 81.088C225.518 82.9041 223.892 83.5878 221.63 83.8997L221.177 83.7284L221.114 83.5352C221.549 83.1873 222.223 83.1322 222.766 82.9487C224.112 82.4942 225.783 81.4354 226.504 80.172C227.226 78.9097 227.212 78.2586 226.917 76.9365Z" fill="#5F270C"/>
<path d="M222.043 85.6651C222.374 86.0308 222.575 86.5879 222.501 87.0656C222.048 90.0039 218.791 90.7662 216.518 90.6598C216.262 90.4651 216.285 90.4622 216.152 90.1626C217.235 89.312 220.77 91.0792 222.043 85.6651Z" fill="#63280D"/>
<path d="M89.9334 67.7254C90.5002 67.255 91.0229 66.921 91.7904 67.0419C93.5354 67.3168 95.0659 68.5164 96.6255 69.2802C99.2955 70.5877 102.524 71.3081 105.496 70.9197C111.655 70.1149 113.801 68.9458 117.154 74.8515C116.924 76.3463 116.822 77.5101 116.714 79.0217C116.369 79.0812 116.058 79.1369 115.708 79.1737L116.698 80.5476C116.735 82.9173 116.924 84.5145 117.384 86.8589C118.082 90.1881 119.014 92.6516 120.625 95.6768C119.73 96.2564 117.616 97.6491 116.416 96.5259C115.732 95.8865 116.802 94.3844 116.3 94.0863C113.593 94.7438 111.048 98.2482 107.895 94.8232L107.776 94.2691C107.958 93.7659 108.446 93.5517 108.925 93.2417C109.141 92.728 109.117 92.9901 108.963 92.424C105.642 92.8718 101.808 93.1054 100.092 89.4558C99.8628 88.9691 99.6643 88.3146 99.8613 87.7919C100.216 87.7036 100.852 87.9537 101.238 88.069C102.096 88.1813 103.394 88.4404 104.159 88.0286L104.075 87.7994C103.483 87.3397 102.487 87.1345 101.739 86.9263C98.8327 86.1281 93.4106 83.19 92.7764 79.8009C92.6346 79.043 93.0928 78.1733 93.9448 78.1465C95.1219 78.6744 98.066 80.0656 99.1724 79.9726L99.2539 79.7795C98.8888 79.47 98.8575 79.4447 98.4382 79.2185C95.6581 77.7933 87.6924 71.2697 89.9334 67.7254Z" fill="#FEFDFD"/>
<path d="M117.384 86.8589C118.082 90.1881 119.014 92.6516 120.625 95.6768C119.73 96.2564 117.616 97.6491 116.416 96.5259C115.732 95.8865 116.802 94.3844 116.3 94.0863C113.593 94.7438 111.048 98.2482 107.895 94.8232C108.621 94.3424 109.028 94.2481 109.863 94.4862C112.429 95.214 114.092 94.1702 116.23 92.8523C116.308 90.5805 116.369 88.9107 117.384 86.8589Z" fill="#DADBE6"/>
<path d="M89.9334 67.7254C90.1461 68.1395 90.2142 68.1436 90.3348 68.3473C91.1427 69.7112 91.4864 71.0708 92.4825 72.4151C94.2244 74.7659 96.713 76.5035 98.8348 78.5073C98.7928 78.9203 98.762 78.8312 98.4382 79.2185C95.6581 77.7933 87.6924 71.2697 89.9334 67.7254Z" fill="#DADBE6"/>
<path d="M101.739 86.9263C98.8327 86.1281 93.4106 83.19 92.7764 79.8009C92.6346 79.043 93.0928 78.1733 93.9448 78.1465C93.1012 80.9342 97.7214 84.3464 99.6972 85.5739C100.378 85.9963 101.241 86.3108 101.739 86.9263Z" fill="#DADBE6"/>
<path d="M108.963 92.424C105.642 92.8718 101.808 93.1054 100.092 89.4558C99.8628 88.9691 99.6643 88.3146 99.8613 87.7919C100.216 87.7036 100.852 87.9537 101.238 88.069L101.038 88.3775C101.216 89.1922 102.321 90.4607 103.064 90.9099C104.468 91.7621 107.307 92.2323 108.963 92.424Z" fill="#DADBE6"/>
<path d="M106.932 73.6551C112.036 73.6735 113.595 75.2373 116.714 79.0217C116.369 79.0812 116.058 79.1369 115.708 79.1737C113.698 76.775 112.196 75.3791 109.196 74.3449C108.476 74.0964 107.704 73.948 107.026 73.6916L106.932 73.6551Z" fill="#64280A"/>
<path d="M102.533 77.4358L102.743 77.676C102.739 78.0459 102.737 78.448 102.806 78.8046C103.635 83.0604 107.186 82.6679 108.837 83.8512L108.732 84.1595C105.603 83.9984 100.017 80.9607 102.533 77.4358Z" fill="#66290C"/>
<path d="M107.619 85.9499L107.895 86.0847C109.381 91.0297 111.347 89.0379 113.202 90.2525L113.209 90.6568C110.269 91.3832 106.555 89.1727 107.619 85.9499Z" fill="#652A0F"/>
<path d="M99.0195 158.26H101.679V176.78H99.0195V158.26ZM101.079 165.48H104.339V167.68H101.079V165.48ZM87.0595 160.98H97.8595V163.1H87.0595V160.98ZM92.4995 164.16C93.3928 164.16 94.1928 164.353 94.8995 164.74C95.6061 165.113 96.1595 165.627 96.5595 166.28C96.9728 166.933 97.1795 167.693 97.1795 168.56C97.1795 169.427 96.9728 170.193 96.5595 170.86C96.1595 171.513 95.6061 172.033 94.8995 172.42C94.2061 172.793 93.4061 172.98 92.4995 172.98C91.6061 172.98 90.7995 172.793 90.0795 172.42C89.3728 172.033 88.8128 171.513 88.3995 170.86C87.9995 170.193 87.7995 169.427 87.7995 168.56C87.7995 167.693 87.9995 166.933 88.3995 166.28C88.8128 165.627 89.3728 165.113 90.0795 164.74C90.7995 164.353 91.6061 164.16 92.4995 164.16ZM92.4995 166.32C92.0728 166.32 91.6995 166.407 91.3795 166.58C91.0595 166.753 90.8061 167.007 90.6195 167.34C90.4328 167.673 90.3395 168.08 90.3395 168.56C90.3395 169.027 90.4328 169.433 90.6195 169.78C90.8061 170.113 91.0595 170.373 91.3795 170.56C91.6995 170.733 92.0728 170.82 92.4995 170.82C92.9128 170.82 93.2795 170.733 93.5995 170.56C93.9195 170.373 94.1728 170.113 94.3595 169.78C94.5461 169.433 94.6395 169.027 94.6395 168.56C94.6395 168.08 94.5461 167.673 94.3595 167.34C94.1728 167.007 93.9195 166.753 93.5995 166.58C93.2795 166.407 92.9128 166.32 92.4995 166.32ZM91.1395 158.56H93.8195V161.8H91.1395V158.56ZM107.318 167.78H120.338V169.88H107.318V167.78ZM105.358 172.5H122.138V174.66H105.358V172.5ZM107.318 159.6H120.198V161.72H110.018V168.36H107.318V159.6ZM109.198 163.68H119.778V165.74H109.198V163.68ZM123.556 166.56H140.316V168.48H123.556V166.56ZM125.436 169.42H138.336V173.82H128.096V175.4H125.456V172.14H135.716V171.22H125.436V169.42ZM125.456 174.82H138.856V176.62H125.456V174.82ZM125.596 158.56H138.276V162.94H128.256V164.44H125.636V161.26H135.656V160.36H125.596V158.56ZM125.636 163.9H138.616V165.7H125.636V163.9ZM153.106 168.5H155.746V171.18H153.106V168.5ZM146.066 167.16H162.826V169.24H146.066V167.16ZM153.106 158.3H155.766V160.88H153.106V158.3ZM152.946 161.08H155.286V161.44C155.286 162.133 155.119 162.773 154.786 163.36C154.466 163.947 153.973 164.467 153.306 164.92C152.653 165.36 151.846 165.72 150.886 166C149.939 166.28 148.833 166.467 147.566 166.56L146.766 164.56C147.886 164.48 148.833 164.347 149.606 164.16C150.393 163.96 151.033 163.713 151.526 163.42C152.019 163.127 152.379 162.813 152.606 162.48C152.833 162.133 152.946 161.787 152.946 161.44V161.08ZM153.586 161.08H155.926V161.44C155.926 161.787 156.039 162.133 156.266 162.48C156.493 162.813 156.846 163.127 157.326 163.42C157.819 163.713 158.459 163.96 159.246 164.16C160.033 164.347 160.979 164.48 162.086 164.56L161.306 166.56C160.053 166.467 158.939 166.28 157.966 166C157.006 165.72 156.199 165.36 155.546 164.92C154.893 164.467 154.399 163.947 154.066 163.36C153.746 162.773 153.586 162.133 153.586 161.44V161.08ZM147.666 159.92H161.206V161.96H147.666V159.92ZM154.406 170.48C156.433 170.48 158.013 170.753 159.146 171.3C160.279 171.847 160.846 172.627 160.846 173.64C160.846 174.653 160.279 175.427 159.146 175.96C158.013 176.507 156.433 176.78 154.406 176.78C152.393 176.78 150.819 176.507 149.686 175.96C148.553 175.427 147.986 174.653 147.986 173.64C147.986 172.627 148.553 171.847 149.686 171.3C150.819 170.753 152.393 170.48 154.406 170.48ZM154.406 172.44C153.153 172.44 152.213 172.533 151.586 172.72C150.973 172.907 150.666 173.213 150.666 173.64C150.666 174.04 150.973 174.34 151.586 174.54C152.213 174.727 153.153 174.82 154.406 174.82C155.659 174.82 156.593 174.727 157.206 174.54C157.833 174.34 158.146 174.04 158.146 173.64C158.146 173.213 157.833 172.907 157.206 172.72C156.593 172.533 155.659 172.44 154.406 172.44ZM174.204 163.04H178.504V165.18H174.204V163.04ZM177.104 158.26H179.784V171.76H177.104V158.26ZM167.544 174.32H180.204V176.46H167.544V174.32ZM167.544 170.62H170.204V175.58H167.544V170.62ZM168.564 160.68H170.724V161.84C170.724 163.013 170.538 164.127 170.164 165.18C169.791 166.233 169.218 167.16 168.444 167.96C167.684 168.747 166.704 169.34 165.504 169.74L164.184 167.62C164.944 167.367 165.598 167.04 166.144 166.64C166.704 166.227 167.158 165.76 167.504 165.24C167.864 164.72 168.131 164.173 168.304 163.6C168.478 163.027 168.564 162.44 168.564 161.84V160.68ZM169.124 160.68H171.244V161.84C171.244 162.56 171.391 163.28 171.684 164C171.978 164.707 172.431 165.353 173.044 165.94C173.671 166.513 174.471 166.967 175.444 167.3L174.144 169.36C172.998 168.973 172.051 168.407 171.304 167.66C170.571 166.9 170.024 166.02 169.664 165.02C169.304 164.007 169.124 162.947 169.124 161.84V160.68ZM164.904 159.5H174.864V161.62H164.904V159.5ZM194.343 158.26H197.003V176.78H194.343V158.26ZM196.403 165.48H199.663V167.68H196.403V165.48ZM182.383 160.98H193.183V163.1H182.383V160.98ZM187.823 164.16C188.716 164.16 189.516 164.353 190.223 164.74C190.93 165.113 191.483 165.627 191.883 166.28C192.296 166.933 192.503 167.693 192.503 168.56C192.503 169.427 192.296 170.193 191.883 170.86C191.483 171.513 190.93 172.033 190.223 172.42C189.53 172.793 188.73 172.98 187.823 172.98C186.93 172.98 186.123 172.793 185.403 172.42C184.696 172.033 184.136 171.513 183.723 170.86C183.323 170.193 183.123 169.427 183.123 168.56C183.123 167.693 183.323 166.933 183.723 166.28C184.136 165.627 184.696 165.113 185.403 164.74C186.123 164.353 186.93 164.16 187.823 164.16ZM187.823 166.32C187.396 166.32 187.023 166.407 186.703 166.58C186.383 166.753 186.13 167.007 185.943 167.34C185.756 167.673 185.663 168.08 185.663 168.56C185.663 169.027 185.756 169.433 185.943 169.78C186.13 170.113 186.383 170.373 186.703 170.56C187.023 170.733 187.396 170.82 187.823 170.82C188.236 170.82 188.603 170.733 188.923 170.56C189.243 170.373 189.496 170.113 189.683 169.78C189.87 169.433 189.963 169.027 189.963 168.56C189.963 168.08 189.87 167.673 189.683 167.34C189.496 167.007 189.243 166.753 188.923 166.58C188.603 166.407 188.236 166.32 187.823 166.32ZM186.463 158.56H189.143V161.8H186.463V158.56ZM207.961 164.48H211.041V166.64H207.961V164.48ZM204.021 159.86H206.041V162.96C206.041 164.013 205.968 165.047 205.821 166.06C205.675 167.073 205.435 168.027 205.101 168.92C204.781 169.813 204.355 170.62 203.821 171.34C203.301 172.047 202.668 172.627 201.921 173.08L200.321 171.08C201.015 170.667 201.595 170.16 202.061 169.56C202.528 168.96 202.908 168.3 203.201 167.58C203.495 166.86 203.701 166.113 203.821 165.34C203.955 164.553 204.021 163.76 204.021 162.96V159.86ZM204.601 159.86H206.581V162.84C206.581 163.6 206.635 164.353 206.741 165.1C206.861 165.847 207.048 166.56 207.301 167.24C207.555 167.92 207.888 168.547 208.301 169.12C208.728 169.693 209.261 170.187 209.901 170.6L208.441 172.68C207.721 172.227 207.108 171.653 206.601 170.96C206.108 170.253 205.715 169.46 205.421 168.58C205.128 167.7 204.915 166.773 204.781 165.8C204.661 164.827 204.601 163.84 204.601 162.84V159.86ZM214.041 158.24H216.581V176.76H214.041V158.24ZM210.281 158.54H212.761V175.94H210.281V158.54ZM222.56 167.66H225.22V172.84H222.56V167.66ZM229.28 167.66H231.94V172.84H229.28V167.66ZM218.88 172.46H235.66V174.62H218.88V172.46ZM227.24 159.16C228.573 159.16 229.76 159.367 230.8 159.78C231.853 160.193 232.673 160.773 233.26 161.52C233.86 162.253 234.16 163.127 234.16 164.14C234.16 165.14 233.86 166.013 233.26 166.76C232.673 167.493 231.853 168.067 230.8 168.48C229.76 168.893 228.573 169.1 227.24 169.1C225.92 169.1 224.733 168.893 223.68 168.48C222.64 168.067 221.82 167.493 221.22 166.76C220.62 166.013 220.32 165.14 220.32 164.14C220.32 163.127 220.62 162.253 221.22 161.52C221.82 160.773 222.64 160.193 223.68 159.78C224.733 159.367 225.92 159.16 227.24 159.16ZM227.24 161.22C226.386 161.22 225.633 161.34 224.98 161.58C224.34 161.807 223.84 162.133 223.48 162.56C223.12 162.987 222.94 163.513 222.94 164.14C222.94 164.74 223.12 165.26 223.48 165.7C223.84 166.127 224.34 166.46 224.98 166.7C225.633 166.927 226.386 167.04 227.24 167.04C228.106 167.04 228.86 166.927 229.5 166.7C230.153 166.46 230.653 166.127 231 165.7C231.36 165.26 231.54 164.74 231.54 164.14C231.54 163.513 231.36 162.987 231 162.56C230.653 162.133 230.153 161.807 229.5 161.58C228.86 161.34 228.106 161.22 227.24 161.22ZM238.998 169.96L238.578 162.58L238.478 159.78H241.438L241.338 162.58L240.918 169.96H238.998ZM239.958 175.28C239.425 175.28 238.985 175.093 238.638 174.72C238.305 174.347 238.138 173.893 238.138 173.36C238.138 172.8 238.305 172.34 238.638 171.98C238.985 171.62 239.425 171.44 239.958 171.44C240.492 171.44 240.925 171.62 241.258 171.98C241.605 172.34 241.778 172.8 241.778 173.36C241.778 173.893 241.605 174.347 241.258 174.72C240.925 175.093 240.492 175.28 239.958 175.28Z" fill="black"/>
<rect x="93.5" y="189" width="62" height="22" rx="10" fill="#FEF4D2"/>
<path d="M101.175 204V203.15C101.848 202.55 102.422 201.993 102.895 201.48C103.375 200.967 103.742 200.49 103.995 200.05C104.248 199.603 104.375 199.19 104.375 198.81C104.375 198.57 104.332 198.36 104.245 198.18C104.158 198 104.032 197.863 103.865 197.77C103.705 197.67 103.505 197.62 103.265 197.62C102.998 197.62 102.752 197.697 102.525 197.85C102.305 197.997 102.102 198.173 101.915 198.38L101.095 197.59C101.442 197.217 101.795 196.937 102.155 196.75C102.522 196.557 102.955 196.46 103.455 196.46C103.922 196.46 104.328 196.557 104.675 196.75C105.028 196.937 105.302 197.2 105.495 197.54C105.688 197.88 105.785 198.28 105.785 198.74C105.785 199.187 105.672 199.643 105.445 200.11C105.225 200.57 104.928 201.03 104.555 201.49C104.182 201.95 103.768 202.403 103.315 202.85C103.508 202.823 103.715 202.803 103.935 202.79C104.162 202.77 104.362 202.76 104.535 202.76H106.135V204H101.175ZM109.594 204.14C109.12 204.14 108.697 204.057 108.324 203.89C107.95 203.723 107.654 203.49 107.434 203.19C107.22 202.89 107.114 202.547 107.114 202.16C107.114 201.84 107.17 201.56 107.284 201.32C107.404 201.073 107.56 200.86 107.754 200.68C107.947 200.5 108.157 200.35 108.384 200.23V200.18C108.104 199.98 107.87 199.737 107.684 199.45C107.497 199.157 107.404 198.817 107.404 198.43C107.404 198.03 107.5 197.683 107.694 197.39C107.887 197.097 108.15 196.87 108.484 196.71C108.824 196.55 109.207 196.47 109.634 196.47C110.074 196.47 110.454 196.553 110.774 196.72C111.094 196.88 111.34 197.107 111.514 197.4C111.694 197.693 111.784 198.04 111.784 198.44C111.784 198.68 111.737 198.907 111.644 199.12C111.557 199.333 111.44 199.527 111.294 199.7C111.154 199.867 111 200.01 110.834 200.13V200.18C111.067 200.3 111.277 200.45 111.464 200.63C111.65 200.81 111.8 201.027 111.914 201.28C112.027 201.527 112.084 201.82 112.084 202.16C112.084 202.533 111.977 202.87 111.764 203.17C111.557 203.47 111.267 203.707 110.894 203.88C110.52 204.053 110.087 204.14 109.594 204.14ZM110.054 199.77C110.234 199.577 110.367 199.377 110.454 199.17C110.54 198.963 110.584 198.75 110.584 198.53C110.584 198.33 110.544 198.153 110.464 198C110.39 197.84 110.28 197.717 110.134 197.63C109.987 197.543 109.81 197.5 109.604 197.5C109.35 197.5 109.137 197.58 108.964 197.74C108.79 197.9 108.704 198.13 108.704 198.43C108.704 198.657 108.76 198.853 108.874 199.02C108.994 199.18 109.157 199.32 109.364 199.44C109.57 199.553 109.8 199.663 110.054 199.77ZM109.624 203.1C109.837 203.1 110.024 203.063 110.184 202.99C110.35 202.91 110.48 202.797 110.574 202.65C110.667 202.497 110.714 202.317 110.714 202.11C110.714 201.917 110.67 201.75 110.584 201.61C110.504 201.463 110.39 201.337 110.244 201.23C110.097 201.117 109.924 201.013 109.724 200.92C109.524 200.827 109.304 200.727 109.064 200.62C108.864 200.787 108.7 200.99 108.574 201.23C108.447 201.463 108.384 201.72 108.384 202C108.384 202.22 108.437 202.413 108.544 202.58C108.657 202.74 108.807 202.867 108.994 202.96C109.18 203.053 109.39 203.1 109.624 203.1ZM114.172 200.34C113.905 200.34 113.685 200.25 113.512 200.07C113.339 199.883 113.252 199.657 113.252 199.39C113.252 199.11 113.339 198.88 113.512 198.7C113.685 198.52 113.905 198.43 114.172 198.43C114.432 198.43 114.649 198.52 114.822 198.7C114.995 198.88 115.082 199.11 115.082 199.39C115.082 199.657 114.995 199.883 114.822 200.07C114.649 200.25 114.432 200.34 114.172 200.34ZM114.172 204.14C113.905 204.14 113.685 204.047 113.512 203.86C113.339 203.673 113.252 203.447 113.252 203.18C113.252 202.9 113.339 202.67 113.512 202.49C113.685 202.31 113.905 202.22 114.172 202.22C114.432 202.22 114.649 202.31 114.822 202.49C114.995 202.67 115.082 202.9 115.082 203.18C115.082 203.447 114.995 203.673 114.822 203.86C114.649 204.047 114.432 204.14 114.172 204.14ZM119.164 204V199.45C119.164 199.237 119.171 198.983 119.184 198.69C119.197 198.39 119.211 198.13 119.224 197.91H119.174C119.087 198.11 118.994 198.31 118.894 198.51C118.794 198.71 118.691 198.913 118.584 199.12L117.434 200.96H121.414V202.08H116.004V201.08L118.764 196.59H120.534V204H119.164ZM124.462 204.14C124.069 204.14 123.719 204.093 123.412 204C123.106 203.907 122.832 203.783 122.592 203.63C122.352 203.477 122.139 203.31 121.952 203.13L122.632 202.19C122.772 202.33 122.922 202.457 123.082 202.57C123.249 202.683 123.429 202.773 123.622 202.84C123.822 202.907 124.036 202.94 124.262 202.94C124.516 202.94 124.739 202.887 124.932 202.78C125.132 202.673 125.289 202.52 125.402 202.32C125.516 202.113 125.572 201.867 125.572 201.58C125.572 201.153 125.456 200.823 125.222 200.59C124.996 200.357 124.696 200.24 124.322 200.24C124.109 200.24 123.926 200.27 123.772 200.33C123.619 200.383 123.432 200.48 123.212 200.62L122.542 200.19L122.742 196.59H126.702V197.83H124.012L123.872 199.4C124.019 199.333 124.162 199.283 124.302 199.25C124.442 199.217 124.596 199.2 124.762 199.2C125.176 199.2 125.556 199.283 125.902 199.45C126.249 199.61 126.526 199.863 126.732 200.21C126.939 200.557 127.042 201 127.042 201.54C127.042 202.087 126.919 202.557 126.672 202.95C126.432 203.337 126.116 203.633 125.722 203.84C125.336 204.04 124.916 204.14 124.462 204.14ZM136.216 195.62H137.546V200.84H136.216V195.62ZM137.186 197.57H138.776V198.66H137.186V197.57ZM131.526 201.26H137.546V204.79H131.526V201.26ZM136.256 202.31H132.836V203.74H136.256V202.31ZM130.636 196.06H131.966V199.85H130.636V196.06ZM130.636 199.28H131.406C132.04 199.28 132.696 199.257 133.376 199.21C134.063 199.157 134.77 199.06 135.496 198.92L135.646 199.98C134.9 200.133 134.17 200.24 133.456 200.3C132.75 200.353 132.066 200.38 131.406 200.38H130.636V199.28ZM143.646 195.8C144.332 195.8 144.926 195.873 145.426 196.02C145.926 196.16 146.312 196.367 146.586 196.64C146.866 196.907 147.006 197.227 147.006 197.6C147.006 197.973 146.866 198.297 146.586 198.57C146.312 198.837 145.926 199.043 145.426 199.19C144.926 199.337 144.332 199.41 143.646 199.41C142.972 199.41 142.382 199.337 141.876 199.19C141.369 199.043 140.979 198.837 140.706 198.57C140.432 198.297 140.296 197.973 140.296 197.6C140.296 197.227 140.432 196.907 140.706 196.64C140.979 196.367 141.369 196.16 141.876 196.02C142.382 195.873 142.972 195.8 143.646 195.8ZM143.646 196.82C143.232 196.82 142.876 196.85 142.576 196.91C142.276 196.963 142.049 197.047 141.896 197.16C141.749 197.273 141.676 197.42 141.676 197.6C141.676 197.773 141.749 197.92 141.896 198.04C142.049 198.153 142.276 198.24 142.576 198.3C142.876 198.353 143.232 198.38 143.646 198.38C144.072 198.38 144.432 198.353 144.726 198.3C145.019 198.24 145.242 198.153 145.396 198.04C145.549 197.92 145.626 197.773 145.626 197.6C145.626 197.42 145.549 197.273 145.396 197.16C145.242 197.047 145.019 196.963 144.726 196.91C144.432 196.85 144.072 196.82 143.646 196.82ZM140.436 201.63H146.836V204.79H140.436V201.63ZM145.536 202.68H141.736V203.74H145.536V202.68ZM139.456 199.94H147.836V200.98H139.456V199.94Z" fill="#5D3300"/>
<g clip-path="url(#clip0_1_9410)">
<path d="M187.451 192.983C189.623 192.983 191.385 194.744 191.385 196.916C191.385 197.218 191.346 197.515 191.277 197.808L191.27 197.843L191.264 197.879C190.966 199.733 189.754 201.744 188.132 203.478C186.633 205.079 184.889 206.33 183.442 206.942C181.995 206.33 180.252 205.079 178.753 203.478C177.13 201.744 175.919 199.733 175.62 197.878L175.615 197.844L175.606 197.81C175.538 197.515 175.5 197.217 175.5 196.916C175.5 194.744 177.261 192.983 179.434 192.983C180.749 192.983 181.913 193.631 182.63 194.63L183.442 195.763L184.255 194.63C184.972 193.631 186.135 192.983 187.451 192.983Z" fill="white" stroke="#EF9F27" stroke-width="2"/>
</g>
<g clip-path="url(#clip1_1_9410)">
<path d="M210.451 192.983C212.623 192.983 214.385 194.744 214.385 196.916C214.385 197.218 214.346 197.515 214.277 197.808L214.27 197.843L214.264 197.879C213.966 199.733 212.754 201.744 211.132 203.478C209.633 205.079 207.889 206.33 206.442 206.942C204.995 206.33 203.252 205.079 201.753 203.478C200.13 201.744 198.919 199.733 198.62 197.878L198.615 197.844L198.606 197.81C198.538 197.515 198.5 197.217 198.5 196.916C198.5 194.744 200.261 192.983 202.434 192.983C203.749 192.983 204.913 193.631 205.63 194.63L206.442 195.763L207.255 194.63C207.972 193.631 209.135 192.983 210.451 192.983Z" fill="white" stroke="#EF9F27" stroke-width="2"/>
</g>
<g clip-path="url(#clip2_1_9410)">
<path d="M228 193.5C229.724 193.5 231.377 194.185 232.596 195.404C233.815 196.623 234.5 198.276 234.5 200C234.5 201.724 233.815 203.377 232.596 204.596C231.377 205.815 229.724 206.5 228 206.5C226.276 206.5 224.623 205.815 223.404 204.596C222.185 203.377 221.5 201.724 221.5 200C221.5 198.276 222.185 196.623 223.404 195.404C224.623 194.185 226.276 193.5 228 193.5ZM228.863 197.003C228.863 196.788 228.777 196.581 228.625 196.429C228.473 196.277 228.266 196.191 228.05 196.191C227.835 196.191 227.628 196.277 227.476 196.429C227.323 196.581 227.238 196.788 227.238 197.003V199.238H225.003C224.788 199.238 224.581 199.323 224.429 199.476C224.277 199.628 224.191 199.835 224.191 200.05C224.191 200.266 224.277 200.473 224.429 200.625C224.581 200.777 224.788 200.863 225.003 200.863H227.238V203.097C227.238 203.313 227.323 203.519 227.476 203.672C227.628 203.824 227.835 203.91 228.05 203.91C228.266 203.91 228.473 203.824 228.625 203.672C228.777 203.519 228.863 203.313 228.863 203.097V200.863H231.097C231.313 200.863 231.519 200.777 231.672 200.625C231.824 200.473 231.91 200.266 231.91 200.05C231.91 199.835 231.824 199.628 231.672 199.476C231.519 199.323 231.313 199.238 231.097 199.238H228.863V197.003Z" fill="#EF9F27"/>
</g>
<path d="M47.7013 227.276L46.5013 227.168C46.7053 226.136 46.7413 225.356 46.7533 224.72H42.5293V223.712H47.9653V224.36C47.9653 225.056 47.9653 226.028 47.7013 227.276ZM48.6133 227.852L48.6973 228.74C46.4413 229.112 43.9333 229.172 42.0013 229.172L41.8693 228.164C42.5293 228.164 43.2733 228.164 44.0293 228.152V226.1H45.2533V228.116C46.3813 228.068 47.5453 227.996 48.6133 227.852ZM46.9333 232.94C48.4573 232.94 49.3453 232.58 49.3453 231.908C49.3453 231.236 48.4573 230.876 46.9333 230.876C45.4333 230.876 44.5453 231.236 44.5453 231.908C44.5453 232.58 45.4333 232.94 46.9333 232.94ZM46.9333 229.904C49.2013 229.904 50.6053 230.648 50.6053 231.908C50.6053 233.168 49.2013 233.912 46.9333 233.912C44.6893 233.912 43.2853 233.168 43.2853 231.908C43.2853 230.648 44.6893 229.904 46.9333 229.904ZM50.5213 225.92H51.9613V226.94H50.5213V229.784H49.2733V223.076H50.5213V225.92ZM60.3963 225.164V225.104H53.9283V224.096H61.6443V225.164C61.6443 226.508 61.6443 228.008 61.2243 230.252L59.9763 230.12C60.3963 227.996 60.3963 226.46 60.3963 225.164ZM57.8043 231.488H62.7003V232.508H52.9083V231.488H56.5563V227.672H57.8043V231.488ZM71.1834 224.936V224.204H65.0514V223.352H72.4074V225.74H66.2874V226.508H72.5994V227.372H65.0754V224.936H71.1834ZM66.2034 232.124V232.952H72.7674V233.804H64.9794V231.32H71.2194V230.552H64.9554V229.7H72.4434V232.124H66.2034ZM63.8154 228.056H73.6434V228.968H63.8154V228.056ZM81.3178 223.988V225.764C81.3178 227.756 82.4218 229.748 84.1258 230.516L83.4058 231.5C82.1578 230.912 81.2098 229.712 80.7178 228.248C80.2258 229.82 79.2658 231.104 77.9578 231.74L77.2258 230.708C78.9538 229.928 80.0818 227.852 80.0818 225.764V223.988H81.3178ZM84.9898 223.076H86.2378V233.948H84.9898V223.076ZM94.0248 226.076H95.9808V223.076H97.2168V229.64H95.9808V227.096H94.0248V226.076ZM94.6968 228.284L94.1208 229.232C92.8848 228.884 91.9728 228.128 91.4808 227.18C91.0008 228.26 90.0888 229.112 88.8168 229.508L88.2168 228.548C89.8848 228.032 90.8208 226.748 90.8208 225.392V225.296H88.5408V224.312H90.8208V223.028H92.0688V224.312H94.3368V225.296H92.0568V225.392C92.0568 226.628 93.0408 227.804 94.6968 228.284ZM93.6048 232.964C95.1528 232.964 96.0288 232.58 96.0288 231.896C96.0288 231.212 95.1528 230.84 93.6048 230.84C92.0688 230.84 91.1928 231.212 91.1928 231.896C91.1928 232.58 92.0688 232.964 93.6048 232.964ZM93.6048 229.88C95.8728 229.88 97.2648 230.624 97.2648 231.896C97.2648 233.168 95.8728 233.924 93.6048 233.924C91.3368 233.924 89.9568 233.168 89.9568 231.896C89.9568 230.624 91.3368 229.88 93.6048 229.88ZM102.316 230.576C103.192 230.576 103.828 229.976 103.828 229.064C103.828 228.152 103.192 227.552 102.316 227.552C101.44 227.552 100.804 228.152 100.804 229.064C100.804 229.976 101.44 230.576 102.316 230.576ZM102.316 226.532C103.864 226.532 105.004 227.588 105.004 229.064C105.004 230.552 103.864 231.596 102.316 231.596C100.756 231.596 99.6279 230.552 99.6279 229.064C99.6279 227.588 100.756 226.532 102.316 226.532ZM102.916 223.244V224.756H105.448V225.764H99.0999V224.756H101.68V223.244H102.916ZM109.24 227.444V228.476H107.572V233.936H106.324V223.088H107.572V227.444H109.24ZM114.363 228.188V224.972H111.759V228.188H114.363ZM117.819 225.908H115.563V227.228H117.819V225.908ZM115.563 228.224V229.172H110.547V223.988H115.563V224.9H117.819V223.088H119.055V230.996H117.819V228.224H115.563ZM113.247 232.712H119.307V233.72H111.999V230.276H113.247V232.712ZM126.729 230.576C127.605 230.576 128.241 229.976 128.241 229.064C128.241 228.152 127.605 227.552 126.729 227.552C125.853 227.552 125.217 228.152 125.217 229.064C125.217 229.976 125.853 230.576 126.729 230.576ZM126.729 226.532C128.277 226.532 129.417 227.588 129.417 229.064C129.417 230.552 128.277 231.596 126.729 231.596C125.169 231.596 124.041 230.552 124.041 229.064C124.041 227.588 125.169 226.532 126.729 226.532ZM127.329 223.244V224.756H129.861V225.764H123.513V224.756H126.093V223.244H127.329ZM133.653 227.444V228.476H131.985V233.936H130.737V223.088H131.985V227.444H133.653ZM143.216 228.812V229.808H135.704V223.964H143.132V224.96H136.964V226.352H142.892V227.324H136.964V228.812H143.216ZM134.492 231.584H144.32V232.592H134.492V231.584ZM148.407 233V231.86H150.339V225.716H148.755V224.84C149.583 224.684 150.171 224.48 150.675 224.168H151.719V231.86H153.447V233H148.407ZM155.107 224.456H159.367C159.367 227.348 158.419 229.904 155.371 231.656L154.651 230.78C156.991 229.424 157.975 227.648 158.143 225.464H155.107V224.456ZM162.751 223.088H163.927V233.924H162.751V228.332H161.515V233.42H160.351V223.376H161.515V227.324H162.751V223.088ZM172.986 224.936V224.204H166.854V223.352H174.21V225.74H168.09V226.508H174.402V227.372H166.878V224.936H172.986ZM168.006 232.124V232.952H174.57V233.804H166.782V231.32H173.022V230.552H166.758V229.7H174.246V232.124H168.006ZM165.618 228.056H175.446V228.968H165.618V228.056ZM180.036 227.648L179.604 226.688C181.632 226.472 183.048 225.56 183.168 224.552H180.012V223.556H188.028V224.552H184.848C184.968 225.572 186.396 226.472 188.424 226.688L187.98 227.648C186.072 227.444 184.584 226.64 184.008 225.512C183.42 226.64 181.944 227.444 180.036 227.648ZM180.204 231.188V230.204H187.716V233.936H186.48V231.188H180.204ZM179.1 228.248H188.94V229.244H179.1V228.248ZM194.039 223.988V225.764C194.039 227.756 195.143 229.748 196.847 230.516L196.127 231.5C194.879 230.912 193.931 229.712 193.439 228.248C192.947 229.82 191.987 231.104 190.679 231.74L189.947 230.708C191.675 229.928 192.803 227.852 192.803 225.764V223.988H194.039ZM197.711 223.076H198.959V233.948H197.711V223.076ZM204.401 227.9L204.029 226.952C206.201 226.796 207.557 226.04 207.713 225.08H204.509V224.108H207.809V223.076H209.045V224.108H212.345V225.08H209.141C209.297 226.04 210.653 226.796 212.825 226.952L212.441 227.9C210.557 227.744 209.105 227.12 208.421 226.16C207.749 227.12 206.297 227.744 204.401 227.9ZM210.893 232.1C210.893 231.512 210.017 231.2 208.409 231.2C206.813 231.2 205.937 231.512 205.937 232.1C205.937 232.688 206.813 232.988 208.409 232.988C210.017 232.988 210.893 232.688 210.893 232.1ZM213.329 229.352H209.045V230.3C211.001 230.42 212.141 231.044 212.141 232.1C212.141 233.276 210.761 233.924 208.409 233.924C206.069 233.924 204.677 233.276 204.677 232.1C204.677 231.032 205.841 230.408 207.809 230.3V229.352H203.525V228.368H213.329V229.352ZM220.228 225.992H222.196V223.1H223.432V231.02H222.196V227.012H220.228V225.992ZM220.9 228.524L220.288 229.484C219.088 229.076 218.212 228.224 217.756 227.156C217.276 228.332 216.364 229.28 215.08 229.724L214.444 228.752C216.124 228.164 217.108 226.736 217.108 225.272V224.9H214.816V223.904H220.612V224.9H218.356V225.272C218.356 226.604 219.28 227.96 220.9 228.524ZM217.648 232.712H223.708V233.72H216.412V230.336H217.648V232.712ZM231.784 224V224.936H225.388V224H227.968V222.98H229.204V224H231.784ZM227.14 227.096C227.14 227.648 227.704 227.972 228.58 227.972C229.468 227.972 230.032 227.648 230.032 227.096C230.032 226.532 229.468 226.208 228.58 226.208C227.704 226.208 227.14 226.532 227.14 227.096ZM231.208 227.096C231.208 228.188 230.176 228.86 228.58 228.86C226.996 228.86 225.952 228.188 225.952 227.096C225.952 225.992 226.996 225.308 228.58 225.308C230.176 225.308 231.208 225.992 231.208 227.096ZM228.076 232.052V232.904H234.196V233.828H226.864V231.188H232.612V230.408H226.84V229.496H233.836V232.052H228.076ZM233.836 225.536H235.372V226.556H233.836V229.004H232.6V223.064H233.836V225.536ZM248.242 227.084L247.762 228.08C245.962 227.792 244.486 226.88 243.778 225.632C243.082 226.892 241.582 227.792 239.782 228.08L239.302 227.084C241.51 226.772 243.118 225.44 243.118 224.012V223.436H244.426V224.012C244.426 225.416 246.058 226.772 248.242 227.084ZM248.662 229.1V230.108H244.354V233.936H243.118V230.108H238.87V229.1H248.662ZM261.292 223.1V229.256H260.056V223.1H261.292ZM255.448 224.708C254.488 224.708 253.78 225.32 253.78 226.244C253.78 227.18 254.488 227.78 255.448 227.78C256.408 227.78 257.116 227.18 257.116 226.244C257.116 225.32 256.408 224.708 255.448 224.708ZM255.448 228.8C253.792 228.8 252.568 227.756 252.568 226.244C252.568 224.732 253.792 223.688 255.448 223.688C257.104 223.688 258.316 224.732 258.316 226.244C258.316 227.756 257.104 228.8 255.448 228.8ZM260.14 229.724V230.204C260.14 231.32 260.836 232.412 262.252 232.868L261.64 233.78C260.596 233.408 259.888 232.712 259.516 231.836C259.168 232.688 258.52 233.468 257.536 233.876C256.516 233.48 255.88 232.736 255.544 231.86C255.148 232.712 254.452 233.408 253.444 233.78L252.844 232.868C254.224 232.376 254.944 231.26 254.944 230.204V229.724H256.144V230.204C256.144 231.116 256.564 232.088 257.512 232.688C258.472 232.04 258.928 231.02 258.928 230.204V229.724H260.14ZM266.199 230.42C267.135 230.42 267.771 229.412 267.771 227.696C267.771 226.016 267.135 224.996 266.199 224.996C265.275 224.996 264.639 226.016 264.639 227.696C264.639 229.412 265.275 230.42 266.199 230.42ZM271.035 223.076H272.283V233.948H271.035V228.128H268.935C268.791 230.228 267.687 231.524 266.199 231.524C264.603 231.524 263.463 230.048 263.463 227.696C263.463 225.368 264.603 223.88 266.199 223.88C267.651 223.88 268.755 225.128 268.923 227.12H271.035V223.076ZM277.73 229.232V231.584H280.466V229.22C280.046 229.328 279.578 229.376 279.098 229.376C278.618 229.376 278.15 229.328 277.73 229.232ZM279.098 224.684C277.454 224.684 276.314 225.404 276.314 226.544C276.314 227.696 277.454 228.416 279.098 228.416C280.73 228.416 281.87 227.696 281.87 226.544C281.87 225.404 280.73 224.684 279.098 224.684ZM281.702 231.584H284.018V232.592H274.202V231.584H276.494V228.764C275.63 228.284 275.114 227.504 275.114 226.544C275.114 224.816 276.782 223.712 279.098 223.712C281.402 223.712 283.082 224.816 283.082 226.544C283.082 227.504 282.566 228.272 281.702 228.764V231.584ZM286.105 230.18L285.913 225.38L285.877 223.964H287.269L287.221 225.38L287.029 230.18H286.105ZM286.561 233.156C286.045 233.156 285.649 232.76 285.649 232.196C285.649 231.632 286.045 231.212 286.561 231.212C287.089 231.212 287.497 231.632 287.497 232.196C287.497 232.76 287.089 233.156 286.561 233.156Z" fill="black"/>
<path d="M69.5 245.5H53.5C52.4 245.5 51.5 246.4 51.5 247.5V261.5C51.5 262.6 52.4 263.5 53.5 263.5H69.5C70.6 263.5 71.5 262.6 71.5 261.5V247.5C71.5 246.4 70.6 245.5 69.5 245.5ZM59.5 260.5V254.5L64.5 257.5L59.5 260.5ZM59.04 251.5L56.37 247.5H58.97L61.64 251.5H59.04ZM64.04 251.5L61.37 247.5H63.97L66.64 251.5H64.04ZM53.5 247.5H53.96L56.63 251.5H53.5V247.5ZM69.5 261.5V251.5H69.04L66.37 247.5H69.5V261.5Z" fill="#EF9F27"/>
<path d="M84.3122 256.062H86.1602V259.016H84.3122V256.062ZM85.2362 249.44C86.1602 249.44 86.9862 249.589 87.7142 249.888C88.4515 250.177 89.0302 250.588 89.4502 251.12C89.8702 251.652 90.0802 252.282 90.0802 253.01C90.0802 253.729 89.8702 254.359 89.4502 254.9C89.0302 255.441 88.4515 255.861 87.7142 256.16C86.9862 256.449 86.1602 256.594 85.2362 256.594C84.3215 256.594 83.4955 256.449 82.7582 256.16C82.0302 255.861 81.4515 255.441 81.0222 254.9C80.6022 254.359 80.3922 253.729 80.3922 253.01C80.3922 252.282 80.6022 251.652 81.0222 251.12C81.4515 250.588 82.0302 250.177 82.7582 249.888C83.4955 249.589 84.3215 249.44 85.2362 249.44ZM85.2362 250.91C84.6482 250.91 84.1255 250.994 83.6682 251.162C83.2202 251.33 82.8655 251.568 82.6042 251.876C82.3522 252.184 82.2262 252.562 82.2262 253.01C82.2262 253.449 82.3522 253.827 82.6042 254.144C82.8655 254.452 83.2202 254.69 83.6682 254.858C84.1255 255.026 84.6482 255.11 85.2362 255.11C85.8335 255.11 86.3562 255.026 86.8042 254.858C87.2615 254.69 87.6162 254.452 87.8682 254.144C88.1202 253.827 88.2462 253.449 88.2462 253.01C88.2462 252.562 88.1202 252.184 87.8682 251.876C87.6162 251.568 87.2615 251.33 86.8042 251.162C86.3562 250.994 85.8335 250.91 85.2362 250.91ZM79.3842 258.722H91.1302V260.234H79.3842V258.722ZM93.5651 251.358H102.511V252.828H93.5651V251.358ZM92.1231 253.682H103.855V255.152H92.1231V253.682ZM93.5651 248.908H95.4131V252.142H93.5651V248.908ZM93.4391 255.936H102.469V259.38H95.3291V260.514H93.4531V258.064H100.607V257.336H93.4391V255.936ZM93.4531 260.192H102.847V261.606H93.4531V260.192ZM116.224 248.768H118.086V256.076H116.224V248.768ZM117.582 251.498H119.808V253.024H117.582V251.498ZM109.658 256.664H118.086V261.606H109.658V256.664ZM116.28 258.134H111.492V260.136H116.28V258.134ZM108.412 249.384H110.274V254.69H108.412V249.384ZM108.412 253.892H109.49C110.377 253.892 111.296 253.859 112.248 253.794C113.209 253.719 114.199 253.584 115.216 253.388L115.426 254.872C114.381 255.087 113.359 255.236 112.36 255.32C111.371 255.395 110.414 255.432 109.49 255.432H108.412V253.892ZM120.619 255.39H132.351V256.86H120.619V255.39ZM122.047 260.024H131.035V261.522H122.047V260.024ZM122.047 257.728H123.909V260.5H122.047V257.728ZM126.485 249.16C127.427 249.16 128.249 249.267 128.949 249.482C129.658 249.697 130.209 250.005 130.601 250.406C130.993 250.807 131.189 251.279 131.189 251.82C131.189 252.371 130.993 252.847 130.601 253.248C130.209 253.649 129.658 253.957 128.949 254.172C128.249 254.387 127.427 254.494 126.485 254.494C125.551 254.494 124.73 254.387 124.021 254.172C123.321 253.957 122.775 253.649 122.383 253.248C121.991 252.847 121.795 252.371 121.795 251.82C121.795 251.279 121.991 250.807 122.383 250.406C122.775 250.005 123.321 249.697 124.021 249.482C124.73 249.267 125.551 249.16 126.485 249.16ZM126.485 250.63C125.915 250.63 125.421 250.677 125.001 250.77C124.581 250.863 124.263 250.999 124.049 251.176C123.834 251.344 123.727 251.559 123.727 251.82C123.727 252.081 123.834 252.301 124.049 252.478C124.263 252.655 124.581 252.791 125.001 252.884C125.421 252.977 125.915 253.024 126.485 253.024C127.073 253.024 127.572 252.977 127.983 252.884C128.393 252.791 128.706 252.655 128.921 252.478C129.145 252.301 129.257 252.081 129.257 251.82C129.257 251.559 129.145 251.344 128.921 251.176C128.706 250.999 128.393 250.863 127.983 250.77C127.572 250.677 127.073 250.63 126.485 250.63ZM136.978 249.482H142.522V250.952H136.978V249.482ZM138.574 252.38H140.408V255.572H138.574V252.38ZM141.78 249.482H143.628V250.322C143.628 250.751 143.614 251.251 143.586 251.82C143.558 252.389 143.469 253.029 143.32 253.738L141.514 253.584C141.654 252.893 141.733 252.287 141.752 251.764C141.77 251.232 141.78 250.751 141.78 250.322V249.482ZM144.874 248.768H146.75V256.678H144.874V248.768ZM146.022 251.96H148.304V253.486H146.022V251.96ZM136.39 256.146L136.208 254.662C136.992 254.662 137.832 254.657 138.728 254.648C139.633 254.639 140.552 254.611 141.486 254.564C142.419 254.508 143.315 254.429 144.174 254.326L144.3 255.642C143.413 255.791 142.508 255.903 141.584 255.978C140.66 256.043 139.754 256.09 138.868 256.118C137.99 256.137 137.164 256.146 136.39 256.146ZM142.382 256.818C143.306 256.818 144.099 256.916 144.762 257.112C145.434 257.308 145.952 257.588 146.316 257.952C146.68 258.316 146.862 258.755 146.862 259.268C146.862 259.781 146.68 260.22 146.316 260.584C145.952 260.957 145.434 261.242 144.762 261.438C144.099 261.634 143.306 261.732 142.382 261.732C141.467 261.732 140.669 261.634 139.988 261.438C139.316 261.242 138.798 260.957 138.434 260.584C138.07 260.22 137.888 259.781 137.888 259.268C137.888 258.755 138.07 258.316 138.434 257.952C138.798 257.588 139.316 257.308 139.988 257.112C140.669 256.916 141.467 256.818 142.382 256.818ZM142.382 258.246C141.542 258.246 140.898 258.33 140.45 258.498C140.011 258.666 139.792 258.923 139.792 259.268C139.792 259.604 140.011 259.856 140.45 260.024C140.898 260.192 141.542 260.276 142.382 260.276C143.212 260.276 143.847 260.192 144.286 260.024C144.734 259.856 144.958 259.604 144.958 259.268C144.958 258.923 144.734 258.666 144.286 258.498C143.847 258.33 143.212 258.246 142.382 258.246ZM150.346 249.874H158.55V251.358H150.346V249.874ZM149.142 258.666H160.874V260.178H149.142V258.666ZM153.286 254.214H155.162V259.422H153.286V254.214ZM157.878 249.874H159.754V251.106C159.754 251.647 159.745 252.221 159.726 252.828C159.717 253.435 159.675 254.107 159.6 254.844C159.535 255.581 159.414 256.407 159.236 257.322L157.374 257.126C157.636 255.829 157.785 254.699 157.822 253.738C157.86 252.767 157.878 251.89 157.878 251.106V249.874ZM169.827 255.95H171.675V257.826H169.827V255.95ZM164.899 255.012H176.631V256.468H164.899V255.012ZM169.827 248.81H171.689V250.616H169.827V248.81ZM169.715 250.756H171.353V251.008C171.353 251.493 171.237 251.941 171.003 252.352C170.779 252.763 170.434 253.127 169.967 253.444C169.51 253.752 168.945 254.004 168.273 254.2C167.611 254.396 166.836 254.527 165.949 254.592L165.389 253.192C166.173 253.136 166.836 253.043 167.377 252.912C167.928 252.772 168.376 252.599 168.721 252.394C169.067 252.189 169.319 251.969 169.477 251.736C169.636 251.493 169.715 251.251 169.715 251.008V250.756ZM170.163 250.756H171.801V251.008C171.801 251.251 171.881 251.493 172.039 251.736C172.198 251.969 172.445 252.189 172.781 252.394C173.127 252.599 173.575 252.772 174.125 252.912C174.676 253.043 175.339 253.136 176.113 253.192L175.567 254.592C174.69 254.527 173.911 254.396 173.229 254.2C172.557 254.004 171.993 253.752 171.535 253.444C171.078 253.127 170.733 252.763 170.499 252.352C170.275 251.941 170.163 251.493 170.163 251.008V250.756ZM166.019 249.944H175.497V251.372H166.019V249.944ZM170.737 257.336C172.156 257.336 173.262 257.527 174.055 257.91C174.849 258.293 175.245 258.839 175.245 259.548C175.245 260.257 174.849 260.799 174.055 261.172C173.262 261.555 172.156 261.746 170.737 261.746C169.328 261.746 168.227 261.555 167.433 261.172C166.64 260.799 166.243 260.257 166.243 259.548C166.243 258.839 166.64 258.293 167.433 257.91C168.227 257.527 169.328 257.336 170.737 257.336ZM170.737 258.708C169.86 258.708 169.202 258.773 168.763 258.904C168.334 259.035 168.119 259.249 168.119 259.548C168.119 259.828 168.334 260.038 168.763 260.178C169.202 260.309 169.86 260.374 170.737 260.374C171.615 260.374 172.268 260.309 172.697 260.178C173.136 260.038 173.355 259.828 173.355 259.548C173.355 259.249 173.136 259.035 172.697 258.904C172.268 258.773 171.615 258.708 170.737 258.708ZM184.596 252.128H187.606V253.626H184.596V252.128ZM186.626 248.782H188.502V258.232H186.626V248.782ZM179.934 260.024H188.796V261.522H179.934V260.024ZM179.934 257.434H181.796V260.906H179.934V257.434ZM180.648 250.476H182.16V251.288C182.16 252.109 182.029 252.889 181.768 253.626C181.507 254.363 181.105 255.012 180.564 255.572C180.032 256.123 179.346 256.538 178.506 256.818L177.582 255.334C178.114 255.157 178.571 254.928 178.954 254.648C179.346 254.359 179.663 254.032 179.906 253.668C180.158 253.304 180.345 252.921 180.466 252.52C180.587 252.119 180.648 251.708 180.648 251.288V250.476ZM181.04 250.476H182.524V251.288C182.524 251.792 182.627 252.296 182.832 252.8C183.037 253.295 183.355 253.747 183.784 254.158C184.223 254.559 184.783 254.877 185.464 255.11L184.554 256.552C183.751 256.281 183.089 255.885 182.566 255.362C182.053 254.83 181.67 254.214 181.418 253.514C181.166 252.805 181.04 252.063 181.04 251.288V250.476ZM178.086 249.65H185.058V251.134H178.086V249.65ZM202.355 248.782H204.217V258.4H202.355V248.782ZM193.857 249.748H201.459V251.078H193.857V249.748ZM197.651 251.414C198.304 251.414 198.869 251.493 199.345 251.652C199.83 251.801 200.208 252.016 200.479 252.296C200.75 252.576 200.885 252.907 200.885 253.29C200.885 253.673 200.75 254.009 200.479 254.298C200.208 254.587 199.83 254.811 199.345 254.97C198.869 255.119 198.304 255.194 197.651 255.194C197.007 255.194 196.442 255.119 195.957 254.97C195.481 254.811 195.108 254.587 194.837 254.298C194.576 254.009 194.445 253.673 194.445 253.29C194.445 252.907 194.576 252.576 194.837 252.296C195.108 252.016 195.481 251.801 195.957 251.652C196.442 251.493 197.007 251.414 197.651 251.414ZM197.651 252.632C197.212 252.632 196.862 252.688 196.601 252.8C196.34 252.903 196.209 253.066 196.209 253.29C196.209 253.514 196.34 253.687 196.601 253.808C196.862 253.92 197.212 253.976 197.651 253.976C198.099 253.976 198.454 253.92 198.715 253.808C198.976 253.687 199.107 253.514 199.107 253.29C199.107 253.066 198.976 252.903 198.715 252.8C198.454 252.688 198.099 252.632 197.651 252.632ZM196.727 248.684H198.603V250.378H196.727V248.684ZM196.727 254.564H198.603V256.356H196.727V254.564ZM193.703 257.308L193.493 255.894C194.277 255.894 195.122 255.889 196.027 255.88C196.942 255.871 197.875 255.838 198.827 255.782C199.788 255.726 200.708 255.647 201.585 255.544L201.725 256.79C200.81 256.949 199.882 257.065 198.939 257.14C197.996 257.215 197.077 257.261 196.181 257.28C195.294 257.299 194.468 257.308 193.703 257.308ZM198.771 257.742H200.367V257.896C200.367 258.391 200.255 258.857 200.031 259.296C199.807 259.725 199.485 260.108 199.065 260.444C198.645 260.771 198.118 261.041 197.483 261.256C196.858 261.471 196.13 261.62 195.299 261.704L194.683 260.304C195.411 260.248 196.032 260.141 196.545 259.982C197.058 259.814 197.478 259.623 197.805 259.408C198.132 259.193 198.374 258.955 198.533 258.694C198.692 258.423 198.771 258.157 198.771 257.896V257.742ZM199.065 257.742H200.675V257.896C200.675 258.157 200.754 258.423 200.913 258.694C201.072 258.955 201.314 259.193 201.641 259.408C201.968 259.623 202.388 259.814 202.901 259.982C203.414 260.141 204.03 260.248 204.749 260.304L204.147 261.704C203.316 261.62 202.584 261.471 201.949 261.256C201.324 261.041 200.796 260.771 200.367 260.444C199.947 260.108 199.625 259.725 199.401 259.296C199.177 258.857 199.065 258.391 199.065 257.896V257.742ZM211.048 249.146H212.672V249.762C212.672 250.257 212.592 250.737 212.434 251.204C212.284 251.661 212.06 252.091 211.762 252.492C211.463 252.893 211.099 253.253 210.67 253.57C210.24 253.887 209.741 254.158 209.172 254.382C208.612 254.597 207.996 254.76 207.324 254.872L206.596 253.374C207.193 253.299 207.725 253.173 208.192 252.996C208.668 252.819 209.083 252.609 209.438 252.366C209.802 252.123 210.1 251.857 210.334 251.568C210.567 251.279 210.744 250.98 210.866 250.672C210.987 250.364 211.048 250.061 211.048 249.762V249.146ZM211.398 249.146H213.022V249.762C213.022 250.061 213.082 250.364 213.204 250.672C213.325 250.98 213.502 251.279 213.736 251.568C213.969 251.857 214.263 252.123 214.618 252.366C214.982 252.609 215.397 252.819 215.864 252.996C216.34 253.173 216.876 253.299 217.474 253.374L216.746 254.872C216.064 254.76 215.444 254.597 214.884 254.382C214.324 254.158 213.829 253.887 213.4 253.57C212.97 253.243 212.606 252.879 212.308 252.478C212.009 252.077 211.78 251.647 211.622 251.19C211.472 250.733 211.398 250.257 211.398 249.762V249.146ZM211.048 256.986H212.91V261.746H211.048V256.986ZM206.162 255.81H217.894V257.322H206.162V255.81ZM223.963 260.5C224.009 259.604 224.089 258.778 224.201 258.022C224.313 257.257 224.471 256.538 224.677 255.866C224.882 255.185 225.148 254.517 225.475 253.864C225.811 253.211 226.226 252.543 226.721 251.862H222.059V250.126H228.947V251.386C228.349 252.114 227.864 252.814 227.491 253.486C227.127 254.158 226.847 254.839 226.651 255.53C226.464 256.221 226.324 256.967 226.231 257.77C226.147 258.573 226.081 259.483 226.035 260.5H223.963ZM232.704 263.034L236.19 249.216H237.548L234.076 263.034H232.704ZM241.962 260.5V258.82H244.202V252.282H242.312V250.994C242.835 250.901 243.283 250.789 243.656 250.658C244.039 250.518 244.394 250.341 244.72 250.126H246.246V258.82H248.192V260.5H241.962ZM253.062 260.696C252.362 260.696 251.746 260.495 251.214 260.094C250.691 259.683 250.281 259.077 249.982 258.274C249.693 257.462 249.548 256.459 249.548 255.264C249.548 254.079 249.693 253.094 249.982 252.31C250.281 251.517 250.691 250.924 251.214 250.532C251.746 250.14 252.362 249.944 253.062 249.944C253.771 249.944 254.387 250.145 254.91 250.546C255.433 250.938 255.839 251.526 256.128 252.31C256.427 253.094 256.576 254.079 256.576 255.264C256.576 256.459 256.427 257.462 256.128 258.274C255.839 259.077 255.433 259.683 254.91 260.094C254.387 260.495 253.771 260.696 253.062 260.696ZM253.062 259.086C253.37 259.086 253.641 258.969 253.874 258.736C254.107 258.503 254.289 258.111 254.42 257.56C254.551 257 254.616 256.235 254.616 255.264C254.616 254.303 254.551 253.551 254.42 253.01C254.289 252.459 254.107 252.077 253.874 251.862C253.641 251.638 253.37 251.526 253.062 251.526C252.773 251.526 252.507 251.638 252.264 251.862C252.031 252.077 251.844 252.459 251.704 253.01C251.564 253.551 251.494 254.303 251.494 255.264C251.494 256.235 251.564 257 251.704 257.56C251.844 258.111 252.031 258.503 252.264 258.736C252.507 258.969 252.773 259.086 253.062 259.086Z" fill="#EF9F27"/>
<g opacity="0.9">
<g clip-path="url(#clip3_1_9410)">
<rect x="20" y="287" width="141" height="56" rx="16" fill="#FEF4D2"/>
<path d="M72.1665 307.592H74.2945V322.408H72.1665V307.592ZM67.7985 309.128H69.8945C69.8945 310.259 69.7825 311.341 69.5585 312.376C69.3452 313.4 68.9825 314.365 68.4705 315.272C67.9692 316.179 67.2758 317.021 66.3905 317.8C65.5158 318.568 64.4225 319.272 63.1105 319.912L61.9905 318.232C63.4198 317.539 64.5558 316.776 65.3985 315.944C66.2518 315.101 66.8652 314.152 67.2385 313.096C67.6118 312.029 67.7985 310.835 67.7985 309.512V309.128ZM62.7905 309.128H68.7905V310.824H62.7905V309.128ZM85.9733 307.576H88.1173V322.44H85.9733V307.576ZM87.6533 313.064H90.2613V314.824H87.6533V313.064ZM77.0773 317.128H78.3253C79.1679 317.128 79.9573 317.117 80.6933 317.096C81.4293 317.064 82.1439 317.016 82.8373 316.952C83.5306 316.877 84.2399 316.776 84.9653 316.648L85.1733 318.408C84.4266 318.536 83.6906 318.637 82.9653 318.712C82.2506 318.787 81.5146 318.835 80.7573 318.856C79.9999 318.877 79.1893 318.888 78.3253 318.888H77.0773V317.128ZM77.0773 308.952H83.9893V310.664H79.2053V317.96H77.0773V308.952ZM101.268 307.576H103.412V322.44H101.268V307.576ZM91.876 317.256H93.188C94.0627 317.256 94.8893 317.245 95.668 317.224C96.4467 317.192 97.2093 317.144 97.956 317.08C98.7027 317.005 99.4653 316.899 100.244 316.76L100.468 318.472C99.2733 318.685 98.0947 318.829 96.932 318.904C95.78 318.968 94.532 319 93.188 319H91.876V317.256ZM91.844 308.84H98.836V314.584H94.036V317.912H91.876V312.904H96.676V310.552H91.844V308.84ZM115.843 307.592H117.971V322.408H115.843V307.592ZM111.475 309.128H113.571C113.571 310.259 113.459 311.341 113.235 312.376C113.021 313.4 112.659 314.365 112.147 315.272C111.645 316.179 110.952 317.021 110.067 317.8C109.192 318.568 108.099 319.272 106.787 319.912L105.667 318.232C107.096 317.539 108.232 316.776 109.075 315.944C109.928 315.101 110.541 314.152 110.915 313.096C111.288 312.029 111.475 310.835 111.475 309.512V309.128ZM106.467 309.128H112.467V310.824H106.467V309.128Z" fill="#EF9F27"/>
</g>
</g>
<g clip-path="url(#clip4_1_9410)">
<rect x="169" y="287" width="141" height="56" rx="16" fill="#EF9F27"/>
<path d="M210.958 318.968H224.383V320.696H210.958V318.968ZM216.59 315.8H218.703V319.384H216.59V315.8ZM212.366 308.536H214.495V310.824H220.799V308.536H222.911V316.248H212.366V308.536ZM214.495 312.488V314.552H220.799V312.488H214.495ZM235.789 307.576H237.901V322.44H235.789V307.576ZM233.469 312.92H236.221V314.632H233.469V312.92ZM226.013 317.272H227.229C228.04 317.272 228.797 317.261 229.501 317.24C230.216 317.219 230.915 317.181 231.597 317.128C232.28 317.064 232.979 316.973 233.693 316.856L233.885 318.584C233.149 318.701 232.429 318.792 231.725 318.856C231.021 318.92 230.301 318.963 229.565 318.984C228.84 319.005 228.061 319.016 227.229 319.016H226.013V317.272ZM225.997 308.84H232.669V314.424H228.125V317.784H226.013V312.744H230.573V310.536H225.997V308.84ZM249.532 307.576H251.676V322.392H249.532V307.576ZM251.132 313.256H253.74V315H251.132V313.256ZM245.644 309.112H247.74C247.74 310.595 247.527 311.997 247.1 313.32C246.684 314.643 245.991 315.859 245.02 316.968C244.06 318.067 242.759 319.027 241.116 319.848L239.916 318.232C241.217 317.56 242.289 316.803 243.132 315.96C243.985 315.117 244.615 314.163 245.02 313.096C245.436 312.019 245.644 310.819 245.644 309.496V309.112ZM240.732 309.112H246.748V310.824H240.732V309.112ZM264.843 307.592H266.971V322.408H264.843V307.592ZM260.475 309.128H262.571C262.571 310.259 262.459 311.341 262.235 312.376C262.021 313.4 261.659 314.365 261.147 315.272C260.645 316.179 259.952 317.021 259.067 317.8C258.192 318.568 257.099 319.272 255.787 319.912L254.667 318.232C256.096 317.539 257.232 316.776 258.075 315.944C258.928 315.101 259.541 314.152 259.915 313.096C260.288 312.029 260.475 310.835 260.475 309.512V309.128ZM255.467 309.128H261.467V310.824H255.467V309.128Z" fill="white"/>
</g>
<defs>
<clipPath id="clip0_1_9410">
<rect width="18" height="18.0345" fill="white" transform="translate(174.5 190.983)"/>
</clipPath>
<clipPath id="clip1_1_9410">
<rect width="18" height="18.0345" fill="white" transform="translate(197.5 190.983)"/>
</clipPath>
<clipPath id="clip2_1_9410">
<rect width="13" height="13" fill="white" transform="translate(221.5 193.5)"/>
</clipPath>
<clipPath id="clip3_1_9410">
<rect x="20" y="287" width="141" height="56" rx="16" fill="white"/>
</clipPath>
<clipPath id="clip4_1_9410">
<rect x="169" y="287" width="141" height="56" rx="16" fill="white"/>
</clipPath>
</defs>
</svg>
