<svg width="18" height="17" viewBox="0 0 18 17" fill="none" xmlns="http://www.w3.org/2000/svg">
<path d="M12.9512 1C15.1232 1 16.8845 2.761 16.8848 4.93359C16.8848 5.23487 16.8465 5.5319 16.7773 5.8252L16.7695 5.86035L16.7637 5.89648C16.4657 7.75031 15.2544 9.76127 13.6318 11.4951C12.1332 13.0965 10.3892 14.3471 8.94238 14.959C7.49539 14.3471 5.75155 13.0965 4.25293 11.4951C2.63025 9.76118 1.41853 7.74978 1.12012 5.89551L1.11523 5.86133L1.10645 5.82715C1.03775 5.53217 1 5.23428 1 4.93359C1.00022 2.76077 2.76113 1.00022 4.93359 1C6.24896 1 7.41274 1.64808 8.12988 2.64746L8.94238 3.78027L9.75488 2.64746C10.4719 1.64816 11.6354 1.00011 12.9512 1Z" fill="white" stroke="#EF9F27" stroke-width="2"/>
</svg>
