<svg width="47" height="35" viewBox="0 0 47 35" fill="none" xmlns="http://www.w3.org/2000/svg">
<path d="M16.514 5.19925C16.5743 4.81358 16.5735 4.14055 16.7712 3.79253C17.3896 2.70423 18.9778 1.50772 20.1084 1.11478C23.5699 -0.121377 27.0658 -0.39982 30.6163 0.636297C31.8768 1.00415 32.4665 1.09836 33.5738 1.87513C34.5249 2.54237 35.1456 2.99877 35.5538 4.16674C35.7165 4.73283 35.721 8.10281 35.6807 8.8164C35.6744 9.03463 35.6745 9.2735 35.6398 9.48729C35.6124 10.6741 35.7438 12.1052 35.6755 13.2532C35.683 13.4385 35.7543 14.2743 35.7456 14.3477L35.7762 14.4092C36.1622 14.288 37.6603 14.3079 38.1142 14.3265C39.7146 14.3056 42.0992 15.0173 43.5768 15.6569C44.0559 15.8643 44.7839 16.4098 45.2305 16.7143C46.0472 17.2254 46.8659 18.6194 46.9473 19.6075C47.0534 20.2529 46.9749 21.6516 46.9237 22.3274C46.8984 22.6549 46.796 23.1049 46.7728 23.4213L46.8 23.7044C46.9729 24.2443 46.9969 26.2367 46.87 26.8058L46.8671 26.9969C46.9456 27.628 46.8679 28.339 46.9176 28.9691C47.0371 30.4834 46.4543 31.3525 45.2452 32.2029C45.1349 32.3466 44.4984 32.6311 44.3101 32.7405C42.3278 33.8923 40.171 34.2737 37.9088 34.2833C35.5498 34.2933 33.1273 34.0223 30.9882 32.9489C28.8071 31.8755 27.7355 30.6456 27.9548 28.1066C27.1373 27.9048 25.9439 27.9572 25.0762 27.8746C24.3653 27.8069 23.6728 27.7281 22.964 27.6332C22.82 27.614 22.7478 27.6148 22.6519 27.697C22.6978 28.4276 22.6066 30.2281 22.5857 30.9684C22.3109 32.2729 19.6276 33.7488 18.5895 34.0748C16.0937 34.8585 13.5741 35.2256 10.9868 34.8545C8.34332 34.4754 4.40249 33.4422 3.41999 30.5597C3.13984 29.7378 3.32319 27.5218 3.48303 26.6073C3.53049 26.3108 3.75801 25.9521 3.80364 25.5736L3.80576 25.5547C3.24319 25.0304 2.43895 24.8043 1.7241 24.0383C0.743636 22.9876 0.0222078 21.0526 0.0380737 19.6499C-0.0497321 19.1536 0.0281336 17.9085 0.131895 17.3917C0.169394 17.2048 0.363723 16.7312 0.429733 16.5308C0.821725 15.3407 1.45051 14.4162 2.37904 13.5884C2.61066 13.3819 2.88886 13.0256 3.15127 12.8223C3.43381 12.6034 3.76118 12.4243 4.04759 12.2116C4.31256 12.0148 4.71615 11.5963 5.00134 11.4408C5.86398 10.9706 6.75782 10.5266 7.64365 10.1106C8.87677 9.70585 9.19189 9.67826 10.4607 9.52514C12.2817 9.36742 14.2566 9.51792 15.8947 10.3235C16.1054 10.4271 16.4208 10.5001 16.598 10.6129C16.6527 10.36 16.6152 9.73536 16.607 9.45605C16.5851 8.64308 16.5572 7.83032 16.5233 7.01776C16.5052 6.57072 16.4442 5.59428 16.514 5.19925Z" fill="#CD8B07"/>
<path d="M10.4607 9.52514C12.2817 9.36742 14.2566 9.51792 15.8947 10.3235C16.1054 10.4271 16.4208 10.5001 16.598 10.6129C16.7222 10.684 16.8815 10.8443 16.9948 10.9445C17.6713 11.5414 18.0408 12.175 18.3558 13.0129C18.5745 13.4332 18.7042 13.6921 18.8676 14.1514C18.9436 14.365 19.0813 14.8773 19.1696 15.0478L19.2293 15.3294C19.2378 15.389 19.2548 15.5393 19.2731 15.5876C19.4349 16.6798 19.4669 17.6813 19.2564 18.7691L19.2062 19.0301L19.1959 19.0862C19.0415 19.3638 19.0763 19.4339 18.9876 19.7199C18.9703 19.7754 18.8098 19.9467 18.7676 20.0142L18.7985 20.0345C20.005 20.8214 21.4863 21.0841 22.1935 22.6462C22.4561 23.0794 22.5064 23.4518 22.5447 23.9498C22.5423 24.4166 22.5215 25.0318 22.5416 25.4869C22.5232 25.8451 22.5071 26.2032 22.4933 26.5616C22.5043 26.9734 22.5144 27.2631 22.618 27.6618L22.6269 27.706L22.6519 27.697C22.6978 28.4276 22.6066 30.2281 22.5857 30.9684C22.3109 32.2729 19.6276 33.7488 18.5895 34.0748C16.0937 34.8585 13.5741 35.2256 10.9868 34.8545C8.34332 34.4754 4.40249 33.4422 3.41999 30.5597C3.13984 29.7378 3.32319 27.5218 3.48303 26.6073C3.53049 26.3108 3.75801 25.9521 3.80364 25.5736L3.80576 25.5547C3.24319 25.0304 2.43895 24.8043 1.7241 24.0383C0.743636 22.9876 0.0222078 21.0526 0.0380737 19.6499C-0.0497321 19.1536 0.0281336 17.9085 0.131895 17.3917C0.169394 17.2048 0.363723 16.7312 0.429733 16.5308C0.821725 15.3407 1.45051 14.4162 2.37904 13.5884C2.61066 13.3819 2.88886 13.0256 3.15127 12.8223C3.43381 12.6034 3.76118 12.4243 4.04759 12.2116C4.31256 12.0148 4.71615 11.5963 5.00134 11.4408C5.86398 10.9706 6.75782 10.5266 7.64365 10.1106C8.87677 9.70585 9.19189 9.67826 10.4607 9.52514Z" fill="#D5970F"/>
<path d="M10.4607 9.52514C12.2817 9.36742 14.2566 9.51792 15.8947 10.3235C16.1054 10.4271 16.4208 10.5001 16.598 10.6129C16.7222 10.684 16.8815 10.8443 16.9948 10.9445C17.6713 11.5414 18.0408 12.175 18.3558 13.0129C18.5745 13.4332 18.7042 13.6921 18.8676 14.1514C18.9436 14.365 19.0813 14.8773 19.1696 15.0478L19.2293 15.3294C19.2378 15.389 19.2548 15.5393 19.2731 15.5876C19.4349 16.6798 19.4669 17.6813 19.2564 18.7691C19.1821 18.756 19.1149 18.7363 19.0462 18.7777C18.5323 19.0969 18.0087 19.1967 17.4035 19.1126C17.0486 19.0632 16.7067 19.0131 16.3548 18.9301C16.2951 18.916 15.8531 19.4035 15.6269 19.4791C14.843 20.1834 14.1424 20.661 13.1838 21.0773C12.9633 21.1731 12.6967 21.3436 12.4572 21.3337C12.5213 21.1435 12.8618 21.0667 13.0452 20.9994C12.8712 20.9533 12.781 21.0032 12.6087 21.065C11.4688 22.0463 9.97274 22.3638 8.53964 22.6783C7.87153 22.8508 7.26007 22.8349 6.5881 22.8686C4.71863 22.9623 2.75285 22.78 1.37653 21.3508C0.891395 20.8471 0.632928 20.2322 0.128397 19.8269C0.0868306 19.7935 0.0612891 19.7056 0.0380737 19.6499C-0.0497321 19.1536 0.0281336 17.9085 0.131895 17.3917C0.169394 17.2048 0.363723 16.7312 0.429733 16.5308C0.821725 15.3407 1.45051 14.4162 2.37904 13.5884C2.61066 13.3819 2.88886 13.0256 3.15127 12.8223C3.43381 12.6034 3.76118 12.4243 4.04759 12.2116C4.31256 12.0148 4.71615 11.5963 5.00134 11.4408C5.86398 10.9706 6.75782 10.5266 7.64365 10.1106C8.87677 9.70585 9.19189 9.67826 10.4607 9.52514Z" fill="#F9D76F"/>
<path d="M18.3558 13.0129C18.5745 13.4332 18.7042 13.6921 18.8676 14.1514C18.9436 14.365 19.0813 14.8773 19.1696 15.0478L19.2293 15.3294C19.2378 15.389 19.2548 15.5393 19.2731 15.5876C19.4349 16.6798 19.4669 17.6813 19.2564 18.7691C19.1821 18.756 19.1149 18.7363 19.0462 18.7777C18.5323 19.0969 18.0087 19.1967 17.4035 19.1126C17.0486 19.0632 16.7067 19.0131 16.3548 18.9301C16.2951 18.916 15.8531 19.4035 15.6269 19.4791C15.8014 19.3144 15.9732 19.1465 16.1419 18.9758C18.0367 17.0442 18.3683 15.6279 18.3558 13.0129Z" fill="#FBC53F"/>
<path d="M8.53964 22.6783L8.44847 22.638C8.53705 22.565 9.91175 22.3515 10.2144 22.1569L10.1031 22.0066L10.1171 21.9393C10.2064 21.8802 10.2201 21.8598 10.3201 21.8669C10.406 21.9341 10.4237 21.9669 10.4868 22.0546C10.8444 22.0373 11.4521 21.6922 11.7619 21.5L11.7613 21.4011C11.8804 21.2287 12.2824 21.2137 12.4449 21.0756C13.1449 20.4807 13.9559 19.9582 14.6658 19.3833C15.0762 19.051 15.3337 18.6419 15.8042 18.2741C15.788 18.3542 15.5947 18.5221 15.5396 18.5952C14.7927 19.5868 13.43 20.191 12.6314 21.0404L12.6087 21.065C11.4688 22.0463 9.97274 22.3638 8.53964 22.6783Z" fill="#FCEDA3"/>
<path d="M1.89848 15.7443C4.20647 11.5262 10.4359 8.89929 14.9191 10.8536C15.7635 11.2216 16.4929 11.8081 16.8241 12.6939C17.443 13.9693 17.0198 15.6041 16.4145 16.7976C16.3312 16.9619 15.8576 17.5727 15.8454 17.6526C15.7927 18.0533 14.4531 19.2458 14.1084 19.5112C13.4285 20.0284 12.7216 20.5086 11.9908 20.9497L12.0701 21.0484C11.8918 21.1656 11.167 21.7107 11.0935 21.7399C10.7136 21.6345 10.4792 21.8077 10.1056 21.8641C9.90593 21.8944 9.63445 21.8068 9.44638 21.8724C9.30041 21.9562 9.18645 22.1456 8.99135 22.1862C8.91151 22.1389 8.91611 22.1409 8.86865 22.0593C8.58451 22.1351 8.24633 22.2545 7.97391 22.3093L7.95297 22.2607C6.75157 22.4539 5.52182 22.3371 4.38546 21.8869C3.71605 21.6217 3.54909 21.2703 2.81676 21.4662C2.58501 21.3979 2.18761 21.1201 2.02236 20.9467C0.951643 19.8231 1.0118 18.0429 1.48948 16.6623C1.56985 16.43 1.73335 15.9148 1.89848 15.7443Z" fill="#FBC53F"/>
<path d="M1.89848 15.7443C4.20647 11.5262 10.4359 8.89929 14.9191 10.8536C15.7635 11.2216 16.4929 11.8081 16.8241 12.6939C16.664 12.6008 15.9712 11.1971 15.3874 11.2337L15.3354 11.2945C15.4156 11.4999 16.556 12.215 16.5498 12.7216L16.5255 12.7562C16.2732 12.1123 15.4368 11.4029 14.8209 11.1548C14.2317 10.9174 12.7535 10.5461 12.1351 10.5038C10.913 10.4201 8.88678 10.7687 7.71848 11.2149C6.98286 11.4959 5.55085 12.3212 4.90633 12.7843C4.60634 12.9998 3.82906 13.8129 3.50593 14.1058C3.22473 14.3607 2.68509 15.0965 2.4747 15.445C2.42329 15.5301 2.41499 15.583 2.36172 15.5661C2.44908 15.378 2.82496 14.8697 2.75265 14.6567C2.48471 14.8428 2.05555 15.6978 1.89848 15.7443Z" fill="#D28E0C"/>
<path d="M15.8454 17.6526C15.7927 18.0533 14.4531 19.2458 14.1084 19.5112C13.4285 20.0284 12.7216 20.5086 11.9908 20.9497L12.0701 21.0484C11.8918 21.1656 11.167 21.7107 11.0935 21.7399C10.7136 21.6345 10.4792 21.8077 10.1056 21.8641C9.90593 21.8944 9.63445 21.8068 9.44638 21.8724C9.30041 21.9562 9.18645 22.1456 8.99135 22.1862C8.91151 22.1389 8.91611 22.1409 8.86865 22.0593C8.58451 22.1351 8.24633 22.2545 7.97391 22.3093L7.95297 22.2607C8.59192 22.0912 9.22983 21.842 9.86101 21.6571C12.3078 20.9403 14.1931 19.6348 15.8454 17.6526Z" fill="#FCEDA3"/>
<path d="M8.60345 12.4046C9.73615 12.2148 10.0558 13.3879 9.58933 14.225C9.37995 14.6006 9.01813 14.9997 8.76935 15.3775C8.89693 15.6253 8.9359 15.6829 9.1116 15.896C9.73826 15.3122 9.82831 14.6351 10.4621 13.9384C11.2284 13.0959 13.3574 12.7297 13.4798 14.3074C13.5611 15.3555 11.6808 15.9866 10.9742 16.3832C10.6285 16.5772 10.4328 16.7163 10.0909 17.0286C10.5074 17.401 10.7023 18.3034 10.4872 18.8201C10.3198 19.2223 9.98811 19.3604 9.61535 19.5124L9.28075 19.6112C8.87188 19.1032 8.145 17.4889 7.87835 17.3056C7.09095 16.7643 6.03085 18.9559 4.58892 17.6478C4.56757 17.5698 4.5354 17.4791 4.52112 17.4015C4.32033 16.3083 5.60461 15.7451 6.44399 15.5433C7.08571 15.7722 7.39351 16.2216 7.82621 16.7178C8.05804 16.5559 8.23358 16.4501 8.41038 16.2266C8.24908 16.0098 7.86815 15.5153 7.68976 15.3427C6.25519 13.9554 6.40413 12.6672 8.60345 12.4046Z" fill="#C78C03"/>
<path d="M14.7831 24.0644C15.0098 23.8685 15.4655 23.6534 15.7357 23.449C16.6072 22.7898 17.2951 21.9162 17.9184 21.0232C18.1004 20.7625 18.4354 20.0366 18.6228 19.8679L18.7018 19.8828L18.7676 20.0142L18.7985 20.0345C20.005 20.8214 21.4863 21.0841 22.1935 22.6462C22.2157 22.927 22.3031 23.832 22.2304 24.0553L22.184 23.6048C21.9648 23.682 21.6667 23.8293 21.4485 23.9304C21.4076 24.0501 21.4128 24.2332 21.4098 24.3649C21.4274 24.5884 21.0543 25.0894 20.9064 25.2584C19.8006 26.5215 18.715 26.8431 17.1543 27.2151C16.3951 27.396 15.8534 27.5845 15.0388 27.6335C14.3867 27.6727 13.7799 27.6878 13.1233 27.6898C12.9905 27.6902 12.3589 27.6822 12.2593 27.6981C11.7411 27.6105 11.0267 27.6478 10.3504 27.5375C10.1538 27.4593 9.66749 27.4359 9.34912 27.3273L9.32919 27.2611C9.02135 27.1614 9.04306 27.1978 8.78577 27.1413C9.0285 26.645 11.3837 26.5898 11.9211 26.5631C11.7009 26.5563 11.5644 26.5494 11.3426 26.5166C11.4812 26.3345 11.8497 26.501 12.1264 26.262C12.2616 26.1452 12.6645 25.9983 12.8139 25.8365C13.0173 25.6161 13.1831 25.3167 13.427 25.1344C13.7803 24.9675 13.9533 24.9355 14.3114 24.708L14.3111 24.6535C14.4091 24.5506 14.7345 24.4436 14.8967 24.2756C14.8502 24.2676 14.5252 24.4178 14.4 24.4539L14.38 24.4185C14.5431 24.2012 14.657 24.2896 14.7831 24.0644Z" fill="#F8C245"/>
<path d="M14.7831 24.0644C15.0098 23.8685 15.4655 23.6534 15.7357 23.449C16.6072 22.7898 17.2951 21.9162 17.9184 21.0232C18.1004 20.7625 18.4354 20.0366 18.6228 19.8679L18.7018 19.8828L18.7676 20.0142L18.7985 20.0345C20.005 20.8214 21.4863 21.0841 22.1935 22.6462C22.2157 22.927 22.3031 23.832 22.2304 24.0553L22.184 23.6048C21.9648 23.682 21.6667 23.8293 21.4485 23.9304C21.4076 24.0501 21.4128 24.2332 21.4098 24.3649C21.2635 24.107 21.4146 23.3148 21.1461 22.8745C20.6485 22.0861 19.7986 21.3027 18.9255 20.9758C18.1935 20.7017 18.0713 21.6895 17.6806 22.0646C16.8151 22.8953 15.9471 23.6857 14.8967 24.2756C14.8502 24.2676 14.5252 24.4178 14.4 24.4539L14.38 24.4185C14.5431 24.2012 14.657 24.2896 14.7831 24.0644Z" fill="#FDDE7C"/>
<path d="M21.4098 24.3649C21.4128 24.2332 21.4076 24.0501 21.4485 23.9304C21.6667 23.8293 21.9648 23.682 22.184 23.6048L22.2304 24.0553C22.0091 25.0944 21.4029 25.6696 20.5523 26.2674C20.248 26.4812 19.7488 26.7184 19.4881 26.906C17.9971 27.556 16.0559 28.1064 14.4256 28.1549C13.407 28.3925 10.8842 28.0634 9.83649 27.8076C9.92833 27.7789 10.4807 27.8484 10.5897 27.8788L10.6249 27.8887C10.5615 27.7274 10.6558 27.8199 10.6108 27.6764C10.414 27.6257 10.2543 27.5959 10.0557 27.5609C10.1908 27.5298 10.217 27.5313 10.3504 27.5375C11.0267 27.6478 11.7411 27.6105 12.2593 27.6981C12.3589 27.6822 12.9905 27.6902 13.1233 27.6898C13.7799 27.6878 14.3867 27.6727 15.0388 27.6335C15.8534 27.5845 16.3951 27.396 17.1543 27.2151C18.715 26.8431 19.8006 26.5215 20.9064 25.2584C21.0543 25.0894 21.4274 24.5884 21.4098 24.3649Z" fill="#FFEC9A"/>
<path d="M9.83649 27.8076C9.92833 27.7789 10.4807 27.8484 10.5897 27.8788L10.6249 27.8887C10.5615 27.7274 10.6558 27.8199 10.6108 27.6764C10.414 27.6257 10.2543 27.5959 10.0557 27.5609C10.1908 27.5298 10.217 27.5313 10.3504 27.5375C11.0267 27.6478 11.7411 27.6105 12.2593 27.6981C11.94 27.8441 11.3174 27.65 10.9884 27.7214C11.0691 27.9694 11.4104 27.9546 11.6404 27.9937C12.1928 28.0876 12.7533 28.1349 13.3132 28.1391C13.5797 28.1442 14.204 28.116 14.4256 28.1549C13.407 28.3925 10.8842 28.0634 9.83649 27.8076Z" fill="#FDDE7C"/>
<path d="M13.5098 24.7202C13.7105 24.6549 14.4881 24.2019 14.7831 24.0644C14.657 24.2896 14.5431 24.2012 14.38 24.4185L14.4 24.4539C14.5252 24.4178 14.8502 24.2676 14.8967 24.2756C14.7345 24.4436 14.4091 24.5506 14.3111 24.6535L14.3114 24.708C13.9533 24.9355 13.7803 24.9675 13.427 25.1344C13.1831 25.3167 13.0173 25.6161 12.8139 25.8365C12.6645 25.9983 12.2616 26.1452 12.1264 26.262C11.8497 26.501 11.4812 26.3345 11.3426 26.5166C11.5644 26.5494 11.7009 26.5563 11.9211 26.5631C11.3837 26.5898 9.0285 26.645 8.78577 27.1413C9.04306 27.1978 9.02135 27.1614 9.32919 27.2611L9.34912 27.3273C8.96449 27.2184 8.13041 27.0679 7.70669 26.974C7.55043 26.9014 7.39608 26.8246 7.24385 26.7437C7.27671 26.7396 7.29066 26.7387 7.3221 26.7248C7.69803 26.5585 8.15944 26.5417 8.56002 26.4413C9.0072 26.3282 9.45256 26.2067 9.89494 26.0756C10.413 25.9444 10.9728 25.6589 11.4898 25.5487C11.9753 25.4451 12.3224 25.1997 12.7648 25.0748C12.8719 25.0434 13.3794 24.7843 13.5098 24.7202Z" fill="#C78C03"/>
<path d="M13.5098 24.7202C13.7105 24.6549 14.4881 24.2019 14.7831 24.0644C14.657 24.2896 14.5431 24.2012 14.38 24.4185L14.4 24.4539C14.5252 24.4178 14.8502 24.2676 14.8967 24.2756C14.7345 24.4436 14.4091 24.5506 14.3111 24.6535C14.0464 24.7871 13.1691 25.2373 12.9219 25.3046L12.9277 25.2807L12.9934 25.2483L12.9754 25.1822C12.9156 25.1482 12.828 25.0929 12.7648 25.0748C12.8719 25.0434 13.3794 24.7843 13.5098 24.7202Z" fill="#EFB941"/>
<path d="M22.618 27.6618L22.6269 27.706C22.623 27.852 22.1008 28.6752 21.9766 28.8234C20.5611 30.5119 17.7768 31.3233 15.7151 31.6503C15.5597 31.626 15.2162 31.646 15.1382 31.5669C15.3277 31.3621 15.3557 31.4558 15.5541 31.3074C15.6902 31.2506 16.6687 31.1385 16.9314 31.0911C18.2993 30.8443 19.6267 30.2166 20.7969 29.4704C20.9206 29.3915 21.2712 29.0571 21.3988 28.9223C21.7424 28.5595 22.1009 28.0541 22.4623 27.6989C22.526 27.6837 22.5779 27.6714 22.618 27.6618Z" fill="#FCEDA3"/>
<path d="M5.45581 25.9181C7.56459 26.5311 9.69525 25.9032 11.7383 25.2873C12.2137 25.144 12.7245 24.7666 13.2048 24.6402L13.2408 24.6311L13.2212 24.6204L13.2639 24.7044L13.2027 24.7657L13.2485 24.7876L13.4576 24.6927L13.5098 24.7202C13.3794 24.7843 12.8719 25.0434 12.7648 25.0748C12.3224 25.1997 11.9753 25.4451 11.4898 25.5487C10.9728 25.6589 10.413 25.9444 9.89494 26.0756C9.45256 26.2067 9.0072 26.3282 8.56002 26.4413C8.15944 26.5417 7.69803 26.5585 7.3221 26.7248C7.29066 26.7387 7.27671 26.7396 7.24385 26.7437C7.08291 26.6591 6.1574 26.3416 5.90894 26.2416C5.74405 26.158 5.57807 26.1353 5.43739 26.0154L5.45581 25.9181Z" fill="#A86403"/>
<path d="M22.1935 22.6462C22.4561 23.0794 22.5064 23.4518 22.5447 23.9498C22.5423 24.4166 22.5215 25.0318 22.5416 25.4869C22.5232 25.8451 22.5071 26.2032 22.4933 26.5616L22.4854 26.5285C22.3943 26.1286 22.5365 25.6123 22.4747 25.3897C22.3421 25.389 22.0715 25.599 21.9686 25.7014C21.6277 26.0404 21.3071 26.5527 20.7813 26.6053C20.671 26.6163 20.3548 26.5288 20.2838 26.5538C20 26.6536 19.8148 26.8994 19.4881 26.906C19.7488 26.7184 20.248 26.4812 20.5523 26.2674C21.4029 25.6696 22.0091 25.0944 22.2304 24.0553C22.3031 23.832 22.2157 22.927 22.1935 22.6462Z" fill="#FBC53F"/>
<path d="M3.74725 27.2624C4.37876 27.9738 4.86096 28.8204 5.71429 29.3283C7.95298 30.6605 10.5397 31.2868 13.1328 31.2381C13.4061 31.2331 14.5996 31.1662 14.7732 31.2225C14.4241 31.3203 12.7082 31.2338 12.2354 31.2747C12.0665 31.2892 11.9573 31.1859 11.7523 31.2385C12.1479 31.6171 14.94 31.305 15.0496 31.3723C13.196 31.6811 11.4956 31.3631 9.67656 31.0909C9.39523 30.9763 8.94776 30.9819 8.65265 30.8741C6.70505 30.1627 4.68046 29.2638 3.74725 27.2624Z" fill="#924E00"/>
<path d="M9.67656 31.0909C11.4956 31.3631 13.196 31.6811 15.0496 31.3723C15.2172 31.3462 15.3854 31.3245 15.5541 31.3074C15.3557 31.4558 15.3277 31.3621 15.1382 31.5669C15.2162 31.646 15.5597 31.626 15.7151 31.6503C14.1302 32.0553 11.8137 31.8563 10.224 31.5524C10.1102 31.5306 10.0097 31.5093 9.89215 31.496L9.8577 31.4923L9.8784 31.4699C10.1919 31.4313 11.2568 31.7352 11.6681 31.7304C12.2124 31.724 12.0945 31.9456 12.5511 31.5397C11.8268 31.4774 11.1085 31.3815 10.393 31.2557C10.1389 31.2111 9.82984 31.1999 9.59114 31.1235L9.67656 31.0909Z" fill="#FBC53F"/>
<path d="M7.70669 26.974C8.13041 27.0679 8.96449 27.2184 9.34912 27.3273C9.66749 27.4359 10.1538 27.4593 10.3504 27.5375C10.217 27.5313 10.1908 27.5298 10.0557 27.5609C10.2543 27.5959 10.414 27.6257 10.6108 27.6764C10.6558 27.8199 10.5615 27.7274 10.6249 27.8887L10.5897 27.8788C10.4807 27.8484 9.92833 27.7789 9.83649 27.8076C9.17574 27.7658 7.85617 27.2655 7.2097 27.0422C7.34847 26.9702 7.54612 26.9797 7.70669 26.974Z" fill="#EFB941"/>
<path d="M3.992 25.6538C4.24014 25.6937 5.29374 25.843 5.45581 25.9181L5.43739 26.0154C5.57807 26.1353 5.74405 26.158 5.90894 26.2416C5.79363 26.2319 5.67841 26.2207 5.56339 26.2079L5.5389 26.2369C5.56115 26.3425 5.56083 26.2996 5.53016 26.4025C5.31521 26.5218 4.96552 26.387 4.70412 26.3248C4.54583 26.1468 4.17929 25.8271 3.992 25.6538Z" fill="#C78C03"/>
<path d="M5.5389 26.2369L5.56339 26.2079C5.67841 26.2207 5.79363 26.2319 5.90894 26.2416C6.1574 26.3416 7.08291 26.6591 7.24385 26.7437C7.39608 26.8246 7.55043 26.9014 7.70669 26.974C7.54612 26.9797 7.34847 26.9702 7.2097 27.0422C6.73217 26.9596 5.99141 26.6658 5.6464 26.3411C5.61 26.307 5.57417 26.2722 5.5389 26.2369Z" fill="#C78C03"/>
<path d="M16.514 5.19925C16.5743 4.81358 16.5735 4.14055 16.7712 3.79253C17.3896 2.70423 18.9778 1.50772 20.1084 1.11478C23.5699 -0.121377 27.0658 -0.39982 30.6163 0.636297C31.8768 1.00415 32.4665 1.09836 33.5738 1.87513C34.5249 2.54237 35.1456 2.99877 35.5538 4.16674C35.7165 4.73283 35.721 8.10281 35.6807 8.8164C35.6744 9.03463 35.6745 9.2735 35.6398 9.48729C35.6124 10.6741 35.7438 12.1052 35.6755 13.2532C35.683 13.4385 35.7543 14.2743 35.7456 14.3477L35.7762 14.4092L35.7625 14.4927C35.6954 14.5258 35.6915 14.5434 35.6346 14.5308L35.647 14.4517C35.4554 14.3437 35.0041 14.4665 34.7938 14.5296C34.1731 14.7159 33.4643 14.9114 32.8189 15.0007C32.1133 15.1482 30.9772 15.5111 30.3699 15.866C30.1696 15.9998 29.9718 16.1371 29.7763 16.2779L29.5245 16.4453C29.2621 16.7152 28.9693 17.0119 28.7373 17.3063L28.5155 17.6696C28.1322 18.2495 27.9167 18.6339 28.0007 19.369C27.9807 19.4841 27.855 20.2095 27.8532 20.2922C27.8025 20.5694 27.7497 20.5956 27.4847 20.6741C26.9611 20.6712 26.4642 20.7306 25.9156 20.7038C23.6337 20.5922 21.6224 20.0965 19.4818 19.3082C19.2823 19.2347 19.2634 19.2384 19.1959 19.0862L19.2062 19.0301L19.2564 18.7691C19.4669 17.6813 19.4349 16.6798 19.2731 15.5876C19.2548 15.5393 19.2378 15.389 19.2293 15.3294L19.1696 15.0478C19.0813 14.8773 18.9436 14.365 18.8676 14.1514C18.7042 13.6921 18.5745 13.4332 18.3558 13.0129C18.0408 12.175 17.6713 11.5414 16.9948 10.9445C16.8815 10.8443 16.7222 10.684 16.598 10.6129C16.6527 10.36 16.6152 9.73536 16.607 9.45605C16.5851 8.64308 16.5572 7.83032 16.5233 7.01776C16.5052 6.57072 16.4442 5.59428 16.514 5.19925Z" fill="#CD8D05"/>
<path d="M16.514 5.19925C16.5743 4.81358 16.5735 4.14055 16.7712 3.79253C17.3896 2.70423 18.9778 1.50772 20.1084 1.11478C23.5699 -0.121377 27.0658 -0.39982 30.6163 0.636297C31.8768 1.00415 32.4665 1.09836 33.5738 1.87513C34.5249 2.54237 35.1456 2.99877 35.5538 4.16674C35.4462 4.47918 35.7357 4.75866 35.4692 4.9392L35.4095 4.93948L35.3619 4.76728C35.2415 4.83809 35.0727 5.22692 35.0865 5.35902C35.1915 5.45352 35.2207 5.47171 35.2511 5.61608C35.2027 6.13386 34.6884 6.79083 34.291 7.12158C33.9188 7.4256 33.5157 7.68898 33.0886 7.90729C32.9766 7.96472 32.5425 8.16505 32.4716 8.21209C32.0774 8.41242 31.4246 8.60014 30.9882 8.73803C27.6523 9.76738 24.0841 9.74156 20.7631 8.6641C20.7307 8.65302 20.6987 8.64115 20.6668 8.62847C20.4304 8.58865 20.1534 8.45831 19.9348 8.38101C18.5605 7.89497 17.4304 7.05885 16.7227 5.75467C16.5853 5.50159 16.5134 5.51744 16.514 5.19925Z" fill="#FBC53F"/>
<path d="M16.514 5.19925C16.5743 4.81358 16.5735 4.14055 16.7712 3.79253C17.3896 2.70423 18.9778 1.50772 20.1084 1.11478C23.5699 -0.121377 27.0658 -0.39982 30.6163 0.636297C31.8768 1.00415 32.4665 1.09836 33.5738 1.87513C34.5249 2.54237 35.1456 2.99877 35.5538 4.16674C35.4462 4.47918 35.7357 4.75866 35.4692 4.9392L35.4095 4.93948L35.3619 4.76728C35.2415 4.83809 35.0727 5.22692 35.0865 5.35902C34.6587 6.38886 33.8077 7.09182 32.7495 7.41669C32.927 6.84272 34.096 5.9472 34.2478 5.08887C34.3958 4.6456 34.1407 3.84097 33.8971 3.45813C33.195 2.35439 31.1436 1.45173 29.9282 1.19159C27.5167 0.675419 24.9624 0.752922 22.5475 1.1546C21.7045 1.30477 20.1284 1.97361 19.3852 2.45054C18.5309 2.99877 18.1828 3.54967 17.9679 4.52052C17.6366 5.7965 19.0998 7.16476 20.0975 7.63722C20.2606 7.71443 20.4423 7.85191 20.6114 7.90844C20.4461 7.90117 20.4221 7.90593 20.2628 7.95249L20.2077 8.01722C20.2461 8.36184 20.621 8.45622 20.6668 8.62847C20.4304 8.58865 20.1534 8.45831 19.9348 8.38101C18.5605 7.89497 17.4304 7.05885 16.7227 5.75467C16.5853 5.50159 16.5134 5.51744 16.514 5.19925Z" fill="#F9CC4F"/>
<path d="M35.0865 5.35902C35.1915 5.45352 35.2207 5.47171 35.2511 5.61608C35.2027 6.13386 34.6884 6.79083 34.291 7.12158C33.9188 7.4256 33.5157 7.68898 33.0886 7.90729C32.9766 7.96472 32.5425 8.16505 32.4716 8.21209C32.0774 8.41242 31.4246 8.60014 30.9882 8.73803C27.6523 9.76738 24.0841 9.74156 20.7631 8.6641C20.7307 8.65302 20.6987 8.64115 20.6668 8.62847C20.621 8.45622 20.2461 8.36184 20.2077 8.01722L20.2628 7.95249C20.4221 7.90593 20.4461 7.90117 20.6114 7.90844C20.8298 8.04054 22.0892 8.39734 22.4335 8.49172C25.3664 9.29549 30.0934 8.88762 32.7495 7.41669C33.8077 7.09182 34.6587 6.38886 35.0865 5.35902Z" fill="#FEEDA5"/>
<path d="M17.9679 4.52052C18.1828 3.54967 18.5309 2.99877 19.3852 2.45054C20.1284 1.97361 21.7045 1.30477 22.5475 1.1546C24.9624 0.752922 27.5167 0.675419 29.9282 1.19159C31.1436 1.45173 33.195 2.35439 33.8971 3.45813C34.1407 3.84097 34.3958 4.6456 34.2478 5.08887L34.2084 5.01137C34.3783 4.48863 33.947 3.71413 33.7643 3.27726C33.4907 3.89651 34.1654 4.37726 34.0201 4.75624C33.9529 4.66322 33.8899 4.37615 33.8501 4.24524C33.3827 2.70834 31.9347 2.16118 30.557 1.72267C29.7237 1.44964 28.7336 1.15391 27.8705 1.11134C24.6985 0.954899 20.4825 1.09685 18.4413 3.94922C18.3175 4.12221 18.1322 4.38653 17.9679 4.52052Z" fill="#D7920A"/>
<path d="M25.3024 2.41304C26.0752 1.86083 26.6706 2.04387 27.5832 2.08205C28.2634 2.11054 28.8429 2.97187 28.2619 3.3921C27.8899 3.66111 26.4373 3.50852 25.9753 3.48422C25.6236 3.45889 25.3315 3.3334 24.9849 3.32503C25.3065 3.67642 25.6419 3.95318 26.1125 4.07593C26.2729 4.02773 26.2573 4.00236 26.3778 4.05544C26.4086 4.2352 26.3753 4.21653 26.4868 4.30622C27.4641 4.51213 28.5971 3.13426 29.6773 3.76928C30.5546 4.28504 30.138 4.63118 29.5322 5.07079C28.6987 5.151 28.0013 5.151 27.1787 4.98434C27.003 4.94871 26.5493 4.87083 26.4024 4.95872C26.4579 5.08335 26.5843 5.18992 26.6794 5.28996C27.2173 5.85572 27.2787 6.05794 27.2353 6.78302C26.8157 6.97267 25.2174 7.27702 25.1814 6.65847C25.0925 5.13192 25.8525 4.62001 23.7957 5.3932C22.6851 5.81069 20.9531 4.84887 22.8515 4.15109C23.3384 3.97215 23.5015 4.16973 23.8371 4.47506C24.1272 4.72165 24.8607 4.57736 25.2267 4.50404L25.2639 4.44308C25.1758 4.15622 24.1413 3.91185 23.8368 3.87753C22.3787 3.713 23.1798 2.51107 24.2298 2.50828C24.7121 2.55742 24.9805 2.85561 25.2627 2.76772C25.3323 2.65885 25.3088 2.54904 25.3024 2.41304Z" fill="#C78C03"/>
<path d="M25.8639 5.41758C26.2188 5.55679 26.6422 5.97793 26.6629 6.40018C26.6658 6.45904 26.5941 6.49053 26.5457 6.52702C26.2754 6.58507 25.9853 6.56598 25.7101 6.55625C25.6885 6.09119 25.7639 5.86356 25.8639 5.41758Z" fill="#FBC53F"/>
<path d="M19.2731 15.5876C19.9282 16.0871 23.0218 16.79 23.8856 16.9116C24.6881 17.0168 25.4957 17.0773 26.3047 17.0926C27.0583 17.1062 27.7506 16.9979 28.4938 16.9893C28.7034 16.9868 28.6721 17.0763 28.7373 17.3063L28.5155 17.6696C28.1322 18.2495 27.9167 18.6339 28.0007 19.369C27.9807 19.4841 27.855 20.2095 27.8532 20.2922C27.8025 20.5694 27.7497 20.5956 27.4847 20.6741C26.9611 20.6712 26.4642 20.7306 25.9156 20.7038C23.6337 20.5922 21.6224 20.0965 19.4818 19.3082C19.2823 19.2347 19.2634 19.2384 19.1959 19.0862L19.2062 19.0301L19.2564 18.7691C19.4669 17.6813 19.4349 16.6798 19.2731 15.5876Z" fill="#C78C03"/>
<path d="M19.2062 19.0301C19.5074 18.9905 21.6731 19.878 22.3214 19.9564C23.2385 20.0674 24.27 20.2989 25.216 20.3045C26.0786 20.3096 27.0078 20.2178 27.8532 20.2922C27.8025 20.5694 27.7497 20.5956 27.4847 20.6741C26.9611 20.6712 26.4642 20.7306 25.9156 20.7038C23.6337 20.5922 21.6224 20.0965 19.4818 19.3082C19.2823 19.2347 19.2634 19.2384 19.1959 19.0862L19.2062 19.0301Z" fill="#A66400"/>
<path d="M35.5538 4.16674C35.7165 4.73283 35.721 8.10281 35.6807 8.8164C35.6631 8.81028 35.6361 8.8004 35.6165 8.79547C35.5913 8.78915 35.5872 8.78878 35.5611 8.78911C35.4186 8.79092 35.3688 8.96743 35.3138 9.08098C34.9838 9.76296 34.6567 10.3132 33.9957 10.718C33.6967 10.9011 33.0131 11.3529 32.6582 11.2579C32.607 11.2442 32.5043 11.2072 32.4732 11.1614C32.3641 11.0011 32.6551 8.52515 32.485 8.23365C32.4807 8.22634 32.476 8.21923 32.4716 8.21209C32.5425 8.16505 32.9766 7.96472 33.0886 7.90729C33.5157 7.68898 33.9188 7.4256 34.291 7.12158C34.6884 6.79083 35.2027 6.13386 35.2511 5.61608C35.2207 5.47171 35.1915 5.45352 35.0865 5.35902C35.0727 5.22692 35.2415 4.83809 35.3619 4.76728L35.4095 4.93948L35.4692 4.9392C35.7357 4.75866 35.4462 4.47918 35.5538 4.16674Z" fill="#FBC53F"/>
<path d="M35.1635 10.0255C35.3282 9.81348 35.4345 9.66266 35.6398 9.48729C35.6124 10.6741 35.7438 12.1052 35.6755 13.2532C35.683 13.4385 35.7543 14.2743 35.7456 14.3477L35.7762 14.4092L35.7625 14.4927C35.6954 14.5258 35.6915 14.5434 35.6346 14.5308L35.647 14.4517C35.4554 14.3437 35.0041 14.4665 34.7938 14.5296C34.1731 14.7159 33.4643 14.9114 32.8189 15.0007C32.9135 14.9156 32.9597 14.8842 33.0122 14.7642C32.9187 14.332 32.8481 12.4353 32.7089 12.2414C32.8979 12.1297 33.2535 11.9899 33.4751 11.8813C33.4367 11.859 33.4499 11.8666 33.4225 11.8268C33.5418 11.7803 33.658 11.7651 33.6993 11.675C33.3978 11.363 33.275 11.7112 33.051 11.6311C33.9996 11.0852 34.4351 10.8644 35.1635 10.0255Z" fill="#FBC657"/>
<path d="M35.1635 10.0255C35.2319 10.096 35.3127 10.1493 35.3064 10.2354C35.2841 10.5415 34.98 10.8492 34.7738 11.0408C34.3913 11.3934 33.9521 11.6776 33.4751 11.8813C33.4367 11.859 33.4499 11.8666 33.4225 11.8268C33.5418 11.7803 33.658 11.7651 33.6993 11.675C33.3978 11.363 33.275 11.7112 33.051 11.6311C33.9996 11.0852 34.4351 10.8644 35.1635 10.0255Z" fill="#FCEDA3"/>
<path d="M35.7456 14.3477C35.608 14.1394 34.8958 14.5066 34.5581 14.3992L34.5529 14.3491C34.6205 14.2901 34.6942 14.2267 34.7641 14.1704C35.002 13.9791 35.3909 13.302 35.6755 13.2532C35.683 13.4385 35.7543 14.2743 35.7456 14.3477Z" fill="#EFAD1C"/>
<path d="M32.7089 12.2414C32.8481 12.4353 32.9187 14.332 33.0122 14.7642C32.9597 14.8842 32.9135 14.9156 32.8189 15.0007C32.1133 15.1482 30.9772 15.5111 30.3699 15.866C30.3664 15.8613 30.3628 15.8568 30.3595 15.852C30.3539 15.844 30.349 15.8355 30.3433 15.8276C30.0692 15.4513 30.3251 13.5655 30.1183 12.8889C30.8995 12.7441 31.9611 12.5043 32.7089 12.2414Z" fill="#EFAD1C"/>
<path d="M19.2293 15.3294L19.4098 15.3612C20.3791 15.6006 21.3881 16.0077 22.3037 16.2358C24.349 16.7455 27.4636 16.7819 29.5245 16.4453C29.2621 16.7152 28.9693 17.0119 28.7373 17.3063C28.6721 17.0763 28.7034 16.9868 28.4938 16.9893C27.7506 16.9979 27.0583 17.1062 26.3047 17.0926C25.4957 17.0773 24.6881 17.0168 23.8856 16.9116C23.0218 16.79 19.9282 16.0871 19.2731 15.5876C19.2548 15.5393 19.2378 15.389 19.2293 15.3294Z" fill="#EFAD1C"/>
<path d="M19.4098 15.3612C19.4951 15.2581 19.5127 15.2267 19.6462 15.191C20.0942 15.4104 20.6373 15.5141 21.1151 15.6571C23.4873 16.367 25.9586 16.4831 28.4114 16.2775C28.8164 16.2436 29.5252 15.8621 29.7763 16.2779L29.5245 16.4453C27.4636 16.7819 24.349 16.7455 22.3037 16.2358C21.3881 16.0077 20.3791 15.6006 19.4098 15.3612Z" fill="#924E00"/>
<path d="M33.051 11.6311C33.275 11.7112 33.3978 11.363 33.6993 11.675C33.658 11.7651 33.5418 11.7803 33.4225 11.8268C33.4499 11.8666 33.4367 11.859 33.4751 11.8813C33.2535 11.9899 32.8979 12.1297 32.7089 12.2414C31.9611 12.5043 30.8995 12.7441 30.1183 12.8889C30.0701 12.9054 30.0216 12.921 29.9729 12.9356C29.8765 12.9642 29.621 13.0193 29.5328 12.9717C29.7368 12.9713 29.9376 12.8918 30.1437 12.8389L30.168 12.7849C30.0036 12.5934 29.6505 12.8643 29.3939 12.7847C29.5405 12.7974 29.6682 12.7173 29.8338 12.6902C31.0005 12.499 31.9793 12.126 33.051 11.6311Z" fill="#FDDE7C"/>
<path d="M19.1696 15.0478L19.2446 14.9608C19.3773 14.9753 19.5299 15.1072 19.6462 15.191C19.5127 15.2267 19.4951 15.2581 19.4098 15.3612L19.2293 15.3294L19.1696 15.0478Z" fill="#A56300"/>
<path d="M16.9563 9.70672C17.2193 9.83032 17.6987 10.4792 17.9964 10.6799C20.4078 12.3049 23.3525 12.6663 26.182 12.8043C27.1936 12.8537 28.3216 12.4977 29.3383 12.5875C29.3383 12.5875 29.4579 12.6772 29.4673 12.6843C29.4554 12.6898 29.4434 12.6954 29.4315 12.7009C25.6702 13.2979 21.2302 12.9985 17.9772 10.8561C17.4604 10.5158 17.1271 10.1423 16.9563 9.70672Z" fill="#924E00"/>
<path d="M35.7762 14.4092C36.1622 14.288 37.6603 14.3079 38.1142 14.3265C39.7146 14.3056 42.0992 15.0173 43.5768 15.6569C44.0559 15.8643 44.7839 16.4098 45.2305 16.7143C46.0472 17.2254 46.8659 18.6194 46.9473 19.6075C46.9464 19.9009 46.8472 20.021 46.685 20.2742C46.3441 20.9581 45.597 22.0088 44.8966 22.3636C44.7059 22.4602 44.2508 22.6256 44.117 22.761L43.9819 22.7848C43.8843 22.8925 43.4825 23.0111 43.3243 23.0776C41.782 23.7241 40.0449 23.9146 38.3778 23.9769C37.0116 24.028 34.8745 23.8991 33.557 23.5492C32.0992 23.0916 31.7237 23.0668 30.3708 22.2532C29.969 21.7372 29.415 21.3491 28.9228 20.8761C28.7718 20.7919 28.6156 20.5998 28.4943 20.467C28.3631 20.1117 28.0502 19.7084 28.0007 19.369C27.9167 18.6339 28.1322 18.2495 28.5155 17.6696L28.7373 17.3063C28.9693 17.0119 29.2621 16.7152 29.5245 16.4453L29.7763 16.2779C29.9718 16.1371 30.1696 15.9998 30.3699 15.866C30.9772 15.5111 32.1133 15.1482 32.8189 15.0007C33.4643 14.9114 34.1731 14.7159 34.7938 14.5296C35.0041 14.4665 35.4554 14.3437 35.647 14.4517L35.6346 14.5308C35.6915 14.5434 35.6954 14.5258 35.7625 14.4927L35.7762 14.4092Z" fill="#FBC53F"/>
<path d="M32.8189 15.0007C33.4643 14.9114 34.1731 14.7159 34.7938 14.5296C35.0041 14.4665 35.4554 14.3437 35.647 14.4517L35.6346 14.5308C35.2234 14.6349 33.371 15.0817 33.1524 15.3311C33.0045 15.3705 32.6652 15.4832 32.5392 15.5731C31.7856 15.8324 31.4079 16.1096 30.7957 16.594C28.1297 18.7029 29.1473 21.0215 31.8579 22.3062C35.4167 23.9929 39.0566 23.8311 42.7052 22.5502C43.2812 22.3455 43.286 22.3275 43.7957 22.0148L43.8091 22.0815C43.6769 22.1761 43.5707 22.2549 43.4467 22.3591L43.4556 22.4099C43.7594 22.4653 44.0039 22.2327 44.2182 22.2667C44.1475 22.3391 44.0657 22.3914 43.9815 22.4462L43.9819 22.4755C44.1349 22.4006 44.3553 22.2723 44.5163 22.2681L44.5871 22.3189V22.4038C44.3829 22.5212 44.1772 22.6244 43.9677 22.7311L43.9819 22.7848C43.8843 22.8925 43.4825 23.0111 43.3243 23.0776C41.782 23.7241 40.0449 23.9146 38.3778 23.9769C37.0116 24.028 34.8745 23.8991 33.557 23.5492C32.0992 23.0916 31.7237 23.0668 30.3708 22.2532C29.969 21.7372 29.415 21.3491 28.9228 20.8761C28.7718 20.7919 28.6156 20.5998 28.4943 20.467C28.3631 20.1117 28.0502 19.7084 28.0007 19.369C27.9167 18.6339 28.1322 18.2495 28.5155 17.6696L28.7373 17.3063C28.9693 17.0119 29.2621 16.7152 29.5245 16.4453L29.7763 16.2779C29.9718 16.1371 30.1696 15.9998 30.3699 15.866C30.9772 15.5111 32.1133 15.1482 32.8189 15.0007Z" fill="#FDDE7C"/>
<path d="M28.5155 17.6696L28.517 17.6916C28.5641 18.4888 28.1069 19.195 28.4575 20.0319C28.606 20.3862 28.7766 20.5735 28.9228 20.8761C28.7718 20.7919 28.6156 20.5998 28.4943 20.467C28.3631 20.1117 28.0502 19.7084 28.0007 19.369C27.9167 18.6339 28.1322 18.2495 28.5155 17.6696Z" fill="#EFB941"/>
<path d="M45.2614 18.259C45.2313 18.0213 45.0447 17.8714 45.0402 17.7757C45.0219 17.3721 45.2122 17.0332 44.9226 16.6822L44.8958 16.6505C45.0337 16.7063 45.0812 16.7249 45.2305 16.7143C46.0472 17.2254 46.8659 18.6194 46.9473 19.6075C46.9464 19.9009 46.8472 20.021 46.685 20.2742C46.3441 20.9581 45.597 22.0088 44.8966 22.3636C44.7059 22.4602 44.2508 22.6256 44.117 22.761L43.9819 22.7848L43.9677 22.7311C44.1772 22.6244 44.3829 22.5212 44.5871 22.4038V22.3189L44.5163 22.2681C44.3553 22.2723 44.1349 22.4006 43.9819 22.4755L43.9815 22.4462C44.0657 22.3914 44.1475 22.3391 44.2182 22.2667C44.0039 22.2327 43.7594 22.4653 43.4556 22.4099L43.4467 22.3591C43.5707 22.2549 43.6769 22.1761 43.8091 22.0815L43.7957 22.0148C43.9571 21.7095 45.0719 20.8358 45.3269 20.2879C45.5864 19.7305 45.5888 19.3637 45.4213 18.7617C45.3688 18.5939 45.3155 18.4263 45.2614 18.259Z" fill="#FED052"/>
<path d="M44.2182 22.2667C45.0837 21.8727 45.937 20.485 46.5052 19.8384L46.5837 19.8733C46.6662 20.0054 46.6671 20.1189 46.685 20.2742C46.3441 20.9581 45.597 22.0088 44.8966 22.3636C44.7059 22.4602 44.2508 22.6256 44.117 22.761L43.9819 22.7848L43.9677 22.7311C44.1772 22.6244 44.3829 22.5212 44.5871 22.4038V22.3189L44.5163 22.2681C44.3553 22.2723 44.1349 22.4006 43.9819 22.4755L43.9815 22.4462C44.0657 22.3914 44.1475 22.3391 44.2182 22.2667Z" fill="#FCEDA3"/>
<path d="M35.7762 14.4092C36.1622 14.288 37.6603 14.3079 38.1142 14.3265C37.7856 14.5179 36.1027 14.2582 35.7701 14.6043L35.7584 14.6876C35.8651 14.7826 35.864 14.7527 35.8938 14.872C36.0272 15.2003 36.7676 14.8993 37.0311 14.9575L37.0173 15.0008L36.9892 15.0026C36.7798 15.0173 36.5653 15.0749 36.3446 15.0994C35.3793 15.2066 34.4034 15.3554 33.4483 15.5316C33.3042 15.5582 33.0028 15.7016 32.8379 15.7393C32.6418 15.7842 32.4583 15.8251 32.2852 15.9376L32.2523 15.9109L32.2886 15.7927L32.3178 15.7819C32.4164 15.7448 32.4452 15.7358 32.5229 15.6582L32.5392 15.5731C32.6652 15.4832 33.0045 15.3705 33.1524 15.3311C33.371 15.0817 35.2234 14.6349 35.6346 14.5308C35.6915 14.5434 35.6954 14.5258 35.7625 14.4927L35.7762 14.4092Z" fill="#EFAD1C"/>
<path d="M35.7762 14.4092C36.1622 14.288 37.6603 14.3079 38.1142 14.3265C37.7856 14.5179 36.1027 14.2582 35.7701 14.6043L35.7584 14.6876C35.8651 14.7826 35.864 14.7527 35.8938 14.872C35.1987 15.0283 35.1709 14.9392 34.5001 14.9737C34.1852 14.9899 33.4948 15.2425 33.1524 15.3311C33.371 15.0817 35.2234 14.6349 35.6346 14.5308C35.6915 14.5434 35.6954 14.5258 35.7625 14.4927L35.7762 14.4092Z" fill="#EFB941"/>
<path d="M45.4213 18.7617L45.3761 18.8377C45.3643 18.5461 45.0324 17.9475 44.7587 17.7872C44.592 17.8799 45.2537 18.6485 45.1748 18.919C44.5513 17.4916 43.7883 17.0135 42.436 16.3643C40.7302 15.5455 39.2115 15.48 37.374 15.3609C37.4976 15.3029 38.5693 15.3683 38.791 15.3834C38.9943 15.3972 39.0561 15.3538 39.2453 15.3475L39.2721 15.3077C38.8052 15.3 37.6042 15.1927 37.1657 15.1084C37.9552 15.0232 39.4153 15.2949 40.2364 15.4145C41.6591 15.6218 43.4226 16.5211 44.5533 17.424C44.8075 17.6269 45.0739 17.989 45.2614 18.259C45.3155 18.4263 45.3688 18.5939 45.4213 18.7617Z" fill="#C17901"/>
<path d="M36.3625 16.9832C36.9913 16.6849 37.9166 16.6128 38.6112 16.608C39.0753 16.6048 39.288 16.7725 39.5731 17.087C39.6081 17.5785 39.6467 18.0499 39.0769 18.1543C38.7162 18.1011 37.2288 17.8493 37.0108 18.0208C37.086 18.1792 37.5977 18.4041 37.8869 18.7931C38.2094 18.6657 39.0265 18.3968 39.3641 18.3243L39.3925 18.3188C39.7057 18.262 40.537 18.2273 40.7644 18.4305C41.4041 19.0015 41.2789 19.7795 40.3857 19.8275C39.4206 19.8795 38.558 19.6313 37.5981 19.7348C37.9056 20.2041 38.0341 20.5982 38.2285 21.1209C38.1464 21.2484 37.9837 21.4453 37.8523 21.5198C37.4899 21.7256 36.4859 21.8217 36.2651 21.3617C36.0509 20.9153 36.4117 20.2177 36.5653 19.7663C35.4514 19.6494 34.5667 20.0196 33.5368 19.1317C33.511 18.9481 33.5006 18.7778 33.4882 18.5935L33.5145 18.5455C33.9304 17.7963 34.798 17.3778 35.5874 17.1535C35.8881 17.3685 36.0906 17.5138 36.3612 17.7626L36.3625 16.9832Z" fill="#C78C03"/>
<path d="M35.8549 18.2257C36.4432 18.181 36.7208 18.2301 37.1552 18.6837C37.2023 18.7329 37.184 18.7554 37.1755 18.82C37.0584 18.9153 36.6457 19.0075 36.4779 19.0527C36.0953 19.1078 35.3232 19.2004 35.0849 18.8352C35.0529 18.4687 35.5679 18.3172 35.8549 18.2257Z" fill="#EFAD1C"/>
<path d="M37.0987 20.3879C37.3228 20.3754 37.7319 20.6772 37.7205 20.9691C37.6205 21.0783 37.6062 21.0505 37.4314 21.0888C36.7692 21.1982 36.4852 20.6804 37.0987 20.3879Z" fill="#EFAD1C"/>
<path d="M28.0007 19.369C28.0502 19.7084 28.3631 20.1117 28.4943 20.467C28.6156 20.5998 28.7718 20.7919 28.9228 20.8761C29.415 21.3491 29.969 21.7372 30.3708 22.2532C31.7237 23.0668 32.0992 23.0916 33.557 23.5492C34.8745 23.8991 37.0116 24.028 38.3778 23.9769C40.0449 23.9146 41.782 23.7241 43.3243 23.0776C43.4825 23.0111 43.8843 22.8925 43.9819 22.7848L44.117 22.761C44.2508 22.6256 44.7059 22.4602 44.8966 22.3636C45.597 22.0088 46.3441 20.9581 46.685 20.2742C46.8472 20.021 46.9464 19.9009 46.9473 19.6075C47.0534 20.2529 46.9749 21.6516 46.9237 22.3274C46.8984 22.6549 46.796 23.1049 46.7728 23.4213L46.8 23.7044C46.7577 24.1263 45.8801 25.1283 45.5445 25.3873C44.9109 25.8767 44.0047 26.337 43.282 26.6885C41.784 27.1756 40.8173 27.4783 39.2323 27.6674C39.0749 27.6601 38.85 27.6746 38.7934 27.4963C38.9126 27.4296 39.0741 27.4144 39.1566 27.3454C38.9606 27.3053 37.8059 27.4779 37.4464 27.4601C36.6074 27.4187 35.806 27.2946 34.9743 27.1925C34.9496 27.1728 34.0461 27.0255 33.83 26.9336C33.7852 26.862 33.5242 26.7816 33.4242 26.7429L33.4791 26.6621L32.4121 26.3065C30.2322 25.5747 28.4211 24.443 27.952 22.2143C27.9493 22.2093 27.9466 22.2044 27.9439 22.1995C27.8591 21.9245 27.8625 21.2759 27.8667 20.9836C27.6771 21.0166 27.4177 21.0073 27.2204 21.0072C27.3041 20.9941 27.3876 20.9802 27.471 20.9655C27.6143 20.9399 27.8494 20.9116 27.9315 20.793L27.9116 20.7175C27.7397 20.5905 27.7452 20.638 27.4847 20.6741C27.7497 20.5956 27.8025 20.5694 27.8532 20.2922C27.855 20.2095 27.9807 19.4841 28.0007 19.369Z" fill="#D19109"/>
<path d="M46.9473 19.6075C47.0534 20.2529 46.9749 21.6516 46.9237 22.3274C46.8984 22.6549 46.796 23.1049 46.7728 23.4213L46.7122 23.3918C46.4409 23.8423 45.3651 25.2757 44.8661 25.4155C44.8506 25.2178 45.2179 25.265 45.2944 24.8975C45.0658 24.8933 44.6831 24.6052 44.4744 24.6545C44.4655 24.7627 44.4541 24.8708 44.4411 24.9786C44.3475 24.45 44.5432 23.444 44.3235 22.8974C44.2792 22.7871 44.219 22.7903 44.117 22.761C44.2508 22.6256 44.7059 22.4602 44.8966 22.3636C45.597 22.0088 46.3441 20.9581 46.685 20.2742C46.8472 20.021 46.9464 19.9009 46.9473 19.6075Z" fill="#EFB941"/>
<path d="M44.8661 25.4155C45.3651 25.2757 46.4409 23.8423 46.7122 23.3918L46.7728 23.4213L46.8 23.7044C46.7577 24.1263 45.8801 25.1283 45.5445 25.3873C44.9109 25.8767 44.0047 26.337 43.282 26.6885C41.784 27.1756 40.8173 27.4783 39.2323 27.6674C39.0749 27.6601 38.85 27.6746 38.7934 27.4963C38.9126 27.4296 39.0741 27.4144 39.1566 27.3454C41.285 27.1162 43.0668 26.6085 44.8661 25.4155Z" fill="#FCEDA3"/>
<path d="M28.4943 20.467C28.6156 20.5998 28.7718 20.7919 28.9228 20.8761C29.415 21.3491 29.969 21.7372 30.3708 22.2532L30.1468 22.1928L30.1121 22.1753C29.4768 21.8538 28.7225 21.1652 28.4943 20.467Z" fill="#FBC53F"/>
<path d="M30.1468 22.1928L30.3708 22.2532C31.7237 23.0668 32.0992 23.0916 33.557 23.5492C33.2251 23.6205 32.5878 23.6372 32.2962 23.4621C32.4204 23.4507 32.5224 23.4661 32.5993 23.397C32.4974 23.2974 31.9181 23.1425 31.7496 23.0656C31.4325 22.921 30.309 22.4363 30.1468 22.1928Z" fill="#EFAD1C"/>
<path d="M46.8 23.7044C46.9729 24.2443 46.9969 26.2367 46.87 26.8058C46.6304 27.0431 46.471 27.4015 46.2587 27.6772C45.5478 28.6076 44.5851 29.3097 43.4865 29.6982C43.7407 29.3768 45.0499 28.9794 45.1866 28.5716C44.6591 28.2518 44.5733 27.277 44.0531 26.8059C43.5125 26.3164 43.7863 26.7636 43.282 26.6885C44.0047 26.337 44.9109 25.8767 45.5445 25.3873C45.8801 25.1283 46.7577 24.1263 46.8 23.7044Z" fill="#EFB941"/>
<path d="M46.8671 26.9969C46.9456 27.628 46.8679 28.339 46.9176 28.9691C47.0371 30.4834 46.4543 31.3525 45.2452 32.2029C45.2195 32.1509 45.2309 32.1734 45.2362 32.1019C45.2883 32.0615 45.4176 31.9643 45.4262 31.9051C45.455 31.3376 44.8893 30.7501 44.5782 30.305C44.4199 30.0787 44.3292 30.1731 44.2186 29.8351C44.0604 29.8115 43.7663 30.0787 43.3718 30.1006L43.3539 30.1015C45.0345 29.3528 45.6303 29.0477 46.8354 27.5345L46.8671 26.9969Z" fill="#EFB941"/>
<path d="M43.4865 29.6982C44.5851 29.3097 45.5478 28.6076 46.2587 27.6772C46.471 27.4015 46.6304 27.0431 46.87 26.8058L46.8671 26.9969L46.8354 27.5345C45.6303 29.0477 45.0345 29.3528 43.3539 30.1015C40.9641 31.024 39.4861 31.2089 36.9177 31.104C36.8018 31.0043 36.7952 31.0762 36.5954 31.0427C36.6311 30.9821 36.6419 30.941 36.7237 30.9322C37.2089 30.88 38.1415 30.9395 38.5795 30.8231C40.0783 30.7332 42.1358 30.3607 43.4865 29.6982Z" fill="#FCEDA3"/>
<path d="M22.5447 23.9498L22.5709 23.9641C22.7159 24.767 27.0389 24.2865 27.7148 24.4436C27.7006 24.6432 27.7294 24.6715 27.6348 24.818C27.1988 25.0024 24.8334 24.8898 24.1833 24.8298C23.7172 24.7868 23.1136 24.6443 22.5984 24.648C22.5903 24.8642 22.5848 25.2945 22.5416 25.4869C22.5215 25.0318 22.5423 24.4166 22.5447 23.9498Z" fill="#C78C03"/>
<path d="M27.9439 22.1995C27.9466 22.2044 27.9493 22.2093 27.952 22.2143C28.4211 24.443 30.2322 25.5747 32.4121 26.3065L33.4791 26.6621L33.4242 26.7429C33.5242 26.7816 33.7852 26.862 33.83 26.9336C33.4744 26.8883 32.4543 26.515 32.1303 26.3781C30.9191 25.8663 29.6848 25.3042 28.7581 24.34C28.584 24.1466 28.2737 23.9236 28.1569 23.6891C27.8979 23.1686 27.5974 22.8233 27.8317 22.2389C27.9015 22.1937 27.8649 22.2047 27.9439 22.1995Z" fill="#975400"/>
<path d="M22.5709 23.9641C23.2039 23.8141 24.7408 24.2814 25.4614 24.2414C25.9119 24.2164 26.4225 24.2791 26.8907 24.2186C27.1117 24.19 27.6862 24.1119 27.8791 24.1748L27.9427 24.2404C27.9192 24.3781 27.8554 24.414 27.7148 24.4436C27.0389 24.2865 22.7159 24.767 22.5709 23.9641Z" fill="#924E00"/>
<path d="M34.9743 27.1925C35.806 27.2946 36.6074 27.4187 37.4464 27.4601C37.8059 27.4779 38.9606 27.3053 39.1566 27.3454C39.0741 27.4144 38.9126 27.4296 38.7934 27.4963C38.85 27.6746 39.0749 27.6601 39.2323 27.6674C38.621 27.8096 35.558 27.6628 34.8932 27.5131C34.9582 27.4937 34.9533 27.4937 34.9994 27.4426C34.989 27.3016 35.0077 27.3544 34.9325 27.2396L34.9743 27.1925Z" fill="#FBC53F"/>
<path d="M33.9143 30.3851C34.4002 30.513 35.1193 30.6381 35.6258 30.6673C36.2427 30.9046 37.9031 30.791 38.5795 30.8231C38.1415 30.9395 37.2089 30.88 36.7237 30.9322C36.6419 30.941 36.6311 30.9821 36.5954 31.0427C36.7952 31.0762 36.8018 31.0043 36.9177 31.104C36.4231 31.2199 34.2772 30.8979 33.729 30.7231L33.7465 30.6968L33.948 30.7381C34.0603 30.7001 34.0505 30.6722 34.1291 30.5582L34.1092 30.4984C34.0074 30.4693 33.9339 30.4531 33.8312 30.433L33.9143 30.3851Z" fill="#EFAD1C"/>
<path d="M28.9421 27.9373C29.0332 27.8818 29.0281 27.906 29.1586 27.9384C30.68 29.3777 33.0361 29.9944 35.0367 30.3881C34.9439 30.4592 34.9 30.4141 34.7993 30.3959C34.4128 30.3259 34.0005 30.221 33.6099 30.1962C33.6961 30.2342 33.828 30.2733 33.9005 30.3097C34.1556 30.4375 35.4686 30.5307 35.6258 30.6673C35.1193 30.6381 34.4002 30.513 33.9143 30.3851C33.7269 30.2999 33.0847 30.1476 32.8309 30.0602C31.4709 29.5917 29.9917 28.9552 28.9421 27.9373Z" fill="#924E00"/>
<path d="M28.9421 27.9373C28.6975 27.769 28.4597 27.3201 28.3057 27.0548L28.3221 27.0013L28.2609 26.9594L28.2957 27.0285L28.2752 26.9579C28.3854 26.9996 29.0504 27.813 29.1586 27.9384C29.0281 27.906 29.0332 27.8818 28.9421 27.9373Z" fill="#A56300"/>
</svg>
