<svg width="48" height="47" viewBox="0 0 48 47" fill="none" xmlns="http://www.w3.org/2000/svg">
<path d="M23.586 0.0518993C24.1427 -0.0396838 25.3486 0.00267936 25.9106 0.0806517C26.6611 0.207001 27.2273 0.357406 27.9322 0.615327C28.3486 0.76779 29.1638 1.15612 29.5246 1.2228C31.7725 1.63767 33.9732 1.88467 35.5367 3.80829C35.8566 4.20231 36.1896 4.69004 36.5278 5.11081C36.9942 5.49223 37.5021 5.81489 37.9485 6.19953C38.2841 6.50967 38.7458 6.93282 38.9848 7.31414C39.7563 8.34587 39.6828 8.78786 40.1465 9.88538C40.2201 10.0605 41.032 10.9518 41.2883 11.3341C41.8508 12.2651 41.9622 12.8029 42.0888 13.8843C42.2038 13.8278 42.5751 13.6447 42.6591 13.5733C43.0819 13.2161 43.4113 12.7115 43.9869 12.5872C45.1308 12.1953 46.5951 12.7994 47.2616 13.7806C48.0573 14.5119 48.1398 16.0575 47.8393 17.037C47.4412 18.0007 47.1839 18.2516 46.3855 18.8941C46.3146 19.1298 46.1965 19.5693 46.1114 19.7835L45.8724 20.3445C46.0804 20.5038 46.5946 20.8559 46.5667 21.1772C46.4733 22.2626 45.3398 23.4781 44.7122 24.3366C44.7012 24.3441 44.6907 24.3516 44.6796 24.359C44.3661 24.8936 43.7537 25.611 43.3645 26.1008C42.0756 27.7247 40.7174 29.1325 39.2411 30.5843L39.4611 31.813C39.6917 33.5022 39.9785 35.4711 40.0935 37.1782C40.1717 37.6282 40.187 38.1357 40.2327 38.5968C40.2253 39.1011 40.1618 39.3275 39.6507 39.5163C38.1239 40.4601 36.0057 40.889 34.2914 41.3807C34.1764 41.4134 34.1654 41.5252 34.1302 41.6239C33.9989 41.7948 33.605 42.0676 33.4133 42.1968C33.3665 42.4268 33.3056 42.6938 33.2678 42.9222C33.5168 43.0736 33.6344 43.1375 33.8103 43.3865L33.6376 44.0723L33.4663 44.7185C33.9175 45.2424 34.49 45.8417 33.9585 46.5243C33.7689 46.671 33.6906 46.7507 33.4522 46.8055C32.5341 47.2038 30.1738 46.9369 29.2867 46.4858C28.8707 46.2748 28.8024 45.8834 28.6984 45.4766C28.5666 44.8198 28.2011 43.1807 28.1638 42.6189L28.0944 42.4685C27.845 42.4152 26.314 42.5635 25.899 42.5651C24.1559 42.5714 21.6923 42.6637 20.0162 42.3646C19.8932 42.9971 19.7584 43.6471 19.6528 44.2801L19.3908 45.5484C19.2771 45.9709 19.2056 46.231 18.7848 46.4642C18.2902 46.738 17.4889 46.8187 16.9205 46.8936C15.2087 47.1025 12.8011 46.9184 14.6616 44.7074C14.4966 44.1113 14.358 43.5083 14.2461 42.9C14.1206 42.3794 14.0477 41.8571 13.9651 41.3279C13.7946 41.214 12.5909 40.9307 12.2548 40.8326C11.1136 40.4992 8.58186 39.7432 7.78443 38.9281C7.48138 38.6184 7.96673 35.7966 8.05134 35.1561C8.13606 34.5162 8.25985 33.861 8.37241 33.2237C8.47125 32.6434 8.58559 32.0657 8.71516 31.4912C8.76274 31.2132 8.83811 30.9404 8.90817 30.6672C6.38883 28.4388 4.20914 25.6681 2.2023 22.9764C1.86727 22.5271 1.17041 21.4718 1.2712 20.8766C1.34126 20.4629 1.67997 20.2633 2.00183 20.0505L1.93812 19.8725C1.76506 19.49 1.68034 19.0702 1.57939 18.6602C1.33591 18.5861 0.956861 18.1624 0.786797 17.9772C0.666103 17.8163 0.557224 17.6468 0.460952 17.4701C-0.537374 15.6798 0.147612 13.6454 1.92052 12.6819C2.573 12.3689 3.32001 12.1812 4.03719 12.3935C4.74113 12.6019 5.15332 13.4078 5.49943 13.5483C5.77837 13.6534 6.0247 13.8308 6.21336 14.0624C7.05449 15.076 6.09366 16.7439 6.40411 17.0983C6.47197 17.0683 6.55963 17.0307 6.58258 16.9459C6.66 16.5491 7.12182 15.4663 7.11741 15.1361C7.09561 13.52 7.26505 12.5665 8.1765 11.1586C8.4359 10.797 8.69441 10.4417 8.93769 10.0687C9.13764 9.55888 9.25172 8.71347 9.53203 8.24506C10.3612 6.85955 11.5593 5.71006 12.7753 4.67068C13.2132 4.29638 13.509 3.89681 14.0118 3.5128C14.4775 3.20767 14.9555 3.04661 15.4503 2.80889C15.8626 2.58131 16.2684 2.31885 16.6692 2.07053C17.9316 1.28843 19.4706 1.32752 20.8 0.942937C21.8863 0.628673 22.2948 0.211642 23.586 0.0518993Z" fill="#F4C260"/>
<path d="M40.5756 19.6851L41.8582 20.7241L42.5084 21.2096C42.8199 21.4306 43.2006 21.7182 43.5163 21.9196C43.7069 22.0473 43.896 22.1768 44.084 22.3081C43.947 22.5067 43.7899 22.4897 43.5767 22.5921C43.9653 22.844 44.3088 23.0342 44.7132 23.256C44.5321 23.4996 44.104 24.0432 43.9843 24.2883C43.9144 24.4664 43.8829 24.5092 43.895 24.6934L43.9606 24.7853C44.3099 24.8273 44.4475 24.4166 44.6796 24.359C44.3661 24.8936 43.7537 25.611 43.3645 26.1008C42.0756 27.7247 40.7174 29.1325 39.2411 30.5843L39.4611 31.813C39.6917 33.5022 39.9785 35.4711 40.0935 37.1782C40.1717 37.6282 40.187 38.1357 40.2327 38.5968C40.2253 39.1011 40.1618 39.3275 39.6507 39.5163C38.1239 40.4601 36.0057 40.889 34.2914 41.3807C34.1764 41.4134 34.1654 41.5252 34.1302 41.6239C33.9989 41.7948 33.605 42.0676 33.4133 42.1968C33.3665 42.4268 33.3056 42.6938 33.2678 42.9222C33.5168 43.0736 33.6344 43.1375 33.8103 43.3865L33.6376 44.0723L33.4663 44.7185C33.9175 45.2424 34.49 45.8417 33.9585 46.5243C33.7689 46.671 33.6906 46.7507 33.4522 46.8055C32.5341 47.2038 30.1738 46.9369 29.2867 46.4858C28.8707 46.2748 28.8024 45.8834 28.6984 45.4766C28.5666 44.8198 28.2011 43.1807 28.1638 42.6189L28.0944 42.4685C27.845 42.4152 26.314 42.5635 25.899 42.5651C24.1559 42.5714 21.6923 42.6637 20.0162 42.3646C19.8932 42.9971 19.7584 43.6471 19.6528 44.2801L19.3908 45.5484C19.2771 45.9709 19.2056 46.231 18.7848 46.4642C18.2902 46.738 17.4889 46.8187 16.9205 46.8936C15.2087 47.1025 12.8011 46.9184 14.6616 44.7074C14.4966 44.1113 14.358 43.5083 14.2461 42.9C14.1206 42.3794 14.0477 41.8571 13.9651 41.3279C14.415 41.3712 14.5646 40.9761 14.9168 40.9017C15.031 40.7809 14.9957 40.7761 15.0228 40.5688C14.8951 40.0038 15.0787 36.2117 15.1664 35.5744C15.1832 34.8754 15.267 34.0968 15.3284 33.3941C15.6132 33.4173 15.6645 33.4141 15.9232 33.5545C15.9835 32.8792 16.0451 32.2614 16.1378 31.5904C16.1765 31.3535 16.1547 31.2021 16.3029 31.0211L16.3356 30.9346C16.0203 30.1792 20.4422 28.7928 21.0417 28.6049L22.0716 28.2874C25.7467 27.1901 29.3796 26.4213 33.0309 25.3896L34.1171 25.0543L34.0976 25.0039C33.9963 24.7413 33.981 24.5834 33.7662 24.4886L33.7484 24.4516C33.98 24.4239 34.3187 24.3077 34.5519 24.2364L35.3209 23.9615C35.8046 23.8026 36.3371 23.591 36.8182 23.41C37.168 23.1439 38.1864 21.4277 38.5693 20.9056C38.8335 20.5396 39.105 20.179 39.3839 19.824C39.6402 19.9874 39.6791 19.967 39.9832 19.9302L40.0656 19.9048C40.2295 19.857 40.2421 19.9423 40.4595 19.9114L40.5756 19.6851Z" fill="#FDFDFD"/>
<path d="M37.5998 39.7347C38.0189 39.5796 38.4816 39.3755 38.8986 39.2014C39.0756 39.5253 39.3078 39.4293 39.6507 39.5163C38.1239 40.4601 36.0057 40.889 34.2914 41.3807C34.1764 41.4134 34.1654 41.5252 34.1302 41.6239C33.9989 41.7948 33.605 42.0676 33.4133 42.1968C33.3665 42.4268 33.3056 42.6938 33.2678 42.9222C33.5168 43.0736 33.6344 43.1375 33.8103 43.3865L33.6376 44.0723L33.4663 44.7185C33.9175 45.2424 34.49 45.8417 33.9585 46.5243C33.7689 46.671 33.6906 46.7507 33.4522 46.8055C32.5341 47.2038 30.1738 46.9369 29.2867 46.4858C28.8707 46.2748 28.8024 45.8834 28.6984 45.4766C28.5666 44.8198 28.2011 43.1807 28.1638 42.6189L28.0944 42.4685C27.845 42.4152 26.314 42.5635 25.899 42.5651C24.1559 42.5714 21.6923 42.6637 20.0162 42.3646C19.8932 42.9971 19.7584 43.6471 19.6528 44.2801L19.3908 45.5484C19.2771 45.9709 19.2056 46.231 18.7848 46.4642C18.2902 46.738 17.4889 46.8187 16.9205 46.8936C15.2087 47.1025 12.8011 46.9184 14.6616 44.7074C14.4966 44.1113 14.358 43.5083 14.2461 42.9C14.1206 42.3794 14.0477 41.8571 13.9651 41.3279C14.415 41.3712 14.5646 40.9761 14.9168 40.9017C15.031 40.7809 14.9957 40.7761 15.0228 40.5688C15.3069 40.5371 15.3445 40.5377 15.6309 40.5968C15.6403 40.8357 15.6051 40.8806 15.7206 41.0673L15.8805 41.1296L16.1538 41.1692C23.0391 42.7112 30.9416 41.9768 37.5998 39.7347Z" fill="#66260A"/>
<path d="M15.0228 40.5688C15.3069 40.5371 15.3445 40.5377 15.6309 40.5968C15.6403 40.8357 15.6051 40.8806 15.7206 41.0673L15.8805 41.1296C15.8664 41.3512 15.8585 41.5574 15.711 41.7368L15.9658 41.7975C17.1113 42.0343 18.2651 42.2285 19.4248 42.3794C19.2797 43.0198 19.1382 43.6924 18.9811 44.3271C19.1872 44.2173 19.421 44.2622 19.6528 44.2801L19.3908 45.5484C19.2771 45.9709 19.2056 46.231 18.7848 46.4642C18.2902 46.738 17.4889 46.8187 16.9205 46.8936C15.2087 47.1025 12.8011 46.9184 14.6616 44.7074C14.4966 44.1113 14.358 43.5083 14.2461 42.9C14.1206 42.3794 14.0477 41.8571 13.9651 41.3279C14.415 41.3712 14.5646 40.9761 14.9168 40.9017C15.031 40.7809 14.9957 40.7761 15.0228 40.5688Z" fill="#F4C260"/>
<path d="M15.0228 40.5688C15.3069 40.5371 15.3445 40.5377 15.6309 40.5968C15.6403 40.8357 15.6051 40.8806 15.7206 41.0673L15.8805 41.1296C15.8664 41.3512 15.8585 41.5574 15.711 41.7368L15.9658 41.7975C17.1113 42.0343 18.2651 42.2285 19.4248 42.3794C19.2797 43.0198 19.1382 43.6924 18.9811 44.3271L18.897 44.8013L18.8188 45.139C18.3251 44.7259 18.4538 44.8947 18.3784 44.2374L18.3649 44.1815C18.2557 43.8776 18.1738 43.8001 17.9175 43.6091C17.4509 43.291 15.3192 42.5714 14.8268 42.6051L14.7883 42.5017C14.6714 42.7365 14.5019 42.774 14.2461 42.9C14.1206 42.3794 14.0477 41.8571 13.9651 41.3279C14.415 41.3712 14.5646 40.9761 14.9168 40.9017C15.031 40.7809 14.9957 40.7761 15.0228 40.5688Z" fill="#E8A74B"/>
<path d="M15.0228 40.5688C15.3069 40.5371 15.3445 40.5377 15.6309 40.5968C15.6403 40.8357 15.6051 40.8806 15.7206 41.0673L15.8805 41.1296C15.8664 41.3512 15.8585 41.5574 15.711 41.7368C15.3303 41.6461 14.9915 41.5664 14.617 41.4472C14.6606 41.8006 14.7177 42.1525 14.7883 42.5017C14.6714 42.7365 14.5019 42.774 14.2461 42.9C14.1206 42.3794 14.0477 41.8571 13.9651 41.3279C14.415 41.3712 14.5646 40.9761 14.9168 40.9017C15.031 40.7809 14.9957 40.7761 15.0228 40.5688Z" fill="#551C05"/>
<path d="M14.7883 42.5017L14.8268 42.6051C14.9656 43.4086 15.2063 44.1688 15.3425 44.9375C15.0526 45.2281 14.7286 45.4756 14.6686 45.8781C14.8117 46.326 15.3584 46.2954 15.7649 46.3086C15.752 46.2975 16.6434 46.5903 16.7257 46.719C16.6981 46.6757 16.906 46.8762 16.9205 46.8936C15.2087 47.1025 12.8011 46.9184 14.6616 44.7074C14.4966 44.1113 14.358 43.5083 14.2461 42.9C14.5019 42.774 14.6714 42.7365 14.7883 42.5017Z" fill="#5F2209"/>
<path d="M18.9811 44.3271C19.1872 44.2173 19.421 44.2622 19.6528 44.2801L19.3908 45.5484C19.2771 45.9709 19.2056 46.231 18.7848 46.4642C18.2902 46.738 17.4889 46.8187 16.9205 46.8936C16.906 46.8762 16.6981 46.6757 16.7257 46.719C16.6434 46.5903 15.752 46.2975 15.7649 46.3086C16.2881 46.298 16.6987 46.3006 17.2161 46.2036C17.8228 46.1081 18.1162 46.0696 18.6746 45.7942C18.7286 45.6164 18.7793 45.3284 18.8188 45.139L18.897 44.8013L18.9811 44.3271Z" fill="#66260A"/>
<path d="M18.9811 44.3271C19.1872 44.2173 19.421 44.2622 19.6528 44.2801L19.3908 45.5484C19.3421 45.5077 19.294 45.4666 19.2464 45.4249C18.9963 45.2044 18.918 45.1379 18.897 44.8013L18.9811 44.3271Z" fill="#5F2209"/>
<path d="M18.3784 44.2374C18.4538 44.8947 18.3251 44.7259 18.8188 45.139C18.7793 45.3284 18.7286 45.6164 18.6746 45.7942C18.1162 46.0696 17.8228 46.1081 17.2161 46.2036C17.4363 45.9878 17.8376 45.857 18.1032 45.6048C18.4477 45.2777 18.3742 44.708 18.3784 44.2374Z" fill="#E8A74B"/>
<path d="M17.9175 43.6091C18.1738 43.8001 18.2557 43.8776 18.3649 44.1815C18.1227 44.1989 18.0521 44.1598 17.8991 43.9726C17.8498 43.7389 17.8444 43.8349 17.9175 43.6091Z" fill="#FCD593"/>
<path d="M33.2505 42.9565L33.2678 42.9222C33.5168 43.0736 33.6344 43.1375 33.8103 43.3865L33.6376 44.0723L33.4663 44.7185C33.9175 45.2424 34.49 45.8417 33.9585 46.5243C33.7689 46.671 33.6906 46.7507 33.4522 46.8055C32.5341 47.2038 30.1738 46.9369 29.2867 46.4858C28.8707 46.2748 28.8024 45.8834 28.6984 45.4766C28.9285 45.2624 29.0199 45.1664 29.2152 44.9206L29.19 44.7665C29.3628 44.4795 29.3528 44.4152 29.5986 44.1456C30.2216 43.4614 32.3718 42.9565 33.2505 42.9565Z" fill="#F4C260"/>
<path d="M29.2152 44.9206C29.2825 45.3642 29.2767 45.6776 29.6753 45.9535C30.1465 46.2795 31.3597 46.3471 31.9395 46.364C32.1176 46.4716 32.4259 46.3787 32.5005 46.4241C32.96 46.7032 32.8928 46.738 33.4522 46.8055C32.5341 47.2038 30.1738 46.9369 29.2867 46.4858C28.8707 46.2748 28.8024 45.8834 28.6984 45.4766C28.9285 45.2624 29.0199 45.1664 29.2152 44.9206Z" fill="#66260A"/>
<path d="M32.9464 44.2986C33.2683 44.2585 33.3261 44.1504 33.6376 44.0723L33.4663 44.7185C33.9175 45.2424 34.49 45.8417 33.9585 46.5243C33.8686 46.1698 33.6538 46.278 33.5624 45.9103C33.1864 45.0941 32.7316 45.3516 32.9464 44.2986Z" fill="#551C05"/>
<path d="M33.5624 45.9103C33.6538 46.278 33.8686 46.1698 33.9585 46.5243C33.7689 46.671 33.6906 46.7507 33.4522 46.8055C32.8928 46.738 32.96 46.7032 32.5005 46.4241C32.4259 46.3787 32.1176 46.4716 31.9395 46.364C32.4411 46.3534 33.3298 46.4352 33.5624 45.9103Z" fill="#743211"/>
<path d="M33.2505 42.9565L33.2678 42.9222C33.5168 43.0736 33.6344 43.1375 33.8103 43.3865L33.6376 44.0723C33.3261 44.1504 33.2683 44.2585 32.9464 44.2986C33.0677 43.8591 33.1564 43.4033 33.2505 42.9565Z" fill="#743211"/>
<path d="M28.7615 42.7692C28.7284 42.622 28.7021 42.5635 28.742 42.4168C28.7956 42.3899 32.9821 41.7199 33.533 41.6028L33.4133 42.1968C33.3665 42.4268 33.3056 42.6938 33.2678 42.9222L33.2505 42.9565C32.3718 42.9565 30.2216 43.4614 29.5986 44.1456C29.3528 44.4152 29.3628 44.4795 29.19 44.7665L29.2152 44.9206C29.0199 45.1664 28.9285 45.2624 28.6984 45.4766C28.5666 44.8198 28.2011 43.1807 28.1638 42.6189C28.4532 42.7297 28.5319 42.6442 28.7615 42.7692Z" fill="#E8A74B"/>
<path d="M28.1638 42.6189C28.4532 42.7297 28.5319 42.6442 28.7615 42.7692C28.8964 43.387 29.0367 44.1757 29.19 44.7665L29.2152 44.9206C29.0199 45.1664 28.9285 45.2624 28.6984 45.4766C28.5666 44.8198 28.2011 43.1807 28.1638 42.6189Z" fill="#551C05"/>
<path d="M15.8805 41.1296L16.1538 41.1692C16.136 41.3781 16.1564 41.6803 15.9658 41.7975L15.711 41.7368C15.8585 41.5574 15.8664 41.3512 15.8805 41.1296Z" fill="#5F2209"/>
<path d="M43.2731 22.4014L43.5767 22.5921C43.9653 22.844 44.3088 23.0342 44.7132 23.256C44.5321 23.4996 44.104 24.0432 43.9843 24.2883C43.9144 24.4664 43.8829 24.5092 43.895 24.6934L43.9606 24.7853C44.3099 24.8273 44.4475 24.4166 44.6796 24.359C44.3661 24.8936 43.7537 25.611 43.3645 26.1008C42.0756 27.7247 40.7174 29.1325 39.2411 30.5843L39.4611 31.813C39.6917 33.5022 39.9785 35.4711 40.0935 37.1782C40.1717 37.6282 40.187 38.1357 40.2327 38.5968C40.2253 39.1011 40.1618 39.3275 39.6507 39.5163C39.3078 39.4293 39.0756 39.5253 38.8986 39.2014C38.4816 39.3755 38.0189 39.5796 37.5998 39.7347C37.6617 39.2768 37.5914 38.2196 37.564 37.7184C37.4863 36.3932 37.3986 35.068 37.3009 33.7438C37.2568 33.1008 37.1586 32.1042 37.3167 31.4791C37.833 29.4353 39.511 27.8018 40.74 26.1589C41.2742 25.4452 41.7778 24.7574 42.2742 24.0276C42.5347 23.6448 43.1586 22.8277 43.2731 22.4014Z" fill="#D9DBE9"/>
<path d="M38.6003 30.9974C38.4879 31.124 38.3687 31.2063 38.2048 31.2385L38.1218 31.1757C38.136 30.8286 38.8009 30.2077 39.0578 29.9449C40.3697 28.6034 41.6345 27.2048 42.812 25.7427C43.2006 25.2602 43.5772 24.7537 43.9843 24.2883C43.9144 24.4664 43.8829 24.5092 43.895 24.6934L43.9606 24.7853C44.3099 24.8273 44.4475 24.4166 44.6796 24.359C44.3661 24.8936 43.7537 25.611 43.3645 26.1008C42.0756 27.7247 40.7174 29.1325 39.2411 30.5843L39.4611 31.813C39.2878 31.9217 39.0635 32.0984 38.8771 32.0968C38.8351 31.7692 38.8098 31.2068 38.6003 30.9974Z" fill="#66260A"/>
<path d="M38.6003 30.9974C38.4559 31.0143 38.3876 31.0444 38.2663 31.1182C38.24 30.9388 38.5793 30.5896 38.7531 30.5379L38.6806 30.6555C38.7978 30.7051 39.0625 30.6139 39.2411 30.5843L39.4611 31.813C39.2878 31.9217 39.0635 32.0984 38.8771 32.0968C38.8351 31.7692 38.8098 31.2068 38.6003 30.9974Z" fill="#551C05"/>
<path d="M39.4611 31.813C39.6917 33.5022 39.9785 35.4711 40.0935 37.1782C40.1717 37.6282 40.187 38.1357 40.2327 38.5968C39.9827 38.4945 39.8519 38.4887 39.5851 38.4544C39.5525 38.2217 39.5331 37.9231 39.511 37.6841C39.3377 35.8171 39.126 33.9543 38.8771 32.0968C39.0635 32.0984 39.2878 31.9217 39.4611 31.813Z" fill="#66260A"/>
<path d="M40.0935 37.1782C40.1717 37.6282 40.187 38.1357 40.2327 38.5968C39.9827 38.4945 39.8519 38.4887 39.5851 38.4544C39.5525 38.2217 39.5331 37.9231 39.511 37.6841C39.687 37.375 39.9233 37.4789 40.0935 37.1782Z" fill="#5F2209"/>
<path d="M39.5851 38.4544C39.8519 38.4887 39.9827 38.4945 40.2327 38.5968C40.2253 39.1011 40.1618 39.3275 39.6507 39.5163C39.3078 39.4293 39.0756 39.5253 38.8986 39.2014C39.3687 38.9872 39.5966 38.9988 39.5851 38.4544Z" fill="#743211"/>
<path d="M34.5519 24.2364L35.3209 23.9615C35.4511 24.1745 35.4784 24.3644 35.658 24.5194L36.4863 24.214L36.0824 24.9109C35.9905 25.1156 35.6318 25.9819 35.5288 26.0808L35.4789 26.0907L35.4259 26.3687C34.6144 26.9568 31.0545 28.4884 30.1423 28.4472C30.043 28.3876 30.0472 28.3992 29.9663 28.3195C29.5062 28.395 28.773 28.7959 28.3355 28.8408C26.9069 29.0581 25.4048 29.5139 23.898 29.7497L22.3646 30.0177C22.086 30.0599 20.3611 30.2773 20.2265 30.3432C19.6723 30.3823 16.6881 30.7036 16.3356 30.9346C16.0203 30.1792 20.4422 28.7928 21.0417 28.6049L22.0716 28.2874C25.7467 27.1901 29.3796 26.4213 33.0309 25.3896L34.1171 25.0543L34.0976 25.0039C33.9963 24.7413 33.981 24.5834 33.7662 24.4886L33.7484 24.4516C33.98 24.4239 34.3187 24.3077 34.5519 24.2364Z" fill="#FDFDFD"/>
<path d="M32.6428 27.2698C33.3739 27.0624 34.9164 26.1779 35.4789 26.0907L35.4259 26.3687C34.6144 26.9568 31.0545 28.4884 30.1423 28.4472C30.043 28.3876 30.0472 28.3992 29.9663 28.3195C30.8082 27.9318 31.7814 27.6469 32.6428 27.2698Z" fill="#66260A"/>
<path d="M35.658 24.5194L36.4863 24.214L36.0824 24.9109C35.9905 25.1156 35.6318 25.9819 35.5288 26.0808L35.4789 26.0907C34.9164 26.1779 33.3739 27.0624 32.6428 27.2698C33.0068 26.7373 35.7815 25.4931 35.6596 24.5492L35.658 24.5194Z" fill="#D9DBE9"/>
<path d="M34.5519 24.2364L35.3209 23.9615C35.4511 24.1745 35.4784 24.3644 35.658 24.5194L35.6596 24.5492C35.1433 24.7118 34.6291 24.8802 34.1171 25.0543L34.0976 25.0039C33.9963 24.7413 33.981 24.5834 33.7662 24.4886L33.7484 24.4516C33.98 24.4239 34.3187 24.3077 34.5519 24.2364Z" fill="#743211"/>
<path d="M35.6575 26.2719C35.0766 27.4118 31.0498 28.7622 29.7021 29.1974C26.7362 30.1496 23.6795 30.789 20.5815 31.105C19.5899 31.1968 18.588 31.2913 17.5917 31.2728C17.3691 31.2686 17.2254 31.249 17.0006 31.2812C16.7151 31.2301 16.675 31.2031 16.4294 31.0597L16.3029 31.0211L16.3356 30.9346C16.6881 30.7036 19.6723 30.3823 20.2265 30.3432C20.3611 30.2773 22.086 30.0599 22.3646 30.0177L23.898 29.7497C25.4048 29.5139 26.9069 29.0581 28.3355 28.8408C28.773 28.7959 29.5062 28.395 29.9663 28.3195C30.0472 28.3992 30.043 28.3876 30.1423 28.4472C31.0545 28.4884 34.6144 26.9568 35.4259 26.3687L35.6575 26.2719Z" fill="#D9DBE9"/>
<path d="M28.3355 28.8408C28.2956 28.9764 28.2919 29.056 28.1144 29.1225C27.0041 29.5377 25.4264 29.9101 24.2662 30.1174C24.1553 29.8611 24.1669 29.9259 23.898 29.7497C25.4048 29.5139 26.9069 29.0581 28.3355 28.8408Z" fill="#66260A"/>
<path d="M20.2265 30.3432C20.5497 30.3559 20.6757 30.3501 20.8682 30.6271C19.7271 30.7911 18.5723 30.8666 17.426 30.9869C17.0946 31.0217 16.7628 31.056 16.4294 31.0597L16.3029 31.0211L16.3356 30.9346C16.6881 30.7036 19.6723 30.3823 20.2265 30.3432Z" fill="#5F2209"/>
<path d="M20.2265 30.3432C20.3611 30.2773 22.086 30.0599 22.3646 30.0177C22.4529 30.2219 22.4743 30.2958 22.677 30.3976C22.1921 30.4683 21.3476 30.6123 20.8682 30.6271C20.6757 30.3501 20.5497 30.3559 20.2265 30.3432Z" fill="#66260A"/>
<path d="M22.3646 30.0177L23.898 29.7497C24.1669 29.9259 24.1553 29.8611 24.2662 30.1174C23.7383 30.2203 23.2084 30.3137 22.677 30.3976C22.4743 30.2958 22.4529 30.2219 22.3646 30.0177Z" fill="#551C05"/>
<path d="M15.1664 35.5744C15.1734 35.7612 15.1722 35.8704 15.2129 36.0545C15.3739 36.1278 15.4865 36.0783 15.7439 36.159C15.6296 37.2943 15.5971 39.4367 15.6309 40.5968C15.3445 40.5377 15.3069 40.5371 15.0228 40.5688C14.8951 40.0038 15.0787 36.2117 15.1664 35.5744Z" fill="#66260A"/>
<path d="M38.5693 20.9056C38.6969 20.9561 38.9837 21.0829 39.1045 21.0923C38.7783 21.6219 37.6638 23.364 37.2768 23.7811C37.1722 23.647 36.9779 23.479 36.8182 23.41C37.168 23.1439 38.1864 21.4277 38.5693 20.9056Z" fill="#66260A"/>
<path d="M15.3284 33.3941C15.6132 33.4173 15.6645 33.4141 15.9232 33.5545C15.8497 34.3658 15.762 35.3407 15.7439 36.159C15.4865 36.0783 15.3739 36.1278 15.2129 36.0545C15.1722 35.8704 15.1734 35.7612 15.1664 35.5744C15.1832 34.8754 15.267 34.0968 15.3284 33.3941Z" fill="#5F2209"/>
<path d="M36.8182 23.41C36.9779 23.479 37.1722 23.647 37.2768 23.7811C36.9952 24.2123 36.7148 24.6533 36.4186 25.0735L36.0824 24.9109L36.4863 24.214L35.658 24.5194C35.4784 24.3644 35.4511 24.1745 35.3209 23.9615C35.8046 23.8026 36.3371 23.591 36.8182 23.41Z" fill="#551C05"/>
<path d="M42.5084 21.2096C42.8199 21.4306 43.2006 21.7182 43.5163 21.9196C43.7069 22.0473 43.896 22.1768 44.084 22.3081C43.947 22.5067 43.7899 22.4897 43.5767 22.5921L43.2731 22.4014C42.9927 22.2155 42.6744 22.0169 42.4196 21.8019C42.5315 21.6189 42.5079 21.4251 42.5084 21.2096Z" fill="#743211"/>
<path d="M38.5693 20.9056C38.8335 20.5396 39.105 20.179 39.3839 19.824C39.6402 19.9874 39.6791 19.967 39.9832 19.9302C39.855 20.1038 39.2195 21.0051 39.1045 21.0923C38.9837 21.0829 38.6969 20.9561 38.5693 20.9056Z" fill="#743211"/>
<path d="M40.5756 19.6851L41.8582 20.7241C41.5909 20.738 41.2925 20.6712 41.0751 20.7773C40.7095 20.5088 40.3991 20.2114 40.0656 19.9048C40.2295 19.857 40.2421 19.9423 40.4595 19.9114L40.5756 19.6851Z" fill="#743211"/>
<path d="M41.0751 20.7773C41.2925 20.6712 41.5909 20.738 41.8582 20.7241L42.5084 21.2096C42.5079 21.4251 42.5315 21.6189 42.4196 21.8019C42.0735 21.6058 41.3887 21.0355 41.0751 20.7773Z" fill="#5F2209"/>
<path d="M36.0824 24.9109L36.4186 25.0735C36.2946 25.2711 35.7216 26.1063 35.6575 26.2719L35.4259 26.3687L35.4789 26.0907L35.5288 26.0808C35.6318 25.9819 35.9905 25.1156 36.0824 24.9109Z" fill="#743211"/>
<path d="M16.3029 31.0211L16.4294 31.0597C16.675 31.2031 16.7151 31.2301 17.0006 31.2812C16.7138 31.5139 16.484 31.4727 16.1378 31.5904C16.1765 31.3535 16.1547 31.2021 16.3029 31.0211Z" fill="#EDECF0"/>
<path d="M17.5205 31.5561C17.8141 31.4506 18.1417 31.5118 18.3777 31.7164C18.6138 31.9211 18.7218 32.2382 18.6604 32.5452C18.599 32.8523 18.3777 33.1023 18.0812 33.1999C17.6317 33.3476 17.1475 33.105 16.9942 32.6555C16.8408 32.2065 17.0753 31.7165 17.5205 31.5561Z" fill="#651F09"/>
<path d="M17.6058 31.8747C17.876 31.7645 18.1844 31.8937 18.2958 32.1649C18.4073 32.4355 18.2799 32.7462 18.0108 32.8597C17.7397 32.9736 17.4279 32.8444 17.3156 32.5716C17.2033 32.2989 17.3335 31.986 17.6058 31.8747Z" fill="#FDFDFD"/>
<path d="M24.96 31.6626C25.4038 31.5028 25.8927 31.7339 26.0529 32.1796C26.2131 32.6249 25.9841 33.1166 25.5414 33.2785C25.0965 33.4416 24.6049 33.2105 24.4442 32.7631C24.283 32.3163 24.5146 31.8225 24.96 31.6626Z" fill="#5F2209"/>
<path d="M25.0072 31.9744C25.1816 31.889 25.3885 31.9058 25.5472 32.0187C25.7058 32.1316 25.7903 32.3221 25.7683 32.5162C25.7457 32.7098 25.6196 32.876 25.44 32.9493C25.1743 33.0575 24.8712 32.9346 24.7546 32.6718C24.638 32.4091 24.7494 32.101 25.0072 31.9744Z" fill="#FDFDFD"/>
<path d="M17.5445 35.6188C18.0029 35.509 18.4628 35.795 18.5693 36.2561C18.6758 36.7171 18.3883 37.1772 17.9285 37.2816C17.4728 37.3845 17.0195 37.0991 16.914 36.6417C16.8083 36.1848 17.0901 35.7274 17.5445 35.6188Z" fill="#5F2209"/>
<path d="M17.5934 35.9385C17.8611 35.863 18.1407 36.0118 18.229 36.2766C18.3174 36.542 18.1836 36.8295 17.9247 36.9318C17.7452 37.0025 17.5416 36.9677 17.3951 36.8422C17.2485 36.7161 17.1829 36.5198 17.2244 36.3304C17.2659 36.1416 17.4078 35.9907 17.5934 35.9385Z" fill="#FDFDFD"/>
<path d="M25.0025 35.7765C25.4437 35.6393 25.9138 35.8815 26.0592 36.322C26.2053 36.762 25.9736 37.2389 25.5382 37.394C25.2483 37.4974 24.9258 37.4351 24.6947 37.232C24.4636 37.0284 24.3602 36.7156 24.4242 36.4138C24.4878 36.112 24.7089 35.8683 25.0025 35.7765Z" fill="#66260A"/>
<path d="M25.0482 36.0872C25.2226 36.0139 25.4227 36.0408 25.5718 36.1574C25.7215 36.274 25.7966 36.4618 25.7693 36.6496C25.742 36.8379 25.616 36.9962 25.44 37.0648C25.1722 37.1692 24.8707 37.0379 24.7635 36.7704C24.6564 36.5029 24.783 36.1985 25.0482 36.0872Z" fill="#FDFDFD"/>
<path d="M8.1765 11.1586C8.51763 11.5617 8.47188 11.2334 8.86285 11.3307C8.36925 12.1597 7.86841 13.0366 7.81326 14.0325C7.79714 14.3229 7.85953 15.0669 7.79057 15.3192C7.55381 16.1851 7.36016 16.7256 7.23353 17.625C7.45123 18.0078 7.73422 18.4758 7.92382 18.8635C8.01694 19.1446 8.06017 19.2629 8.10176 19.5578L8.23795 19.7762C8.11552 19.8847 7.91599 20.0506 7.81174 20.1665C7.92051 20.3363 8.36663 21.059 8.46253 21.175C8.9567 21.9687 9.43528 22.7722 9.89794 23.5848C10.3313 24.3606 10.8255 25.3205 11.2838 26.0605C11.7007 26.9631 14.3553 28.2219 15.2208 28.7236C15.6553 28.9753 16.49 29.1689 16.7642 29.5989C15.4199 30.3438 15.6115 31.1515 15.4149 32.5389C15.3766 32.809 15.341 33.1234 15.3284 33.3941C15.267 34.0968 15.1832 34.8754 15.1664 35.5744C15.0787 36.2117 14.8951 40.0038 15.0228 40.5688C14.9957 40.7761 15.031 40.7809 14.9168 40.9017C14.5646 40.9761 14.415 41.3712 13.9651 41.3279C13.7946 41.214 12.5909 40.9307 12.2548 40.8326C11.1136 40.4992 8.58186 39.7432 7.78443 38.9281C7.48138 38.6184 7.96673 35.7966 8.05134 35.1561C8.13606 34.5162 8.25985 33.861 8.37241 33.2237C8.47125 32.6434 8.58559 32.0657 8.71516 31.4912C8.76274 31.2132 8.83811 30.9404 8.90817 30.6672C6.38883 28.4388 4.20914 25.6681 2.2023 22.9764C1.86727 22.5271 1.17041 21.4718 1.2712 20.8766C1.34126 20.4629 1.67997 20.2633 2.00183 20.0505L1.93812 19.8725C1.76506 19.49 1.68034 19.0702 1.57939 18.6602C1.33591 18.5861 0.956861 18.1624 0.786797 17.9772C0.666103 17.8163 0.557224 17.6468 0.460952 17.4701C-0.537374 15.6798 0.147612 13.6454 1.92052 12.6819C2.573 12.3689 3.32001 12.1812 4.03719 12.3935C4.74113 12.6019 5.15332 13.4078 5.49943 13.5483C5.77837 13.6534 6.0247 13.8308 6.21336 14.0624C7.05449 15.076 6.09366 16.7439 6.40411 17.0983C6.47197 17.0683 6.55963 17.0307 6.58258 16.9459C6.66 16.5491 7.12182 15.4663 7.11741 15.1361C7.09561 13.52 7.26505 12.5665 8.1765 11.1586Z" fill="#FDFDFD"/>
<path d="M4.93283 21.2079C4.9862 21.4126 5.01823 21.5609 5.10505 21.7559C4.79554 21.9596 4.49922 22.1571 4.17821 22.3435L3.776 22.5691L3.13098 22.9164L3.05877 22.9938C2.79348 22.7897 2.80819 22.9282 2.66459 22.638C3.00561 22.4047 3.60745 22.0661 3.97799 21.8397L4.93283 21.2079Z" fill="#66260A"/>
<path d="M3.13098 22.9164C3.04164 22.692 3.04826 22.7831 3.08208 22.5633C3.31381 22.3259 3.52258 22.4055 3.776 22.5691L3.13098 22.9164Z" fill="#551C05"/>
<path d="M8.1765 11.1586C8.51763 11.5617 8.47188 11.2334 8.86285 11.3307C8.36925 12.1597 7.86841 13.0366 7.81326 14.0325C7.79714 14.3229 7.85953 15.0669 7.79057 15.3192C7.55381 16.1851 7.36016 16.7256 7.23353 17.625C7.45123 18.0078 7.73422 18.4758 7.92382 18.8635C8.01694 19.1446 8.06017 19.2629 8.10176 19.5578L8.23795 19.7762C8.11552 19.8847 7.91599 20.0506 7.81174 20.1665L7.63658 19.8543C7.35112 19.6361 7.41163 19.869 7.09256 19.6404C6.38857 20.1847 5.66834 20.7074 4.93283 21.2079L3.97799 21.8397C3.66507 21.3833 3.23293 20.5684 3.08497 20.0394C2.70304 20.2879 2.43471 20.4888 2.07777 20.7656C2.0545 20.5295 2.03428 20.2849 2.00183 20.0505L1.93812 19.8725C1.76506 19.49 1.68034 19.0702 1.57939 18.6602C1.33591 18.5861 0.956861 18.1624 0.786797 17.9772C0.666103 17.8163 0.557224 17.6468 0.460952 17.4701C-0.537374 15.6798 0.147612 13.6454 1.92052 12.6819C2.573 12.3689 3.32001 12.1812 4.03719 12.3935C4.74113 12.6019 5.15332 13.4078 5.49943 13.5483C5.77837 13.6534 6.0247 13.8308 6.21336 14.0624C7.05449 15.076 6.09366 16.7439 6.40411 17.0983C6.47197 17.0683 6.55963 17.0307 6.58258 16.9459C6.66 16.5491 7.12182 15.4663 7.11741 15.1361C7.09561 13.52 7.26505 12.5665 8.1765 11.1586Z" fill="#8D4819"/>
<path d="M8.1765 11.1586C8.51763 11.5617 8.47188 11.2334 8.86285 11.3307C8.36925 12.1597 7.86841 13.0366 7.81326 14.0325C7.79714 14.3229 7.85953 15.0669 7.79057 15.3192C7.55381 16.1851 7.36016 16.7256 7.23353 17.625C7.45123 18.0078 7.73422 18.4758 7.92382 18.8635C8.01694 19.1446 8.06017 19.2629 8.10176 19.5578L8.23795 19.7762C8.11552 19.8847 7.91599 20.0506 7.81174 20.1665L7.63658 19.8543C7.35112 19.6361 7.41163 19.869 7.09256 19.6404C6.38857 20.1847 5.66834 20.7074 4.93283 21.2079L3.97799 21.8397C3.66507 21.3833 3.23293 20.5684 3.08497 20.0394L3.29842 19.902L4.25604 19.3114C4.7239 19.0367 5.29665 18.6989 5.73504 18.3852C5.56624 18.0325 5.86477 18.1355 5.72816 17.7101C5.96845 17.5043 5.7424 17.2192 5.62097 16.9834C5.86997 15.8191 6.58022 14.8974 5.25011 14.0781L5.33079 14.0297C5.57191 14.1024 5.62533 14.2338 5.83688 14.4093C6.02528 14.3937 6.05143 14.4015 6.20789 14.3074L6.21341 14.219C5.97438 14.0242 5.71876 13.7684 5.49943 13.5483C5.77837 13.6534 6.0247 13.8308 6.21336 14.0624C7.05449 15.076 6.09366 16.7439 6.40411 17.0983C6.47197 17.0683 6.55963 17.0307 6.58258 16.9459C6.66 16.5491 7.12182 15.4663 7.11741 15.1361C7.09561 13.52 7.26505 12.5665 8.1765 11.1586Z" fill="#551C05"/>
<path d="M5.73504 18.3852C6.0215 18.1954 6.30984 18.0085 6.60007 17.8246C6.90485 18.2404 7.21446 18.8352 7.47024 19.2968L7.09256 19.6404C6.38857 20.1847 5.66834 20.7074 4.93283 21.2079L3.97799 21.8397C3.66507 21.3833 3.23293 20.5684 3.08497 20.0394L3.29842 19.902L4.25604 19.3114C4.7239 19.0367 5.29665 18.6989 5.73504 18.3852Z" fill="#FDFDFD"/>
<path d="M1.92052 12.6819C2.573 12.3689 3.32001 12.1812 4.03719 12.3935C4.74113 12.6019 5.15332 13.4078 5.49943 13.5483C5.71876 13.7684 5.97438 14.0242 6.21341 14.219L6.20789 14.3074C6.05143 14.4015 6.02528 14.3937 5.83688 14.4093C5.62533 14.2338 5.57191 14.1024 5.33079 14.0297L5.25011 14.0781C4.75615 14.0236 3.61455 14.0576 3.82715 14.8336C4.16644 15.2462 5.03157 15.2679 5.11198 15.593C4.93036 15.8518 4.74696 15.7826 4.59297 15.9822C4.42569 16.1991 4.38808 16.6951 4.19039 16.855L4.07206 16.8198C3.85756 16.4706 4.07626 15.8938 4.025 15.7679C3.95588 15.5982 3.39847 15.3829 3.31323 15.0236C3.03313 13.8425 4.2688 13.6605 4.41045 13.3755C4.16297 12.7961 3.06102 12.9481 2.58255 13.0444C2.24048 12.8118 2.23339 13.1555 1.92052 12.6819Z" fill="#5F2209"/>
<path d="M0.786797 17.9772C0.666103 17.8163 0.557224 17.6468 0.460952 17.4701C-0.537374 15.6798 0.147612 13.6454 1.92052 12.6819C2.23339 13.1555 2.24048 12.8118 2.58255 13.0444C0.978552 13.6828 0.12345 15.126 0.802498 16.8053C0.889526 17.0246 0.993625 17.2367 1.11374 17.4396C1.16127 17.5582 1.1941 17.6283 1.21873 17.7559C1.01548 17.7338 1.07929 17.713 0.914267 17.7937L0.786797 17.9772Z" fill="#591F08"/>
<path d="M1.57939 18.6602C1.86322 18.6344 2.05513 18.8099 2.28759 18.9766L2.28408 19.1603L2.43954 19.7193L2.869 19.441C3.0397 19.6089 3.14464 19.7156 3.29842 19.902L3.08497 20.0394C2.70304 20.2879 2.43471 20.4888 2.07777 20.7656C2.0545 20.5295 2.03428 20.2849 2.00183 20.0505L1.93812 19.8725C1.76506 19.49 1.68034 19.0702 1.57939 18.6602Z" fill="#5F2209"/>
<path d="M1.57939 18.6602C1.86322 18.6344 2.05513 18.8099 2.28759 18.9766L2.28408 19.1603C2.15808 19.5456 1.95603 19.3193 1.93812 19.8725C1.76506 19.49 1.68034 19.0702 1.57939 18.6602Z" fill="#551C05"/>
<path d="M3.98939 18.7702C4.2542 18.5442 5.38147 17.9088 5.72816 17.7101C5.86477 18.1355 5.56624 18.0325 5.73504 18.3852C5.29665 18.6989 4.7239 19.0367 4.25604 19.3114C4.07862 19.0813 4.06308 19.0513 3.98939 18.7702Z" fill="#66260A"/>
<path d="M1.11374 17.4396C1.5347 17.9718 1.8493 18.0803 2.24064 18.5595C2.27389 18.6002 2.28465 18.9007 2.28759 18.9766C2.05513 18.8099 1.86322 18.6344 1.57939 18.6602C1.33591 18.5861 0.956861 18.1624 0.786797 17.9772L0.914267 17.7937C1.07929 17.713 1.01548 17.7338 1.21873 17.7559C1.1941 17.6283 1.16127 17.5582 1.11374 17.4396Z" fill="#66260A"/>
<path d="M3.98939 18.7702C4.06308 19.0513 4.07862 19.0813 4.25604 19.3114L3.29842 19.902C3.14464 19.7156 3.0397 19.6089 2.869 19.441C3.25535 19.1959 3.58881 18.9933 3.98939 18.7702Z" fill="#551C05"/>
<path d="M2.00183 20.0505C2.03428 20.2849 2.0545 20.5295 2.07777 20.7656C2.43471 20.4888 2.70304 20.2879 3.08497 20.0394C3.23293 20.5684 3.66507 21.3833 3.97799 21.8397C3.60745 22.0661 3.00561 22.4047 2.66459 22.638C2.80819 22.9282 2.79348 22.7897 3.05877 22.9938C4.35415 24.8348 5.77848 26.5808 7.32087 28.2188C7.8619 28.798 8.53638 29.4116 9.04053 29.9703C9.07493 30.1734 9.04268 30.2034 9.15923 30.3169L9.41994 30.3353C9.46317 30.4298 9.47126 30.4345 9.48423 30.5368L9.29815 31.4485C9.15067 31.3994 9.06537 31.3208 8.94121 31.2274C8.85129 31.3139 8.79184 31.3941 8.71516 31.4912C8.76274 31.2132 8.83811 30.9404 8.90817 30.6672C6.38883 28.4388 4.20914 25.6681 2.2023 22.9764C1.86727 22.5271 1.17041 21.4718 1.2712 20.8766C1.34126 20.4629 1.67997 20.2633 2.00183 20.0505Z" fill="#551C05"/>
<path d="M2.07777 20.7656C2.43471 20.4888 2.70304 20.2879 3.08497 20.0394C3.23293 20.5684 3.66507 21.3833 3.97799 21.8397C3.60745 22.0661 3.00561 22.4047 2.66459 22.638C2.54836 22.2691 1.92593 21.5596 1.89358 21.0719C1.88265 20.9078 1.96285 20.8775 2.07777 20.7656Z" fill="#D9DBE9"/>
<path d="M4.17821 22.3435C4.82453 23.5918 7.42917 27.0411 8.47513 27.8434C9.05823 27.7301 9.29878 27.7097 9.88927 27.7659C9.52809 28.2235 9.24463 29.4116 9.04053 29.9703C8.53638 29.4116 7.8619 28.798 7.32087 28.2188C5.77848 26.5808 4.35415 24.8348 3.05877 22.9938L3.13098 22.9164L3.776 22.5691L4.17821 22.3435Z" fill="#D9DBE9"/>
<path d="M8.05134 35.1561C8.3744 35.2695 8.37986 35.3998 8.62808 35.5349C8.50849 36.4518 8.32907 37.6609 8.2681 38.571C9.70508 39.4915 11.6075 39.988 13.2314 40.4417C13.5985 40.5445 14.616 40.7793 14.9168 40.9017C14.5646 40.9761 14.415 41.3712 13.9651 41.3279C13.7946 41.214 12.5909 40.9307 12.2548 40.8326C11.1136 40.4992 8.58186 39.7432 7.78443 38.9281C7.48138 38.6184 7.96673 35.7966 8.05134 35.1561Z" fill="#5F2209"/>
<path d="M7.09256 19.6404C7.41163 19.869 7.35112 19.6361 7.63658 19.8543C6.84913 20.5606 6.00212 21.1968 5.10505 21.7559C5.01823 21.5609 4.9862 21.4126 4.93283 21.2079C5.66834 20.7074 6.38857 20.1847 7.09256 19.6404Z" fill="#5F2209"/>
<path d="M8.71516 31.4912C8.79184 31.3941 8.85129 31.3139 8.94121 31.2274C9.06537 31.3208 9.15067 31.3994 9.29815 31.4485C9.1451 32.2282 9.00628 33.0111 8.8817 33.7961C8.85917 33.5734 8.89546 33.5671 8.78055 33.4215C8.6026 33.3645 8.567 33.3498 8.40896 33.2474L8.37241 33.2237C8.47125 32.6434 8.58559 32.0657 8.71516 31.4912Z" fill="#66260A"/>
<path d="M8.05134 35.1561C8.13606 34.5162 8.25985 33.861 8.37241 33.2237L8.40896 33.2474C8.567 33.3498 8.6026 33.3645 8.78055 33.4215C8.89546 33.5671 8.85917 33.5734 8.8817 33.7961L8.62808 35.5349C8.37986 35.3998 8.3744 35.2695 8.05134 35.1561Z" fill="#551C05"/>
<path d="M9.88927 27.7659C10.094 28.1011 9.57562 30.0198 9.48423 30.5368C9.47126 30.4345 9.46317 30.4298 9.41994 30.3353L9.15923 30.3169C9.04268 30.2034 9.07493 30.1734 9.04053 29.9703C9.24463 29.4116 9.52809 28.2235 9.88927 27.7659Z" fill="#5F2209"/>
<path d="M40.3435 11.1366L40.3823 11.0682C40.5525 11.2618 40.718 11.5185 40.9401 11.5522C41.0788 11.4741 41.1586 11.4266 41.2883 11.3341C41.8508 12.2651 41.9622 12.8029 42.0888 13.8843C42.2038 13.8278 42.5751 13.6447 42.6591 13.5733C43.0819 13.2161 43.4113 12.7115 43.9869 12.5872C45.1308 12.1953 46.5951 12.7994 47.2616 13.7806C48.0573 14.5119 48.1398 16.0575 47.8393 17.037C47.4412 18.0007 47.1839 18.2516 46.3855 18.8941C46.3146 19.1298 46.1965 19.5693 46.1114 19.7835L45.8724 20.3445C46.0804 20.5038 46.5946 20.8559 46.5667 21.1772C46.4733 22.2626 45.3398 23.4781 44.7122 24.3366C44.7012 24.3441 44.6907 24.3516 44.6796 24.359C44.4475 24.4166 44.3099 24.8273 43.9606 24.7853L43.895 24.6934C43.8829 24.5092 43.9144 24.4664 43.9843 24.2883C44.104 24.0432 44.5321 23.4996 44.7132 23.256C44.3088 23.0342 43.9653 22.844 43.5767 22.5921C43.7899 22.4897 43.947 22.5067 44.084 22.3081C43.896 22.1768 43.7069 22.0473 43.5163 21.9196C43.2006 21.7182 42.8199 21.4306 42.5084 21.2096L41.8582 20.7241L40.5756 19.6851L40.2206 19.3588L40.5688 18.7192C40.7069 18.4992 40.8225 18.309 40.9475 18.081C40.7815 17.9092 40.6539 17.8933 40.4485 17.7337C41.0735 16.9291 41.2936 17.5844 41.7001 16.8979C41.3414 15.7541 41.3865 15.5471 41.4459 14.3433C41.2678 12.8449 41.2841 12.3949 40.3435 11.1366Z" fill="#8D4819"/>
<path d="M44.6644 19.5181L44.7022 19.5377C44.9207 19.6521 45.2169 19.902 45.3897 19.9326L45.4706 19.85C45.7285 19.8382 45.7952 19.7769 46.1114 19.7835L45.8724 20.3445C46.0804 20.5038 46.5946 20.8559 46.5667 21.1772C46.4733 22.2626 45.3398 23.4781 44.7122 24.3366C44.7012 24.3441 44.6907 24.3516 44.6796 24.359C44.4475 24.4166 44.3099 24.8273 43.9606 24.7853L43.895 24.6934C43.8829 24.5092 43.9144 24.4664 43.9843 24.2883C44.104 24.0432 44.5321 23.4996 44.7132 23.256C44.3088 23.0342 43.9653 22.844 43.5767 22.5921C43.7899 22.4897 43.947 22.5067 44.084 22.3081C43.896 22.1768 43.7069 22.0473 43.5163 21.9196C43.8514 21.6017 44.3724 20.5956 44.5294 20.1494L44.3025 19.9913C44.49 19.7963 44.5257 19.7411 44.6644 19.5181Z" fill="#5F2209"/>
<path d="M44.5294 20.1494C44.9806 20.44 45.5877 20.8545 45.9627 21.2303C45.7185 21.8113 45.4092 22.3622 45.0399 22.8723C44.7248 22.6781 44.406 22.49 44.084 22.3081C43.896 22.1768 43.7069 22.0473 43.5163 21.9196C43.8514 21.6017 44.3724 20.5956 44.5294 20.1494Z" fill="#D9DBE9"/>
<path d="M40.9475 18.081C41.0178 18.0239 41.0987 17.9309 41.1581 17.9562C41.6943 18.1839 42.6791 18.9016 43.1324 19.2065L44.3025 19.9913L44.5294 20.1494C44.3724 20.5956 43.8514 21.6017 43.5163 21.9196C43.2006 21.7182 42.8199 21.4306 42.5084 21.2096L41.8582 20.7241L40.5756 19.6851L40.2206 19.3588L40.5688 18.7192C40.7069 18.4992 40.8225 18.309 40.9475 18.081Z" fill="#FDFDFD"/>
<path d="M40.3435 11.1366L40.3823 11.0682C40.5525 11.2618 40.718 11.5185 40.9401 11.5522C41.0788 11.4741 41.1586 11.4266 41.2883 11.3341C41.8508 12.2651 41.9622 12.8029 42.0888 13.8843C42.2038 13.8278 42.5751 13.6447 42.6591 13.5733C43.0819 13.2161 43.4113 12.7115 43.9869 12.5872L44.0273 12.5924C44.3025 12.6252 44.6865 12.537 44.9149 12.7622L44.8314 12.7155L44.905 12.8065C44.7537 12.9749 44.5032 12.9975 44.2584 13.0653C43.8808 13.2159 43.7589 13.2576 43.4501 13.5401C44.8498 13.9989 45.2154 14.7954 43.9801 15.84C43.959 15.8577 43.9669 16.0082 43.9722 16.0402C43.9648 16.2326 43.9858 16.3243 43.8692 16.4603C43.6886 16.4633 43.7358 16.4546 43.5531 16.3416C43.3808 15.7574 42.7022 15.9676 42.7831 15.5069C43.166 15.3895 43.9349 15.3356 44.1093 14.9787C44.4559 14.2675 43.1292 13.9464 42.6843 14.1794C42.2321 14.4163 42.1418 14.6641 42.0005 15.0795C41.8566 14.6912 41.6134 14.9932 41.4459 14.3433C41.2678 12.8449 41.2841 12.3949 40.3435 11.1366Z" fill="#5F2209"/>
<path d="M41.4459 14.3433C41.6134 14.9932 41.8566 14.6912 42.0005 15.0795C41.9286 16.0262 42.166 16.2459 42.3304 17.0845C42.2411 17.2778 42.1266 17.509 42.0457 17.7022C42.3913 18.026 42.9879 18.3903 43.4039 18.657C43.2805 18.8703 43.2206 18.9694 43.1324 19.2065C42.6791 18.9016 41.6943 18.1839 41.1581 17.9562C41.0987 17.9309 41.0178 18.0239 40.9475 18.081C40.7815 17.9092 40.6539 17.8933 40.4485 17.7337C41.0735 16.9291 41.2936 17.5844 41.7001 16.8979C41.3414 15.7541 41.3865 15.5471 41.4459 14.3433Z" fill="#60240B"/>
<path d="M45.7569 18.5486C46.6045 18.1206 46.9008 17.6025 47.2994 16.7719C47.5641 16.8462 47.6387 16.8472 47.8393 17.037C47.4412 18.0007 47.1839 18.2516 46.3855 18.8941C46.3146 19.1298 46.1965 19.5693 46.1114 19.7835C45.7952 19.7769 45.7285 19.8382 45.4706 19.85C45.6361 19.4016 45.6817 19.0172 45.7569 18.5486Z" fill="#61240B"/>
<path d="M46.676 13.9365C46.7968 13.755 46.7726 13.7304 46.9386 13.6437C47.0704 13.6887 47.1361 13.7193 47.2616 13.7806C48.0573 14.5119 48.1398 16.0575 47.8393 17.037C47.6387 16.8472 47.5641 16.8462 47.2994 16.7719C47.6497 15.6757 47.4102 14.7962 46.676 13.9365Z" fill="#66260A"/>
<path d="M43.9869 12.5872C45.1308 12.1953 46.5951 12.7994 47.2616 13.7806C47.1361 13.7193 47.0704 13.6887 46.9386 13.6437C46.7726 13.7304 46.7968 13.755 46.676 13.9365C45.823 13.1729 45.3514 13.0156 44.2584 13.0653C44.5032 12.9975 44.7537 12.9749 44.905 12.8065L44.8314 12.7155L44.9149 12.7622C44.6865 12.537 44.3025 12.6252 44.0273 12.5924L43.9869 12.5872Z" fill="#551C05"/>
<path d="M43.4039 18.657L44.5841 19.4192L44.6644 19.5181C44.5257 19.7411 44.49 19.7963 44.3025 19.9913L43.1324 19.2065C43.2206 18.9694 43.2805 18.8703 43.4039 18.657Z" fill="#551C05"/>
<path d="M44.5841 19.4192C44.9396 19.2791 44.9643 18.8699 45.7569 18.5486C45.6817 19.0172 45.6361 19.4016 45.4706 19.85L45.3897 19.9326C45.2169 19.902 44.9207 19.6521 44.7022 19.5377L44.6644 19.5181L44.5841 19.4192Z" fill="#743211"/>
<path d="M43.9722 16.0402C44.0137 16.3514 44.0604 16.8139 43.7563 17.0072C43.5095 16.9142 43.5588 16.5819 43.5531 16.3416C43.7358 16.4546 43.6886 16.4633 43.8692 16.4603C43.9858 16.3243 43.9648 16.2326 43.9722 16.0402Z" fill="#66260A"/>
<path d="M8.23795 19.7762L8.59557 20.3304L8.72839 20.5592L8.95818 20.91C9.01663 21.0114 9.35965 21.6193 9.40624 21.6715C9.54915 21.9347 9.71375 22.2579 9.87835 22.5002C10.2787 22.6537 11.4924 23.4586 11.6707 23.837C12.207 24.0884 12.7115 24.303 13.2589 24.5297C14.0866 24.8436 15.0234 25.2235 15.8572 25.4921C16.3107 25.7184 16.7277 25.7991 17.121 25.9772C18.7633 26.5913 20.5645 27.0532 22.145 27.6559C25.336 26.6131 28.6112 25.8718 31.8707 25.0554L32.3403 24.8998L32.5892 24.8337C32.9159 25.1227 32.9122 24.99 33.0309 25.3896C29.3796 26.4213 25.7467 27.1901 22.0716 28.2874L21.0417 28.6049C20.4422 28.7928 16.0203 30.1792 16.3356 30.9346L16.3029 31.0211C16.1547 31.2021 16.1765 31.3535 16.1378 31.5904C16.0451 32.2614 15.9835 32.8792 15.9232 33.5545C15.6645 33.4141 15.6132 33.4173 15.3284 33.3941C15.341 33.1234 15.3766 32.809 15.4149 32.5389C15.6115 31.1515 15.4199 30.3438 16.7642 29.5989C16.49 29.1689 15.6553 28.9753 15.2208 28.7236C14.3553 28.2219 11.7007 26.9631 11.2838 26.0605C10.8255 25.3205 10.3313 24.3606 9.89794 23.5848C9.43528 22.7722 8.9567 21.9687 8.46253 21.175C8.36663 21.059 7.92051 20.3363 7.81174 20.1665C7.91599 20.0506 8.11552 19.8847 8.23795 19.7762Z" fill="#66260A"/>
<path d="M11.0285 24.2078C12.519 24.8849 14.0324 25.5097 15.5661 26.0812C17.1084 26.6383 18.66 27.1691 20.2202 27.6736C19.5793 28.127 17.9248 28.5949 17.1116 28.6625C15.7281 28.0916 14.3794 27.439 13.0727 26.7079C12.8354 26.2431 11.1008 24.9003 11.0285 24.2078Z" fill="#FDFDFD"/>
<path d="M11.2838 26.0605L11.3317 26.0851C11.9151 26.3908 12.5646 26.8642 13.1531 27.2023C14.5491 27.9909 16.002 28.6735 17.4997 29.2438C17.3296 29.3277 16.9228 29.5424 16.7642 29.5989C16.49 29.1689 15.6553 28.9753 15.2208 28.7236C14.3553 28.2219 11.7007 26.9631 11.2838 26.0605Z" fill="#D9DBE9"/>
<path d="M20.2202 27.6736L20.2699 27.6709C20.4657 27.7324 20.8084 27.8064 20.9299 27.9338C20.8524 28.0526 20.7205 28.07 20.5768 28.117C19.7207 28.3818 18.8349 28.6677 18.0144 29.0317C17.7385 28.921 17.374 28.7864 17.1116 28.6625C17.9248 28.5949 19.5793 28.127 20.2202 27.6736Z" fill="#D9DBE9"/>
<path d="M20.2699 27.6709C20.6333 27.1334 21.9223 27.5685 22.108 28.1196L22.0716 28.2874L21.0417 28.6049L20.9259 28.5786C20.7763 28.415 20.6689 28.3195 20.5768 28.117C20.7205 28.07 20.8524 28.0526 20.9299 27.9338C20.8084 27.8064 20.4657 27.7324 20.2699 27.6709Z" fill="#551C05"/>
<path d="M10.6198 23.9964C10.805 24.0715 10.8609 24.0992 11.0285 24.2078C11.1008 24.9003 12.8354 26.2431 13.0727 26.7079C12.6359 26.512 11.8752 26.0599 11.4313 25.8141C11.1652 25.2872 10.8937 24.5735 10.6198 23.9964Z" fill="#D9DBE9"/>
<path d="M9.87835 22.5002C10.2787 22.6537 11.4924 23.4586 11.6707 23.837C10.7008 23.4363 10.3735 23.4318 9.87835 22.5002Z" fill="#E8A74B"/>
<path d="M36.5278 5.11081C36.9942 5.49223 37.5021 5.81489 37.9485 6.19953C38.2841 6.50967 38.7458 6.93282 38.9848 7.31414C39.7563 8.34587 39.6828 8.78786 40.1465 9.88538C40.2201 10.0605 41.032 10.9518 41.2883 11.3341C41.1586 11.4266 41.0788 11.4741 40.9401 11.5522C40.718 11.5185 40.5525 11.2618 40.3823 11.0682L40.3435 11.1366C41.2841 12.3949 41.2678 12.8449 41.4459 14.3433C41.3865 15.5471 41.3414 15.7541 41.7001 16.8979C41.2936 17.5844 41.0735 16.9291 40.4485 17.7337C40.6539 17.8933 40.7815 17.9092 40.9475 18.081C40.8225 18.309 40.7069 18.4992 40.5688 18.7192L40.2206 19.3588L40.5756 19.6851L40.4595 19.9114C40.2421 19.9423 40.2295 19.857 40.0656 19.9048L39.9832 19.9302C39.6791 19.967 39.6402 19.9874 39.3839 19.824C39.105 20.179 38.8335 20.5396 38.5693 20.9056C38.1864 21.4277 37.168 23.1439 36.8182 23.41C36.3371 23.591 35.8046 23.8026 35.3209 23.9615L34.5519 24.2364C34.7263 23.8149 35.5199 23.4821 35.9185 23.1034C36.7647 22.2999 38.0961 21.2457 38.6402 20.2328C38.845 19.6427 38.7169 18.9614 38.8041 18.3391C38.8739 17.8388 39.3708 17.204 39.0872 16.781C40.75 16.1327 40.4863 14.0158 39.6996 12.7565C39.4396 12.3904 39.1702 12.2144 38.7762 12.028L38.7111 11.9899C38.7321 11.9505 38.7552 11.913 38.7594 11.8665C38.9312 10.4961 38.1623 9.70722 37.584 8.63882C37.0246 7.60424 36.2295 6.83812 35.6465 5.8994L35.6108 5.84126C35.7079 5.75559 35.8004 5.76366 35.9343 5.74746L35.9963 5.74034L36.0835 5.62945L36.1155 5.61737L36.1423 5.54103C36.3041 5.40603 36.4023 5.27958 36.5278 5.11081Z" fill="#E8A74B"/>
<path d="M38.9848 7.31414C39.7563 8.34587 39.6828 8.78786 40.1465 9.88538C40.2201 10.0605 41.032 10.9518 41.2883 11.3341C41.1586 11.4266 41.0788 11.4741 40.9401 11.5522C40.718 11.5185 40.5525 11.2618 40.3823 11.0682L40.3435 11.1366C39.0756 9.97237 39.4942 9.25353 38.4968 7.68717C38.7615 7.63679 38.7542 7.73175 38.9396 7.60319L38.9848 7.31414Z" fill="#5C1C08"/>
<path d="M36.5278 5.11081C36.9942 5.49223 37.5021 5.81489 37.9485 6.19953C37.5346 6.39704 37.7085 6.46346 37.4837 6.66472C37.1423 6.41323 36.3891 5.88457 36.1155 5.61737L36.1423 5.54103C36.3041 5.40603 36.4023 5.27958 36.5278 5.11081Z" fill="#551C05"/>
<path d="M37.9485 6.19953C38.2841 6.50967 38.7458 6.93282 38.9848 7.31414L38.9396 7.60319C38.7542 7.73175 38.7615 7.63679 38.4968 7.68717C38.2358 7.3814 37.7841 6.9429 37.4837 6.66472C37.7085 6.46346 37.5346 6.39704 37.9485 6.19953Z" fill="#66260A"/>
<path d="M39.761 18.9039C40.1623 18.8028 40.1171 18.6033 40.4328 18.591L40.5688 18.7192L40.2206 19.3588L40.5756 19.6851L40.4595 19.9114C40.2421 19.9423 40.2295 19.857 40.0656 19.9048L39.9832 19.9302C39.6791 19.967 39.6402 19.9874 39.3839 19.824C39.6975 19.4071 39.5368 19.2792 39.761 18.9039Z" fill="#551C05"/>
<path d="M40.4485 17.7337C40.6539 17.8933 40.7815 17.9092 40.9475 18.081C40.8225 18.309 40.7069 18.4992 40.5688 18.7192L40.4328 18.591C40.1171 18.6033 40.1623 18.8028 39.761 18.9039C39.8955 18.596 40.2605 18.0388 40.4485 17.7337Z" fill="#743211"/>
<path d="M23.586 0.0518993C24.1427 -0.0396838 25.3486 0.00267936 25.9106 0.0806517C26.6611 0.207001 27.2273 0.357406 27.9322 0.615327C28.3486 0.76779 29.1638 1.15612 29.5246 1.2228C31.7725 1.63767 33.9732 1.88467 35.5367 3.80829C35.8566 4.20231 36.1896 4.69004 36.5278 5.11081C36.4023 5.27958 36.3041 5.40603 36.1423 5.54103L36.1155 5.61737L36.0835 5.62945L35.9963 5.74034L35.9343 5.74746C35.8004 5.76366 35.7079 5.75559 35.6108 5.84126C35.063 4.99301 34.7274 4.39608 33.9406 3.72947C33.5793 3.42338 33.4353 3.34135 33.4206 2.93165C31.8902 2.05301 30.1244 2.26324 28.5325 1.55754C27.658 1.16984 26.7446 0.849981 25.794 0.726797C24.9983 0.622289 24.5871 0.630573 23.795 0.673991C23.0976 0.780029 22.0449 1.02877 21.4718 1.42285C20.7262 1.7158 20.3976 1.67043 19.7194 1.83107C18.9751 1.95842 17.667 2.27453 17.0348 2.65326C16.0575 3.23879 15.9479 3.42792 14.8644 3.80032C13.8522 4.37551 13.828 4.64129 13.0497 5.32115C11.8325 6.38443 10.3853 7.65794 9.87173 9.25775C9.77352 9.56367 9.71181 9.93797 9.60881 10.259C9.31795 10.0828 9.27509 10.0481 8.93769 10.0687C9.13764 9.55888 9.25172 8.71347 9.53203 8.24506C10.3612 6.85955 11.5593 5.71006 12.7753 4.67068C13.2132 4.29638 13.509 3.89681 14.0118 3.5128C14.4775 3.20767 14.9555 3.04661 15.4503 2.80889C15.8626 2.58131 16.2684 2.31885 16.6692 2.07053C17.9316 1.28843 19.4706 1.32752 20.8 0.942937C21.8863 0.628673 22.2948 0.211642 23.586 0.0518993Z" fill="#5F2209"/>
<path d="M33.4206 2.93165C34.3145 3.44491 34.865 3.98343 35.4763 4.81712C35.646 5.04904 35.9038 5.4303 36.0835 5.62945L35.9963 5.74034L35.9343 5.74746C35.8004 5.76366 35.7079 5.75559 35.6108 5.84126C35.063 4.99301 34.7274 4.39608 33.9406 3.72947C33.5793 3.42338 33.4353 3.34135 33.4206 2.93165Z" fill="#E8A74B"/>
<path d="M23.586 0.0518993C24.1427 -0.0396838 25.3486 0.00267936 25.9106 0.0806517C25.9138 0.200934 25.9243 0.252529 25.8791 0.3659C25.4784 0.657426 25.1485 0.388214 24.7961 0.240658C24.7021 0.201302 24.149 0.411111 24.0146 0.445666C23.795 0.502114 23.7751 0.545161 23.5645 0.43485C23.4782 0.24166 23.4999 0.313882 23.586 0.0518993Z" fill="#66260A"/>
<path d="M23.795 0.673991C24.5871 0.630573 24.9983 0.622289 25.794 0.726797L25.7541 0.83331C25.2725 0.967942 24.8077 0.970949 24.3423 1.11856C23.2312 1.39341 22.5953 1.7187 21.5427 2.06135C20.7601 2.3161 19.4974 2.35398 18.6574 2.62346C17.6936 2.93265 17.2469 3.34663 16.4183 3.86758C16.0246 4.11506 15.2823 4.27987 14.8917 4.51093C13.4914 5.33903 12.346 6.48657 11.505 7.87356C10.7928 9.04815 10.6196 9.8628 10.1414 11.0915C9.9701 11.5317 9.4784 12.1243 9.24142 12.7201C8.714 13.4135 8.40355 14.1489 9.00182 14.939C8.60623 15.8292 8.1931 17.1177 8.18443 18.0848L8.1692 18.1377C8.07025 18.493 8.16279 18.4879 7.92382 18.8635C7.73422 18.4758 7.45123 18.0078 7.23353 17.625C7.36016 16.7256 7.55381 16.1851 7.79057 15.3192C7.85953 15.0669 7.79714 14.3229 7.81326 14.0325C7.86841 13.0366 8.36925 12.1597 8.86285 11.3307C8.47188 11.2334 8.51763 11.5617 8.1765 11.1586C8.4359 10.797 8.69441 10.4417 8.93769 10.0687C9.27509 10.0481 9.31795 10.0828 9.60881 10.259C9.71181 9.93797 9.77352 9.56367 9.87173 9.25775C10.3853 7.65794 11.8325 6.38443 13.0497 5.32115C13.828 4.64129 13.8522 4.37551 14.8644 3.80032C15.9479 3.42792 16.0575 3.23879 17.0348 2.65326C17.667 2.27453 18.9751 1.95842 19.7194 1.83107C20.3976 1.67043 20.7262 1.7158 21.4718 1.42285C22.0449 1.02877 23.0976 0.780029 23.795 0.673991Z" fill="#FCD593"/>
<path d="M8.1765 11.1586C8.4359 10.797 8.69441 10.4417 8.93769 10.0687C9.27509 10.0481 9.31795 10.0828 9.60881 10.259C9.39458 10.6392 9.14478 10.998 8.86285 11.3307C8.47188 11.2334 8.51763 11.5617 8.1765 11.1586Z" fill="#66260A"/>
<path d="M19.7194 1.83107C20.3976 1.67043 20.7262 1.7158 21.4718 1.42285C21.103 1.88915 20.8313 1.95932 20.2265 1.97757C19.9609 1.98554 19.9233 1.99973 19.7194 1.83107Z" fill="#F9D795"/>
<path d="M39.0872 16.781C37.8592 16.9173 36.7069 16.6356 35.9952 15.5401C35.6276 14.9706 35.5057 14.2759 35.657 13.6145C36.0173 12.0438 37.2715 11.6114 38.7111 11.9899L38.7762 12.028C39.1702 12.2144 39.4396 12.3904 39.6996 12.7565C40.4863 14.0158 40.75 16.1327 39.0872 16.781Z" fill="#974F1E"/>
<path d="M38.7762 12.028C39.1702 12.2144 39.4396 12.3904 39.6996 12.7565L39.2174 12.9176C39.0378 12.6579 38.7804 12.3423 38.7762 12.028Z" fill="#743211"/>
<path d="M13.2589 24.5297C13.5834 23.3393 14.4422 22.5902 15.7139 22.9493C16.2683 23.1109 16.7361 23.4868 17.0147 23.9945C17.3012 24.5172 17.3161 24.9952 17.251 25.5773L17.121 25.9772C16.7277 25.7991 16.3107 25.7184 15.8572 25.4921C15.0234 25.2235 14.0866 24.8436 13.2589 24.5297Z" fill="#9A5221"/>
<path d="M17.251 25.5773C17.2752 25.6347 17.2903 25.644 17.3297 25.6942C18.015 25.8916 20.2528 26.6253 20.7671 26.6572C23.6611 26.837 26.8691 25.9287 29.657 25.2027C30.439 24.999 31.3187 24.8475 32.044 24.6166C31.9894 24.7576 31.9317 24.9194 31.8707 25.0554C28.6112 25.8718 25.336 26.6131 22.145 27.6559C20.5645 27.0532 18.7633 26.5913 17.121 25.9772L17.251 25.5773Z" fill="#E8A74B"/>
<path d="M9.24142 12.7201C11.436 11.0521 11.5213 16.447 9.00182 14.939C8.40355 14.1489 8.714 13.4135 9.24142 12.7201Z" fill="#995423"/>
<path d="M32.044 24.6166C32.1407 24.3797 32.2904 24.1684 32.4821 23.9994C33.1838 23.374 33.9837 23.5604 34.5519 24.2364C34.3187 24.3077 33.98 24.4239 33.7484 24.4516L33.7662 24.4886C33.981 24.5834 33.9963 24.7413 34.0976 25.0039L34.1171 25.0543L33.0309 25.3896C32.9122 24.99 32.9159 25.1227 32.5892 24.8337L32.3403 24.8998L31.8707 25.0554C31.9317 24.9194 31.9894 24.7576 32.044 24.6166Z" fill="#9A5221"/>
<path d="M33.7662 24.4886C33.981 24.5834 33.9963 24.7413 34.0976 25.0039L34.1171 25.0543L33.0309 25.3896C32.9122 24.99 32.9159 25.1227 32.5892 24.8337C32.9768 24.7005 33.3713 24.5971 33.7662 24.4886Z" fill="#551C05"/>
<path d="M32.3403 24.8998C32.5666 24.4624 33.3187 24.2459 33.7484 24.4516L33.7662 24.4886C33.3713 24.5971 32.9768 24.7005 32.5892 24.8337L32.3403 24.8998Z" fill="#8D4819"/>
<path d="M8.72839 20.5592C8.97341 20.1994 8.59378 19.7021 9.04478 19.3328C9.88481 19.3736 9.73434 20.9134 9.81958 21.5222C9.82688 21.5744 9.80209 21.6277 9.77483 21.6714L9.72031 21.6625C9.58996 21.6422 9.51984 21.6136 9.40624 21.6715C9.35965 21.6193 9.01663 21.0114 8.95818 20.91L8.72839 20.5592Z" fill="#E8A74B"/>
<path d="M8.18443 18.0848C8.19483 18.6114 8.20539 18.8826 8.38674 19.3812C8.48128 19.6115 8.69136 20.0394 8.66757 20.2646L8.59557 20.3304L8.23795 19.7762L8.10176 19.5578C8.06017 19.2629 8.01694 19.1446 7.92382 18.8635C8.16279 18.4879 8.07025 18.493 8.1692 18.1377L8.18443 18.0848Z" fill="#F9D795"/>
<path d="M15.0621 9.08397C13.0696 7.66227 15.4604 3.73844 18.1053 5.79579C18.2602 5.75047 18.3913 5.72082 18.5437 5.80729C20.4662 6.89769 19.2543 9.04994 17.5686 9.47926C17.2128 9.5699 16.7264 9.59686 16.3948 9.39359C15.8071 9.44761 15.5686 9.39723 15.0621 9.08397Z" fill="#8D4819"/>
<path d="M15.0621 9.08397C13.0696 7.66227 15.4604 3.73844 18.1053 5.79579L18.1082 5.84147C17.9004 6.19651 17.832 6.09665 17.6196 6.31131C17.8855 6.30793 17.8007 6.21055 17.9595 6.3322C17.7732 6.46446 17.1211 6.40437 16.9509 6.52798C16.8916 6.57102 16.6404 7.13049 16.561 7.24576C16.3592 7.53845 15.103 8.84546 15.0621 9.08397Z" fill="#9A5221"/>
<path d="M18.1053 5.79579C18.2602 5.75047 18.3913 5.72082 18.5437 5.80729C20.4662 6.89769 19.2543 9.04994 17.5686 9.47926C17.2128 9.5699 16.7264 9.59686 16.3948 9.39359C18.1307 9.0328 19.2015 7.4484 18.1082 5.84147L18.1053 5.79579Z" fill="#E8A74B"/>
<path d="M26.1821 14.2447C27.6716 12.7482 29.6501 13.9595 29.6317 15.9087C29.6207 17.083 28.8455 18.3155 27.5724 18.2897C27.0556 18.2827 26.564 18.0676 26.2068 17.6927C25.5041 16.9459 25.4374 15.8621 25.7509 14.9271C25.9106 14.6099 25.9579 14.5143 26.1821 14.2447Z" fill="#5F2209"/>
<path d="M26.7063 14.5644C27.1086 14.3879 27.544 14.3889 27.7357 14.8533C27.8366 15.1045 27.8276 15.3867 27.711 15.631C27.4069 16.2581 26.4379 16.1449 26.4038 15.1929L26.4216 14.9958L26.5246 14.7971L26.7063 14.5644Z" fill="#FDFDFD"/>
<path d="M26.5246 14.7971C26.7515 14.8315 26.7604 14.7946 26.9048 14.9201C26.7672 15.1476 26.6002 15.1069 26.4038 15.1929L26.4216 14.9958L26.5246 14.7971Z" fill="#EDECF0"/>
<path d="M25.7509 14.9271C25.9106 14.6099 25.9579 14.5143 26.1821 14.2447C26.4547 14.3321 26.5419 14.3282 26.7063 14.5644L26.5246 14.7971L26.4216 14.9958C26.1669 14.9947 25.9978 15.0064 25.7509 14.9271Z" fill="#743211"/>
<path d="M28.1632 16.4574C28.4096 16.4252 28.6359 16.6 28.668 16.8478C28.6995 17.0955 28.5256 17.3224 28.2788 17.3545C28.0325 17.3865 27.8066 17.2118 27.7746 16.9641C27.7425 16.7164 27.9164 16.4896 28.1632 16.4574Z" fill="#FDFDFD"/>
<path d="M16.36 13.2237C19.1429 12.962 19.6078 17.0562 17.0893 17.9009C14.2576 18.172 13.8427 14.0009 16.36 13.2237Z" fill="#5F2209"/>
<path d="M16.1711 14.0068C17.2034 14.1911 17.2326 15.1996 16.3379 15.6214C15.338 15.4994 15.2499 14.4419 16.1711 14.0068Z" fill="#FDFDFD"/>
<path d="M17.1777 16.097C17.4106 16.0243 17.6585 16.1531 17.734 16.3861C17.8094 16.6191 17.6845 16.8698 17.4536 16.9487C17.3015 17.0007 17.1332 16.9665 17.0132 16.859C16.8933 16.7516 16.8402 16.5876 16.8742 16.4298C16.9082 16.2721 17.0242 16.1449 17.1777 16.097Z" fill="#FDFDFD"/>
<path d="M26.7987 2.58072C27.397 2.57978 27.9553 2.72939 28.4169 3.12621C28.8224 3.47055 29.0713 3.96555 29.1065 4.49764C29.1485 5.03179 28.9705 5.55981 28.6139 5.95822C28.1196 6.51484 27.5792 6.66018 26.8728 6.70186C23.929 6.57704 23.5844 2.82408 26.7987 2.58072Z" fill="#9A5221"/>
<path d="M33.8791 10.5614C33.1228 10.7419 32.4679 10.351 31.9301 9.86628C30.1144 8.23097 32.9689 6.59545 34.2163 7.96171C34.6601 8.44785 34.7337 9.09515 34.7106 9.73312C34.5519 10.1149 34.418 10.3469 34.0094 10.5112C33.9663 10.5288 33.9233 10.5455 33.8791 10.5614Z" fill="#9A5221"/>
<path d="M33.8791 10.5614C33.9532 10.2254 34.2258 9.60124 34.6197 9.60065L34.7106 9.73312C34.5519 10.1149 34.418 10.3469 34.0094 10.5112C33.9663 10.5288 33.9233 10.5455 33.8791 10.5614Z" fill="#743211"/>
<path d="M29.7111 18.3906C30.4716 18.3475 31.2557 18.6422 31.4516 19.4629C31.5188 19.7442 31.4684 20.0409 31.3124 20.284C31.064 20.6793 30.7247 20.8241 30.3056 20.929C29.5587 20.9558 28.6564 20.6648 28.4652 19.8401C28.3991 19.5599 28.449 19.2645 28.6034 19.022C28.8555 18.6296 29.2819 18.4783 29.7111 18.3906Z" fill="#E8A74B"/>
<path d="M14.2821 17.7676C16.0366 17.5739 16.9278 19.7253 14.8562 20.2949C13.9895 20.3038 13.5761 20.0836 13.0819 19.375L13.0346 18.7381C13.3242 18.1052 13.6299 17.9148 14.2821 17.7676Z" fill="#E8A74B"/>
<path d="M19.8012 16.9235C20.4343 17.1694 20.1626 18.6259 21.9425 17.1475C22.3611 17.5157 23.3866 18.3955 23.8964 17.4295C23.9983 17.2365 23.9589 17.1751 24.1758 17.0754L24.283 17.1309C24.4027 17.3173 24.3959 17.3608 24.3985 17.5856C23.8591 18.7799 22.7769 18.5123 21.9261 17.8877C21.2497 18.2908 20.6274 18.4125 19.9235 17.9672C19.5578 17.7358 19.5495 17.2456 19.8012 16.9235Z" fill="#66260A"/>
<path d="M26.9374 23.9863C28.2756 23.9956 28.3439 25.4762 26.8439 25.7156C25.3607 25.6137 25.5435 24.2488 26.9374 23.9863Z" fill="#9A5221"/>
<path d="M27.3738 11.8345C27.6853 11.7193 27.8649 11.6999 28.0456 12.0211C28.0608 12.2881 28.013 12.3467 27.8092 12.5182C27.2835 12.7418 26.7562 12.9627 26.2278 13.181C25.9253 13.2451 25.825 13.2756 25.6075 13.0483C25.4978 12.6453 25.7956 12.5101 26.0918 12.3714C26.5256 12.2089 26.9531 12.0298 27.3738 11.8345Z" fill="#66260A"/>
<path d="M26.2278 13.181C25.9253 13.2451 25.825 13.2756 25.6075 13.0483C25.4978 12.6453 25.7956 12.5101 26.0918 12.3714C26.2137 12.6039 26.2089 12.9087 26.2278 13.181Z" fill="#551C05"/>
<path d="M27.3738 11.8345C27.6853 11.7193 27.8649 11.6999 28.0456 12.0211C28.0608 12.2881 28.013 12.3467 27.8092 12.5182C27.6018 12.3775 27.513 12.0894 27.3738 11.8345Z" fill="#551C05"/>
<path d="M16.7856 11.4537C17.2642 11.4919 18.7531 12.1774 18.8924 12.6588C18.8507 12.8895 18.8676 12.8147 18.7047 13.0162C18.1932 13.0062 16.7759 12.3473 16.6151 11.818C16.6226 11.6336 16.6649 11.608 16.7856 11.4537Z" fill="#5F2209"/>
<path d="M35.8744 17.8616C36.1602 17.8445 36.2505 17.813 36.4569 17.988C36.6134 18.445 36.0661 18.97 35.7284 19.2255C34.7647 19.3471 34.9117 18.2384 35.8744 17.8616Z" fill="#B86E34"/>
<path d="M20.4496 2.71298C21.2478 2.76172 21.3457 3.45129 20.4556 3.82174C20.4168 3.82037 20.3781 3.8182 20.3393 3.81519C20.0987 3.79573 19.9952 3.75384 19.8451 3.57495C19.6702 3.09799 20.0647 2.85473 20.4496 2.71298Z" fill="#9A5221"/>
<path d="M10.4799 16.7075C10.6854 16.6706 10.8944 16.7499 11.0243 16.914C11.1542 17.0781 11.184 17.3005 11.1018 17.4932C11.0197 17.686 10.839 17.8179 10.6311 17.8368C10.3284 17.8643 10.0578 17.6475 10.0172 17.3449C9.97672 17.0423 10.1807 16.7613 10.4799 16.7075Z" fill="#E8A74B"/>
<path d="M37.0415 19.6958C37.3035 19.6786 37.3529 19.674 37.5147 19.8873C37.5814 20.2768 37.314 20.4756 37.0257 20.6521C36.8414 20.6422 36.7389 20.6017 36.6202 20.4626C36.5084 20.0995 36.7831 19.8827 37.0415 19.6958Z" fill="#E8A74B"/>
<path d="M33.4133 42.1968C33.605 42.0676 33.9989 41.7948 34.1302 41.6239C34.0498 42.2316 33.9332 42.7856 33.8103 43.3865C33.6344 43.1375 33.5168 43.0736 33.2678 42.9222C33.3056 42.6938 33.3665 42.4268 33.4133 42.1968Z" fill="#551C05"/>
</svg>
