<svg width="110" height="118" viewBox="0 0 110 118" fill="none" xmlns="http://www.w3.org/2000/svg">
<path d="M70.0397 4.36303C73.8464 1.12756 77.8272 -0.432532 82.8531 0.10381C89.1079 0.771311 94.9555 3.38166 97.5613 9.33076C102.278 9.83028 106.486 11.735 108.624 16.2391C112.52 24.4459 106.611 33.3106 97.3465 32.2443C97.1924 32.2281 97.0385 32.2084 96.8852 32.1851C96.2822 35.8504 95.7149 39.458 95.3561 43.1581C95.3071 43.6644 95.0635 44.3276 94.8866 44.8167C96.9844 46.3079 98.5263 47.6747 99.5622 50.0629C99.7876 50.5827 100.452 52.2794 100.705 52.6313C102.322 54.8805 103.573 55.8637 104.006 58.8239C104.209 60.2068 104.27 61.6835 104.458 63.0764C104.619 64.2742 105.222 65.7044 105.205 66.9794C105.187 68.3193 104.805 69.7019 104.728 71.0403C104.709 71.3794 105.188 72.1601 105.147 72.6708C105.047 73.9164 104.324 75.4874 104.123 76.5867C103.763 78.5467 103.631 79.5684 103.008 81.5017C104.099 82.5162 104.94 83.7656 105.856 84.9329C106.192 85.3603 106.619 85.369 106.948 85.6627C108.414 86.9747 108.959 88.9234 108.637 90.7809C109.574 92.6994 110.455 95.1928 109.737 97.3079C109.332 98.493 108.469 99.4673 107.34 100.013C106 100.664 104.666 100.583 103.276 100.126C100.775 99.3015 99.9551 96.7965 98.6885 95.4748C98.6812 96.6964 99.2089 100.387 98.8695 101.071C97.3248 102.515 86.124 104.498 83.5784 104.693C84.5619 108.011 87.1287 110.717 87.206 114.154C87.2414 115.73 84.4689 117.009 83.1721 117.299C80.9367 117.907 77.2091 118.721 75.3689 116.79C75.2442 116.659 74.909 116.047 74.8131 115.874C74.8163 114.372 74.8953 114.153 75.5413 112.788C73.6189 111.091 72.8032 109.174 72.6483 106.64C72.6242 106.256 72.6192 105.871 72.6334 105.487C69.9523 105.641 67.263 105.558 64.5966 105.24C64.6555 106.619 64.6609 107.972 64.7263 109.363C64.8108 111.157 65.009 113.203 64.8999 114.973C64.1125 116.11 63.0952 116.757 61.6844 116.942C59.1252 117.279 55.4206 117.687 53.1364 116.268C51.4733 115.234 51.4955 112.959 52.6574 111.59C53.1719 110.985 53.631 110.633 54.2601 110.138C53.3345 107.802 53.3282 106.207 53.3119 103.786C53.3106 103.596 53.2301 103.553 53.0687 103.479C52.0555 103.173 50.6975 102.858 49.7003 102.606C47.8979 102.149 40.4745 99.9442 39.8789 98.6804C39.4178 97.702 40.2169 90.6801 40.522 89.4003C38.1379 90.1719 35.273 89.6062 32.9686 88.8226C32.4481 88.6641 32.168 88.4088 31.6058 88.5592C30.6517 88.8144 29.3034 87.9798 28.5014 87.4641C26.6672 86.2846 26.32 85.1277 26.4367 83.133C22.996 82.5491 21.1973 81.9381 18.99 79.1101C16.5755 78.6541 13.9952 78.8137 11.7052 78.3534C8.22573 77.654 2.93503 77.1677 0.491817 74.4619C-1.33744 72.4362 2.42956 70.7457 3.74392 70.192C4.29648 69.035 4.46732 68.4715 5.39673 67.5933C6.39779 66.6497 7.00245 66.347 8.32933 66.0103C8.49599 65.906 9.32157 65.6611 9.56024 65.5853C9.82597 64.1888 10.0863 63.2372 11.067 62.1201C12.4143 60.6125 14.3 59.6915 16.3199 59.5546L16.9576 59.3958L17.0266 59.3159C17.1892 58.8044 17.4534 58.06 17.8398 57.684C18.634 56.3835 20.2308 55.4433 21.6691 55.0111C22.0192 54.8388 22.4377 54.7591 22.8205 54.6681C22.9505 54.9728 23.0511 55.3024 23.2902 55.5146L24.4317 55.4601C25.0306 55.4754 25.7562 55.4626 26.299 55.7178C27.0938 56.0773 27.7253 56.3667 28.487 56.7932C29.4971 57.5481 29.7029 57.8192 30.3104 58.9194C30.4309 58.7292 30.4221 58.7425 30.4383 58.5169C30.035 58.2039 29.7629 57.4621 29.6117 56.9925C29.8723 57.0943 29.8693 57.2567 30.0183 57.579C30.3917 57.6488 30.4661 57.7655 30.7687 57.9871C31.1733 59.367 31.1192 59.5213 32.6295 59.6741L32.7017 59.7897C33.0244 59.8584 33.8534 60.0152 34.1241 60.1127C34.992 60.5647 35.4088 60.8096 36.1677 61.4794C36.9797 62.0522 36.8209 62.2857 37.4502 62.9556C37.8284 63.596 38.1037 64.0889 38.4354 64.7593C39.0075 62.573 38.6496 61.3298 39.2239 59.2256C39.8637 56.8811 40.8465 55.572 42.0773 53.5365C42.5718 52.7188 42.8583 51.0799 43.3428 50.2554C44.9353 47.5453 47.0012 45.6066 49.3775 43.618C50.5525 42.6347 50.8771 42.0812 52.3023 41.2445C54.4581 39.9979 56.6793 38.8675 58.9562 37.8577C59.1529 35.757 61.932 25.9449 61.739 25.2209C60.5596 24.7363 59.5941 24.3544 58.4915 23.6414C50.7745 18.6513 52.9719 7.78427 60.9912 4.52348C64.0515 3.27905 66.8334 3.33396 70.0397 4.36303Z" fill="#6A2409"/>
<path d="M27.124 63.745C27.5222 63.4735 27.3377 63.5307 27.8201 63.5294L27.9904 63.5894C36.151 69.4722 24.2644 70.9276 20.209 69.5724C18.5896 69.0312 18.2691 68.9587 17.7003 67.2379C18.0665 65.8488 18.1962 65.2563 19.3522 64.3457C20.258 63.605 20.4085 63.6525 21.599 63.7353C21.8522 63.7788 22.3131 63.7567 22.5676 63.6902C22.6874 64.1445 22.9602 64.2001 23.2493 64.5548C23.5132 64.3145 25.2448 64.1474 25.641 64.4365L25.7529 64.2229L25.6102 63.6853C26.1785 63.5384 26.5808 63.4279 27.124 63.745Z" fill="#F5B853"/>
<path d="M21.599 63.7353C21.8522 63.7788 22.3131 63.7567 22.5676 63.6902C22.6874 64.1445 22.9602 64.2001 23.2493 64.5548C22.6998 65.1261 22.1582 65.3949 21.37 65.2574C21.0058 64.9997 21.1108 65.1455 20.9854 64.7015C21.0187 64.2504 21.277 64.0627 21.599 63.7353Z" fill="#97501F"/>
<path d="M25.6102 63.6853C26.1785 63.5384 26.5808 63.4279 27.124 63.745L27.3073 63.96C27.6206 64.2682 27.5568 64.1232 27.6042 64.5014C27.1156 65.2772 25.9904 65.3479 25.641 64.4365L25.7529 64.2229L25.6102 63.6853Z" fill="#97501F"/>
<path d="M25.6102 63.6853C26.1785 63.5384 26.5808 63.4279 27.124 63.745L27.3073 63.96C26.6878 64.3321 26.4873 64.2718 25.7529 64.2229L25.6102 63.6853Z" fill="#813D18"/>
<path d="M23.4953 68.5211C23.2977 68.0815 23.3327 68.2747 23.3758 67.7832C24.2694 66.5983 26.0708 67.4759 25.1878 68.795C25.2709 68.9615 25.407 69.005 25.5632 69.086C25.0766 69.1357 23.8029 69.2899 23.3759 69.1323C23.0242 69.0024 23.1489 69.0282 22.7251 68.9732L22.6329 68.962C23.1689 68.6861 22.9759 69.1564 23.4953 68.5211Z" fill="#97501F"/>
<path d="M23.4953 68.5211C24.0143 68.6353 24.8929 68.6593 25.1878 68.795C25.2709 68.9615 25.407 69.005 25.5632 69.086C25.0766 69.1357 23.8029 69.2899 23.3759 69.1323C23.0242 69.0024 23.1489 69.0282 22.7251 68.9732L22.6329 68.962C23.1689 68.6861 22.9759 69.1564 23.4953 68.5211Z" fill="#EF9F27"/>
<path d="M19.6141 66.1578C20.3531 66.2321 21.286 66.5011 21.2704 67.4056C21.162 67.5372 21.0581 67.5747 20.9076 67.6529C20.2104 67.66 19.4559 67.768 19.1935 67.0149C19.2432 66.6069 19.3738 66.4798 19.6141 66.1578Z" fill="#97501F"/>
<path d="M28.1874 66.1241C28.8664 66.1899 29.4533 66.3272 29.5656 67.1041C29.3368 67.5714 29.4719 67.4057 28.9963 67.7147C28.2907 67.7124 27.8249 67.7222 27.6232 66.9513C27.7213 66.4962 27.8478 66.4227 28.1874 66.1241Z" fill="#97501F"/>
<path d="M21.6691 55.0111C22.0192 54.8388 22.4377 54.7591 22.8205 54.6681C22.9505 54.9728 23.0511 55.3024 23.2902 55.5146L24.4317 55.4601C25.0306 55.4754 25.7562 55.4626 26.299 55.7178C27.0938 56.0773 27.7253 56.3667 28.487 56.7932C28.3497 57.9117 29.5471 58.5957 28.3095 60.0819C27.2719 61.3281 20.7065 62.486 19.8782 61.5152C19.016 61.5398 18.6024 61.5605 18.1955 60.7505C18.145 60.6895 17.8732 60.4567 17.7976 60.3897C17.8057 60.2031 17.7758 59.8424 17.7658 59.6411L17.6846 59.4807L17.0266 59.3159C17.1892 58.8044 17.4534 58.06 17.8398 57.684C18.634 56.3835 20.2308 55.4433 21.6691 55.0111Z" fill="#FAC55E"/>
<path d="M21.6691 55.0111C22.0192 54.8388 22.4377 54.7591 22.8205 54.6681C22.9505 54.9728 23.0511 55.3024 23.2902 55.5146L23.157 55.5652C23.0535 55.8508 21.3173 56.7989 20.9855 56.8818L20.3719 57.2191C19.6524 57.7185 19.2418 58.1278 18.7243 58.8246C18.4927 59.1363 18.3074 59.4744 17.917 59.4913L17.876 59.4638L17.7658 59.6411L17.6846 59.4807L17.0266 59.3159C17.1892 58.8044 17.4534 58.06 17.8398 57.684C18.634 56.3835 20.2308 55.4433 21.6691 55.0111Z" fill="#FED996"/>
<path d="M21.6691 55.0111L21.7972 55.2909C21.3759 55.8335 21.2315 55.3506 21.0466 55.9874C20.3144 56.6191 19.7393 56.8992 19.014 57.6348L17.8398 57.684C18.634 56.3835 20.2308 55.4433 21.6691 55.0111Z" fill="#581C0E"/>
<path d="M17.0266 59.3159C17.1892 58.8044 17.4534 58.06 17.8398 57.684L19.014 57.6348C18.5383 58.1823 18.1008 58.7623 17.876 59.4638L17.7658 59.6411L17.6846 59.4807L17.0266 59.3159Z" fill="#6A2409"/>
<path d="M21.6691 55.0111C22.0192 54.8388 22.4377 54.7591 22.8205 54.6681C22.9505 54.9728 23.0511 55.3024 23.2902 55.5146L23.157 55.5652C22.3047 55.58 21.8525 55.7127 21.0466 55.9874C21.2315 55.3506 21.3759 55.8335 21.7972 55.2909L21.6691 55.0111Z" fill="#702210"/>
<path d="M20.9855 56.8818C21.6972 57.0451 22.1638 57.1669 22.0666 57.9798C21.6824 58.5514 21.1595 58.8612 20.4648 58.6407C19.9571 58.1167 20.1495 57.8886 20.3719 57.2191L20.9855 56.8818Z" fill="#97501F"/>
<path d="M24.4317 55.4601C25.0306 55.4754 25.7562 55.4626 26.299 55.7178C26.1315 55.9732 26.2803 56.2414 26.0398 56.7523C25.5975 57.0628 24.7247 57.0938 24.2876 56.7783C24.1442 56.4052 24.35 55.9154 24.4317 55.4601Z" fill="#97501F"/>
<path d="M18.1955 60.7505C18.6689 60.1829 19.1642 59.8205 19.9326 60.193C20.3475 60.7398 20.2229 60.9235 19.8782 61.5152C19.016 61.5398 18.6024 61.5605 18.1955 60.7505Z" fill="#97501F"/>
<path d="M23.6782 59.5757C24.4425 59.5711 25.1282 59.907 24.9797 60.7736C24.6468 61.0366 24.8049 60.9669 24.3733 61.0269C23.9228 61.126 23.5753 61.2471 23.1613 61.052C22.659 60.4275 23.1999 60.0138 23.6782 59.5757Z" fill="#97501F"/>
<path d="M27.1703 57.4266C27.8621 57.5302 28.3363 57.7472 28.2654 58.5189C28.0892 58.9031 27.7918 58.9893 27.4093 59.1657C25.8014 59.1389 26.3356 58.1317 27.1703 57.4266Z" fill="#97501F"/>
<path d="M28.487 56.7932C29.4971 57.5481 29.7029 57.8192 30.3104 58.9194C30.4309 58.7292 30.4221 58.7425 30.4383 58.5169C30.035 58.2039 29.7629 57.4621 29.6117 56.9925C29.8723 57.0943 29.8693 57.2567 30.0183 57.579C30.3917 57.6488 30.4661 57.7655 30.7687 57.9871C31.1733 59.367 31.1192 59.5213 32.6295 59.6741L32.7017 59.7897L32.8141 60.6108L31.8069 60.5031L30.9649 60.297L30.9506 60.4117C30.8892 60.9381 30.932 61.0521 31.1058 61.5503C30.7718 62.2303 29.263 62.094 28.5289 62.9336C28.284 63.4118 28.4118 63.3128 27.9904 63.5894L27.8201 63.5294C27.3377 63.5307 27.5222 63.4735 27.124 63.745C26.5808 63.4279 26.1785 63.5384 25.6102 63.6853L25.7529 64.2229L25.641 64.4365C25.2448 64.1474 23.5132 64.3145 23.2493 64.5548C22.9602 64.2001 22.6874 64.1445 22.5676 63.6902C22.3131 63.7567 21.8522 63.7788 21.599 63.7353C20.4085 63.6525 20.258 63.605 19.3522 64.3457C19.4597 64.085 19.5262 64.0004 19.4777 63.7367L19.1247 63.6453L19.0335 63.3683C18.6496 63.7427 18.1644 64.1787 17.8737 64.6166C17.6562 64.5071 17.519 64.3547 17.341 64.1881C17.7887 63.0979 17.2041 63.2919 17.1683 61.9638C16.7256 61.1474 16.9643 61.1903 16.7988 60.3477L16.7822 60.267C17.0601 60.0685 17.1433 59.9745 17.1816 59.6641L16.9576 59.3958L17.0266 59.3159L17.6846 59.4807L17.7658 59.6411C17.7758 59.8424 17.8057 60.2031 17.7976 60.3897C17.8732 60.4567 18.145 60.6895 18.1955 60.7505C18.6024 61.5605 19.016 61.5398 19.8782 61.5152C20.7065 62.486 27.2719 61.3281 28.3095 60.0819C29.5471 58.5957 28.3497 57.9117 28.487 56.7932Z" fill="#6A2409"/>
<path d="M28.487 56.7932C29.4971 57.5481 29.7029 57.8192 30.3104 58.9194C30.2456 59.8145 30.2827 60.354 29.5076 60.9818C27.6563 62.4809 23.8434 62.8409 21.5285 62.709C20.3283 62.6405 19.1071 62.2304 18.1512 61.5645C18.0067 61.1698 17.8474 60.8049 17.7976 60.3897C17.8732 60.4567 18.145 60.6895 18.1955 60.7505C18.6024 61.5605 19.016 61.5398 19.8782 61.5152C20.7065 62.486 27.2719 61.3281 28.3095 60.0819C29.5471 58.5957 28.3497 57.9117 28.487 56.7932Z" fill="#EF9F27"/>
<path d="M24.7038 63.5024C24.9595 63.5333 25.4791 63.5403 25.6102 63.6853L25.7529 64.2229L25.641 64.4365C25.2448 64.1474 23.5132 64.3145 23.2493 64.5548C22.9602 64.2001 22.6874 64.1445 22.5676 63.6902C23.3767 63.6681 23.9067 63.6741 24.7038 63.5024Z" fill="#EF9F27"/>
<path d="M17.1683 61.9638C17.8142 62.5447 18.318 62.8793 19.0335 63.3683C18.6496 63.7427 18.1644 64.1787 17.8737 64.6166C17.6562 64.5071 17.519 64.3547 17.341 64.1881C17.7887 63.0979 17.2041 63.2919 17.1683 61.9638Z" fill="#EF9F27"/>
<path d="M24.7038 63.5024C25.4086 63.3992 27.317 62.9315 27.8201 63.5294C27.3377 63.5307 27.5222 63.4735 27.124 63.745C26.5808 63.4279 26.1785 63.5384 25.6102 63.6853C25.4791 63.5403 24.9595 63.5333 24.7038 63.5024Z" fill="#C77532"/>
<path d="M32.7017 59.7897C33.0244 59.8584 33.8534 60.0152 34.1241 60.1127C34.992 60.5647 35.4088 60.8096 36.1677 61.4794C36.9797 62.0522 36.8209 62.2857 37.4502 62.9556C36.9005 63.9117 37.5199 63.9569 37.3986 64.6845C37.4433 65.2017 37.5159 65.6763 37.3911 66.1811L36.9113 66.0579L36.8181 65.8682C36.5635 66.5331 36.6066 66.5404 35.8284 66.623L35.6561 66.7756C34.6497 67.0155 32.584 66.9339 31.652 66.5134C31.5055 66.2761 31.3327 65.8435 31.2139 65.5739C31.0761 65.507 30.7191 64.7505 30.5526 64.4945C29.926 63.9254 29.2954 63.2699 28.5289 62.9336C29.263 62.094 30.7718 62.2303 31.1058 61.5503C30.932 61.0521 30.8892 60.9381 30.9506 60.4117L30.9649 60.297L31.8069 60.5031L32.8141 60.6108L32.7017 59.7897Z" fill="#FAC55E"/>
<path d="M32.7017 59.7897C33.0244 59.8584 33.8534 60.0152 34.1241 60.1127C34.992 60.5647 35.4088 60.8096 36.1677 61.4794C35.7346 61.6534 35.6012 61.72 35.1329 61.7781L35.6698 62.2503L35.3027 62.4599C34.737 61.8447 34.4297 61.6478 33.6497 61.8922C33.1362 61.4508 32.4904 61.3417 31.8414 61.1939C31.692 61.1237 31.7293 61.1217 31.6149 60.9647L31.8069 60.5031L32.8141 60.6108L32.7017 59.7897Z" fill="#EF9F27"/>
<path d="M34.1241 60.1127C34.992 60.5647 35.4088 60.8096 36.1677 61.4794C35.7346 61.6534 35.6012 61.72 35.1329 61.7781C34.9076 61.5819 34.3967 61.3166 34.1133 61.1575C34.1053 60.8162 34.1179 60.4556 34.1241 60.1127Z" fill="#6A2409"/>
<path d="M32.7017 59.7897C33.0244 59.8584 33.8534 60.0152 34.1241 60.1127C34.1179 60.4556 34.1053 60.8162 34.1133 61.1575C33.8486 61.0273 33.6845 60.9797 33.4023 60.8895L32.8141 60.6108L32.7017 59.7897Z" fill="#581C0E"/>
<path d="M31.8069 60.5031L32.8141 60.6108L33.4023 60.8895C32.8595 61.3444 32.5534 61.2544 31.8414 61.1939C31.692 61.1237 31.7293 61.1217 31.6149 60.9647L31.8069 60.5031Z" fill="#FED996"/>
<path d="M30.5526 64.4945C30.9758 64.0384 30.8681 64.0198 31.3897 63.8663C32.1147 63.971 32.5268 64.3443 32.5666 65.0985C32.3998 65.5054 32.5136 65.3896 32.1598 65.5621C31.7636 65.5226 31.5366 65.4329 31.2139 65.5739C31.0761 65.507 30.7191 64.7505 30.5526 64.4945Z" fill="#97501F"/>
<path d="M33.6497 61.8922C34.4297 61.6478 34.737 61.8447 35.3027 62.4599C35.2842 62.7884 35.3148 63.0121 35.1139 63.2583C34.3151 63.5696 33.9695 63.3714 33.4774 62.7525C33.3781 62.2895 33.4212 62.4041 33.6497 61.8922Z" fill="#97501F"/>
<path d="M36.1677 61.4794C36.9797 62.0522 36.8209 62.2857 37.4502 62.9556C36.9005 63.9117 37.5199 63.9569 37.3986 64.6845C36.5496 63.3652 37.0291 63.617 35.6698 62.2503L35.1329 61.7781C35.6012 61.72 35.7346 61.6534 36.1677 61.4794Z" fill="#702210"/>
<path d="M35.8284 66.623C35.4741 66.4079 35.1878 66.2141 35.0507 65.8244C35.0875 65.3899 35.0204 65.5486 35.2958 65.2218C36.106 64.8449 36.4596 65.2073 36.8181 65.8682C36.5635 66.5331 36.6066 66.5404 35.8284 66.623Z" fill="#97501F"/>
<path d="M16.7822 60.267L16.7988 60.3477C16.9643 61.1903 16.7256 61.1474 17.1683 61.9638C17.2041 63.2919 17.7887 63.0979 17.341 64.1881C17.519 64.3547 17.6562 64.5071 17.8737 64.6166C17.792 64.9256 17.5156 65.3327 17.2135 65.4509L16.8635 66.0834C15.6172 67.0168 14.2631 66.7201 12.7295 66.7779L12.7608 66.2656C11.949 66.2899 11.6651 66.4008 11.1111 65.915C10.8841 65.7196 10.8938 65.792 10.4871 65.8028L10.6069 64.8754C10.8208 62.7121 13.6855 60.977 15.6389 60.54L15.7191 60.4876L16.7822 60.267Z" fill="#FAC55E"/>
<path d="M10.6069 64.8754C10.8208 62.7121 13.6855 60.977 15.6389 60.54C15.5879 61.2452 15.0996 61.6374 14.4206 61.7791C13.5963 61.7269 13.2339 61.7748 12.7576 62.5389C12.0091 63.278 11.3253 64.3596 10.6069 64.8754Z" fill="#FED996"/>
<path d="M17.2135 65.4509C16.652 65.1727 16.5517 65.5966 15.8139 65.5359C15.4767 65.29 15.5815 65.4228 15.4252 65.0255C15.4809 64.0108 16.5027 63.4816 17.341 64.1881C17.519 64.3547 17.6562 64.5071 17.8737 64.6166C17.792 64.9256 17.5156 65.3327 17.2135 65.4509Z" fill="#97501F"/>
<path d="M12.7576 62.5389C13.2339 61.7748 13.5963 61.7269 14.4206 61.7791C14.597 62.1356 14.7407 62.3197 14.6777 62.7034C14.3014 63.3969 13.8841 63.5118 13.1512 63.3111C12.8146 62.978 12.9058 63.0372 12.7576 62.5389Z" fill="#97501F"/>
<path d="M11.1111 65.915C11.518 65.1931 11.7746 64.6798 12.7319 64.9425C13.1877 65.3896 13.1969 65.757 12.7608 66.2656C11.949 66.2899 11.6651 66.4008 11.1111 65.915Z" fill="#97501F"/>
<path d="M10.4871 65.8028C10.8938 65.792 10.8841 65.7196 11.1111 65.915C11.6651 66.4008 11.949 66.2899 12.7608 66.2656L12.7295 66.7779C14.2631 66.7201 15.6172 67.0168 16.8635 66.0834C16.9284 66.5168 17.0512 66.9711 16.8908 67.3639C16.1004 68.0403 12.8039 67.7343 11.8301 67.3458C10.9416 66.8506 10.902 66.7443 10.4871 65.8028Z" fill="#EF9F27"/>
<path d="M36.8181 65.8682L36.9113 66.0579L37.3911 66.1811C36.9856 66.9093 36.4701 67.3134 35.6457 67.5239C34.8523 67.7267 32.303 67.9821 31.698 67.5044C31.6385 67.0819 31.6401 66.9319 31.652 66.5134C32.584 66.9339 34.6497 67.0155 35.6561 66.7756L35.8284 66.623C36.6066 66.5404 36.5635 66.5331 36.8181 65.8682Z" fill="#EF9F27"/>
<path d="M16.9576 59.3958L17.1816 59.6641C17.1433 59.9745 17.0601 60.0685 16.7822 60.267L15.7191 60.4876C15.8998 59.962 16.2336 60.1309 16.3199 59.5546L16.9576 59.3958Z" fill="#702210"/>
<path d="M59.5399 39.0107C60.0392 39.3244 60.6963 39.8106 61.2167 40.1549L61.6297 40.365C63.7761 41.4033 68.2059 42.9331 70.5829 43.4011C72.889 43.6647 75.3744 44.6933 77.7599 44.8309C78.0546 44.8479 78.6413 44.8828 78.9019 44.9268C83.4045 46.0459 88.9493 45.4201 93.4401 45.3233L93.5202 45.405C94.071 45.9597 95.1363 46.7656 95.7449 47.236C98.0267 48.9995 98.3518 51.1515 99.4626 53.5708C100.153 54.6066 101.253 55.3032 101.884 56.3896C102.988 58.2911 102.551 61.1541 103.052 63.0538C104.061 66.8823 103.835 67.9536 103.095 71.7187C101.395 72.7669 99.3165 73.4574 97.4205 74.1048C92.584 75.7072 87.6505 77.0018 82.6497 77.9809C80.2521 78.4684 77.286 78.7852 75.0048 79.4771C72.0702 80.3673 68.9122 81.7521 65.9784 82.8075C63.693 81.5746 61.5967 80.2444 59.365 79.0066C58.1253 78.9627 53.719 77.7681 52.5581 77.256C50.8819 76.8526 49.0952 76.0654 47.5 75.3825C50.6168 72.2993 47.4019 71.2142 44.7581 69.9365C43.9653 68.2604 43.0855 66.948 41.2794 66.232C40.5278 65.9586 40.2596 65.8677 39.4449 65.7389C40.553 62.9946 39.8967 61.9057 40.5589 59.3517C41.2116 56.8349 43.3504 54.8135 44.0874 52.2231C44.8907 49.3995 47.5926 46.9627 49.725 45.1028C50.5035 44.5355 51.8445 42.9643 52.6931 42.5977C54.9681 41.6151 57.3676 40.0184 59.5399 39.0107Z" fill="#FAC55E"/>
<path d="M59.5399 39.0107C60.0392 39.3244 60.6963 39.8106 61.2167 40.1549C61.1522 40.2946 60.9997 40.6138 60.8731 40.6957C59.8874 41.3344 54.9479 43.1321 54.3323 43.6221C51.6435 45.7625 48.1217 49.6321 46.1254 52.4285C45.6828 53.0485 44.2516 56.4155 44.0782 57.0898C43.271 57.6868 42.9649 58.0159 42.8316 59.0449C42.7654 59.6334 42.4952 60.0101 42.2191 60.5143C41.2316 62.3167 41.4989 64.2589 41.2794 66.232C40.5278 65.9586 40.2596 65.8677 39.4449 65.7389C40.553 62.9946 39.8967 61.9057 40.5589 59.3517C41.2116 56.8349 43.3504 54.8135 44.0874 52.2231C44.8907 49.3995 47.5926 46.9627 49.725 45.1028C50.5035 44.5355 51.8445 42.9643 52.6931 42.5977C54.9681 41.6151 57.3676 40.0184 59.5399 39.0107Z" fill="#FED996"/>
<path d="M70.5829 43.4011C72.889 43.6647 75.3744 44.6933 77.7599 44.8309C78.0546 44.8479 78.6413 44.8828 78.9019 44.9268C77.6097 47.5886 73.4598 47.0828 71.5938 45.1305C71.1263 44.4595 70.8996 44.1649 70.5829 43.4011Z" fill="#97501F"/>
<path d="M61.6297 40.365C63.7761 41.4033 68.2059 42.9331 70.5829 43.4011C70.8996 44.1649 71.1263 44.4595 71.5938 45.1305C69.728 45.585 62.6993 42.6464 61.452 40.8351C61.3683 40.7134 61.5484 40.5018 61.6297 40.365Z" fill="#EF9F27"/>
<path d="M44.0782 57.0898C45.1105 56.9591 46.0899 57.0831 46.2049 58.3614C46.458 61.1734 42.9462 63.1627 42.8316 59.0449C42.9649 58.0159 43.271 57.6868 44.0782 57.0898Z" fill="#97501F"/>
<path d="M52.5581 77.256C54.8789 74.4736 58.1799 76.3223 59.365 79.0066C58.1253 78.9627 53.719 77.7681 52.5581 77.256Z" fill="#97501F"/>
<path d="M95.2693 56.0781C99.5091 55.7709 101.92 60.8245 99.6521 64.2038C99.0698 65.0713 97.8972 65.202 96.9233 65.2626C95.6483 65.1667 94.7078 65.0623 93.6101 64.3348C90.8458 62.5031 90.7301 58.4 93.5917 56.608C94.1986 56.2279 94.5588 56.1931 95.2693 56.0781Z" fill="#97501F"/>
<path d="M64.6933 65.0896C66.9104 64.9729 67.9053 66.94 71.5842 65.6594C75.5194 64.2897 75.874 68.2674 73.2005 70.9233C67.4912 75.6051 60.3978 67.5525 64.6933 65.0896Z" fill="#6A2409"/>
<path d="M69.8564 67.8599C70.7919 67.7569 72.7741 67.8841 72.9931 69.0333C72.7963 70.4386 70.7816 70.9453 69.6057 71.0506C67.9933 71.0374 67.1899 70.6622 65.8408 69.9278C67.1472 68.5886 68.0205 68.1174 69.8564 67.8599Z" fill="#F4613B"/>
<path d="M79.7349 57.9651C85.5101 57.5381 85.5676 64.978 81.3394 66.4518C76.6053 67.286 74.9399 59.9972 79.7349 57.9651Z" fill="#6A2409"/>
<path d="M79.1627 59.371C80.9342 59.3114 81.4281 61.0335 79.9713 62.2109C78.0409 62.4281 77.8435 60.3466 79.1627 59.371Z" fill="#FCFCFE"/>
<path d="M81.4146 63.247C81.6868 63.1444 81.9934 63.1981 82.2143 63.387C82.4352 63.5759 82.5354 63.8699 82.4754 64.154C82.4155 64.438 82.2051 64.6668 81.9266 64.7509C81.5156 64.8748 81.08 64.6515 80.9419 64.2458C80.8037 63.8401 81.0128 63.3983 81.4146 63.247Z" fill="#FCFCFE"/>
<path d="M57.761 56.6804C62.9084 56.1223 63.5528 63.8851 59.0725 65.0779C56.9232 65.1884 55.4702 64.5119 54.9331 62.3022C54.3475 59.893 55.159 57.2869 57.761 56.6804Z" fill="#6A2409"/>
<path d="M57.1782 58.0621C59.2238 58.3231 59.0863 60.0264 57.6432 61.0754C56.3198 61.1905 55.4338 59.0503 57.1782 58.0621Z" fill="#FCFCFE"/>
<path d="M59.2666 61.8261C59.6494 61.7069 60.0599 61.9005 60.2103 62.2715C60.3608 62.6424 60.2008 63.0664 59.8424 63.2463C59.5831 63.3764 59.2726 63.3501 59.0389 63.1782C58.8052 63.0063 58.6884 62.718 58.7365 62.4324C58.7846 62.1469 58.9896 61.9124 59.2666 61.8261Z" fill="#FCFCFE"/>
<path d="M55.8775 44.8138C60.6897 43.8032 62.2526 50.5096 56.5009 52.2187C55.3434 52.2709 54.3682 52.367 53.4269 51.5279C50.9594 49.3285 52.6321 45.0182 55.8775 44.8138Z" fill="#944A1C"/>
<path d="M86.4515 48.1259C86.9085 47.9603 87.8803 48.1059 88.2959 48.3709C89.4965 49.1367 89.8341 50.487 90.1493 51.777C89.625 53.5272 89.1329 53.9683 87.3108 53.894C84.2374 53.9866 81.5545 48.5671 86.4515 48.1259Z" fill="#97501F"/>
<path d="M54.0699 65.8286C55.3002 65.7453 55.7372 66.0225 56.6608 66.7819C57.3839 68.6017 57.0927 69.8932 55.0422 70.4214C54.3417 70.4548 53.522 70.5675 52.9679 70.1404C50.6352 68.3421 51.531 66.369 54.0699 65.8286Z" fill="#EF9F27"/>
<path d="M83.3726 67.4825C84.5772 67.4067 86.0624 67.8067 86.6054 68.9944C86.8288 69.4772 86.8455 70.0299 86.6518 70.5253C86.2921 71.4326 85.5813 71.7172 84.7425 72.0627C84.2896 72.1332 83.836 72.1686 83.3796 72.2102C82.6535 71.856 82.4096 71.7378 81.7596 71.219C81.1025 69.4337 81.3625 68.0078 83.3726 67.4825Z" fill="#EF9F27"/>
<path d="M68.7333 7.0338C73.4504 2.77723 77.5984 0.311661 84.1529 1.51394C88.0158 2.22251 91.4364 3.49266 94.2378 6.33043C95.9419 8.22004 96.4699 10.478 97.8526 12.0697C98.0758 11.6484 97.88 10.9657 97.7914 10.4807C98.7899 10.6578 99.9876 10.9723 100.991 11.2093C107.256 13.7527 110.297 19.3726 107.599 25.8402L107.548 25.9591C106.286 28.3453 104.4 29.8366 101.837 30.6641C100.217 31.1872 98.7207 31.1073 97.0288 31.0587C97.2935 29.9298 97.4549 28.1725 97.847 27.3157L98.1568 27.19L98.2057 26.7849C98.6214 26.4175 99.6448 26.3355 100.202 26.3009C100.372 26.1319 100.362 26.1244 100.447 25.9117C100.252 25.6092 100.337 25.7091 99.9812 25.5353C98.9308 25.6363 98.259 25.6984 97.2079 25.6579C94.3029 25.4161 92.1169 24.3034 89.9295 22.4715C89.3899 21.9296 88.2689 20.8752 87.8626 20.3213C88.0233 19.9579 88.0548 19.8452 88.1399 19.4563C83.862 20.7844 79.4053 20.8104 75.3154 18.8479C73.0574 17.7644 72.0955 16.5834 70.476 14.7865C70.3882 15.0179 70.5133 15.2289 70.5993 15.5183C71.3587 16.5981 71.5526 16.9861 72.4858 18.049C69.8326 19.2318 67.1119 20.1558 64.2073 19.3736C61.9353 18.6747 61.1052 18.2029 59.329 16.6267C59.8303 17.482 60.3229 18.0131 61.0212 18.7146C61.3718 19.0668 62.3082 19.4988 62.3973 19.7658L62.0556 20.0521C62.3555 20.3946 62.3667 20.2982 62.9269 20.4036C63.1358 20.9107 62.4046 23.3743 62.2006 23.9674C60.2494 23.4079 58.2734 22.3034 57.0312 20.6641C54.9157 18.4101 54.4156 14.9517 55.4299 12.086C56.4026 9.33159 58.4284 7.07317 61.0649 5.80415C63.5857 4.61363 67.026 4.49089 69.6282 5.42452L68.7333 7.0338Z" fill="#FCFCFE"/>
<path d="M101.744 25.7916C101.771 26.4412 101.657 26.4238 102.002 26.7983C103.424 27.3637 105.755 26.2305 107.127 25.8159C107.293 25.8724 107.433 25.9202 107.548 25.9591C106.286 28.3453 104.4 29.8366 101.837 30.6641C100.217 31.1872 98.7207 31.1073 97.0288 31.0587C97.2935 29.9298 97.4549 28.1725 97.847 27.3157L98.1568 27.19L98.2057 26.7849C98.6214 26.4175 99.6448 26.3355 100.202 26.3009L101.744 25.7916Z" fill="#E1E1EE"/>
<path d="M98.2057 26.7849C98.9007 27.3613 100.358 27.7665 101.267 28.3374C99.8944 28.2068 99.08 28.0554 97.847 27.3157L98.1568 27.19L98.2057 26.7849Z" fill="#702210"/>
<path d="M87.8626 20.3213L89.1998 19.8114C89.3011 20.3318 89.9382 20.6987 90.3126 21.0023C93.6722 23.7259 97.7554 24.5136 101.978 24.5145C102.209 24.5145 102.573 24.6563 102.858 24.6828C102.556 25.2991 102.389 25.4698 101.744 25.7916L100.202 26.3009C100.372 26.1319 100.362 26.1244 100.447 25.9117C100.252 25.6092 100.337 25.7091 99.9812 25.5353C98.9308 25.6363 98.259 25.6984 97.2079 25.6579C94.3029 25.4161 92.1169 24.3034 89.9295 22.4715C89.3899 21.9296 88.2689 20.8752 87.8626 20.3213Z" fill="#E1E1EE"/>
<path d="M99.9812 25.5353C100.922 25.225 101.749 25.0874 102.858 24.6828C102.556 25.2991 102.389 25.4698 101.744 25.7916L100.202 26.3009C100.372 26.1319 100.362 26.1244 100.447 25.9117C100.252 25.6092 100.337 25.7091 99.9812 25.5353Z" fill="#702210"/>
<path d="M59.8107 20.0648C60.6785 19.8031 61.1646 19.8866 62.0556 20.0521C62.3555 20.3946 62.3667 20.2982 62.9269 20.4036C63.1358 20.9107 62.4046 23.3743 62.2006 23.9674C60.2494 23.4079 58.2734 22.3034 57.0312 20.6641C58.3523 19.9456 58.8233 21.2126 59.8107 20.0648Z" fill="#E1E1EE"/>
<path d="M59.8107 20.0648C60.6785 19.8031 61.1646 19.8866 62.0556 20.0521C62.3555 20.3946 62.3667 20.2982 62.9269 20.4036C61.9068 20.635 60.745 20.5433 59.8107 20.0648Z" fill="#813D18"/>
<path d="M70.5993 15.5183C71.3587 16.5981 71.5526 16.9861 72.4858 18.049C69.8326 19.2318 67.1119 20.1558 64.2073 19.3736C65.0215 18.2161 69.7004 18.9299 70.2669 16.7951C70.4584 16.0739 70.044 16.349 70.5993 15.5183Z" fill="#E1E1EE"/>
<path d="M94.2378 6.33043C95.9419 8.22004 96.4699 10.478 97.8526 12.0697L97.8046 12.177C97.1789 12.3505 95.6525 12.4595 94.8603 12.5807C94.8858 10.9481 94.8092 9.41613 94.4502 7.81517C94.3281 7.27117 94.1986 6.90202 94.2378 6.33043Z" fill="#E1E1EE"/>
<path d="M97.7914 10.4807C98.7899 10.6578 99.9876 10.9723 100.991 11.2093C101.045 11.5535 101.203 12.1973 101.101 12.4719C100.349 12.5226 98.484 12.4314 97.8046 12.177L97.8526 12.0697C98.0758 11.6484 97.88 10.9657 97.7914 10.4807Z" fill="#D5D6E8"/>
<path d="M88.1399 19.4563C89.7566 18.7827 90.8894 18.2122 92.4263 17.384C91.4278 18.4518 90.4939 19.1112 89.1998 19.8114L87.8626 20.3213C88.0233 19.9579 88.0548 19.8452 88.1399 19.4563Z" fill="#702210"/>
<path d="M93.633 80.7282C93.527 81.1126 93.3656 81.3858 93.5015 81.6719C94.011 81.3802 94.5459 80.627 94.9907 80.2797C95.806 79.6431 97.4934 79.2034 98.4933 79.5302C100.966 80.3381 103.657 83.8472 105.035 85.8622C101.799 86.9437 98.7841 88.597 96.4353 91.1199C95.688 90.1928 93.4057 87.247 92.3268 87.1291L92.1492 87.2413C92.1789 88.3388 95.1108 90.8932 95.2433 91.4471C95.789 93.7278 95.9712 93.8236 97.5 95.7913C97.4324 97.3819 97.6209 98.778 97.8042 100.356C89.33 102.991 81.2724 103.921 72.4475 104.288C72.2843 104.3 71.9181 104.279 71.7375 104.274C66.5594 104.522 59.493 103.562 54.4338 102.496C54.6427 98.0252 54.9362 92.6702 55.4697 88.2389C55.7962 87.7954 56.3188 87.3777 56.8949 87.3884C56.9107 87.4015 56.9261 87.415 56.9423 87.4275C57.9564 88.2087 69.8154 85.9875 71.9244 85.7351L71.9089 85.86C71.5591 85.9105 71.273 85.9432 70.9303 86.0398L70.9862 86.2381C71.3182 86.3363 71.8171 86.3245 72.1191 86.1723C72.8491 85.8078 73.615 85.6088 74.3399 86.0098C75.274 85.9506 77.8946 85.2772 78.9011 85.0303C83.8773 83.83 88.7935 82.3944 93.633 80.7282Z" fill="#FCFCFE"/>
<path d="M56.8949 87.3884C56.9107 87.4015 56.9261 87.415 56.9423 87.4275C57.9564 88.2087 69.8154 85.9875 71.9244 85.7351L71.9089 85.86C71.5591 85.9105 71.273 85.9432 70.9303 86.0398L70.9862 86.2381C71.3182 86.3363 71.8171 86.3245 72.1191 86.1723L72.2186 86.4132C72.2391 86.7829 72.2163 87.1062 72.196 87.4733C72.1842 89.8327 71.82 92.3094 71.7519 94.6548C71.66 97.8234 71.6897 101.107 71.7375 104.274C66.5594 104.522 59.493 103.562 54.4338 102.496C54.6427 98.0252 54.9362 92.6702 55.4697 88.2389C55.7962 87.7954 56.3188 87.3777 56.8949 87.3884Z" fill="#FCFCFE"/>
<path d="M56.8949 87.3884C56.9107 87.4015 56.9261 87.415 56.9423 87.4275C57.9564 88.2087 69.8154 85.9875 71.9244 85.7351L71.9089 85.86C71.5591 85.9105 71.273 85.9432 70.9303 86.0398L70.9862 86.2381C71.3182 86.3363 71.8171 86.3245 72.1191 86.1723L72.2186 86.4132L68.5607 87.018C65.7135 87.5078 62.7616 87.7618 59.8814 87.9711C58.7176 88.0557 56.5793 88.315 55.4697 88.2389C55.7962 87.7954 56.3188 87.3777 56.8949 87.3884Z" fill="#702210"/>
<path d="M72.2186 86.4132C72.2391 86.7829 72.2163 87.1062 72.196 87.4733C70.7731 86.9556 69.6912 88.2878 68.5607 87.018L72.2186 86.4132Z" fill="#D5D6E8"/>
<path d="M68.0859 97.0316C68.9065 96.7264 69.8201 97.1391 70.1315 97.9557C70.4429 98.7723 70.0353 99.6865 69.2188 100.003C68.3947 100.322 67.4678 99.9103 67.1535 99.0859C66.8391 98.2617 67.2576 97.3398 68.0859 97.0316Z" fill="#6A2409"/>
<path d="M57.8134 88.9517C58.6515 88.7582 59.4919 89.2644 59.7105 90.0944C59.929 90.9244 59.4465 91.7774 58.6213 92.0197C58.0655 92.183 57.4647 92.0318 57.053 91.6251C56.6412 91.2183 56.4839 90.6204 56.6419 90.0644C56.8001 89.5083 57.249 89.082 57.8134 88.9517Z" fill="#6A2409"/>
<path d="M68.2356 89.4481C69.04 89.1196 69.9595 89.4975 70.2986 90.2958C70.6379 91.094 70.2707 92.016 69.475 92.3644C68.9511 92.5937 68.3443 92.5242 67.8862 92.1825C67.4282 91.8408 67.1897 91.2797 67.2621 90.7137C67.3343 90.1477 67.7063 89.6642 68.2356 89.4481Z" fill="#6A2409"/>
<path d="M57.4668 96.5494C58.2832 96.2902 59.157 96.7322 59.4299 97.5424C59.7029 98.3525 59.2741 99.2313 58.4665 99.5168C57.9323 99.7055 57.3377 99.5923 56.9108 99.2205C56.4838 98.8488 56.2911 98.2764 56.4062 97.7229C56.5214 97.1694 56.9267 96.7209 57.4668 96.5494Z" fill="#6A2409"/>
<path d="M72.1191 86.1723C72.8491 85.8078 73.615 85.6088 74.3399 86.0098C73.7942 86.165 73.5234 86.2559 72.9602 86.2916C72.4288 91.7632 72.2848 98.859 72.4475 104.288C72.2843 104.3 71.9181 104.279 71.7375 104.274C71.6897 101.107 71.66 97.8234 71.7519 94.6548C71.82 92.3094 72.1842 89.8327 72.196 87.4733C72.2163 87.1062 72.2391 86.7829 72.2186 86.4132L72.1191 86.1723Z" fill="#702210"/>
<path d="M73.1335 18.6096C76.5625 21.01 80.8136 21.9372 84.934 21.1832C85.6475 21.0596 86.4029 20.908 87.0912 20.6852C87.7619 21.5722 88.2109 22.1363 88.9977 22.9272C91.1981 24.7853 92.9809 26.0393 95.9319 26.4113C96.351 26.5349 96.5919 26.5211 96.8207 26.8086C96.3741 29.5313 95.5256 32.2602 95.1676 35.0199C95.1065 35.4911 95.0081 36.0534 94.8881 36.5079L93.3826 36.5687C93.732 36.615 94.7098 36.7069 94.9613 36.8411C94.8625 37.0659 94.9411 37.0018 94.7702 37.1086C94.6495 38.3388 94.2841 42.9163 93.7082 43.646C92.0122 44.8208 82.2544 44.4078 80.1842 43.8332C75.0655 43.2438 64.088 41.2514 60.184 37.8675C60.2453 37.0204 61.4244 31.9617 61.7416 31.3809L61.8665 30.923C61.8158 30.4014 63.7022 22.4293 63.9645 20.9969L64.0977 20.4514C64.7137 20.1125 66.211 20.7453 67.0314 20.6549C69.5871 20.373 70.9754 19.8435 73.1335 18.6096Z" fill="#FCFCFE"/>
<path d="M60.184 37.8675C60.2453 37.0204 61.4244 31.9617 61.7416 31.3809C67.6163 34.0351 77.2124 35.892 83.6487 36.6376L83.4414 36.2019L83.6529 35.8424C84.479 35.8097 85.5629 35.9797 86.3747 36.1662C86.6027 36.2209 86.8909 36.2397 86.9931 36.3926L86.9833 36.6581C87.1152 36.7156 87.2475 36.7722 87.3802 36.8279C87.1207 36.8116 86.8522 36.9109 86.5644 36.9494C87.4148 37.0035 88.2664 37.0324 89.1185 37.0362C90.7241 37.1451 93.2308 37.3864 94.7702 37.1086C94.6495 38.3388 94.2841 42.9163 93.7082 43.646C92.0122 44.8208 82.2544 44.4078 80.1842 43.8332C75.0655 43.2438 64.088 41.2514 60.184 37.8675Z" fill="#FCFCFE"/>
<path d="M89.1185 37.0362C90.7241 37.1451 93.2308 37.3864 94.7702 37.1086C94.6495 38.3388 94.2841 42.9163 93.7082 43.646C92.0122 44.8208 82.2544 44.4078 80.1842 43.8332L80.2228 43.7405L80.04 43.65L80.0394 43.5242C80.8998 42.9033 85.9248 43.1085 88.2879 41.9112C88.6661 41.0446 89.3725 37.7976 89.1185 37.0362Z" fill="#E1E1EE"/>
<path d="M83.6529 35.8424C84.479 35.8097 85.5629 35.9797 86.3747 36.1662C86.6027 36.2209 86.8909 36.2397 86.9931 36.3926L86.9833 36.6581C87.1152 36.7156 87.2475 36.7722 87.3802 36.8279C87.1207 36.8116 86.8522 36.9109 86.5644 36.9494C85.6455 36.8087 84.651 36.795 83.6487 36.6376L83.4414 36.2019L83.6529 35.8424Z" fill="#6A2409"/>
<path d="M73.1335 18.6096C76.5625 21.01 80.8136 21.9372 84.934 21.1832C85.6475 21.0596 86.4029 20.908 87.0912 20.6852C87.7619 21.5722 88.2109 22.1363 88.9977 22.9272C91.1981 24.7853 92.9809 26.0393 95.9319 26.4113C96.351 26.5349 96.5919 26.5211 96.8207 26.8086C96.3741 29.5313 95.5256 32.2602 95.1676 35.0199C95.1065 35.4911 95.0081 36.0534 94.8881 36.5079L93.3826 36.5687C93.732 36.615 94.7098 36.7069 94.9613 36.8411C94.8625 37.0659 94.9411 37.0018 94.7702 37.1086C93.2308 37.3864 90.7241 37.1451 89.1185 37.0362C88.2664 37.0324 87.4148 37.0035 86.5644 36.9494C86.8522 36.9109 87.1207 36.8116 87.3802 36.8279C87.2475 36.7722 87.1152 36.7156 86.9833 36.6581L86.9931 36.3926C86.8909 36.2397 86.6027 36.2209 86.3747 36.1662C86.5817 36.1231 86.6526 36.0742 86.8349 35.9781C87.4453 34.6992 87.6001 32.5014 87.887 31.0104C87.9716 30.462 87.9118 29.9883 87.9748 29.4392C88.1243 28.137 88.4439 26.8374 88.8317 25.5865L88.9216 25.4857C88.8957 25.2808 86.064 21.9148 85.8733 21.9385C81.523 22.4779 77.2131 22.1817 73.4536 19.6898C72.9853 19.7625 71.8343 20.1571 71.3845 20.3276C68.1923 21.5372 67.2497 21.8284 63.9645 20.9969L64.0977 20.4514C64.7137 20.1125 66.211 20.7453 67.0314 20.6549C69.5871 20.373 70.9754 19.8435 73.1335 18.6096Z" fill="#E1E1EE"/>
<path d="M92.9509 30.1146C93.249 31.6104 91.9287 35.6788 92.3937 36.4484C92.7752 36.5752 92.9892 36.5609 93.3826 36.5687C93.732 36.615 94.7098 36.7069 94.9613 36.8411C94.8625 37.0659 94.9411 37.0018 94.7702 37.1086C93.2308 37.3864 90.7241 37.1451 89.1185 37.0362C88.2664 37.0324 87.4148 37.0035 86.5644 36.9494C86.8522 36.9109 87.1207 36.8116 87.3802 36.8279C87.2475 36.7722 87.1152 36.7156 86.9833 36.6581L86.9931 36.3926C86.8909 36.2397 86.6027 36.2209 86.3747 36.1662C86.5817 36.1231 86.6526 36.0742 86.8349 35.9781C87.4453 34.6992 87.6001 32.5014 87.887 31.0104L88.0927 31.0746C88.0157 32.3445 87.7632 34.9924 87.4262 36.2308C88.7617 36.2911 90.2354 36.3194 91.5519 36.4439C91.923 34.6429 92.4254 31.801 92.9509 30.1146Z" fill="#702210"/>
<path d="M88.8317 25.5865C89.1257 26.1537 88.3701 30.4742 88.0927 31.0746L87.887 31.0104C87.9716 30.462 87.9118 29.9883 87.9748 29.4392C88.1243 28.137 88.4439 26.8374 88.8317 25.5865Z" fill="#D5D6E8"/>
<path d="M65.4806 27.0876L65.8177 27.0837C65.51 28.4883 65.1574 30.8742 64.7366 32.1382C66.0224 32.5234 67.2945 32.8317 68.5816 33.1878C68.7754 31.783 69.4911 29.4891 69.5842 28.5094L69.9415 28.5167C69.6343 29.9929 69.1765 31.9353 69.0434 33.3795C70.0594 33.5927 73.2924 34.5168 73.9628 34.1078C74.5261 33.4837 74.805 31.2853 74.9809 30.3512L75.2408 30.6854C75.038 32.1092 74.851 33.1508 74.5493 34.5549C76.2891 34.8836 79.5932 35.2119 81.04 35.6445C81.4156 33.1756 81.9158 30.7272 82.5387 28.3086L82.8095 28.2292C82.3793 30.6725 81.9709 33.1195 81.5844 35.57C82.1651 35.649 83.0943 35.8016 83.6529 35.8424L83.4414 36.2019L83.6487 36.6376C77.2124 35.892 67.6163 34.0351 61.7416 31.3809L61.8665 30.923C62.781 31.3908 63.3353 31.5736 64.3136 31.8907C64.6426 30.5475 65.2707 28.3712 65.4806 27.0876Z" fill="#702210"/>
<path d="M74.9809 30.3512C75.1784 28.0667 75.8273 26.0396 76.4322 23.8344C76.4626 24.111 75.3333 30.511 75.2408 30.6854L74.9809 30.3512Z" fill="#D5D6E8"/>
<path d="M69.5842 28.5094C69.5048 27.791 70.5228 23.7473 70.7908 23.0675C70.9758 23.5387 70.1072 27.6339 69.9415 28.5167L69.5842 28.5094Z" fill="#D5D6E8"/>
<path d="M65.4806 27.0876C65.5953 25.9613 66.075 23.7648 66.4292 22.6768L66.4062 22.7669L66.4977 22.8808C66.3166 24.3633 66.0115 25.6628 65.8177 27.0837L65.4806 27.0876Z" fill="#D5D6E8"/>
<path d="M82.5387 28.3086C82.6456 27.0916 82.8378 25.8837 83.1138 24.6935L83.1775 24.7495C83.1349 25.9165 83.012 27.079 82.8095 28.2292L82.5387 28.3086Z" fill="#D5D6E8"/>
<path d="M40.1797 80.6433C39.8289 79.7462 39.0901 78.4938 40.006 77.7836C40.72 77.6245 40.8592 77.9128 41.4452 78.2415C44.8955 80.1765 48.689 81.5561 52.376 82.8933C54.9288 83.5544 57.5343 84.4445 60.094 84.8518C59.2546 85.2491 58.5556 85.538 57.689 85.8748C56.4294 86.3137 55.7028 86.5883 54.5466 87.2424C54.1959 88.5515 54.0331 90.8525 53.9033 92.2874C53.6147 95.573 53.3926 98.864 53.2373 102.159C48.272 101.008 45.7262 100.241 41.043 98.1936C41.102 95.1871 41.4308 91.8327 41.8043 88.8426C42.1078 86.4126 42.6697 84.5637 42.6493 82.0756L42.465 81.9566L42.2325 82.0196C41.7982 82.5037 41.5524 83.7738 41.3991 84.4376C41.1407 85.7571 40.8726 87.0746 40.595 88.3901C38.5623 88.7762 36.6365 88.7008 34.64 88.1729C34.1327 88.0387 33.4505 87.9677 33.1154 87.5362C33.1041 87.1711 34.3141 85.3205 34.5804 84.8962C35.4525 82.9105 36.0272 81.047 36.0321 78.8738L40.1797 80.6433Z" fill="#FCFCFE"/>
<path d="M34.5804 84.8962L34.614 84.9295C35.3676 85.6936 37.0668 85.8851 38.1072 85.9187C39.7683 85.9723 39.7184 85.1834 40.6682 84.2227C41.0062 84.1262 41.0075 84.2225 41.3991 84.4376C41.1407 85.7571 40.8726 87.0746 40.595 88.3901C38.5623 88.7762 36.6365 88.7008 34.64 88.1729C34.1327 88.0387 33.4505 87.9677 33.1154 87.5362C33.1041 87.1711 34.3141 85.3205 34.5804 84.8962Z" fill="#E1E1EE"/>
<path d="M52.376 82.8933C54.9288 83.5544 57.5343 84.4445 60.094 84.8518C59.2546 85.2491 58.5556 85.538 57.689 85.8748C56.6136 84.3356 54.387 84.7428 52.376 82.8933Z" fill="#D5D6E8"/>
<path d="M56.8949 87.3884C60.6989 85.8952 64.8359 84.5613 68.6789 83.1233C70.9238 82.4358 73.5292 80.9118 75.7879 80.448C84.8872 78.5794 95.6847 77.0748 103.995 72.7085C103.815 73.3961 103.633 74.7299 103.3 75.2681C102.501 76.3323 100.445 77.0638 99.2417 77.5713C91.6681 80.7658 83.7216 83.0797 75.708 84.8768C74.5279 85.1414 73.1743 85.3509 72.0348 85.7007L71.9244 85.7351C69.8154 85.9875 57.9564 88.2087 56.9423 87.4275C56.9261 87.415 56.9107 87.4015 56.8949 87.3884Z" fill="#FCFCFE"/>
<path d="M74.0084 105.435C77.0655 105.242 79.2736 105.372 82.385 104.769C82.4612 105.357 82.5699 105.831 82.6997 106.404C83.7114 109.379 85.8726 111.402 85.8953 114.565C84.201 115.982 80.1106 116.933 77.8683 116.685C74.873 116.355 76.3359 114.092 77.1933 112.611C76.7833 112.138 75.2115 110.497 75.0264 110.182C74.6387 109.699 74.1597 108.097 74.0768 107.456C74.0295 106.781 74.0219 106.111 74.0084 105.435Z" fill="#97501F"/>
<path d="M74.0084 105.435C77.0655 105.242 79.2736 105.372 82.385 104.769C82.4612 105.357 82.5699 105.831 82.6997 106.404C82.1936 106.686 81.8243 106.894 81.3524 107.227C80.6528 107.77 79.3908 109.078 78.8559 109.399C78.4078 109.669 75.7249 110.024 75.0264 110.182C74.6387 109.699 74.1597 108.097 74.0768 107.456C74.0295 106.781 74.0219 106.111 74.0084 105.435Z" fill="#EF9F27"/>
<path d="M74.0768 107.456C75.3933 107.186 78.1139 107.148 79.5644 106.91C80.3066 106.789 80.8086 106.768 81.3524 107.227C80.6528 107.77 79.3908 109.078 78.8559 109.399C78.4078 109.669 75.7249 110.024 75.0264 110.182C74.6387 109.699 74.1597 108.097 74.0768 107.456Z" fill="#FAC55E"/>
<path d="M54.5564 103.784C56.0672 104.11 57.394 104.385 58.9281 104.608C60.3066 104.808 62.0757 104.92 63.3975 105.213L63.2014 106.673C63.3052 108.712 63.8469 113.641 63.3125 115.181C61.2158 115.771 58.6881 116.151 56.5126 115.941C51.5691 115.459 52.5605 113.013 55.6942 110.679L55.2071 108.592C54.9673 108.205 54.7821 106.601 54.7326 106.099C54.5897 105.43 54.5618 104.478 54.5564 103.784Z" fill="#97501F"/>
<path d="M54.5564 103.784C56.0672 104.11 57.394 104.385 58.9281 104.608C60.3066 104.808 62.0757 104.92 63.3975 105.213L63.2014 106.673C63.0255 107.822 63.1948 107.719 62.0326 107.846C59.0635 109.049 58.4532 108.721 55.2071 108.592C54.9673 108.205 54.7821 106.601 54.7326 106.099C54.5897 105.43 54.5618 104.478 54.5564 103.784Z" fill="#EF9F27"/>
<path d="M54.7326 106.099C54.9239 105.769 55.1774 105.683 55.5485 105.827C56.7738 106.304 62.043 106.122 62.0326 107.846C59.0635 109.049 58.4532 108.721 55.2071 108.592C54.9673 108.205 54.7821 106.601 54.7326 106.099Z" fill="#FAC55E"/>
<path d="M36.8933 75.0712C39.1404 75.3472 41.8936 74.9129 43.7827 73.5564C44.6795 72.9125 44.8421 72.2725 45.0812 71.2509C45.972 71.631 47.6442 72.2528 47.7609 73.3191C47.6215 73.9508 47.213 74.1813 46.6991 74.5441C45.3145 75.3435 44.5988 75.537 43.0405 75.9964C42.0536 76.274 41.1349 76.5565 40.1145 76.6947C38.8478 77.0062 37.3146 77.1908 35.9809 77.3602C26.6978 78.5399 16.8523 78.3523 7.66683 76.5689C6.10701 76.2661 1.96126 75.135 1.18338 73.6904C1.07131 73.4827 1.05224 73.2373 1.13104 73.0149C1.4261 72.2051 2.79888 71.6612 3.55053 71.3134C4.61466 76.0241 10.4881 74.2307 13.9151 75.9805C14.947 76.5074 20.3457 76.386 21.5282 76.2258C22.5445 76.0028 23.215 75.7762 24.1499 75.2749C26.5553 76.644 29.0753 76.3406 31.7514 76.4223C33.9843 76.361 34.9065 76.0351 36.8933 75.0712Z" fill="#FCFCFE"/>
<path d="M24.1499 75.2749C26.5553 76.644 29.0753 76.3406 31.7514 76.4223C31.6913 76.478 31.5178 76.5624 31.4416 76.5534C29.5938 76.3359 22.7752 77.1816 21.5282 76.2258C22.5445 76.0028 23.215 75.7762 24.1499 75.2749Z" fill="#D5D6E8"/>
<path d="M42.526 75.5929C44.2027 75.1817 44.7044 74.6814 46.6991 74.5441C45.3145 75.3435 44.5988 75.537 43.0405 75.9964C42.0536 76.274 41.1349 76.5565 40.1145 76.6947C40.2098 76.5172 40.2751 76.378 40.3568 76.194C41.2243 75.7162 41.5275 75.6933 42.526 75.5929Z" fill="#E1E1EE"/>
<path d="M46.0373 76.1226C48.6898 77.1854 51.2432 78.1727 53.9921 78.984C55.9138 79.5512 58.0937 79.9701 59.9105 80.6317C60.3476 80.7909 62.5508 82.227 63.0192 82.5225L64.684 83.3859C62.5942 84.0431 61.6836 84.8223 59.4575 84.3298L58.0904 83.9427C52.3596 82.1955 47.0855 80.252 41.8023 77.4288C43.3299 77.1017 44.6089 76.7427 46.0373 76.1226Z" fill="#FCFCFE"/>
<path d="M63.0192 82.5225L64.684 83.3859C62.5942 84.0431 61.6836 84.8223 59.4575 84.3298C59.5989 84.1918 59.8477 83.8105 59.9736 83.6308C60.3585 83.5914 61.9898 83.0931 62.4778 82.9877C62.8434 82.9088 62.9031 82.7769 63.0192 82.5225Z" fill="#E1E1EE"/>
<path d="M58.0904 83.9427C58.8763 83.517 59.0795 83.5599 59.9736 83.6308C59.8477 83.8105 59.5989 84.1918 59.4575 84.3298L58.0904 83.9427Z" fill="#EEF4F5"/>
<path d="M26.7829 70.9037C29.123 70.519 29.6848 70.061 31.4606 68.6957C32.8405 68.6521 32.9419 68.55 34.125 69.2568C35.5106 70.1133 36.2723 71.3026 36.636 72.8581C36.6625 72.9704 36.6867 73.0832 36.7086 73.1965L36.0953 74.0823C34.6855 75.3424 32.6927 75.533 30.8631 75.5683C28.7754 75.5094 25.8724 75.5951 24.2634 74.0775C23.1956 73.0704 23.5727 71.9292 24.5015 70.9919C24.9934 70.9216 25.4857 70.8547 25.9785 70.7911C26.1752 70.8149 26.6135 70.8549 26.7829 70.9037Z" fill="#FAC55E"/>
<path d="M25.9785 70.7911C25.8902 71.2484 25.591 71.53 25.4022 72.0596L25.1189 71.8156L24.8811 71.8622C24.0985 74.2106 32.2074 74.9827 33.5729 74.5132C34.3286 74.2533 35.3082 74.0166 36.0953 74.0823C34.6855 75.3424 32.6927 75.533 30.8631 75.5683C28.7754 75.5094 25.8724 75.5951 24.2634 74.0775C23.1956 73.0704 23.5727 71.9292 24.5015 70.9919C24.9934 70.9216 25.4857 70.8547 25.9785 70.7911Z" fill="#EF9F27"/>
<path d="M26.7829 70.9037C29.123 70.519 29.6848 70.061 31.4606 68.6957C32.8405 68.6521 32.9419 68.55 34.125 69.2568L33.6922 69.7551C32.7807 69.0678 32.133 68.8519 31.5665 70.0332C31.0095 70.0046 28.7919 71.4807 27.6976 71.764L27.5966 71.9001C27.4754 71.4676 27.121 71.2141 26.7829 70.9037Z" fill="#EF9F27"/>
<path d="M31.5665 70.0332C32.133 68.8519 32.7807 69.0678 33.6922 69.7551C33.8292 70.2155 33.8327 70.0358 33.7316 70.4636C33.0945 71.1308 32.0425 70.7714 31.5665 70.0332Z" fill="#813D18"/>
<path d="M25.9785 70.7911C26.1752 70.8149 26.6135 70.8549 26.7829 70.9037C27.121 71.2141 27.4754 71.4676 27.5966 71.9001C26.9928 72.584 26.0611 72.7592 25.4022 72.0596C25.591 71.53 25.8902 71.2484 25.9785 70.7911Z" fill="#813D18"/>
<path d="M29.9707 72.4166C30.691 72.391 31.3108 72.9905 31.2442 73.728C30.9906 74.1543 31.1394 74.0127 30.6297 74.2338C29.9672 74.0786 29.2052 74.0134 29.1172 73.2523C29.2777 72.8239 29.5869 72.6752 29.9707 72.4166Z" fill="#97501F"/>
<path d="M34.2274 71.4541C34.9707 71.4937 35.343 71.7257 35.5925 72.4069C35.5171 72.9075 35.5289 72.7694 35.1412 73.1984C33.9714 73.1312 33.4101 72.4506 34.2274 71.4541Z" fill="#97501F"/>
<path d="M14.1869 69.2511C16.405 67.9005 16.7294 68.6537 18.3131 69.8812C19.3754 70.4126 19.841 70.5776 20.9901 70.918C21.2897 70.9213 21.9804 70.9485 22.2323 70.8857C22.7578 70.8309 22.7672 70.7434 23.1603 70.9475C23.1945 71.0976 23.2634 71.2004 23.1633 71.3253C22.1646 72.5715 24.1959 74.758 22.1141 75.1371C19.5473 75.6045 15.0367 75.8171 12.6996 74.4711C11.4611 73.6879 11.5888 72.1582 12.3643 71.0941C12.8606 70.265 13.2302 69.9529 14.0206 69.4012L14.1869 69.2511Z" fill="#FAC55E"/>
<path d="M22.2323 70.8857C22.7578 70.8309 22.7672 70.7434 23.1603 70.9475C23.1945 71.0976 23.2634 71.2004 23.1633 71.3253C22.1646 72.5715 24.1959 74.758 22.1141 75.1371C19.5473 75.6045 15.0367 75.8171 12.6996 74.4711C12.7799 74.3981 12.9718 74.0239 13.0703 74.0463C15.2188 74.5341 17.1318 74.6579 19.3126 74.2611C20.6604 74.0158 22.2879 74.1067 22.1216 72.2107L22.5814 71.749C22.64 71.3363 22.5149 71.3221 22.2323 70.8857Z" fill="#EF9F27"/>
<path d="M14.1869 69.2511C16.405 67.9005 16.7294 68.6537 18.3131 69.8812C18.0409 69.9205 17.768 69.9359 17.5273 70.0582C17.3881 69.8637 17.2076 69.7318 17.024 69.5718L16.8287 69.6551L16.776 70.1029C16.2387 70.6049 15.5093 70.7701 14.8277 70.4619C14.4985 70.0774 14.5916 70.2634 14.5076 69.7266C14.4349 69.3485 14.5184 69.4773 14.1869 69.2511Z" fill="#813D18"/>
<path d="M14.1869 69.2511C16.405 67.9005 16.7294 68.6537 18.3131 69.8812C18.0409 69.9205 17.768 69.9359 17.5273 70.0582C17.3881 69.8637 17.2076 69.7318 17.024 69.5718L16.8287 69.6551L16.776 70.1029L16.6386 69.5533C15.8848 68.6186 15.2089 69.0856 14.5076 69.7266C14.4349 69.3485 14.5184 69.4773 14.1869 69.2511Z" fill="#EF9F27"/>
<path d="M18.3131 69.8812C19.3754 70.4126 19.841 70.5776 20.9901 70.918L20.5745 71.6867L20.4081 71.5272C19.581 71.3582 18.0846 70.7114 17.5273 70.0582C17.768 69.9359 18.0409 69.9205 18.3131 69.8812Z" fill="#EF9F27"/>
<path d="M20.9901 70.918C21.2897 70.9213 21.9804 70.9485 22.2323 70.8857C22.5149 71.3221 22.64 71.3363 22.5814 71.749L22.1216 72.2107C21.3096 72.243 21.1277 72.2968 20.5745 71.6867L20.9901 70.918Z" fill="#813D18"/>
<path d="M14.0206 69.4012C14.28 70.2613 13.1218 71 12.3643 71.0941C12.8606 70.265 13.2302 69.9529 14.0206 69.4012Z" fill="#FED996"/>
<path d="M17.7252 72.4113C18.4821 72.4402 19.0646 72.6066 19.2723 73.4151C19.1029 73.8179 19.1984 73.6734 18.763 73.9639C18.0515 74.0376 17.2204 74.2458 17.1076 73.3324C17.2536 72.8568 17.3796 72.766 17.7252 72.4113Z" fill="#97501F"/>
<path d="M13.4696 71.3409C13.9237 71.3396 13.996 71.3261 14.3452 71.6138C14.7118 72.3801 14.3656 72.6937 13.7236 73.0601C13.3608 73.0522 13.3046 73.0251 12.966 72.8886C12.4021 72.2041 12.9164 71.7945 13.4696 71.3409Z" fill="#97501F"/>
<path d="M107.024 91.1001C108.604 91.4184 111.274 101.487 102.766 98.6704C101.424 97.7789 100.891 96.4899 100.171 95.0795C102.414 93.0847 104.42 92.4764 107.024 91.1001Z" fill="#97501F"/>
<path d="M37.3229 71.6215C37.1018 71.1145 36.4078 69.9732 36.0059 69.5767C35.7578 69.3318 35.4464 69.3156 35.1805 68.8947L35.2396 68.6993C36.9756 68.9672 37.0586 68.65 37.9466 67.204C38.7036 65.9711 40.2543 66.715 41.2501 67.279C41.6901 67.5105 42.0026 67.639 42.3329 68.0118C43.0136 68.7625 43.8362 69.5998 44.0333 70.6036C44.045 70.8311 44.0927 71.5858 44.0099 71.769C43.0338 73.9271 40.0125 74.0201 37.9809 74.1136L37.4036 74.1375C37.5134 73.4324 37.5657 73.0202 37.4882 72.3054C37.4327 72.188 37.3554 71.7727 37.3229 71.6215Z" fill="#FAC55E"/>
<path d="M43.4892 71.1317L43.471 71.3349L43.7128 71.4062C43.9792 71.1917 43.9394 71.0094 44.0333 70.6036C44.045 70.8311 44.0927 71.5858 44.0099 71.769C43.0338 73.9271 40.0125 74.0201 37.9809 74.1136L37.4036 74.1375C37.5134 73.4324 37.5657 73.0202 37.4882 72.3054C37.672 72.2259 38.8487 72.4346 39.2719 72.4567C39.3383 72.6508 39.3189 72.5741 39.5052 72.7425C40.348 72.9009 42.7365 72.7763 43.0338 71.8246C43.1033 71.6538 43.371 71.299 43.4892 71.1317Z" fill="#EF9F27"/>
<path d="M41.2501 67.279C41.6901 67.5105 42.0026 67.639 42.3329 68.0118C41.966 68.4515 42.0742 68.3218 42.0278 68.986C40.5574 69.5152 39.9399 69.1528 40.0263 67.6303C40.6298 67.5835 40.8676 67.6559 41.2501 67.279Z" fill="#97501F"/>
<path d="M41.2501 67.279C41.6901 67.5105 42.0026 67.639 42.3329 68.0118C41.966 68.4515 42.0742 68.3218 42.0278 68.986C41.9257 68.4988 41.9189 68.3694 41.6232 67.9618C41.1549 67.6287 40.6162 67.6683 40.0263 67.6303C40.6298 67.5835 40.8676 67.6559 41.2501 67.279Z" fill="#EF9F27"/>
<path d="M37.3229 71.6215C37.5552 71.2479 37.6537 71.0114 38.0776 70.8728C39.0687 70.8213 39.6354 71.537 39.2719 72.4567C38.8487 72.4346 37.672 72.2259 37.4882 72.3054C37.4327 72.188 37.3554 71.7727 37.3229 71.6215Z" fill="#97501F"/>
<path d="M43.0338 71.8246C42.27 71.7404 41.8218 71.5884 41.6774 70.7789C41.7689 70.4277 41.7985 70.3958 42.0832 70.1675C42.9583 69.9566 43.1716 70.4011 43.4892 71.1317C43.371 71.299 43.1033 71.6538 43.0338 71.8246Z" fill="#97501F"/>
<path d="M8.78308 66.7203C9.56525 66.496 9.52496 66.5431 10.0807 67.1699C11.0261 68.2358 11.5285 68.5681 12.8877 68.8964C12.4253 69.4345 11.4697 70.5255 11.2109 71.1622C10.8721 71.8205 10.7282 72.2375 10.6699 72.9852C10.7587 73.3183 10.8484 73.5446 10.8117 73.8866C10.6372 73.9881 10.4305 74.0445 10.2314 74.0314C8.10867 73.892 6.63099 73.9306 5.04839 72.4318C4.55007 71.8047 4.49487 71.6088 4.44826 70.8158C4.78993 69.6743 5.39185 68.8903 6.17558 68.0369C6.6187 67.6742 6.94405 67.5174 7.4506 67.2467C7.61869 67.136 8.18544 66.9087 8.40659 66.8138L8.78308 66.7203Z" fill="#FAC55E"/>
<path d="M5.04839 72.4318C5.8258 72.1723 8.77654 73.4476 9.6064 72.5132C10.0641 72.4255 10.1573 72.3262 10.5308 72.4787C10.6057 72.6835 10.6426 72.7626 10.6699 72.9852C10.7587 73.3183 10.8484 73.5446 10.8117 73.8866C10.6372 73.9881 10.4305 74.0445 10.2314 74.0314C8.10867 73.892 6.63099 73.9306 5.04839 72.4318Z" fill="#EF9F27"/>
<path d="M8.78308 66.7203C9.56525 66.496 9.52496 66.5431 10.0807 67.1699C11.0261 68.2358 11.5285 68.5681 12.8877 68.8964C12.4253 69.4345 11.4697 70.5255 11.2109 71.1622L10.7068 70.7769C12.0322 69.2109 11.5709 69.4142 10.2134 67.9961L10.3134 68.0481C9.8436 67.4381 9.54165 66.8869 8.78308 66.7203Z" fill="#EF9F27"/>
<path d="M9.6064 72.5132C8.71311 71.409 9.56893 70.8201 10.7068 70.7769L11.2109 71.1622C10.8721 71.8205 10.7282 72.2375 10.6699 72.9852C10.6426 72.7626 10.6057 72.6835 10.5308 72.4787C10.1573 72.3262 10.0641 72.4255 9.6064 72.5132Z" fill="#97501F"/>
<path d="M6.17558 68.0369C6.6187 67.6742 6.94405 67.5174 7.4506 67.2467L7.50496 67.6464L6.74543 68.3816C6.30397 68.7413 4.97793 69.738 5.38661 70.4392L5.05816 70.9011L4.44826 70.8158C4.78993 69.6743 5.39185 68.8903 6.17558 68.0369Z" fill="#FED996"/>
<path d="M7.50496 67.6464C7.95393 67.6691 8.3384 67.6293 8.65218 67.936C8.83279 68.3191 8.80991 68.1533 8.74922 68.562C8.32183 69.1674 7.90613 69.2811 7.21837 69.0201C6.94095 68.7613 6.90411 68.7244 6.74543 68.3816L7.50496 67.6464Z" fill="#97501F"/>
<path d="M5.38661 70.4392C5.94168 70.0389 6.38912 69.7672 6.84941 70.4197C6.94717 71.0911 6.67405 71.5632 6.01132 71.7386C5.55282 71.6742 5.23329 71.3088 5.05816 70.9011L5.38661 70.4392Z" fill="#97501F"/>
<path d="M106.232 86.632L106.527 86.7411C107.201 87.5107 107.511 88.6838 107.83 89.6568C104.538 90.9323 101.019 92.4958 98.3758 94.9109C97.4947 94.049 97.2018 93.6786 96.6753 92.5927C98.3072 90.0746 103.287 87.3719 106.232 86.632Z" fill="#FCFCFE"/>
<path d="M31.633 78.9574C32.8092 78.8268 33.7857 78.7373 34.9662 78.6878C34.8422 81.0687 34.424 82.7683 33.2932 84.8996C32.6249 86.0957 32.1709 86.731 31.2967 87.768C30.1688 87.127 29.2145 86.5855 28.1641 85.8137C28.8824 85.2727 29.5844 84.132 30.0999 83.3724C30.6816 82.0441 31.3694 80.3982 31.633 78.9574Z" fill="#FCFCFE"/>
<path d="M30.0999 83.3724C31.4078 84.4848 31.9113 84.3819 33.2932 84.8996C32.6249 86.0957 32.1709 86.731 31.2967 87.768C30.1688 87.127 29.2145 86.5855 28.1641 85.8137C28.8824 85.2727 29.5844 84.132 30.0999 83.3724Z" fill="#E1E1EE"/>
<path d="M21.0725 78.7224C21.1476 78.7956 21.2365 78.882 21.3392 78.9819C22.0107 79.0003 23.166 78.97 23.7763 78.9311C25.9829 78.7906 27.9985 79.0997 30.2334 79.1324C30.0727 80.4227 30.0273 80.8449 29.3392 81.9657C29.1394 82.3433 29.2011 82.3649 28.8621 82.5726C26.1051 81.6746 23.1127 81.7411 20.8346 79.4455C20.6527 79.2624 20.6807 79.1342 20.7026 78.9228L21.0725 78.7224Z" fill="#97501F"/>
<path d="M102.344 76.9743C102.476 77.064 102.443 77.0606 102.532 77.2219C102.505 77.9524 102.395 79.751 101.864 80.2438C101.539 80.1906 100.913 79.6672 100.611 79.4422L99.2304 78.5776C100.26 78.0277 101.297 77.4932 102.344 76.9743Z" fill="#D5D6E8"/>
<path d="M22.8205 54.6681C25.4739 54.556 27.4871 54.7566 29.6873 56.5512C30.1241 56.9074 30.5779 57.4492 30.7687 57.9871C30.4661 57.7655 30.3917 57.6488 30.0183 57.579C29.8693 57.2567 29.8723 57.0943 29.6117 56.9925C29.7629 57.4621 30.035 58.2039 30.4383 58.5169C30.4221 58.7425 30.4309 58.7292 30.3104 58.9194C29.7029 57.8192 29.4971 57.5481 28.487 56.7932C27.7253 56.3667 27.0938 56.0773 26.299 55.7178C25.7562 55.4626 25.0306 55.4754 24.4317 55.4601L23.2902 55.5146C23.0511 55.3024 22.9505 54.9728 22.8205 54.6681Z" fill="#581C0E"/>
</svg>
