<svg width="43" height="25" viewBox="0 0 43 25" fill="none" xmlns="http://www.w3.org/2000/svg">
<path d="M1.34547 0.0309185C2.03777 -0.0205434 3.0198 0.0074331 3.72545 0.00889767L7.66005 0.0125842L38.8935 0.0119277C39.757 0.0110186 40.6336 -0.00170742 41.4966 0.0320281C41.8633 0.0463708 42.148 0.159496 42.4377 0.377111C42.8311 0.67255 42.9218 1.07687 42.954 1.55614C43.0079 2.35488 42.9535 3.21196 42.9581 4.02227L42.9752 10.1169V19.3174C42.9732 20.4531 42.9696 21.6076 42.9969 22.7429C43.023 23.8439 42.9142 24.8378 41.5651 24.9266C39.5535 25.0287 37.0527 24.9691 35.0104 24.9716L8.74772 24.9852C6.47414 24.9867 4.20142 25.0125 1.92815 24.9923C1.39348 24.9872 0.345008 24.8509 0.203495 24.1893C-0.0661299 22.9283 0.0418306 21.4137 0.0431909 20.1067L0.0395133 13.8939L0.0460136 6.47835C0.0351318 4.99075 -0.0285968 3.49573 0.015182 2.00773C0.0475249 0.908596 0.277603 0.378829 1.34547 0.0309185Z" fill="#60250E"/>
<path d="M0.579571 1.06182C1.0034 1.72386 1.02119 1.77674 1.65802 2.31312C3.6996 3.77294 5.71177 5.49088 7.73068 6.99509C8.15199 7.30896 9.29201 8.2934 9.62279 8.47819C9.76561 8.50279 9.86813 8.53996 9.9967 8.48299C10.0279 8.33734 9.98063 8.2733 9.93206 8.11599C11.9367 9.65959 13.9292 11.2188 15.9094 12.794C16.1958 11.5759 16.6793 11.4764 17.3675 10.5509C17.6814 10.129 17.8539 9.60237 18.2812 9.12033L18.47 9.19325C18.5431 9.36208 18.4986 9.37249 18.5231 9.51733C18.2681 9.93847 18.0121 10.3787 17.7175 10.7739C17.2461 11.4062 16.5717 11.8849 16.4045 12.698C16.2181 13.6045 16.7629 14.2439 17.2686 14.9262L17.3749 15.112C17.1821 15.0974 17.193 15.0646 17.0675 15.1489C17.0539 15.256 17.0428 15.3635 17.0342 15.4711C17.106 15.7019 17.18 15.9236 17.2279 16.1605C17.4195 17.0013 17.5861 17.4165 18.3196 17.9179C18.5514 18.0139 18.7951 18.077 19.0441 18.1068C19.4348 18.1497 20.4675 18.0593 20.7075 18.1119C22.8213 18.5765 24.2788 18.6593 25.3423 16.4428C25.4596 16.1978 25.8531 15.4933 26.0662 15.2585C26.4607 14.609 26.6138 14.3802 26.845 13.6429L27.3095 13.3404C27.7267 13.7384 28.3891 14.2101 28.8637 14.5691L31.5262 16.5695C34.4466 18.7527 37.5243 21.0082 40.3993 23.2429C40.8684 23.5772 41.5273 24.056 41.9742 24.4247C40.9122 24.4974 39.5535 24.4681 38.4724 24.4711L6.28301 24.4731L2.73783 24.4863C2.24135 24.4827 1.57782 24.4989 1.10033 24.4539C1.08058 24.4489 1.01177 24.4115 0.990457 24.4009L1.02637 24.357C0.98718 24.1822 0.956702 24.2035 0.800428 24.0514C0.709898 24.0287 0.725062 24.0257 0.642341 23.9717C0.44521 23.6096 0.542291 20.5794 0.537707 19.9108L0.517806 9.80509L0.523246 4.46856C0.523447 3.34069 0.47297 2.18373 0.579571 1.06182Z" fill="#FEFAF4"/>
<path d="M0.579571 1.06182C1.0034 1.72386 1.02119 1.77674 1.65802 2.31312C3.6996 3.77294 5.71177 5.49088 7.73068 6.99509C8.15199 7.30896 9.29201 8.2934 9.62279 8.47819C9.76561 8.50279 9.86813 8.53996 9.9967 8.48299C10.0279 8.33734 9.98063 8.2733 9.93206 8.11599C11.9367 9.65959 13.9292 11.2188 15.9094 12.794C16.1958 11.5759 16.6793 11.4764 17.3675 10.5509C17.6814 10.129 17.8539 9.60237 18.2812 9.12033L18.47 9.19325C18.5431 9.36208 18.4986 9.37249 18.5231 9.51733C18.2681 9.93847 18.0121 10.3787 17.7175 10.7739C17.2461 11.4062 16.5717 11.8849 16.4045 12.698C16.2181 13.6045 16.7629 14.2439 17.2686 14.9262L17.3749 15.112C17.1821 15.0974 17.193 15.0646 17.0675 15.1489C17.0539 15.256 17.0428 15.3635 17.0342 15.4711C16.9184 15.1873 15.9839 13.6283 15.7912 13.3818C15.2388 13.6076 11.6143 16.4973 10.9668 16.9852C9.00102 18.4452 7.04332 19.9153 5.09377 21.3965C4.23412 22.0415 3.04055 22.8747 2.24704 23.5308C2.00881 23.7106 1.263 24.262 1.10033 24.4539C1.08058 24.4489 1.01177 24.4115 0.990457 24.4009L1.02637 24.357C0.98718 24.1822 0.956702 24.2035 0.800428 24.0514C0.709898 24.0287 0.725062 24.0257 0.642341 23.9717C0.44521 23.6096 0.542291 20.5794 0.537707 19.9108L0.517806 9.80509L0.523246 4.46856C0.523447 3.34069 0.47297 2.18373 0.579571 1.06182Z" fill="#FAEFDF"/>
<path d="M9.93206 8.11599C11.9367 9.65959 13.9292 11.2188 15.9094 12.794C16.1958 11.5759 16.6793 11.4764 17.3675 10.5509C17.6814 10.129 17.8539 9.60237 18.2812 9.12033L18.47 9.19325C18.5431 9.36208 18.4986 9.37249 18.5231 9.51733C18.2681 9.93847 18.0121 10.3787 17.7175 10.7739C17.2461 11.4062 16.5717 11.8849 16.4045 12.698C16.2181 13.6045 16.7629 14.2439 17.2686 14.9262L17.3749 15.112C17.1821 15.0974 17.193 15.0646 17.0675 15.1489C17.0539 15.256 17.0428 15.3635 17.0342 15.4711C16.9184 15.1873 15.9839 13.6283 15.7912 13.3818C15.2388 13.6076 11.6143 16.4973 10.9668 16.9852C9.00102 18.4452 7.04332 19.9153 5.09377 21.3965C4.23412 22.0415 3.04055 22.8747 2.24704 23.5308C2.00881 23.7106 1.263 24.262 1.10033 24.4539C1.08058 24.4489 1.01177 24.4115 0.990457 24.4009L1.02637 24.357C0.98718 24.1822 0.956702 24.2035 0.800428 24.0514C1.01126 23.8343 1.6424 23.3717 1.91888 23.1611L14.482 13.7368C14.7331 13.5348 15.1598 13.2581 15.4352 13.0672C13.536 11.491 11.5479 10.0224 9.62279 8.47819C9.76561 8.50279 9.86813 8.53996 9.9967 8.48299C10.0279 8.33734 9.98063 8.2733 9.93206 8.11599Z" fill="#60250E"/>
<path d="M1.65802 2.31312C3.6996 3.77294 5.71177 5.49088 7.73068 6.99509C8.15199 7.30896 9.29201 8.2934 9.62279 8.47819C11.5479 10.0224 13.536 11.491 15.4352 13.0672C15.1598 13.2581 14.7331 13.5348 14.482 13.7368C14.2383 13.3091 12.7887 12.197 12.3534 11.8173L4.21114 4.72122C3.55628 4.14105 2.01193 3.02935 1.65802 2.31312Z" fill="#E9C991"/>
<path d="M40.3993 23.2429C40.8684 23.5772 41.5273 24.056 41.9742 24.4247C40.9122 24.4974 39.5535 24.4681 38.4724 24.4711L6.28301 24.4731L2.73783 24.4863C2.24135 24.4827 1.57782 24.4989 1.10033 24.4539C1.263 24.262 2.00881 23.7106 2.24704 23.5308C2.34705 23.6156 2.40196 23.6585 2.54347 23.654C3.57784 23.6212 4.60284 23.5994 5.63776 23.604C11.5194 23.6414 17.4013 23.6116 23.2823 23.5141C27.0093 23.5 30.7358 23.4661 34.4623 23.4131C36.2613 23.4 38.0698 23.4323 39.8689 23.3899C40.1087 23.3843 40.2386 23.4136 40.3993 23.2429Z" fill="#E9C991"/>
<path d="M26.0662 15.2585L26.1559 15.2812L26.2612 15.2019C26.2254 15.8574 26.0294 16.067 25.7407 16.5806C24.4768 18.8275 23.1342 19.0992 20.7672 18.5164C20.0818 18.3477 18.8286 18.624 18.3196 17.9179C18.5514 18.0139 18.7951 18.077 19.0441 18.1068C19.4348 18.1497 20.4675 18.0593 20.7075 18.1119C22.8213 18.5765 24.2788 18.6593 25.3423 16.4428C25.4596 16.1978 25.8531 15.4933 26.0662 15.2585Z" fill="#E9C991"/>
<path d="M0.996249 0.749163C1.15701 0.648866 1.34809 0.513975 1.53545 0.510692C2.87879 0.487057 4.23774 0.499024 5.58018 0.504882L11.067 0.4816L29.173 0.48054L37.0064 0.496196C38.0225 0.488115 39.0386 0.487714 40.0548 0.495037C40.5359 0.498925 41.6084 0.434232 41.9878 0.707702C42.1178 1.29338 39.7837 2.89844 39.2991 3.27216L36.4698 5.47886C34.6542 6.88575 32.8471 8.30325 31.0476 9.73131C29.6808 10.8047 28.2763 11.8667 26.9398 12.9778C26.9221 12.5344 26.9241 11.889 26.7136 11.495C26.4324 11.342 26.3105 10.8708 25.9297 10.8123C25.8476 10.9299 25.8748 10.8956 25.8944 11.0824C26.9382 12.1844 26.4798 14.2176 25.5463 15.2125C24.8788 16.2539 24.4536 17.5922 23.1271 17.8881C22.3634 18.0583 21.6415 17.7568 20.8709 17.6478C20.095 17.5382 19.0785 17.823 18.414 17.3998C17.8807 17.0604 17.7778 16.415 17.6306 15.864C17.6465 16.0711 17.6678 16.1372 17.5845 16.3246C17.3988 16.4069 17.3541 16.3034 17.2279 16.1605C17.18 15.9236 17.106 15.7019 17.0342 15.4711C17.0428 15.3635 17.0539 15.256 17.0675 15.1489C17.193 15.0646 17.1821 15.0974 17.3749 15.112L17.2686 14.9262C16.7629 14.2439 16.2181 13.6045 16.4045 12.698C16.5717 11.8849 17.2461 11.4062 17.7175 10.7739C18.0121 10.3787 18.2681 9.93847 18.5231 9.51733C18.4986 9.37249 18.5431 9.36208 18.47 9.19325L18.2812 9.12033C17.8539 9.60237 17.6814 10.129 17.3675 10.5509C16.6793 11.4764 16.1958 11.5759 15.9094 12.794C13.9292 11.2188 11.9367 9.65959 9.93206 8.11599C9.37276 7.61834 8.59023 7.047 7.98736 6.57435C6.60256 5.48522 5.2101 4.40604 3.80993 3.33685C2.70846 2.48594 1.75213 1.94607 0.996249 0.749163Z" fill="#FEFAF4"/>
<path d="M19.5143 8.28901C20.0766 8.0922 20.9802 8.25719 21.5886 8.21265C22.1271 8.17315 22.5639 8.08988 23.109 8.09513C23.2929 8.21336 23.4919 8.27062 23.5402 8.40693C23.4264 8.50551 23.4228 8.50309 23.2939 8.56379C23.8994 8.72343 24.0999 9.04467 24.3433 9.57495C24.4974 9.92205 24.5705 10.0307 24.8158 10.3283C25.2007 10.6456 25.4999 10.8077 25.8944 11.0824C26.9382 12.1844 26.4798 14.2176 25.5463 15.2125C24.8788 16.2539 24.4536 17.5922 23.1271 17.8881C22.3634 18.0583 21.6415 17.7568 20.8709 17.6478C20.095 17.5382 19.0785 17.823 18.414 17.3998C17.8807 17.0604 17.7778 16.415 17.6306 15.864C17.6465 16.0711 17.6678 16.1372 17.5845 16.3246C17.3988 16.4069 17.3541 16.3034 17.2279 16.1605C17.18 15.9236 17.106 15.7019 17.0342 15.4711C17.0428 15.3635 17.0539 15.256 17.0675 15.1489C17.193 15.0646 17.1821 15.0974 17.3749 15.112L17.2686 14.9262C16.7629 14.2439 16.2181 13.6045 16.4045 12.698C16.5717 11.8849 17.2461 11.4062 17.7175 10.7739C18.0121 10.3787 18.2681 9.93847 18.5231 9.51733C18.4986 9.37249 18.5431 9.36208 18.47 9.19325L18.2812 9.12033C18.6607 8.70858 18.9678 8.44445 19.5143 8.28901Z" fill="#723314"/>
<path d="M19.5143 8.28901C20.0766 8.0922 20.9802 8.25719 21.5886 8.21265C22.1271 8.17315 22.5639 8.08988 23.109 8.09513C23.2929 8.21336 23.4919 8.27062 23.5402 8.40693C23.4264 8.50551 23.4228 8.50309 23.2939 8.56379C23.8994 8.72343 24.0999 9.04467 24.3433 9.57495C24.4974 9.92205 24.5705 10.0307 24.8158 10.3283C25.2007 10.6456 25.4999 10.8077 25.8944 11.0824C26.9382 12.1844 26.4798 14.2176 25.5463 15.2125L25.4314 15.2171C25.3352 15.3549 25.2969 15.4635 25.1604 15.4953L25.1528 15.4024L25.0818 15.4145C24.8878 15.3171 24.9528 15.3751 24.8339 15.1959C25.368 14.1399 25.4425 13.4459 25.2919 12.2571L25.1851 11.9758C24.9281 11.9824 24.9387 11.9753 24.7412 12.1187L24.6435 11.7354C24.4642 11.3925 24.2843 11.1244 24.0087 10.8511C23.8163 10.8082 23.7841 10.7668 23.6218 10.8294L23.5785 10.887C23.38 10.7168 23.1856 10.5955 22.9674 10.4525C22.108 10.2261 20.83 10.0686 20.0603 10.597C19.8423 10.5639 19.7859 10.5301 19.6664 10.3807L19.743 10.3111L19.7284 10.2137C19.6094 10.0953 19.5302 10.1126 19.3428 10.0739C18.5377 10.5812 18.6467 10.6845 18.1135 11.3319C17.4496 12.6005 17.489 13.3737 17.8906 14.7211C17.6645 14.6585 17.395 14.7141 17.2686 14.9262C16.7629 14.2439 16.2181 13.6045 16.4045 12.698C16.5717 11.8849 17.2461 11.4062 17.7175 10.7739C18.0121 10.3787 18.2681 9.93847 18.5231 9.51733C18.4986 9.37249 18.5431 9.36208 18.47 9.19325L18.2812 9.12033C18.6607 8.70858 18.9678 8.44445 19.5143 8.28901Z" fill="#FED16A"/>
<path d="M19.8877 9.75034C20.8474 9.41844 21.2609 9.30138 22.2767 9.44253C22.8037 9.61005 23.2289 9.73812 23.7039 10.0369C23.8319 10.1371 24.0022 10.2619 24.1186 10.3694C24.0032 10.631 24.0707 10.5603 23.8727 10.7113L24.0087 10.8511C23.8163 10.8082 23.7841 10.7668 23.6218 10.8294L23.5785 10.887C23.38 10.7168 23.1856 10.5955 22.9674 10.4525C22.108 10.2261 20.83 10.0686 20.0603 10.597C19.8423 10.5639 19.7859 10.5301 19.6664 10.3807L19.743 10.3111L19.7284 10.2137C19.6094 10.0953 19.5302 10.1126 19.3428 10.0739L19.537 9.92897C19.6577 9.87751 19.7719 9.81251 19.8877 9.75034Z" fill="#723314"/>
<path d="M20.4645 9.98872C21.2578 9.84352 22.0042 9.85044 22.7881 10.0429C22.9201 10.1951 23.0309 10.2449 22.9674 10.4525C22.108 10.2261 20.83 10.0686 20.0603 10.597C19.8423 10.5639 19.7859 10.5301 19.6664 10.3807L19.743 10.3111C20.0306 10.1515 20.1538 10.1017 20.4645 9.98872Z" fill="#A35C28"/>
<path d="M19.8877 9.75034C20.8474 9.41844 21.2609 9.30138 22.2767 9.44253L22.3347 9.64899C22.113 9.96741 20.6505 9.59763 20.3255 9.83226C20.4316 9.90064 20.3907 9.87665 20.5331 9.88746L20.4645 9.98872C20.1538 10.1017 20.0306 10.1515 19.743 10.3111L19.7284 10.2137C19.6094 10.0953 19.5302 10.1126 19.3428 10.0739L19.537 9.92897C19.6577 9.87751 19.7719 9.81251 19.8877 9.75034Z" fill="#652A0F"/>
<path d="M23.1276 10.1845C23.2344 10.0234 23.514 10.0532 23.7039 10.0369C23.8319 10.1371 24.0022 10.2619 24.1186 10.3694C24.0032 10.631 24.0707 10.5603 23.8727 10.7113L24.0087 10.8511C23.8163 10.8082 23.7841 10.7668 23.6218 10.8294L23.5785 10.887C23.38 10.7168 23.1856 10.5955 22.9674 10.4525C23.0309 10.2449 22.9201 10.1951 22.7881 10.0429C22.8984 10.0868 23.0223 10.1327 23.1276 10.1845Z" fill="#52200B"/>
<path d="M22.7881 10.0429C22.8984 10.0868 23.0223 10.1327 23.1276 10.1845L23.8727 10.7113L24.0087 10.8511C23.8163 10.8082 23.7841 10.7668 23.6218 10.8294L23.5785 10.887C23.38 10.7168 23.1856 10.5955 22.9674 10.4525C23.0309 10.2449 22.9201 10.1951 22.7881 10.0429Z" fill="#8E4A1F"/>
<path d="M19.5143 8.28901C20.0766 8.0922 20.9802 8.25719 21.5886 8.21265C22.1271 8.17315 22.5639 8.08988 23.109 8.09513C23.2929 8.21336 23.4919 8.27062 23.5402 8.40693C23.4264 8.50551 23.4228 8.50309 23.2939 8.56379C22.6722 8.51783 22.0823 8.62106 21.4551 8.64475C20.9839 8.66262 20.3576 8.59288 19.9077 8.65737C19.6854 8.65884 19.4175 8.71823 19.2331 8.60066C19.1785 8.65389 19.2052 8.64414 19.1667 8.65424C19.2315 8.50677 19.3928 8.46026 19.5143 8.28901Z" fill="#60250E"/>
<path d="M19.8877 9.75034C20.1518 9.42289 21.1267 9.34688 21.3973 9.07518C21.1949 9.09685 20.9946 9.17214 20.8373 9.11336L20.843 9.07109C21.653 8.76095 22.5861 9.12609 23.2914 9.49506C23.4853 9.59657 23.8606 9.59965 24.0158 9.74696C23.8939 9.7656 23.8314 9.75938 23.711 9.75443L23.6818 9.80009C23.972 9.95943 24.2752 10.3048 24.376 10.6199L24.1186 10.3694C24.0022 10.2619 23.8319 10.1371 23.7039 10.0369C23.2289 9.73812 22.8037 9.61005 22.2767 9.44253C21.2609 9.30138 20.8474 9.41844 19.8877 9.75034Z" fill="#FED16A"/>
<path d="M24.1186 10.3694L24.376 10.6199C24.583 10.9077 24.8037 11.2021 24.9861 11.5046C24.7649 11.5057 24.8012 11.4688 24.6833 11.5829L24.6435 11.7354C24.4642 11.3925 24.2843 11.1244 24.0087 10.8511L23.8727 10.7113C24.0707 10.5603 24.0032 10.631 24.1186 10.3694Z" fill="#60250E"/>
<path d="M18.2812 9.12033C18.6607 8.70858 18.9678 8.44445 19.5143 8.28901C19.3928 8.46026 19.2315 8.50677 19.1667 8.65424C19.2052 8.64414 19.1785 8.65389 19.2331 8.60066C19.4175 8.71823 19.6854 8.65884 19.9077 8.65737C19.2163 8.81661 18.9481 8.91514 18.5231 9.51733C18.4986 9.37249 18.5431 9.36208 18.47 9.19325L18.2812 9.12033Z" fill="#723314"/>
<path d="M18.1135 11.3319C18.3256 10.7294 18.2968 10.32 19.0255 9.98978C19.2182 9.90246 19.3324 9.9217 19.537 9.92897L19.3428 10.0739C18.5377 10.5812 18.6467 10.6845 18.1135 11.3319Z" fill="#FED16A"/>
<path d="M24.6435 11.7354L24.6833 11.5829C24.8012 11.4688 24.7649 11.5057 24.9861 11.5046L25.1851 11.9758C24.9281 11.9824 24.9387 11.9753 24.7412 12.1187L24.6435 11.7354Z" fill="#60250E"/>
<path d="M18.1135 11.3319C18.6467 10.6845 18.5377 10.5812 19.3428 10.0739C19.5302 10.1126 19.6094 10.0953 19.7284 10.2137L19.743 10.3111L19.6664 10.3807C19.7859 10.5301 19.8423 10.5639 20.0603 10.597L19.9174 10.6764C19.3081 11.0067 18.9179 11.2218 18.715 11.9622C18.5578 12.5359 18.4901 13.405 18.4256 14.0126L18.4457 14.0919C18.5607 14.3989 18.658 14.6338 18.9171 14.8519L19.0435 15.0545C19.9654 15.9408 20.0905 16.2716 21.5316 16.2539C22.1432 16.2463 22.647 16.1276 23.1745 15.7771C23.443 15.7352 23.6314 15.6398 23.8138 15.7292C24.0309 15.5681 24.3166 15.1746 24.4627 14.9423C24.9186 14.1636 25.1292 13.4242 24.8662 12.544C24.837 12.4031 24.7851 12.2571 24.7412 12.1187C24.9387 11.9753 24.9281 11.9824 25.1851 11.9758L25.2919 12.2571C25.4425 13.4459 25.368 14.1399 24.8339 15.1959C24.9528 15.3751 24.8878 15.3171 25.0818 15.4145L25.1528 15.4024L25.1604 15.4953C25.2969 15.4635 25.3352 15.3549 25.4314 15.2171L25.5463 15.2125C24.8788 16.2539 24.4536 17.5922 23.1271 17.8881C22.3634 18.0583 21.6415 17.7568 20.8709 17.6478C20.095 17.5382 19.0785 17.823 18.414 17.3998C17.8807 17.0604 17.7778 16.415 17.6306 15.864C17.6465 16.0711 17.6678 16.1372 17.5845 16.3246C17.3988 16.4069 17.3541 16.3034 17.2279 16.1605C17.18 15.9236 17.106 15.7019 17.0342 15.4711C17.0428 15.3635 17.0539 15.256 17.0675 15.1489C17.193 15.0646 17.1821 15.0974 17.3749 15.112L17.2686 14.9262C17.395 14.7141 17.6645 14.6585 17.8906 14.7211C17.489 13.3737 17.4496 12.6005 18.1135 11.3319Z" fill="#60250E"/>
<path d="M17.2686 14.9262C17.395 14.7141 17.6645 14.6585 17.8906 14.7211C18.8067 16.4953 20.2096 17.2028 22.1619 17.0715L22.5689 16.968C23.2243 16.7311 23.6405 16.4862 24.1735 16.0418C24.4596 15.7372 24.6123 15.5463 24.8339 15.1959C24.9528 15.3751 24.8878 15.3171 25.0818 15.4145L25.1528 15.4024L25.1604 15.4953C25.2969 15.4635 25.3352 15.3549 25.4314 15.2171L25.5463 15.2125C24.8788 16.2539 24.4536 17.5922 23.1271 17.8881C22.3634 18.0583 21.6415 17.7568 20.8709 17.6478C20.095 17.5382 19.0785 17.823 18.414 17.3998C17.8807 17.0604 17.7778 16.415 17.6306 15.864C17.6465 16.0711 17.6678 16.1372 17.5845 16.3246C17.3988 16.4069 17.3541 16.3034 17.2279 16.1605C17.18 15.9236 17.106 15.7019 17.0342 15.4711C17.0428 15.3635 17.0539 15.256 17.0675 15.1489C17.193 15.0646 17.1821 15.0974 17.3749 15.112L17.2686 14.9262Z" fill="#FFD95E"/>
<path d="M24.1735 16.0418C24.3614 16.2307 24.2415 16.3832 24.2153 16.6397C23.708 16.9316 23.6133 17.0745 23.0334 17.2634C22.8364 17.2048 22.7589 17.1887 22.579 17.0862L22.5689 16.968C23.2243 16.7311 23.6405 16.4862 24.1735 16.0418Z" fill="#FED16A"/>
<path d="M17.0342 15.4711C17.0428 15.3635 17.0539 15.256 17.0675 15.1489C17.193 15.0646 17.1821 15.0974 17.3749 15.112C17.4913 15.3873 17.5803 15.5681 17.6306 15.864C17.6465 16.0711 17.6678 16.1372 17.5845 16.3246C17.3988 16.4069 17.3541 16.3034 17.2279 16.1605C17.18 15.9236 17.106 15.7019 17.0342 15.4711Z" fill="#52200B"/>
<path d="M24.8339 15.1959C24.9528 15.3751 24.8878 15.3171 25.0818 15.4145C24.8153 15.7857 24.6002 16.4215 24.2153 16.6397C24.2415 16.3832 24.3614 16.2307 24.1735 16.0418C24.4596 15.7372 24.6123 15.5463 24.8339 15.1959Z" fill="#FED16A"/>
<path d="M22.1619 17.0715L22.5689 16.968L22.579 17.0862C22.7589 17.1887 22.8364 17.2048 23.0334 17.2634C22.7704 17.3321 22.5075 17.4104 22.248 17.3129C22.1437 17.1594 22.1639 17.2397 22.1619 17.0715Z" fill="#FED16A"/>
<path d="M18.6566 15.1246L18.7134 14.9777C18.8472 14.9267 18.8596 14.9747 19.0435 15.0545C19.9654 15.9408 20.0905 16.2716 21.5316 16.2539C22.1432 16.2463 22.647 16.1276 23.1745 15.7771C23.443 15.7352 23.6314 15.6398 23.8138 15.7292C22.6072 16.9983 20.3962 16.8347 19.1383 15.7231C18.9634 15.5686 18.7942 15.3161 18.6566 15.1246Z" fill="#A35C28"/>
<path d="M18.0919 13.9318C17.9927 13.4162 18.009 12.8849 18.1397 12.3763C18.3716 11.5062 18.8861 10.8299 19.6664 10.3807C19.7859 10.5301 19.8423 10.5639 20.0603 10.597L19.9174 10.6764C19.3081 11.0067 18.9179 11.2218 18.715 11.9622C18.5578 12.5359 18.4901 13.405 18.4256 14.0126L18.0919 13.9318Z" fill="#8E4A1F"/>
<path d="M18.0919 13.9318L18.4256 14.0126L18.4457 14.0919C18.5607 14.3989 18.658 14.6338 18.9171 14.8519L19.0435 15.0545C18.8596 14.9747 18.8472 14.9267 18.7134 14.9777L18.6566 15.1246C18.4079 14.8161 18.2167 14.303 18.0919 13.9318Z" fill="#8E4A1F"/>
<path d="M24.7412 12.1187C24.9387 11.9753 24.9281 11.9824 25.1851 11.9758L25.2919 12.2571C25.1538 12.4511 25.1276 12.5692 24.8662 12.544C24.837 12.4031 24.7851 12.2571 24.7412 12.1187Z" fill="#52200B"/>
<path d="M20.9322 10.4825C22.0782 10.8431 22.7694 10.3696 23.8727 11.6203L23.8284 11.7683L23.7674 11.7698L23.6521 11.593C23.6087 11.7238 23.7181 12.0364 23.7589 12.1834C24.1412 13.5581 23.904 14.3267 22.6359 15.0433C22.0757 15.3595 21.0861 15.4453 20.4631 15.258C19.8951 15.0868 19.2641 14.3454 18.9703 13.8414C18.9004 13.7217 18.8508 13.3995 18.8323 13.2545C19.078 12.7106 18.8178 12.0157 19.2737 11.5915C19.5456 11.3385 19.8773 11.1713 20.1594 10.9006C20.44 10.6739 20.5793 10.5952 20.9322 10.4825Z" fill="#E9C991"/>
<path d="M20.2986 12.2687C20.4771 12.2046 20.6764 12.242 20.8195 12.3667C20.9627 12.4915 21.0274 12.6839 20.9888 12.8702C20.9501 13.0561 20.8141 13.2071 20.6331 13.2641C20.361 13.35 20.0703 13.202 19.9792 12.9308C19.8881 12.6596 20.0301 12.3652 20.2986 12.2687Z" fill="#723314"/>
<path d="M22.5654 11.4001C22.8218 11.3314 23.0863 11.4794 23.1629 11.7344C23.2395 11.9895 23.1004 12.2591 22.8485 12.3435C22.6782 12.4006 22.4908 12.3602 22.3593 12.2384C22.2274 12.1167 22.1724 11.9329 22.2153 11.7582C22.2581 11.5839 22.3921 11.4466 22.5654 11.4001Z" fill="#8E4A1F"/>
<path d="M21.1431 14.0858C21.2968 14.0252 21.4712 14.052 21.5996 14.1565C21.7276 14.2606 21.7901 14.4262 21.7629 14.5893C21.7352 14.7524 21.6223 14.8883 21.4666 14.9449C21.2313 15.0302 20.971 14.91 20.8826 14.6752C20.794 14.4403 20.9101 14.1777 21.1431 14.0858Z" fill="#8E4A1F"/>
<path d="M22.6601 13.5308C22.8243 13.4641 23.0122 13.5384 23.0868 13.6995C23.1614 13.8611 23.0969 14.0525 22.9397 14.1353C22.8309 14.1924 22.6999 14.1848 22.5981 14.1156C22.4969 14.0469 22.4415 13.9272 22.4541 13.805C22.4672 13.6823 22.5463 13.5773 22.6601 13.5308Z" fill="#60250E"/>
<path d="M20.7419 11.1102C20.8832 11.0632 21.0359 11.1375 21.0868 11.2779C21.1378 11.4178 21.0684 11.5733 20.9303 11.6284C20.8371 11.6657 20.7311 11.6491 20.6535 11.5854C20.576 11.5213 20.5393 11.4203 20.5577 11.3218C20.5761 11.2228 20.6467 11.1415 20.7419 11.1102Z" fill="#723314"/>
<path d="M18.8323 13.2545C18.8508 13.3995 18.9004 13.7217 18.9703 13.8414C19.2641 14.3454 19.8951 15.0868 20.4631 15.258C21.0861 15.4453 22.0757 15.3595 22.6359 15.0433C23.904 14.3267 24.1412 13.5581 23.7589 12.1834C23.7181 12.0364 23.6087 11.7238 23.6521 11.593L23.7674 11.7698L23.8284 11.7683L23.8727 11.6203C24.1145 11.8577 24.2652 13.0394 24.2788 13.3884C24.3261 14.6469 22.9463 15.9362 21.6959 15.8559C20.2719 15.8044 20.0867 15.9983 19.285 14.7575C19.1585 14.5358 19.0159 14.3196 18.8781 14.1045C18.7988 13.7702 18.7666 13.5889 18.8323 13.2545Z" fill="#D99547"/>
<path d="M23.5785 10.887L23.6218 10.8294C23.7841 10.7668 23.8163 10.8082 24.0087 10.8511C24.2843 11.1244 24.4642 11.3925 24.6435 11.7354L24.7412 12.1187C24.7851 12.2571 24.837 12.4031 24.8662 12.544C25.1292 13.4242 24.9186 14.1636 24.4627 14.9423L24.3362 14.8232C24.4445 14.606 24.5916 13.2152 24.5941 12.9207C24.6017 11.9617 24.1941 11.5147 23.5785 10.887Z" fill="#A35C28"/>
<path d="M18.4457 14.0919C18.4873 13.9535 18.4633 13.9469 18.5565 13.8757C18.6794 13.9788 18.7419 14.0192 18.8781 14.1045C19.0159 14.3196 19.1585 14.5358 19.285 14.7575C19.1334 14.8585 19.108 14.8474 18.9171 14.8519C18.658 14.6338 18.5607 14.3989 18.4457 14.0919Z" fill="#60250E"/>
<path d="M24.3362 14.8232L24.4627 14.9423C24.3166 15.1746 24.0309 15.5681 23.8138 15.7292C23.6314 15.6398 23.443 15.7352 23.1745 15.7771C23.5271 15.5413 24.0536 15.1302 24.3362 14.8232Z" fill="#8E4A1F"/>
<path d="M23.109 8.09513C24.4002 8.24295 24.4551 9.1279 25.1171 9.9664C25.5921 10.5681 26.4037 10.5981 26.7136 11.495C26.4324 11.342 26.3105 10.8708 25.9297 10.8123C25.8476 10.9299 25.8748 10.8956 25.8944 11.0824C25.4999 10.8077 25.2007 10.6456 24.8158 10.3283C24.5705 10.0307 24.4974 9.92205 24.3433 9.57495C24.0999 9.04467 23.8994 8.72343 23.2939 8.56379C23.4228 8.50309 23.4264 8.50551 23.5402 8.40693C23.4919 8.27062 23.2929 8.21336 23.109 8.09513Z" fill="#723314"/>
<path d="M24.3433 9.57495C24.3397 9.38829 24.3004 9.26113 24.3951 9.14235C24.6173 9.22886 24.9589 9.95528 25.0637 10.1821C24.9584 10.2849 24.9498 10.2791 24.8158 10.3283C24.5705 10.0307 24.4974 9.92205 24.3433 9.57495Z" fill="#60250E"/>
<path d="M41.946 1.78749C42.1001 1.56967 42.2961 1.27585 42.4608 1.0751C42.548 2.3117 42.481 4.36215 42.482 5.65552L42.5097 20.441C42.5107 21.2864 42.5717 23.2737 42.3898 23.9868L42.3283 24.0126C42.088 23.8994 41.4296 23.4242 41.2568 23.2348C39.753 22.1798 38.2275 20.9748 36.754 19.8709L28.3886 13.6348C28.1443 13.4596 27.8808 13.248 27.6395 13.0631C30.8149 10.3851 34.2834 7.91085 37.5207 5.29695C38.5097 4.49856 39.627 3.57962 40.6553 2.86193C40.9752 2.54144 41.5147 2.2355 41.946 1.78749Z" fill="#FAEFDF"/>
<path d="M41.946 1.78749C42.1001 1.56967 42.2961 1.27585 42.4608 1.0751C42.548 2.3117 42.481 4.36215 42.482 5.65552L42.5097 20.441C42.5107 21.2864 42.5717 23.2737 42.3898 23.9868L42.3283 24.0126C42.088 23.8994 41.4296 23.4242 41.2568 23.2348C41.6064 22.9858 41.5747 20.2617 41.5858 19.7699C41.6114 17.972 41.6477 16.1741 41.6946 14.3762L42.018 5.50224C42.0397 4.77829 42.2855 2.22762 41.946 1.78749Z" fill="#E9C991"/>
<path d="M40.6553 2.86193C40.4457 3.35402 39.3172 4.2215 38.8835 4.60042L35.6728 7.36906C33.7383 9.03145 31.8658 10.7643 29.8939 12.3844C29.6592 12.5773 28.4708 13.5096 28.3886 13.6348C28.1443 13.4596 27.8808 13.248 27.6395 13.0631C30.8149 10.3851 34.2834 7.91085 37.5207 5.29695C38.5097 4.49856 39.627 3.57962 40.6553 2.86193Z" fill="#E9C991"/>
</svg>
