<svg width="24" height="24" viewBox="0 0 24 24" fill="none" xmlns="http://www.w3.org/2000/svg">
<path d="M8.79273 0.552779C6.73091 0.54187 4.72364 2.52732 5.64 4.99278H2.18182C1.60316 4.99278 1.04821 5.22265 0.63904 5.63182C0.22987 6.04099 0 6.59594 0 7.1746V9.35642C0 9.64574 0.114935 9.92322 0.31952 10.1278C0.524105 10.3324 0.801582 10.4473 1.09091 10.4473H10.9091V7.1746H13.0909V10.4473H22.9091C23.1984 10.4473 23.4759 10.3324 23.6805 10.1278C23.8851 9.92322 24 9.64574 24 9.35642V7.1746C24 6.59594 23.7701 6.04099 23.361 5.63182C22.9518 5.22265 22.3968 4.99278 21.8182 4.99278H18.36C19.6364 1.42551 14.8364 -1.09449 12.6218 1.98187L12 2.81096L11.3782 1.96005C10.6909 0.989143 9.74182 0.563688 8.79273 0.552779ZM8.72727 2.81096C9.69818 2.81096 10.1891 3.98914 9.50182 4.67642C8.81455 5.36369 7.63636 4.87278 7.63636 3.90187C7.63636 3.61254 7.7513 3.33507 7.95588 3.13048C8.16047 2.9259 8.43795 2.81096 8.72727 2.81096ZM15.2727 2.81096C16.2436 2.81096 16.7345 3.98914 16.0473 4.67642C15.36 5.36369 14.1818 4.87278 14.1818 3.90187C14.1818 3.61254 14.2968 3.33507 14.5013 3.13048C14.7059 2.9259 14.9834 2.81096 15.2727 2.81096ZM1.09091 11.5382V20.2655C1.09091 20.8442 1.32078 21.3991 1.72995 21.8083C2.13912 22.2175 2.69407 22.4473 3.27273 22.4473H20.7273C21.3059 22.4473 21.8609 22.2175 22.2701 21.8083C22.6792 21.3991 22.9091 20.8442 22.9091 20.2655V11.5382H13.0909V20.2655H10.9091V11.5382H1.09091Z" fill="#3D2000"/>
</svg>
