<svg width="40" height="43" viewBox="0 0 40 43" fill="none" xmlns="http://www.w3.org/2000/svg">
<path d="M29.6442 0.0285379C29.9235 -0.00332173 29.9858 -0.0354498 30.2159 0.0927854C30.4382 0.337906 32.4186 7.62793 32.6614 8.47487L36.2729 20.8207L38.4342 28.3587C38.9314 30.0675 39.6181 32.3255 40 34.0274C39.7957 34.6486 39.5056 35.1086 39.1793 35.6721C36.4039 36.2463 33.0731 37.1855 30.3126 37.8923L12.9117 42.277C11.9572 42.5147 11.0023 42.7662 10.041 42.9726C9.21722 43.1492 9.15565 42.4363 9.02447 41.841L0 8.88287C0.314693 8.18839 0.53445 7.81842 1.01356 7.21959C1.30092 7.17499 1.58935 7.10377 1.87329 7.0356C4.25214 6.46445 6.61613 5.82295 8.98956 5.22857C9.64447 5.06455 10.2354 4.73719 10.8688 4.52413C11.4568 4.32634 12.1212 4.21025 12.7306 4.08719C12.7072 4.0094 12.6844 3.93135 12.6622 3.85322C12.4113 2.97051 12.265 2.31327 12.7539 1.47111C13.1417 0.816132 13.7786 0.342619 14.5218 0.156705C15.2097 -0.0170633 16.0588 0.0413459 16.6667 0.423595C17.537 0.970652 17.7004 1.80272 17.922 2.71291C18.729 2.556 19.5207 2.28612 20.328 2.11362C20.6818 2.01651 21.1541 2.13831 21.4931 2.05249C24.2081 1.36512 26.9038 0.609711 29.6442 0.0285379Z" fill="#572106"/>
<path d="M21.8348 2.61581C24.4189 1.8371 27.2596 1.33671 29.7797 0.571013C31.5436 7.24037 33.6664 14.0051 35.5838 20.6447C36.8234 24.9373 38.0095 29.5676 39.3287 33.815C35.7741 34.6473 32.2308 35.5281 28.7003 36.4573L19.8306 38.6716C16.9538 39.4137 13.5753 40.3708 10.6783 40.9887C10.4648 40.2838 10.0619 39.0685 9.92694 38.3868C9.75823 38.4273 9.56448 38.4638 9.40582 38.5262L9.28945 38.1797C9.50103 38.0171 9.60347 37.9581 9.75415 37.735C9.44515 36.8516 9.20154 35.7471 8.94822 34.8225L7.32799 28.9489L3.96726 16.7136C3.15028 13.7506 2.25632 10.725 1.47799 7.75789C4.02133 7.21674 6.77706 6.39536 9.37433 5.80489C9.27765 6.67844 9.35296 7.20718 9.65506 8.02611C9.71602 8.14989 9.78872 8.28703 9.83991 8.4132C10.133 8.84258 10.2274 8.98435 10.7679 8.86846C14.0141 8.1724 17.2086 7.24986 20.4477 6.5141C21.0529 6.37657 21.8244 6.1894 22.3959 5.97733C22.6862 5.67726 22.6428 5.44176 22.6511 5.02439L22.618 4.60544C22.4753 3.83484 22.3703 3.21517 21.8348 2.61581Z" fill="#FEFEFE"/>
<path d="M21.8348 2.61581C24.4189 1.8371 27.2596 1.33671 29.7797 0.571013C31.5436 7.24037 33.6664 14.0051 35.5838 20.6447C36.8234 24.9373 38.0095 29.5676 39.3287 33.815C35.7741 34.6473 32.2308 35.5281 28.7003 36.4573L19.8306 38.6716C16.9538 39.4137 13.5753 40.3708 10.6783 40.9887C10.4648 40.2838 10.0619 39.0685 9.92694 38.3868C9.75823 38.4273 9.56448 38.4638 9.40582 38.5262L9.28945 38.1797C9.50103 38.0171 9.60347 37.9581 9.75415 37.735C9.44515 36.8516 9.20154 35.7471 8.94822 34.8225L7.32799 28.9489L3.96726 16.7136C3.15028 13.7506 2.25632 10.725 1.47799 7.75789C4.02133 7.21674 6.77706 6.39536 9.37433 5.80489C9.27765 6.67844 9.35296 7.20718 9.65506 8.02611C9.71602 8.14989 9.78872 8.28703 9.83991 8.4132C8.07951 8.6939 6.30847 9.43669 4.32356 9.68268C5.53068 13.5013 6.61063 17.6666 7.65501 21.5467L10.515 31.7894C10.8386 32.9143 11.1184 34.0831 11.4508 35.2108C11.6855 36.0073 11.8594 37.0627 12.2248 37.8047C12.7178 37.6341 13.4834 37.4828 14.0183 37.3501L18.1774 36.3339L29.219 33.5701C31.7177 32.974 34.2033 32.3249 36.674 31.6232C35.43 29.4833 34.8375 26.6166 34.1698 24.2076L32.385 17.9815L29.9048 9.22576L28.9977 5.95815C28.7729 5.16418 28.518 4.43559 28.3377 3.62357C27.143 3.81804 24.37 4.60265 23.0864 4.94807L22.6511 5.02439L22.618 4.60544C22.4753 3.83484 22.3703 3.21517 21.8348 2.61581Z" fill="#C28950"/>
<path d="M24.082 4.27901C24.7244 4.05394 27.9597 3.15556 28.5474 3.27537C28.9172 3.71291 29.988 7.90458 30.2059 8.71375C31.4329 13.1416 32.6956 17.5596 33.9938 21.9674C34.5854 24.0323 35.1524 26.1053 35.7536 28.1674C36.1086 29.3848 36.5588 30.7189 37.2981 31.7653C35.3485 32.6607 32.2135 33.2103 30.0544 33.8077C28.8496 34.1409 25.8765 34.9221 24.7884 35.1305C23.3021 35.4153 12.3886 38.3994 11.9109 38.2581C11.3616 36.9339 10.8848 34.8252 10.5002 33.4313C9.67475 30.5486 8.8709 27.6598 8.08876 24.7652L5.57356 15.5006C5.0842 13.7624 4.21764 11.1455 3.8864 9.45707C5.72002 8.86514 7.81158 8.52643 9.65506 8.02611C9.71602 8.14989 9.78872 8.28703 9.83991 8.4132C8.07951 8.6939 6.30847 9.43669 4.32356 9.68268C5.53068 13.5013 6.61063 17.6666 7.65501 21.5467L10.515 31.7894C10.8386 32.9143 11.1184 34.0831 11.4508 35.2108C11.6855 36.0073 11.8594 37.0627 12.2248 37.8047C12.7178 37.6341 13.4834 37.4828 14.0183 37.3501L18.1774 36.3339L29.219 33.5701C31.7177 32.974 34.2033 32.3249 36.674 31.6232C35.43 29.4833 34.8375 26.6166 34.1698 24.2076L32.385 17.9815L29.9048 9.22576L28.9977 5.95815C28.7729 5.16418 28.518 4.43559 28.3377 3.62357C27.143 3.81804 24.37 4.60265 23.0864 4.94807C23.359 4.66226 23.6553 4.46293 24.0469 4.38587L24.082 4.27901Z" fill="#535152"/>
<path d="M22.618 4.60544C22.9151 4.51106 23.7818 4.30722 24.082 4.27901L24.0469 4.38587C23.6553 4.46293 23.359 4.66226 23.0864 4.94807L22.6511 5.02439L22.618 4.60544Z" fill="#474144"/>
<path d="M9.75415 37.735L9.92694 38.3868C9.75823 38.4273 9.56448 38.4638 9.40582 38.5262L9.28945 38.1797C9.50103 38.0171 9.60347 37.9581 9.75415 37.735Z" fill="#915025"/>
<path d="M13.4976 4.40566C13.4058 4.19067 13.3163 3.97469 13.229 3.75778C12.5759 2.12351 13.3559 0.803389 15.153 0.584022C15.5087 0.540613 15.8467 0.647743 16.1676 0.796554L16.474 0.973043C17.3459 1.50822 17.3974 2.45584 17.4071 3.36411C18.1478 3.27656 19.0834 2.92325 19.5286 2.88674C20.3625 2.66014 21.1096 2.40022 21.6319 3.30417C21.8916 3.76096 22.3545 4.97096 22.1052 5.4622C21.3043 5.81312 20.1881 6.0374 19.3119 6.24754L15.88 7.08466C14.233 7.4831 12.5909 7.94599 10.9392 8.33143C10.4109 8.45469 10.3203 8.27116 10.1187 7.80853L10.0576 7.73021C10.0018 7.05114 9.57547 5.55221 10.5963 5.19491C11.4926 4.88123 12.5637 4.64527 13.4976 4.40566Z" fill="#B4B3B3"/>
<path d="M14.6587 3.91953C13.0984 2.99732 13.8936 1.21896 15.7682 1.5201C17.5064 2.54764 16.3841 4.42762 14.6587 3.91953Z" fill="#572106"/>
<path d="M15.0207 1.88376C15.4747 1.78288 15.9273 2.05813 16.042 2.50489C16.1565 2.95159 15.8916 3.40758 15.4441 3.53369C15.1431 3.61852 14.8195 3.53462 14.599 3.31466C14.3785 3.09476 14.2961 2.77351 14.3838 2.47596C14.4715 2.1784 14.7155 1.9516 15.0207 1.88376Z" fill="black"/>
<path d="M10.0576 7.73021C11.8277 7.10178 13.605 6.8313 15.4055 6.31564C16.0927 6.11878 16.7925 5.96704 17.4848 5.78909L20.9901 4.89417C21.3063 4.81419 21.7587 4.64334 22.0505 4.64374C21.9271 4.91342 12.7629 7.15454 11.6644 7.43597C11.3585 7.51436 10.4475 7.76698 10.1187 7.80853L10.0576 7.73021Z" fill="#535152"/>
<path d="M19.3449 3.29521C19.7932 3.26162 20.674 2.91568 20.986 3.07266C21.0494 3.20866 21.0461 3.18271 21.0767 3.327C20.3728 3.39696 18.1269 4.07318 17.695 4.03449C17.5759 3.88561 17.601 3.96885 17.6232 3.7753C17.7802 3.63485 18.9987 3.38508 19.3449 3.29521Z" fill="#FEFEFE"/>
<path d="M19.5286 2.88674C20.3625 2.66014 21.1096 2.40022 21.6319 3.30417C21.4871 3.55341 21.5682 3.49905 21.339 3.56994C21.2074 3.51 21.1363 3.47668 21.0767 3.327C21.0461 3.18271 21.0494 3.20866 20.986 3.07266C20.674 2.91568 19.7932 3.26162 19.3449 3.29521C19.5565 3.10936 19.8901 3.04193 20.1726 2.95578C20.0239 2.88529 19.7518 2.91402 19.5286 2.88674Z" fill="#E1E1E3"/>
<path d="M15.7682 1.5201L15.6839 1.40467C15.4511 1.33863 15.359 1.33206 15.177 1.18478L15.1707 1.04884C15.4664 0.672233 15.6927 0.787063 16.1676 0.796554L16.474 0.973043C16.4102 1.22241 16.4153 1.25082 16.2444 1.43142C16.029 1.53039 16.0122 1.52315 15.7682 1.5201Z" fill="#E1E1E3"/>
<path d="M1.02327 8.24448C2.73797 14.3121 4.40765 20.392 6.0321 26.4839C7.07158 30.2817 8.33465 34.3805 9.28945 38.1797L9.40582 38.5262C9.5821 39.4369 9.97739 40.4073 10.1772 41.385C9.97122 41.6624 9.86181 41.7606 9.61164 41.9963C9.30324 40.554 8.93495 39.3048 8.5617 37.895L0.593609 8.78317C0.728276 8.6025 0.880899 8.42064 1.02327 8.24448Z" fill="#C28950"/>
<path d="M39.1049 34.344L39.1625 34.4064C39.1337 34.6752 39.0071 34.8504 38.8724 35.09C37.3186 35.4305 35.6192 35.9303 34.0588 36.3233L14.9498 41.1161C13.3513 41.519 11.8608 41.8476 10.2754 42.3182L10.2167 42.2226C10.289 41.9478 10.4353 41.8197 10.6226 41.6C12.4233 41.1938 14.3176 40.6562 16.1212 40.2048L35.1394 35.394C36.4241 35.0761 37.8815 34.786 39.1049 34.344Z" fill="#C28950"/>
<path d="M21.4645 13.5901C22.1419 13.498 24.567 14.7141 25.0129 15.2207C24.9962 15.3727 24.9583 15.5217 24.9002 15.6635C24.6047 16.3979 24.0198 17.4234 23.655 18.1454C23.4488 18.5537 22.9998 19.4721 22.7767 19.8209C23.87 20.4467 25.0699 20.9749 26.1754 21.6122C26.4576 21.7749 26.7973 21.9369 27.0266 22.1673C27.1212 22.2622 27.1629 22.338 27.155 22.4723C27.1308 22.8861 25.9773 24.8462 25.6691 25.2723C25.5845 25.3892 25.4903 25.4826 25.3801 25.5757C24.7381 25.473 24.0574 25.0305 23.4633 24.762C22.6603 24.399 21.8609 23.8967 21.0506 23.5613C20.6182 24.4811 20.0946 25.4557 19.6429 26.371C19.4459 26.7703 18.9126 27.8246 18.6633 28.1124C18.2374 28.3729 16.811 27.4985 16.3529 27.2902C16.1592 27.1761 15.2649 26.7656 15.2608 26.5356C15.2483 25.8317 16.0594 24.3501 16.3384 23.733C16.6661 23.0081 16.9816 22.3303 17.3233 21.7712C16.3724 21.2256 13.457 20.0262 12.8826 19.2567C12.9109 18.5798 14.0502 16.5028 14.6833 16.1158C14.8747 15.9987 16.1961 16.6874 16.5075 16.8384C17.3652 17.2558 18.2182 17.6825 19.0664 18.1184C19.4134 17.3529 20.9667 14.0494 21.4645 13.5901Z" fill="#5A2105"/>
<path d="M21.2163 14.7104C21.3749 14.4519 21.4906 14.2383 21.6298 13.9687C22.2938 14.1153 23.9886 14.9014 24.4969 15.337L24.5403 15.3674C24.5085 16.0485 22.2706 19.5111 22.3176 19.9895L22.3646 20.0687L24.1625 20.9912C24.5243 21.1776 25.0619 21.4455 25.3973 21.6563C25.6777 21.7809 26.0582 22.0006 26.3247 22.1586C26.5169 22.2692 26.5948 22.3178 26.7652 22.4564C26.4188 23.1655 26.0869 23.7747 25.6902 24.459C25.5784 24.6518 25.348 25.007 25.268 25.1897C24.9233 25.0513 24.6093 24.876 24.2744 24.7213C23.1333 24.1945 22.0069 23.5374 20.8708 23.0116C20.5903 23.4561 20.4291 23.9346 20.1822 24.3836C19.5704 25.4964 19.0539 26.7095 18.3982 27.7944C17.6067 27.4062 16.7268 27.1032 15.9751 26.628C15.8865 26.572 15.7413 26.472 15.6504 26.43C15.6776 25.9734 16.9311 23.4855 17.1814 22.9267C17.3208 22.6155 17.6692 22.0195 17.7774 21.657C17.7591 21.5988 17.7335 21.5353 17.6761 21.5058C16.2741 20.7859 14.8588 20.1357 13.5119 19.3101L13.4952 19.2993C13.4039 19.2213 13.3674 19.2147 13.3297 19.1119C13.4088 18.6029 14.4153 16.8869 14.7954 16.4993C15.0939 16.5758 15.7601 16.9294 16.0791 17.0745C17.1232 17.5497 18.2085 18.1839 19.2455 18.641C19.3519 18.4566 19.454 18.2465 19.5442 18.0539C20.073 16.9246 20.6577 15.8252 21.2163 14.7104Z" fill="#F05E4A"/>
<path d="M15.8823 26.1672C17.859 26.9416 17.9908 27.5145 19.2397 25.1182C19.6269 24.4355 19.9729 23.7355 20.3559 23.0499C20.6289 22.5378 20.9454 22.5999 21.4137 22.8337C21.8214 23.0373 22.2778 23.2656 22.6931 23.4518C24.2319 24.1419 25.2395 24.7479 26.0099 22.7545C26.0641 22.6144 26.2544 22.3698 26.3247 22.1586C26.5169 22.2692 26.5948 22.3178 26.7652 22.4564C26.4188 23.1655 26.0869 23.7747 25.6902 24.459C25.5784 24.6518 25.348 25.007 25.268 25.1897C24.9233 25.0513 24.6093 24.876 24.2744 24.7213C23.1333 24.1945 22.0069 23.5374 20.8708 23.0116C20.5903 23.4561 20.4291 23.9346 20.1822 24.3836C19.5704 25.4964 19.0539 26.7095 18.3982 27.7944C17.6067 27.4062 16.7268 27.1032 15.9751 26.628C15.8865 26.572 15.7413 26.472 15.6504 26.43C15.7805 26.3787 15.812 26.2875 15.8823 26.1672Z" fill="#DA4938"/>
<path d="M21.2163 14.7104C21.3123 14.6875 21.4118 14.6482 21.4978 14.6846C21.5568 14.7723 21.5592 14.8668 21.5753 14.9736C21.3422 15.4069 21.0788 15.8204 20.8381 16.2693C20.5312 16.8519 20.2139 17.4291 19.8863 18.0006C19.7226 18.2922 19.5516 18.6589 19.3369 18.9028L19.3002 18.8957C18.415 18.7205 16.7482 17.7995 15.834 17.4088C15.603 17.3101 15.3304 17.1588 15.0854 17.1139C15.0137 17.1008 14.9571 17.113 14.8964 17.1522C14.4598 17.4344 13.7555 19.1903 13.4952 19.2993C13.4039 19.2213 13.3674 19.2147 13.3297 19.1119C13.4088 18.6029 14.4153 16.8869 14.7954 16.4993C15.0939 16.5758 15.7601 16.9294 16.0791 17.0745C17.1232 17.5497 18.2085 18.1839 19.2455 18.641C19.3519 18.4566 19.454 18.2465 19.5442 18.0539C20.073 16.9246 20.6577 15.8252 21.2163 14.7104Z" fill="#F0968B"/>
<path d="M24.0987 15.2019C24.2119 15.2622 24.3729 15.3804 24.4969 15.337L24.5403 15.3674C24.5085 16.0485 22.2706 19.5111 22.3176 19.9895C22.213 19.858 22.0624 19.5252 22.125 19.3608C22.5329 18.2888 23.0989 17.264 23.5906 16.2255C23.7031 15.9878 23.9138 15.3273 24.0987 15.2019Z" fill="#DA4938"/>
<path d="M13.5119 19.3101C13.6401 19.2907 13.6781 19.2802 13.7894 19.2145C13.9888 19.2144 17.6045 21.0914 17.7899 21.2954C17.8013 21.3078 17.8125 21.327 17.8211 21.3404C17.8035 21.4372 17.8018 21.4353 17.7546 21.5237L17.7852 21.6446L17.7774 21.657C17.7591 21.5988 17.7335 21.5353 17.6761 21.5058C16.2741 20.7859 14.8588 20.1357 13.5119 19.3101Z" fill="#DA4938"/>
<path d="M17.7852 21.6446L17.8469 21.4941L17.8967 21.4756C17.946 21.4989 18.0057 21.5229 18.0155 21.582C18.072 21.9228 17.7151 22.5181 17.5866 22.7965C17.1904 23.6544 16.7206 24.4476 16.3263 25.3043C16.1896 25.5965 16.021 25.85 15.8823 26.1672C15.812 26.2875 15.7805 26.3787 15.6504 26.43C15.6776 25.9734 16.9311 23.4855 17.1814 22.9267C17.3208 22.6155 17.6692 22.0195 17.7774 21.657L17.7852 21.6446Z" fill="#F0968B"/>
<path d="M21.2163 14.7104C21.3749 14.4519 21.4906 14.2383 21.6298 13.9687C22.2938 14.1153 23.9886 14.9014 24.4969 15.337C24.3729 15.3804 24.2119 15.2622 24.0987 15.2019C23.6612 14.9931 22.4509 14.3296 21.9497 14.3742C21.8251 14.3853 21.6482 14.8273 21.5753 14.9736C21.5592 14.8668 21.5568 14.7723 21.4978 14.6846C21.4118 14.6482 21.3123 14.6875 21.2163 14.7104Z" fill="#F0968B"/>
<path d="M25.3973 21.6563C25.3852 21.662 25.3247 21.6897 25.3117 21.6847C24.362 21.3237 23.4412 20.8496 22.5091 20.4385C22.3857 20.384 22.1673 20.1797 22.1782 20.0389L22.2345 20.0133L22.3646 20.0687L24.1625 20.9912C24.5243 21.1776 25.0619 21.4455 25.3973 21.6563Z" fill="#F0968B"/>
</svg>
