<svg width="32" height="32" viewBox="0 0 32 32" fill="none" xmlns="http://www.w3.org/2000/svg"><path d="M14.0747 0.156693C15.8281 -0.231384 18.4334 0.153697 20.1326 0.740011C20.6964 0.934555 21.2165 1.21595 21.7659 1.42259C22.568 1.72437 23.7154 2.03472 24.429 2.50324C25.7356 3.08589 26.747 4.35649 27.4857 5.55295C27.8499 6.14303 28.348 6.6498 28.761 7.2034C29.4536 8.20765 30.4084 9.77045 30.6528 10.9802C30.7753 11.5151 31.06 11.7679 31.2215 12.2512C31.4782 13.0185 31.5871 13.8799 31.741 14.6788C31.9469 15.8906 32.0687 17.0082 31.9585 18.2459C31.9032 18.8695 31.6601 19.4876 31.4953 20.0871C30.7658 23.5353 28.7965 26.6067 26.0076 28.6808C25.7489 28.8731 25.4772 29.0912 25.2014 29.2618C23.4689 30.1246 21.7935 31.2512 19.7975 31.2759C19.0015 31.286 18.4604 31.5679 17.7182 31.7459C16.2089 32.1076 14.6355 32.0828 13.1379 31.6738C12.1157 31.3972 11.4832 31.0098 10.4957 30.7607L9.96968 30.6784C9.38388 30.5858 8.64427 30.2407 8.10653 29.9679C7.08141 29.4477 6.63871 29.0435 6.0609 28.0389C5.65779 28.0204 5.2709 27.9526 4.92661 27.7005C4.00547 27.0261 3.08276 25.9602 2.57584 24.922C2.43114 24.6256 2.31696 24.0819 2.17113 23.8386C1.78087 23.1875 1.55448 22.9289 1.28505 22.2014C0.994489 21.4168 0.940554 20.7599 0.726901 20.0197C0.548953 19.4032 0.347281 19.093 0.195583 18.366C-0.0930657 16.9827 -0.0380392 16.0218 0.203264 14.6292C0.235454 14.4434 0.474231 14.0044 0.479181 13.9106C0.498228 13.5523 0.438696 13.1892 0.514647 12.8083C0.582304 12.4689 0.689966 12.1367 0.777251 11.8058C1.19602 10.2189 1.90106 8.78027 2.78103 7.41234C3.56017 6.20114 4.519 5.1492 5.63673 4.25943C6.09787 3.89229 6.50565 3.48571 7.0313 3.17157C7.52141 2.8786 8.03126 2.64908 8.52991 2.37499C8.69212 2.29486 8.90014 2.06736 9.05072 2.00246C9.81241 1.67399 10.5934 1.14948 11.3561 0.867802C12.2136 0.551181 13.1845 0.348833 14.0747 0.156693Z" fill="#F9C356"/></svg>
