<svg width="38" height="37" viewBox="0 0 38 37" fill="none" xmlns="http://www.w3.org/2000/svg">
<path d="M13.2496 0.456997C13.3895 0.446808 14.8342 0.190655 15.1107 0.150788C17.1824 -0.147779 18.3989 0.0386056 20.4221 0.348689C21.404 0.674499 22.4354 1.01769 23.3511 1.50685C25.4393 2.67055 27.4206 4.48964 28.4652 6.67451C28.8024 7.34396 29.1672 8.29049 29.317 9.02228C30.7374 9.36891 33.2444 9.62695 34.257 10.8203C35.5838 11.6155 36.6417 13.8067 36.9766 15.2663C37.7778 18.7539 36.8731 20.7741 34.278 22.9762C35.0515 23.8126 35.8394 24.6608 36.6097 25.4831C38.0687 27.0396 38.7221 30.2068 36.8444 31.7029C34.2736 33.7507 29.8184 34.0673 26.6911 33.839C23.9417 33.6381 19.6056 32.717 20.042 29.1341C20.2028 27.8145 20.7472 25.8604 21.934 25.0848L22.5863 24.4089C21.999 24.1279 21.0084 23.7473 20.6073 23.3095C20.0695 23.2585 18.6513 23.5276 17.8292 23.5343C17.6287 26.116 17.275 27.7118 15.2727 29.5388C15.038 29.7529 14.6116 29.979 14.422 30.1759C15.0094 30.5324 15.524 30.8253 16.0551 31.2695C17.3499 32.7714 18.1521 33.6014 16.3075 35.2526C15.5493 35.9308 12.9179 36.8184 11.9052 36.744C10.0297 37.1268 6.96848 37.0706 5.09737 36.64C4.76569 36.6253 4.2103 36.4372 3.86649 36.3629C1.01907 35.7487 -0.632752 33.4306 1.86536 31.0589C2.37776 30.6301 2.53204 30.493 3.12489 30.2046C1.82569 28.9009 0.991518 27.957 0.366715 26.1163C-0.0454125 24.8999 -0.198583 22.25 0.379938 21.119C0.744682 19.4759 2.42185 17.6611 3.85438 16.8439C4.38551 16.541 5.01913 16.4991 5.5084 16.0929C4.52987 14.3175 4.36016 12.194 4.6621 10.2109C5.08745 5.95678 7.8919 3.03335 11.482 1.12656C12.0595 0.894325 12.6655 0.67627 13.2496 0.456997ZM21.8745 22.6891C22.1731 22.8738 23.1285 23.398 23.3048 23.5684L25.2431 22.9843C24.9004 22.5535 24.4916 21.8637 24.1864 21.3827C23.6134 21.7712 22.5147 22.5614 21.8745 22.6891Z" fill="#FFCB2B"/>
<path d="M8.03515 15.7472C12.6931 15.6263 16.6546 18.8213 17.8788 23.2677C18.9081 23.2769 19.6342 23.2758 20.6524 22.9826L20.6073 23.3095C20.0695 23.2584 18.6513 23.5276 17.8292 23.5343C17.6287 26.116 17.275 27.7118 15.2727 29.5387C15.038 29.7529 14.6116 29.979 14.422 30.1759C15.0094 30.5323 15.524 30.8253 16.0551 31.2695C17.3499 32.7714 18.1521 33.6014 16.3075 35.2526C15.5493 35.9308 12.9179 36.8184 11.9052 36.744C10.0297 37.1268 6.96848 37.0706 5.09737 36.64C4.76569 36.6253 4.2103 36.4372 3.86649 36.3629C1.01907 35.7487 -0.632752 33.4306 1.86536 31.0589C2.37776 30.6301 2.53204 30.493 3.12489 30.2045C1.82569 28.9009 0.991518 27.957 0.366715 26.1163C-0.0454125 24.8999 -0.198583 22.25 0.379938 21.119C0.744682 19.4759 2.42185 17.6611 3.85438 16.8439C4.38551 16.541 5.01913 16.4991 5.5084 16.0928L5.61638 16.0742L5.6836 16.1639C6.00317 16.1894 7.60649 15.825 8.03515 15.7472Z" fill="#531E00"/>
<path d="M5.61731 16.0741L5.68452 16.1638C6.00409 16.1893 7.60741 15.8248 8.03607 15.7471L7.98208 15.9627C10.0427 15.7934 12.5805 16.7871 14.1386 18.1253C15.1701 19.0206 16.0043 20.1227 16.5883 21.3609C16.5277 23.0818 16.5288 25.5214 15.126 26.7856C13.2494 28.4782 10.91 27.9509 8.67631 27.9465C6.39638 27.9421 1.8751 26.5439 1.53019 23.8718C1.26132 22.7038 1.85637 20.649 2.00954 19.1124C1.76931 19.296 1.74617 19.2336 1.60622 19.3095C1.23156 19.5116 0.682793 20.7664 0.50538 21.1365L0.380859 21.1188C0.745603 19.4757 2.42277 17.6609 3.8553 16.8438C4.38643 16.5409 5.02005 16.4989 5.50932 16.0927L5.61731 16.0741Z" fill="#833D0C"/>
<path d="M5.61731 16.0741L5.68452 16.1638C6.00409 16.1893 7.60741 15.8248 8.03607 15.7471L7.98208 15.9627C7.46967 16.1033 6.65644 16.282 6.24872 16.5813C6.08343 17.3285 3.72967 19.2223 3.10817 20.1061C2.62111 20.8 1.9875 23.3554 1.72524 23.6489L1.53019 23.8718C1.26132 22.7038 1.85637 20.649 2.00954 19.1124C1.76931 19.296 1.74617 19.2336 1.60622 19.3095C1.23156 19.5116 0.682793 20.7664 0.50538 21.1365L0.380859 21.1188C0.745603 19.4757 2.42277 17.6609 3.8553 16.8438C4.38643 16.5409 5.02005 16.4989 5.50932 16.0927L5.61731 16.0741Z" fill="#7A3305"/>
<path d="M6.24735 16.5815C6.08206 17.3287 3.7283 19.2226 3.10681 20.1063C2.61975 20.8002 1.98614 23.3557 1.72387 23.6491C1.02855 20.8654 3.93767 17.7202 6.24735 16.5815Z" fill="#F69F17"/>
<path d="M3.12522 30.2046C3.49437 30.4317 3.86022 30.6873 4.27125 30.8135C4.28447 31.457 4.22276 31.1479 3.97923 31.7007L4.33405 32.1149L4.8663 32.4277C7.6388 33.2854 10.5215 32.9012 13.2918 32.3553C13.2587 31.8399 13.1926 31.9493 13.4108 31.5432C14.1491 30.9945 14.9414 31.3582 15.9541 31.2781L16.0554 31.2695C17.3502 32.7714 18.1525 33.6014 16.3078 35.2526C15.5497 35.9308 12.9182 36.8185 11.9055 36.744C10.03 37.1269 6.96881 37.0706 5.09771 36.64C4.76602 36.6253 4.21064 36.4373 3.86683 36.363C1.0194 35.7488 -0.632417 33.4307 1.86569 31.059C2.3781 30.6302 2.53238 30.4931 3.12522 30.2046Z" fill="#FFCB25"/>
<path d="M3.12522 30.2046C3.49437 30.4317 3.86022 30.6873 4.27125 30.8135C4.28447 31.457 4.22276 31.1479 3.97923 31.7007L4.33405 32.1149L4.8663 32.4277C4.26684 32.4712 3.58253 32.497 2.9985 32.6116C2.06184 32.7952 2.23595 33.3525 2.43099 33.9982C7.73465 38.4159 19.6599 34.0625 15.035 31.7872C14.6505 31.9274 13.6433 32.3311 13.2918 32.3553C13.2587 31.8399 13.1926 31.9493 13.4108 31.5432C14.1491 30.9945 14.9414 31.3582 15.9541 31.2781L16.0554 31.2695C17.3502 32.7714 18.1525 33.6014 16.3078 35.2526C15.5497 35.9308 12.9182 36.8185 11.9055 36.744C10.03 37.1269 6.96881 37.0706 5.09771 36.64C4.76602 36.6253 4.21064 36.4373 3.86683 36.363C1.0194 35.7488 -0.632417 33.4307 1.86569 31.059C2.3781 30.6302 2.53238 30.4931 3.12522 30.2046Z" fill="#FBBB0D"/>
<path d="M13.2917 32.3551C13.2587 31.8397 13.1925 31.949 13.4107 31.5429C14.149 30.9943 14.9413 31.358 15.954 31.2779L16.0554 31.2693C17.3502 32.7712 18.1524 33.6012 16.3077 35.2524C15.5496 35.9306 12.9182 36.8182 11.9055 36.7438C10.03 37.1266 6.96876 37.0704 5.09766 36.6398C5.54725 36.5017 6.79796 36.4567 7.37097 36.3946C9.72693 36.1388 13.9298 36.1776 15.651 34.3824C16.3188 33.6873 16.289 33.1936 16.246 32.3291C15.7656 31.7132 15.8008 31.7194 15.035 31.787C14.6504 31.9272 13.6432 32.3309 13.2917 32.3551Z" fill="#F69F17"/>
<path d="M13.2906 32.3551C13.2575 31.8397 13.1914 31.949 13.4096 31.5429C14.1479 30.9943 14.9402 31.358 15.9529 31.2779L16.0542 31.2693C17.349 32.7712 18.1512 33.6012 16.3066 35.2524C15.5484 35.9306 12.917 36.8182 11.9043 36.7438L11.9726 36.5349C14.0278 36.1061 17.9452 35.3542 16.2449 32.3291C15.7644 31.7132 15.7997 31.7194 15.0338 31.787C14.6492 31.9272 13.6421 32.3309 13.2906 32.3551Z" fill="#E08201"/>
<path d="M2.42982 33.9982C1.89428 33.4675 1.51521 33.189 1.89759 32.44C2.66785 31.8642 3.42819 31.9916 4.33288 32.1149L4.86513 32.4276C4.26567 32.4712 3.58136 32.497 2.99733 32.6116C2.06067 32.7952 2.23478 33.3525 2.42982 33.9982Z" fill="#FDB706"/>
<path d="M3.12476 30.2046C3.49392 30.4317 3.85976 30.6873 4.27079 30.8135C4.28401 31.457 4.2223 31.1479 3.97877 31.7007C3.3143 31.2909 2.65202 31.0245 1.86523 31.059C2.37764 30.6302 2.53192 30.4931 3.12476 30.2046Z" fill="#E08201"/>
<path d="M14.4217 30.1758C15.009 30.5323 15.5236 30.8252 16.0547 31.2694L15.9534 31.278C14.9407 31.3581 14.1484 30.9944 13.4101 31.543C13.1919 31.9491 13.258 31.8398 13.2911 32.3552C10.5208 32.9011 7.63808 33.2853 4.86559 32.4275L4.33334 32.1148L3.97852 31.7006C4.22205 31.1478 4.28376 31.4569 4.27053 30.8133C7.37692 31.5739 11.626 32.1341 14.4217 30.1758Z" fill="#BE6401"/>
<path d="M20.6527 22.9825C21.1068 22.7119 21.1795 22.6821 21.693 22.564L21.8748 22.689C22.1734 22.8737 23.1288 23.3979 23.3051 23.5683L25.2435 22.9841C26.5977 23.7256 31.5675 23.8126 33.1731 23.3721C33.3979 23.3105 33.9984 23.0695 34.2783 22.976C35.0519 23.8125 35.8398 24.6607 36.61 25.483C38.069 27.0395 38.7225 30.2066 36.8447 31.7028C34.2739 33.7506 29.8187 34.0672 26.6914 33.8388C23.9421 33.6379 19.6059 32.7169 20.0423 29.134C20.2032 27.8143 20.7475 25.8603 21.9343 25.0847L22.5867 24.4087C21.9993 24.1278 21.0087 23.7472 20.6076 23.3094L20.6527 22.9825Z" fill="#EF9600"/>
<path d="M20.6526 22.9826C21.1066 22.712 21.1793 22.6823 21.6928 22.5641L21.8747 22.6891C22.1733 22.8738 23.1287 23.398 23.305 23.5684C23.4978 23.7633 23.5474 23.7878 23.8053 23.8819L23.8317 23.9605L23.77 23.9615L23.8064 24.211L23.8449 24.0362L23.9441 24.1159C23.6796 24.3888 22.9248 24.4803 22.7143 24.5848C22.5006 24.6908 22.4972 25.0673 21.9342 25.0848L22.5865 24.4089C21.9992 24.1279 21.0085 23.7473 20.6074 23.3095L20.6526 22.9826Z" fill="#F69F17"/>
<path d="M25.1236 24.2027C25.3914 24.18 25.3672 24.2209 25.5864 24.3466C27.3429 25.3539 30.0945 25.0612 32.078 25.118C33.3519 25.1545 33.7882 24.6621 35.0995 25.1169C37.4169 27.6605 35.9106 29.0595 33.386 30.154C30.2058 30.9587 26.6807 30.847 23.7175 29.3546C21.852 28.4151 22.5341 26.8284 23.2823 25.3982C23.6569 24.682 24.3985 24.3971 25.1236 24.2027Z" fill="#FBBB0D"/>
<path d="M24.9583 24.4787C25.2503 24.4753 25.7275 24.5198 25.6757 24.9247C25.5478 25.9236 25.5126 28.4423 24.0756 28.3463C21.7285 27.397 23.3208 25.1776 24.9583 24.4787Z" fill="#FEEC8B"/>
<path d="M29.3162 9.02246C30.7366 9.36909 33.2435 9.62713 34.2562 10.8205C35.583 11.6156 36.6408 13.8068 36.9758 15.2664C37.7769 18.7541 36.8722 20.7743 34.2772 22.9763C33.9973 23.0698 33.3967 23.3108 33.1719 23.3724C31.5664 23.8129 26.5966 23.7259 25.2423 22.9844C24.8996 22.5536 24.4908 21.8639 24.1855 21.3828C27.4021 19.6036 29.1917 16.1532 29.5829 12.5843C29.6887 11.7354 29.4286 9.9485 29.3162 9.02246Z" fill="#713007"/>
<path d="M29.3164 9.02246C30.7368 9.36909 33.2437 9.62713 34.2564 10.8205C33.3539 10.6484 33.0134 9.89856 32.0052 10.026C31.8619 10.5527 31.7881 11.0449 31.4057 11.414C30.9352 11.8696 30.6365 12.4592 30.0415 12.8139C29.96 12.7612 29.885 12.713 29.7947 12.6766L29.679 13.2016L29.5831 12.5843C29.6889 11.7354 29.4288 9.9485 29.3164 9.02246Z" fill="#8E4008"/>
<path d="M35.7591 17.0464C35.9112 18.1689 35.0638 19.5945 34.2131 20.2841C32.8665 21.3764 31.2587 21.4479 29.6113 21.2838L29.6444 21.1497C31.6455 19.9252 34.0841 22.9279 35.7591 17.0464Z" fill="#7A3305"/>
<path d="M13.2488 0.456997C13.3887 0.446808 14.8334 0.190655 15.11 0.150788C17.1816 -0.147779 18.3982 0.0386056 20.4214 0.348689C21.4032 0.674499 22.4346 1.01769 23.3503 1.50685C25.4385 2.67055 27.4198 4.48964 28.4645 6.67451C28.2011 6.48314 27.9377 6.29034 27.6755 6.0962C27.5311 6.00849 26.4556 4.7171 26.2573 4.49805L26.2639 4.73316L26.1195 4.84989C25.7107 4.86838 25.0297 4.28321 24.6661 4.01798C22.4412 2.06777 18.6263 1.39489 15.7535 1.63631C12.9612 1.87076 10.2581 3.10135 8.27131 5.08023L8.05312 5.02364C7.8724 4.72563 7.94624 4.70083 7.99142 4.2934C9.22119 3.08983 9.87023 2.63811 11.3568 1.73687L11.4813 1.12656C12.0587 0.894325 12.6648 0.67627 13.2488 0.456997Z" fill="#FEEC8B"/>
<path d="M23.3516 1.50684C25.4397 2.67054 27.421 4.48962 28.4657 6.6745C28.2023 6.48313 27.939 6.29032 27.6767 6.09619C27.5323 6.00848 26.4568 4.71709 26.2585 4.49804C25.4948 3.74365 24.61 2.8196 23.6645 2.32335C23.6226 1.9126 23.5764 1.85712 23.3516 1.50684Z" fill="#EF9F27"/>
<path d="M13.25 0.456997C13.3899 0.446808 14.8346 0.190655 15.1112 0.150788C17.1828 -0.147779 18.3994 0.0386056 20.4226 0.348689C20.1383 0.474163 19.9564 0.559104 19.6876 0.715364C17.9542 0.420784 15.6126 0.489001 13.8924 0.837846C13.6996 0.62123 13.5233 0.576822 13.25 0.456997Z" fill="#EF9F27"/>
<path d="M20.4225 0.348633C21.4043 0.674442 22.4358 1.01764 23.3515 1.50679C23.5763 1.85708 23.6225 1.91256 23.6644 2.32331C22.384 1.68 21.0539 1.14223 19.6875 0.715307C19.9564 0.559047 20.1382 0.474106 20.4225 0.348633Z" fill="#FED63A"/>
<path d="M11.4819 1.12659C12.0594 0.894359 12.6654 0.676305 13.2495 0.457031C13.5227 0.576857 13.6991 0.621264 13.8919 0.83788C13.1393 1.08728 12.0461 1.41896 11.3574 1.7369L11.4819 1.12659Z" fill="#FED63A"/>
<path d="M4.66211 10.2109C5.08746 5.95681 7.89191 3.03338 11.4821 1.12659L11.3575 1.7369C9.87101 2.63814 9.22197 3.08986 7.9922 4.29343C7.39054 4.90075 6.87923 5.50741 6.50016 6.28372C5.38609 7.99539 5.24835 9.20848 5.07204 11.19C5.04229 11.0007 4.95964 9.99277 4.97066 10.0224C4.77892 10.1829 4.84173 10.1566 4.80316 10.5005L4.66211 10.2109Z" fill="#EF9F27"/>
<path d="M24.666 4.01807C25.0297 4.2833 25.7107 4.86847 26.1195 4.84998L26.2638 4.73325L26.2572 4.49814C26.4556 4.71719 27.5311 6.00858 27.6754 6.09629L27.8187 6.64126C26.9107 7.20362 25.801 5.43205 25.3779 4.86437C25.0892 4.47721 24.9514 4.58696 24.666 4.01807Z" fill="#FED63A"/>
<path d="M4.66281 10.2111L4.80386 10.5007C4.84243 10.1567 4.77962 10.1831 4.97136 10.0226C4.96034 9.99294 5.04299 11.0008 5.07274 11.1902C5.05511 12.0849 4.9989 13.2786 5.07935 14.1631C5.11791 14.5976 5.71076 15.6091 5.6171 16.0745L5.50911 16.0931C4.53058 14.3177 4.36087 12.1942 4.66281 10.2111Z" fill="#FDB706"/>
<path d="M6.5 6.28363C6.87907 5.50731 7.39038 4.90066 7.99204 4.29333C7.94686 4.70076 7.87302 4.72557 8.05374 5.02358L8.27192 5.08017C7.92481 5.48073 7.18982 6.42106 6.75014 6.55972C6.59477 6.44255 6.58816 6.45406 6.5 6.28363Z" fill="#FEDE52"/>
<path d="M21.2109 10.7204C22.0539 10.4246 22.9762 10.8699 23.2737 11.7162C23.5701 12.5624 23.1305 13.4908 22.2897 13.7925C21.4445 14.0957 20.5144 13.6511 20.2158 12.8006C19.9172 11.9501 20.3635 11.0175 21.2109 10.7204Z" fill="#FEF5E0"/>
<path d="M11.963 10.5262C12.2627 10.5075 12.5911 10.489 12.8765 10.6029C13.2754 10.7665 13.5927 11.0845 13.7569 11.4852C13.9244 11.9045 13.9189 12.3741 13.7415 12.7896C13.4528 13.4714 13.1211 13.615 12.4963 13.8569C10.2902 13.906 10.1525 11.6676 11.963 10.5262Z" fill="#FEF5E0"/>
<path d="M16.6579 10.6869C17.48 10.4621 18.3296 10.9367 18.5731 11.7564C18.8177 12.5762 18.3659 13.4417 17.5571 13.7067C17.015 13.884 16.4199 13.7525 16.0034 13.3629C15.5857 12.9733 15.4116 12.387 15.5472 11.8312C15.6838 11.2754 16.1092 10.8374 16.6579 10.6869Z" fill="#FEF5E0"/>
</svg>
