<svg width="52" height="55" viewBox="0 0 52 55" fill="none" xmlns="http://www.w3.org/2000/svg">
<path d="M28.1918 0.220662C29.6208 -0.114428 30.632 -0.016296 32.0583 0.175455C32.8335 0.272476 34.2109 0.42046 34.9108 0.69412C36.002 0.836085 40.0324 2.09833 41.1401 2.63054C42.1315 3.09458 42.6384 3.39735 43.5478 4.05346C44.4288 4.69721 44.9933 5.19906 44.452 6.34996C43.6886 8.12806 42.9034 9.89707 42.0978 11.6567C41.7514 12.4329 41.4382 13.2488 41.0812 14.0142C40.9953 14.3094 40.8631 14.7326 40.6781 14.9836C40.5942 15.2801 40.5102 15.388 40.5756 15.6546L40.7713 15.7279C42.306 15.9672 44.0297 16.8064 45.0567 17.965C45.795 18.9164 45.8333 20.0401 44.7183 20.7369L44.6086 20.9159C46.0587 22.3343 48.8154 26.2949 48.9972 28.2625C49.666 28.9098 49.8405 29.4139 50.1346 30.2937C51.1716 33.3974 51.6805 36.6132 51.4882 39.8834C51.4261 40.9446 51.5186 41.1061 51.8094 42.075C52.0242 43.0236 52.0778 44.2888 51.8643 45.2499C51.7169 45.9499 51.4942 46.7631 51.1505 47.397C50.7856 48.101 50.4684 48.5766 49.9753 49.2099C49.3475 49.9014 48.6687 50.6289 47.8624 51.1222C46.5987 51.9072 46.3621 52.3586 45.4037 53.4872C44.9708 53.9974 44.1744 54.6621 43.6628 55.1475C42.3641 56.3807 41.4758 57.5531 39.6444 57.9476C40.0905 60.0738 40.0925 62.427 39.7601 64.5676C39.6827 65.0485 39.6133 65.407 39.4963 65.8793C39.7488 65.9585 40.0258 66.0377 40.2723 66.1273C40.7587 66.353 41.0601 66.5133 41.4791 66.8548C41.8281 67.2074 42.0621 67.4671 42.2855 67.9159C42.4494 68.3699 42.5128 68.6794 42.4851 69.1674C42.378 69.6869 42.3218 69.7968 41.9332 70.1723C41.4203 70.4746 40.8043 70.7297 40.2068 70.7951C38.4111 71.1936 33.5302 71.1196 32.3907 69.5803C32.3068 69.3748 32.2552 69.1465 32.1991 68.9306C32.1402 68.2371 32.1422 67.8427 32.1759 67.1649C32.2123 66.6042 32.3081 65.9101 32.3735 65.3435C32.5156 63.6786 32.5447 62.1941 32.3755 60.5226C28.747 61.9017 26.3333 62.3302 22.544 61.0473C22.4063 62.287 22.3844 63.5372 22.4787 64.7809C22.5758 66.1018 23.1886 69.2185 21.9998 70.0467C20.8065 70.8776 18.3719 70.9384 16.912 70.945C15.7367 70.9155 14.2597 70.8403 13.2295 70.311C11.6326 69.49 12.2394 67.683 13.3669 66.7828C14.0138 66.2666 14.5243 66.0534 15.3086 65.8375C15.1391 65.2297 15.0346 64.514 14.9528 63.8892C14.8878 63.1552 14.8128 62.4349 14.8101 61.6982C14.836 61.2501 14.8572 60.8235 14.9142 60.3774C14.9352 59.801 15.0782 59.2927 15.0578 58.7333C15.0524 58.5842 14.9377 58.5495 14.8063 58.4599C15.0754 57.8475 15.1939 58.1308 14.8935 57.3896L14.1291 56.806C13.6706 56.5993 13.5386 56.7203 13.1107 56.9224C11.8517 56.2048 11.0545 55.8443 10.0547 54.6549C9.66844 54.195 9.33798 53.5081 8.86568 53.1568C7.43186 53.4466 6.96069 53.0521 6.18793 51.8987C6.0307 51.8418 5.87412 51.7829 5.71814 51.7221C3.46709 50.8448 1.61484 49.2079 0.654649 46.9914C-0.199731 45.0281 -0.218568 42.8064 0.602502 40.829C0.953983 39.9677 1.57962 38.9508 2.47795 38.5752C2.55019 38.3128 2.63459 36.225 2.72626 35.6451C3.31045 31.9506 3.73734 29.137 5.59462 25.8101C7.24958 22.8458 9.37558 20.3733 12.1118 18.3121C12.6338 17.8413 13.6253 17.4643 14.1201 17.0502C15.6707 15.7524 16.5925 15.288 18.522 14.6933C18.9678 14.5451 19.335 14.5178 19.7968 14.463C19.457 13.4896 19.0598 12.9029 19.9413 12.0375C21.1624 10.7155 24.5204 11.4518 26.1086 11.7379L26.1701 11.5159C26.1959 10.9972 26.3446 10.2819 26.4377 9.75556C26.4563 9.41602 26.4754 9.25266 26.5395 8.91882C26.9242 6.19805 27.1337 3.47147 27.5408 0.757186C27.5752 0.528275 28.0002 0.319907 28.1918 0.220662Z" fill="#F5C25A"/>
<path d="M23.7049 44.3497L23.9659 44.2208C24.093 44.3117 24.1139 44.3346 24.2228 44.4478L25.1622 44.4962C25.1575 44.7331 25.1833 44.8201 25.0399 44.9889C24.7134 45.1498 24.294 45.036 23.9148 45.087C23.3304 45.1289 23.3497 45.5162 23.1917 46.0402C23.0555 46.0389 22.8529 45.9708 22.7169 45.9322C22.8229 45.6058 22.9132 45.3958 23.0526 45.0811C23.0231 44.9195 23.2003 44.5813 23.3464 44.4975C23.6018 44.4537 23.5535 44.5008 23.7049 44.3497Z" fill="#5D1D07"/>
<path d="M44.4328 51.7319C45.5048 51.393 46.3039 51.0744 47.2537 50.4614C47.4546 50.7427 47.6132 50.8834 47.8624 51.1222C46.5987 51.9072 46.3621 52.3586 45.4037 53.4872C44.9708 53.9974 44.1744 54.6621 43.6628 55.1475C42.3641 56.3807 41.4758 57.5531 39.6444 57.9476C40.0905 60.0738 40.0925 62.427 39.7601 64.5676C39.6827 65.0485 39.6133 65.407 39.4963 65.8793C39.7488 65.9585 40.0258 66.0377 40.2723 66.1273C40.7587 66.353 41.0601 66.5133 41.4791 66.8548C41.8281 67.2074 42.0621 67.4671 42.2855 67.9159C42.4494 68.3699 42.5128 68.6794 42.4851 69.1674C42.378 69.6869 42.3218 69.7968 41.9332 70.1723C41.4203 70.4746 40.8043 70.7297 40.2068 70.7951C38.4111 71.1936 33.5302 71.1196 32.3907 69.5803C32.3068 69.3748 32.2552 69.1465 32.1991 68.9306C32.1402 68.2371 32.1422 67.8427 32.1759 67.1649C32.2123 66.6042 32.3081 65.9101 32.3735 65.3435C32.5156 63.6786 32.5447 62.1941 32.3755 60.5226C28.747 61.9017 26.3333 62.3302 22.544 61.0473C22.4063 62.287 22.3844 63.5372 22.4787 64.7809C22.5758 66.1018 23.1886 69.2185 21.9998 70.0467C20.8065 70.8776 18.3719 70.9384 16.912 70.945C15.7367 70.9155 14.2597 70.8403 13.2295 70.311C11.6326 69.49 12.2394 67.683 13.3669 66.7828C14.0138 66.2666 14.5243 66.0534 15.3086 65.8375C15.1391 65.2297 15.0346 64.514 14.9528 63.8892C14.8878 63.1552 14.8128 62.4349 14.8101 61.6982C14.836 61.2501 14.8572 60.8235 14.9142 60.3774C14.9352 59.801 15.0782 59.2927 15.0578 58.7333C15.0524 58.5842 14.9377 58.5495 14.8063 58.4599C15.0754 57.8475 15.1939 58.1308 14.8935 57.3896C16.1371 58.1681 16.8806 58.6326 18.3483 59.0192L18.4089 59.0199C19.2256 59.3208 19.375 58.8714 19.8451 59.4418C19.9061 60.009 20.3928 60.0332 20.2333 60.431C20.5669 60.5134 21.433 60.6894 21.6861 60.7993L21.7036 60.8674C21.866 60.5291 21.8304 60.2812 21.8142 59.9161L22.5139 60.117C22.9865 60.2498 23.4679 60.3532 23.9469 60.4618C25.4906 60.9308 28.1086 61.0146 29.6254 60.4742C32.1581 59.5727 34.7046 58.9132 37.3252 58.3395C37.9458 58.2034 38.7178 57.3313 39.3053 57.0232C39.8651 56.7294 40.5413 56.6418 41.0442 56.2564C41.536 55.8306 42.185 55.2123 42.6172 54.7439C43.0746 54.2473 44.6661 53.0109 44.9067 52.5117L44.7791 52.4816C44.6859 52.2821 44.5115 51.9203 44.4328 51.7319Z" fill="#66230A"/>
<path d="M33.3729 63.8362C33.3656 64.1195 33.3193 64.3674 33.4674 64.5925C33.7489 64.8339 34.0212 64.8372 34.4403 65.1453C34.9234 65.1518 35.8659 65.1852 36.3166 65.1067C37.0879 65.1015 38.0238 64.9196 38.7323 64.6291L38.8321 64.3406C39.2723 64.3831 39.3443 64.4159 39.7601 64.5676C39.6827 65.0485 39.6133 65.407 39.4963 65.8793C39.7488 65.9585 40.0258 66.0377 40.2723 66.1273C40.7587 66.353 41.0601 66.5133 41.4791 66.8548C41.8281 67.2074 42.0621 67.4671 42.2855 67.9159C42.4494 68.3699 42.5128 68.6794 42.4851 69.1674C42.378 69.6869 42.3218 69.7968 41.9332 70.1723C41.4203 70.4746 40.8043 70.7297 40.2068 70.7951C38.4111 71.1936 33.5302 71.1196 32.3907 69.5803C32.3068 69.3748 32.2552 69.1465 32.1991 68.9306C32.1402 68.2371 32.1422 67.8427 32.1759 67.1649C32.5599 67.0471 32.5963 67.1112 33.0358 67.248L33.1462 66.4956C33.2876 65.6248 33.244 64.6723 33.3729 63.8362Z" fill="#955326"/>
<path d="M33.1455 69.3604C35.2347 70.1318 37.3232 70.1802 39.5056 70.0382L39.7217 70.0938C39.8215 70.3097 39.8076 70.3555 39.8116 70.6008L39.8995 70.7395L40.2068 70.7951C38.4111 71.1936 33.5302 71.1196 32.3907 69.5803C32.5976 69.5325 32.8349 69.5109 33.0483 69.486L33.1455 69.3604Z" fill="#66230A"/>
<path d="M38.7323 64.6291L38.8321 64.3406C39.2723 64.3831 39.3443 64.4159 39.7601 64.5676C39.6827 65.0485 39.6133 65.407 39.4963 65.8793C39.7488 65.9585 40.0258 66.0377 40.2723 66.1273C39.9544 66.3844 39.7383 66.525 39.3899 66.7442C38.3939 66.512 37.9167 66.8508 37.0166 66.6729C36.9115 66.652 36.9253 66.6186 36.883 66.5133C37.1699 66.0213 38.0436 65.9022 38.5658 65.7949C38.6107 65.3913 38.6662 65.0295 38.7323 64.6291Z" fill="#5D1D07"/>
<path d="M42.2855 67.9159C42.4494 68.3699 42.5128 68.6794 42.4851 69.1674C42.378 69.6869 42.3218 69.7968 41.9332 70.1723C41.4203 70.4746 40.8043 70.7297 40.2068 70.7951L39.8995 70.7395L39.8116 70.6008C39.8076 70.3555 39.8215 70.3097 39.7217 70.0938L39.5056 70.0382C40.4507 69.8982 41.9048 69.7739 41.5538 68.4805C41.9385 68.262 41.9735 68.2358 42.2855 67.9159Z" fill="#72280C"/>
<path d="M41.9332 70.1723C41.912 69.8432 41.7812 69.522 41.9246 69.2656C42.1791 69.1249 42.1757 69.1694 42.4851 69.1674C42.378 69.6869 42.3218 69.7968 41.9332 70.1723Z" fill="#5D1D07"/>
<path d="M32.1759 67.1649C32.5599 67.0471 32.5963 67.1112 33.0358 67.248C32.9829 67.7857 32.9928 68.1953 32.9552 68.6787C33.012 68.9581 33.0305 69.0955 33.1455 69.3604L33.0483 69.486C32.8349 69.5109 32.5976 69.5325 32.3907 69.5803C32.3068 69.3748 32.2552 69.1465 32.1991 68.9306C32.1402 68.2371 32.1422 67.8427 32.1759 67.1649Z" fill="#72280C"/>
<path d="M32.1991 68.9306C32.6207 68.9705 32.6062 68.9365 32.9552 68.6787C33.012 68.9581 33.0305 69.0955 33.1455 69.3604L33.0483 69.486C32.8349 69.5109 32.5976 69.5325 32.3907 69.5803C32.3068 69.3748 32.2552 69.1465 32.1991 68.9306Z" fill="#5D1D07"/>
<path d="M40.2723 66.1273C40.7587 66.353 41.0601 66.5133 41.4791 66.8548C41.2286 67.07 41.0528 67.229 40.7713 67.4043C40.2604 67.0425 39.9874 66.9195 39.3899 66.7442C39.7383 66.525 39.9544 66.3844 40.2723 66.1273Z" fill="#72280C"/>
<path d="M41.4791 66.8548C41.8281 67.2074 42.0621 67.4671 42.2855 67.9159C41.9735 68.2358 41.9385 68.262 41.5538 68.4805C41.3238 67.9375 41.193 67.8027 40.7713 67.4043C41.0528 67.229 41.2286 67.07 41.4791 66.8548Z" fill="#66230A"/>
<path d="M14.8935 57.3896C16.1371 58.1681 16.8806 58.6326 18.3483 59.0192L18.4089 59.0199C19.2256 59.3208 19.375 58.8714 19.8451 59.4418C19.9061 60.009 20.3928 60.0332 20.2333 60.431C20.5669 60.5134 21.433 60.6894 21.6861 60.7993L21.7036 60.8674L21.6195 61.4568C21.5695 62.3459 21.4965 63.5667 21.5817 64.4538C21.3417 65.0858 20.0817 65.2003 19.4817 65.1597C18.6254 65.2343 16.7945 65.0367 16.0513 64.6488L15.9313 64.1443C15.7985 63.2592 15.7515 62.4624 15.7283 61.5726C15.3306 61.6295 15.1086 61.5216 14.8101 61.6982C14.836 61.2501 14.8572 60.8235 14.9142 60.3774C14.9352 59.801 15.0782 59.2927 15.0578 58.7333C15.0524 58.5842 14.9377 58.5495 14.8063 58.4599C15.0754 57.8475 15.1939 58.1308 14.8935 57.3896Z" fill="#EEAF4B"/>
<path d="M15.7576 61.5L15.8438 61.1565C16.0191 61.1376 16.8741 61.7211 17.117 61.8409C19.0558 62.7921 20.2729 62.431 20.4542 64.9562C20.1846 64.9857 19.6816 65.0105 19.4817 65.1597C18.6254 65.2343 16.7945 65.0367 16.0513 64.6488L15.9313 64.1443C15.7985 63.2592 15.7515 62.4624 15.7283 61.5726L15.7576 61.5Z" fill="#F5C25A"/>
<path d="M14.8935 57.3896C16.1371 58.1681 16.8806 58.6326 18.3483 59.0192C18.2115 59.5151 17.8787 59.4065 17.7131 59.8363C17.0666 59.6361 16.6123 59.3856 15.9988 59.1618C15.8619 59.2822 15.8683 59.4987 15.8276 59.7192C15.2539 59.8259 15.3851 60.2315 14.9142 60.3774C14.9352 59.801 15.0782 59.2927 15.0578 58.7333C15.0524 58.5842 14.9377 58.5495 14.8063 58.4599C15.0754 57.8475 15.1939 58.1308 14.8935 57.3896Z" fill="#66230A"/>
<path d="M18.3483 59.0192L18.4089 59.0199C19.2256 59.3208 19.375 58.8714 19.8451 59.4418C19.4905 59.9403 19.3235 59.9083 18.7533 60.0869C18.4381 59.9933 18.0401 59.9116 17.7131 59.8363C17.8787 59.4065 18.2115 59.5151 18.3483 59.0192Z" fill="#72280C"/>
<path d="M14.9142 60.3774C15.3851 60.2315 15.2539 59.8259 15.8276 59.7192C15.7988 60.1863 15.7194 61.0643 15.7576 61.5L15.7283 61.5726C15.3306 61.6295 15.1086 61.5216 14.8101 61.6982C14.836 61.2501 14.8572 60.8235 14.9142 60.3774Z" fill="#5D1D07"/>
<path d="M19.8451 59.4418C19.9061 60.009 20.3928 60.0332 20.2333 60.431C19.7318 60.3218 19.2508 60.2177 18.7533 60.0869C19.3235 59.9083 19.4905 59.9403 19.8451 59.4418Z" fill="#B16E32"/>
<path d="M21.5817 64.4538L21.6063 64.5232C21.6152 64.864 21.6102 65.2317 21.6761 65.564C21.7193 66.2274 22.036 68.8004 21.6702 69.2152C21.1059 69.855 18.8654 70.0264 17.9842 70.0703C17.5302 70.0886 17.076 70.0977 16.6217 70.0984C15.6664 70.0519 14.0645 69.9859 13.3326 69.3434C12.8696 68.9372 13.4285 67.8171 13.8768 67.4697C15.1391 66.4917 16.2334 66.5931 17.7289 66.7095C17.9037 66.3537 17.4585 66.1325 17.1851 65.9664C16.6659 65.8251 16.2938 65.9899 16.1449 65.4763L16.0513 64.6488C16.7945 65.0367 18.6254 65.2343 19.4817 65.1597C20.0817 65.2003 21.3417 65.0858 21.5817 64.4538Z" fill="#955325"/>
<path d="M33.2288 60.3152C34.776 59.8429 36.349 59.7107 37.8348 59.1533C38.121 59.046 38.6001 58.6856 38.8671 58.4965C39.0099 59.4445 39.0555 60.3525 39.0767 61.3083C39.0595 62.4342 39.0059 63.2284 38.8321 64.3406L38.7323 64.6291C38.0238 64.9196 37.0879 65.1015 36.3166 65.1067C35.8659 65.1852 34.9234 65.1518 34.4403 65.1453C34.0212 64.8372 33.7489 64.8339 33.4674 64.5925C33.3193 64.3674 33.3656 64.1195 33.3729 63.8362C33.3815 62.5075 33.3649 61.6302 33.2288 60.3152Z" fill="#EEAF4B"/>
<path d="M34.6418 63.1107C35.5691 62.5114 37.9775 61.6773 39.0767 61.3083C39.0595 62.4342 39.0059 63.2284 38.8321 64.3406L38.7323 64.6291C38.0238 64.9196 37.0879 65.1015 36.3166 65.1067C35.7416 65.0753 34.8514 65.212 34.4502 64.864C34.2162 64.3962 34.4978 63.6262 34.6418 63.1107Z" fill="#F5C25A"/>
<path d="M32.3735 65.3435C32.4409 66.4394 33.0245 65.5791 33.1462 66.4956L33.0358 67.248C32.5963 67.1112 32.5599 67.0471 32.1759 67.1649C32.2123 66.6042 32.3081 65.9101 32.3735 65.3435Z" fill="#5D1D07"/>
<path d="M16.1449 65.4763C16.2938 65.9899 16.6659 65.8251 17.1851 65.9664C16.8526 66.1751 16.4336 66.421 16.0914 66.141C15.9987 65.9147 16.0832 65.7262 16.1449 65.4763Z" fill="#72280C"/>
<path d="M21.8142 59.9161L22.5139 60.117C22.2413 60.1196 22.1966 60.0745 22.0009 60.2105C21.9647 60.4199 22.1057 60.6731 22.1933 60.8811C22.0365 61.042 21.7825 61.3194 21.6195 61.4568L21.7036 60.8674C21.866 60.5291 21.8304 60.2812 21.8142 59.9161Z" fill="#72280C"/>
<path d="M21.6063 64.5232L21.9103 64.5859C22.0842 64.9261 22.0729 65.3991 21.6761 65.564C21.6102 65.2317 21.6152 64.864 21.6063 64.5232Z" fill="#5D1D07"/>
<path d="M22.7169 45.9322C22.8529 45.9708 23.0555 46.0389 23.1917 46.0402C23.8018 46.258 24.3492 46.7592 24.948 46.7494C24.8998 47.4624 24.8727 48.1769 24.8661 48.8913L24.8978 49.0136C25.1741 48.886 25.2058 48.9842 25.4153 49.1948L25.5257 49.9053C27.7173 50.1094 30.0682 50.0204 32.2823 50.1042C31.8223 50.5628 31.6115 50.7957 31.5685 51.4892C31.8679 51.4833 31.9459 51.4793 32.2354 51.4107C32.3134 52.3167 32.5493 52.7682 33.1733 53.461C33.244 53.5231 33.6742 53.8901 33.7099 53.9333L34.1561 54.2035C35.3722 54.7576 35.9591 54.8119 37.2849 54.7426C37.7746 54.6065 38.0674 54.5934 38.6497 54.4057C38.8962 54.528 39.1837 54.6327 39.3351 54.844C40.0257 54.496 40.3351 54.2303 40.9134 53.7384C41.8334 54.0151 42.1579 54.0792 43.0204 53.5114C42.8433 53.3341 42.8869 53.024 42.8856 52.7623C43.3099 52.2121 43.4408 51.9353 43.6688 51.2785C43.9735 51.2308 43.9391 51.1902 44.1889 51.2824C44.2339 51.3583 44.2656 51.3976 44.292 51.48L44.2927 51.7005L44.4328 51.7319C44.5115 51.9203 44.6859 52.2821 44.7791 52.4816L44.9067 52.5117C44.6661 53.0109 43.0746 54.2473 42.6172 54.7439C42.185 55.2123 41.536 55.8306 41.0442 56.2564C40.5413 56.6418 39.8651 56.7294 39.3053 57.0232C38.7178 57.3313 37.9458 58.2034 37.3252 58.3395C34.7046 58.9132 32.1581 59.5727 29.6254 60.4742C28.1086 61.0146 25.4906 60.9308 23.9469 60.4618C23.4679 60.3532 22.9865 60.2498 22.5139 60.117L21.8142 59.9161C21.8304 60.2812 21.866 60.5291 21.7036 60.8674L21.6861 60.7993C21.433 60.6894 20.5669 60.5134 20.2333 60.431C20.3928 60.0332 19.9061 60.009 19.8451 59.4418C19.375 58.8714 19.2256 59.3208 18.4089 59.0199L18.3483 59.0192C16.8806 58.6326 16.1371 58.1681 14.8935 57.3896L14.1291 56.806C13.7785 56.4272 13.6302 56.0667 13.1459 55.7383C12.713 55.4446 12.2494 55.3216 11.8764 54.9487L11.9506 54.8898C11.9223 54.6713 11.9029 54.6399 11.9991 54.4547C12.2209 54.2807 12.5777 54.3167 12.8997 54.2951C14.3043 54.2441 14.8394 54.161 16.0761 53.425C16.2582 53.6167 16.4416 53.6906 16.6771 53.8143C17.0341 53.5015 17.1495 53.3812 17.4495 53.0141C17.2858 52.7937 17.1723 52.7328 16.9494 52.5817C17.3332 51.9746 17.3873 51.7953 17.5353 51.0868C17.9086 51.2602 17.7322 51.1509 18.1524 51.1084C18.219 50.6138 18.0336 50.2036 17.674 49.8621L17.6474 49.7418C18.4373 49.6502 22.24 49.9975 22.5042 49.7437C22.4619 49.3394 22.4286 48.9344 22.4042 48.5282C22.4042 47.8713 22.4341 47.4899 22.5106 46.8357L22.7169 45.9322Z" fill="#EEAF4B"/>
<path d="M22.7169 45.9322C22.8529 45.9708 23.0555 46.0389 23.1917 46.0402C23.8018 46.258 24.3492 46.7592 24.948 46.7494C24.8998 47.4624 24.8727 48.1769 24.8661 48.8913L24.8978 49.0136C25.1741 48.886 25.2058 48.9842 25.4153 49.1948L25.5257 49.9053C27.7173 50.1094 30.0682 50.0204 32.2823 50.1042C31.8223 50.5628 31.6115 50.7957 31.5685 51.4892C31.8679 51.4833 31.9459 51.4793 32.2354 51.4107C32.3134 52.3167 32.5493 52.7682 33.1733 53.461C32.9029 53.4165 32.4773 53.2758 32.2737 53.4538C32.0695 53.1967 31.9182 52.8735 31.7655 52.5811L29.7173 52.3639C27.9579 52.148 26.4364 52.0505 24.6764 51.9157C24.3968 51.8339 19.9751 51.8326 19.5991 51.8771L18.0927 51.8935C17.9391 52.2206 17.6961 52.7485 17.4495 53.0141C17.2858 52.7937 17.1723 52.7328 16.9494 52.5817C17.3332 51.9746 17.3873 51.7953 17.5353 51.0868C17.9086 51.2602 17.7322 51.1509 18.1524 51.1084C18.219 50.6138 18.0336 50.2036 17.674 49.8621L17.6474 49.7418C18.4373 49.6502 22.24 49.9975 22.5042 49.7437C22.4619 49.3394 22.4286 48.9344 22.4042 48.5282C22.4042 47.8713 22.4341 47.4899 22.5106 46.8357L22.7169 45.9322Z" fill="#72280C"/>
<path d="M25.5257 49.9053C27.7173 50.1094 30.0682 50.0204 32.2823 50.1042C31.8223 50.5628 31.6115 50.7957 31.5685 51.4892C31.5883 51.745 31.634 51.7365 31.5183 51.8922C31.0471 51.9955 30.4985 51.8078 29.9863 51.7456C29.1806 51.7201 26.7583 51.4493 25.9189 51.3537C25.7325 50.8637 25.6645 50.6151 25.5495 50.1029L25.5257 49.9053Z" fill="#EAD0A2"/>
<path d="M22.5042 49.7437C22.6057 50.2206 22.7459 50.7924 22.9499 51.2327C21.9912 51.219 21.0324 51.2249 20.074 51.2504C19.657 51.2589 18.64 51.3138 18.2679 51.2517L18.1524 51.1084C18.219 50.6138 18.0336 50.2036 17.674 49.8621L17.6474 49.7418C18.4373 49.6502 22.24 49.9975 22.5042 49.7437Z" fill="#EAD0A2"/>
<path d="M22.7169 45.9322C22.8529 45.9708 23.0555 46.0389 23.1917 46.0402C23.8018 46.258 24.3492 46.7592 24.948 46.7494C24.8998 47.4624 24.8727 48.1769 24.8661 48.8913C24.5382 48.8056 24.1889 48.6885 23.8756 48.8186C23.4179 49.3499 23.986 49.6417 23.2603 49.8647L23.039 49.8968C22.9551 49.431 22.9238 49.0437 22.8839 48.5753C22.653 48.6047 22.6251 48.6014 22.4042 48.5282C22.4042 47.8713 22.4341 47.4899 22.5106 46.8357L22.7169 45.9322Z" fill="#DF4934"/>
<path d="M22.4042 48.5282C22.4042 47.8713 22.4341 47.4899 22.5106 46.8357C22.7863 46.9077 22.7628 46.8553 22.9139 47.0313L22.9625 47.3349C22.9348 47.7307 22.8919 48.1834 22.8839 48.5753C22.653 48.6047 22.6251 48.6014 22.4042 48.5282Z" fill="#5D1D07"/>
<path d="M22.7169 45.9322C22.8529 45.9708 23.0555 46.0389 23.1917 46.0402L23.1522 46.2489C23.1102 46.4412 23.0562 46.661 23.0229 46.8527L22.9625 47.3349L22.9139 47.0313C22.7628 46.8553 22.7863 46.9077 22.5106 46.8357L22.7169 45.9322Z" fill="#72280C"/>
<path d="M23.1522 46.2489C23.5069 46.4497 23.5622 46.6198 23.3526 46.9881L23.2206 47.064C23.0447 46.9626 23.1073 47.032 23.0229 46.8527C23.0562 46.661 23.1102 46.4412 23.1522 46.2489Z" fill="#DD543B"/>
<path d="M23.2603 49.8647C23.986 49.6417 23.4179 49.3499 23.8756 48.8186C24.1889 48.6885 24.5382 48.8056 24.8661 48.8913L24.8978 49.0136C25.1741 48.886 25.2058 48.9842 25.4153 49.1948L25.5257 49.9053L25.5495 50.1029C25.5191 50.4581 25.5091 50.6177 25.2144 50.8336C25.2805 51.0129 25.3023 51.0449 25.2924 51.2412C25.0055 51.4381 23.9708 51.2484 23.4706 51.2386C23.2549 50.7152 23.1778 50.4346 23.039 49.8968L23.2603 49.8647Z" fill="#BE3026"/>
<path d="M23.2603 49.8647C23.986 49.6417 23.4179 49.3499 23.8756 48.8186C24.1889 48.6885 24.5382 48.8056 24.8661 48.8913L24.8978 49.0136L24.952 49.8032C24.7187 49.923 23.6872 49.8353 23.2603 49.8647Z" fill="#DD543B"/>
<path d="M24.8978 49.0136C25.1741 48.886 25.2058 48.9842 25.4153 49.1948L25.5257 49.9053L25.5495 50.1029C25.5191 50.4581 25.5091 50.6177 25.2144 50.8336C25.1106 50.534 25.0194 50.1133 24.952 49.8032L24.8978 49.0136Z" fill="#5D1D07"/>
<path d="M19.5991 51.8771C19.9751 51.8326 24.3968 51.8339 24.6764 51.9157L24.4477 51.9537C24.3347 52.1224 24.7564 52.9265 24.7735 53.3223C24.802 53.9575 24.5944 54.4148 24.1799 54.8774C23.5783 55.5257 22.7381 55.9712 21.8446 56.0255C19.8094 56.1498 18.0447 53.4819 19.5991 51.8771Z" fill="#964C1F"/>
<path d="M18.4089 59.0199C19.3851 59.0218 20.5966 58.4743 21.7027 58.5043C22.4119 59.12 22.1762 59.3345 22.6763 59.9129C22.8227 60.0823 23.4944 60.1471 23.9469 60.4618C23.4679 60.3532 22.9865 60.2498 22.5139 60.117L21.8142 59.9161C21.8304 60.2812 21.866 60.5291 21.7036 60.8674L21.6861 60.7993C21.433 60.6894 20.5669 60.5134 20.2333 60.431C20.3928 60.0332 19.9061 60.009 19.8451 59.4418C19.375 58.8714 19.2256 59.3208 18.4089 59.0199Z" fill="#D58533"/>
<path d="M21.6861 60.7993C21.4878 60.5435 21.3945 60.4565 21.3901 60.1549C21.5706 59.9443 21.5071 60.0103 21.8142 59.9161C21.8304 60.2812 21.866 60.5291 21.7036 60.8674L21.6861 60.7993Z" fill="#964C1F"/>
<path d="M33.7099 53.9333L34.1561 54.2035C35.3722 54.7576 35.9591 54.8119 37.2849 54.7426C37.7746 54.6065 38.0674 54.5934 38.6497 54.4057C38.8962 54.528 39.1837 54.6327 39.3351 54.844C39.1004 54.9624 38.848 55.0605 38.6001 55.1469C37.0892 55.6749 35.4283 55.5813 33.9875 54.8885C34.1534 54.8191 34.1567 54.8211 34.3074 54.7053C34.2982 54.4044 33.8976 54.3272 33.7099 53.9333Z" fill="#66230A"/>
<path d="M34.1561 54.2035C35.3722 54.7576 35.9591 54.8119 37.2849 54.7426C36.507 55.3863 34.7033 55.0239 34.1561 54.2035Z" fill="#72280C"/>
<path d="M16.0761 53.425C16.2582 53.6167 16.4416 53.6906 16.6771 53.8143C15.3079 54.8833 14.1545 55.1561 12.4084 54.95C12.2556 54.9317 12.103 54.9114 11.9506 54.8898C11.9223 54.6713 11.9029 54.6399 11.9991 54.4547C12.2209 54.2807 12.5777 54.3167 12.8997 54.2951C14.3043 54.2441 14.8394 54.161 16.0761 53.425Z" fill="#69220B"/>
<path d="M43.6688 51.2785C43.9735 51.2308 43.9391 51.1902 44.1889 51.2824C44.2339 51.3583 44.2656 51.3976 44.292 51.48L44.2927 51.7005L44.4328 51.7319C44.5115 51.9203 44.6859 52.2821 44.7791 52.4816C44.411 52.6295 44.185 52.6524 43.7937 52.7139C43.5399 53.0089 43.3317 53.2752 43.0204 53.5114C42.8433 53.3341 42.8869 53.024 42.8856 52.7623C43.3099 52.2121 43.4408 51.9353 43.6688 51.2785Z" fill="#5D1D07"/>
<path d="M32.2737 53.4538C32.4773 53.2758 32.9029 53.4165 33.1733 53.461C33.244 53.5231 33.6742 53.8901 33.7099 53.9333C33.8976 54.3272 34.2982 54.4044 34.3074 54.7053C34.1567 54.8211 34.1534 54.8191 33.9875 54.8885C33.2341 54.4724 32.7959 54.1283 32.2737 53.4538Z" fill="#5D1D07"/>
<path d="M28.1918 0.220662C29.6208 -0.114428 30.632 -0.016296 32.0583 0.175455C32.8335 0.272476 34.2109 0.42046 34.9108 0.69412C36.002 0.836085 40.0324 2.09833 41.1401 2.63054C42.1315 3.09458 42.6384 3.39735 43.5478 4.05346C44.4288 4.69721 44.9933 5.19906 44.452 6.34996C43.6886 8.12806 42.9034 9.89707 42.0978 11.6567C41.7514 12.4329 41.4382 13.2488 41.0812 14.0142L40.8559 13.9311L40.803 13.8108L40.5261 13.5715L40.4553 13.6756C39.538 13.991 38.4613 13.9689 37.4997 13.9417C35.2578 13.7197 34.3471 13.4637 32.203 12.7905C29.8851 12.0627 28.899 11.1413 26.8594 10.0483V9.99003C26.714 9.8724 26.6056 9.83289 26.4377 9.75556C26.4563 9.41602 26.4754 9.25266 26.5395 8.91882C26.9242 6.19805 27.1337 3.47147 27.5408 0.757186C27.5752 0.528275 28.0002 0.319907 28.1918 0.220662Z" fill="#6952C6"/>
<path d="M28.1918 0.220662C29.6208 -0.114428 30.632 -0.016296 32.0583 0.175455C32.8335 0.272476 34.2109 0.42046 34.9108 0.69412C36.002 0.836085 40.0324 2.09833 41.1401 2.63054C42.1315 3.09458 42.6384 3.39735 43.5478 4.05346C44.4288 4.69721 44.9933 5.19906 44.452 6.34996C44.216 6.36586 44.1347 6.07971 44.0237 5.88841C43.5201 5.92799 43.0786 6.12171 42.573 6.18811L41.493 6.15959C41.1077 6.12936 40.7045 6.06701 40.3225 6.0118C39.805 5.98373 39.078 5.9399 38.579 5.82888C38.5169 5.81913 38.4448 5.80755 38.4018 5.75894C38.1507 5.47181 37.6953 5.68567 37.31 5.56039C35.9465 5.11689 34.5374 4.67975 33.1997 4.16337L32.7708 3.82082C31.5236 3.34161 30.9459 2.92827 29.8072 2.30578C29.4185 1.99804 28.8244 1.53492 28.3848 1.32773V1.15037C27.9295 1.2506 27.905 3.37988 27.8772 3.85975L27.8297 3.82344C27.8297 3.69796 27.8376 3.46826 27.8151 3.3562C27.8607 2.42138 27.8455 1.61552 28.25 0.759476C28.2784 0.591015 28.2249 0.393834 28.1918 0.220662Z" fill="#8A7AD1"/>
<path d="M32.7708 3.82082C33.8434 4.01349 35.2618 4.66614 36.3358 4.99462C36.9557 5.18434 37.7667 5.33167 38.4144 5.46415C39.464 5.66467 43.1817 6.28101 43.8922 5.486C43.3905 5.07764 43.2524 5.09112 43.1698 4.53405L43.411 4.71671L43.5478 4.05346C44.4288 4.69721 44.9933 5.19906 44.452 6.34996C44.216 6.36586 44.1347 6.07971 44.0237 5.88841C43.5201 5.92799 43.0786 6.12171 42.573 6.18811L41.493 6.15959C41.1077 6.12936 40.7045 6.06701 40.3225 6.0118C39.805 5.98373 39.078 5.9399 38.579 5.82888C38.5169 5.81913 38.4448 5.80755 38.4018 5.75894C38.1507 5.47181 37.6953 5.68567 37.31 5.56039C35.9465 5.11689 34.5374 4.67975 33.1997 4.16337L32.7708 3.82082Z" fill="#7066AE"/>
<path d="M43.5478 4.05346C44.4288 4.69721 44.9933 5.19906 44.452 6.34996C44.216 6.36586 44.1347 6.07971 44.0237 5.88841L44.1598 5.75783C44.1493 5.36288 43.7065 5.01418 43.411 4.71671L43.5478 4.05346Z" fill="#372578"/>
<path d="M34.9108 0.69412C36.002 0.836085 40.0324 2.09833 41.1401 2.63054C41.0238 2.69269 40.8056 2.80364 40.7177 2.89909C40.0634 2.58559 36.4277 1.36417 35.6788 1.21978C35.5162 0.964313 35.2076 0.901702 34.9082 0.788653L34.9108 0.69412Z" fill="#6D5ECB"/>
<path d="M28.1918 0.220662C29.6208 -0.114428 30.632 -0.016296 32.0583 0.175455C32.0028 0.479928 32.0609 0.439693 31.8759 0.605145C31.4416 0.736839 31.0398 0.598604 30.5342 0.653493C29.8666 0.593436 28.8567 0.463246 28.25 0.759476C28.2784 0.591015 28.2249 0.393834 28.1918 0.220662Z" fill="#49349D"/>
<path d="M32.0583 0.175455C32.8335 0.272476 34.2109 0.42046 34.9108 0.69412L34.9082 0.788653C35.2076 0.901702 35.5162 0.964313 35.6788 1.21978C34.6557 0.953976 33.5744 0.843869 32.5209 0.766671C31.9426 0.724278 31.055 0.770205 30.5342 0.653493C31.0398 0.598604 31.4416 0.736839 31.8759 0.605145C32.0609 0.439693 32.0028 0.479928 32.0583 0.175455Z" fill="#6952C6"/>
<path d="M41.1401 2.63054C42.1315 3.09458 42.6384 3.39735 43.5478 4.05346L43.411 4.71671L43.1698 4.53405C42.8763 4.11404 41.2604 3.23248 40.7177 2.89909C40.8056 2.80364 41.0238 2.69269 41.1401 2.63054Z" fill="#49349D"/>
<path d="M42.573 6.18811C43.0786 6.12171 43.5201 5.92799 44.0237 5.88841C44.1347 6.07971 44.216 6.36586 44.452 6.34996C43.6886 8.12806 42.9034 9.89707 42.0978 11.6567C41.7514 12.4329 41.4382 13.2488 41.0812 14.0142L40.8559 13.9311L40.803 13.8108L40.5261 13.5715L40.4553 13.6756C39.538 13.991 38.4613 13.9689 37.4997 13.9417C37.3748 13.4731 39.2485 10.4816 39.569 9.79848C40.1018 8.66361 40.8545 7.36014 41.4838 6.26276C41.1996 6.25366 40.6959 6.26125 40.4487 6.17149L40.3225 6.0118C40.7045 6.06701 41.1077 6.12936 41.493 6.15959L42.573 6.18811Z" fill="#5945AE"/>
<path d="M42.573 6.18811C43.0786 6.12171 43.5201 5.92799 44.0237 5.88841C44.1347 6.07971 44.216 6.36586 44.452 6.34996C43.6886 8.12806 42.9034 9.89707 42.0978 11.6567C41.7514 12.4329 41.4382 13.2488 41.0812 14.0142L40.8559 13.9311L40.803 13.8108L40.5261 13.5715C40.6424 13.403 40.7812 13.0985 40.8757 12.9061C41.1844 12.312 41.4487 11.5984 41.6701 10.9687C42.1242 9.7008 42.8651 8.01142 43.5796 6.86385L43.7937 6.38811C43.2081 6.39687 42.6886 6.37038 42.1057 6.34035C41.9338 6.35795 41.5908 6.36737 41.4534 6.25739L41.493 6.15959L42.573 6.18811Z" fill="#3D2B8A"/>
<path d="M41.6701 10.9687C42.1242 9.7008 42.8651 8.01142 43.5796 6.86385C43.3674 8.1609 42.8235 8.86674 42.2359 9.98637C42.0753 10.2925 41.9246 10.7428 41.6701 10.9687Z" fill="#49349D"/>
<path d="M40.8757 12.9061C41.1526 13.2066 41.2293 13.4686 40.9087 13.7846L40.803 13.8108L40.5261 13.5715C40.6424 13.403 40.7812 13.0985 40.8757 12.9061Z" fill="#372578"/>
<path d="M26.5395 8.91882C26.9242 6.19805 27.1337 3.47147 27.5408 0.757186C27.5752 0.528275 28.0002 0.319907 28.1918 0.220662C28.2249 0.393834 28.2784 0.591015 28.25 0.759476C27.8455 1.61552 27.8607 2.42138 27.8151 3.3562C27.7259 3.65995 27.7074 4.48826 27.6261 4.90872C27.3531 6.32838 27.1945 7.59612 27.0676 9.03069C26.8885 8.97226 26.8568 8.9862 26.6737 9.01093L26.6195 9.01878L26.5395 8.91882Z" fill="#372578"/>
<path d="M33.1997 4.16337C34.5374 4.67975 35.9465 5.11689 37.31 5.56039C37.6953 5.68567 38.1507 5.47181 38.4018 5.75894C38.4448 5.80755 38.5169 5.81913 38.579 5.82888C39.078 5.9399 39.805 5.98373 40.3225 6.0118L40.4487 6.17149C38.4831 5.99047 37.1692 5.67442 35.2664 5.14051C34.7185 4.98684 33.7826 4.81412 33.2949 4.56997C33.1574 4.39104 33.2017 4.44207 33.1997 4.16337Z" fill="#3D2B8A"/>
<path d="M28.3848 1.32773C28.8244 1.53492 29.4185 1.99804 29.8072 2.30578C29.9803 2.72717 30.2143 2.76995 30.6505 3.02255L30.6624 3.06919C29.7801 3.1528 28.4562 2.10847 28.3848 1.32773Z" fill="#5945AE"/>
<path d="M26.5395 8.91882L26.6195 9.01878L26.6737 9.01093C26.8568 8.9862 26.8885 8.97226 27.0676 9.03069C27.028 9.30474 26.987 9.77133 26.8594 9.99003C26.714 9.8724 26.6056 9.83289 26.4377 9.75556C26.4563 9.41602 26.4754 9.25266 26.5395 8.91882Z" fill="#372578"/>
<path d="M26.4377 9.75556C26.6056 9.83289 26.714 9.8724 26.8594 9.99003V10.0483C28.899 11.1413 29.8851 12.0627 32.203 12.7905C34.3471 13.4637 35.2578 13.7197 37.4997 13.9417C38.4613 13.9689 39.538 13.991 40.4553 13.6756L40.5261 13.5715L40.803 13.8108L40.8559 13.9311L41.0812 14.0142C40.9953 14.3094 40.8631 14.7326 40.6781 14.9836C40.5942 15.2801 40.5102 15.388 40.5756 15.6546L40.7713 15.7279C42.306 15.9672 44.0297 16.8064 45.0567 17.965C45.795 18.9164 45.8333 20.0401 44.7183 20.7369L44.6086 20.9159C44.296 21.1273 44.0131 21.2145 43.8109 21.3462C42.3238 22.1799 39.885 22.2153 38.1923 22.162C37.0529 22.093 36.1382 21.9746 35.0133 21.7821C33.8064 21.5739 32.6095 21.3162 31.4244 21.0096C28.9955 20.2804 27.326 19.6484 25.0267 18.5722C24.0232 17.8801 22.6596 17.2689 21.6702 16.4448C21.2698 16.1114 20.8278 15.6397 20.4505 15.2651C20.2274 15.0019 20.0094 14.7345 19.7968 14.463C19.457 13.4896 19.0598 12.9029 19.9413 12.0375C21.1624 10.7155 24.5204 11.4518 26.1086 11.7379L26.1701 11.5159C26.1959 10.9972 26.3446 10.2819 26.4377 9.75556Z" fill="#7661CA"/>
<path d="M26.4377 9.75556C26.6056 9.83289 26.714 9.8724 26.8594 9.99003V10.0483C28.899 11.1413 29.8851 12.0627 32.203 12.7905C34.3471 13.4637 35.2578 13.7197 37.4997 13.9417C38.4613 13.9689 39.538 13.991 40.4553 13.6756L40.5261 13.5715L40.803 13.8108L40.8559 13.9311L41.0812 14.0142C40.9953 14.3094 40.8631 14.7326 40.6781 14.9836C40.5942 15.2801 40.5102 15.388 40.5756 15.6546L40.7713 15.7279C40.8665 16.1811 41.0502 16.0571 41.376 16.3197C40.7158 16.1988 39.6913 16.8172 39.4646 17.4138C39.4388 17.2512 39.4745 17.3189 39.3556 17.2038C39.0793 17.1911 38.8711 17.1975 38.5981 17.2085C38.4144 17.2211 37.7099 17.2653 37.5697 17.3315C37.3748 17.3903 37.312 17.4027 37.1388 17.5026C37.1104 17.6187 37.0853 17.715 37.0668 17.8332C35.2287 18.1169 31.0345 16.8444 29.3597 15.9812C28.5388 15.5975 26.9182 14.6284 26.41 13.9304L26.3545 13.6216L26.712 13.7184C26.6063 13.5971 26.4668 13.4641 26.3512 13.3479C26.4681 12.6543 26.5812 11.9902 26.6651 11.2918L26.1701 11.5159C26.1959 10.9972 26.3446 10.2819 26.4377 9.75556Z" fill="#E7E6E8"/>
<path d="M29.3597 15.9812C29.2546 15.8268 29.1218 15.6936 29.1244 15.5365C29.3888 15.5621 29.6003 15.7235 29.8329 15.7857C30.6835 16.0133 33.3742 17.4013 34.0787 16.9645C35.3801 17.1511 36.2373 17.3336 37.5697 17.3315C37.3748 17.3903 37.312 17.4027 37.1388 17.5026C37.1104 17.6187 37.0853 17.715 37.0668 17.8332C35.2287 18.1169 31.0345 16.8444 29.3597 15.9812Z" fill="#49349D"/>
<path d="M33.6756 17.1542C34.1038 17.1374 35.3675 17.1772 35.6544 17.5076C35.0397 17.6885 34.1785 17.5544 33.6756 17.1542Z" fill="#372578"/>
<path d="M40.4553 13.6756L40.5261 13.5715L40.803 13.8108L40.8559 13.9311L41.0812 14.0142C40.9953 14.3094 40.8631 14.7326 40.6781 14.9836C40.5942 15.2801 40.5102 15.388 40.5756 15.6546L40.7713 15.7279C40.8665 16.1811 41.0502 16.0571 41.376 16.3197C40.7158 16.1988 39.6913 16.8172 39.4646 17.4138C39.4388 17.2512 39.4745 17.3189 39.3556 17.2038C39.0793 17.1911 38.8711 17.1975 38.5981 17.2085L39.2974 17.0442C39.6649 16.328 40.1097 14.7936 40.4653 13.9222C40.5082 13.8293 40.4785 13.8152 40.4553 13.6756Z" fill="#7066AE"/>
<path d="M40.4553 13.6756L40.5261 13.5715L40.803 13.8108L40.8559 13.9311L41.0812 14.0142C40.9953 14.3094 40.8631 14.7326 40.6781 14.9836C40.4269 14.5792 40.4699 14.4027 40.4653 13.9222C40.5082 13.8293 40.4785 13.8152 40.4553 13.6756Z" fill="#6952C6"/>
<path d="M26.41 13.9304L26.3545 13.6216L26.712 13.7184C27.0161 13.9426 27.8382 14.6078 28.102 14.7539C29.7457 15.6636 32.2513 16.6442 34.0787 16.9645C33.3742 17.4013 30.6835 16.0133 29.8329 15.7857C29.6003 15.7235 29.3888 15.5621 29.1244 15.5365C29.1218 15.6936 29.2546 15.8268 29.3597 15.9812C28.5388 15.5975 26.9182 14.6284 26.41 13.9304Z" fill="#5945AE"/>
<path d="M26.4377 9.75556C26.6056 9.83289 26.714 9.8724 26.8594 9.99003V10.0483C26.7993 10.4566 26.7431 10.8884 26.6651 11.2918L26.1701 11.5159C26.1959 10.9972 26.3446 10.2819 26.4377 9.75556Z" fill="#3D2B8A"/>
<path d="M19.9413 12.0375C20.0984 12.6976 20.0291 12.881 20.123 13.4029C20.1872 12.8374 20.1804 12.4954 20.7429 12.2329C20.5799 12.4301 20.4307 12.5656 20.3793 12.8089C20.4355 13.161 20.7488 13.2717 20.8667 13.5155C21.7121 15.2651 22.8403 15.9153 24.4583 16.8579C28.7781 19.3561 33.6716 20.7197 38.6735 20.8191C40.5756 20.8434 42.2544 20.6603 44.0786 20.0354C44.6602 19.8361 45.0607 19.2063 44.6073 18.6304C44.487 18.3642 44.3502 18.2214 44.1651 18.0001C44.563 18.1507 44.604 18.2221 44.7798 18.6044L44.8109 18.6742C44.7778 18.3441 44.7739 18.1623 45.0567 17.965C45.795 18.9164 45.8333 20.0401 44.7183 20.7369L44.6086 20.9159C44.296 21.1273 44.0131 21.2145 43.8109 21.3462C42.3238 22.1799 39.885 22.2153 38.1923 22.162C37.0529 22.093 36.1382 21.9746 35.0133 21.7821C33.8064 21.5739 32.6095 21.3162 31.4244 21.0096C28.9955 20.2804 27.326 19.6484 25.0267 18.5722C24.0232 17.8801 22.6596 17.2689 21.6702 16.4448C21.2698 16.1114 20.8278 15.6397 20.4505 15.2651C20.2274 15.0019 20.0094 14.7345 19.7968 14.463C19.457 13.4896 19.0598 12.9029 19.9413 12.0375Z" fill="#5945AE"/>
<path d="M19.9413 12.0375C20.0984 12.6976 20.0291 12.881 20.123 13.4029C20.6773 15.3667 22.9813 16.9085 24.7008 17.8789C28.4318 19.9845 34.7608 21.6821 39.0753 21.6733C40.3985 21.6597 41.7151 21.475 42.9907 21.1239C43.3806 21.016 44.2729 20.7721 44.5914 20.5698L44.7183 20.7369L44.6086 20.9159C44.296 21.1273 44.0131 21.2145 43.8109 21.3462C42.3238 22.1799 39.885 22.2153 38.1923 22.162C37.0529 22.093 36.1382 21.9746 35.0133 21.7821C33.8064 21.5739 32.6095 21.3162 31.4244 21.0096C28.9955 20.2804 27.326 19.6484 25.0267 18.5722C24.0232 17.8801 22.6596 17.2689 21.6702 16.4448C21.2698 16.1114 20.8278 15.6397 20.4505 15.2651C20.2274 15.0019 20.0094 14.7345 19.7968 14.463C19.457 13.4896 19.0598 12.9029 19.9413 12.0375Z" fill="#372578"/>
<path d="M45.0567 17.965C45.795 18.9164 45.8333 20.0401 44.7183 20.7369L44.5914 20.5698C45.0931 20.0744 45.1208 19.2793 44.8109 18.6742C44.7778 18.3441 44.7739 18.1623 45.0567 17.965Z" fill="#372578"/>
<path d="M19.9413 12.0375C21.1624 10.7155 24.5204 11.4518 26.1086 11.7379C26.1033 11.9367 26.1298 12.104 26.0399 12.262C24.1637 12.1255 22.6619 11.5665 20.7429 12.2329C20.1804 12.4954 20.1872 12.8374 20.123 13.4029C20.0291 12.881 20.0984 12.6976 19.9413 12.0375Z" fill="#3D2B8A"/>
<path d="M40.7713 15.7279C42.306 15.9672 44.0297 16.8064 45.0567 17.965C44.7739 18.1623 44.7778 18.3441 44.8109 18.6742L44.7798 18.6044C44.604 18.2221 44.563 18.1507 44.1651 18.0001C43.795 17.7718 43.4943 17.411 42.9285 17.0904C42.5009 16.8373 41.8254 16.5206 41.376 16.3197C41.0502 16.0571 40.8665 16.1811 40.7713 15.7279Z" fill="#3D2B8A"/>
<path d="M38.5981 17.2085C38.8711 17.1975 39.0793 17.1911 39.3556 17.2038C39.4745 17.3189 39.4388 17.2512 39.4646 17.4138C39.195 17.6276 37.5836 17.7204 37.0668 17.8332C37.0853 17.715 37.1104 17.6187 37.1388 17.5026C37.312 17.4027 37.3748 17.3903 37.5697 17.3315C37.7099 17.2653 38.4144 17.2211 38.5981 17.2085Z" fill="#5945AE"/>
<path d="M42.9285 17.0904C43.4943 17.411 43.795 17.7718 44.1651 18.0001C44.3502 18.2214 44.487 18.3642 44.6073 18.6304C44.5795 18.6663 44.522 18.7071 44.4844 18.7381C44.3799 18.6998 44.2596 18.6455 44.1876 18.5606C43.8155 18.1224 42.9636 17.6776 42.9285 17.0904Z" fill="#8A7AD1"/>
<path d="M26.41 13.9304C25.9374 13.5394 25.8138 13.152 26.026 12.5876L26.0888 12.5671C26.2481 12.8586 26.0875 13.0074 26.3512 13.3479C26.4668 13.4641 26.6063 13.5971 26.712 13.7184L26.3545 13.6216L26.41 13.9304Z" fill="#6952C6"/>
<path d="M38.8024 43.1041L38.8751 43.087C39.4805 43.6183 39.5948 44.1089 39.8519 44.8704C40.731 45.1694 40.6913 45.6509 41.2987 45.4946C41.9484 45.5816 41.8426 45.7543 42.1268 45.8485C42.3747 45.9309 43.2643 45.8871 43.6172 45.9048C43.5108 45.9532 43.3225 46.0461 43.2187 46.0781C43.4315 46.3751 43.6404 46.6748 43.8459 46.977C43.5465 47.0261 43.4917 47.0294 43.2392 47.1903L43.3872 47.4356C43.7864 48.4268 43.8994 48.8206 43.9021 49.904C43.8737 50.3724 43.8234 50.831 43.6688 51.2785C43.4408 51.9353 43.3099 52.2121 42.8856 52.7623C42.8869 53.024 42.8433 53.3341 43.0204 53.5114C42.1579 54.0792 41.8334 54.0151 40.9134 53.7384C40.3351 54.2303 40.0257 54.496 39.3351 54.844C39.1837 54.6327 38.8962 54.528 38.6497 54.4057C38.0674 54.5934 37.7746 54.6065 37.2849 54.7426C35.9591 54.8119 35.3722 54.7576 34.1561 54.2035L33.7099 53.9333C33.6742 53.8901 33.244 53.5231 33.1733 53.461C32.5493 52.7682 32.3134 52.3167 32.2354 51.4107C31.9459 51.4793 31.8679 51.4833 31.5685 51.4892C31.6115 50.7957 31.8223 50.5628 32.2823 50.1042C32.6035 49.8916 32.7113 49.8523 33.0728 49.7123C33.1653 49.6953 33.507 49.6371 33.5374 49.5972C34.1045 48.8586 33.9161 48.623 34.9432 48.3568L35.4383 48.3404C36.0628 48.3188 36.4508 48.5426 36.7905 48.4726C36.926 48.3044 36.8731 48.2299 36.8639 47.9669C37.045 47.9381 37.2624 47.8386 37.4369 47.7693C37.4243 47.2165 37.5004 46.5924 37.579 46.0448C37.7356 45.3637 37.8116 44.9934 38.1633 44.3948L38.4924 43.8204L38.4541 43.7347L38.5922 43.6804C38.8744 43.7871 38.9636 43.8322 39.2531 43.7701L39.2663 43.6928C39.1209 43.4325 38.9828 43.3468 38.7515 43.1649L38.8024 43.1041Z" fill="#F2F2F5"/>
<path d="M38.4924 43.8204C39.1123 43.893 39.2412 44.9104 39.3523 45.4278C39.5975 46.7088 39.5942 47.7588 39.3311 49.043L38.8136 49.0744L38.7052 49.0751C38.5862 49.185 38.6543 49.1602 38.497 49.1595C38.3324 48.9148 38.304 48.8481 38.041 48.7218L38.0522 48.9449L37.9729 49.0175C37.3292 48.9953 37.4547 48.2658 37.4369 47.7693C37.4243 47.2165 37.5004 46.5924 37.579 46.0448C37.7356 45.3637 37.8116 44.9934 38.1633 44.3948L38.4924 43.8204Z" fill="#5D1D07"/>
<path d="M38.4924 43.8204C39.1123 43.893 39.2412 44.9104 39.3523 45.4278C39.5975 46.7088 39.5942 47.7588 39.3311 49.043L38.8136 49.0744L38.7052 49.0751C39.119 48.1232 39.3338 47.0542 38.998 46.0435L39.0714 46.0062C39.0819 45.8374 38.9174 45.613 38.8242 45.454L38.8929 45.4396L38.9511 45.3317C38.8453 45.0412 38.692 45.0235 38.4283 45.0085C38.419 44.6166 38.4078 44.6264 38.1633 44.3948L38.4924 43.8204Z" fill="#EAD0A2"/>
<path d="M38.1633 44.3948C38.4078 44.6264 38.419 44.6166 38.4283 45.0085C37.9987 45.6503 37.9742 46.3038 37.8916 47.0653C37.8757 47.6025 37.8401 48.2168 38.041 48.7218L38.0522 48.9449L37.9729 49.0175C37.3292 48.9953 37.4547 48.2658 37.4369 47.7693C37.4243 47.2165 37.5004 46.5924 37.579 46.0448C37.7356 45.3637 37.8116 44.9934 38.1633 44.3948Z" fill="#F6D289"/>
<path d="M38.4283 45.0085C38.692 45.0235 38.8453 45.0412 38.9511 45.3317L38.8929 45.4396L38.8242 45.454C38.419 45.9401 38.4019 46.6237 38.3364 47.2426C38.1976 47.1733 38.0383 47.1203 37.8916 47.0653C37.9742 46.3038 37.9987 45.6503 38.4283 45.0085Z" fill="#72280C"/>
<path d="M38.3364 47.2426C38.4019 46.6237 38.419 45.9401 38.8242 45.454C38.9174 45.613 39.0819 45.8374 39.0714 46.0062L38.998 46.0435C38.8691 46.1272 38.7839 46.1442 38.768 46.2992C38.6735 47.2086 38.7766 47.7824 38.4957 48.6675C38.3457 48.1003 38.3292 47.8321 38.3364 47.2426Z" fill="#F6D289"/>
<path d="M43.9021 49.904C43.8737 50.3724 43.8234 50.831 43.6688 51.2785C43.4408 51.9353 43.3099 52.2121 42.8856 52.7623C42.8869 53.024 42.8433 53.3341 43.0204 53.5114C42.1579 54.0792 41.8334 54.0151 40.9134 53.7384C40.3351 54.2303 40.0257 54.496 39.3351 54.844C39.1837 54.6327 38.8962 54.528 38.6497 54.4057C40.1341 53.7776 41.2888 52.7911 41.6602 51.2046C41.719 50.9521 41.8407 50.4012 41.9966 50.2206L42.1711 50.235C43.0151 50.9409 43.1143 50.2651 43.9021 49.904Z" fill="#72280C"/>
<path d="M43.9021 49.904C43.8737 50.3724 43.8234 50.831 43.6688 51.2785C43.4408 51.9353 43.3099 52.2121 42.8856 52.7623C42.6239 53.0207 41.8856 53.4518 41.5208 53.3151C41.2657 52.7283 42.5009 52.0302 42.1857 50.3122L42.1711 50.235C43.0151 50.9409 43.1143 50.2651 43.9021 49.904Z" fill="#DBD6E1"/>
<path d="M34.9432 48.3568L35.4383 48.3404C35.6497 48.466 35.7383 48.466 35.8057 48.6557C35.6802 48.8108 35.6623 48.8082 35.4931 48.9044L35.2347 49.0247C34.8646 49.1098 34.1217 49.3433 34.312 49.8759C34.6927 50.9416 35.8203 51.393 36.5969 52.0871C36.5823 52.1342 36.5684 52.1813 36.5546 52.2284C36.3133 52.4129 36.1349 52.2952 35.8467 52.1911C34.893 51.8451 34.2889 51.0443 33.6848 50.2815C33.6333 50.2167 33.4304 50.2547 33.3775 50.2651L33.4277 50.0061C33.3504 49.8032 33.3286 49.8503 33.0728 49.7123C33.1653 49.6953 33.507 49.6371 33.5374 49.5972C34.1045 48.8586 33.9161 48.623 34.9432 48.3568Z" fill="#6F2711"/>
<path d="M34.9432 48.3568L35.4383 48.3404C35.6497 48.466 35.7383 48.466 35.8057 48.6557C35.6802 48.8108 35.6623 48.8082 35.4931 48.9044C35.2254 48.9344 35.0344 48.941 34.8209 48.7866C34.78 48.5452 34.7899 48.625 34.9432 48.3568Z" fill="#5D1D07"/>
<path d="M38.8024 43.1041L38.8751 43.087C39.4805 43.6183 39.5948 44.1089 39.8519 44.8704C40.731 45.1694 40.6913 45.6509 41.2987 45.4946C41.9484 45.5816 41.8426 45.7543 42.1268 45.8485C42.3747 45.9309 43.2643 45.8871 43.6172 45.9048C43.5108 45.9532 43.3225 46.0461 43.2187 46.0781C42.8552 45.9205 42.5009 45.91 42.1909 46.1684C41.9305 46.0892 41.766 46.0251 41.5327 46.1141C41.4474 46.5524 42.1017 47.0248 41.8202 47.6836L41.7197 47.6888C41.2994 47.3107 40.6999 45.6954 40.0297 45.6261C39.9385 45.5227 39.848 45.418 39.7594 45.3127C39.5327 45.2872 39.5948 45.3016 39.3523 45.4278C39.2412 44.9104 39.1123 43.893 38.4924 43.8204L38.4541 43.7347L38.5922 43.6804C38.8744 43.7871 38.9636 43.8322 39.2531 43.7701L39.2663 43.6928C39.1209 43.4325 38.9828 43.3468 38.7515 43.1649L38.8024 43.1041Z" fill="#66230A"/>
<path d="M39.3523 45.4278C39.5948 45.3016 39.5327 45.2872 39.7594 45.3127C39.848 45.418 39.9385 45.5227 40.0297 45.6261C40.0852 45.9329 40.1328 46.2286 40.1414 46.542C40.1626 47.2806 40.0509 48.0185 39.9848 48.7532C40.0489 48.8729 40.113 48.9927 40.1771 49.1124C39.7726 49.5304 39.5552 49.5939 38.9987 49.7862L38.805 49.7097C38.7138 49.5331 38.7832 49.2838 38.8136 49.0744L39.3311 49.043C39.5942 47.7588 39.5975 46.7088 39.3523 45.4278Z" fill="#5D1D07"/>
<path d="M37.4369 47.7693C37.4547 48.2658 37.3292 48.9953 37.9729 49.0175L38.0522 48.9449L38.041 48.7218C38.304 48.8481 38.3324 48.9148 38.497 49.1595C38.6543 49.1602 38.5862 49.185 38.7052 49.0751L38.8136 49.0744C38.7832 49.2838 38.7138 49.5331 38.805 49.7097L38.9987 49.7862C37.8401 49.9877 36.852 49.1255 35.2347 49.0247L35.4931 48.9044C35.6623 48.8082 35.6802 48.8108 35.8057 48.6557C35.7383 48.466 35.6497 48.466 35.4383 48.3404C36.0628 48.3188 36.4508 48.5426 36.7905 48.4726C36.926 48.3044 36.8731 48.2299 36.8639 47.9669C37.045 47.9381 37.2624 47.8386 37.4369 47.7693Z" fill="#72280C"/>
<path d="M32.2823 50.1042C32.6035 49.8916 32.7113 49.8523 33.0728 49.7123C33.3286 49.8503 33.3504 49.8032 33.4277 50.0061L33.3775 50.2651C32.9994 50.6223 33.0893 50.7558 33.1495 51.2478C33.0027 51.5788 32.9849 51.5121 32.5923 51.4381C32.5527 51.2536 32.5275 51.1555 32.4674 50.9769C32.3497 51.0279 32.2969 51.2569 32.2354 51.4107C31.9459 51.4793 31.8679 51.4833 31.5685 51.4892C31.6115 50.7957 31.8223 50.5628 32.2823 50.1042Z" fill="#5D1D07"/>
<path d="M33.1495 51.2478C33.3279 51.603 33.3973 51.7319 33.6154 52.0511C33.9241 52.5025 34.8738 53.0527 34.8765 53.4865C34.3847 53.8816 33.1653 52.5097 32.9142 52.1028C32.7827 51.8935 32.6749 51.6704 32.5923 51.4381C32.9849 51.5121 33.0027 51.5788 33.1495 51.2478Z" fill="#66230A"/>
<path d="M42.1909 46.1684C42.5009 45.91 42.8552 45.9205 43.2187 46.0781C43.4315 46.3751 43.6404 46.6748 43.8459 46.977C43.5465 47.0261 43.4917 47.0294 43.2392 47.1903C42.8783 46.6512 42.7448 46.5066 42.1909 46.1684Z" fill="#72280C"/>
<path d="M26.4424 43.0962C27.7272 41.7754 29.5051 41.9694 28.5825 43.7138C28.7444 43.878 28.8323 43.9899 29.0418 44.0965L28.9162 44.2758L28.9519 44.3569C29.1872 44.3765 29.3035 44.366 29.5408 44.3503L31.0358 44.2018C31.8382 44.1109 32.6386 44.001 33.4363 43.8728C33.5824 44.0723 33.8071 44.3942 34.0503 44.4622C34.5282 44.3968 35.0463 44.2888 35.5229 44.1992C35.4568 43.8099 35.4171 43.8263 35.0668 43.6163C35.8963 43.4841 38.23 42.8384 38.8024 43.1041L38.7515 43.1649C38.9828 43.3468 39.1209 43.4325 39.2663 43.6928L39.2531 43.7701C38.9636 43.8322 38.8744 43.7871 38.5922 43.6804L38.4541 43.7347L38.4924 43.8204L38.1633 44.3948C37.8116 44.9934 37.7356 45.3637 37.579 46.0448C37.5004 46.5924 37.4243 47.2165 37.4369 47.7693C37.2624 47.8386 37.045 47.9381 36.8639 47.9669C36.8731 48.2299 36.926 48.3044 36.7905 48.4726C36.4508 48.5426 36.0628 48.3188 35.4383 48.3404L34.9432 48.3568C33.9161 48.623 34.1045 48.8586 33.5374 49.5972C33.507 49.6371 33.1653 49.6953 33.0728 49.7123C32.7113 49.8523 32.6035 49.8916 32.2823 50.1042C30.0682 50.0204 27.7173 50.1094 25.5257 49.9053L25.4153 49.1948C25.2058 48.9842 25.1741 48.886 24.8978 49.0136L24.8661 48.8913C24.8727 48.1769 24.8998 47.4624 24.948 46.7494C24.3492 46.7592 23.8018 46.258 23.1917 46.0402C23.3497 45.5162 23.3304 45.1289 23.9148 45.087C24.294 45.036 24.7134 45.1498 25.0399 44.9889C25.1833 44.8201 25.1575 44.7331 25.1622 44.4962C25.33 44.4943 25.3201 44.4995 25.4708 44.4282C25.5369 44.2241 25.5462 44.122 25.5759 43.9074L25.3803 43.5659C25.3684 43.4109 25.3558 43.3886 25.4034 43.2369L25.7206 43.1276L25.7676 43.0471C26.02 43.0753 26.1126 43.0177 26.2348 43.2493L26.4424 43.0962Z" fill="#FAF2CF"/>
<path d="M26.4424 43.0962C27.7272 41.7754 29.5051 41.9694 28.5825 43.7138C28.7444 43.878 28.8323 43.9899 29.0418 44.0965L28.9162 44.2758L28.9519 44.3569C29.1872 44.3765 29.3035 44.366 29.5408 44.3503C29.6082 44.6408 29.6439 44.7108 29.7781 44.9797C28.5785 45.0948 27.0458 45.157 25.835 45.1446L25.6836 45.7504C25.4146 46.9018 25.3036 48.0146 25.4153 49.1948C25.2058 48.9842 25.1741 48.886 24.8978 49.0136L24.8661 48.8913C24.8727 48.1769 24.8998 47.4624 24.948 46.7494C24.3492 46.7592 23.8018 46.258 23.1917 46.0402C23.3497 45.5162 23.3304 45.1289 23.9148 45.087C24.294 45.036 24.7134 45.1498 25.0399 44.9889C25.1833 44.8201 25.1575 44.7331 25.1622 44.4962C25.33 44.4943 25.3201 44.4995 25.4708 44.4282C25.5369 44.2241 25.5462 44.122 25.5759 43.9074L25.3803 43.5659C25.3684 43.4109 25.3558 43.3886 25.4034 43.2369L25.7206 43.1276L25.7676 43.0471C26.02 43.0753 26.1126 43.0177 26.2348 43.2493L26.4424 43.0962Z" fill="#72280C"/>
<path d="M26.4424 43.0962C27.7272 41.7754 29.5051 41.9694 28.5825 43.7138C28.2652 44.0677 28.0676 44.2646 27.6294 44.4851L27.0392 44.4864C26.6459 44.4864 26.4582 44.4962 26.069 44.5479L26.1185 44.2601C26.1688 43.98 26.1998 43.948 26.0822 43.6817C26.0498 43.4619 26.0875 43.4972 26.2348 43.2493L26.4424 43.0962Z" fill="#DD543B"/>
<path d="M26.0822 43.6817C26.4754 43.5836 26.6069 43.3795 27.0009 43.6176C26.9956 43.876 26.9738 44.2463 27.0392 44.4864C26.6459 44.4864 26.4582 44.4962 26.069 44.5479L26.1185 44.2601C26.1688 43.98 26.1998 43.948 26.0822 43.6817Z" fill="#BE3026"/>
<path d="M27.0009 43.6176L27.0438 43.5973C27.3888 43.9545 27.4509 44.3628 27.6294 44.4851L27.0392 44.4864C26.9738 44.2463 26.9956 43.876 27.0009 43.6176Z" fill="#DF4934"/>
<path d="M23.9148 45.087C24.3373 45.1308 24.9606 45.0981 25.2699 45.1707C25.3499 45.3107 25.336 45.2355 25.2943 45.4062C25.0921 45.8845 25.0201 46.2319 24.948 46.7494C24.3492 46.7592 23.8018 46.258 23.1917 46.0402C23.3497 45.5162 23.3304 45.1289 23.9148 45.087Z" fill="#DD543B"/>
<path d="M25.7206 43.1276L25.7676 43.0471C26.02 43.0753 26.1126 43.0177 26.2348 43.2493C26.0875 43.4972 26.0498 43.4619 26.0822 43.6817C26.1998 43.948 26.1688 43.98 26.1185 44.2601L26.069 44.5479C26.5693 44.6146 27.098 44.37 27.4787 44.6703C27.5342 44.8881 27.5455 44.7893 27.4714 44.9797C27.2289 45.1092 26.8607 45.0765 26.568 45.0798C26.3161 44.8789 26.1185 44.7488 25.8251 44.612L25.7762 44.5898C25.5395 44.2646 25.6367 44.3045 25.5759 43.9074L25.3803 43.5659C25.3684 43.4109 25.3558 43.3886 25.4034 43.2369L25.7206 43.1276Z" fill="#5D1D07"/>
<path d="M35.0668 43.6163C35.8963 43.4841 38.23 42.8384 38.8024 43.1041L38.7515 43.1649C38.9828 43.3468 39.1209 43.4325 39.2663 43.6928L39.2531 43.7701C38.9636 43.8322 38.8744 43.7871 38.5922 43.6804L38.4541 43.7347L38.4924 43.8204L38.1633 44.3948C37.8116 44.9934 37.7356 45.3637 37.579 46.0448L37.4078 45.8184C37.1963 45.7386 37.2783 45.7543 37.002 45.874C37.2313 44.9195 37.3371 44.5937 37.7984 43.7249C37.0714 43.9074 36.2644 44.052 35.5229 44.1992C35.4568 43.8099 35.4171 43.8263 35.0668 43.6163Z" fill="#72280C"/>
<path d="M33.4363 43.8728C33.5824 44.0723 33.8071 44.3942 34.0503 44.4622L31.7675 44.7756C31.8223 44.4779 31.8501 44.578 31.7106 44.3693C31.4852 44.2391 31.2956 44.2372 31.0358 44.2018C31.8382 44.1109 32.6386 44.001 33.4363 43.8728Z" fill="#72280C"/>
<path d="M29.5408 44.3503L31.0358 44.2018C31.2956 44.2372 31.4852 44.2391 31.7106 44.3693C31.8501 44.578 31.8223 44.4779 31.7675 44.7756L29.7781 44.9797C29.6439 44.7108 29.6082 44.6408 29.5408 44.3503Z" fill="#5D1D07"/>
<path d="M37.002 45.874C37.2783 45.7543 37.1963 45.7386 37.4078 45.8184L37.579 46.0448C37.5004 46.5924 37.4243 47.2165 37.4369 47.7693C37.2624 47.8386 37.045 47.9381 36.8639 47.9669C36.8084 47.1471 36.8738 46.6708 37.002 45.874Z" fill="#5D1D07"/>
<path d="M9.47373 44.8953C9.63579 44.8639 9.9336 44.5342 10.392 44.3713L10.4957 44.5257C10.4771 44.6107 10.4727 44.6598 10.4385 44.7389C10.8068 44.7893 10.8328 44.9313 11.1302 45.1086C10.8443 46.1815 10.6834 47.1229 10.9091 48.2318C10.9822 48.4739 10.9255 48.4143 11.1019 48.5354L11.3915 48.5269C11.6148 48.432 12.5413 48.1605 12.8617 48.046C13.8436 47.7477 14.7001 47.556 15.6194 48.1468C15.9054 48.4353 16.0327 48.64 16.1281 49.047L16.1195 49.0162C16.7622 49.2419 17.0785 49.3695 17.6474 49.7418L17.674 49.8621C18.0336 50.2036 18.219 50.6138 18.1524 51.1084C17.7322 51.1509 17.9086 51.2602 17.5353 51.0868C17.3873 51.7953 17.3332 51.9746 16.9494 52.5817C17.1723 52.7328 17.2858 52.7937 17.4495 53.0141C17.1495 53.3812 17.0341 53.5015 16.6771 53.8143C16.4416 53.6906 16.2582 53.6167 16.0761 53.425C14.8394 54.161 14.3043 54.2441 12.8997 54.2951C11.0799 54.0727 9.61127 53.3962 8.81102 51.6867L8.50792 50.8284C8.19992 51.0443 8.20098 51.079 8.09748 51.4944C7.91692 50.8134 7.91301 50.5235 7.93304 49.815L7.85188 50.0486C7.41831 50.4542 6.74734 50.0211 6.38561 49.7143L6.39169 49.3028L6.45005 48.6453C6.10346 48.6119 6.02924 48.6021 5.71451 48.7454C5.78226 48.2999 5.84682 48.0637 5.97504 47.628C6.12157 47.2309 6.24279 46.96 6.42673 46.5773L6.71661 46.1272C6.99182 46.1972 7.14958 46.2221 7.29783 46.4831C7.84831 45.8119 8.22484 45.3487 9.17096 45.4429C9.18729 45.1027 9.20506 45.0831 9.47373 44.8953Z" fill="#FAFBFB"/>
<path d="M16.6125 50.4653C16.746 49.8942 17.1517 49.7974 17.674 49.8621C18.0336 50.2036 18.219 50.6138 18.1524 51.1084C17.7322 51.1509 17.9086 51.2602 17.5353 51.0868C17.3873 51.7953 17.3332 51.9746 16.9494 52.5817C17.1723 52.7328 17.2858 52.7937 17.4495 53.0141C17.1495 53.3812 17.0341 53.5015 16.6771 53.8143C16.4416 53.6906 16.2582 53.6167 16.0761 53.425C14.8394 54.161 14.3043 54.2441 12.8997 54.2951C11.0799 54.0727 9.61127 53.3962 8.81102 51.6867C10.2543 52.4751 10.6775 52.9154 12.5754 52.7485C13.8413 52.6373 14.9476 52.1225 15.7557 51.1065C16.0034 50.795 16.1332 50.394 16.48 49.9727L16.5311 49.9112C16.5797 50.1389 16.6041 50.2357 16.6125 50.4653Z" fill="#DBD6E1"/>
<path d="M16.6125 50.4653C16.746 49.8942 17.1517 49.7974 17.674 49.8621C18.0336 50.2036 18.219 50.6138 18.1524 51.1084C17.7322 51.1509 17.9086 51.2602 17.5353 51.0868C17.4895 50.8506 17.4526 50.4934 17.2275 50.3803C17.0049 51.6632 16.4638 52.3972 15.2428 53.0318C15.1025 53.1051 14.956 53.0351 14.8358 52.9723C14.8199 52.884 14.7844 52.7714 14.8627 52.7054C15.7558 51.9497 16.239 51.6194 16.6125 50.4653Z" fill="#5D1D07"/>
<path d="M16.9494 52.5817C17.1723 52.7328 17.2858 52.7937 17.4495 53.0141C17.1495 53.3812 17.0341 53.5015 16.6771 53.8143C16.4416 53.6906 16.2582 53.6167 16.0761 53.425C16.455 53.1123 16.6198 52.9468 16.9494 52.5817Z" fill="#5D1D07"/>
<path d="M10.2941 45.0765L10.2998 44.858L10.4385 44.7389C10.8068 44.7893 10.8328 44.9313 11.1302 45.1086C10.8443 46.1815 10.6834 47.1229 10.9091 48.2318C10.9822 48.4739 10.9255 48.4143 11.1019 48.5354L11.3915 48.5269C11.6148 48.432 12.5413 48.1605 12.8617 48.046C13.8436 47.7477 14.7001 47.556 15.6194 48.1468C15.6082 48.5046 15.5699 48.5537 15.3037 48.8023C14.0417 47.9047 12.4369 49.2949 11.1011 49.2099C10.6178 49.1798 9.87372 48.7938 9.94252 48.2364C10.076 48.2174 10.0881 48.2266 10.2007 48.1585C10.1432 46.7173 10.1959 46.5223 10.4293 45.1132L10.2941 45.0765Z" fill="#5D1D07"/>
<path d="M15.6194 48.1468C15.9054 48.4353 16.0327 48.64 16.1281 49.047L16.1195 49.0162C16.7622 49.2419 17.0785 49.3695 17.6474 49.7418L17.674 49.8621C17.1517 49.7974 16.746 49.8942 16.6125 50.4653C16.6041 50.2357 16.5797 50.1389 16.5311 49.9112C16.2377 49.7529 16.3144 49.7332 16.0658 49.7895C15.4678 50.3515 15.3399 50.8559 14.5698 51.289C14.6697 51.0868 14.7006 51.0554 14.7058 50.8382L14.6124 50.7695C14.4382 50.8022 14.2637 50.8336 14.089 50.8637C14.758 50.3659 15.5989 49.7234 15.3037 48.8023C15.5699 48.5537 15.6082 48.5046 15.6194 48.1468Z" fill="#72280C"/>
<path d="M9.47373 44.8953C9.63579 44.8639 9.9336 44.5342 10.392 44.3713L10.4957 44.5257C10.4771 44.6107 10.4727 44.6598 10.4385 44.7389L10.2998 44.858L10.2941 45.0765C9.8453 45.5613 8.9545 47.0274 8.65808 47.0647C8.46661 46.5557 8.98339 45.8819 9.17096 45.4429C9.18729 45.1027 9.20506 45.0831 9.47373 44.8953Z" fill="#5D1D07"/>
<path d="M14.089 50.8637C14.2637 50.8336 14.4382 50.8022 14.6124 50.7695L14.7058 50.8382C14.7006 51.0554 14.6697 51.0868 14.5698 51.289C14.2171 51.4813 13.4606 51.9667 13.1107 51.6239C13.179 51.2628 13.7778 51.026 14.089 50.8637Z" fill="#5D1D07"/>
<path d="M5.97504 47.628C6.2071 47.5848 6.38958 47.5181 6.59652 47.6064L6.66585 47.7477C6.59394 48.0447 6.51674 48.3483 6.45005 48.6453C6.10346 48.6119 6.02924 48.6021 5.71451 48.7454C5.78226 48.2999 5.84682 48.0637 5.97504 47.628Z" fill="#66230A"/>
<path d="M7.93304 49.815C8.06648 49.6024 8.0222 49.5965 8.21751 49.5304C8.37097 49.7437 8.44731 50.5222 8.50792 50.8284C8.19992 51.0443 8.20098 51.079 8.09748 51.4944C7.91692 50.8134 7.91301 50.5235 7.93304 49.815Z" fill="#66230A"/>
<path d="M6.42673 46.5773C6.5636 46.7965 6.68158 47.0405 6.89254 47.1739L6.66585 47.7477L6.59652 47.6064C6.38958 47.5181 6.2071 47.5848 5.97504 47.628C6.12157 47.2309 6.24279 46.96 6.42673 46.5773Z" fill="#72280C"/>
<path d="M6.71661 46.1272C6.99182 46.1972 7.14958 46.2221 7.29783 46.4831L6.89254 47.1739C6.68158 47.0405 6.5636 46.7965 6.42673 46.5773L6.71661 46.1272Z" fill="#5D1D07"/>
<path d="M12.4728 43.2742C14.181 43.6883 16.1485 44.1757 17.8875 44.4223C18.1278 44.0762 18.1716 44.1253 18.6147 43.9277L20.1681 44.141C20.4329 44.1809 21.049 44.313 21.2581 44.2162L21.1984 44.0376C21.2926 43.9748 21.6098 43.84 21.7739 43.7445C22.1287 43.9925 22.4642 44.2254 22.8767 44.3765C23.0442 44.4374 23.2131 44.4295 23.3464 44.4975C23.2003 44.5813 23.0231 44.9195 23.0526 45.0811C22.9132 45.3958 22.8229 45.6058 22.7169 45.9322L22.5106 46.8357C22.4341 47.4899 22.4042 47.8713 22.4042 48.5282C22.4286 48.9344 22.4619 49.3394 22.5042 49.7437C22.24 49.9975 18.4373 49.6502 17.6474 49.7418C17.0785 49.3695 16.7622 49.2419 16.1195 49.0162L16.1281 49.047C16.0327 48.64 15.9054 48.4353 15.6194 48.1468C14.7001 47.556 13.8436 47.7477 12.8617 48.046C12.5413 48.1605 11.6148 48.432 11.3915 48.5269L11.1019 48.5354C10.9255 48.4143 10.9822 48.4739 10.9091 48.2318C10.6834 47.1229 10.8443 46.1815 11.1302 45.1086C11.4137 44.2234 11.675 43.7792 12.4728 43.2742Z" fill="#FAF2CF"/>
<path d="M21.7739 43.7445C22.1287 43.9925 22.4642 44.2254 22.8767 44.3765C23.0442 44.4374 23.2131 44.4295 23.3464 44.4975C23.2003 44.5813 23.0231 44.9195 23.0526 45.0811C22.1424 44.9601 21.1153 44.875 20.1929 44.7756C20.2234 44.4917 20.2114 44.4249 20.1681 44.141C20.4329 44.1809 21.049 44.313 21.2581 44.2162L21.1984 44.0376C21.2926 43.9748 21.6098 43.84 21.7739 43.7445Z" fill="#72280C"/>
<path d="M18.6147 43.9277L20.1681 44.141C20.2114 44.4249 20.2234 44.4917 20.1929 44.7756C19.4216 44.6761 18.6529 44.5584 17.8875 44.4223C18.1278 44.0762 18.1716 44.1253 18.6147 43.9277Z" fill="#5D1D07"/>
<path d="M11.2131 47.6411C11.9573 47.7039 12.1996 47.7255 12.8617 48.046C12.5413 48.1605 11.6148 48.432 11.3915 48.5269L11.1019 48.5354C10.9255 48.4143 10.9822 48.4739 10.9091 48.2318C11.0673 48.0977 11.1358 47.8432 11.2131 47.6411Z" fill="#F6D289"/>
<path d="M10.9091 48.2318C11.0673 48.0977 11.1358 47.8432 11.2131 47.6411C11.2393 48.046 11.2701 48.1383 11.3915 48.5269L11.1019 48.5354C10.9255 48.4143 10.9822 48.4739 10.9091 48.2318Z" fill="#FAF2CF"/>
<path d="M18.522 14.6933C18.9678 14.5451 19.335 14.5178 19.7968 14.463C20.0094 14.7345 20.2274 15.0019 20.4505 15.2651C20.3781 15.283 19.6096 15.4408 19.6556 15.4214L19.3188 15.4267C18.4791 15.6701 17.256 16.0975 16.5154 16.5637C16.1063 16.8002 15.8841 16.9183 15.5327 17.2246C14.8531 17.688 12.5833 19.0992 12.0966 19.5822C11.5632 19.9677 11.0629 20.3963 10.601 20.8637C10.2381 21.1985 9.16732 22.2879 8.90123 22.6868C9.22264 23.4248 8.39833 24.4168 8.18062 25.1164C8.08287 25.4226 8.02095 25.5562 7.88301 25.8426C7.69028 26.327 7.44812 27.4022 7.12301 27.6231C6.8663 27.6358 6.94165 27.6287 6.68098 27.494C6.41139 27.813 6.11913 28.0389 5.74319 28.2239L5.57809 28.1982C5.11465 29.1167 4.89892 30.0319 4.65498 31.0214C4.30825 32.4867 3.92558 34.2128 3.75744 35.7075C3.65565 36.3082 3.56729 36.8883 3.49776 37.4926C3.46022 37.8186 3.42036 38.8303 3.23973 39.0264L3.17866 39.0446C2.91865 39.125 2.87893 39.1456 2.65831 39.3006C2.5831 39.1076 2.50346 38.7819 2.47795 38.5752C2.55019 38.3128 2.63459 36.225 2.72626 35.6451C3.31045 31.9506 3.73734 29.137 5.59462 25.8101C7.24958 22.8458 9.37558 20.3733 12.1118 18.3121C12.6338 17.8413 13.6253 17.4643 14.1201 17.0502C15.6707 15.7524 16.5925 15.288 18.522 14.6933Z" fill="#5D1D07"/>
<path d="M7.17172 25.1813C7.20648 25.3969 7.01904 25.6608 6.90497 25.8526L7.02387 25.8622C7.27991 25.3449 7.58797 25.028 8.18062 25.1164C8.08287 25.4226 8.02095 25.5562 7.88301 25.8426C7.69028 26.327 7.44812 27.4022 7.12301 27.6231C6.8663 27.6358 6.94165 27.6287 6.68098 27.494C6.65388 27.275 6.63564 27.0708 6.65064 26.8483C6.67596 26.4719 6.89796 26.2572 6.72361 25.9099C6.8897 25.5873 6.94694 25.4716 7.17172 25.1813Z" fill="#F6D289"/>
<path d="M8.90123 22.6868C9.22264 23.4248 8.39833 24.4168 8.18062 25.1164C7.58797 25.028 7.27991 25.3449 7.02387 25.8622L6.90497 25.8526C7.01904 25.6608 7.20648 25.3969 7.17172 25.1813C7.51216 24.4276 8.36198 23.3236 8.90123 22.6868Z" fill="#FAF2CF"/>
<path d="M6.72361 25.9099C6.89796 26.2572 6.67596 26.4719 6.65064 26.8483C6.63564 27.0708 6.65388 27.275 6.68098 27.494C6.41139 27.813 6.11913 28.0389 5.74319 28.2239L5.57809 28.1982C5.95026 27.3195 6.20471 26.7267 6.72361 25.9099Z" fill="#FAF2CF"/>
<path d="M18.522 14.6933C18.9678 14.5451 19.335 14.5178 19.7968 14.463C20.0094 14.7345 20.2274 15.0019 20.4505 15.2651C20.3781 15.283 19.6096 15.4408 19.6556 15.4214L19.3188 15.4267L19.335 15.3422L19.4194 15.2902C19.4684 14.2862 19.0497 14.9487 18.522 14.6933Z" fill="#66230A"/>
<path d="M44.6086 20.9159C46.0587 22.3343 48.8154 26.2949 48.9972 28.2625C49.666 28.9098 49.8405 29.4139 50.1346 30.2937C51.1716 33.3974 51.6805 36.6132 51.4882 39.8834C51.4261 40.9446 51.5186 41.1061 51.8094 42.075C51.5702 41.9236 51.2133 42.0799 50.9416 42.167C50.7116 40.993 50.3911 40.4426 49.3924 39.791C47.4096 39.2188 47.8412 36.5532 48.8412 35.278C49.2318 34.7797 50.048 34.644 50.0633 33.7144C49.6766 31.9388 48.7017 28.961 47.8002 27.3443C47.5735 26.9379 46.9133 26.5257 46.6634 26.2534C46.559 26.1389 46.4724 25.0362 46.2993 24.7143C45.6747 23.5514 44.641 22.3789 43.8109 21.3462C44.0131 21.2145 44.296 21.1273 44.6086 20.9159Z" fill="#66230A"/>
<path d="M50.0633 33.7144C50.4558 35.7752 50.5741 37.6249 50.5649 39.7287C50.087 39.4567 49.7381 39.1927 49.3924 39.791C47.4096 39.2188 47.8412 36.5532 48.8412 35.278C49.2318 34.7797 50.048 34.644 50.0633 33.7144Z" fill="#EEAF4B"/>
<path d="M4.65498 31.0214C5.82852 30.7298 6.69447 30.4763 7.83774 31.1327C8.28724 31.3907 8.91287 32.0925 9.1317 32.5336C9.55178 34.3663 9.37142 35.2712 8.05333 36.6905C7.75618 36.9297 7.34184 37.2978 6.98276 37.39C6.59691 37.5778 6.34239 37.7005 5.89825 37.7146C5.45622 37.5594 5.22324 37.4644 4.84969 37.1898C4.30145 36.8071 4.01288 36.2984 3.75744 35.7075C3.92558 34.2128 4.30825 32.4867 4.65498 31.0214Z" fill="#964C1F"/>
<path d="M4.84969 37.1898C5.36303 37.0032 6.50445 37.1007 6.98276 37.39C6.59691 37.5778 6.34239 37.7005 5.89825 37.7146C5.45622 37.5594 5.22324 37.4644 4.84969 37.1898Z" fill="#964C1F"/>
<path d="M2.47795 38.5752C2.50346 38.7819 2.5831 39.1076 2.65831 39.3006C1.43077 40.4978 0.908576 42.0527 0.892912 43.7413C0.890203 45.7059 1.66626 47.5933 3.05421 48.9972C3.92115 49.8608 4.76092 50.36 5.82277 50.9102C5.7387 50.2841 5.6615 49.796 5.68173 49.1582L5.71451 48.7454C6.02924 48.6021 6.10346 48.6119 6.45005 48.6453L6.39169 49.3028L6.38561 49.7143C6.74734 50.0211 7.41831 50.4542 7.85188 50.0486L7.93304 49.815C7.91301 50.5235 7.91692 50.8134 8.09748 51.4944C8.20098 51.079 8.19992 51.0443 8.50792 50.8284L8.81102 51.6867C9.61127 53.3962 11.0799 54.0727 12.8997 54.2951C12.5777 54.3167 12.2209 54.2807 11.9991 54.4547C11.9029 54.6399 11.9223 54.6713 11.9506 54.8898L11.8764 54.9487C12.2494 55.3216 12.713 55.4446 13.1459 55.7383C13.6302 56.0667 13.7785 56.4272 14.1291 56.806C13.6706 56.5993 13.5386 56.7203 13.1107 56.9224C11.8517 56.2048 11.0545 55.8443 10.0547 54.6549C9.66844 54.195 9.33798 53.5081 8.86568 53.1568C7.43186 53.4466 6.96069 53.0521 6.18793 51.8987C6.0307 51.8418 5.87412 51.7829 5.71814 51.7221C3.46709 50.8448 1.61484 49.2079 0.654649 46.9914C-0.199731 45.0281 -0.218568 42.8064 0.602502 40.829C0.953983 39.9677 1.57962 38.9508 2.47795 38.5752Z" fill="#5D1D07"/>
<path d="M6.38561 49.7143C6.74734 50.0211 7.41831 50.4542 7.85188 50.0486L7.93304 49.815C7.91301 50.5235 7.91692 50.8134 8.09748 51.4944C8.25908 51.9255 8.42695 52.2481 8.63455 52.6563C6.86531 52.5588 6.45224 51.2334 6.38561 49.7143Z" fill="#DBD6E1"/>
<path d="M5.71451 48.7454C6.02924 48.6021 6.10346 48.6119 6.45005 48.6453L6.39169 49.3028C6.25244 49.4375 6.23776 49.467 6.04385 49.5095C5.82171 49.412 5.85191 49.38 5.68173 49.1582L5.71451 48.7454Z" fill="#5D1D07"/>
<path d="M35.0133 21.7821C36.1382 21.9746 37.0529 22.093 38.1923 22.162C38.575 22.8348 39.0125 23.5624 38.7852 24.3632C38.4871 25.4177 37.2677 25.8546 36.2869 25.4843C35.2188 25.0813 34.2922 24.4267 34.2578 23.2079C34.5857 22.5434 34.2625 22.5384 35.0133 21.7821Z" fill="#AA5923"/>
<path d="M25.0267 18.5722C27.326 19.6484 28.9955 20.2804 31.4244 21.0096C30.3035 22.1115 30.3214 21.7665 29.1152 22.0522C27.6724 22.1031 26.2461 21.3998 25.3723 20.2764C25.0538 19.6352 24.987 19.2887 25.0267 18.5722Z" fill="#964C1F"/>
<path d="M20.4505 15.2651C20.8278 15.6397 21.2698 16.1114 21.6702 16.4448C22.6596 17.2689 24.0232 17.8801 25.0267 18.5722C24.987 19.2887 25.0538 19.6352 25.3723 20.2764C24.0956 19.6423 22.8885 19.1927 21.8403 18.0528C21.0517 17.1951 20.8247 16.7164 19.8574 15.9733C19.8039 15.7263 19.8169 15.5596 19.6556 15.4214C19.6096 15.4408 20.3781 15.283 20.4505 15.2651Z" fill="#EEAF4B"/>
<path d="M15.5327 17.2246C15.8841 16.9183 16.1063 16.8002 16.5154 16.5637C16.7736 16.9798 16.3801 17.0985 16.778 17.4117C17.0228 17.557 17.0551 17.5175 17.1316 17.7215C16.7676 18.2528 14.0762 19.6917 13.4754 20.2199C12.5394 21.0429 11.6383 21.895 10.7639 22.7934C10.1416 23.4327 9.15424 24.8959 8.54552 25.3395C8.50507 25.2491 8.50732 25.2226 8.48729 25.1246C8.75331 24.3074 10.9409 21.5113 11.6787 20.8959C12.7439 20.0075 14.2837 19.2493 15.4145 18.3065C15.2914 18.0823 15.173 18.0683 14.9321 17.9072C15.0167 17.7057 15.191 17.6409 15.4011 17.4949L15.5327 17.2246Z" fill="#FAF2CF"/>
<path d="M15.4011 17.4949C15.6162 17.6244 15.8589 17.7629 16.0661 17.8997C15.9712 17.9593 15.4892 18.2715 15.4145 18.3065C15.2914 18.0823 15.173 18.0683 14.9321 17.9072C15.0167 17.7057 15.191 17.6409 15.4011 17.4949Z" fill="#F6D289"/>
<path d="M9.1317 32.5336C9.75509 33.0303 10.2962 33.3365 10.6291 34.0885C11.3231 35.6566 10.394 37.5018 8.64367 37.7862C8.75471 37.2778 8.38624 37.3095 8.14302 36.9325C8.10323 36.8709 8.22022 36.9034 8.05333 36.6905C9.37142 35.2712 9.55178 34.3663 9.1317 32.5336Z" fill="#B77A3E"/>
<path d="M38.8751 43.087C39.2088 42.934 39.9154 42.8685 40.2954 42.8509C41.5056 42.7946 42.4176 43.5679 42.9028 44.612C42.992 44.8076 43.0792 45.0052 43.1625 45.2041C41.9669 45.7471 42.1321 45.2401 41.2987 45.4946C40.6913 45.6509 40.731 45.1694 39.8519 44.8704C39.5948 44.1089 39.4805 43.6183 38.8751 43.087Z" fill="#964C1F"/>
<path d="M31.4244 21.0096C32.6095 21.3162 33.8064 21.5739 35.0133 21.7821C34.2625 22.5384 34.5857 22.5434 34.2578 23.2079C33.9551 23.071 32.1918 22.9204 31.7192 22.7729C30.8481 22.5011 29.9876 22.2778 29.1152 22.0522C30.3214 21.7665 30.3035 22.1115 31.4244 21.0096Z" fill="#EEAF4B"/>
<path d="M12.3994 42.703C14.4937 43.159 16.4986 43.596 18.6147 43.9277C18.1716 44.1253 18.1278 44.0762 17.8875 44.4223C16.1485 44.1757 14.181 43.6883 12.4728 43.2742C11.675 43.7792 11.4137 44.2234 11.1302 45.1086C10.8328 44.9313 10.8068 44.7893 10.4385 44.7389C10.4727 44.6598 10.4771 44.6107 10.4957 44.5257L10.392 44.3713C11.1255 44.1789 10.9892 43.1865 12.3994 42.703Z" fill="#662409"/>
<path d="M22.3005 41.9954L22.4135 42.032C23.0456 42.4243 23.4934 42.8371 24.0141 43.3566C23.7863 43.7583 23.7285 43.8695 23.7049 44.3497C23.5535 44.5008 23.6018 44.4537 23.3464 44.4975C23.2131 44.4295 23.0442 44.4374 22.8767 44.3765C22.4642 44.2254 22.1287 43.9925 21.7739 43.7445C21.6098 43.84 21.2926 43.9748 21.1984 44.0376L20.9918 43.8472C21.2723 43.649 21.2022 43.5515 21.2132 43.2362L21.0789 42.9817C21.4298 42.7207 21.9892 42.2837 22.3005 41.9954Z" fill="#DD543B"/>
<path d="M21.2132 43.2362C21.3957 43.4043 21.5858 43.5849 21.7739 43.7445C21.6098 43.84 21.2926 43.9748 21.1984 44.0376L20.9918 43.8472C21.2723 43.649 21.2022 43.5515 21.2132 43.2362Z" fill="#66230A"/>
<path d="M6.06361 43.1001C6.80874 43.9794 7.20404 44.2548 8.18836 44.8587C8.71003 44.735 8.94532 44.6801 9.47373 44.8953C9.20506 45.0831 9.18729 45.1027 9.17096 45.4429C8.22484 45.3487 7.84831 45.8119 7.29783 46.4831C7.14958 46.2221 6.99182 46.1972 6.71661 46.1272L7.36676 45.3938C6.51648 44.8462 6.05931 44.4373 5.43077 43.6562C5.79276 43.4887 5.87531 43.4442 6.06361 43.1001Z" fill="#72280C"/>
<path d="M22.5453 41.4786C23.3834 41.9148 23.8326 42.3903 24.4735 43.0831C25.0749 43.0341 25.1311 43.0543 25.7206 43.1276L25.4034 43.2369C25.3558 43.3886 25.3684 43.4109 25.3803 43.5659L25.5759 43.9074C25.5462 44.122 25.5369 44.2241 25.4708 44.4282C25.3201 44.4995 25.33 44.4943 25.1622 44.4962L24.2228 44.4478C24.1139 44.3346 24.093 44.3117 23.9659 44.2208L23.7049 44.3497C23.7285 43.8695 23.7863 43.7583 24.0141 43.3566C23.4934 42.8371 23.0456 42.4243 22.4135 42.032C22.6114 41.6557 22.3239 41.8983 22.5453 41.4786Z" fill="#66230A"/>
<path d="M25.2706 43.6045L25.3803 43.5659L25.5759 43.9074C25.5462 44.122 25.5369 44.2241 25.4708 44.4282C25.3201 44.4995 25.33 44.4943 25.1622 44.4962L24.2228 44.4478L24.1923 44.1587C24.2422 44.1822 24.334 44.2038 24.3909 44.2202C24.7749 44.0998 25.0002 43.8852 25.2706 43.6045Z" fill="#DD543B"/>
<path d="M24.1923 44.1587C24.4252 43.5051 24.6414 43.5352 25.2706 43.6045C25.0002 43.8852 24.7749 44.0998 24.3909 44.2202C24.334 44.2038 24.2422 44.1822 24.1923 44.1587Z" fill="#DF4934"/>
<path d="M25.7676 43.0471C26.3664 42.425 27.0808 41.6266 28.0273 41.6148C28.3842 41.6103 28.7285 41.7439 28.9863 41.9871C29.591 42.5663 29.4787 43.4613 29.0418 44.0965C28.8323 43.9899 28.7444 43.878 28.5825 43.7138C29.5051 41.9694 27.7272 41.7754 26.4424 43.0962L26.2348 43.2493C26.1126 43.0177 26.02 43.0753 25.7676 43.0471Z" fill="#66230A"/>
<path d="M43.8459 46.977L44.1493 47.6201C44.5419 48.7212 44.7963 50.3979 44.292 51.48C44.2656 51.3976 44.2339 51.3583 44.1889 51.2824C43.9391 51.1902 43.9735 51.2308 43.6688 51.2785C43.8234 50.831 43.8737 50.3724 43.9021 49.904C43.8994 48.8206 43.7864 48.4268 43.3872 47.4356L43.2392 47.1903C43.4917 47.0294 43.5465 47.0261 43.8459 46.977Z" fill="#72280C"/>
<path d="M43.8459 46.977L44.1493 47.6201C43.9206 47.7444 43.9801 47.7595 43.7785 47.7235C43.6291 47.5665 43.5835 47.5292 43.3872 47.4356L43.2392 47.1903C43.4917 47.0294 43.5465 47.0261 43.8459 46.977Z" fill="#5D1D07"/>
<path d="M50.9416 42.167C51.2133 42.0799 51.5702 41.9236 51.8094 42.075C52.0242 43.0236 52.0778 44.2888 51.8643 45.2499C51.3342 45.2067 51.4201 45.1302 51.0037 44.8704C51.1525 43.8911 51.1584 43.1348 50.9416 42.167Z" fill="#72280C"/>
<path d="M47.2537 50.4614C47.9932 49.9315 48.3693 49.5821 48.9879 48.9495C49.3316 49.0496 49.6257 49.134 49.9753 49.2099C49.3475 49.9014 48.6687 50.6289 47.8624 51.1222C47.6132 50.8834 47.4546 50.7427 47.2537 50.4614Z" fill="#5D1D07"/>
<path d="M48.9879 48.9495C49.6198 48.2482 49.9833 47.6509 50.3845 46.8187C50.6739 46.994 50.9469 47.1301 51.1505 47.397C50.7856 48.101 50.4684 48.5766 49.9753 49.2099C49.6257 49.134 49.3316 49.0496 48.9879 48.9495Z" fill="#72280C"/>
<path d="M20.5078 42.8437C20.4534 41.5594 21.3806 41.057 22.5453 41.4786C22.3239 41.8983 22.6114 41.6557 22.4135 42.032L22.3005 41.9954C21.9892 42.2837 21.4298 42.7207 21.0789 42.9817L20.976 42.6199C20.76 42.6232 20.6246 42.6376 20.5078 42.8437Z" fill="#72280C"/>
<path d="M20.976 42.6199C21.3491 41.9005 21.5042 41.7657 22.3005 41.9954C21.9892 42.2837 21.4298 42.7207 21.0789 42.9817L20.976 42.6199Z" fill="#DF4934"/>
<path d="M51.0037 44.8704C51.4201 45.1302 51.3342 45.2067 51.8643 45.2499C51.7169 45.9499 51.4942 46.7631 51.1505 47.397C50.9469 47.1301 50.6739 46.994 50.3845 46.8187C50.6713 46.1874 50.8339 45.5371 51.0037 44.8704Z" fill="#5D1D07"/>
<path d="M44.1975 44.6212C44.5835 44.8737 44.6185 44.8855 44.6707 45.3474C44.37 45.5305 43.951 45.8007 43.6172 45.9048C43.2643 45.8871 42.3747 45.9309 42.1268 45.8485C41.8426 45.7543 41.9484 45.5816 41.2987 45.4946C42.1321 45.2401 41.9669 45.7471 43.1625 45.2041L44.1975 44.6212Z" fill="#5D1D07"/>
<path d="M6.98276 37.39C7.34184 37.2978 7.75618 36.9297 8.05333 36.6905C8.22022 36.9034 8.10323 36.8709 8.14302 36.9325C8.38624 37.3095 8.75471 37.2778 8.64367 37.7862C7.67753 38.0603 6.88528 37.8623 5.89825 37.7146C6.34239 37.7005 6.59691 37.5778 6.98276 37.39Z" fill="#B16E32"/>
<path d="M46.2748 42.4839C46.5246 42.4943 46.7143 42.4721 46.9186 42.6023L46.9886 42.7796C46.676 43.4292 46.4572 43.7053 45.9681 44.243C45.6866 44.0291 45.5993 43.9428 45.3581 43.685C45.7434 43.2879 45.9939 42.9536 46.2748 42.4839Z" fill="#5D1D07"/>
<path d="M45.3581 43.685C45.5993 43.9428 45.6866 44.0291 45.9681 44.243C45.5313 44.6716 45.1856 44.9941 44.6707 45.3474C44.6185 44.8855 44.5835 44.8737 44.1975 44.6212C44.6965 44.2888 44.9404 44.107 45.3581 43.685Z" fill="#72280C"/>
<path d="M33.4363 43.8728C33.9558 43.8054 34.544 43.6994 35.0668 43.6163C35.4171 43.8263 35.4568 43.8099 35.5229 44.1992C35.0463 44.2888 34.5282 44.3968 34.0503 44.4622C33.8071 44.3942 33.5824 44.0723 33.4363 43.8728Z" fill="#5D1D07"/>
<path d="M4.71684 42.2686C4.94591 42.1745 5.2163 42.2416 5.54597 42.199C5.72799 42.5578 5.83923 42.7684 6.06361 43.1001C5.87531 43.4442 5.79276 43.4887 5.43077 43.6562C5.10513 43.1983 4.91842 42.7874 4.71684 42.2686Z" fill="#5D1D07"/>
<path d="M4.71684 42.2686C4.58088 41.9327 4.41308 41.1143 4.70818 40.8482L4.86668 40.859C5.29238 41.1754 5.38345 41.6919 5.54597 42.199C5.2163 42.2416 4.94591 42.1745 4.71684 42.2686Z" fill="#72280C"/>
<path d="M19.3188 15.4267L19.6556 15.4214C19.8169 15.5596 19.8039 15.7263 19.8574 15.9733L19.784 16.0088C19.7307 15.8491 19.6974 15.622 19.519 15.5811C19.0884 15.4825 17.8362 16.0303 17.5039 16.2545L17.5659 16.5183C17.416 16.7537 17.1784 16.8098 16.9035 16.9047C16.7492 17.099 16.7447 17.1244 16.778 17.4117C16.3801 17.0985 16.7736 16.9798 16.5154 16.5637C17.256 16.0975 18.4791 15.6701 19.3188 15.4267Z" fill="#F6D289"/>
<path d="M12.0966 19.5822C12.1462 20.16 11.2798 20.9256 10.7422 20.9743C10.6747 20.9304 10.6429 20.9227 10.601 20.8637C11.0629 20.3963 11.5632 19.9677 12.0966 19.5822Z" fill="#F6D289"/>
<path d="M20.5078 42.8437C20.6246 42.6376 20.76 42.6232 20.976 42.6199L21.0789 42.9817L21.2132 43.2362C21.2022 43.5515 21.2723 43.649 20.9918 43.8472C20.6591 43.4992 20.6056 43.2898 20.5078 42.8437Z" fill="#5D1D07"/>
<path d="M46.5597 41.9171C46.789 41.9831 47.019 42.0477 47.249 42.1109L46.9886 42.7796L46.9186 42.6023C46.7143 42.4721 46.5246 42.4943 46.2748 42.4839L46.5597 41.9171Z" fill="#72280C"/>
<path d="M46.5597 41.9171C46.7223 41.7203 46.7375 41.6695 46.9708 41.6105C47.1895 41.677 47.1036 41.6146 47.2305 41.8105L47.249 42.1109C47.019 42.0477 46.789 41.9831 46.5597 41.9171Z" fill="#964C1F"/>
<path d="M24.8885 33.1029C26.2461 33.1781 27.3465 33.1302 28.6598 33.0631C29.9175 32.9989 29.8144 35.384 29.7556 36.3038C29.6313 38.2515 28.5428 40.9905 26.1112 40.8172C23.203 40.546 22.6297 36.8813 22.8627 34.5823C22.9807 33.4169 23.5557 32.8873 24.7425 33.0953L24.8885 33.1029Z" fill="#66230A"/>
<path d="M24.7425 33.0953L24.8885 33.1029C25.0353 33.3149 25.1304 33.4048 25.0313 33.6523L24.872 33.7043C24.5786 33.6713 24.1782 33.554 24.1811 33.21C24.3776 33.0616 24.4583 33.1074 24.7425 33.0953Z" fill="#5D1D07"/>
<path d="M24.7094 38.0295C25.5164 37.0904 26.827 36.7034 28.0392 36.7954L28.7378 36.9609C28.7074 37.08 28.5646 37.618 28.5554 37.7094C28.0623 39.0217 27.2262 40.3172 25.5164 39.7579C25.0002 39.5892 24.4847 38.9231 24.3532 38.4033L24.7094 38.0295Z" fill="#DD543B"/>
<path d="M24.146 33.7438C25.5336 34.0047 26.9037 33.8774 28.2963 33.8262C28.4186 33.8217 28.5117 33.8929 28.5996 33.9663C28.7602 34.3649 28.5481 34.5883 28.2308 34.8128C27.104 35.3719 25.5025 35.3967 24.3671 34.8556C23.8644 34.6164 23.873 34.1589 24.146 33.7438Z" fill="#FAFBFB"/>
<path d="M24.3532 38.4033C24.1478 38.2776 23.9148 38.1227 24.0283 37.8736L24.2003 37.8255C24.4583 37.8753 24.4953 37.8814 24.7094 38.0295L24.3532 38.4033Z" fill="#5D1D07"/>
<path d="M33.9432 28.7325C35.2697 28.6683 36.3999 29.0213 37.2432 30.0926C37.5354 30.464 37.6973 31.083 37.2426 31.3939C36.9795 31.4376 36.9247 31.392 36.6808 31.2852C36.7747 33.0477 36.8288 34.2792 35.0437 35.2245C34.8758 35.2791 34.6736 35.345 34.5017 35.3779C33.8335 35.5062 33.1422 35.3666 32.5784 34.99C30.402 33.5221 30.8111 29.3359 33.9432 28.7325Z" fill="#66230A"/>
<path d="M32.9908 30.2877C34.4224 30.2601 34.7436 31.9328 33.4436 32.5128C32.0788 32.5192 31.7152 30.998 32.9908 30.2877Z" fill="#FAFBFB"/>
<path d="M34.9221 32.7513C35.7813 32.8302 35.6881 33.5637 35.0965 34.0509C34.2948 33.6916 34.3087 33.2837 34.9221 32.7513Z" fill="#FAFBFB"/>
<path d="M17.9672 28.7376C22.4138 28.1081 22.9911 34.7988 18.978 35.3727C17.8061 35.4379 16.8238 34.6911 16.4226 33.64C16.1112 32.8241 16.1594 32.2006 16.2082 31.3496C15.4515 31.2324 15.1838 30.853 15.6759 30.1454C16.1736 29.4298 17.1037 28.9087 17.9672 28.7376Z" fill="#66230A"/>
<path d="M17.7197 30.2884C18.2489 30.2678 18.6371 30.3477 18.8982 30.8714C19.0336 31.1459 19.0511 31.4629 18.9467 31.7504C18.804 32.1393 18.6078 32.278 18.2547 32.4538C18.143 32.4604 18.0218 32.4662 17.9109 32.452C17.6217 32.4128 17.3625 32.2552 17.1966 32.0174C16.7427 31.3699 17.1074 30.6661 17.7197 30.2884Z" fill="#FAFBFB"/>
<path d="M19.6165 32.6863C19.9484 32.706 20.3 32.9399 20.3101 33.2856C20.3199 33.6256 20.147 33.7545 19.9339 33.9809C19.0311 33.9498 19.0453 33.2478 19.6165 32.6863Z" fill="#FAFBFB"/>
<path d="M43.4262 33.2976C43.3912 33.2648 43.3555 33.232 43.3205 33.1993C42.6946 32.4314 41.9444 31.271 41.8307 30.2748C41.5518 27.8277 42.6139 28.2394 44.2464 27.2531C44.7864 26.9268 44.6397 27.289 45.1017 26.702C45.1453 26.8083 45.1532 26.8361 45.1849 26.9448C45.9562 27.8245 46.5306 28.5654 46.9622 29.6858C47.5947 30.6197 47.3211 32.0643 46.6238 32.8752C46.1142 33.467 44.2266 33.2642 43.4262 33.2976Z" fill="#F6D289"/>
<path d="M45.1849 26.9448C45.9562 27.8245 46.5306 28.5654 46.9622 29.6858C47.0117 29.9285 47.1003 30.0777 46.8604 30.1954C46.4744 30.0609 46.0594 28.6471 45.8208 28.2861C45.6516 28.0305 45.0951 27.5246 44.8485 27.2815C44.8743 27.1288 45.0276 27.0634 45.1849 26.9448Z" fill="#EAD0A2"/>
<path d="M16.0789 21.8046C16.69 21.7551 17.5031 21.7323 18.0665 22.0092C19.2755 22.6034 19.7622 24.2203 19.1368 25.3956C18.5849 26.4328 17.882 26.6651 16.8295 26.9902C12.5569 28.022 13.0296 22.7606 16.0789 21.8046Z" fill="#964C1F"/>
<path d="M37.1626 35.9368C39.9907 35.8196 40.6166 39.3417 37.4475 39.7634C34.8315 39.8901 33.9062 36.389 37.1626 35.9368Z" fill="#EEAF4B"/>
<path d="M15.0843 35.8159C17.5312 35.9909 18.2773 39.0304 15.566 39.2681C14.9448 39.2139 14.5604 39.1652 14.0449 38.8098C12.946 38.0521 13.1317 36.4011 14.4056 35.9581C14.6427 35.8756 14.8389 35.8488 15.0843 35.8159Z" fill="#EEAF4B"/>
<path d="M13.1107 56.9224C13.5386 56.7203 13.6706 56.5993 14.1291 56.806L14.8935 57.3896C15.1939 58.1308 15.0754 57.8475 14.8063 58.4599C14.0606 58.0588 13.5665 57.6264 13.1107 56.9224Z" fill="#5D1D07"/>
</svg>
