<svg width="21" height="18" viewBox="0 0 21 18" fill="none" xmlns="http://www.w3.org/2000/svg"><path d="M6.04632 15H9.04632V14H7.04632V13H9.04632V10H6.04632V11H8.04632V12H6.04632V15ZM13.0463 15H14.0463V10H13.0463V12H12.0463V10H11.0463V13H13.0463V15ZM19.0463 8.05V16C19.0463 16.55 18.8507 17.021 18.4593 17.413C18.068 17.805 17.597 18.0007 17.0463 18H3.04632C2.49632 18 2.02565 17.8043 1.63432 17.413C1.24299 17.0217 1.04699 16.5507 1.04632 16V8.05C0.662986 7.7 0.367319 7.25 0.159319 6.7C-0.0486808 6.15 -0.0530142 5.55 0.146319 4.9L1.19632 1.5C1.32965 1.06667 1.56732 0.708333 1.90932 0.425C2.25132 0.141667 2.64699 0 3.09632 0H16.9963C17.4463 0 17.838 0.137667 18.1713 0.413C18.5047 0.688333 18.7463 1.05067 18.8963 1.5L19.9463 4.9C20.1463 5.55 20.1423 6.14167 19.9343 6.675C19.7263 7.20833 19.4303 7.66667 19.0463 8.05ZM12.2463 7C12.6963 7 13.038 6.846 13.2713 6.538C13.5047 6.23 13.5963 5.884 13.5463 5.5L12.9963 2H11.0463V5.7C11.0463 6.05 11.163 6.35433 11.3963 6.613C11.6297 6.87167 11.913 7.00067 12.2463 7ZM7.74632 7C8.12965 7 8.44232 6.87067 8.68432 6.612C8.92632 6.35333 9.04699 6.04933 9.04632 5.7V2H7.09632L6.54632 5.5C6.47965 5.9 6.56699 6.25 6.80832 6.55C7.04965 6.85 7.36232 7 7.74632 7ZM3.29632 7C3.59632 7 3.85865 6.89167 4.08332 6.675C4.30799 6.45833 4.44565 6.18333 4.49632 5.85L5.04632 2H3.09632L2.09632 5.35C1.99632 5.68333 2.05032 6.04167 2.25832 6.425C2.46632 6.80833 2.81232 7 3.29632 7ZM16.7963 7C17.2797 7 17.6297 6.80833 17.8463 6.425C18.063 6.04167 18.113 5.68333 17.9963 5.35L16.9463 2H15.0463L15.5963 5.85C15.6463 6.18333 15.784 6.45833 16.0093 6.675C16.2347 6.89167 16.497 7 16.7963 7Z" fill="#3D2000"/></svg>
