<svg width="24" height="24" viewBox="0 0 24 24" fill="none" xmlns="http://www.w3.org/2000/svg"><g clip-path="url(#clip0_1_9801)"><path d="M11.9995 23.9985C18.627 23.9985 23.9995 18.626 23.9995 11.9985C23.9995 5.37104 18.627 -0.00146484 11.9995 -0.00146484C5.372 -0.00146484 -0.00050354 5.37104 -0.00050354 11.9985C-0.00050354 18.626 5.372 23.9985 11.9995 23.9985Z" fill="#DEEEFF"/><path d="M18.2075 17.3636C18.1802 17.4528 18.1249 17.5308 18.0498 17.5862C17.9747 17.6415 17.8838 17.6713 17.7905 17.6711H6.2085C6.11521 17.6713 6.02431 17.6415 5.94923 17.5862C5.87414 17.5308 5.81885 17.4528 5.7915 17.3636C4.7595 14.0296 4.7595 9.96706 5.7915 6.63306C5.81885 6.54387 5.87414 6.46583 5.94923 6.41046C6.02431 6.35509 6.11521 6.32533 6.2085 6.32556H17.79C17.9815 6.32556 18.15 6.45006 18.207 6.63306C19.2385 9.96706 19.2385 14.0296 18.207 17.3631" fill="#2E3ECD"/><path d="M12 15.4891C12.4619 15.4946 12.9204 15.4084 13.3487 15.2354C13.7771 15.0625 14.1669 14.8063 14.4955 14.4816C14.8241 14.1569 15.085 13.7702 15.263 13.3439C15.4411 12.9177 15.5328 12.4603 15.5328 11.9983C15.5328 11.5364 15.4411 11.079 15.263 10.6527C15.085 10.2265 14.8241 9.83978 14.4955 9.51509C14.1669 9.19039 13.7771 8.93415 13.3487 8.7612C12.9204 8.58825 12.4619 8.50205 12 8.50757C11.0814 8.51857 10.2042 8.89118 9.55854 9.54463C8.91287 10.1981 8.55078 11.0797 8.55078 11.9983C8.55078 12.917 8.91287 13.7986 9.55854 14.452C10.2042 15.1055 11.0814 15.4781 12 15.4891Z" fill="#6BAFFF"/><path d="M10.69 10.2531L14.1815 11.9981L10.6905 13.7441L10.69 10.2531Z" fill="#2E3ECD"/></g><defs><clipPath id="clip0_1_9801"><rect width="24" height="24" fill="white"/></clipPath></defs></svg>
