<svg width="21" height="21" viewBox="0 0 21 21" fill="none" xmlns="http://www.w3.org/2000/svg">
<path d="M0.0166679 0L6.4712 0.00253741C6.78467 0.512264 7.22782 1.1098 7.57506 1.60766L12.3831 8.53951C12.6239 8.88716 14.0127 10.9633 14.2261 11.0999C14.273 11.053 14.2508 0.99263 14.2559 0.0010638L20.9896 0.00222959C20.9218 6.4073 21.0368 12.8341 20.9872 19.2407C20.9827 19.8258 20.9947 20.4124 20.9824 20.9976L14.5299 21C14.377 20.7047 13.8895 20.0351 13.6843 19.7401L11.9904 17.3098C10.2715 14.8298 8.51952 12.2266 6.76367 9.78227C6.72638 11.1506 6.7546 12.6386 6.7546 14.0158L6.75854 20.9976L0.000625206 20.9969C0.0553907 16.1178 0.0092794 11.1425 0.00890312 6.25575L0.00767129 2.36855C0.00643984 1.60746 -0.0136737 0.751625 0.0166679 0Z" fill="#FEFEFE"/>
</svg>
