<svg width="15" height="15" viewBox="0 0 15 15" fill="none" xmlns="http://www.w3.org/2000/svg">
<path d="M12.0417 1.41667H10.625V0.708333C10.625 0.520472 10.5504 0.340304 10.4175 0.207466C10.2847 0.0746277 10.1045 0 9.91667 0C9.72881 0 9.54864 0.0746277 9.4158 0.207466C9.28296 0.340304 9.20833 0.520472 9.20833 0.708333V1.41667H4.95833V0.708333C4.95833 0.520472 4.88371 0.340304 4.75087 0.207466C4.61803 0.0746277 4.43786 0 4.25 0C4.06214 0 3.88197 0.0746277 3.74913 0.207466C3.61629 0.340304 3.54167 0.520472 3.54167 0.708333V1.41667H2.125C1.56142 1.41667 1.02091 1.64055 0.622398 2.03906C0.223883 2.43758 0 2.97808 0 3.54167V12.0417C0 12.6053 0.223883 13.1458 0.622398 13.5443C1.02091 13.9428 1.56142 14.1667 2.125 14.1667H12.0417C12.6053 14.1667 13.1458 13.9428 13.5443 13.5443C13.9428 13.1458 14.1667 12.6053 14.1667 12.0417V3.54167C14.1667 2.97808 13.9428 2.43758 13.5443 2.03906C13.1458 1.64055 12.6053 1.41667 12.0417 1.41667ZM12.75 12.0417C12.75 12.2295 12.6754 12.4097 12.5425 12.5425C12.4097 12.6754 12.2295 12.75 12.0417 12.75H2.125C1.93714 12.75 1.75697 12.6754 1.62413 12.5425C1.49129 12.4097 1.41667 12.2295 1.41667 12.0417V7.08333H12.75V12.0417ZM12.75 5.66667H1.41667V3.54167C1.41667 3.35381 1.49129 3.17364 1.62413 3.0408C1.75697 2.90796 1.93714 2.83333 2.125 2.83333H3.54167V3.54167C3.54167 3.72953 3.61629 3.9097 3.74913 4.04253C3.88197 4.17537 4.06214 4.25 4.25 4.25C4.43786 4.25 4.61803 4.17537 4.75087 4.04253C4.88371 3.9097 4.95833 3.72953 4.95833 3.54167V2.83333H9.20833V3.54167C9.20833 3.72953 9.28296 3.9097 9.4158 4.04253C9.54864 4.17537 9.72881 4.25 9.91667 4.25C10.1045 4.25 10.2847 4.17537 10.4175 4.04253C10.5504 3.9097 10.625 3.72953 10.625 3.54167V2.83333H12.0417C12.2295 2.83333 12.4097 2.90796 12.5425 3.0408C12.6754 3.17364 12.75 3.35381 12.75 3.54167V5.66667Z" fill="#5D3300"/>
</svg>
