<svg width="44" height="46" viewBox="0 0 44 46" fill="none" xmlns="http://www.w3.org/2000/svg">
<path d="M28.9847 0.00820426C38.1726 -0.510361 47.8756 23.6993 42.4205 31.278C41.7089 32.2665 40.7066 32.9905 39.5237 33.3311C37.8285 33.8414 36.3847 32.9293 34.8269 32.4027C31.0306 31.1192 26.6566 30.756 22.6721 31.1317C21.5416 31.2384 20.3654 31.4428 19.25 31.6141C19.2692 31.7442 19.3759 32.421 19.4212 32.47C20.5575 33.7015 20.9821 33.5187 21.4621 35.2201L21.3109 35.9409C22.4456 37.7018 23.5538 39.2288 24.98 40.7483C26.4493 42.3127 24.026 44.4266 22.766 45.319C21.4123 45.9143 21.0029 46.0498 19.5492 45.9854C18.3406 44.9443 16.6961 42.5155 15.7213 41.1277C14.158 38.8905 12.619 36.6373 11.1046 34.3674C9.13838 34.8783 8.53471 35.6725 6.60625 34.269L6.46992 34.2771C2.18906 34.5058 0.619849 30.9144 0.0460061 27.1195C-0.276307 24.9886 1.17218 24.4833 1.98484 23.1026C2.56121 21.6608 2.84864 21.1391 4.38465 20.519C12.5981 17.2036 19.4885 12.8058 24.1731 5.02611C25.3202 3.12128 26.2041 0.0754897 28.9847 0.00820426Z" fill="#62230C"/>
<path d="M27.2632 1.76865C29.8132 -0.577836 33.2355 2.27535 35.0102 4.24606C39.5649 9.29331 42.1989 16.2452 42.9731 22.9343C43.3013 25.7693 43.1499 29.5686 40.9263 31.6063C38.9281 33.4365 35.8929 31.8285 34.3819 30.1758C30.8941 27.2836 26.8739 18.5622 26.0545 14.1122C25.4979 11.5573 25.1459 8.4156 25.4503 5.80278C25.5908 4.59772 26.2687 2.52813 27.2632 1.76865Z" fill="#62230C"/>
<path d="M27.2632 1.76865C29.8132 -0.577836 33.2355 2.27535 35.0102 4.24606C39.5649 9.29331 42.1989 16.2452 42.9731 22.9343C43.3013 25.7693 43.1499 29.5686 40.9263 31.6063C38.9281 33.4365 35.8929 31.8285 34.3819 30.1758C34.7419 29.8576 35.1561 29.3515 35.4796 28.9788C36.5166 29.602 37.4273 30.7394 38.8308 30.7337C41.4219 30.7231 42.0979 27.3555 42.1634 25.4268C42.3111 21.0355 41.1638 16.8198 39.5013 12.8019C38.3465 10.0128 36.7644 7.37333 34.7344 5.13834C33.2785 3.52872 30.2012 1.06561 28.1862 3.30285C26.7901 4.85266 26.8786 7.55463 27.0017 9.49703C26.9147 10.133 27.0507 10.6025 27.0722 11.1504C27.0776 11.2904 26.6116 11.8231 26.519 12.2526L26.4955 12.3591C26.5749 12.908 26.897 13.991 26.2563 14.1697L26.0545 14.1122C25.4979 11.5573 25.1459 8.4156 25.4503 5.80278C25.5908 4.59772 26.2687 2.52813 27.2632 1.76865Z" fill="#D74B3B"/>
<path d="M27.2632 1.76865C27.4113 1.89556 27.569 2.01425 27.5496 2.26311C27.4555 3.47069 26.4759 4.47568 26.2048 5.75756C25.6958 8.16376 26.1128 10.0291 26.4955 12.3591C26.5749 12.908 26.897 13.991 26.2563 14.1697L26.0545 14.1122C25.4979 11.5573 25.1459 8.4156 25.4503 5.80278C25.5908 4.59772 26.2687 2.52813 27.2632 1.76865Z" fill="#F7B6AE"/>
<path d="M27.0017 9.49703C27.3043 10.9676 27.3846 12.8004 27.7629 14.1715C29.0277 18.756 30.881 23.2969 33.7909 27.0989C34.1986 27.6321 34.9747 28.6078 35.4796 28.9788C35.1561 29.3515 34.7419 29.8576 34.3819 30.1758C30.8941 27.2836 26.8739 18.5622 26.0545 14.1122L26.2563 14.1697C26.897 13.991 26.5749 12.908 26.4955 12.3591L26.519 12.2526C26.6116 11.8231 27.0776 11.2904 27.0722 11.1504C27.0507 10.6025 26.9147 10.133 27.0017 9.49703Z" fill="#E3533F"/>
<path d="M28.3601 12.5746C28.0656 10.0991 27.4869 7.06327 28.3479 4.65707C28.8491 3.25781 30.3807 2.86307 31.5814 3.64125C35.8321 6.39686 38.4849 11.8107 39.9482 16.4857C41.0478 19.2733 42.9105 28.0376 39.3806 29.7904C38.2427 30.356 36.1257 28.3516 35.4319 27.571C34.8307 27.1197 32.9475 24.1954 32.5136 23.4644C33.6301 22.2432 35.4039 20.9077 36.3417 19.7139C37.5582 18.1664 35.6311 13.0108 33.5459 12.7127C32.0919 12.5049 29.8758 12.5945 28.3601 12.5746Z" fill="#CECBD4"/>
<path d="M37.2824 16.1659C38.295 16.3837 38.9178 16.5003 39.9482 16.4857C41.0478 19.2733 42.9105 28.0376 39.3806 29.7904C38.2427 30.356 36.1257 28.3516 35.4319 27.571C35.9406 26.8621 36.7129 26.9634 37.4011 25.8514C39.2834 22.81 37.9481 19.2301 37.2824 16.1659Z" fill="#FEFEFE"/>
<path d="M31.2634 13.5384L32.3266 13.5087C31.9526 15.9976 32.3453 16.9257 33.5216 19.095C33.7647 19.526 34.2762 19.8878 34.6661 20.1967C33.8124 20.9728 32.9269 21.7548 32.1115 22.5678C30.5481 20.1956 29.2596 16.3162 28.6238 13.54L31.2634 13.5384Z" fill="#CECBD4"/>
<path d="M31.2634 13.5384L32.3266 13.5087C31.9526 15.9976 32.3453 16.9257 33.5216 19.095C33.1438 19.1412 32.7277 19.1945 32.3762 19.0699C31.4505 18.1337 30.3995 15.1639 30.7062 13.7424C30.7249 13.6558 31.1494 13.5704 31.2634 13.5384Z" fill="#FEFEFE"/>
<path d="M33.2523 13.4843C34.9008 14.297 36.4773 17.8042 35.4254 19.4711C34.0125 19.3872 32.2406 14.9924 33.2523 13.4843Z" fill="#E3533F"/>
<path d="M24.4781 6.31761C23.8315 12.6044 26.8388 20.6765 29.887 26.0365C30.6323 27.2447 31.27 28.1458 32.2022 29.2318C32.6277 29.7275 33.3075 30.4362 33.6656 30.924C29.2961 30.0881 26.2896 29.57 21.7166 30.1895C20.4381 30.3628 19.0871 30.7253 17.9128 30.8803C17.1137 29.9773 16.3526 29.1638 15.7067 28.1399C13.5031 25.3333 12.8049 21.1816 12.6717 17.7033C17.8059 14.9478 21.1592 10.9285 24.4781 6.31761Z" fill="#FEFEFE"/>
<path d="M29.887 26.0365C30.6323 27.2447 31.27 28.1458 32.2022 29.2318C32.6277 29.7275 33.3075 30.4362 33.6656 30.924C29.2961 30.0881 26.2896 29.57 21.7166 30.1895C20.4381 30.3628 19.0871 30.7253 17.9128 30.8803C17.1137 29.9773 16.3526 29.1638 15.7067 28.1399C18.6755 27.3492 20.864 26.8354 23.94 26.5393C24.9593 26.4412 29.3092 26.2079 29.887 26.0365Z" fill="#CECBD4"/>
<path d="M3.51514 22.2015C4.22391 21.6613 6.44149 20.7072 7.35551 20.2906C8.89096 19.597 10.4147 18.878 11.9263 18.1339C11.9099 22.0018 12.8739 25.3285 14.9099 28.5907C15.5779 29.5177 16.2612 30.5119 17.1795 31.1999C14.3324 32.1764 11.4552 33.252 8.60324 34.1672C7.49165 33.6619 6.19258 32.7312 5.64922 31.6205C3.75732 29.2598 2.33912 25.126 3.51514 22.2015Z" fill="#E3533F"/>
<path d="M14.9099 28.5907C15.5779 29.5177 16.2612 30.5119 17.1795 31.1999C14.3324 32.1764 11.4552 33.252 8.60324 34.1672C7.49165 33.6619 6.19258 32.7312 5.64922 31.6205C9.54886 31.1533 11.6433 29.4895 14.9099 28.5907Z" fill="#C63F32"/>
<path d="M9.04047 20.9014C9.61048 20.8432 10.0153 21.0972 9.93392 21.7159C9.35577 22.5655 6.18893 23.7183 5.14195 24.0348C4.754 24.2016 4.49985 24.0611 4.22074 23.7971C3.92059 22.8702 5.97453 22.1844 6.64767 21.8904C7.43003 21.5486 8.24942 21.2316 9.04047 20.9014Z" fill="#F7B6AE"/>
<path d="M12.028 33.9876C13.0764 33.545 16.9834 32.2181 18.0629 31.9252L18.6037 32.9992C18.168 33.1929 17.8591 33.3477 17.4411 33.5774C17.4025 33.61 17.238 33.7549 17.1882 33.7834L17.0894 33.9137C17.2593 34.4249 18.8801 37.2158 19.3156 37.4336L19.5396 37.5709C20.097 37.284 20.2213 37.2027 20.7042 36.8028C21.6282 38.1905 22.7132 39.4886 23.7263 40.8091C24.2969 41.5529 24.7659 42.123 24.0189 42.9584C22.7907 44.3331 21.7299 44.8864 19.9201 45.0863C19.2158 44.2892 18.3096 42.9865 17.6705 42.109C16.3786 40.3324 15.108 38.541 13.8591 36.7345C13.3138 35.8439 12.621 34.8634 12.028 33.9876Z" fill="#FEFEFE"/>
<path d="M12.028 33.9876C13.0764 33.545 16.9834 32.2181 18.0629 31.9252L18.6037 32.9992C18.168 33.1929 17.8591 33.3477 17.4411 33.5774C17.4025 33.61 17.238 33.7549 17.1882 33.7834L17.0894 33.9137C16.6279 33.8874 16.5209 33.981 16.1342 34.3496C15.576 34.8815 14.1468 36.1268 13.8591 36.7345C13.3138 35.8439 12.621 34.8634 12.028 33.9876Z" fill="#CECBD4"/>
<path d="M17.1882 33.7834C16.93 33.5086 16.7826 33.4017 16.6835 33.039L16.7578 32.9095C17.0765 33.0047 17.2274 33.2941 17.4411 33.5774C17.4025 33.61 17.238 33.7549 17.1882 33.7834Z" fill="#763B18"/>
<path d="M19.3156 37.4336L19.5396 37.5709C20.0406 38.056 22.8717 41.5193 22.8451 42.037C21.7685 41.7015 19.8411 38.5073 19.3156 37.4336Z" fill="#763B18"/>
<path d="M2.09873 24.3775C2.21149 26.9244 2.63451 28.1411 3.60659 30.4486C3.2927 30.7971 2.92812 31.2011 2.51127 31.4302C1.57856 30.152 0.92785 28.1839 1.01574 26.5997C1.07914 25.457 1.3029 25.1013 2.09873 24.3775Z" fill="#E3533F"/>
<path d="M3.60659 30.4486C4.2443 31.4048 4.91483 32.3387 5.61696 33.2488L5.58433 33.3457C4.35735 33.5431 3.1674 32.3301 2.51127 31.4302C2.92812 31.2011 3.2927 30.7971 3.60659 30.4486Z" fill="#C63F32"/>
<path d="M18.2864 33.7465C19.1179 33.609 19.4928 33.7959 20.0189 34.4351C20.5978 35.1384 20.6339 35.6742 19.9732 36.2221C19.8446 36.3551 19.7128 36.486 19.5782 36.6131C19.1718 35.5378 18.6243 34.8819 18.182 33.9408L18.2864 33.7465Z" fill="#E3533F"/>
</svg>
