<svg width="38" height="38" viewBox="0 0 38 38" fill="none" xmlns="http://www.w3.org/2000/svg">
<path d="M4.99242 0.862737C5.54196 0.717991 6.01013 0.334289 6.48002 0C7.7643 1.10843 8.72687 3.69552 9.17052 5.31705C9.24014 5.74767 9.30031 5.94133 9.1677 6.36696C11.8238 4.65022 13.9385 3.63837 17.1058 3.37321C20.4121 3.09632 24.3669 3.98963 26.9317 6.19139C27.4171 5.25054 28.6477 3.38731 29.533 2.84663C29.9631 2.59158 30.433 2.39966 30.8906 2.1964L32.251 2.49812C33.7667 3.21037 32.6511 4.49487 33.374 5.51158L33.8298 5.63237C34.9548 5.54253 35.3229 5.63649 36.4081 5.92673L36.6505 6.05912C37.2927 6.26613 37.6407 6.55687 37.7888 7.26538C37.8014 8.66817 37.5895 9.41087 36.6151 10.4961C36.354 10.7867 34.8857 11.8199 34.5922 11.9333C34.5144 11.9805 34.0188 12.2659 34.0525 12.3442C36.1314 17.1711 36.555 23.0367 33.9192 28.1295C31.8163 32.1869 28.205 35.2177 23.8919 36.545C21.4921 37.2966 18.6494 37.3704 16.1853 36.9481C4.66323 34.9724 -1.46746 22.0543 4.0611 11.6215C4.43012 11.048 5.52921 9.55262 5.63474 9.0475C3.74392 8.89465 1.50075 7.97351 0.272848 6.45755C0.12149 6.33476 0.0963681 6.21585 0.00432751 6.02493C-0.0434699 5.26514 0.313905 4.55139 0.620421 3.86946C1.84514 1.65984 1.79722 2.21811 3.77861 1.14374C4.29176 0.917638 4.44213 0.918888 4.99242 0.862737Z" fill="#F7EDDE"/>
<path d="M30.8911 2.19629L32.2515 2.49801C33.7672 3.21026 32.6515 4.49476 33.3745 5.51148L33.8303 5.63226C34.9553 5.54242 35.3234 5.63638 36.4085 5.92662L36.651 6.05902C37.2932 6.26603 37.6412 6.55677 37.7893 7.26527C37.8019 8.66806 37.59 9.41076 36.6155 10.496C36.3545 10.7866 34.8861 11.8198 34.5927 11.9332C34.2449 11.9301 34.2304 11.9352 33.9006 12.0592C32.7845 12.8959 31.5178 12.9584 30.1908 13.0184C29.0124 12.416 29.2462 12.3222 28.411 11.4655L27.831 11.0922C27.6947 11.4593 27.9095 11.6072 27.8659 11.6874C27.5903 12.1954 26.2267 14.0862 25.8784 14.4171L26.0669 14.6639L25.8942 14.968L25.955 15.1159C31.2988 23.3759 21.726 32.4337 14.1668 26.7009C12.3097 25.3212 11.0869 23.2289 10.7817 20.909C9.77018 13.2309 17.8492 7.98888 24.3608 13.0979C24.8047 12.8476 25.4036 12.138 25.7706 11.7379C26.1136 11.3107 26.4802 10.7498 26.7978 10.2895L26.8834 10.1622C25.7329 8.33303 26.2821 8.24306 26.9321 6.19128C27.4176 5.25043 28.6482 3.3872 29.5334 2.84652C29.9636 2.59147 30.4335 2.39956 30.8911 2.19629Z" fill="#DC5209"/>
<path d="M30.8912 2.19629L32.2515 2.49801C33.7672 3.21026 32.6516 4.49476 33.3745 5.51148L33.8303 5.63226C34.9553 5.54242 35.3235 5.63638 36.4086 5.92662L36.651 6.05902C37.2932 6.26603 37.6413 6.55677 37.7893 7.26527C37.8019 8.66806 37.59 9.41076 36.6156 10.496C36.3545 10.7866 34.8862 11.8198 34.5928 11.9332C34.2449 11.9301 34.2305 11.9352 33.9007 12.0592C32.7846 12.8959 31.5178 12.9584 30.1909 13.0184C29.0125 12.416 29.2462 12.3222 28.4111 11.4655L27.831 11.0922C27.6947 11.4593 27.9096 11.6072 27.866 11.6874C27.5903 12.1954 26.2268 14.0862 25.8784 14.4171L26.0669 14.6639L25.8942 14.968L25.955 15.1159C25.5877 15.6841 23.5887 17.7448 23.0879 17.9158C21.4585 18.7828 21.6948 20.4156 19.4518 21.4184C18.8259 21.0865 18.0326 20.6659 17.564 20.1109C17.1131 18.9276 19.4067 17.9832 20.2088 17.5426C20.5946 17.205 21.2273 16.6916 21.3459 16.202C21.7163 15.9444 24.1756 13.5292 24.3608 13.0979C24.8047 12.8476 25.4037 12.138 25.7706 11.7379C26.1136 11.3107 26.4802 10.7498 26.7979 10.2895L26.8834 10.1622C25.733 8.33303 26.2821 8.24306 26.9322 6.19128C27.4176 5.25043 28.6482 3.3872 29.5335 2.84652C29.9636 2.59147 30.4335 2.39956 30.8912 2.19629Z" fill="#FDB706"/>
<path d="M33.3736 5.51172L33.8294 5.63251C34.9544 5.54266 35.3225 5.63662 36.4076 5.92686L36.6501 6.05926C37.2923 6.26627 37.6403 6.55701 37.7884 7.26552C37.801 8.66831 37.5891 9.411 36.6146 10.4962C36.3536 10.7868 34.8852 11.82 34.5918 11.9335C34.244 11.9303 34.2296 11.9355 33.8997 12.0595C32.7836 12.8961 31.5169 12.9587 30.1899 13.0187C29.0115 12.4162 29.2453 12.3224 28.4102 11.4658C28.5092 10.8406 28.4053 11.0725 28.8011 10.5876C29.1413 10.7751 29.1913 10.7797 29.5794 10.7964C29.9212 10.6573 29.9288 10.6466 30.1712 10.355C31.485 9.46104 31.7924 8.66918 32.3049 7.16993L32.9019 6.65833C33.1747 6.3178 33.336 5.9482 33.3736 5.51172Z" fill="#FDB308"/>
<path d="M36.4078 5.92676L36.6502 6.05915C37.2924 6.26616 37.6405 6.5569 37.7885 7.26541C37.0967 8.49787 36.2806 8.48265 35.9346 9.00087L35.7558 9.00748C34.91 9.66208 33.1973 10.5501 32.3066 9.51196C32.4699 9.18367 32.4036 9.29098 32.8248 9.10843C33.24 8.8842 33.6592 8.6672 34.0819 8.45769L34.0602 8.27451L33.7873 8.14611L33.7755 7.90953C34.2612 7.38869 35.7408 6.42002 36.4078 5.92676Z" fill="#FDB706"/>
<path d="M36.6509 6.05908C37.2931 6.26609 37.6412 6.55683 37.7892 7.26534C37.0974 8.4978 36.2813 8.48258 35.9353 9.0008L35.7565 9.00741C35.7605 8.97871 35.7644 8.95014 35.7685 8.92156C35.6173 8.27569 36.3445 6.81813 36.6509 6.05908Z" fill="#FDB706"/>
<path d="M34.0813 8.45766C34.4771 8.30505 34.7118 8.15157 35.0967 8.28222C34.8936 8.75152 33.4711 9.30131 32.9958 9.29731L32.8242 9.1084C33.2394 8.88417 33.6586 8.66717 34.0813 8.45766Z" fill="#EF9F27"/>
<path d="M37.7883 7.26562C37.8009 8.66841 37.589 9.41111 36.6145 10.4963C36.3535 10.7869 34.8851 11.8201 34.5917 11.9336C34.2439 11.9304 34.2295 11.9356 33.8997 12.0596L33.2863 11.5099C33.2345 10.3814 35.0293 11.0178 35.9343 9.00108C36.2803 8.48287 37.0964 8.49809 37.7883 7.26562Z" fill="#EF9600"/>
<path d="M33.3734 5.51172L33.8291 5.63251L33.895 5.96243C34.142 5.97141 34.2677 5.97403 34.5211 5.9507L34.5369 6.18928C34.1108 6.59706 33.317 7.38181 32.7307 7.47315L32.6191 7.29721C32.7201 7.00622 32.7535 6.92711 32.9016 6.65833C33.1744 6.3178 33.3357 5.9482 33.3734 5.51172Z" fill="#FED63A"/>
<path d="M17.5645 20.1108C18.0345 20.1356 18.7757 20.7274 19.1621 20.8266C20.6261 21.2028 21.2871 18.0507 22.1104 17.2785C23.0173 16.4273 24.8559 14.9469 25.8789 14.417L26.0674 14.6638L25.8947 14.9679L25.9555 15.1158C25.5882 15.684 23.5891 17.7447 23.0884 17.9157C21.459 18.7827 21.6952 20.4155 19.4522 21.4183C18.8263 21.0864 18.033 20.6658 17.5645 20.1108Z" fill="#BA5601"/>
<path d="M24.361 13.0983C24.8049 12.848 25.4038 12.1383 25.7708 11.7383C25.868 12.3211 26.0151 12.5103 25.635 12.9825C24.3328 14.5993 22.5094 15.7571 21.0831 17.2853C20.9127 17.4677 20.4414 17.5188 20.209 17.543C20.5948 17.2053 21.2274 16.692 21.3461 16.2023C21.7164 15.9448 24.1758 13.5295 24.361 13.0983Z" fill="#FED63A"/>
<path d="M31.3496 2.95911C31.4728 2.96485 32.2118 2.73338 32.3802 2.68359C32.602 3.52013 31.9401 5.29626 31.1559 5.76469C30.5772 5.60958 31.1357 5.27293 30.2175 5.45885L30.1289 5.27754C30.5189 4.20904 31.3537 4.1645 31.3496 2.95911Z" fill="#EF9F27"/>
<path d="M30.4824 9.02829C30.9477 8.48075 31.7129 7.48425 32.3061 7.16992C31.7935 8.66917 31.4861 9.46103 30.1723 10.355C30.0299 9.99971 30.3274 9.42984 30.4824 9.02829Z" fill="#FEDE52"/>
<path d="M30.8909 2.19629L32.2513 2.49801L32.3795 2.68331C32.2111 2.7331 31.4721 2.96457 31.3489 2.95883C30.7802 2.98316 30.8428 3.1153 30.1557 3.02172C29.9925 2.87298 29.8557 2.88658 29.6303 2.85813L29.5332 2.84652C29.9634 2.59147 30.4333 2.39956 30.8909 2.19629Z" fill="#FBBB0D"/>
<path d="M28.8008 10.5876C29.2187 10.0875 29.9536 9.39493 30.4809 9.02832C30.3259 9.42987 30.0284 9.99974 30.1709 10.355C29.9284 10.6466 29.9208 10.6573 29.579 10.7965C29.191 10.7797 29.141 10.7751 28.8008 10.5876Z" fill="#EF9F27"/>
<path d="M27.861 7.46729L27.9971 7.59743C28.0675 8.2569 27.5287 8.86371 27.1378 9.42335C26.7244 8.84811 27.5193 7.95468 27.861 7.46729Z" fill="#FBBB0D"/>
<path d="M23.0867 17.9159C23.9014 20.149 23.4058 22.9225 21.0308 23.8824C19.9041 24.3284 18.6482 24.2928 17.5476 23.7836C12.3012 21.414 15.4636 13.2291 21.3446 16.202C21.226 16.6916 20.5934 17.205 20.2075 17.5426C19.4054 17.9833 17.1119 18.9276 17.5628 20.1109C18.0313 20.6659 18.8246 21.0866 19.4505 21.4185C21.6935 20.4156 21.4573 18.7829 23.0867 17.9159Z" fill="#F9EDDE"/>
<path d="M25.8776 14.4172C26.2259 14.0863 27.5895 12.1955 27.8651 11.6875C27.9088 11.6073 27.6939 11.4594 27.8302 11.0923L28.4103 11.4656C29.2454 12.3223 29.0117 12.4161 30.1901 13.0185C31.517 12.9585 32.7837 12.896 33.8999 12.0593C34.2297 11.9353 34.2441 11.9302 34.592 11.9333C34.5141 11.9805 34.0185 12.2658 34.0522 12.3442C36.1311 17.1711 36.5547 23.0367 33.9189 28.1295C31.816 32.1869 28.2048 35.2177 23.8916 36.545C21.4918 37.2966 18.6491 37.3704 16.1851 36.9481C4.66294 34.9724 -1.46775 22.0543 4.06081 11.6215L4.05444 11.7626C3.99488 12.914 3.38111 13.6869 3.81631 14.4271C4.11413 14.6125 4.12368 14.6176 4.46476 14.6126C4.68254 14.8435 4.56881 14.7802 4.65435 14.9383C5.37009 16.2606 6.58182 16.0815 6.52715 17.61L6.63207 17.7271C6.58427 18.6229 6.52189 19.6494 6.57226 20.5366C6.78392 23.9144 8.28365 27.0744 10.7516 29.3421C13.3735 31.7054 16.6203 32.8933 20.1221 32.6646C23.3441 32.4583 26.3518 30.9504 28.477 28.476C31.9415 24.3986 32.8184 15.9826 28.6034 12.3071C27.8229 12.9994 26.9026 14.113 26.0661 14.664L25.8776 14.4172Z" fill="#C04004"/>
<path d="M4.99242 0.862737C5.54197 0.717991 6.01013 0.334289 6.48002 0C7.7643 1.10843 8.72687 3.69552 9.17052 5.31705C9.24014 5.74767 9.30031 5.94133 9.1677 6.36696C11.8238 4.65022 13.9385 3.63837 17.1058 3.37321C20.4121 3.09632 24.3669 3.98963 26.9317 6.19139C26.2816 8.24317 25.7324 8.33313 26.8829 10.1623L26.7973 10.2896L26.7368 10.2511C26.1865 9.89427 25.5868 9.37755 25.0296 8.99821C19.2481 5.06286 11.8467 7.32865 8.2745 13.1368C7.10972 15.0308 7.29821 16.0296 6.63236 17.7272L6.52744 17.61C6.58211 16.0815 5.37038 16.2606 4.65464 14.9383C4.5691 14.7802 4.68283 14.8435 4.46505 14.6126C4.12397 14.6176 4.11442 14.6125 3.8166 14.4271C3.3814 13.6869 3.99517 12.914 4.05473 11.7626L4.0611 11.6215C4.43012 11.048 5.52921 9.55262 5.63474 9.0475C3.74392 8.89465 1.50075 7.97351 0.272848 6.45755C0.12149 6.33476 0.0963682 6.21585 0.00432751 6.02493C-0.0434699 5.26514 0.313905 4.55139 0.620421 3.86946C1.84514 1.65984 1.79722 2.21811 3.77861 1.14374C4.29176 0.917638 4.44213 0.918888 4.99242 0.862737Z" fill="#F05F06"/>
<path d="M4.99242 0.862737C5.54196 0.717991 6.01013 0.334289 6.48002 0C7.7643 1.10843 8.72687 3.69552 9.17052 5.31705C9.24014 5.74767 9.30031 5.94133 9.1677 6.36696C8.85481 7.51132 10.5262 8.478 11.1313 9.4669C10.7597 9.71895 10.4014 10.1442 10.0371 10.4557C8.78802 11.5239 7.79396 9.47301 7.19024 8.38554C6.84659 8.47301 6.76791 8.57645 6.48357 8.81067L6.37327 8.69325L6.53737 8.08669L6.40354 8.02854C6.24581 8.2358 5.75043 8.85759 5.63474 9.0475C3.74392 8.89465 1.50075 7.97351 0.272848 6.45755C0.12149 6.33476 0.0963681 6.21585 0.00432751 6.02493C-0.0434699 5.26514 0.313905 4.55139 0.620421 3.86946C1.84514 1.65984 1.79722 2.21811 3.77861 1.14374C4.29176 0.917638 4.44213 0.918888 4.99242 0.862737Z" fill="#FDB706"/>
<path d="M0.620421 3.86951C1.32586 4.55855 2.07065 5.37524 2.93872 5.80736C3.42969 6.14651 3.6835 6.34554 4.13059 6.74259C4.756 7.4194 5.31867 7.26792 5.77372 7.77877C6.10095 7.92252 5.95449 7.93275 6.22498 7.84566C6.27192 7.42402 6.28748 7.30785 6.54191 6.96982C6.85272 7.15137 7.0102 7.93962 7.19024 8.38558C6.84659 8.47305 6.76791 8.5765 6.48357 8.81071L6.37327 8.69329L6.53737 8.08673L6.40354 8.02858C6.24581 8.23584 5.75043 8.85763 5.63474 9.04755C3.74392 8.89469 1.50075 7.97356 0.272848 6.45759C0.12149 6.33481 0.0963682 6.21589 0.00432751 6.02497C-0.0434699 5.26518 0.313905 4.55144 0.620421 3.86951Z" fill="#FDB706"/>
<path d="M0.273438 6.45752C1.08759 6.51604 1.92343 7.25574 2.72741 7.50693C3.66656 7.80016 4.9647 7.61923 5.77431 7.7787C6.10154 7.92245 5.95508 7.93268 6.22557 7.84558C6.27251 7.42395 6.28807 7.30778 6.5425 6.96974C6.85331 7.1513 7.01079 7.93954 7.19083 8.38551C6.84718 8.47298 6.7685 8.57642 6.48416 8.81064L6.37386 8.69322L6.53796 8.08666L6.40413 8.02851C6.2464 8.23577 5.75102 8.85756 5.63533 9.04747C3.74451 8.89462 1.50134 7.97349 0.273438 6.45752Z" fill="#F69F17"/>
<path d="M9.1706 5.31702C9.24022 5.74764 9.30039 5.9413 9.16778 6.36693C8.85489 7.51129 10.5263 8.47797 11.1314 9.46686C9.10503 10.0415 8.02751 8.55546 8.10986 6.63433L8.48648 6.55709C8.83246 6.10526 9.03248 5.88302 9.1706 5.31702Z" fill="#FBBB0D"/>
<path d="M3.7793 1.1438C4.29244 0.917695 4.44282 0.918944 4.9931 0.862793C4.71269 1.96149 4.9442 1.54272 5.1637 2.73226C4.91185 2.60723 4.21009 1.54048 3.7793 1.1438Z" fill="#FBBB0D"/>
<path d="M2.93945 5.80714C3.51952 5.55833 4.00754 5.99194 4.31124 6.49818C4.2268 6.68497 4.28121 6.63344 4.13132 6.74237C3.68423 6.34532 3.43042 6.14629 2.93945 5.80714Z" fill="#FBBB0D"/>
<path d="M2.93945 1.73389C3.72443 2.0416 6.70172 5.69818 7.21879 6.66386C6.62132 6.3735 3.8867 3.05432 3.19731 2.39348C3.07672 2.27793 2.96617 1.90509 2.93945 1.73389Z" fill="#FEDE52"/>
<path d="M5.75195 1.42773C5.93922 1.47128 6.01521 1.53317 6.18127 1.632C6.38423 2.10792 6.26658 2.67904 6.21522 3.21186L5.98211 3.0152C5.79178 2.58858 5.78431 1.91488 5.75195 1.42773Z" fill="#FEDE52"/>
<path d="M2.19447 3.51953C2.73066 3.74788 3.36256 4.34221 3.32923 4.96899C2.93214 4.62459 2.13589 4.06495 2.19447 3.51953Z" fill="#FEDE52"/>
</svg>
