<svg width="25" height="22" viewBox="0 0 25 22" fill="none" xmlns="http://www.w3.org/2000/svg">
<path fill-rule="evenodd" clip-rule="evenodd" d="M0 9.42871C0 4.12349 5.71477 0 12.5 0C19.2852 0 25 4.12349 25 9.42871C25 14.7339 19.2852 18.8574 12.5 18.8574C11.9674 18.8574 11.4436 18.833 10.9284 18.7841L5.4125 21.9218C5.31961 21.9747 5.21214 22.0018 5.10296 21.9999C4.99378 21.998 4.88751 21.9671 4.79687 21.911C4.70623 21.8548 4.63507 21.7758 4.59189 21.6833C4.54871 21.5908 4.53535 21.4888 4.55341 21.3896L5.32841 17.155C2.14205 15.4704 0 12.6607 0 9.42871ZM3.125 7.33344C3.125 7.12506 3.21479 6.9252 3.37462 6.77785C3.53446 6.6305 3.75124 6.54772 3.97727 6.54772H7.38636C7.6124 6.54772 7.82918 6.6305 7.98901 6.77785C8.14884 6.9252 8.23864 7.12506 8.23864 7.33344C8.23864 7.54183 8.14884 7.74168 7.98901 7.88903C7.82918 8.03639 7.6124 8.11917 7.38636 8.11917H6.53409V12.0478C6.53409 12.2562 6.4443 12.456 6.28447 12.6034C6.12463 12.7507 5.90785 12.8335 5.68182 12.8335C5.45578 12.8335 5.239 12.7507 5.07917 12.6034C4.91934 12.456 4.82955 12.2562 4.82955 12.0478V8.11917H3.97727C3.75124 8.11917 3.53446 8.03639 3.37462 7.88903C3.21479 7.74168 3.125 7.54183 3.125 7.33344ZM10.7375 7.04849C10.6753 6.90093 10.5661 6.77415 10.4244 6.68477C10.2826 6.59538 10.1149 6.54755 9.94318 6.54755C9.77145 6.54755 9.60373 6.59538 9.46199 6.68477C9.32025 6.77415 9.21111 6.90093 9.14886 7.04849L7.16023 11.7628C7.11964 11.859 7.09999 11.9616 7.10241 12.0648C7.10482 12.1679 7.12926 12.2697 7.17432 12.3641C7.21937 12.4586 7.28417 12.5439 7.36501 12.6153C7.44585 12.6867 7.54114 12.7427 7.64545 12.7801C7.74977 12.8175 7.86105 12.8356 7.97295 12.8334C8.08486 12.8312 8.19519 12.8086 8.29765 12.7671C8.40011 12.7256 8.4927 12.6658 8.57012 12.5913C8.64754 12.5168 8.70827 12.4289 8.74886 12.3328L8.97955 11.7859H10.9068L11.1375 12.3328C11.2086 12.5033 11.3419 12.6456 11.5146 12.7353C11.6872 12.825 11.8884 12.8565 12.0834 12.8242C12.2785 12.792 12.4553 12.6981 12.5834 12.5587C12.7114 12.4193 12.7828 12.2431 12.7852 12.0604C12.7888 12.2664 12.88 12.4629 13.0392 12.6075C13.1984 12.7521 13.4129 12.8333 13.6364 12.8335H15.9091C16.1351 12.8335 16.3519 12.7507 16.5117 12.6034C16.6716 12.456 16.7614 12.2562 16.7614 12.0478C16.7614 12.2562 16.8512 12.456 17.011 12.6034C17.1708 12.7507 17.3876 12.8335 17.6136 12.8335C17.8397 12.8335 18.0565 12.7507 18.2163 12.6034C18.3761 12.456 18.4659 12.2562 18.4659 12.0478V10.8011L18.6795 10.6052L20.3568 12.5391C20.4268 12.6198 20.5133 12.6869 20.6115 12.7367C20.7096 12.7865 20.8174 12.818 20.9287 12.8293C21.04 12.8407 21.1527 12.8318 21.2603 12.803C21.3679 12.7743 21.4682 12.7262 21.5557 12.6617C21.6431 12.5972 21.7159 12.5174 21.7699 12.427C21.824 12.3365 21.8581 12.2371 21.8705 12.1345C21.8828 12.0318 21.8731 11.928 21.8419 11.8288C21.8107 11.7296 21.7586 11.6371 21.6886 11.5565L19.892 9.48738L21.625 7.88869C21.7755 7.73974 21.8575 7.54274 21.8536 7.33918C21.8497 7.13563 21.7603 6.94141 21.6041 6.79745C21.448 6.65349 21.2373 6.57103 21.0165 6.56744C20.7957 6.56385 20.582 6.63941 20.4205 6.7782L18.4659 8.58013V7.33344C18.4659 7.12506 18.3761 6.9252 18.2163 6.77785C18.0565 6.6305 17.8397 6.54772 17.6136 6.54772C17.3876 6.54772 17.1708 6.6305 17.011 6.77785C16.8512 6.9252 16.7614 7.12506 16.7614 7.33344V12.0478C16.7614 11.8394 16.6716 11.6396 16.5117 11.4922C16.3519 11.3449 16.1351 11.2621 15.9091 11.2621H14.4886V7.33344C14.4886 7.12506 14.3988 6.9252 14.239 6.77785C14.0792 6.6305 13.8624 6.54772 13.6364 6.54772C13.4103 6.54772 13.1935 6.6305 13.0337 6.77785C12.8739 6.9252 12.7841 7.12506 12.7841 7.33344V12.0289C12.7806 11.9379 12.761 11.8481 12.7261 11.7628L10.7375 7.04849ZM9.94318 9.50205L10.2443 10.2155H9.64205L9.94318 9.50309V9.50205Z" fill="#412625"/>
</svg>
