<svg width="40" height="40" viewBox="0 0 40 40" fill="none" xmlns="http://www.w3.org/2000/svg">
<path d="M17.5934 0.195866C19.7851 -0.28923 23.0417 0.192121 25.1658 0.925014C25.8706 1.16819 26.5206 1.51994 27.2073 1.77823C28.21 2.15546 29.6443 2.5434 30.5363 3.12905C32.1695 3.85737 33.4338 5.44562 34.3571 6.94119C34.8124 7.67878 35.435 8.31225 35.9513 9.00425C36.817 10.2596 38.0105 12.2131 38.316 13.7252C38.4692 14.3939 38.825 14.7099 39.0269 15.314C39.3477 16.2731 39.4838 17.3499 39.6763 18.3485C39.9336 19.8632 40.0859 21.2602 39.9481 22.8074C39.879 23.5869 39.5752 24.3596 39.3691 25.1089C38.4572 29.4192 35.9956 33.2584 32.5096 35.851C32.1861 36.0914 31.8465 36.3639 31.5017 36.5773C29.3361 37.6557 27.2419 39.064 24.7469 39.0949C23.7519 39.1076 23.0755 39.4599 22.1477 39.6824C20.2611 40.1344 18.2944 40.1035 16.4224 39.5923C15.1447 39.2465 14.354 38.7622 13.1196 38.4508L12.4621 38.3481C11.7298 38.2322 10.8053 37.8009 10.1332 37.4598C8.85176 36.8097 8.29839 36.3043 7.57612 35.0486C7.07224 35.0255 6.58863 34.9407 6.15827 34.6256C5.00684 33.7826 3.85344 32.4502 3.21981 31.1525C3.03893 30.782 2.8962 30.1023 2.71392 29.7982C2.22608 28.9844 1.9431 28.6611 1.60631 27.7518C1.24311 26.7711 1.17569 25.9499 0.908626 25.0246C0.686191 24.254 0.434101 23.8663 0.244479 22.9575C-0.116332 21.2284 -0.047549 20.0273 0.25408 18.2865C0.294317 18.0543 0.592789 17.5055 0.598976 17.3883C0.622785 16.9404 0.54837 16.4865 0.643309 16.0104C0.72788 15.5861 0.862458 15.1708 0.971563 14.7573C1.49503 12.7736 2.37632 10.9753 3.47629 9.26542C4.45022 7.75143 5.64875 6.43649 7.04592 5.32429C7.62233 4.86536 8.13206 4.35714 8.78912 3.96446C9.40177 3.59825 10.0391 3.31135 10.6624 2.96874C10.8652 2.86858 11.1252 2.5842 11.3134 2.50307C12.2655 2.09249 13.2417 1.43685 14.1951 1.08475C15.267 0.688976 16.4806 0.436041 17.5934 0.195866Z" fill="#F9C356"/>
</svg>
