<svg width="40" height="40" viewBox="0 0 40 40" fill="none" xmlns="http://www.w3.org/2000/svg">
<path d="M17.5934 0.195866C19.7851 -0.28923 23.0417 0.192121 25.1658 0.925014C25.8706 1.16819 26.5206 1.51994 27.2073 1.77823C28.21 2.15546 29.6443 2.5434 30.5363 3.12905C32.1695 3.85737 33.4338 5.44562 34.3571 6.94119C34.8124 7.67878 35.435 8.31225 35.9513 9.00425C36.817 10.2596 38.0105 12.2131 38.316 13.7252C38.4692 14.3939 38.825 14.7099 39.0269 15.314C39.3477 16.2731 39.4838 17.3499 39.6763 18.3485C39.9336 19.8632 40.0859 21.2602 39.9481 22.8074C39.879 23.5869 39.5752 24.3596 39.3691 25.1089C38.4572 29.4192 35.9956 33.2584 32.5096 35.851C32.1861 36.0914 31.8465 36.3639 31.5017 36.5773C29.3361 37.6557 27.2419 39.064 24.7469 39.0949C23.7519 39.1076 23.0755 39.4599 22.1477 39.6824C20.2611 40.1344 18.2944 40.1035 16.4224 39.5923C15.1447 39.2465 14.354 38.7622 13.1196 38.4508L12.4621 38.3481C11.7298 38.2322 10.8053 37.8009 10.1332 37.4598C8.85176 36.8097 8.29839 36.3043 7.57612 35.0486C7.07224 35.0255 6.58863 34.9407 6.15827 34.6256C5.00684 33.7826 3.85344 32.4502 3.21981 31.1525C3.03893 30.782 2.8962 30.1023 2.71392 29.7982C2.22608 28.9844 1.9431 28.6611 1.60631 27.7518C1.24311 26.7711 1.17569 25.9499 0.908626 25.0246C0.686191 24.254 0.434101 23.8663 0.244479 22.9575C-0.116332 21.2284 -0.047549 20.0273 0.25408 18.2865C0.294317 18.0543 0.592789 17.5055 0.598976 17.3883C0.622785 16.9404 0.54837 16.4865 0.643309 16.0104C0.72788 15.5861 0.862458 15.1708 0.971563 14.7573C1.49503 12.7736 2.37632 10.9753 3.47629 9.26542C4.45022 7.75143 5.64875 6.43649 7.04592 5.32429C7.62233 4.86536 8.13206 4.35714 8.78912 3.96446C9.40177 3.59825 10.0391 3.31135 10.6624 2.96874C10.8652 2.86858 11.1252 2.5842 11.3134 2.50307C12.2655 2.09249 13.2417 1.43685 14.1951 1.08475C15.267 0.688976 16.4806 0.436041 17.5934 0.195866Z" fill="#F9C356"/>
<path d="M7.57612 35.0487C7.07224 35.0255 6.58863 34.9408 6.15827 34.6257C5.00684 33.7827 3.85344 32.4503 3.21981 31.1525C3.03893 30.782 2.8962 30.1024 2.71392 29.7983C2.22608 28.9844 1.9431 28.6612 1.60631 27.7518C1.24311 26.7711 1.17569 25.9499 0.908626 25.0247C0.686191 24.254 0.434101 23.8663 0.244479 22.9575C-0.116332 21.2285 -0.047549 20.0273 0.25408 18.2866C0.294317 18.0544 0.592789 17.5055 0.598976 17.3884C0.622785 16.9405 0.54837 16.4866 0.643309 16.0105C0.72788 15.5862 0.862458 15.1709 0.971563 14.7574C1.49503 12.7736 2.37632 10.9754 3.47629 9.26548C4.45022 7.75148 5.64875 6.43655 7.04592 5.32434C7.62233 4.86542 8.13206 4.3572 8.78912 3.96451C9.40177 3.59831 10.0391 3.3114 10.6624 2.9688C10.8652 2.86864 11.1252 2.58426 11.3134 2.50313C12.2655 2.09254 13.2417 1.43691 14.1951 1.08481C15.267 0.689032 16.4806 0.436098 17.5934 0.195923C17.6342 0.396207 18.0445 0.822773 18.2227 0.869719C17.4957 0.96666 15.4515 1.40542 14.8245 1.73108L15.1536 1.71288C14.7187 1.87062 13.9644 2.10822 13.6284 2.40592L13.6229 2.5452C13.5611 2.57085 13.526 2.58513 13.4656 2.61527L13.5541 2.66408C13.2849 2.82112 12.1486 3.36432 12.019 3.5069C12.0324 3.34298 11.9612 3.32059 11.8466 3.25283L11.8422 3.17339C11.6609 3.28458 11.4606 3.40843 11.2719 3.5045C7.06738 5.64447 4.12115 8.66075 2.31005 13.1539C1.68043 14.4347 1.39604 16.244 1.19208 17.6476C1.17369 17.774 1.03702 17.7199 1.00988 17.8277C0.909309 18.0698 0.856399 18.7276 0.884859 18.9768C0.740125 20.5035 0.660035 21.8604 1.03843 23.3871C1.13277 23.7676 1.46516 24.4157 1.53266 24.755C1.72549 25.8271 1.99272 26.7798 2.39113 27.7867C2.62619 28.3808 3.27319 29.1491 3.42449 29.5886C4.10899 31.5767 5.2157 33.2159 7.06311 34.2433C7.18685 34.3122 7.62745 34.327 7.78204 34.3602C8.05833 34.6264 8.3024 35.1443 8.58593 35.4256C9.12254 35.958 9.68095 36.2927 10.3161 36.6481C10.6555 37.1646 12.2511 37.5834 12.8535 37.6083C13.5638 37.6089 13.9292 37.8794 14.5258 38.1473C16.226 38.9103 18.223 39.4207 20.0901 39.2474C20.2632 39.2313 20.4527 39.2282 20.6294 39.2195C21.5139 39.1155 22.2174 38.8616 23.0721 38.7344C23.4863 38.6307 23.8326 38.5223 24.2615 38.4465C25.3122 38.2614 26.247 38.2358 27.2644 37.8817C28.0594 37.6052 28.7444 37.0515 29.4102 36.7657C30.5651 36.2699 30.8454 36.2253 31.8691 35.3953C32.4972 34.853 33.3275 34.3149 33.866 33.7442C34.8794 32.6702 35.988 31.3825 36.6754 30.0576C37.5386 28.9623 38.0177 26.7315 38.4935 25.4095C38.8447 24.4342 39.0405 23.6741 39.1438 22.6356C39.256 21.5074 39.1233 20.4438 39.1182 19.3292C39.1408 18.954 39.2347 18.6788 39.6217 18.5209L39.6763 18.3486C39.9336 19.8633 40.0859 21.2603 39.9481 22.8074C39.879 23.5869 39.5752 24.3596 39.3691 25.1089C38.4572 29.4192 35.9956 33.2584 32.5096 35.851C32.1861 36.0915 31.8465 36.364 31.5017 36.5774C29.3361 37.6558 27.2419 39.0641 24.7469 39.095C23.7519 39.1076 23.0755 39.4599 22.1477 39.6825C20.2611 40.1345 18.2944 40.1036 16.4224 39.5923C15.1447 39.2465 14.354 38.7623 13.1196 38.4509L12.4621 38.3481C11.7298 38.2323 10.8053 37.8009 10.1332 37.4599C8.85176 36.8097 8.29839 36.3044 7.57612 35.0487Z" fill="#5E1302"/>
<path d="M12.8535 37.6083C13.5638 37.6088 13.9292 37.8794 14.5259 38.1472C16.2261 38.9103 18.223 39.4207 20.0901 39.2474C20.2632 39.2313 20.4527 39.2282 20.6294 39.2195C18.6137 39.8614 15.4844 38.9765 13.6852 37.9464C13.463 37.8193 13.0972 37.7074 12.8535 37.6083Z" fill="#631003"/>
<path d="M31.8693 35.3953C31.5518 36.0491 30.0371 36.5812 29.43 36.882C28.6322 37.2773 27.9041 37.7737 27.0501 38.0704C26.6075 38.2244 25.9959 38.2196 25.6423 38.3572L25.6467 38.3881C25.7231 38.3912 25.8617 38.3907 25.9297 38.4103C25.7235 38.4722 25.609 38.4421 25.4164 38.4887C25.3249 38.5109 25.0203 38.7204 24.9251 38.7308C24.3422 38.7962 23.6465 38.801 23.0723 38.7343C23.4865 38.6307 23.8328 38.5222 24.2617 38.4465C25.3124 38.2614 26.2472 38.2357 27.2646 37.8817C28.0596 37.6052 28.7446 37.0514 29.4104 36.7656C30.5653 36.2699 30.8456 36.2253 31.8693 35.3953Z" fill="#631003"/>
<path d="M11.8423 3.17328C12.3593 2.80721 14.192 1.89594 14.8246 1.73097L15.1537 1.71277C14.7187 1.8705 13.9645 2.10811 13.6285 2.40581L13.623 2.54508C13.5611 2.57074 13.526 2.58502 13.4657 2.61516L13.5542 2.66397C13.2849 2.82101 12.1486 3.3642 12.0191 3.50679C12.0325 3.34287 11.9612 3.32048 11.8466 3.25272L11.8423 3.17328Z" fill="#F4BD70"/>
<path d="M12.4622 38.348C12.3417 38.2156 12.3379 38.2522 12.313 38.1038C12.4887 37.9679 13.2419 38.0702 13.3535 38.3415C13.3009 38.4403 13.2358 38.4534 13.1197 38.4508L12.4622 38.348Z" fill="#631003"/>
<path d="M0.885098 18.9768C0.856638 18.7275 0.909548 18.0697 1.01012 17.8276C1.03726 17.7199 1.17393 17.774 1.19232 17.6475C1.39628 16.2439 1.68067 14.4347 2.31029 13.1538C2.27846 13.3662 2.24599 13.5366 2.25303 13.7523L2.18387 13.9126C2.37754 13.9836 2.5239 13.8965 2.72478 13.8223C3.27765 13.7236 4.08696 13.9255 4.49129 14.3263C4.96923 14.7048 5.38393 15.1341 5.64485 15.7049C5.66137 15.8118 5.68368 15.9383 5.69158 16.0458C5.8 17.5224 4.51446 19.3854 3.13462 19.7645C2.43203 19.5758 1.88181 19.4237 1.48341 18.6687C1.38002 18.4727 1.39376 18.2643 1.23827 18.0707L1.19419 18.067C1.11982 18.4308 0.981488 18.5125 0.885098 18.9768Z" fill="#984819"/>
<path d="M2.72437 13.8223C3.27724 13.7235 4.08655 13.9255 4.49088 14.3263C3.93038 14.1773 3.34914 13.9143 2.77421 13.9623C2.51824 13.9836 2.33723 14.1664 2.14595 14.1428C2.11053 14.0324 2.12956 14.0533 2.18345 13.9126C2.37713 13.9836 2.52349 13.8964 2.72437 13.8223Z" fill="#F4BD70"/>
<path d="M30.0796 3.71011L30.1386 3.67701C29.9867 3.4553 28.0897 2.77354 27.7075 2.61127C27.8 2.49212 27.8083 2.42401 27.8677 2.29057C27.8851 2.2516 27.9725 2.14159 27.9838 2.14446C28.8406 2.36069 29.6526 2.7836 30.451 3.15821C30.4794 3.1485 30.5078 3.13878 30.5361 3.12903C32.1694 3.85735 33.4336 5.4456 34.357 6.94117C34.8123 7.67876 35.4348 8.31223 35.9511 9.00423C36.8169 10.2595 38.0104 12.213 38.3159 13.7252C38.2809 13.9852 38.3393 14.0453 38.1857 14.2301C38.0483 14.1918 37.7518 13.7686 37.561 13.6335C37.1881 12.8574 37.1587 12.982 36.5694 12.4621C36.4764 12.1168 36.479 11.2996 36.3497 11.0235C35.8526 9.91206 34.8195 8.99295 34.1518 7.99916C32.8555 6.07049 32.1869 4.85807 30.0796 3.71011Z" fill="#5E1302"/>
<path d="M17.5933 0.195866C19.7849 -0.28923 23.0416 0.192121 25.1656 0.925013C25.8704 1.16819 26.5205 1.51994 27.2072 1.77823C28.2099 2.15546 29.6441 2.5434 30.5361 3.12905C30.5078 3.1388 30.4793 3.14851 30.451 3.15823C29.6525 2.78361 28.8406 2.36071 27.9837 2.14448C27.9724 2.14161 27.885 2.25162 27.8677 2.29059C27.8082 2.42403 27.8 2.49214 27.7075 2.61129C28.0897 2.77355 29.9866 3.45532 30.1386 3.67703L30.0796 3.71013C28.6184 3.02645 27.14 2.52049 25.6491 1.91219C23.2009 0.913212 20.8449 0.561115 18.2225 0.869662C18.0443 0.822716 17.6341 0.39615 17.5933 0.195866Z" fill="#631003"/>
<path d="M10.3159 36.648C10.9963 36.9611 11.7748 37.3697 12.5464 37.4131C13.0671 37.4423 13.9516 37.0217 14.4424 37.1077C14.8753 37.1834 15.1757 37.7925 15.7165 37.8933C15.4931 37.8971 15.1268 37.6688 14.9478 37.5409C14.7011 37.7323 14.494 37.7737 14.4017 37.8566L14.4185 37.9236C15.3582 38.2391 16.2198 38.5975 17.1881 38.8288C18.4963 39.1415 19.7139 39.1685 21.0395 38.935C21.333 38.8836 21.6852 38.8945 21.9802 38.8275C22.3692 38.6964 22.6939 38.5252 23.1016 38.449C25.3255 38.1169 27.4666 37.9251 29.3673 36.5626C29.6597 36.3909 30.2217 36.309 30.4876 36.1285C31.48 35.4548 32.6617 34.659 33.5761 33.9065C34.1376 33.4439 34.7708 32.5308 35.279 31.9804C35.7386 31.4826 36.1354 30.5327 36.6491 30.0693C36.6581 30.0653 36.6666 30.0614 36.6751 30.0575C35.9877 31.3824 34.8792 32.6701 33.8658 33.744C33.3273 34.3148 32.497 34.8529 31.8689 35.3952C30.8452 36.2252 30.5649 36.2698 29.41 36.7655C28.7442 37.0514 28.0592 37.6051 27.2641 37.8816C26.2468 38.2356 25.312 38.2613 24.2613 38.4464C23.8323 38.5222 23.4861 38.6306 23.0718 38.7343C22.2172 38.8614 21.5136 39.1153 20.6292 39.2194C20.4525 39.2281 20.263 39.2312 20.0899 39.2473C18.2227 39.4206 16.2258 38.9102 14.5256 38.1471C13.929 37.8793 13.5636 37.6087 12.8533 37.6082C12.2509 37.5833 10.6553 37.1645 10.3159 36.648Z" fill="#D37F2B"/>
<path d="M5.64451 15.7048C6.30452 16.3624 6.78549 16.7311 6.75447 17.7437C6.68897 19.8834 4.75251 20.2419 3.13428 19.7645C4.51412 19.3853 5.79966 17.5223 5.69123 16.0458C5.68334 15.9383 5.66102 15.8117 5.64451 15.7048Z" fill="#B36D33"/>
<path d="M12.072 3.8362L12.1138 3.80641C12.1594 3.77357 12.1716 3.76373 12.2108 3.72088C12.3637 3.70063 12.3514 3.6775 12.4708 3.73129C12.4613 3.93536 12.3317 4.05852 12.2022 4.22936C11.7762 4.62579 11.4126 4.83026 10.8949 5.06446C10.6715 5.1905 10.2738 5.32964 10.0769 5.48245C8.6871 6.56091 7.2293 7.60631 6.14977 9.02715C5.85445 9.41587 5.61926 9.6277 5.18506 9.8387C5.53452 9.07048 6.95344 7.36945 7.59736 6.77164C8.45143 5.97878 9.88013 5.29501 10.8663 4.64225C11.2541 4.38553 11.6741 4.07128 12.072 3.8362Z" fill="#F7F6F2"/>
<path d="M37.561 13.6335C37.7518 13.7686 38.0483 14.1918 38.1857 14.2301C38.3393 14.0453 38.2809 13.9852 38.3159 13.7252C38.469 14.3939 38.8249 14.7099 39.0267 15.314C39.3476 16.2731 39.4837 17.3499 39.6762 18.3485L39.6215 18.5208C39.2345 18.6787 39.1407 18.954 39.118 19.3291C39.0297 19.005 38.9691 18.3482 38.8757 17.9548C38.5262 16.4819 38.1746 15.0155 37.561 13.6335Z" fill="#631003"/>
<path d="M18.0605 1.05971C18.2234 1.06263 18.2517 1.03641 18.3763 1.11689C18.2418 1.41024 15.6036 1.73403 15.0961 2.0373C14.5794 2.22208 14.0715 2.46657 13.5543 2.66398L13.4658 2.61516C13.5262 2.58503 13.5613 2.57074 13.6231 2.54509L13.6286 2.40582C13.9646 2.10812 14.7189 1.87051 15.1538 1.71277C15.5835 1.49311 17.4873 1.14393 18.0605 1.05971Z" fill="#F8E6C8"/>
<path d="M18.0601 1.05971C18.3977 0.986551 19.4587 0.860649 19.7485 0.961336C19.7949 1.00619 19.7819 0.97906 19.7894 1.04168C19.5843 1.32301 18.5877 1.29235 18.2595 1.34679C17.6799 1.4429 17.1117 1.58353 16.5402 1.71979C16.2631 1.78229 15.2786 2.06087 15.0957 2.03731C15.6032 1.73403 18.2414 1.41024 18.3759 1.11689C18.2513 1.03642 18.223 1.06263 18.0601 1.05971Z" fill="#F4BD70"/>
<path d="M11.5412 3.58301L11.5701 3.64241C11.2366 4.01841 10.6746 4.5691 10.1069 4.4384L10.1335 4.3642C10.4656 4.08535 11.14 3.76078 11.5412 3.58301Z" fill="#FCE2B6"/>
<path d="M11.8468 3.25281C11.9614 3.32057 12.0326 3.34295 12.0192 3.50687C12.2545 3.64584 12.6124 3.56301 12.7029 3.8058C12.6181 3.97616 12.3671 4.11696 12.2022 4.22936C12.3317 4.05851 12.4613 3.93536 12.4708 3.73128C12.3515 3.6775 12.3637 3.70063 12.2108 3.72088C12.1716 3.76373 12.1594 3.77357 12.1138 3.80641L12.072 3.8362C12.0011 3.79835 11.6827 3.68926 11.5704 3.64244L11.5415 3.58304C11.5813 3.46341 11.745 3.34374 11.8468 3.25281Z" fill="#FCE2B6"/>
<path d="M22.4692 19.8526C23.1226 19.8212 23.9327 19.8634 24.1157 20.6252C24.5899 22.6007 23.1208 24.5177 21.424 25.1096C20.415 25.4534 19.3136 25.3729 18.3629 24.886C17.0593 24.2706 16.2611 23.1531 16.0791 21.7019C15.8752 20.0763 17.8465 20.2015 18.9368 20.1057C20.112 19.9908 21.2898 19.9064 22.4692 19.8526Z" fill="#5E1302"/>
<path d="M20.0728 22.2437C20.1289 22.2375 20.1853 22.2332 20.2417 22.2307C21.227 22.1884 22.2233 22.3944 22.9699 23.0874C22.295 24.0879 21.653 24.3417 20.5668 24.6417C20.5247 24.6457 20.4827 24.6489 20.4405 24.6512C19.1822 24.7206 18.5049 24.3222 17.6167 23.5073C18.3538 22.7074 18.9914 22.3684 20.0728 22.2437Z" fill="#ED6D49"/>
<path d="M21.7542 2.90166C22.7757 2.87018 23.1664 3.06358 23.9653 3.73124C25.0042 4.59939 25.4076 6.08321 24.453 7.18588C23.9452 7.77253 23.2152 7.87596 22.4761 7.91733C21.1463 7.89647 19.5489 7.15883 19.2181 5.69627C18.9169 4.36444 20.5984 3.10665 21.7542 2.90166Z" fill="#A3541D"/>
<path d="M26.5516 14.1859C27.963 13.9652 29.2815 14.9568 29.4931 16.3981C29.7047 17.8393 28.7289 19.1818 27.3161 19.3931C25.9098 19.6034 24.6018 18.613 24.3911 17.1784C24.1805 15.7437 25.1466 14.4055 26.5516 14.1859Z" fill="#5E1302"/>
<path d="M26.1618 15.1001C27.1346 15.2538 27.1861 16.4843 26.1955 16.8091C25.797 16.7588 25.5089 16.5563 25.4098 16.1437C25.3535 15.9175 25.3912 15.6776 25.514 15.4807C25.6764 15.2228 25.8889 15.1543 26.1618 15.1001Z" fill="#F7F6F2"/>
<path d="M27.9313 17.3364C28.0735 17.2689 28.2403 17.2851 28.3674 17.379C28.4944 17.4728 28.5618 17.6294 28.5434 17.7884C28.5251 17.9473 28.4239 18.0837 28.2789 18.1448C28.0615 18.2364 27.8123 18.1339 27.7177 17.9141C27.6232 17.6943 27.7181 17.4377 27.9313 17.3364Z" fill="#F7F6F2"/>
<path d="M12.9146 14.7095C16.1655 14.5289 16.6986 19.3667 13.5347 20.0116C11.916 20.0798 10.9488 19.3879 10.7059 17.684C10.4957 16.2088 11.4217 14.8509 12.9146 14.7095Z" fill="#5E1302"/>
<path d="M12.1147 15.7875C12.5246 15.6565 12.9615 15.8864 13.0946 16.3032C13.2278 16.7199 13.0076 17.1685 12.6008 17.3092C12.3335 17.4017 12.038 17.3404 11.8273 17.1486C11.6165 16.9569 11.5231 16.6643 11.5826 16.3826C11.642 16.101 11.8453 15.8737 12.1147 15.7875Z" fill="#F7F6F2"/>
<path d="M14.1862 17.9357C14.3387 17.8999 14.4982 17.9518 14.6021 18.0712C14.7061 18.1905 14.7379 18.3583 14.6851 18.5086C14.6322 18.6589 14.5032 18.7678 14.3486 18.7926C14.1211 18.829 13.9061 18.6749 13.8623 18.4441C13.8186 18.2133 13.9618 17.9886 14.1862 17.9357Z" fill="#F7F6F2"/>
<path d="M30.0351 25.16C31.546 25.0212 32.3831 25.8648 32.681 27.3463C32.7923 27.9004 32.4557 28.6638 32.1386 29.1022C31.6902 29.7228 31.1654 29.9621 30.4323 30.0701C29.8348 30.0033 29.2973 29.9571 28.7759 29.5998C28.2625 29.2387 27.803 28.4651 27.7138 27.8329C27.4964 26.2911 28.74 25.3881 30.0351 25.16Z" fill="#984819"/>
<path d="M10.8815 29.313C10.3135 30.0079 9.28477 30.2365 8.42417 30.0532C7.63475 29.8558 7.04723 29.1114 6.81682 28.3448C6.7928 28.2648 6.90544 27.9934 6.92465 27.9033C6.9767 27.6589 7.01412 27.413 7.06801 27.1691C7.33141 25.9767 8.66999 25.4378 9.74897 25.7428C10.4315 25.9358 10.7644 26.2746 11.0994 26.8862C11.7484 27.5254 11.5897 28.7788 10.8815 29.313Z" fill="#B36D33"/>
<path d="M11.0992 26.8862C11.7483 27.5254 11.5895 28.7788 10.8813 29.313C10.9436 29.1964 11.0047 29.0791 11.0645 28.9611C11.4529 28.1946 11.3435 27.6728 11.0992 26.8862Z" fill="#F4BD70"/>
<path d="M11.8545 7.16998C12.3564 7.10531 13.0207 7.14821 13.4509 7.44517C13.8728 7.73808 14.1618 8.19165 14.253 8.7041C14.5129 10.2487 13.5447 11.143 12.1441 11.3894C11.1096 11.5336 9.98498 11.4266 9.75226 10.1613C9.4779 8.66982 10.4021 7.42074 11.8545 7.16998Z" fill="#984819"/>
<path d="M20.3289 31.8798C20.6513 30.9902 21.3646 30.5388 22.266 30.4129C22.8582 30.3302 23.1673 30.406 23.6215 30.7608C24.1944 31.24 24.1292 31.6904 24.1247 32.4149C24.1482 33.3857 23.1618 34.2824 22.231 33.9067C21.9514 33.7939 21.6913 33.4606 21.4414 33.2945C21.0179 33.0131 20.6812 32.9275 20.3287 32.5339C20.3158 32.326 20.2918 32.0823 20.3289 31.8798Z" fill="#984819"/>
<path d="M23.6215 30.7609C24.1944 31.24 24.1292 31.6904 24.1247 32.4149C24.1482 33.3858 23.1618 34.2825 22.231 33.9068C21.9514 33.7939 21.6913 33.4607 21.4414 33.2946C21.0179 33.0132 20.6812 32.9276 20.3287 32.5339C20.3158 32.3261 20.2918 32.0823 20.3289 31.8798C20.4279 32.765 20.8145 32.6873 21.4409 33.1112C21.7098 33.2936 21.9707 33.6348 22.2788 33.7439C23.6939 34.2449 24.0473 32.8551 23.9174 31.7216C23.8666 31.2782 23.7973 31.1426 23.6215 30.7609Z" fill="#D37F2B"/>
<path d="M28.3233 7.56026C28.4924 7.53962 28.7251 7.55024 28.901 7.55342C29.6363 8.05811 30.2797 8.96982 30.3047 9.88558C30.3291 10.7748 29.5502 11.401 28.7301 11.3804C27.7557 11.1189 26.0411 9.95539 26.7944 8.75717C27.1109 8.25365 27.7396 7.69391 28.3233 7.56026Z" fill="#AA5921"/>
<path d="M2.91797 12.1382C3.26538 11.3353 5.08028 8.09407 5.76998 7.86426L5.83509 7.91295C5.87661 8.41385 4.91937 9.25405 4.79405 9.68815C4.64868 10.1918 4.53722 10.7046 4.38519 11.2127C4.29849 11.3891 4.26764 11.4928 4.10272 11.5687L4.02033 11.5222C3.92219 11.3709 3.91472 11.1926 3.88933 11.0106L3.83062 11.0392L3.82362 11.0749C3.5057 11.3798 3.26897 12.1035 3.00467 12.1898L2.91797 12.1382Z" fill="#FCE2B6"/>
<path d="M34.9902 12.8892C35.5705 12.8865 36.0641 13.8679 36.3133 14.3444C36.656 14.9985 36.903 16.0186 36.6888 16.7552C36.6611 16.8502 36.5292 17.1128 36.443 17.1574L36.4695 17.0176C36.9269 16.4892 36.6696 15.514 36.4938 14.9052C36.4405 14.72 36.0906 13.9371 35.9314 13.8585C35.8465 13.9124 35.8388 13.9217 35.7403 13.9535C35.5171 13.8221 35.1229 13.3792 34.9611 13.1439C34.9133 13.0746 34.9641 12.9753 34.9902 12.8892Z" fill="#FCE2B6"/>
<path d="M21.1072 35.6567C21.265 35.6928 21.3238 35.6896 21.4289 35.8124C21.4876 35.96 21.4735 35.9884 21.4547 36.1536C21.1683 36.0971 21.0799 35.947 21.1072 35.6567Z" fill="#F4BD70"/>
</svg>
