<svg width="36" height="36" viewBox="0 0 36 36" fill="none" xmlns="http://www.w3.org/2000/svg">
<path d="M28.6158 35.5003H0.83125C0.371094 35.5003 0 35.1292 0 34.6691V0.83125C0 0.371094 0.371094 0 0.83125 0H28.6158C29.0759 0 29.447 0.371094 29.447 0.83125V34.6691C29.447 35.1292 29.0759 35.5003 28.6158 35.5003Z" fill="#FFD95E"/>
<path d="M3.96051 6.10952C4.5691 5.83936 5.26676 6.12436 5.93176 6.13624C6.67691 6.15108 7.40129 5.81561 8.14645 5.85717C8.87973 5.89577 9.55363 6.29358 10.2839 6.35592C11.2013 6.43014 12.0741 5.96999 12.9855 5.85421C14.2829 5.68796 15.6129 6.21936 16.8954 5.94921M3.93379 11.5928C4.45035 11.4533 5.00254 11.4533 5.5191 11.5869C6.00598 11.7145 6.46613 11.958 6.96785 11.9698C7.6091 11.9847 8.19394 11.6165 8.82035 11.4859C10.3166 11.1712 11.9049 12.2103 13.3507 11.7175M17.8483 11.6581C18.7182 11.3701 19.6563 11.7145 20.5707 11.7442C21.0041 11.759 21.4346 11.6997 21.8621 11.6433C22.4054 11.572 22.9516 11.4978 23.4949 11.4265M3.98129 16.1112C4.64926 15.9955 5.33801 15.8767 6.00004 16.0222C6.37707 16.1053 6.73926 16.2715 7.1252 16.2775C7.5616 16.2834 7.97129 16.0875 8.39582 15.9865C8.97032 15.8507 9.57239 15.8911 10.1236 16.1023M14.3244 16.2775C14.3244 16.2775 14.8766 15.8084 16.3343 16.1172C17.0913 16.2775 17.8839 16.4259 18.641 16.2567C18.9379 16.1914 19.2199 16.0667 19.5168 16.0044C19.8433 15.939 20.1788 15.948 20.5113 15.9569C21.0516 15.9747 21.5949 15.9895 22.1352 16.0073M3.81801 20.8731C4.72645 20.2734 5.95254 20.9592 7.02129 20.7484C7.51113 20.6505 7.95051 20.3655 8.44035 20.2764C9.04301 20.1665 9.6516 20.3625 10.2602 20.4367C10.6372 20.4842 11.0172 20.4812 11.3972 20.4812C11.7921 20.4812 12.1899 20.4812 12.5847 20.4783C13.9236 20.4753 15.2714 20.4723 16.5807 20.1992M3.62207 25.1689C4.30191 24.9076 5.02332 24.6523 5.74176 24.7651C6.43051 24.875 7.07176 25.3173 7.76348 25.2283C8.04254 25.1926 8.30379 25.068 8.56801 24.97C9.15879 24.7473 9.78816 24.6375 10.4175 24.6494M18.5489 25.2728C18.9289 24.8423 19.5821 24.8008 20.1491 24.8869C20.7161 24.973 21.2861 25.154 21.8502 25.0501C22.2005 24.9878 22.5211 24.8156 22.8714 24.7562C23.6136 24.6286 24.4241 24.9967 25.1099 24.679M3.63988 31.0203C4.07629 30.578 4.80066 30.6136 5.40035 30.7828C6.00004 30.952 6.59379 31.2281 7.21129 31.1628C7.74863 31.1064 8.23254 30.7947 8.76988 30.7294C9.35176 30.6551 9.92473 30.8748 10.4947 31.0144C11.2814 31.2103 12.1008 31.2578 12.9054 31.1598" stroke="#5D3300" stroke-miterlimit="10" stroke-linecap="round"/>
<path opacity="0.3" d="M29.4857 13.7743L15.8621 25.2871L15.8502 25.296C15.5326 25.5662 12.8548 30.7674 12.8548 30.7674C12.6291 31.3137 13.1338 31.8837 13.7187 31.7471C13.7187 31.7471 20.7635 29.6066 20.9595 29.4523L29.4471 22.4223L29.4857 13.7743Z" fill="#5D3300"/>
<path d="M12.3557 30.7355L13.0949 26.8257L13.6026 24.133C13.7035 23.4443 13.6976 23.1652 13.9974 22.7407L16.1735 19.6532L22.8265 24.3409L20.6474 27.4313C20.4693 27.6866 20.0863 27.9419 19.4718 28.2685L17.1087 29.6519L13.6738 31.6648C13.0207 32.0091 12.2488 31.4659 12.3557 30.7355Z" fill="#FFECB3"/>
<path d="M13.6743 31.6641L16.5184 29.9957C16.5184 29.9957 15.2507 30.1441 14.2532 29.4405C13.2557 28.7369 12.9677 27.493 12.9677 27.493L12.3532 30.7319C12.2493 31.4652 13.0212 32.0085 13.6743 31.6641Z" fill="#616161"/>
<path d="M29.4472 10.7584L26.7367 8.84949L15.6484 24.5868C15.6484 24.5868 15.5712 25.7743 16.3906 26.3503C17.21 26.9262 18.3589 26.4957 18.3589 26.4957L29.4472 10.7584Z" fill="#FFC107"/>
<path d="M31.4186 12.148L20.6302 27.4549C18.6025 28.2802 18.3828 26.4604 18.3828 26.4604L29.4473 10.7587L31.4186 12.148Z" fill="#FFA000"/>
<path d="M26.7363 8.84628L15.6717 24.548C15.6717 24.548 13.2611 24.9666 14.0092 22.7222L24.765 7.45691L26.7363 8.84628Z" fill="#FDD835"/>
<path opacity="0.2" d="M24.7654 7.45984C24.7654 7.45984 26.2973 9.05109 27.4818 9.89421C29.75 11.5062 31.4184 12.1475 31.4184 12.1475L31.0978 12.6047C30.504 12.4859 28.9751 12.0822 27.3126 10.9125C25.6412 9.7339 24.7268 8.46031 24.4092 7.96453L24.7654 7.45984Z" fill="#4E342E"/>
<path d="M15.6931 25.0325L15.6486 24.5872L15.2656 24.5812L26.4905 8.67468L26.9863 9.025L15.6931 25.0325Z" fill="#F19534"/>
<path d="M18.3585 26.496L17.9043 26.6118L28.9184 10.9813L29.4171 11.3316L18.4891 26.8404L18.3585 26.496Z" fill="#D1762C"/>
<path d="M26.4248 5.10574L28.3723 9.19371L33.0748 9.7934L35.3162 6.67918C35.8921 5.86278 35.8239 4.58028 33.6626 3.05731L32.3593 2.13996C30.492 0.821838 29.2392 1.17809 28.6632 1.99153L26.4248 5.10574Z" fill="#EF5350"/>
<path d="M32.1282 11.961C32.0242 12.1065 31.858 12.1955 31.6799 12.1955C31.6799 12.1955 29.7591 11.9551 27.6335 10.4558C25.5049 8.95663 24.6024 7.29413 24.6024 7.29413C24.543 7.12491 24.5697 6.93788 24.6736 6.79241L26.253 4.55101C26.3183 4.45601 26.4222 4.39663 26.538 4.38772C26.5766 4.38475 26.6152 4.38475 26.6567 4.38179C26.8111 4.37882 26.9507 4.46788 27.0189 4.60741C27.0189 4.60741 28.1857 6.14819 29.8719 7.33569C31.5582 8.52319 33.4611 9.0546 33.4611 9.0546C33.6155 9.06944 33.7491 9.16741 33.7966 9.31585V9.31882C33.8352 9.4346 33.8174 9.56225 33.7461 9.66319L32.1282 11.961Z" fill="#94D1E0"/>
<path d="M35.4085 5.35739C35.7287 4.90304 34.7453 3.65885 33.212 2.57841C31.6787 1.49798 30.1762 0.990433 29.8561 1.44478C29.5359 1.89913 30.5193 3.14332 32.0526 4.22376C33.5858 5.3042 35.0883 5.81174 35.4085 5.35739Z" fill="#FF8383"/>
<path d="M26.7546 6.22862C27.7284 7.50519 29.1355 8.44628 30.6852 8.86487C30.7862 8.89159 30.9851 8.89753 31.0266 8.79956C31.0563 8.72534 31.0266 8.55315 30.8129 8.46112C30.041 8.12862 29.1504 7.55862 27.9718 6.49581C26.7932 5.433 26.4607 4.72347 26.2766 4.91347C26.1223 5.07378 26.5676 5.98518 26.7546 6.22862ZM28.2152 8.41065C28.524 8.58878 28.141 9.08753 27.0723 8.53831C26.3093 8.14644 25.6384 7.4755 25.4395 6.64128C25.4157 6.54331 25.4009 6.30284 25.4988 6.21675C25.8105 5.94362 25.9085 6.45128 26.5468 7.11628C27.0396 7.63284 27.5918 8.0544 28.2152 8.41065Z" fill="#B9E4EA"/>
</svg>
