<svg width="16" height="16" viewBox="0 0 16 16" fill="none" xmlns="http://www.w3.org/2000/svg">
<path d="M0.898438 7.63769C0.898437 8.52269 1.07275 9.39901 1.41142 10.2166C1.7501 11.0343 2.2465 11.7772 2.87228 12.403C3.49807 13.0288 4.24099 13.5252 5.05861 13.8638C5.87624 14.2025 6.75257 14.3768 7.63757 14.3768C8.52256 14.3768 9.39889 14.2025 10.2165 13.8638C11.0342 13.5252 11.7771 13.0288 12.4029 12.403C13.0286 11.7772 13.525 11.0343 13.8637 10.2166C14.2024 9.39901 14.3767 8.52269 14.3767 7.63769C14.3767 5.85036 13.6667 4.13624 12.4029 2.87241C11.139 1.60857 9.4249 0.89856 7.63757 0.89856C5.85024 0.89856 4.13612 1.60857 2.87228 2.87241C1.60845 4.13624 0.898438 5.85036 0.898438 7.63769Z" stroke="#EF9F27" stroke-width="1.7971" stroke-linecap="round" stroke-linejoin="round"/>
<path d="M7.63672 3.89368V7.63764L9.8831 9.88401" stroke="#EF9F27" stroke-width="1.7971" stroke-linecap="round" stroke-linejoin="round"/>
</svg>
