<svg width="17" height="17" viewBox="0 0 17 17" fill="none" xmlns="http://www.w3.org/2000/svg">
<path fill-rule="evenodd" clip-rule="evenodd" d="M8.21085 10.4213L13.7348 15.9452C14.0279 16.2384 14.4255 16.403 14.84 16.403C15.2546 16.403 15.6521 16.2384 15.9452 15.9452C16.2383 15.6521 16.403 15.2546 16.403 14.84C16.403 14.4255 16.2383 14.0279 15.9452 13.7348L10.4192 8.21087L15.9442 2.68691C16.0893 2.54177 16.2043 2.36948 16.2828 2.17988C16.3613 1.99027 16.4017 1.78706 16.4016 1.58185C16.4016 1.37665 16.3611 1.17346 16.2825 0.983889C16.2039 0.79432 16.0888 0.622084 15.9437 0.477015C15.7985 0.331945 15.6262 0.216883 15.4366 0.138398C15.247 0.0599135 15.0438 0.0195426 14.8386 0.019591C14.6334 0.0196394 14.4302 0.0601058 14.2406 0.13868C14.0511 0.217254 13.8788 0.332398 13.7338 0.477536L8.21085 6.00149L2.68689 0.477536C2.54283 0.328235 2.37047 0.20912 2.17988 0.127143C1.98928 0.0451649 1.78427 0.00196551 1.57681 6.55247e-05C1.36934 -0.00183446 1.16358 0.0376027 0.971514 0.116076C0.779452 0.194549 0.604943 0.310487 0.458167 0.457125C0.311391 0.603762 0.195288 0.778163 0.116634 0.970151C0.0379796 1.16214 -0.00165163 1.36787 5.27258e-05 1.57534C0.00175708 1.7828 0.0447627 1.98785 0.126561 2.17852C0.208359 2.36919 0.32731 2.54166 0.476476 2.68587L6.00252 8.21087L0.477518 13.7359C0.328353 13.8801 0.209401 14.0525 0.127603 14.2432C0.0458048 14.4339 0.00279867 14.6389 0.00109432 14.8464C-0.000610035 15.0539 0.0390211 15.2596 0.117676 15.4516C0.19633 15.6436 0.312432 15.818 0.459208 15.9646C0.605984 16.1112 0.780494 16.2272 0.972556 16.3057C1.16462 16.3841 1.37038 16.4236 1.57785 16.4217C1.78532 16.4198 1.99033 16.3766 2.18092 16.2946C2.37151 16.2126 2.54387 16.0935 2.68793 15.9442L8.21085 10.4213Z" fill="#3D2000"/>
</svg>
