<svg width="39" height="42" viewBox="0 0 39 42" fill="none" xmlns="http://www.w3.org/2000/svg">
<path d="M37.8386 28.2848C37.3773 27.1213 36.7682 26.0219 36.0261 25.014C35.0817 23.8895 34.4431 22.5405 34.172 21.0973C34.172 15.0765 34.172 13.0348 30.8803 9.0973C29.7891 7.81141 28.4407 6.76821 26.922 6.0348L25.4011 5.30563C25.3161 5.25378 25.2447 5.18235 25.1928 5.0973C25.1415 5.03748 25.1057 4.96592 25.0886 4.88897C24.8675 3.45911 24.1174 2.16448 22.9869 1.26158C21.8563 0.35868 20.4278 -0.0866003 18.9845 0.0139659C17.5877 -0.0423087 16.218 0.410325 15.1298 1.28778C14.0416 2.16524 13.3089 3.40786 13.0678 4.7848C13.0459 4.89321 12.9955 4.99386 12.922 5.07647C12.8714 5.14412 12.8076 5.20082 12.7345 5.24313L11.1095 6.0348C9.57452 6.76077 8.21652 7.81304 7.13031 9.11813C3.85948 13.0348 3.85948 15.0765 3.85948 21.0973C3.61694 22.453 3.02851 23.7232 2.15115 24.7848C1.38515 25.8185 0.768017 26.9546 0.317813 28.1598C0.0377072 28.9717 -0.0589939 29.8356 0.0346652 30.6893C0.128324 31.5431 0.410016 32.3654 0.85948 33.0973C1.33481 33.703 1.9526 34.1816 2.65779 34.4906C3.36298 34.7996 4.13367 34.9293 4.90115 34.8681H10.7761C10.8664 35.4292 11.0192 35.9709 11.2345 36.4931C11.647 37.5285 12.272 38.466 13.0678 39.2431C13.8386 40.0348 14.7678 40.6536 15.797 41.0556C16.7553 41.4473 17.7824 41.6535 18.8178 41.6598H19.1511C21.3301 41.6451 23.4166 40.7776 24.9636 39.2431C25.7424 38.4623 26.3585 37.5347 26.7761 36.514C26.9873 35.9806 27.147 35.432 27.2553 34.8681H33.3803C34.1012 34.8605 34.8119 34.697 35.4636 34.389C36.1953 34.0194 36.8249 33.4757 37.297 32.8056C37.7678 32.1342 38.055 31.3514 38.1303 30.5348C38.2232 29.7722 38.1229 28.9985 37.8386 28.2848ZM18.9428 28.639C18.5284 28.639 18.131 28.4743 17.838 28.1813C17.5449 27.8883 17.3803 27.4909 17.3803 27.0765C17.3803 26.6621 17.5449 26.2646 17.838 25.9716C18.131 25.6786 18.5284 25.514 18.9428 25.514C19.3572 25.514 19.7546 25.6786 20.0477 25.9716C20.3407 26.2646 20.5053 26.6621 20.5053 27.0765C20.5053 27.4909 20.3407 27.8883 20.0477 28.1813C19.7546 28.4743 19.3572 28.639 18.9428 28.639ZM23.4428 19.2223C23.1997 19.7871 22.8455 20.2972 22.4011 20.7223C21.9386 21.1327 21.4011 21.4515 20.8178 21.6598C20.7474 21.6982 20.6895 21.756 20.6511 21.8265C20.5851 21.9013 20.5481 21.9975 20.547 22.0973V22.8265C20.547 23.2409 20.3824 23.6383 20.0893 23.9313C19.7963 24.2243 19.3989 24.389 18.9845 24.389C18.5701 24.389 18.1727 24.2243 17.8796 23.9313C17.5866 23.6383 17.422 23.2409 17.422 22.8265V22.0348C17.4322 21.2895 17.6643 20.5642 18.0886 19.9515C18.5134 19.3706 19.1006 18.9284 19.7761 18.6806C19.9585 18.6133 20.1278 18.5146 20.2761 18.389C20.39 18.2625 20.488 18.1226 20.5678 17.9723C20.6119 17.8015 20.6119 17.6223 20.5678 17.4515C20.5653 17.2729 20.53 17.0964 20.4636 16.9306C20.3329 16.7384 20.171 16.5694 19.9845 16.4306C19.7727 16.2686 19.5205 16.1677 19.2553 16.139C18.859 16.0544 18.4455 16.1135 18.0886 16.3056C17.7379 16.4756 17.4577 16.7631 17.297 17.1181C17.2146 17.3092 17.0949 17.4819 16.945 17.6263C16.7951 17.7706 16.618 17.8836 16.4239 17.9587C16.2299 18.0338 16.0228 18.0695 15.8148 18.0638C15.6068 18.058 15.402 18.0108 15.2125 17.925C15.0229 17.8392 14.8523 17.7165 14.7107 17.5641C14.569 17.4116 14.4592 17.2325 14.3875 17.0371C14.3159 16.8418 14.2839 16.6341 14.2934 16.4262C14.3029 16.2184 14.3537 16.0145 14.4428 15.8265C14.9018 14.8439 15.6702 14.0389 16.6303 13.5348C17.5958 13.0277 18.7035 12.859 19.7761 13.0556C20.522 13.1702 21.2345 13.4473 21.8595 13.8681C22.4678 14.314 22.9657 14.889 23.3178 15.5556C23.6018 16.1253 23.7514 16.7525 23.7553 17.389C23.7845 18.0161 23.6782 18.6411 23.4428 19.2223Z" fill="#43BB65"/>
</svg>
