<svg width="42" height="46" viewBox="0 0 42 46" fill="none" xmlns="http://www.w3.org/2000/svg">
<path d="M31.1264 0.030529C31.4197 -0.00355348 31.4851 -0.037923 31.7267 0.0992588C31.9601 0.36148 34.0396 8.16011 34.2944 9.06614L38.0865 22.2733L40.356 30.3372C40.8779 32.1652 41.599 34.5808 42 36.4014C41.7854 37.066 41.4808 37.558 41.1382 38.1609C38.2241 38.7751 34.7267 39.7798 31.8282 40.536L13.5573 45.2266C12.5551 45.4808 11.5525 45.7499 10.5431 45.9707C9.67808 46.1596 9.61343 45.397 9.47569 44.7601L0 9.5026C0.330428 8.75968 0.561173 8.36389 1.06424 7.72328C1.36596 7.67557 1.66881 7.59938 1.96695 7.52646C4.46475 6.91546 6.94694 6.2292 9.43904 5.59335C10.1267 5.41789 10.7472 5.0677 11.4122 4.83977C12.0296 4.62817 12.7273 4.50399 13.3671 4.37234C13.3425 4.28912 13.3186 4.20563 13.2953 4.12205C13.0319 3.17776 12.8782 2.47466 13.3916 1.57375C13.7988 0.873071 14.4675 0.366523 15.2479 0.167638C15.9701 -0.0182537 16.8617 0.0442305 17.5001 0.453149C18.4138 1.03837 18.5854 1.92849 18.8181 2.90219C19.6654 2.73433 20.4967 2.44562 21.3444 2.26108C21.7159 2.1572 22.2118 2.28749 22.5677 2.19568C25.4185 1.46036 28.249 0.652249 31.1264 0.030529Z" fill="#572106"/>
<path d="M22.9266 2.7983C25.6398 1.96527 28.6226 1.42997 31.2687 0.610851C33.1208 7.74551 35.3497 14.9822 37.363 22.0851C38.6646 26.6771 39.9099 31.6305 41.2951 36.1742C37.5628 37.0646 33.8424 38.0068 30.1353 39.0009L20.8221 41.3696C17.8015 42.1634 14.2541 43.1873 11.2122 43.8484C10.988 43.0943 10.565 41.7942 10.4233 41.065C10.2461 41.1083 10.0427 41.1474 9.87611 41.2141L9.75392 40.8434C9.97608 40.6695 10.0836 40.6063 10.2419 40.3677C9.91741 39.4226 9.66162 38.2411 9.39563 37.252L7.69439 30.9686L4.16563 17.8797C3.3078 14.71 2.36913 11.4733 1.55189 8.29914C4.2224 7.72023 7.11591 6.84155 9.84305 6.20988C9.74153 7.14438 9.82061 7.71001 10.1378 8.58607C10.2018 8.71849 10.2782 8.86519 10.3319 9.00017C10.6396 9.4595 10.7388 9.61117 11.3063 9.48719C14.7148 8.74256 18.0691 7.75566 21.4701 6.96857C22.1056 6.82145 22.9156 6.62122 23.5157 6.39436C23.8205 6.07334 23.7749 5.82141 23.7837 5.37493L23.7489 4.92675C23.599 4.10238 23.4889 3.43948 22.9266 2.7983Z" fill="#FEFEFE"/>
<path d="M22.9266 2.7983C25.6398 1.96527 28.6226 1.42997 31.2687 0.610851C33.1208 7.74551 35.3497 14.9822 37.363 22.0851C38.6646 26.6771 39.9099 31.6305 41.2951 36.1742C37.5628 37.0646 33.8424 38.0068 30.1353 39.0009L20.8221 41.3696C17.8015 42.1634 14.2541 43.1873 11.2122 43.8484C10.988 43.0943 10.565 41.7942 10.4233 41.065C10.2461 41.1083 10.0427 41.1474 9.87611 41.2141L9.75392 40.8434C9.97608 40.6695 10.0836 40.6063 10.2419 40.3677C9.91741 39.4226 9.66162 38.2411 9.39563 37.252L7.69439 30.9686L4.16563 17.8797C3.3078 14.71 2.36913 11.4733 1.55189 8.29914C4.2224 7.72023 7.11591 6.84155 9.84305 6.20988C9.74153 7.14438 9.82061 7.71001 10.1378 8.58607C10.2018 8.71849 10.2782 8.86519 10.3319 9.00017C8.48349 9.30045 6.62389 10.0951 4.53974 10.3582C5.80721 14.4432 6.94116 18.8992 8.03776 23.0499L11.0407 34.0072C11.3805 35.2106 11.6744 36.461 12.0233 37.6674C12.2698 38.5195 12.4524 39.6484 12.836 40.4423C13.3537 40.2598 14.1576 40.0979 14.7192 39.9559L19.0862 38.8688L30.68 35.9122C33.3036 35.2745 35.9134 34.5801 38.5077 33.8294C37.2015 31.5403 36.5793 28.4735 35.8783 25.8965L34.0042 19.236L31.4 9.86941L30.4475 6.37384C30.2115 5.52447 29.9438 4.74505 29.7545 3.87637C28.5002 4.08442 25.5885 4.92377 24.2408 5.29328L23.7837 5.37493L23.7489 4.92675C23.599 4.10238 23.4889 3.43948 22.9266 2.7983Z" fill="#C28950"/>
<path d="M25.2861 4.57755C25.9606 4.33677 29.3577 3.37572 29.9748 3.50388C30.3631 3.97195 31.4874 8.45606 31.7162 9.32168C33.0046 14.0584 34.3304 18.7847 35.6935 23.5C36.3146 25.7089 36.91 27.9266 37.5413 30.1325C37.914 31.4349 38.3867 32.8621 39.163 33.9814C37.116 34.9394 33.8242 35.5273 31.5572 36.1663C30.2921 36.5228 27.1704 37.3585 26.0278 37.5815C24.4672 37.8861 13.008 41.0785 12.5064 40.9272C11.9297 39.5107 11.429 37.2549 11.0253 35.7637C10.1585 32.6799 9.31445 29.5895 8.4932 26.493L5.85224 16.582C5.33841 14.7225 4.42852 11.9231 4.08072 10.1169C6.00602 9.48364 8.20216 9.1213 10.1378 8.58607C10.2018 8.71849 10.2782 8.86519 10.3319 9.00017C8.48349 9.30045 6.62389 10.0951 4.53974 10.3582C5.80721 14.4432 6.94116 18.8992 8.03776 23.0499L11.0407 34.0072C11.3805 35.2106 11.6744 36.461 12.0233 37.6674C12.2698 38.5195 12.4524 39.6484 12.836 40.4423C13.3537 40.2598 14.1576 40.0979 14.7192 39.9559L19.0862 38.8688L30.68 35.9122C33.3036 35.2745 35.9134 34.5801 38.5077 33.8294C37.2015 31.5403 36.5793 28.4735 35.8783 25.8965L34.0042 19.236L31.4 9.86941L30.4475 6.37384C30.2115 5.52447 29.9438 4.74505 29.7545 3.87637C28.5002 4.08442 25.5885 4.92377 24.2408 5.29328C24.5269 4.98753 24.8381 4.7743 25.2492 4.69186L25.2861 4.57755Z" fill="#535152"/>
<path d="M23.7489 4.92675C24.0609 4.82578 24.9709 4.60772 25.2861 4.57755L25.2492 4.69186C24.8381 4.7743 24.5269 4.98753 24.2408 5.29328L23.7837 5.37493L23.7489 4.92675Z" fill="#474144"/>
<path d="M10.2419 40.3677L10.4233 41.065C10.2461 41.1083 10.0427 41.1474 9.87611 41.2141L9.75392 40.8434C9.97608 40.6695 10.0836 40.6063 10.2419 40.3677Z" fill="#915025"/>
<path d="M14.1725 4.71303C14.0761 4.48304 13.9821 4.25199 13.8904 4.01995C13.2047 2.27166 14.0237 0.859439 15.9107 0.624768C16.2841 0.57833 16.6391 0.692934 16.976 0.852128L17.2977 1.04093C18.2132 1.61344 18.2672 2.62718 18.2774 3.59882C19.0551 3.50516 20.0376 3.1272 20.505 3.08815C21.3806 2.84573 22.1651 2.56768 22.7135 3.5347C22.9862 4.02335 23.4722 5.31778 23.2105 5.84328C22.3695 6.21869 21.1975 6.45862 20.2775 6.68342L16.674 7.57893C14.9447 8.00518 13.2204 8.50037 11.4861 8.91269C10.9314 9.04455 10.8363 8.84822 10.6246 8.35332L10.5605 8.26953C10.5019 7.54308 10.0542 5.93957 11.1261 5.55735C12.0672 5.22178 13.1919 4.96936 14.1725 4.71303Z" fill="#B4B3B3"/>
<path d="M15.3917 4.19298C13.7533 3.20644 14.5883 1.304 16.5566 1.62615C18.3817 2.72538 17.2034 4.73653 15.3917 4.19298Z" fill="#572106"/>
<path d="M15.7718 2.01519C16.2484 1.90726 16.7237 2.20172 16.8441 2.67965C16.9644 3.15752 16.6861 3.64532 16.2163 3.78023C15.9003 3.87098 15.5604 3.78123 15.3289 3.54592C15.0974 3.31068 15.0109 2.96701 15.1029 2.6487C15.195 2.33038 15.4512 2.08776 15.7718 2.01519Z" fill="black"/>
<path d="M10.5605 8.26953C12.4191 7.59725 14.2852 7.30791 16.1758 6.75627C16.8973 6.54567 17.6321 6.38335 18.359 6.19298L22.0396 5.23562C22.3717 5.15006 22.8467 4.96729 23.153 4.96772C23.0234 5.25621 13.4011 7.6537 12.2476 7.95476C11.9264 8.03862 10.9699 8.30887 10.6246 8.35332L10.5605 8.26953Z" fill="#535152"/>
<path d="M20.3121 3.52511C20.7829 3.48918 21.7077 3.1191 22.0353 3.28703C22.1019 3.43252 22.0984 3.40476 22.1306 3.55912C21.3914 3.63396 19.0332 4.35736 18.5797 4.31596C18.4546 4.1567 18.481 4.24574 18.5043 4.03869C18.6692 3.88844 19.9486 3.62125 20.3121 3.52511Z" fill="#FEFEFE"/>
<path d="M20.505 3.08815C21.3806 2.84573 22.1651 2.56768 22.7135 3.5347C22.5615 3.80132 22.6467 3.74317 22.4059 3.81901C22.2678 3.75489 22.1931 3.71924 22.1306 3.55912C22.0984 3.40476 22.1019 3.43252 22.0353 3.28703C21.7077 3.1191 20.7829 3.48918 20.3121 3.52511C20.5343 3.32629 20.8846 3.25416 21.1812 3.162C21.0251 3.08659 20.7394 3.11733 20.505 3.08815Z" fill="#E1E1E3"/>
<path d="M16.5566 1.62615L16.4681 1.50267C16.2236 1.43202 16.1269 1.425 15.9358 1.26744L15.9292 1.12202C16.2397 0.719132 16.4773 0.841974 16.976 0.852128L17.2977 1.04093C17.2307 1.3077 17.2361 1.33809 17.0566 1.53129C16.8304 1.63716 16.8128 1.62942 16.5566 1.62615Z" fill="#E1E1E3"/>
<path d="M1.07444 8.81968C2.87487 15.3106 4.62803 21.8147 6.3337 28.3317C7.42516 32.3944 8.75138 36.7791 9.75392 40.8434L9.87611 41.2141C10.0612 42.1883 10.4763 43.2264 10.6861 44.2723C10.4698 44.5691 10.3549 44.6742 10.0922 44.9262C9.76841 43.3833 9.3817 42.047 8.98979 40.5388L0.623289 9.39595C0.76469 9.20267 0.924944 9.00812 1.07444 8.81968Z" fill="#C28950"/>
<path d="M41.0601 36.7401L41.1206 36.8068C41.0904 37.0944 40.9574 37.2818 40.816 37.5382C39.1845 37.9024 37.4001 38.4371 35.7618 38.8574L15.6973 43.9847C14.0189 44.4157 12.4538 44.7672 10.7892 45.2706L10.7275 45.1684C10.8035 44.8744 10.9571 44.7374 11.1537 44.5023C13.0445 44.0678 15.0334 43.4926 16.9272 43.0098L36.8964 37.8634C38.2453 37.5233 39.7756 37.213 41.0601 36.7401Z" fill="#C28950"/>
<path d="M21.2136 13.7892C25.6074 13.4151 29.4733 16.6987 29.8592 21.1326C30.245 25.5663 27.0055 29.48 22.6143 29.8849C18.2015 30.2918 14.3011 27.0021 13.9133 22.5464C13.5256 18.0908 16.7981 14.1651 21.2136 13.7892Z" fill="#592305"/>
<path d="M15.6903 25.9707C13.7381 22.9909 14.1409 19.0345 16.6527 16.5179C19.1644 14.0012 23.0868 13.6238 26.0243 15.6163C27.3324 16.5035 28.3269 17.788 28.8638 19.2836C29.9632 22.3463 28.9768 25.7751 26.4232 27.767C23.8696 29.7588 20.3337 29.8575 17.675 28.0112C16.8898 27.4659 16.2159 26.7731 15.6903 25.9707Z" fill="#A1D066"/>
<path d="M15.6903 25.9707C13.7381 22.9909 14.1409 19.0345 16.6527 16.5179C19.1644 14.0012 23.0868 13.6238 26.0243 15.6163L25.9169 15.7457C25.5389 15.5747 25.1211 15.3768 24.7363 15.259C23.3298 14.8283 21.3635 14.9107 19.9815 15.4586C18.1656 16.1785 16.5442 17.744 15.8011 19.5707C15.1932 21.0652 14.9786 22.4246 15.2183 24.0228C15.2716 24.3985 15.6441 25.4533 15.7985 25.8593C15.8026 25.8699 15.7234 25.9479 15.6903 25.9707Z" fill="#D5ECAA"/>
<path d="M28.8638 19.2836C29.9632 22.3463 28.9768 25.7751 26.4232 27.767C23.8696 29.7588 20.3337 29.8575 17.675 28.0112C17.9569 27.9629 18.6597 28.2912 18.9809 28.3669C23.9971 29.5493 28.7016 25.9515 28.9561 20.7742C28.9812 20.2631 28.8907 19.7957 28.8638 19.2836Z" fill="#89B75E"/>
<path d="M21.4624 17.7037C23.7611 17.4549 25.8237 19.1361 26.0669 21.4568C26.3101 23.7775 24.6418 25.8571 22.3423 26.0993C20.0474 26.3412 17.9922 24.6611 17.7494 22.345C17.5066 20.0289 19.1682 17.9519 21.4624 17.7037Z" fill="#592305"/>
<path d="M21.6674 18.2681C23.6565 18.1334 25.3765 19.6535 25.507 21.6614C25.6374 23.6695 24.1288 25.4033 22.1393 25.5319C20.1541 25.6602 18.441 24.1414 18.3109 22.1378C18.1807 20.1341 19.6826 18.4026 21.6674 18.2681Z" fill="#F9F9F8"/>
</svg>
