<svg width="38" height="40" viewBox="0 0 38 40" fill="none" xmlns="http://www.w3.org/2000/svg">
<path d="M25.7007 0.00012207C26.9011 0.322425 27.41 0.463356 27.8715 1.68335L27.8889 1.72557C28.319 2.12042 28.5301 2.44724 28.6802 3.03405C29.0114 3.70411 29.1441 4.09289 29.3814 4.80898C30.4418 4.80672 30.9239 4.83443 32.0015 4.99605C32.9545 5.04886 34.2692 5.09156 35.1157 5.57061C37.4674 6.85625 37.3864 9.94097 37.4382 12.286C37.4365 12.8751 37.437 13.4481 37.4078 14.0375L37.8158 26.6304C37.8752 28.4492 38.0252 30.2035 37.9892 32.0293C38.1903 37.2563 35.5628 38.4141 30.9392 38.707C26.6969 38.9759 22.4459 39.2489 18.1965 39.4769C14.4086 39.6801 10.5579 40.2076 6.76322 39.9123C4.40889 39.72 2.63071 37.9271 2.15992 35.637C1.51004 32.4756 1.45948 29.1496 1.20433 25.933C0.925784 22.4222 0.602083 18.9138 0.360101 15.403C0.270504 12.9536 -0.930351 8.04235 1.62045 6.51397L1.61046 6.90085C1.8983 6.7554 2.38838 6.36198 2.6654 6.15361C2.68633 6.32285 2.71102 6.46033 2.70808 6.63124L2.85776 7.14193C2.97158 6.58093 3.06823 6.5682 3.53009 6.30132C3.82733 6.19131 4.40301 6.0744 4.73106 5.99721C4.35222 5.77743 4.03533 5.7678 3.60793 5.71035C5.38082 5.14115 7.02248 5.23582 8.60606 4.82646C8.02874 3.19104 8.25497 1.69156 9.69251 0.671726C10.6821 0.160204 11.5369 -0.013792 12.5364 0.527225C13.7997 1.56276 14.2508 2.50647 14.7864 4.02284L14.8405 4.48049C17.5559 4.27985 20.4059 4.18875 23.145 4.02986C22.9324 3.17261 23.0174 2.23341 23.4437 1.45322C23.6294 1.06313 23.9237 0.821695 24.2328 0.514972C24.7853 0.287338 25.1234 0.14272 25.7007 0.00012207Z" fill="#FDF5E6"/>
<path d="M25.7007 0.00012207C26.9011 0.322425 27.41 0.463356 27.8715 1.68335L27.8889 1.72557C28.319 2.12042 28.5301 2.44724 28.6802 3.03405C29.0114 3.70411 29.1441 4.09289 29.3814 4.80898C30.4418 4.80672 30.9239 4.83443 32.0015 4.99605C32.9545 5.04886 34.2692 5.09156 35.1157 5.57061C37.4674 6.85625 37.3864 9.94097 37.4383 12.2861C37.4365 12.8751 37.437 13.4481 37.4078 14.0375C36.2061 14.4212 33.8681 14.481 32.5639 14.5851C29.042 14.8661 25.4993 14.9062 21.9755 15.1073L10.6573 15.7343C8.2525 15.8848 5.29145 16.1716 2.93407 16.1519C1.60693 15.6078 1.7786 16.3322 0.360101 15.403C0.270504 12.9536 -0.930351 8.04235 1.62045 6.51397L1.61046 6.90085C1.8983 6.7554 2.38838 6.36198 2.6654 6.15361C2.68633 6.32285 2.71102 6.46033 2.70808 6.63124L2.85776 7.14193C2.97158 6.58093 3.06823 6.5682 3.53009 6.30132C3.82733 6.19131 4.40301 6.0744 4.73106 5.99722C4.35222 5.77743 4.03534 5.7678 3.60793 5.71036C5.38082 5.14115 7.02248 5.23582 8.60607 4.82646C8.02874 3.19104 8.25497 1.69156 9.69252 0.671726C10.6821 0.160204 11.5369 -0.013792 12.5365 0.527225C13.7997 1.56276 14.2508 2.50647 14.7864 4.02284L14.8405 4.48049C17.5559 4.27985 20.4059 4.18875 23.145 4.02986C22.9324 3.17261 23.0174 2.23341 23.4437 1.45322C23.6294 1.06313 23.9237 0.821695 24.2328 0.514972C24.7853 0.287338 25.1234 0.14272 25.7007 0.00012207Z" fill="#FED63A"/>
<path d="M0.360101 15.4029C0.270504 12.9536 -0.930351 8.04231 1.62045 6.51393L1.61046 6.90081C1.8983 6.75535 2.38838 6.36193 2.6654 6.15356C2.68633 6.3228 2.71102 6.46029 2.70808 6.63119L2.85776 7.14188C2.87234 7.77911 2.69068 8.49532 2.73371 9.09675C2.8206 10.3104 3.0687 11.5483 3.2312 12.758C3.15277 13.1958 3.15936 13.5499 3.40792 13.9102C3.83404 14.0996 4.55316 14.0684 5.02854 14.043C14.9578 13.5123 24.8595 12.8367 34.8055 12.6535C35.616 12.6385 36.6356 12.4341 37.4383 12.286C37.4365 12.8751 37.437 13.4481 37.4078 14.0375C36.2061 14.4212 33.8681 14.481 32.5639 14.5851C29.042 14.8661 25.4993 14.9062 21.9755 15.1073L10.6573 15.7343C8.2525 15.8847 5.29145 16.1716 2.93407 16.1519C1.60693 15.6077 1.7786 16.3322 0.360101 15.4029Z" fill="#FDB706"/>
<path d="M0.360101 15.4029C0.270504 12.9536 -0.930351 8.04231 1.62045 6.51393C1.90829 6.36847 2.38838 6.36193 2.6654 6.15356C2.68633 6.3228 2.71102 6.46029 2.70808 6.63119C2.30278 10.0967 3.08481 12.7471 2.93407 16.1519C1.60693 15.6077 1.7786 16.3322 0.360101 15.4029Z" fill="#FBBB0D"/>
<path d="M9.69333 0.671754C10.6829 0.160231 11.5377 -0.0137641 12.5373 0.527253C13.8006 1.56278 14.2516 2.5065 14.7872 4.02287L14.8413 4.48052C14.8292 4.7267 14.7834 4.68686 14.8792 4.83184L14.9723 5.73405C14.9384 6.93442 15.1031 9.36192 13.685 9.69861C10.79 10.733 10.7066 7.59889 9.49874 6.15162L9.12777 5.65793C8.96151 5.25381 8.92952 5.13 8.60688 4.82649C8.02956 3.19107 8.25578 1.69159 9.69333 0.671754Z" fill="#FDB706"/>
<path d="M8.60688 4.82624C8.02956 3.19082 8.25578 1.69134 9.69333 0.671509C9.5219 1.43849 9.51437 2.06395 10.0311 2.70773C10.9912 3.90382 11.1723 5.98855 11.3505 7.51539C11.6848 10.3778 12.6008 8.91283 13.685 9.69837C10.79 10.7327 10.7066 7.59864 9.49874 6.15137L9.12777 5.65769C8.96151 5.25356 8.92952 5.12975 8.60688 4.82624Z" fill="#EF9600"/>
<path d="M10.7812 1.33047C11.9511 0.850583 12.1945 1.10593 13.0243 1.99553C12.8026 2.70769 12.7488 2.97671 13.0436 3.71242C12.9554 4.17506 12.9396 4.54922 12.6399 4.89079C12.2251 5.10724 11.8995 4.98795 11.3886 4.97273C11.2861 4.27568 10.4775 1.57261 10.5363 1.37114L10.7812 1.33047Z" fill="#FEF4A2"/>
<path d="M13.0436 3.71213C12.7489 2.97642 12.8027 2.7074 13.0243 1.99524C13.6895 2.88924 13.8135 3.39351 14.3429 4.22056L14.3757 4.42488C14.2112 5.0325 13.5727 5.24479 13.2588 5.93828C13.0653 6.3656 13.0189 6.60191 12.8963 7.04291L11.6537 7.32359L11.6811 6.99284C11.5697 6.32148 11.4723 5.64785 11.3887 4.97244C11.8996 4.98766 12.2251 5.10695 12.64 4.8905C12.9397 4.54893 12.9554 4.17477 13.0436 3.71213Z" fill="#FEDE52"/>
<path d="M14.3773 4.42493C14.5708 5.19584 14.5124 7.50774 14.211 8.2457C13.8133 8.49653 13.5086 8.15412 13.3737 8.2187C12.5612 8.60785 12.9369 8.9581 11.7645 8.96916C11.7165 8.47655 11.6288 7.7984 11.6553 7.32363L12.8979 7.04295C13.0205 6.60196 13.0668 6.36564 13.2604 5.93832C13.5743 5.24484 14.2128 5.03255 14.3773 4.42493Z" fill="#FED63A"/>
<path d="M12.5358 0.526978C13.7991 1.56251 14.2501 2.50623 14.7857 4.0226L14.5137 4.03235L14.3429 4.2205C13.8135 3.39345 13.6895 2.88918 13.0243 1.99518C12.1946 1.10557 11.9512 0.850231 10.7812 1.33012C11.3882 0.623548 11.5788 0.876516 12.5358 0.526978Z" fill="#EF9F27"/>
<path d="M25.7009 0C26.9013 0.322303 27.4102 0.463234 27.8717 1.68323L27.8891 1.72545C28.3192 2.1203 28.5303 2.44712 28.6804 3.03393C29.0117 3.70398 29.1443 4.09277 29.3816 4.80885C30.442 4.80659 30.9241 4.8343 32.0017 4.99593L31.8737 5.01389C30.8904 5.14567 29.8542 4.79387 29.3682 5.36093L29.3449 5.96712C29.507 8.38356 28.7719 10.2623 26.1561 8.79031C25.6685 8.13155 24.863 6.44618 24.7662 5.61735C24.5192 5.01235 24.3948 4.87688 23.8712 4.55934L23.1452 4.02974C22.9326 3.17248 23.0176 2.23328 23.444 1.4531C23.6296 1.063 23.9239 0.821573 24.233 0.51485C24.7856 0.287216 25.1236 0.142598 25.7009 0Z" fill="#FBBB0D"/>
<path d="M25.7003 0.00012207C26.9007 0.322425 27.4096 0.463356 27.8711 1.68335L27.8885 1.72557C28.3186 2.12042 28.5297 2.44724 28.6798 3.03405C28.7164 3.25609 28.8337 3.87406 28.839 4.06578C28.9852 4.66222 28.9769 4.81338 28.9708 5.43004C27.8456 5.7213 28.3261 6.79596 27.2674 7.23041C26.5602 7.23029 26.4247 6.90275 26.093 6.35282C26.0121 5.47047 26.0201 4.54923 26.0099 3.66094L25.9064 3.40214C25.583 3.00158 25.0621 1.42813 24.6027 0.998666C24.4285 0.835731 24.3956 0.776977 24.2685 0.573962L24.2324 0.514972C24.7849 0.287338 25.123 0.14272 25.7003 0.00012207Z" fill="#FEDE52"/>
<path d="M25.7003 0.00012207C26.9007 0.322425 27.4096 0.463356 27.8711 1.68335L27.1082 1.06907C27.3119 1.79776 27.0514 3.57899 26.3622 4.01226L26.2368 3.95303L26.0099 3.66094L25.9064 3.40214C25.583 3.00158 25.0621 1.42813 24.6027 0.998666C24.4285 0.835731 24.3956 0.776977 24.2685 0.573962L24.2324 0.514972C24.7849 0.287338 25.123 0.14272 25.7003 0.00012207Z" fill="#FEF4A2"/>
<path d="M25.7003 0.00012207C26.9007 0.322425 27.4096 0.463356 27.8711 1.68335L27.1082 1.06907C26.5067 0.827288 26.2324 0.967385 25.6134 1.14447L25.4697 1.27696C25.6141 1.83868 25.7523 2.40217 25.8842 2.96709L25.9064 3.40214C25.583 3.00158 25.0621 1.42813 24.6027 0.998666C24.4285 0.835731 24.3956 0.776977 24.2685 0.573962L24.2324 0.514972C24.7849 0.287338 25.123 0.14272 25.7003 0.00012207Z" fill="#FED63A"/>
<path d="M27.109 1.06897L27.8719 1.68325L27.8893 1.72547C28.4549 3.83257 28.1548 3.13016 28.0624 5.08063C27.6565 5.453 26.1863 5.1527 26.2376 3.95293L26.363 4.01215C27.0522 3.57889 27.3127 1.79766 27.109 1.06897Z" fill="#FEEC8B"/>
<path d="M23.444 1.45325C24.0281 2.29682 25.4887 4.63846 24.7662 5.6175C24.5192 5.0125 24.3948 4.87703 23.8712 4.55949L23.1452 4.02989C22.9326 3.17263 23.0176 2.23343 23.444 1.45325Z" fill="#EF9600"/>
<path d="M26.0938 6.35259C26.4254 6.90253 26.5609 7.23007 27.2681 7.23019C28.3268 6.79573 27.8463 5.72107 28.9715 5.42981C29.0021 6.12044 29.1285 6.84069 28.7099 7.38135C27.5629 7.43748 26.9663 8.34623 26.195 7.15609C26.153 6.99434 26.1149 6.54181 26.0938 6.35259Z" fill="#FED63A"/>
<path d="M26.1953 7.15637C26.9666 8.34651 27.5633 7.43776 28.7103 7.38163C28.6155 7.62116 28.5221 7.83333 28.3739 8.04609C28.1452 8.37565 27.7894 8.59199 27.3943 8.6417C26.4385 8.75421 26.252 7.87709 26.1953 7.15637Z" fill="#EF9F27"/>
<path d="M23.1444 4.02991L23.8705 4.55951L23.7829 4.61552L23.9581 5.26655L23.8745 5.40641C22.3721 5.30497 16.513 5.49252 14.9709 5.73407L14.8779 4.83186C14.782 4.68688 14.8278 4.72672 14.8399 4.48054C17.5553 4.2799 20.4054 4.1888 23.1444 4.02991Z" fill="#FEF4A2"/>
<path d="M23.1444 4.02991L23.8705 4.55951L23.7829 4.61552C20.8138 4.65667 17.8454 4.72875 14.8779 4.83186C14.782 4.68688 14.8278 4.72672 14.8399 4.48054C17.5553 4.2799 20.4054 4.1888 23.1444 4.02991Z" fill="#EF9F27"/>
<path d="M8.60527 4.82629C8.92792 5.12981 8.9599 5.25361 9.12616 5.65774L9.49713 6.15142C9.14885 6.26928 5.42047 6.60217 4.5091 6.76653C3.88227 6.72122 3.83571 6.81649 3.5293 6.30116C3.82654 6.19115 4.40222 6.07424 4.73027 5.99705C4.35142 5.77727 4.03454 5.76763 3.60714 5.71019C5.38002 5.14099 7.02169 5.23565 8.60527 4.82629Z" fill="#FEF4A2"/>
<path d="M8.60556 4.82629C8.9282 5.12981 8.96019 5.25361 9.12645 5.65774C7.4361 5.59471 5.97715 5.99646 4.73056 5.99705C4.35171 5.77727 4.03483 5.76763 3.60742 5.71019C5.38031 5.14099 7.02198 5.23565 8.60556 4.82629Z" fill="#EF9F27"/>
<path d="M32.0006 4.99622C32.9536 5.04902 34.2683 5.09172 35.1147 5.57077L35.3485 6.11286L35.2655 6.2859C32.9861 5.86572 31.7124 5.71075 29.4199 5.95861L29.3438 5.96741L29.367 5.36121C29.8531 4.79415 30.8892 5.14595 31.8726 5.01417L32.0006 4.99622Z" fill="#FEEC8B"/>
<path d="M2.85722 7.14151C2.97104 6.58051 3.06769 6.56778 3.52955 6.3009C3.83597 6.81623 3.88253 6.72097 4.50935 6.76628C3.77224 6.97607 4.02586 6.81207 3.60092 7.362C2.84499 8.34033 3.59293 12.3343 3.43125 12.698L3.23066 12.7577C3.06816 11.5479 2.82007 10.3101 2.73317 9.09638C2.69014 8.49494 2.8718 7.77874 2.85722 7.14151Z" fill="#FEEC8B"/>
<path d="M0.359375 15.403C1.77787 16.3322 1.60621 15.6078 2.93334 16.1519L3.8961 27.6676C4.12197 30.3282 3.90927 34.6676 6.0476 36.4939C6.93557 37.2524 8.04295 37.9223 9.20289 38.1146C13.7271 38.3456 18.3013 37.6617 22.8187 37.3702C25.9045 37.1711 28.9933 37.0816 32.0751 36.8355C35.5943 36.5545 37.2261 35.6291 37.9885 32.0293C38.1896 37.2563 35.5621 38.4141 30.9385 38.707C26.6961 38.9759 22.4452 39.2488 18.1957 39.4768C14.4079 39.6801 10.5572 40.2076 6.76249 39.9122C4.40816 39.7199 2.62998 37.927 2.15919 35.6369C1.50932 32.4756 1.45876 29.1496 1.20361 25.933C0.925059 22.4221 0.601357 18.9138 0.359375 15.403Z" fill="#D2BCA7"/>
<path d="M26.5325 19.0748C27.4402 19.5353 28.0996 20.4921 28.6209 21.332C28.5223 21.6672 28.4156 21.9974 28.2302 22.295C27.4085 23.6139 20.6852 31.4409 19.6062 31.6025C18.1828 31.8158 15.9821 29.2447 14.9689 28.3607C14.077 27.5082 13.3354 26.7905 12.5137 25.8734C12.5779 25.764 12.6457 25.6567 12.7171 25.5518C15.5662 21.4081 16.4941 24.4678 19.1998 26.6714C21.2214 24.7836 24.4309 20.3104 26.5325 19.0748Z" fill="#EF9F27"/>
<path d="M2.66602 6.15334C2.95127 5.8597 3.21747 5.74981 3.60855 5.71008C4.03595 5.76753 4.35284 5.77716 4.73168 5.99694C4.40363 6.07413 3.82795 6.19104 3.53071 6.30105C3.06885 6.56793 2.9722 6.58066 2.85838 7.14165L2.7087 6.63096C2.71164 6.46006 2.68695 6.32258 2.66602 6.15334Z" fill="#FBBB0D"/>
</svg>
