<svg width="21" height="22" viewBox="0 0 21 22" fill="none" xmlns="http://www.w3.org/2000/svg">
<path d="M1.13235 6.07769C2.48011 3.3993 4.64207 1.45572 7.44764 0.522175C10.0373 -0.339514 13.0762 -0.137965 15.5037 1.1508C16.1465 1.48413 16.7525 1.88776 17.3111 2.35468C17.4368 2.46018 17.5612 2.5691 17.6836 2.67866C17.7472 2.73565 17.8074 2.80552 17.8707 2.86106C17.8034 2.95933 17.5653 3.18887 17.4708 3.2854L15.6828 5.12071C15.4281 5.38589 15.1331 5.70437 14.8694 5.95355C14.616 5.7366 14.412 5.54284 14.1371 5.34751C11.5357 3.49907 7.85557 4.15546 5.8719 6.64077C5.3062 7.34953 4.95235 7.99239 4.6539 8.85693C4.36158 8.63669 4.05771 8.38445 3.76972 8.15489L1.87774 6.64859C1.73729 6.53819 1.2603 6.12986 1.13235 6.07769Z" fill="#EB4236"/>
<path d="M4.65027 13.1511C5.95091 16.8373 9.59447 18.6248 13.1895 17.2819C13.4852 17.1723 13.7711 17.0366 14.0441 16.8762C14.1497 16.813 14.3082 16.6953 14.4065 16.6427C14.6502 16.8014 15.081 17.1704 15.3228 17.3638L17.0532 18.7437C17.2171 18.8748 17.6602 19.2465 17.8108 19.3417C17.2645 19.8891 16.5047 20.4172 15.8313 20.7803C13.3442 22.1207 10.1529 22.3562 7.4792 21.4875C5.25123 20.7596 3.31512 19.3055 1.96446 17.3457C1.63187 16.8615 1.4 16.4451 1.13808 15.9272C1.23824 15.8899 1.92974 15.3157 2.04896 15.2204L3.65619 13.9402C3.98088 13.681 4.32122 13.3984 4.65027 13.1511Z" fill="#33A953"/>
<path d="M10.7236 8.94698L20.8026 8.945C21.3103 12.0098 20.872 15.2748 19.0975 17.8544C18.9023 18.1382 18.0769 19.1867 17.8108 19.3417C17.6602 19.2465 17.2171 18.8748 17.0532 18.7437L15.3228 17.3638C15.081 17.1704 14.6502 16.8014 14.4065 16.6427C15.3842 15.9407 16.0511 15.0394 16.4128 13.8628C16.4854 13.6266 16.5108 13.4673 16.5633 13.2324C15.8425 13.2106 15.0315 13.2286 14.3037 13.2286L10.7195 13.2308L10.7214 10.7543C10.7212 10.1668 10.7084 9.53013 10.7236 8.94698Z" fill="#4185F5"/>
<path d="M1.13235 6.07769C1.2603 6.12986 1.73729 6.53819 1.87774 6.64859L3.76972 8.15489C4.05771 8.38445 4.36158 8.63669 4.6539 8.85693C4.29906 9.92913 4.21655 11.1127 4.41462 12.2218C4.4723 12.5449 4.55421 12.8389 4.65027 13.1511C4.32122 13.3984 3.98088 13.681 3.65619 13.9402L2.04896 15.2204C1.92974 15.3157 1.23824 15.8899 1.13808 15.9272C1.01585 15.7011 0.859676 15.3344 0.768123 15.0937C-0.170538 12.6774 -0.251481 9.99893 0.539484 7.52748C0.644829 7.20145 0.792846 6.83922 0.924266 6.52353C0.984696 6.37837 1.06751 6.2303 1.13235 6.07769Z" fill="#FCBC04"/>
</svg>
