<svg width="18" height="18" viewBox="0 0 18 18" fill="none" xmlns="http://www.w3.org/2000/svg">
<path d="M14.7476 17.0636H2.25352C1.83414 17.0636 1.49414 16.7236 1.49414 16.3042V0.759375C1.49414 0.339996 1.83414 0 2.25352 0H14.7476C15.167 0 15.507 0.339996 15.507 0.759375V16.3042C15.507 16.7236 15.167 17.0636 14.7476 17.0636Z" fill="#DCE2E2"/>
<g clip-path="url(#clip0_62_2954)">
<path d="M11.7444 5.21802H2.7478C2.48568 5.21802 2.27319 5.00553 2.27319 4.74341C2.27319 4.48128 2.48568 4.2688 2.7478 4.2688H11.7444C12.0066 4.2688 12.219 4.48128 12.219 4.74341C12.219 5.00553 12.0066 5.21802 11.7444 5.21802ZM12.219 6.89743C12.219 6.63531 12.0066 6.42282 11.7444 6.42282H2.7478C2.48568 6.42282 2.27319 6.63531 2.27319 6.89743C2.27319 7.15956 2.48568 7.37204 2.7478 7.37204H11.7444C12.0066 7.37204 12.219 7.15956 12.219 6.89743ZM6.14365 9.05149C6.14365 8.78936 5.93117 8.57688 5.66904 8.57688H2.7478C2.48568 8.57688 2.27319 8.78936 2.27319 9.05149C2.27319 9.31361 2.48568 9.5261 2.7478 9.5261H5.66904C5.93117 9.5261 6.14365 9.31361 6.14365 9.05149ZM12.219 11.2055C12.219 10.9434 12.0066 10.7309 11.7444 10.7309H2.7478C2.48568 10.7309 2.27319 10.9434 2.27319 11.2055C2.27319 11.4676 2.48568 11.6801 2.7478 11.6801H11.7444C12.0066 11.6801 12.219 11.4676 12.219 11.2055ZM6.14365 15.3785C6.14365 15.1164 5.93117 14.9039 5.66904 14.9039H2.7478C2.48568 14.9039 2.27319 15.1164 2.27319 15.3785C2.27319 15.6407 2.48568 15.8531 2.7478 15.8531H5.66904C5.93117 15.8531 6.14365 15.6407 6.14365 15.3785Z" fill="#96A9B2"/>
<path d="M16.5742 4.94012C15.8852 4.25109 15.0992 3.92006 14.8185 4.20071L12.9208 6.09841L15.416 8.59356L17.3137 6.69586C17.5943 6.4152 17.2633 5.62915 16.5742 4.94012Z" fill="#FF6E83"/>
<path d="M15.3713 6.14311C14.5852 5.35698 13.6884 4.9793 13.3682 5.2995L11.4249 7.2428L14.2717 10.0896L16.215 8.14628C16.5351 7.82608 16.1574 6.92921 15.3713 6.14311Z" fill="#BFBCAF"/>
<path d="M7.87747 14.9277L6.16585 15.6722C6.13623 15.6851 6.10437 15.692 6.07207 15.6926C6.03978 15.6931 6.00769 15.6873 5.97763 15.6755C5.94758 15.6637 5.92015 15.646 5.89691 15.6236C5.87368 15.6012 5.85509 15.5744 5.8422 15.5448C5.82881 15.5138 5.8219 15.4804 5.8219 15.4467C5.8219 15.4129 5.82881 15.3795 5.8422 15.3485L6.58667 13.6369C6.80274 13.1401 7.38068 12.9126 7.87747 13.1286C8.37426 13.3447 8.60183 13.9226 8.38576 14.4194C8.28296 14.6558 8.09632 14.832 7.87747 14.9277Z" fill="#2B2622"/>
<path d="M15.0922 9.2631C15.094 9.26052 15.0958 9.25792 15.0975 9.25529C15.3444 8.90151 14.9667 8.04982 14.2157 7.29881C13.4646 6.5478 12.613 6.17005 12.2592 6.41692C12.2566 6.41865 12.2539 6.42044 12.2514 6.4223C12.2482 6.42465 12.2449 6.42687 12.2418 6.42933C12.2331 6.43604 12.2246 6.44314 12.2166 6.45112L7.70039 10.9673C7.70039 10.9673 6.42278 14.1289 6.90417 14.6103C7.38553 15.0917 10.5472 13.8141 10.5472 13.8141L15.0633 9.2979C15.0713 9.28992 15.0785 9.28141 15.0851 9.27266C15.0876 9.2696 15.0898 9.2663 15.0922 9.2631Z" fill="#FFD469"/>
<path d="M7.70031 10.9673L7.60001 11.5923C7.58524 11.6843 7.66487 11.7636 7.75674 11.7486L8.20466 11.6755C8.29312 11.661 8.37127 11.7344 8.36248 11.8236L8.31259 12.3292C8.31055 12.3499 8.31327 12.3708 8.32056 12.3903C8.32785 12.4098 8.3395 12.4274 8.35462 12.4417C8.36975 12.456 8.38795 12.4667 8.40783 12.4729C8.42771 12.4791 8.44874 12.4806 8.46932 12.4774L8.92203 12.4072C9.01459 12.3929 9.09376 12.4739 9.07728 12.5661L8.99983 12.9992C8.98387 13.0884 9.05769 13.1681 9.14787 13.159L9.65739 13.1076C9.67754 13.1056 9.69789 13.108 9.71696 13.1148C9.73604 13.1216 9.75336 13.1326 9.76767 13.1469C9.78198 13.1613 9.79292 13.1786 9.79969 13.1977C9.80647 13.2168 9.80891 13.2371 9.80684 13.2573L9.75431 13.7713C9.74528 13.8597 9.82188 13.9331 9.90985 13.9202L10.5582 13.8252L6.90413 15.3542C7.19564 15.0626 6.44084 14.3079 6.14932 14.5993L7.70031 10.9673Z" fill="#E5AA6E"/>
<path d="M8.63803 11.1324C8.60438 11.1324 8.57149 11.1224 8.54351 11.1037C8.51553 11.085 8.49373 11.0584 8.48085 11.0273C8.46797 10.9962 8.4646 10.962 8.47116 10.929C8.47771 10.896 8.49391 10.8657 8.51769 10.8419L12.2859 7.07363C12.3181 7.04286 12.361 7.02589 12.4055 7.02638C12.45 7.02686 12.4925 7.04476 12.524 7.07623C12.5555 7.1077 12.5734 7.15024 12.5738 7.19474C12.5743 7.23924 12.5574 7.28217 12.5266 7.31431L8.75833 11.0826C8.74256 11.0984 8.72381 11.111 8.70316 11.1195C8.68252 11.1281 8.66038 11.1325 8.63803 11.1324ZM9.72098 12.0452L13.4892 8.27696C13.52 8.24482 13.537 8.20189 13.5365 8.15739C13.536 8.11289 13.5181 8.07034 13.4866 8.03887C13.4552 8.0074 13.4126 7.98951 13.3681 7.98903C13.3236 7.98854 13.2807 8.00551 13.2486 8.03628L9.4803 11.8045C9.44953 11.8367 9.43256 11.8796 9.43305 11.9241C9.43353 11.9686 9.45143 12.0112 9.4829 12.0426C9.51436 12.0741 9.55691 12.092 9.60141 12.0925C9.64591 12.093 9.68884 12.076 9.72098 12.0452ZM10.6836 13.0078L14.4519 9.23958C14.4826 9.20743 14.4996 9.16451 14.4991 9.12C14.4986 9.0755 14.4807 9.03296 14.4493 9.00149C14.4178 8.97002 14.3752 8.95212 14.3307 8.95164C14.2862 8.95115 14.2433 8.96812 14.2112 8.9989L10.4429 12.7672C10.4121 12.7993 10.3952 12.8422 10.3957 12.8867C10.3961 12.9312 10.414 12.9738 10.4455 13.0052C10.477 13.0367 10.5195 13.0546 10.564 13.0551C10.6085 13.0556 10.6514 13.0386 10.6836 13.0078Z" fill="#FFB636"/>
<path d="M10.2517 1.94471H4.7592C4.47619 1.94471 4.24677 1.71528 4.24677 1.43228V0.643053C4.24677 0.360045 4.47619 0.130615 4.7592 0.130615H10.2517C10.5347 0.130615 10.7641 0.360045 10.7641 0.643053V1.43228C10.7641 1.71528 10.5347 1.94471 10.2517 1.94471Z" fill="#B9C5C6"/>
</g>
<defs>
<clipPath id="clip0_62_2954">
<rect width="18" height="18" fill="white"/>
</clipPath>
</defs>
</svg>
