<svg width="24" height="24" viewBox="0 0 24 24" fill="none" xmlns="http://www.w3.org/2000/svg">
<path d="M8.02483 18H11.0248V17H9.02483V16H11.0248V13H8.02483V14H10.0248V15H8.02483V18ZM15.0248 18H16.0248V13H15.0248V15H14.0248V13H13.0248V16H15.0248V18ZM21.0248 11.05V19C21.0248 19.55 20.8292 20.021 20.4378 20.413C20.0465 20.805 19.5755 21.0007 19.0248 21H5.02483C4.47483 21 4.00417 20.8043 3.61283 20.413C3.2215 20.0217 3.0255 19.5507 3.02483 19V11.05C2.6415 10.7 2.34583 10.25 2.13783 9.7C1.92983 9.15 1.9255 8.55 2.12483 7.9L3.17483 4.5C3.30817 4.06667 3.54583 3.70833 3.88783 3.425C4.22983 3.14167 4.6255 3 5.07483 3H18.9748C19.4248 3 19.8165 3.13767 20.1498 3.413C20.4832 3.68833 20.7248 4.05067 20.8748 4.5L21.9248 7.9C22.1248 8.55 22.1208 9.14167 21.9128 9.675C21.7048 10.2083 21.4088 10.6667 21.0248 11.05ZM14.2248 10C14.6748 10 15.0165 9.846 15.2498 9.538C15.4832 9.23 15.5748 8.884 15.5248 8.5L14.9748 5H13.0248V8.7C13.0248 9.05 13.1415 9.35433 13.3748 9.613C13.6082 9.87167 13.8915 10.0007 14.2248 10ZM9.72483 10C10.1082 10 10.4208 9.87067 10.6628 9.612C10.9048 9.35333 11.0255 9.04933 11.0248 8.7V5H9.07483L8.52483 8.5C8.45817 8.9 8.5455 9.25 8.78683 9.55C9.02817 9.85 9.34084 10 9.72483 10ZM5.27483 10C5.57483 10 5.83717 9.89167 6.06183 9.675C6.2865 9.45833 6.42417 9.18333 6.47483 8.85L7.02483 5H5.07483L4.07483 8.35C3.97483 8.68333 4.02883 9.04167 4.23683 9.425C4.44483 9.80833 4.79083 10 5.27483 10ZM18.7748 10C19.2582 10 19.6082 9.80833 19.8248 9.425C20.0415 9.04167 20.0915 8.68333 19.9748 8.35L18.9248 5H17.0248L17.5748 8.85C17.6248 9.18333 17.7625 9.45833 17.9878 9.675C18.2132 9.89167 18.4755 10 18.7748 10ZM5.02483 19H19.0248V11.95C18.9415 11.9833 18.8875 12 18.8628 12H18.7748C18.3248 12 17.9292 11.925 17.5878 11.775C17.2465 11.625 16.9088 11.3833 16.5748 11.05C16.2748 11.35 15.9332 11.5833 15.5498 11.75C15.1665 11.9167 14.7582 12 14.3248 12C13.8748 12 13.4538 11.9167 13.0618 11.75C12.6698 11.5833 12.3242 11.35 12.0248 11.05C11.7415 11.35 11.4125 11.5833 11.0378 11.75C10.6632 11.9167 10.2588 12 9.82483 12C9.3415 12 8.90417 11.9167 8.51283 11.75C8.1215 11.5833 7.7755 11.35 7.47483 11.05C7.12483 11.4 6.77917 11.646 6.43783 11.788C6.0965 11.93 5.70883 12.0007 5.27483 12H5.16283C5.12083 12 5.07483 11.9833 5.02483 11.95V19Z" fill="#3D2000"/>
</svg>
