<svg width="13" height="13" viewBox="0 0 13 13" fill="none" xmlns="http://www.w3.org/2000/svg">
<g clip-path="url(#clip0_1473_61190)">
<path fill-rule="evenodd" clip-rule="evenodd" d="M9.31634 5.52288L6.28301 8.55622C6.17467 8.66455 6.06634 8.71872 5.90384 8.71872C5.74134 8.71872 5.63301 8.66455 5.52467 8.55622L3.68301 6.71455C3.46634 6.49788 3.46634 6.17288 3.68301 5.95622C3.89967 5.73955 4.22467 5.73955 4.44134 5.95622L5.90384 7.41872L8.55801 4.76455C8.77467 4.54788 9.09968 4.54788 9.31634 4.76455C9.53301 4.98122 9.53301 5.30622 9.31634 5.52288Z" fill="#3D2000"/>
<path d="M6.50033 1.62288C9.20866 1.62288 11.3753 3.78955 11.3753 6.49788C11.3753 9.20622 9.20866 11.3729 6.50033 11.3729C3.79199 11.3729 1.62533 9.20622 1.62533 6.49788C1.62533 3.78955 3.79199 1.62288 6.50033 1.62288ZM6.50033 0.539551C3.19616 0.539551 0.541992 3.19372 0.541992 6.49788C0.541992 9.80205 3.19616 12.4562 6.50033 12.4562C9.80449 12.4562 12.4587 9.80205 12.4587 6.49788C12.4587 3.19372 9.80449 0.539551 6.50033 0.539551Z" fill="#3D2000"/>
</g>
<defs>
<clipPath id="clip0_1473_61190">
<rect width="13" height="13" fill="white"/>
</clipPath>
</defs>
</svg>
