<svg width="18" height="18" viewBox="0 0 18 18" fill="none" xmlns="http://www.w3.org/2000/svg">
<path fill-rule="evenodd" clip-rule="evenodd" d="M4.99146 0C4.80235 0 4.62098 0.0751266 4.48725 0.208852C4.35352 0.342578 4.2784 0.523949 4.2784 0.713066V2.85227H5.70453V1.42613H15.6875V11.4091H14.2613V12.8352H16.4005C16.5896 12.8352 16.771 12.7601 16.9047 12.6263C17.0385 12.4926 17.1136 12.3112 17.1136 12.1221V0.713066C17.1136 0.523949 17.0385 0.342578 16.9047 0.208852C16.771 0.0751266 16.5896 0 16.4005 0H4.99146ZM0.713066 4.2784C0.523949 4.2784 0.342578 4.35352 0.208852 4.48725C0.0751266 4.62098 0 4.80235 0 4.99146V16.4005C0 16.5896 0.0751266 16.771 0.208852 16.9047C0.342578 17.0385 0.523949 17.1136 0.713066 17.1136H12.1221C12.3112 17.1136 12.4926 17.0385 12.6263 16.9047C12.7601 16.771 12.8352 16.5896 12.8352 16.4005V4.99146C12.8352 4.80235 12.7601 4.62098 12.6263 4.48725C12.4926 4.35352 12.3112 4.2784 12.1221 4.2784H0.713066ZM2.85227 9.98293H9.98293V8.5568H2.85227V9.98293ZM2.85227 12.8352H9.98293V11.4091H2.85227V12.8352Z" fill="#888880" fill-opacity="0.8"/>
</svg>
