<svg width="330" height="61" viewBox="0 0 330 61" fill="none" xmlns="http://www.w3.org/2000/svg">
<path fill-rule="evenodd" clip-rule="evenodd" d="M169.695 10.7337L169.692 10.6312H174.803C175.81 10.6312 176.776 11.0313 177.488 11.7433C178.2 12.4554 178.6 13.4211 178.6 14.4281V43.2842C178.6 44.2912 178.2 45.257 177.488 45.969C176.776 46.6811 175.81 47.0811 174.803 47.0811H167.209V30.8093C167.209 30.0087 166.893 29.2405 166.33 28.6716L158.379 20.6466C158.097 20.3616 157.761 20.1354 157.391 19.981C157.021 19.8265 156.624 19.7469 156.223 19.7467L149.744 19.746V14.4281C149.744 13.4211 150.144 12.4554 150.856 11.7433C151.568 11.0313 152.534 10.6312 153.541 10.6312H158.651L158.649 10.7337C158.649 11.0177 158.705 11.2989 158.813 11.5613C158.922 11.8236 159.082 12.062 159.282 12.2627C159.483 12.4635 159.722 12.6227 159.984 12.7313C160.246 12.8399 160.528 12.8958 160.812 12.8957H167.532C167.816 12.8958 168.097 12.8399 168.36 12.7313C168.622 12.6227 168.86 12.4635 169.061 12.2627C169.262 12.062 169.421 11.8236 169.53 11.5613C169.639 11.2989 169.695 11.0177 169.695 10.7337Z" fill="#FFD95E"/>
<path fill-rule="evenodd" clip-rule="evenodd" d="M158.302 20.5706C157.739 20.0414 156.995 19.7467 156.222 19.7467L145.948 19.7452C145.549 19.7451 145.154 19.8236 144.785 19.9762C144.416 20.1288 144.081 20.3525 143.799 20.6346C143.517 20.9166 143.293 21.2515 143.141 21.6201C142.988 21.9887 142.909 22.3837 142.909 22.7827V48.6013C142.909 49.4069 143.229 50.1795 143.799 50.7492C144.369 51.3188 145.141 51.6388 145.947 51.6388H164.172C164.977 51.6388 165.75 51.3188 166.32 50.7492C166.889 50.1795 167.209 49.4069 167.209 48.6013V30.8092C167.209 30.0382 166.916 29.296 166.389 28.7331C166.449 28.8075 166.487 28.8975 166.498 28.9925C166.509 29.0875 166.493 29.1837 166.452 29.27C166.411 29.3563 166.346 29.4291 166.265 29.4801C166.184 29.531 166.09 29.5579 165.994 29.5578H160.527C159.721 29.5578 158.949 29.2378 158.379 28.6681C157.809 28.0985 157.489 27.3259 157.489 26.5203V20.9708C157.489 20.8766 157.516 20.7842 157.566 20.7042C157.615 20.6242 157.687 20.5598 157.771 20.5181C157.856 20.4765 157.95 20.4593 158.044 20.4686C158.138 20.4779 158.227 20.5132 158.302 20.5706Z" fill="#EF9F27"/>
<path d="M166.354 28.6937L158.353 20.6154C158.282 20.5445 158.192 20.4961 158.094 20.4762C157.996 20.4564 157.895 20.4661 157.802 20.5041C157.71 20.542 157.631 20.6066 157.575 20.6895C157.519 20.7725 157.489 20.8701 157.489 20.9701V26.5196C157.489 27.3252 157.809 28.0978 158.379 28.6674C158.948 29.237 159.721 29.5571 160.527 29.5571H165.994C166.094 29.5572 166.192 29.5276 166.275 29.4722C166.359 29.4167 166.424 29.3378 166.462 29.2455C166.501 29.1531 166.511 29.0514 166.492 28.9532C166.473 28.855 166.425 28.7647 166.354 28.6937Z" fill="white"/>
<path d="M160.811 8.57178H167.533C168.727 8.57178 169.695 9.53971 169.695 10.7337V10.7345C169.695 11.9285 168.727 12.8964 167.533 12.8964H160.811C159.617 12.8964 158.649 11.9285 158.649 10.7345V10.7337C158.649 9.53971 159.617 8.57178 160.811 8.57178Z" fill="#EF9F27"/>
</svg>
