<svg width="36" height="44" viewBox="0 0 36 44" fill="none" xmlns="http://www.w3.org/2000/svg">
<path fill-rule="evenodd" clip-rule="evenodd" d="M26.7854 2.16196L26.7831 2.05945H31.8937C32.9007 2.05945 33.8664 2.45947 34.5785 3.17152C35.2905 3.88357 35.6905 4.84932 35.6905 5.85631V34.7125C35.6905 35.7195 35.2905 36.6852 34.5785 37.3973C33.8664 38.1093 32.9007 38.5093 31.8937 38.5093H24.3V22.2375C24.3 21.4369 23.984 20.6687 23.4206 20.0999L15.47 12.0748C15.1877 11.7899 14.8518 11.5636 14.4817 11.4092C14.1115 11.2547 13.7144 11.1751 13.3134 11.175L6.83439 11.1742V5.85631C6.83439 4.84932 7.23441 3.88357 7.94646 3.17152C8.65851 2.45947 9.62426 2.05945 10.6313 2.05945H15.7418L15.7395 2.16196C15.7395 2.44594 15.7955 2.72713 15.9042 2.98947C16.0129 3.25182 16.1722 3.49019 16.373 3.69095C16.5739 3.89171 16.8123 4.05094 17.0747 4.15955C17.3371 4.26815 17.6183 4.324 17.9022 4.3239H24.6227C24.9067 4.324 25.1879 4.26815 25.4503 4.15955C25.7126 4.05094 25.9511 3.89171 26.1519 3.69095C26.3527 3.49019 26.512 3.25182 26.6207 2.98947C26.7294 2.72713 26.7854 2.44594 26.7854 2.16196Z" fill="#FFD95E"/>
<path fill-rule="evenodd" clip-rule="evenodd" d="M15.3925 11.9988C14.8292 11.4696 14.0854 11.1749 13.3126 11.1749L3.03825 11.1734C2.63929 11.1733 2.24423 11.2518 1.87562 11.4044C1.507 11.557 1.17206 11.7807 0.889925 12.0628C0.607788 12.3449 0.383982 12.6797 0.231285 13.0483C0.0785904 13.4169 -1.90735e-06 13.8119 -1.90735e-06 14.2109V40.0296C-1.90735e-06 40.8351 0.320019 41.6077 0.88966 42.1774C1.4593 42.747 2.2319 43.067 3.03749 43.067H21.2624C22.068 43.067 22.8406 42.747 23.4103 42.1774C23.9799 41.6077 24.2999 40.8351 24.2999 40.0296V22.2375C24.3 21.4664 24.0068 20.7242 23.4798 20.1613C23.5399 20.2358 23.5777 20.3257 23.5888 20.4207C23.5999 20.5157 23.5839 20.612 23.5425 20.6983C23.5012 20.7845 23.4363 20.8574 23.3553 20.9083C23.2743 20.9592 23.1806 20.9862 23.0849 20.986H17.6174C16.8118 20.986 16.0393 20.666 15.4696 20.0964C14.9 19.5267 14.58 18.7541 14.58 17.9485V12.399C14.58 12.3048 14.6064 12.2124 14.6563 12.1324C14.7061 12.0525 14.7773 11.988 14.8618 11.9463C14.9464 11.9047 15.0409 11.8876 15.1346 11.8968C15.2284 11.9061 15.3177 11.9414 15.3925 11.9988Z" fill="#EF9F27"/>
<path d="M23.4448 20.1219L15.4433 12.0437C15.3729 11.9727 15.283 11.9243 15.1851 11.9044C15.0871 11.8846 14.9855 11.8943 14.893 11.9323C14.8006 11.9702 14.7215 12.0348 14.6657 12.1178C14.61 12.2007 14.5801 12.2984 14.5799 12.3983V17.9478C14.5799 18.7534 14.8999 19.526 15.4695 20.0956C16.0392 20.6653 16.8118 20.9853 17.6174 20.9853H23.0849C23.1849 20.9854 23.2828 20.9559 23.3661 20.9004C23.4494 20.8449 23.5144 20.766 23.5529 20.6737C23.5914 20.5813 23.6017 20.4796 23.5825 20.3814C23.5632 20.2832 23.5153 20.1929 23.4448 20.1219Z" fill="white"/>
<path d="M17.9014 0H24.6233C25.8173 0 26.7853 0.967931 26.7853 2.16193V2.16269C26.7853 3.3567 25.8173 4.32463 24.6233 4.32463H17.9014C16.7074 4.32463 15.7394 3.3567 15.7394 2.16269V2.16193C15.7394 0.967931 16.7074 0 17.9014 0Z" fill="#EF9F27"/>
</svg>
