<svg width="206" height="210" viewBox="0 0 206 210" fill="none" xmlns="http://www.w3.org/2000/svg">
<path d="M124.355 25.5968C127.067 22.553 133.269 24.4017 136.691 25.2625C139.587 25.8458 141.48 26.4772 144.301 27.4073C146.072 27.9492 147.579 28.4125 149.277 29.1911C151.564 29.9988 153.069 30.8457 155.158 31.6627C156.226 32.1748 157.783 32.8666 158.755 33.4737C160.834 34.314 167.434 39.0312 167.917 40.8991C168.683 43.8585 162.303 53.0799 160.82 56.0431C159.499 58.6846 157.868 61.4785 156.462 63.6538C155.877 64.9336 155.135 66.3928 154.815 67.7445C155.344 68.0155 155.97 68.3716 156.526 68.5443C160.011 69.7376 164.43 72.7945 166.161 76.0904C167.651 78.9287 166.3 81.0524 164.285 82.9513C165.319 84.3483 166.286 85.7953 167.179 87.2867C169.691 91.4063 171.627 96.8747 172.984 101.534C173.263 102.283 173.261 105.185 173.535 105.719C175.131 108.836 175.157 110.937 175.568 114.332C176.485 121.891 176.042 129.813 174.34 137.246C173.055 142.863 171.009 149.069 167.539 153.712C166.475 155.089 164.029 156.857 163.224 158.183C162.067 160.084 161.617 162.313 160.153 164.312C155.731 170.342 147.586 174.993 141.268 178.835C145.194 185.401 150.693 185.822 154.726 190.312C158.334 194.33 144.138 217.202 137.882 206.241C136.356 203.567 136.702 201.458 137.445 198.572C128.452 197.531 123.393 192.119 121.059 183.634C118.813 183.868 116.246 183.987 114.061 184.254C108.827 184.893 106.015 185.372 100.79 184.812C100.709 186.494 100.761 188.143 100.906 190.093C101.043 192.276 103.106 203.543 102.233 204.821C98.9766 209.592 83.9401 209.78 78.7045 207.838C77.1127 207.247 76.0046 206.063 75.5731 204.976C75.0052 203.543 75.3138 202.018 75.9119 200.717C77.2257 197.709 79.3517 196.459 82.2517 195.298C80.5735 188.451 80.4648 183.644 81.0274 176.573C77.1428 175.336 71.1768 171.666 68.8188 168.416C66.3729 165.044 67.1868 165.41 63.5864 162.742C60.5746 160.509 57.2953 155.144 55.3791 151.931C54.6591 150.725 53.993 149.048 53.2524 147.808C51.5062 145.082 50.6934 144.908 49.8722 141.708C48.8811 137.845 50.0207 136.028 50.0824 132.565C50.1077 131.145 48.4954 127.952 48.4032 125.723C48.3183 123.672 48.328 122.596 48.4543 120.463C49.0821 109.857 52.894 98.2959 57.7999 88.9096C58.8716 86.859 61.2921 83.4551 62.7475 81.681C70.2853 72.4923 77.7869 67.3607 88.708 62.8302C94.667 60.3582 93.4737 59.7556 100.894 58.9557C98.8479 47.3157 112.427 52.3039 118.383 53.8721C118.796 53.156 119.335 50.2277 119.529 49.2809C119.87 47.4745 120.355 45.7829 120.694 44.0224C121.484 39.9291 122.199 35.9014 123.141 31.8371C123.617 29.779 123.829 27.7067 124.355 25.5968Z" fill="#F3BF57"/>
<path d="M100.894 58.9557C101.69 59.7825 101.879 60.2302 102.269 61.3522C100.183 61.5914 97.8168 61.9105 95.7746 62.4161C94.2878 63.0292 93.4064 63.4939 92.0023 64.261C90.2566 65.1793 88.5154 65.75 86.6912 66.4881C77.0944 70.3708 69.0334 77.3053 63.021 85.6738C62.6281 86.2209 62.2473 86.7283 61.9405 87.3296C60.7967 88.3822 59.2255 92.252 58.5315 93.8637C57.2951 95.2472 54.6092 103.739 53.5748 106.135C51.6323 112.155 50.3057 119.688 50.877 125.963C51.2016 129.532 53.5533 129.495 51.9378 134.53C50.0036 140.561 54.1147 147.673 60.3485 149.038C65.2596 150.396 70.3241 149.084 74.6139 146.726C69.8489 143.795 66.5684 139.987 66.3244 134.144C64.688 134.448 59.1737 135.366 58.3212 132.518C58.2226 132.189 58.3873 132.047 58.5619 131.764C59.9199 131.14 63.266 132.736 64.9482 131.892C67.5254 130.598 67.2241 128.909 70.1287 127.617C71.0925 124.095 71.5765 124.051 73.1336 120.817C74.4174 117.804 75.4074 114.059 78.3387 112.191C79.0713 111.724 80.3402 111.465 80.952 111.068C84.1773 108.978 87.0518 108.736 89.8611 111.78C92.5924 110.656 94.1036 110.673 96.9268 111.753C97.8782 101.349 101.726 104.636 109.134 106.914C112.544 107.817 116.093 108.334 119.521 109.092C122.007 109.642 122.359 112.034 121.919 114.169C120.381 121.606 116.425 125.756 108.829 125.764L109.301 129.695C112.348 130.719 112.958 131.485 113.249 134.698C120.312 137.058 125.484 138.126 132.911 135.993C134.226 135.614 136.272 134.732 137.182 135.729C137.395 139.101 127.117 139.61 124.679 139.592C120.489 139.563 116.955 138.724 113.089 137.148C111.897 141.45 108.537 145.662 104.705 147.847L104.177 148.142C113.425 155.254 129.863 155.141 140.134 150.29C141.01 150.552 140.724 150.358 141.299 150.974C141.559 153.313 136.382 154.034 134.986 154.789C131.199 156.328 125.644 156.436 121.602 156.293C114.282 156.031 107.442 153.704 101.561 149.332C97.3889 149.941 94.8895 149.152 93.2691 145.001C90.9125 144.244 89.2869 143.159 87.6898 141.307C82.8451 145.17 84.9263 147.964 77.3377 147.654C71.2754 152.153 64.611 153.299 57.4642 150.711C59.3186 153.555 62.1477 157.792 64.6342 160.074C67.6162 162.808 68.6752 163.445 71.0295 166.89C72.6117 169.207 77.2961 172.479 79.9176 173.492C83.9795 175.053 87.0475 177.143 91.0381 178.556C99.9326 183.411 104.699 183.141 114.216 181.659C115.61 181.444 117.845 181.48 119.362 181.297C120.773 181.128 122.433 180.792 123.813 180.698C125.019 180.615 126.628 180.823 127.899 180.753C130.368 180.617 132.586 179.064 134.859 178.117C135.914 177.677 138.381 177.539 138.913 177.219C142.803 174.881 152.453 169.198 155.189 166.249C156.519 165.161 158.601 162.42 159.303 160.845C159.903 159.75 160.562 157.505 161.408 156.624C164.074 153.848 165.804 152.098 167.726 148.678C173.996 135.895 174.698 119.283 171.546 105.545C171.054 103.4 170.018 101.676 168.356 100.265C168.452 98.408 168.55 95.8111 167.747 94.1078C166.174 90.77 164.177 86.8411 162.109 83.8016C162.926 83.5175 163.496 83.3166 164.285 82.9513C165.319 84.3483 166.286 85.7953 167.179 87.2867C169.691 91.4063 171.627 96.8747 172.984 101.534C173.263 102.283 173.261 105.185 173.535 105.719C175.131 108.836 175.157 110.937 175.568 114.332C176.485 121.891 176.042 129.813 174.34 137.246C173.055 142.863 171.009 149.069 167.539 153.712C166.475 155.089 164.029 156.857 163.224 158.183C162.067 160.084 161.617 162.313 160.153 164.312C155.731 170.342 147.586 174.993 141.268 178.835C145.194 185.401 150.693 185.822 154.726 190.312C158.334 194.33 144.138 217.202 137.882 206.241C136.356 203.567 136.702 201.458 137.445 198.572C128.452 197.531 123.393 192.119 121.059 183.634C118.813 183.868 116.246 183.987 114.061 184.254C108.827 184.893 106.015 185.372 100.79 184.812C100.709 186.494 100.761 188.143 100.906 190.093C101.043 192.276 103.106 203.543 102.233 204.821C98.9766 209.592 83.9401 209.78 78.7045 207.838C77.1127 207.247 76.0046 206.063 75.5731 204.976C75.0052 203.543 75.3138 202.018 75.9119 200.717C77.2257 197.709 79.3517 196.459 82.2517 195.298C80.5735 188.451 80.4648 183.644 81.0274 176.573C77.1428 175.336 71.1768 171.666 68.8188 168.416C66.3729 165.044 67.1868 165.41 63.5864 162.742C60.5746 160.509 57.2953 155.144 55.3791 151.931C54.6591 150.725 53.993 149.048 53.2524 147.808C51.5062 145.082 50.6934 144.908 49.8722 141.708C48.8811 137.845 50.0207 136.028 50.0824 132.565C50.1077 131.145 48.4954 127.952 48.4032 125.723C48.3183 123.672 48.328 122.596 48.4543 120.463C49.0821 109.857 52.894 98.2959 57.7999 88.9096C58.8716 86.859 61.2921 83.4551 62.7475 81.681C70.2853 72.4923 77.7869 67.3607 88.708 62.8302C94.667 60.3582 93.4737 59.7556 100.894 58.9557Z" fill="#5F2609"/>
<path d="M91.2108 112.873C95.391 112.039 97.0328 113.227 99.2471 116.726C100.096 118.068 102.714 125.083 104.345 124.805C104.965 123.164 101.959 120.265 102.271 118.627C103.514 116.984 106.826 119.303 106.982 120.59C107.396 124.004 107.36 127.956 107.67 131.387C107.786 132.665 106.59 135.952 106.154 137.328C108.364 135.594 108.951 133.924 109.349 131.137C110.486 131.967 111.487 132.869 111.598 134.363C111.997 139.765 106.594 144.744 102.393 146.925C99.5043 148.204 96.8932 148.085 95.117 145.227C97.0744 144.686 98.473 144.088 100.192 143.031C100.849 142.354 101.15 142.029 101.708 141.267C98.6262 142.172 95.1889 144.52 91.9619 142.609C88.193 140.473 86.0296 135.499 84.861 131.6C83.8728 128.302 82.2773 121.418 85.9386 119.457C88.161 118.267 90.9094 124.937 91.0646 126.298C91.1675 127.198 91.7712 128.195 92.7125 128.101C93.2097 127.596 93.0578 127.834 93.2412 127.142C93.053 126.46 93.1148 126.677 92.3868 126.156C91.2707 122.635 90.5415 118.573 86.271 117.947C89.413 109.451 94.7359 116.99 95.8738 121.666C96.0235 122.281 96.4806 123.541 96.8125 124.046C97.6907 124.174 98.3896 123.552 98.7005 122.761C98.3994 122.31 97.8734 122.3 97.6497 121.862C95.6699 117.992 95.4748 114.83 91.2108 112.873Z" fill="#FCFCFB"/>
<path d="M95.117 145.227C97.0744 144.686 98.473 144.088 100.192 143.031C100.198 143.609 100.184 144.313 100.233 144.879C101.03 145.774 101.463 146.152 102.393 146.925C99.5043 148.204 96.8932 148.085 95.117 145.227Z" fill="#DCDADB"/>
<path d="M123.282 183.515C124.569 183.527 127.361 183.642 128.462 183.329C132.268 182.24 135.069 180.872 139.064 180.119C140.299 182.262 142.151 184.006 143.899 185.72C144.912 186.216 145.893 187.005 146.879 187.583C148.924 188.78 151.132 190.177 153.224 191.278C152.611 196.666 149.133 202.095 145.12 205.552C140.951 209.141 138.357 204.48 139.165 200.633C139.415 199.444 140.458 197.555 140.477 196.699L140.206 196.332C137.376 195.92 136.549 195.736 133.914 195.114C128.424 193.279 124.89 189.018 123.282 183.515Z" fill="#975424"/>
<path d="M123.282 183.515C124.569 183.527 127.361 183.642 128.462 183.329C132.268 182.24 135.069 180.872 139.064 180.119C140.299 182.262 142.151 184.006 143.899 185.72C142.453 189.45 138.364 195.212 133.914 195.114C128.424 193.279 124.89 189.018 123.282 183.515Z" fill="#F1BA54"/>
<path d="M83.1951 177.77C88.1572 179.831 93.0883 182.831 98.4113 184.462C98.334 188.32 98.5401 191.132 99.1578 194.993C99.5871 197.817 100.011 200.72 100.145 203.574C94.1082 203.677 87.1705 204.084 81.1521 204.988C78.5512 205.379 76.8744 205.91 77.8637 202.082C78.8437 198.289 82.5335 198.684 84.8144 196.544C85.1921 196.198 84.6627 194.728 84.5011 194.187C83.6369 190.808 83.3743 188.794 83.1706 185.344C82.9201 183.894 82.9957 179.249 83.1951 177.77Z" fill="#EEB039"/>
<path d="M84.5011 194.187C88.1478 193.984 90.4796 194.073 94.1345 194.614C95.6739 194.907 97.5678 194.943 99.1578 194.993C99.5871 197.817 100.011 200.72 100.145 203.574C94.1082 203.677 87.1705 204.084 81.1521 204.988C78.5512 205.379 76.8744 205.91 77.8637 202.082C78.8437 198.289 82.5335 198.684 84.8144 196.544C85.1921 196.198 84.6627 194.728 84.5011 194.187Z" fill="#985626"/>
<path d="M83.1706 185.344C84.0163 184.924 85.673 185.479 86.5613 185.682C89.788 186.421 93.9955 190.941 94.4793 194.216C94.3171 194.459 94.3551 194.478 94.1345 194.614C90.4796 194.073 88.1478 193.984 84.5011 194.187C83.6369 190.808 83.3743 188.794 83.1706 185.344Z" fill="#F3BF57"/>
<path d="M69.995 129.619C70.1416 131.161 70.8511 136.419 72.737 136.737C72.7878 136.651 72.8385 136.563 72.8893 136.476C71.5436 133.099 71.256 128.855 72.46 125.414C72.6893 124.805 73.8419 123.553 73.9897 123.021C75.3735 118.034 80.0561 107.554 85.9534 115.534C81.0941 112.496 78.1875 115.334 76.3191 119.909C75.933 120.854 74.3345 125.937 75.9909 126.169C77.0244 125.342 76.7371 123.286 77.1121 122.202C77.9091 119.952 78.8784 117.416 81.0582 116.147C82.1208 115.528 84.0085 115.603 84.6769 116.823C84.8972 118.492 83.4719 118.962 82.9311 120.168C81.0688 124.323 82.3057 129.721 83.6144 133.793C84.545 135.998 85.1528 137.837 86.6358 139.708C84.3149 142.098 82.5874 142.025 79.4305 141.615C78.8079 141.407 77.362 140.821 76.8188 140.978L76.8398 141.296C76.8776 143.359 75.427 143.354 73.696 143.919C69.4515 141.221 65.2984 133.65 69.995 129.619Z" fill="#FCFCFB"/>
<path d="M83.6144 133.793C84.545 135.998 85.1528 137.837 86.6358 139.708C84.3149 142.098 82.5874 142.025 79.4305 141.615C83.0648 139.41 82.6576 137.277 83.6144 133.793Z" fill="#DCDADB"/>
<path d="M100.934 106.423C102.938 106.621 107.338 108.419 109.837 109.039C111.591 109.473 118.387 110.462 119.13 111.06C119.359 111.249 119.491 111.531 119.488 111.828C119.478 112.429 119.33 112.583 118.987 112.931C114.096 113.615 109.803 113.081 105.186 111.258C103.752 110.693 101.315 109.711 100.613 108.161C100.369 107.622 100.713 106.965 100.934 106.423Z" fill="#FCFCFB"/>
<path d="M107.956 116.026L108.121 116.013C111.339 115.786 114.992 116.7 117.456 118.835C116.319 120.599 115.345 121.32 113.509 122.277C111.751 122.998 110.994 123.018 109.063 123.13C108.876 119.386 108.251 117.858 104.557 116.596C105.825 116.314 106.665 116.177 107.956 116.026Z" fill="#E56F48"/>
<path d="M95.7582 204.947C97.3951 204.764 98.3318 204.907 99.9492 205.2C93.3223 207.166 91.0742 207.545 84.0558 207.085C82.9561 207.002 81.0895 207.059 80.3987 206.311L80.6065 206.069C82.6154 205.421 93.3281 204.962 95.7582 204.947Z" fill="#954F20"/>
<path d="M76.8398 141.296C78.7546 143.274 80.0016 143.466 82.7085 143.502C82.9506 143.505 83.1928 143.504 83.4349 143.497C83.0485 143.952 82.5295 144.617 82.0383 144.942C79.4821 146.639 75.9869 145.504 73.696 143.919C75.427 143.354 76.8776 143.359 76.8398 141.296Z" fill="#DCDADB"/>
<path d="M83.6002 111.376C84.7879 111.183 87.9064 111.285 88.1751 112.739L87.8532 112.982C87.4867 113.297 87.3207 113.511 86.8457 113.574C85.6444 113.047 85.1308 112.098 83.7995 111.469L83.6002 111.376Z" fill="#DCDADB"/>
<path d="M124.355 25.5968C127.067 22.553 133.269 24.4017 136.691 25.2625C139.587 25.8458 141.48 26.4772 144.301 27.4073C146.072 27.9492 147.579 28.4125 149.277 29.1911C151.564 29.9988 153.069 30.8457 155.158 31.6627C156.226 32.1748 157.783 32.8666 158.755 33.4737C160.834 34.314 167.434 39.0312 167.917 40.8991C168.683 43.8585 162.303 53.0799 160.82 56.0431C159.499 58.6846 157.868 61.4785 156.462 63.6538C156.13 63.5121 155.727 63.1181 155.445 62.8712L155.338 62.8641C154.922 62.8014 152.773 62.974 152.229 62.9947C150.074 63.0765 148.771 62.9525 146.689 62.5236C141.874 61.6475 139.246 60.624 134.782 58.7263C130.819 57.0424 128.109 55.5922 124.751 52.8381C123.395 51.7263 121.953 50.9603 120.727 49.5979L120.697 49.468C120.305 49.3409 119.942 49.3284 119.529 49.2809C119.87 47.4745 120.355 45.7829 120.694 44.0224C121.484 39.9291 122.199 35.9014 123.141 31.8371C123.617 29.779 123.829 27.7067 124.355 25.5968Z" fill="#7159C6"/>
<path d="M136.691 25.2625C139.587 25.8458 141.48 26.4772 144.301 27.4073C146.072 27.9492 147.579 28.4125 149.277 29.1911C151.564 29.9988 153.069 30.8457 155.158 31.6627C156.226 32.1748 157.783 32.8666 158.755 33.4737C158.669 33.8244 158.571 34.1785 158.516 34.5334C161.396 36.4518 165.4 38.9594 166.821 42.3583C166.532 42.7458 166.618 42.7939 166.099 42.8514C164.314 43.0492 162.057 42.8638 160.283 42.6221C158.649 41.9844 153.642 41.1427 151.705 40.7097C148.007 39.8465 142.192 37.2705 138.653 35.5715C137.729 34.757 133.584 32.8021 132.204 31.8238C130.616 30.6984 126.489 27.7974 126.062 25.8149C127.831 24.8388 133.761 26.0437 135.867 26.4836L136.339 26.3709C136.753 25.9743 136.617 26.0187 136.691 25.2625Z" fill="#8C7CD1"/>
<path d="M136.691 25.2625C139.587 25.8458 141.48 26.4772 144.301 27.4073C142.839 28.4339 137.799 26.8623 135.867 26.4836L136.339 26.3709C136.753 25.9743 136.617 26.0187 136.691 25.2625Z" fill="#6352AE"/>
<path d="M149.277 29.1911C151.564 29.9988 153.069 30.8457 155.158 31.6627C154.198 31.7136 153.627 31.7194 152.668 31.6648C151.342 31.4567 149.528 30.6615 149.277 29.1911Z" fill="#6352AE"/>
<path d="M152.668 31.6648C153.627 31.7194 154.198 31.7136 155.158 31.6627C156.226 32.1748 157.783 32.8666 158.755 33.4737C158.669 33.8244 158.571 34.1785 158.516 34.5334C156.317 33.2379 155.123 32.4574 152.668 31.6648Z" fill="#7159C6"/>
<path d="M158.755 33.4737C160.834 34.314 167.434 39.0312 167.917 40.8991C168.683 43.8585 162.303 53.0799 160.82 56.0431C159.499 58.6846 157.868 61.4785 156.462 63.6538C156.13 63.5121 155.727 63.1181 155.445 62.8712L155.338 62.8641C154.922 62.8014 152.773 62.974 152.229 62.9947C150.074 63.0765 148.771 62.9525 146.689 62.5236C147.503 61.7486 148.985 59.2597 149.755 58.1896C153.164 53.4512 156.145 48.0397 159.485 43.3197C158.442 43.2618 153.11 42.7475 152.697 41.7968C153.227 41.6951 157.047 43.3387 159.184 42.9129L159.168 42.6903C157.599 42.4772 153.405 40.951 152.173 41.3929C152.03 41.7156 152.008 41.7835 151.804 42.0685L151.398 41.9618C151.732 41.4844 151.684 41.324 151.705 40.7097C153.642 41.1427 158.649 41.9844 160.283 42.6221C162.057 42.8638 164.314 43.0492 166.099 42.8514C166.618 42.7939 166.532 42.7458 166.821 42.3583C165.4 38.9594 161.396 36.4518 158.516 34.5334C158.571 34.1785 158.669 33.8244 158.755 33.4737Z" fill="#5742A8"/>
<path d="M158.755 33.4737C160.834 34.314 167.434 39.0312 167.917 40.8991C168.683 43.8585 162.303 53.0799 160.82 56.0431C159.499 58.6846 157.868 61.4785 156.462 63.6538C156.13 63.5121 155.727 63.1181 155.445 62.8712C155.997 60.8486 164.588 45.9419 166.061 44.1669C166.606 43.7677 166.988 43.0391 166.821 42.3583C165.4 38.9594 161.396 36.4518 158.516 34.5334C158.571 34.1785 158.669 33.8244 158.755 33.4737Z" fill="#40307F"/>
<path d="M166.821 42.3583C166.988 43.0391 166.606 43.7677 166.061 44.1669C164.733 44.0248 159.986 44.5618 159.469 43.3697L159.8 42.7236L160.283 42.6221C162.057 42.8638 164.314 43.0492 166.099 42.8514C166.618 42.7939 166.532 42.7458 166.821 42.3583Z" fill="#40307F"/>
<path d="M124.355 25.5968C127.067 22.553 133.269 24.4017 136.691 25.2625C136.617 26.0187 136.753 25.9743 136.339 26.3709L135.867 26.4836C133.761 26.0437 127.831 24.8388 126.062 25.8149C125.825 26.3642 125.532 27.1545 125.434 27.7484C124.601 32.7315 123.602 37.6392 122.316 42.5258C121.754 44.6635 121.497 47.4416 120.697 49.468C120.305 49.3409 119.942 49.3284 119.529 49.2809C119.87 47.4745 120.355 45.7829 120.694 44.0224C121.484 39.9291 122.199 35.9014 123.141 31.8371C123.617 29.779 123.829 27.7067 124.355 25.5968Z" fill="#423585"/>
<path d="M138.653 35.5715C142.192 37.2705 148.007 39.8465 151.705 40.7097C151.684 41.324 151.732 41.4844 151.398 41.9618C148.752 40.5654 139.79 37.784 138.587 36.7907C138.348 36.1716 138.426 36.3618 138.653 35.5715Z" fill="#40307F"/>
<path d="M119.529 49.2809C119.942 49.3284 120.305 49.3409 120.697 49.468L120.727 49.5979C121.953 50.9603 123.395 51.7263 124.751 52.8381C128.109 55.5922 130.819 57.0424 134.782 58.7263C139.246 60.624 141.874 61.6475 146.689 62.5236C148.771 62.9525 150.074 63.0765 152.229 62.9947C152.773 62.974 154.922 62.8014 155.338 62.8641L155.445 62.8712C155.727 63.1181 156.13 63.5121 156.462 63.6538C155.877 64.9336 155.135 66.3928 154.815 67.7445C155.344 68.0155 155.97 68.3716 156.526 68.5443C160.011 69.7376 164.43 72.7945 166.161 76.0904C167.651 78.9287 166.3 81.0524 164.285 82.9513C163.496 83.3166 162.926 83.5175 162.109 83.8016C157.04 85.454 153.909 85.6535 148.594 84.8606C146.079 84.2682 142.471 83.8705 139.702 83.3107C136.748 82.3292 133.708 81.356 130.802 80.2559C125.778 78.412 120.923 76.1354 116.293 73.4517C115.94 73.1644 113.094 71.3298 112.578 70.9742C107.793 67.674 105.725 65.9794 102.269 61.3522C101.879 60.2302 101.69 59.7825 100.894 58.9557C98.8479 47.3157 112.427 52.3039 118.383 53.8721C118.796 53.156 119.335 50.2277 119.529 49.2809Z" fill="#7159C6"/>
<path d="M119.529 49.2809C119.942 49.3284 120.305 49.3409 120.697 49.468L120.727 49.5979C121.953 50.9603 123.395 51.7263 124.751 52.8381C128.109 55.5922 130.819 57.0424 134.782 58.7263C139.246 60.624 141.874 61.6475 146.689 62.5236C148.771 62.9525 150.074 63.0765 152.229 62.9947C152.773 62.974 154.922 62.8014 155.338 62.8641C154.934 63.9082 154.578 64.6133 154.064 65.6135C152.933 67.353 152.283 69.5296 151.008 71.4422L147.483 71.5137C139.085 71.5078 128.011 66.6335 121.451 61.4583C120.935 61.2569 120.672 61.1041 120.209 60.7958C120.396 61.2831 120.711 61.7636 120.845 62.2028C119.508 61.2123 118.337 58.9315 117.179 57.4513C117.461 56.9068 118.094 55.8892 118.044 55.3501L117.872 55.1959C118.464 54.9697 118.335 54.4473 118.383 53.8721C118.796 53.156 119.335 50.2277 119.529 49.2809Z" fill="#E9E7EA"/>
<path d="M119.268 55.2632C119.041 56.1647 118.798 57.0819 118.607 57.9896C119.436 59.3872 120.339 60.285 121.451 61.4583C120.935 61.2569 120.672 61.1041 120.209 60.7958C120.396 61.2831 120.711 61.7636 120.845 62.2028C119.508 61.2123 118.337 58.9315 117.179 57.4513C117.461 56.9068 118.094 55.8892 118.044 55.3501L119.268 55.2632Z" fill="#6352AE"/>
<path d="M119.529 49.2809C119.942 49.3284 120.305 49.3409 120.697 49.468L120.727 49.5979C120.267 51.493 119.78 53.3816 119.268 55.2632L118.044 55.3501L117.872 55.1959C118.464 54.9697 118.335 54.4473 118.383 53.8721C118.796 53.156 119.335 50.2277 119.529 49.2809Z" fill="#5742A8"/>
<path d="M100.894 58.9557C98.8479 47.3157 112.427 52.3039 118.383 53.8721C118.335 54.4473 118.464 54.9697 117.872 55.1959C113.442 54.5145 104.974 50.3979 102.357 56.0033C102.06 58.0018 103.28 59.8599 104.425 61.4103C106.465 64.1472 108.881 66.5818 111.601 68.6425C113.815 69.2743 118.309 72.9685 119.29 73.2172C121.196 73.7003 129.317 76.8177 130.413 76.7579C140.12 80.055 154.855 84.1298 164.807 79.8556C165.619 75.9281 162.188 73.5147 159.299 71.6959C158.365 71.1081 156.913 70.4151 156.292 69.5309C156.402 69.1945 156.455 68.8897 156.526 68.5443C160.011 69.7376 164.43 72.7945 166.161 76.0904C167.651 78.9287 166.3 81.0524 164.285 82.9513C163.496 83.3166 162.926 83.5175 162.109 83.8016C157.04 85.454 153.909 85.6535 148.594 84.8606C146.079 84.2682 142.471 83.8705 139.702 83.3107C136.748 82.3292 133.708 81.356 130.802 80.2559C125.778 78.412 120.923 76.1354 116.293 73.4517C115.94 73.1644 113.094 71.3298 112.578 70.9742C107.793 67.674 105.725 65.9794 102.269 61.3522C101.879 60.2302 101.69 59.7825 100.894 58.9557Z" fill="#40307F"/>
<path d="M111.601 68.6425C113.815 69.2743 118.309 72.9685 119.29 73.2172C121.196 73.7003 129.317 76.8177 130.413 76.7579C140.12 80.055 154.855 84.1298 164.807 79.8556C164.59 80.3436 164.191 80.7597 163.833 81.1505C161.749 83.4276 157.849 83.6007 154.946 83.706C142.923 84.1417 126.122 77.8704 115.995 71.5574C114.564 70.6661 112.833 69.7888 111.601 68.6425Z" fill="#5742A8"/>
<path d="M111.601 68.6425C108.881 66.5818 106.465 64.1472 104.425 61.4103C103.28 59.8599 102.06 58.0018 102.357 56.0033C102.785 55.9931 103.212 55.9754 103.639 55.95C104.078 56.4485 104.218 57.6532 104.538 58.3741C105.607 60.7856 107.504 63.1236 109.581 64.7537C113.984 68.2099 118.66 71.4725 123.71 73.9127C125.912 74.9746 128.211 75.7346 130.413 76.7579C129.317 76.8177 121.196 73.7003 119.29 73.2172C118.309 72.9685 113.815 69.2743 111.601 68.6425Z" fill="#6352AE"/>
<path d="M120.845 62.2028C120.711 61.7636 120.396 61.2831 120.209 60.7958C120.672 61.1041 120.935 61.2569 121.451 61.4583C128.011 66.6335 139.085 71.5078 147.483 71.5137C147.536 71.5778 147.584 71.7121 147.622 71.7973C147.059 71.8941 146.76 71.8882 146.183 71.8953C146.512 72.2988 147.021 72.4249 147.496 72.5566L147.674 72.6046C147.407 72.6382 147.223 72.6606 146.953 72.6763C144.842 72.8181 142.722 72.6689 140.652 72.2328C136.98 71.4632 128.29 68.0758 125.05 65.8957C124.335 65.4138 121.663 62.9494 120.845 62.2028Z" fill="#40307F"/>
<path d="M155.338 62.8641L155.445 62.8712C155.727 63.1181 156.13 63.5121 156.462 63.6538C155.877 64.9336 155.135 66.3928 154.815 67.7445C154.676 67.5901 154.642 67.4693 154.545 67.2727C154.662 67.0186 155.597 64.6509 155.597 64.5444L155.351 64.3655L154.991 64.4801C154.745 65.0168 154.671 65.1553 154.32 65.6269L154.064 65.6135C154.578 64.6133 154.934 63.9082 155.338 62.8641Z" fill="#5742A8"/>
<path d="M58.5315 93.8637C64.8006 93.6771 66.9314 95.0209 69.6524 100.825C69.4774 105.201 68.106 108.233 64.0453 110.252C62.7117 110.915 61.0157 111.479 60.2492 112.784C55.9472 111.186 55.4865 109.858 53.5748 106.135C54.6092 103.739 57.2951 95.2472 58.5315 93.8637Z" fill="#954F20"/>
<path d="M144.162 141.769C146.197 141.886 147.617 142.284 149.036 143.896C150.285 145.339 150.918 147.217 150.8 149.122C150.53 152.937 147.329 155.871 143.697 156.478C140.015 157.094 137.799 157.498 134.986 154.789C136.382 154.034 141.559 153.313 141.299 150.974C140.724 150.358 141.01 150.552 140.134 150.29L140.323 150.277C141.641 150.196 141.459 150.382 142.194 151.312C145.198 148.178 145.454 145.962 144.162 141.769Z" fill="#8E4D21"/>
<path d="M61.9405 87.3296C62.2473 86.7283 62.6281 86.2209 63.021 85.6738C69.0334 77.3053 77.0944 70.3708 86.6912 66.4881C88.5154 65.75 90.2566 65.1793 92.0023 64.261C92.1198 65.0074 92.8452 65.6124 93.4005 66.1979C91.2597 67.5294 87.3083 69.2826 84.8438 70.0538C80.0518 71.5535 77.5058 74.1915 74.0663 77.7178C73.2757 78.5284 71.0686 80.1851 71.5686 81.2587C70.9402 81.4444 70.4662 81.3579 69.81 81.3131C69.3494 82.2182 67.546 86.1914 66.4903 86.1843C64.2662 86.1695 65.262 85.7417 63.4369 87.3654L63.164 87.0195C63.3049 86.79 63.2664 86.9013 63.2973 86.6871L62.967 86.5961C62.7025 86.7934 62.2086 87.1928 61.9405 87.3296Z" fill="#F6D688"/>
<path d="M139.702 83.3107C142.471 83.8705 146.079 84.2682 148.594 84.8606C151.755 91.6987 145.819 96.9581 140.143 91.4186C137.684 89.0203 137.066 85.8861 139.702 83.3107Z" fill="#AB5F26"/>
<path d="M69.6524 100.825C71.4906 103.013 72.584 104.232 72.353 107.263C72.0049 111.829 67.5267 114.034 63.3705 113.508C62.2883 113.372 61.2953 113.061 60.2492 112.784C61.0157 111.479 62.7117 110.915 64.0453 110.252C68.106 108.233 69.4774 105.201 69.6524 100.825Z" fill="#C68038"/>
<path d="M92.0023 64.261C93.4064 63.4939 94.2878 63.0292 95.7746 62.4161C95.6453 64.3542 95.4187 64.8023 96.6123 66.2822C93.068 67.9924 89.5235 69.0269 86.3973 70.5926C80.964 73.3138 76.1997 77.5813 71.5686 81.2587C71.0686 80.1851 73.2757 78.5284 74.0663 77.7178C77.5058 74.1915 80.0518 71.5535 84.8438 70.0538C87.3083 69.2826 91.2597 67.5294 93.4005 66.1979C92.8452 65.6124 92.1198 65.0074 92.0023 64.261Z" fill="#FAEEB9"/>
<path d="M165.414 148.853C166.283 148.822 166.861 148.802 167.726 148.678C165.804 152.098 164.074 153.848 161.408 156.624C160.562 157.505 159.903 159.75 159.303 160.845C158.601 162.42 156.519 165.161 155.189 166.249C155.473 165.491 156.281 164.67 156.803 163.88C157.281 158.799 159.149 155.015 162.768 151.452C163.705 150.526 164.278 149.67 165.414 148.853Z" fill="#C68038"/>
<path d="M116.293 73.4517C120.923 76.1354 125.778 78.412 130.802 80.2559C127.729 81.1624 125.487 81.3932 122.471 79.9906C119.29 78.511 117.506 76.7067 116.293 73.4517Z" fill="#954F20"/>
<path d="M79.9176 173.492C82.2957 172.893 86.6272 172.87 88.9531 173.966C89.5953 175.096 90.5796 177.298 91.0381 178.556C87.0475 177.143 83.9795 175.053 79.9176 173.492Z" fill="#C68038"/>
<path d="M131.494 102.551C135.724 102.414 139.281 105.709 139.472 109.944C139.661 114.18 136.416 117.782 132.189 118.026C129.407 118.186 126.754 116.836 125.245 114.49C123.734 112.145 123.6 109.168 124.894 106.697C126.188 104.225 128.708 102.642 131.494 102.551Z" fill="#5F2609"/>
<path d="M128.985 104.706C129.955 104.492 130.965 104.817 131.63 105.556C132.294 106.296 132.51 107.336 132.196 108.279C131.882 109.223 131.084 109.925 130.11 110.116C128.627 110.407 127.185 109.45 126.877 107.968C126.57 106.486 127.509 105.032 128.985 104.706Z" fill="#FCFCFB"/>
<path d="M133.376 111.908C134.08 111.749 134.78 112.19 134.942 112.895C135.103 113.6 134.665 114.303 133.961 114.466C133.254 114.63 132.55 114.188 132.388 113.481C132.227 112.773 132.669 112.069 133.376 111.908Z" fill="#FCFCFB"/>
<path d="M89.7004 92.779C93.889 92.0452 97.8752 94.8607 98.5905 99.058C99.3059 103.256 96.4779 107.236 92.2834 107.935C88.1137 108.63 84.1675 105.818 83.4564 101.645C82.7451 97.472 85.5365 93.5085 89.7004 92.779Z" fill="#5F2609"/>
<path d="M88.2269 94.7749C88.7766 94.7618 89.1116 94.772 89.6421 94.9509C90.4493 95.2264 91.1014 95.8329 91.4352 96.619C92.0876 98.1383 91.3256 99.6723 89.8674 100.33C85.9942 100.676 85.0813 96.8146 88.2269 94.7749Z" fill="#FCFCFB"/>
<path d="M92.1394 102.278C92.5675 102.025 93.1012 102.032 93.5219 102.298C93.9423 102.564 94.1787 103.043 94.134 103.539C94.0891 104.035 93.7706 104.465 93.3094 104.65C92.6667 104.91 91.9334 104.629 91.6268 104.007C91.3201 103.385 91.5436 102.632 92.1394 102.278Z" fill="#FCFCFB"/>
<path d="M91.9226 73.7739C93.8558 73.7235 96.6011 74.0714 98.16 75.3316C100.817 77.4791 101.299 82.2664 99.0635 84.8926C97.5379 86.6847 96.2176 87.2551 93.9477 87.4981C92.0437 87.6413 90.1042 87.9437 88.2663 87.1439C84.8505 85.6573 84.4232 81.9827 85.9291 78.9008C87.2946 76.1066 89.0194 74.8283 91.9226 73.7739Z" fill="#954F20"/>
<path d="M89.0227 152.847C90.6892 152.746 92.099 152.889 93.6574 153.562C95.854 154.522 97.566 156.336 98.3987 158.587C99.8725 162.513 97.6179 165.516 93.9398 166.843C86.7332 168.84 82.2016 162.879 84.7834 156.011C85.4102 154.343 87.388 153.371 89.0227 152.847Z" fill="#954F20"/>
<path d="M164.125 100.957C166.259 101.913 168.726 111.426 167.577 113.9L167.303 113.972C166.921 112.999 168.349 111.438 167.157 110.598C166.427 110.597 166.345 110.557 165.713 110.186C165.65 109.556 165.933 109.058 165.729 108.324C165.218 106.499 165.159 104.022 163.535 102.884C163.465 102.556 163.396 102.282 163.31 101.96C161.72 102.279 160.949 102.393 159.315 102.505C160.156 101.985 162.393 102.061 163.943 101.075L164.125 100.957Z" fill="#F6D688"/>
<path d="M67.0502 0.578896C72.313 -1.11345 77.7137 0.957662 79.9176 6.0959C81.9191 10.7624 81.8373 16.0228 77.784 19.4685C75.945 21.0321 74.3747 21.6528 72.2089 22.6021C73.8833 27.2788 72.508 32.2718 66.3022 31.358C65.5357 31.2452 64.8077 30.6991 64.1704 30.2503C63.1285 33.8248 59.7664 35.9443 56.2462 34.1376C54.5709 33.2778 53.2143 32.3078 51.7727 31.1C51.0402 34.1429 51.3817 38.3849 47.5745 39.4844C46.0164 39.9343 44.8088 39.6398 43.2752 39.2627C42.9485 40.208 42.7143 40.9172 41.8783 41.5204C39.8775 42.9643 37.5558 43.8322 35.3724 44.9501C33.085 46.1214 30.842 47.4517 28.4524 48.4071C27.3507 48.6038 26.3642 48.6786 25.2972 48.227C24.5478 47.914 23.8956 47.406 23.4085 46.7555C22.5012 45.5219 19.828 40.4214 19.1873 38.6709C17.7078 34.4473 9.59622 24.8329 15.9105 21.4245C19.5728 19.4478 24.3816 17.1516 28.2248 15.322C29.8975 14.5258 31.7331 15.3405 33.2492 16.1138C33.3463 13.4864 35.166 11.3596 37.7401 10.9064C40.4408 10.4308 42.9771 12.7319 44.9932 14.2133C45.5057 11.474 45.6976 8.29148 48.09 6.67266C49.2796 5.86998 50.7431 5.58352 52.1472 5.87868C53.8753 6.2473 54.9202 7.19932 55.849 8.62091C56.3424 2.76273 59.7405 2.95389 64.5292 1.29473C65.3418 1.01324 66.2166 0.803075 67.0502 0.578896ZM33.7734 24.1275C37.6884 25.5149 38.4727 28.3055 37.6124 32.1237C38.9917 31.9908 39.374 32.0726 40.7219 32.4078C41.076 30.7832 42.1554 26.5262 42.3185 25.1824C39.8724 23.7051 37.5463 21.9196 35.1803 20.511C34.8273 22.1522 34.6549 22.7138 33.7734 24.1275ZM54.6185 20.1715C55.839 21.2825 58.1731 22.5064 59.739 23.6022C60.3705 24.0156 60.9757 24.4338 61.6517 24.7697C60.1982 20.3122 58.2907 15.9179 56.923 11.4119C56.851 11.175 56.707 10.993 56.4992 10.8641C55.9228 13.9747 55.1456 17.1861 54.6185 20.1715Z" fill="#5F2609"/>
<path d="M67.7925 2.14388C72.3542 1.15955 76.4642 2.4811 78.3608 7.13399C79.2344 9.27683 79.4203 11.9262 78.4522 14.0992C76.5868 18.286 73.1285 19.0124 69.2781 20.509C70.0338 22.4731 71.3049 24.957 70.571 26.9282C69.198 28.46 66.8002 29.4718 65.2412 28.0638C64.0605 26.9974 62.7931 22.3016 62.2246 20.7366L59.4087 12.9645C58.6911 10.9876 57.831 9.16665 57.5791 7.09666C59.1349 4.07895 64.7042 3.05711 67.7925 2.14388Z" fill="#F4C15A"/>
<path d="M68.0171 8.26782C70.5855 7.61259 72.9772 8.22885 72.376 11.6754C72.1953 12.7114 71.1163 13.3988 70.2082 13.864C69.3387 14.1714 68.2992 14.4625 67.4064 14.7368C66.6946 12.8441 66.0224 11.0467 65.3982 9.1189C66.2047 8.82005 67.1865 8.53353 68.0171 8.26782Z" fill="#5F2609"/>
<path d="M68.5776 11.1121C69.2863 10.9379 70.1642 10.6504 70.6527 11.3049C70.5387 11.6494 70.4789 11.6343 70.1907 11.9038C69.5233 12.2161 68.9882 12.6936 68.4791 12.077C68.3835 11.4013 68.2841 11.5145 68.5776 11.1121Z" fill="#DCDADB"/>
<path d="M28.8284 16.9623C30.2803 16.6114 31.2924 16.7208 32.2306 18.0485C34.8289 21.725 28.9522 23.3121 26.6052 24.6019C25.4153 25.2559 24.3648 25.5959 23.2029 26.3927L23.0267 26.5151C24.4978 30.2955 24.2449 29.793 27.907 28.087C29.5307 27.3307 31.2324 26.3468 32.9199 25.7649C35.6389 26.2382 36.4327 28.0857 35.3547 30.523C33.2498 31.9516 29.3999 33.6669 27.0036 34.8555C27.5928 36.2989 27.8969 37.1041 28.8981 38.2861C31.9835 36.955 35.1773 34.7531 38.3296 33.9434C38.728 33.841 39.36 34.0251 39.7633 34.1425C39.7949 34.168 39.8278 34.1918 39.8581 34.2187C40.6215 34.8925 41.2378 35.9059 41.2442 36.9475C41.2496 37.8192 40.8357 38.5903 40.1988 39.1663C39.8252 39.5041 29.3027 44.9953 28.5275 45.3103C27.8257 45.5956 27.0661 45.8122 26.3016 45.7632C25.7087 45.7251 25.2132 45.5262 24.8339 45.0574C23.2572 43.1087 19.7268 35.2752 18.3681 32.536C17.5375 30.8616 16.5183 29.2314 15.8231 27.4975C15.5746 26.8774 15.0457 25.4401 15.2404 24.7732C15.4548 24.0396 16.3757 23.2966 16.9936 22.8788C18.3192 21.9824 19.9645 21.3175 21.4117 20.6165C23.9009 19.4332 26.3733 18.2151 28.8284 16.9623Z" fill="#F3BF57"/>
<path d="M50.0776 7.64081C52.3031 7.18904 53.1655 7.82559 54.2474 9.68997C54.0649 12.7311 52.8557 17.4358 52.1837 20.651C54.2772 22.3724 61.7705 26.2298 61.7562 27.8251C61.6744 37.009 51.2302 27.9949 50.2655 27.3208C49.7155 30.0561 49.5142 35.0875 47.1475 36.6338C46.2612 36.8822 45.7357 36.9302 44.8149 37.0328C44.0957 36.7291 43.2293 36.2897 42.7524 35.6556C41.425 33.8903 44.0739 26.27 44.3426 23.7919C42.4061 22.199 33.2949 17.8314 35.1247 14.7814C38.2777 9.52598 42.666 15.3956 46.0934 16.9839C47.413 13.7 46.3959 9.20819 50.0776 7.64081Z" fill="#F3BF57"/>
<path d="M1.81802 55.146C5.96165 50.2395 8.82564 50.2395 13.6222 54.3396C14.2191 53.8931 15.26 53.1498 15.9156 52.8807C20.3586 51.0569 25.719 55.3667 25.7339 59.9262C25.7432 62.517 24.3138 63.8585 22.6843 65.5163C24.7593 67.9401 25.3627 70.1342 23.938 73.0925C20.2376 77.9408 16.7674 78.0672 12.4241 73.9127C8.39041 76.5044 5.2919 76.3356 2.09628 72.6611C-1.1747 68.901 -0.464976 65.571 3.16387 62.6446C1.29506 59.6248 0.688039 58.7284 1.81802 55.146Z" fill="#5F2609"/>
<path d="M4.27038 56.1309C4.3939 55.9979 4.51881 55.8663 4.64555 55.7366C8.42346 51.88 10.3486 55.2426 13.07 58.183C14.5978 56.8945 16.2484 55.1678 18.3531 55.0558C21.3876 54.8958 21.9171 58.0933 21.9353 60.4165C20.8202 61.5787 19.0713 63.0165 17.8238 64.1038C19.0403 65.641 20.2139 67.0262 21.179 68.7379C21.0067 69.5392 20.7652 70.0778 20.4658 70.8313C20.133 71.1845 19.7905 71.531 19.4414 71.8677C15.9329 75.2077 13.707 71.3764 11.451 68.8039C10.352 69.7245 7.90309 72.0388 6.53442 72.0345C4.62586 72.0155 2.29643 69.0209 2.57427 67.264C2.79297 65.8885 5.65289 63.7566 6.76684 62.7983C5.3083 60.3703 2.93732 59.0793 4.27038 56.1309Z" fill="#F3BF57"/>
<path d="M186.098 54.8341C195.012 54.2255 194.673 68.1685 186.01 69.5117C177.31 70.2311 176.623 56.6118 186.098 54.8341Z" fill="#EEB039"/>
<path d="M184.025 57.6648C184.894 57.0256 186.391 56.5502 187.456 56.7371C188.452 56.9165 189.326 57.5121 189.856 58.3752C191.674 61.2879 190.257 65.4986 187.294 66.9435C186.576 67.2929 186.038 67.5749 185.286 67.8653C183.612 67.2105 182.306 66.6257 181.513 64.838C180.618 62.8247 181.422 59.7949 183.116 58.4091L184.025 57.6648Z" fill="#F3BF57"/>
<path d="M184.025 57.6648C184.412 57.6493 184.856 57.6555 185.217 57.615C187.738 57.3324 189.044 60.3003 186.979 61.8424C183.421 64.4994 182.53 61.793 183.054 58.7525C183.073 58.6379 183.094 58.5233 183.116 58.4091L184.025 57.6648Z" fill="#FAEEB9"/>
<path d="M74.6793 44.3127C76.3561 44.2081 77.562 44.1988 79.1129 45.0029C82.7054 46.8517 84.79 52.1149 81.9811 55.4835C81.0239 56.6315 79.9684 57.1245 78.5739 57.5357C77.0559 57.9417 75.2626 57.9 73.8378 57.1765C69.6366 55.0427 68.4904 47.6866 72.7778 45.041C73.2908 44.7245 74.0936 44.4948 74.6793 44.3127Z" fill="#EEB039"/>
<path d="M73.6706 46.8667C78.8554 43.685 84.342 52.4686 79.1473 55.1166C76.4957 56.4685 74.1117 55.5892 72.6776 52.8438C72.0135 50.6314 71.9836 48.6012 73.6706 46.8667Z" fill="#F3BF57"/>
<path d="M73.6706 46.8667C75.1316 47.0393 75.9568 46.9668 76.6698 48.4087C76.8189 50.0133 76.7689 50.3104 76.113 51.7839C74.8562 53.2157 74.4666 53.12 72.6776 52.8438C72.0135 50.6314 71.9836 48.6012 73.6706 46.8667Z" fill="#FAEEB9"/>
<path d="M73.6706 46.8667C75.1316 47.0393 75.9568 46.9668 76.6698 48.4087C75.5979 47.7257 74.3139 47.0977 73.461 48.5581C73.1346 49.1224 73.0522 49.7957 73.2332 50.4222C73.5709 51.5912 74.2502 52.0523 75.406 51.8831L76.113 51.7839C74.8562 53.2157 74.4666 53.12 72.6776 52.8438C72.0135 50.6314 71.9836 48.6012 73.6706 46.8667Z" fill="#F6D688"/>
<path d="M45.6747 76.2089C53.0988 76.9167 53.0235 87.8754 46.674 89.2572C40.0488 89.1671 38.4606 77.0432 45.6747 76.2089Z" fill="#EEB039"/>
<path d="M44.8369 78.2648C45.8048 78.1068 47.1797 78.3365 47.8808 78.9083C50.0753 80.6987 49.3534 86.8136 46.174 87.1862C45.7181 87.2397 45.1446 86.9454 44.8468 86.6189C43.6777 84.9679 42.1661 82.6644 43.2966 80.6303C43.6297 79.3644 43.8968 79.0839 44.8369 78.2648Z" fill="#F3BF57"/>
<path d="M44.8369 78.2648C45.2663 78.5939 45.8585 79.0774 46.3041 79.35C46.5281 80.5424 46.7475 82.6734 44.9609 83.1863C43.4959 83.6069 43.3629 81.7108 43.2966 80.6303C43.6297 79.3644 43.8968 79.0839 44.8369 78.2648Z" fill="#F6D688"/>
<path d="M191.246 89.4614C198.214 89.934 195.993 97.6316 191.838 100.153C191.151 100.569 190.415 100.772 189.651 101.002C182.624 101.782 184.347 90.7693 191.246 89.4614Z" fill="#EEB039"/>
<path d="M192.099 91.5741C196.705 93.4979 190.726 100.045 188.075 98.7085C186.262 97.7942 187.736 93.9458 189.161 92.7115C190.348 91.7403 190.587 91.6858 192.099 91.5741Z" fill="#F3BF57"/>
<path d="M189.161 92.7115C190.348 91.7403 190.587 91.6858 192.099 91.5741C192.388 93.1908 191.79 95.1685 189.851 94.7047C188.989 94.0103 189.157 93.7877 189.161 92.7115Z" fill="#F6D688"/>
<path d="M91.1324 33.9643C95.2868 33.7803 96.2828 39.5118 92.759 41.0178C91.9519 41.0478 91.3623 41.0461 90.5875 40.7151C89.8363 40.4025 89.2465 39.7947 88.9561 39.0338C88.3649 37.4602 88.8458 36.1142 89.496 34.7169L91.1324 33.9643Z" fill="#EEB039"/>
<path d="M91.3371 35.7581C92.7741 36.6073 92.8292 37.8892 91.8882 39.1634C90.3029 38.4621 90.0495 36.8989 91.3371 35.7581Z" fill="#F3BF57"/>
<path d="M172.048 49.397C175.457 49.3145 174.737 51.9529 172.84 53.7077C169.356 54.0361 170.077 50.9979 172.048 49.397Z" fill="#F3BF57" fill-opacity="0.988235"/>
<path d="M203.878 51.6316C206.557 51.9708 206.553 55.46 204.263 56.4173C201.149 56.0341 201.973 53.1181 203.878 51.6316Z" fill="#EEB039"/>
<path d="M102.469 34.2587C102.869 34.0113 103.372 34.0006 103.782 34.2307C104.193 34.4608 104.446 34.8957 104.444 35.3666C104.442 35.8375 104.186 36.2705 103.774 36.4976C103.158 36.8367 102.385 36.6225 102.031 36.0151C101.677 35.4076 101.872 34.6283 102.469 34.2587Z" fill="#EEB039" fill-opacity="0.960784"/>
</svg>
