<svg width="19" height="21" viewBox="0 0 19 21" fill="none" xmlns="http://www.w3.org/2000/svg">
<path d="M8.35547 5.03112H10.332V10.0624H17.6992C17.9613 10.0624 18.2127 9.95825 18.398 9.77291C18.5834 9.58757 18.6875 9.3362 18.6875 9.07409V6.0194C18.6875 5.75729 18.5834 5.50592 18.398 5.32058C18.2127 5.13524 17.9613 5.03112 17.6992 5.03112H15.012C15.3759 4.28165 15.4606 3.42698 15.251 2.62064C15.0414 1.81429 14.5511 1.10911 13.8683 0.631756C13.1855 0.154399 12.3548 -0.0638497 11.5255 0.0162111C10.6962 0.096272 9.92266 0.469396 9.34375 1.06856C8.76385 0.47268 7.99093 0.10244 7.16316 0.0240171C6.33538 -0.0544061 5.50669 0.164099 4.8252 0.640477C4.14371 1.11686 3.65383 1.82006 3.44313 2.62441C3.23243 3.42875 3.31464 4.28181 3.67506 5.03112H0.988281C0.726173 5.03112 0.474799 5.13524 0.289461 5.32058C0.104122 5.50592 0 5.75729 0 6.0194V9.07409C0 9.3362 0.104122 9.58757 0.289461 9.77291C0.381231 9.86468 0.490179 9.93748 0.610082 9.98714C0.729986 10.0368 0.858498 10.0624 0.988281 10.0624H8.35547V5.03112ZM10.332 3.50378C10.332 3.2017 10.4216 2.9064 10.5894 2.65523C10.7573 2.40406 10.9958 2.2083 11.2749 2.0927C11.554 1.97709 11.8611 1.94685 12.1573 2.00578C12.4536 2.06471 12.7258 2.21018 12.9394 2.42378C13.153 2.63738 13.2984 2.90953 13.3574 3.20581C13.4163 3.50208 13.3861 3.80918 13.2705 4.08827C13.1549 4.36735 12.9591 4.60589 12.7079 4.77372C12.4568 4.94154 12.1615 5.03112 11.8594 5.03112H10.332V3.50378ZM5.30078 3.50378C5.30078 3.0987 5.4617 2.71021 5.74813 2.42378C6.03456 2.13735 6.42305 1.97643 6.82812 1.97643C7.2332 1.97643 7.62169 2.13735 7.90812 2.42378C8.19455 2.71021 8.35547 3.0987 8.35547 3.50378V5.03112H6.82812C6.42305 5.03112 6.03456 4.8702 5.74813 4.58377C5.4617 4.29734 5.30078 3.90885 5.30078 3.50378ZM10.332 20.1249H16.2617C16.5238 20.1249 16.7752 20.0207 16.9605 19.8354C17.1459 19.6501 17.25 19.3987 17.25 19.1366V11.4999H10.332V20.1249ZM1.4375 19.1366C1.4375 19.3987 1.54162 19.6501 1.72696 19.8354C1.9123 20.0207 2.16367 20.1249 2.42578 20.1249H8.35547V11.4999H1.4375V19.1366Z" fill="#5D3300"/>
</svg>
