<svg width="24" height="18" viewBox="0 0 24 18" fill="none" xmlns="http://www.w3.org/2000/svg">
<path d="M22.6562 15.625H21.875V10.1562C21.875 9.74185 21.7104 9.34442 21.4174 9.0514C21.1243 8.75837 20.7269 8.59375 20.3125 8.59375H16.4062V1.5625C16.4062 1.1481 16.2416 0.750671 15.9486 0.457646C15.6556 0.16462 15.2582 0 14.8438 0H8.59375C8.17935 0 7.78192 0.16462 7.4889 0.457646C7.19587 0.750671 7.03125 1.1481 7.03125 1.5625V4.6875H3.125C2.7106 4.6875 2.31317 4.85212 2.02015 5.14515C1.72712 5.43817 1.5625 5.8356 1.5625 6.25V15.625H0.78125C0.57405 15.625 0.375336 15.7073 0.228823 15.8538C0.08231 16.0003 0 16.199 0 16.4062C0 16.6135 0.08231 16.8122 0.228823 16.9587C0.375336 17.1052 0.57405 17.1875 0.78125 17.1875H22.6562C22.8635 17.1875 23.0622 17.1052 23.2087 16.9587C23.3552 16.8122 23.4375 16.6135 23.4375 16.4062C23.4375 16.199 23.3552 16.0003 23.2087 15.8538C23.0622 15.7073 22.8635 15.625 22.6562 15.625ZM7.03125 15.625H3.125V6.25H7.03125V15.625ZM12.8906 9.375C12.8906 9.5822 12.8083 9.78092 12.6618 9.92743C12.5153 10.0739 12.3166 10.1562 12.1094 10.1562C11.9022 10.1562 11.7035 10.0739 11.5569 9.92743C11.4104 9.78092 11.3281 9.5822 11.3281 9.375V6.55273L11.1846 6.60059C11.0872 6.63303 10.9845 6.64599 10.8821 6.63871C10.7798 6.63144 10.6799 6.60408 10.5881 6.5582C10.4963 6.51231 10.4145 6.4488 10.3473 6.37129C10.28 6.29378 10.2287 6.20378 10.1963 6.10645C10.1638 6.00911 10.1509 5.90633 10.1582 5.80399C10.1654 5.70164 10.1928 5.60174 10.2387 5.50996C10.2846 5.41819 10.3481 5.33636 10.4256 5.26913C10.5031 5.20191 10.5931 5.15061 10.6904 5.11816L11.8623 4.72754C11.9797 4.68839 12.1048 4.67771 12.2272 4.69638C12.3496 4.71505 12.4658 4.76253 12.5662 4.83492C12.6666 4.90731 12.7484 5.00253 12.8048 5.11273C12.8612 5.22293 12.8906 5.34495 12.8906 5.46875V9.375ZM20.3125 15.625H16.4062V10.1562H20.3125V15.625Z" fill="#5D3300"/>
</svg>
