<svg width="330" height="273" viewBox="0 0 330 273" fill="none" xmlns="http://www.w3.org/2000/svg">
<rect width="330" height="273" rx="24" fill="white"/>
<path fill-rule="evenodd" clip-rule="evenodd" d="M306 25.5915L309.977 29.5687C310.188 29.7798 310.475 29.8983 310.773 29.8983C311.071 29.8983 311.358 29.7798 311.569 29.5687C311.78 29.3577 311.898 29.0714 311.898 28.773C311.898 28.4745 311.78 28.1883 311.569 27.9772L307.59 24L311.568 20.0227C311.672 19.9182 311.755 19.7942 311.812 19.6576C311.868 19.5211 311.897 19.3748 311.897 19.2271C311.897 19.0793 311.868 18.933 311.812 18.7965C311.755 18.66 311.672 18.536 311.568 18.4316C311.463 18.3271 311.339 18.2443 311.203 18.1878C311.066 18.1313 310.92 18.1022 310.772 18.1022C310.624 18.1023 310.478 18.1314 310.341 18.188C310.205 18.2446 310.081 18.3275 309.977 18.432L306 22.4092L302.023 18.432C301.919 18.3245 301.795 18.2387 301.658 18.1797C301.52 18.1207 301.373 18.0895 301.223 18.0882C301.074 18.0868 300.926 18.1152 300.788 18.1717C300.649 18.2282 300.524 18.3117 300.418 18.4173C300.312 18.5228 300.229 18.6484 300.172 18.7866C300.116 18.9249 300.087 19.073 300.088 19.2224C300.089 19.3718 300.12 19.5194 300.179 19.6567C300.238 19.794 300.324 19.9181 300.431 20.022L304.41 24L300.432 27.978C300.325 28.0818 300.239 28.206 300.18 28.3432C300.121 28.4805 300.09 28.6282 300.089 28.7775C300.088 28.9269 300.116 29.075 300.173 29.2133C300.23 29.3515 300.313 29.4771 300.419 29.5827C300.525 29.6882 300.65 29.7717 300.788 29.8282C300.927 29.8847 301.075 29.9131 301.224 29.9117C301.374 29.9104 301.521 29.8793 301.658 29.8202C301.796 29.7612 301.92 29.6755 302.024 29.568L306 25.5915Z" fill="#888880" fill-opacity="0.8"/>
<rect x="130" y="22" width="70" height="70" rx="35" fill="#D7FFC2"/>
<path d="M183.756 64.4542C183.295 63.2907 182.686 62.1914 181.944 61.1834C180.999 60.0589 180.361 58.71 180.09 57.2667C180.09 51.2459 180.09 49.2042 176.798 45.2667C175.707 43.9808 174.358 42.9376 172.84 42.2042L171.319 41.4751C171.234 41.4232 171.162 41.3518 171.11 41.2667C171.059 41.2069 171.023 41.1354 171.006 41.0584C170.785 39.6285 170.035 38.3339 168.904 37.431C167.774 36.5281 166.345 36.0828 164.902 36.1834C163.505 36.1271 162.136 36.5798 161.047 37.4572C159.959 38.3347 159.227 39.5773 158.985 40.9542C158.963 41.0626 158.913 41.1633 158.84 41.2459C158.789 41.3136 158.725 41.3703 158.652 41.4126L157.027 42.2042C155.492 42.9302 154.134 43.9825 153.048 45.2876C149.777 49.2042 149.777 51.2459 149.777 57.2667C149.535 58.6225 148.946 59.8926 148.069 60.9542C147.303 61.9879 146.686 63.124 146.235 64.3292C145.955 65.1411 145.859 66.005 145.952 66.8588C146.046 67.7125 146.328 68.5349 146.777 69.2667C147.252 69.8724 147.87 70.351 148.575 70.66C149.281 70.969 150.051 71.0987 150.819 71.0376H156.694C156.784 71.5987 156.937 72.1403 157.152 72.6626C157.565 73.698 158.19 74.6355 158.985 75.4126C159.756 76.2042 160.685 76.823 161.715 77.2251C162.673 77.6167 163.7 77.823 164.735 77.8292H165.069C167.248 77.8146 169.334 76.9471 170.881 75.4126C171.66 74.6317 172.276 73.7041 172.694 72.6834C172.905 72.1501 173.065 71.6015 173.173 71.0376H179.298C180.019 71.0299 180.729 70.8664 181.381 70.5584C182.113 70.1889 182.742 69.6451 183.215 68.9751C183.685 68.3036 183.973 67.5208 184.048 66.7042C184.141 65.9416 184.04 65.1679 183.756 64.4542ZM164.86 64.8084C164.446 64.8084 164.049 64.6438 163.756 64.3508C163.463 64.0577 163.298 63.6603 163.298 63.2459C163.298 62.8315 163.463 62.4341 163.756 62.141C164.049 61.848 164.446 61.6834 164.86 61.6834C165.275 61.6834 165.672 61.848 165.965 62.141C166.258 62.4341 166.423 62.8315 166.423 63.2459C166.423 63.6603 166.258 64.0577 165.965 64.3508C165.672 64.6438 165.275 64.8084 164.86 64.8084ZM169.36 55.3917C169.117 55.9565 168.763 56.4667 168.319 56.8917C167.856 57.3022 167.319 57.6209 166.735 57.8292C166.665 57.8676 166.607 57.9255 166.569 57.9959C166.503 58.0708 166.466 58.1669 166.465 58.2667V58.9959C166.465 59.4103 166.3 59.8077 166.007 60.1008C165.714 60.3938 165.316 60.5584 164.902 60.5584C164.488 60.5584 164.09 60.3938 163.797 60.1008C163.504 59.8077 163.34 59.4103 163.34 58.9959V58.2042C163.35 57.459 163.582 56.7337 164.006 56.1209C164.431 55.54 165.018 55.0979 165.694 54.8501C165.876 54.7828 166.045 54.684 166.194 54.5584C166.308 54.4319 166.406 54.292 166.485 54.1417C166.53 53.9709 166.53 53.7917 166.485 53.6209C166.483 53.4424 166.448 53.2658 166.381 53.1001C166.251 52.9078 166.089 52.7388 165.902 52.6001C165.69 52.438 165.438 52.3371 165.173 52.3084C164.777 52.2238 164.363 52.2829 164.006 52.4751C163.655 52.645 163.375 52.9325 163.215 53.2876C163.132 53.4786 163.013 53.6514 162.863 53.7957C162.713 53.94 162.536 54.053 162.342 54.1282C162.147 54.2033 161.94 54.239 161.732 54.2332C161.524 54.2274 161.32 54.1802 161.13 54.0944C160.94 54.0086 160.77 53.8859 160.628 53.7335C160.487 53.5811 160.377 53.4019 160.305 53.2066C160.233 53.0112 160.201 52.8035 160.211 52.5957C160.22 52.3878 160.271 52.1839 160.36 51.9959C160.819 51.0133 161.588 50.2084 162.548 49.7042C163.513 49.1971 164.621 49.0284 165.694 49.2251C166.44 49.3397 167.152 49.6167 167.777 50.0376C168.385 50.4834 168.883 51.0584 169.235 51.7251C169.519 52.2947 169.669 52.9219 169.673 53.5584C169.702 54.1855 169.596 54.8105 169.36 55.3917Z" fill="#43BB65"/>
<path d="M104.574 118.32H106.874V119.66C106.874 120.46 106.761 121.24 106.534 122C106.321 122.747 106.001 123.453 105.574 124.12C105.148 124.787 104.621 125.393 103.994 125.94C103.381 126.473 102.674 126.933 101.874 127.32C101.074 127.707 100.194 127.993 99.2342 128.18L98.0942 125.96C98.9209 125.813 99.6742 125.593 100.354 125.3C101.048 124.993 101.654 124.627 102.174 124.2C102.694 123.773 103.134 123.313 103.494 122.82C103.854 122.313 104.121 121.793 104.294 121.26C104.481 120.713 104.574 120.18 104.574 119.66V118.32ZM105.094 118.32H107.414V119.66C107.414 120.193 107.501 120.733 107.674 121.28C107.861 121.827 108.128 122.353 108.474 122.86C108.834 123.353 109.274 123.807 109.794 124.22C110.314 124.633 110.914 124.993 111.594 125.3C112.274 125.593 113.041 125.813 113.894 125.96L112.754 128.18C111.794 127.993 110.914 127.707 110.114 127.32C109.314 126.933 108.601 126.473 107.974 125.94C107.361 125.407 106.834 124.807 106.394 124.14C105.968 123.473 105.641 122.76 105.414 122C105.201 121.24 105.094 120.46 105.094 119.66V118.32ZM97.6942 131.34H114.474V133.52H97.6942V131.34ZM117.853 126.42H130.873V128.52H117.853V126.42ZM115.893 131.6H132.673V133.74H115.893V131.6ZM122.933 127.48H125.593V132.54H122.933V127.48ZM117.853 118.5H130.733V120.64H120.553V127.2H117.853V118.5ZM119.733 122.44H130.313V124.5H119.733V122.44ZM146.811 117.26H149.471V129.9H146.811V117.26ZM135.051 125.88H136.651C137.944 125.88 139.084 125.867 140.071 125.84C141.058 125.813 141.964 125.76 142.791 125.68C143.631 125.587 144.471 125.467 145.311 125.32L145.571 127.42C144.718 127.58 143.858 127.707 142.991 127.8C142.124 127.893 141.184 127.953 140.171 127.98C139.158 128.007 137.984 128.02 136.651 128.02H135.051V125.88ZM135.011 118.36H143.551V124.1H137.651V126.86H135.051V122.14H140.911V120.48H135.011V118.36ZM141.831 128.96H144.071V129.28C144.071 130.107 143.911 130.873 143.591 131.58C143.284 132.273 142.824 132.907 142.211 133.48C141.611 134.04 140.871 134.513 139.991 134.9C139.111 135.287 138.104 135.56 136.971 135.72L135.991 133.68C136.991 133.56 137.851 133.353 138.571 133.06C139.304 132.767 139.911 132.427 140.391 132.04C140.884 131.64 141.244 131.207 141.471 130.74C141.711 130.26 141.831 129.773 141.831 129.28V128.96ZM142.311 128.96H144.571V129.28C144.571 129.773 144.684 130.26 144.911 130.74C145.151 131.207 145.504 131.64 145.971 132.04C146.451 132.427 147.058 132.767 147.791 133.06C148.524 133.353 149.391 133.56 150.391 133.68L149.411 135.72C148.264 135.56 147.251 135.287 146.371 134.9C145.491 134.513 144.751 134.04 144.151 133.48C143.551 132.907 143.091 132.273 142.771 131.58C142.464 130.873 142.311 130.107 142.311 129.28V128.96ZM156.621 131.44H173.401V133.6H156.621V131.44ZM163.581 127.32H166.241V132.02H163.581V127.32ZM163.501 118.28H165.821V119.62C165.821 120.407 165.707 121.167 165.481 121.9C165.267 122.633 164.941 123.327 164.501 123.98C164.074 124.633 163.547 125.227 162.921 125.76C162.294 126.28 161.574 126.727 160.761 127.1C159.961 127.473 159.074 127.747 158.101 127.92L157.001 125.7C157.854 125.567 158.621 125.353 159.301 125.06C159.981 124.767 160.581 124.42 161.101 124.02C161.634 123.607 162.074 123.16 162.421 122.68C162.781 122.187 163.047 121.68 163.221 121.16C163.407 120.64 163.501 120.127 163.501 119.62V118.28ZM164.001 118.28H166.341V119.62C166.341 120.14 166.427 120.66 166.601 121.18C166.787 121.7 167.054 122.2 167.401 122.68C167.761 123.16 168.201 123.607 168.721 124.02C169.241 124.42 169.841 124.767 170.521 125.06C171.214 125.353 171.981 125.567 172.821 125.7L171.721 127.92C170.747 127.733 169.861 127.46 169.061 127.1C168.261 126.727 167.547 126.28 166.921 125.76C166.294 125.24 165.761 124.66 165.321 124.02C164.894 123.367 164.567 122.673 164.341 121.94C164.114 121.193 164.001 120.42 164.001 119.62V118.28ZM179.159 118.1H181.359V119.86C181.359 121.02 181.166 122.133 180.779 123.2C180.393 124.253 179.806 125.173 179.019 125.96C178.233 126.747 177.239 127.333 176.039 127.72L174.739 125.6C175.513 125.36 176.179 125.04 176.739 124.64C177.299 124.227 177.753 123.767 178.099 123.26C178.459 122.74 178.726 122.193 178.899 121.62C179.073 121.033 179.159 120.447 179.159 119.86V118.1ZM179.699 118.1H181.859V119.86C181.859 120.433 181.946 121 182.119 121.56C182.293 122.107 182.546 122.627 182.879 123.12C183.226 123.6 183.673 124.027 184.219 124.4C184.766 124.773 185.419 125.073 186.179 125.3L184.879 127.4C183.693 127.027 182.713 126.467 181.939 125.72C181.179 124.973 180.613 124.1 180.239 123.1C179.879 122.087 179.699 121.007 179.699 119.86V118.1ZM177.579 129.1H190.199V135.78H187.539V131.22H177.579V129.1ZM187.539 117.26H190.199V128.3H187.539V117.26ZM209.249 117.26H211.909V126.5H209.249V117.26ZM210.849 120.8H214.349V122.96H210.849V120.8ZM199.689 127.22H211.909V132.3H202.349V134.52H199.709V130.38H209.289V129.28H199.689V127.22ZM199.709 133.5H212.449V135.58H199.709V133.5ZM202.389 117.78C203.349 117.78 204.196 117.96 204.929 118.32C205.676 118.68 206.262 119.173 206.689 119.8C207.129 120.427 207.349 121.153 207.349 121.98C207.349 122.793 207.129 123.52 206.689 124.16C206.262 124.8 205.676 125.3 204.929 125.66C204.196 126.007 203.349 126.18 202.389 126.18C201.456 126.18 200.616 126.007 199.869 125.66C199.136 125.3 198.549 124.8 198.109 124.16C197.682 123.52 197.469 122.793 197.469 121.98C197.469 121.153 197.682 120.427 198.109 119.8C198.549 119.173 199.136 118.68 199.869 118.32C200.616 117.96 201.456 117.78 202.389 117.78ZM202.409 119.92C201.956 119.92 201.549 120.007 201.189 120.18C200.829 120.34 200.542 120.573 200.329 120.88C200.129 121.173 200.029 121.54 200.029 121.98C200.029 122.42 200.129 122.8 200.329 123.12C200.542 123.427 200.829 123.66 201.189 123.82C201.549 123.98 201.956 124.06 202.409 124.06C202.862 124.06 203.269 123.98 203.629 123.82C203.989 123.66 204.269 123.427 204.469 123.12C204.669 122.8 204.769 122.42 204.769 121.98C204.769 121.54 204.669 121.173 204.469 120.88C204.269 120.573 203.989 120.34 203.629 120.18C203.269 120.007 202.862 119.92 202.409 119.92ZM228.267 117.24H230.927V128.22H228.267V117.24ZM216.507 125.48H218.107C219.321 125.48 220.407 125.467 221.367 125.44C222.327 125.413 223.241 125.367 224.107 125.3C224.974 125.22 225.847 125.107 226.727 124.96L227.027 127.08C226.121 127.227 225.214 127.347 224.307 127.44C223.414 127.52 222.467 127.573 221.467 127.6C220.467 127.613 219.347 127.62 218.107 127.62H216.507V125.48ZM216.467 118.3H225.007V123.9H219.107V126.74H216.507V121.9H222.367V120.42H216.467V118.3ZM218.607 129.06H230.927V135.58H218.607V129.06ZM228.327 131.14H221.227V133.48H228.327V131.14Z" fill="black"/>
<path d="M79.4067 157.028V158L72.6027 158.336L72.4467 157.256L79.4067 157.028ZM72.7827 154.664H79.6467V155.684H72.7827V154.664ZM71.5707 159.872H81.4827V160.904H71.5707V159.872ZM75.9027 160.664H77.1507V164.984H75.9027V160.664ZM79.0947 154.664H80.3067V155.66C80.3067 156.06 80.2987 156.484 80.2827 156.932C80.2747 157.372 80.2387 157.856 80.1747 158.384C80.1107 158.912 80.0067 159.5 79.8627 160.148L78.6387 160.004C78.8627 159.084 78.9947 158.28 79.0347 157.592C79.0747 156.896 79.0947 156.252 79.0947 155.66V154.664ZM87.1457 155.12H88.3697C88.3697 155.936 88.2897 156.728 88.1297 157.496C87.9777 158.256 87.7177 158.984 87.3497 159.68C86.9817 160.376 86.4657 161.028 85.8017 161.636C85.1457 162.236 84.3177 162.784 83.3177 163.28L82.6457 162.296C83.5017 161.872 84.2177 161.412 84.7937 160.916C85.3777 160.412 85.8417 159.872 86.1857 159.296C86.5297 158.712 86.7737 158.088 86.9177 157.424C87.0697 156.752 87.1457 156.036 87.1457 155.276V155.12ZM83.2697 155.12H87.7817V156.128H83.2697V155.12ZM87.0617 157.832V158.792L82.8977 159.176L82.7057 158.096L87.0617 157.832ZM90.2897 154.016H91.5497V164.984H90.2897V154.016ZM93.4088 159.044H103.345V159.968H93.4088V159.044ZM94.5608 160.712H102.121V163.16H95.8208V164.3H94.5848V162.344H100.885V161.576H94.5608V160.712ZM94.5848 164H102.457V164.876H94.5848V164ZM94.6448 154.28H102.097V156.704H95.9048V157.76H94.6688V155.888H100.849V155.156H94.6448V154.28ZM94.6688 157.484H102.289V158.36H94.6688V157.484ZM107.287 154.964H112.411V160.148H107.287V154.964ZM111.187 155.972H108.523V159.14H111.187V155.972ZM114.211 154.016H115.459V162.044H114.211V154.016ZM115.087 157.28H117.007V158.324H115.087V157.28ZM108.523 163.748H115.915V164.768H108.523V163.748ZM108.523 161.264H109.783V164.228H108.523V161.264ZM117.834 158.456H127.746V159.464H117.834V158.456ZM119.106 156.704H126.57V157.7H119.106V156.704ZM119.106 154.316H126.462V155.324H120.354V157.532H119.106V154.316ZM118.986 160.268H126.486V162.992H120.246V164.168H119.01V162.08H125.25V161.228H118.986V160.268ZM119.01 163.904H126.798V164.876H119.01V163.904ZM131.693 154.82C132.237 154.82 132.717 154.98 133.133 155.3C133.549 155.62 133.877 156.068 134.117 156.644C134.357 157.22 134.477 157.9 134.477 158.684C134.477 159.476 134.357 160.164 134.117 160.748C133.877 161.324 133.549 161.772 133.133 162.092C132.717 162.404 132.237 162.56 131.693 162.56C131.157 162.56 130.677 162.404 130.253 162.092C129.837 161.772 129.509 161.324 129.269 160.748C129.037 160.164 128.921 159.476 128.921 158.684C128.921 157.9 129.037 157.22 129.269 156.644C129.509 156.068 129.837 155.62 130.253 155.3C130.677 154.98 131.157 154.82 131.693 154.82ZM131.693 155.96C131.381 155.96 131.105 156.068 130.865 156.284C130.633 156.5 130.449 156.812 130.313 157.22C130.185 157.628 130.121 158.116 130.121 158.684C130.121 159.26 130.185 159.752 130.313 160.16C130.449 160.568 130.633 160.884 130.865 161.108C131.105 161.324 131.381 161.432 131.693 161.432C132.013 161.432 132.289 161.324 132.521 161.108C132.761 160.884 132.945 160.568 133.073 160.16C133.209 159.752 133.277 159.26 133.277 158.684C133.277 158.116 133.209 157.628 133.073 157.22C132.945 156.812 132.761 156.5 132.521 156.284C132.289 156.068 132.013 155.96 131.693 155.96ZM136.589 154.016H137.849V165.008H136.589V154.016ZM134.081 158.096H137.129V159.116H134.081V158.096ZM143.52 154.184H144.768V155.084H149.616V154.184H150.864V157.832H143.52V154.184ZM144.768 156.02V156.884H149.616V156.02H144.768ZM142.236 158.732H152.148V159.728H142.236V158.732ZM146.544 157.4H147.792V159.008H146.544V157.4ZM143.4 160.484H150.9V163.076H144.66V164.276H143.424V162.188H149.664V161.42H143.4V160.484ZM143.424 163.928H151.212V164.888H143.424V163.928ZM160.026 154.376H161.13V154.952C161.13 155.368 161.058 155.768 160.914 156.152C160.77 156.528 160.562 156.876 160.29 157.196C160.026 157.516 159.706 157.804 159.33 158.06C158.962 158.316 158.554 158.532 158.106 158.708C157.658 158.876 157.178 159 156.666 159.08L156.174 158.072C156.622 158.008 157.038 157.908 157.422 157.772C157.814 157.628 158.17 157.456 158.49 157.256C158.81 157.048 159.082 156.82 159.306 156.572C159.538 156.324 159.714 156.064 159.834 155.792C159.962 155.52 160.026 155.24 160.026 154.952V154.376ZM160.266 154.376H161.358V154.952C161.358 155.232 161.418 155.508 161.538 155.78C161.666 156.052 161.846 156.312 162.078 156.56C162.31 156.808 162.586 157.036 162.906 157.244C163.226 157.444 163.578 157.616 163.962 157.76C164.354 157.904 164.77 158.008 165.21 158.072L164.718 159.08C164.214 159 163.738 158.872 163.29 158.696C162.842 158.52 162.43 158.304 162.054 158.048C161.686 157.792 161.366 157.504 161.094 157.184C160.83 156.864 160.626 156.516 160.482 156.14C160.338 155.764 160.266 155.368 160.266 154.952V154.376ZM160.038 160.88H161.286V164.996H160.038V160.88ZM155.73 160.1H165.642V161.132H155.73V160.1ZM171.84 160.736H172.8V161.228C172.8 161.732 172.708 162.224 172.524 162.704C172.34 163.176 172.064 163.6 171.696 163.976C171.336 164.344 170.88 164.632 170.328 164.84L169.704 163.916C170.176 163.748 170.568 163.52 170.88 163.232C171.2 162.944 171.44 162.624 171.6 162.272C171.76 161.92 171.84 161.572 171.84 161.228V160.736ZM172.14 160.736H173.052V161.228C173.052 161.58 173.12 161.936 173.256 162.296C173.392 162.656 173.6 162.984 173.88 163.28C174.168 163.576 174.532 163.816 174.972 164L174.456 164.936C173.912 164.72 173.468 164.416 173.124 164.024C172.78 163.64 172.528 163.204 172.368 162.716C172.216 162.228 172.14 161.732 172.14 161.228V160.736ZM175.86 160.736H176.784V161.228C176.784 161.684 176.7 162.156 176.532 162.644C176.372 163.132 176.124 163.58 175.788 163.988C175.452 164.396 175.008 164.712 174.456 164.936L173.94 164C174.38 163.8 174.74 163.544 175.02 163.232C175.308 162.92 175.52 162.588 175.656 162.236C175.792 161.876 175.86 161.54 175.86 161.228V160.736ZM176.136 160.736H177.096V161.228C177.096 161.596 177.176 161.96 177.336 162.32C177.496 162.672 177.732 162.988 178.044 163.268C178.364 163.54 178.76 163.756 179.232 163.916L178.608 164.84C178.056 164.64 177.596 164.36 177.228 164C176.86 163.64 176.584 163.22 176.4 162.74C176.224 162.26 176.136 161.756 176.136 161.228V160.736ZM177 154.028H178.26V160.268H177V154.028ZM172.344 154.628C172.904 154.628 173.404 154.74 173.844 154.964C174.284 155.18 174.628 155.484 174.876 155.876C175.132 156.26 175.26 156.708 175.26 157.22C175.26 157.732 175.132 158.18 174.876 158.564C174.628 158.948 174.284 159.252 173.844 159.476C173.404 159.692 172.904 159.8 172.344 159.8C171.784 159.8 171.284 159.692 170.844 159.476C170.404 159.252 170.056 158.948 169.8 158.564C169.552 158.18 169.428 157.732 169.428 157.22C169.428 156.708 169.552 156.26 169.8 155.876C170.056 155.484 170.404 155.18 170.844 154.964C171.284 154.74 171.784 154.628 172.344 154.628ZM172.344 155.672C172.024 155.672 171.736 155.736 171.48 155.864C171.224 155.992 171.024 156.172 170.88 156.404C170.736 156.636 170.664 156.908 170.664 157.22C170.664 157.532 170.736 157.804 170.88 158.036C171.024 158.268 171.224 158.448 171.48 158.576C171.736 158.704 172.024 158.768 172.344 158.768C172.672 158.768 172.96 158.704 173.208 158.576C173.464 158.448 173.664 158.268 173.808 158.036C173.96 157.804 174.036 157.532 174.036 157.22C174.036 156.908 173.96 156.636 173.808 156.404C173.664 156.172 173.464 155.992 173.208 155.864C172.96 155.736 172.672 155.672 172.344 155.672ZM181.427 157.172H188.951V158.18H181.427V157.172ZM180.143 159.5H190.079V160.508H180.143V159.5ZM181.427 154.412H182.675V157.676H181.427V154.412ZM181.343 163.724H189.011V164.732H181.343V163.724ZM181.343 161.504H182.603V163.988H181.343V161.504ZM195.81 155.024H196.782V157.004C196.782 157.596 196.73 158.18 196.626 158.756C196.522 159.324 196.362 159.86 196.146 160.364C195.938 160.86 195.674 161.312 195.354 161.72C195.042 162.12 194.678 162.444 194.262 162.692L193.47 161.756C193.87 161.524 194.214 161.236 194.502 160.892C194.79 160.548 195.03 160.164 195.222 159.74C195.422 159.316 195.57 158.872 195.666 158.408C195.762 157.936 195.81 157.468 195.81 157.004V155.024ZM196.05 155.024H197.034V156.92C197.034 157.376 197.074 157.832 197.154 158.288C197.242 158.736 197.374 159.156 197.55 159.548C197.734 159.94 197.962 160.3 198.234 160.628C198.514 160.948 198.838 161.208 199.206 161.408L198.474 162.404C198.05 162.164 197.686 161.856 197.382 161.48C197.078 161.096 196.826 160.664 196.626 160.184C196.434 159.696 196.29 159.176 196.194 158.624C196.098 158.064 196.05 157.496 196.05 156.92V155.024ZM201.798 154.016H202.998V164.984H201.798V154.016ZM200.238 158.36H202.218V159.392H200.238V158.36ZM199.41 154.232H200.586V164.468H199.41V154.232ZM208.008 154.796H212.784V155.804H208.008V154.796ZM212.184 154.796H213.408V155.372C213.408 155.812 213.392 156.384 213.36 157.088C213.328 157.784 213.208 158.636 213 159.644L211.74 159.656C211.964 158.648 212.092 157.792 212.124 157.088C212.164 156.384 212.184 155.812 212.184 155.372V154.796ZM212.34 156.932V157.844L207.936 158.204L207.756 157.148L212.34 156.932ZM209.976 159.896H211.236V164.384H209.976V159.896ZM215.052 154.016H216.312V164.984H215.052V154.016ZM207.228 160.568L207.072 159.524C207.8 159.524 208.572 159.52 209.388 159.512C210.212 159.496 211.044 159.468 211.884 159.428C212.732 159.38 213.556 159.312 214.356 159.224L214.44 160.16C213.632 160.272 212.808 160.36 211.968 160.424C211.128 160.48 210.308 160.516 209.508 160.532C208.708 160.548 207.948 160.56 207.228 160.568ZM218.051 162.572H227.987V163.604H218.051V162.572ZM222.347 155.516H223.415V156.296C223.415 156.752 223.339 157.184 223.187 157.592C223.043 158 222.835 158.38 222.563 158.732C222.291 159.084 221.971 159.4 221.603 159.68C221.235 159.952 220.827 160.188 220.379 160.388C219.939 160.58 219.479 160.724 218.999 160.82L218.483 159.8C218.915 159.736 219.323 159.624 219.707 159.464C220.091 159.304 220.443 159.112 220.763 158.888C221.091 158.664 221.371 158.416 221.603 158.144C221.843 157.872 222.027 157.58 222.155 157.268C222.283 156.956 222.347 156.632 222.347 156.296V155.516ZM222.599 155.516H223.667V156.296C223.667 156.632 223.731 156.956 223.859 157.268C223.987 157.572 224.171 157.86 224.411 158.132C224.651 158.404 224.931 158.652 225.251 158.876C225.579 159.092 225.939 159.28 226.331 159.44C226.731 159.592 227.147 159.7 227.579 159.764L227.075 160.76C226.579 160.672 226.107 160.532 225.659 160.34C225.211 160.148 224.799 159.916 224.423 159.644C224.055 159.372 223.735 159.064 223.463 158.72C223.191 158.376 222.979 158 222.827 157.592C222.675 157.184 222.599 156.752 222.599 156.296V155.516ZM218.867 155.036H227.147V156.056H218.867V155.036ZM235.866 160.208H237.126V162.836H235.866V160.208ZM236.502 154.676C237.278 154.676 237.966 154.796 238.566 155.036C239.174 155.276 239.654 155.616 240.006 156.056C240.358 156.496 240.534 157.012 240.534 157.604C240.534 158.204 240.358 158.724 240.006 159.164C239.654 159.604 239.174 159.948 238.566 160.196C237.966 160.436 237.278 160.556 236.502 160.556C235.726 160.556 235.034 160.436 234.426 160.196C233.818 159.948 233.338 159.604 232.986 159.164C232.634 158.724 232.458 158.204 232.458 157.604C232.458 157.012 232.634 156.496 232.986 156.056C233.338 155.616 233.818 155.276 234.426 155.036C235.034 154.796 235.726 154.676 236.502 154.676ZM236.502 155.672C235.95 155.672 235.462 155.752 235.038 155.912C234.622 156.064 234.294 156.284 234.054 156.572C233.814 156.86 233.694 157.204 233.694 157.604C233.694 158.004 233.814 158.352 234.054 158.648C234.294 158.936 234.622 159.16 235.038 159.32C235.462 159.472 235.95 159.548 236.502 159.548C237.046 159.548 237.53 159.472 237.954 159.32C238.378 159.16 238.71 158.936 238.95 158.648C239.19 158.352 239.31 158.004 239.31 157.604C239.31 157.204 239.19 156.86 238.95 156.572C238.71 156.284 238.378 156.064 237.954 155.912C237.53 155.752 237.046 155.672 236.502 155.672ZM231.546 162.608H241.482V163.64H231.546V162.608ZM243.353 154.532H251.465V155.54H243.353V154.532ZM243.413 157.748H251.393V158.744H243.413V157.748ZM244.901 154.964H246.149V158.228H244.901V154.964ZM248.669 154.964H249.917V158.228H248.669V154.964ZM242.465 159.776H252.377V160.796H242.465V159.776ZM243.701 163.748H251.273V164.768H243.701V163.748ZM243.701 161.672H244.961V164.06H243.701V161.672ZM253.78 166.4L253.468 165.62C253.884 165.444 254.208 165.208 254.44 164.912C254.672 164.624 254.784 164.3 254.776 163.94L254.68 162.836L255.256 163.748C255.176 163.836 255.084 163.9 254.98 163.94C254.876 163.972 254.764 163.988 254.644 163.988C254.404 163.988 254.188 163.912 253.996 163.76C253.812 163.6 253.72 163.38 253.72 163.1C253.72 162.828 253.812 162.612 253.996 162.452C254.188 162.292 254.416 162.212 254.68 162.212C255.024 162.212 255.288 162.344 255.472 162.608C255.656 162.872 255.748 163.236 255.748 163.7C255.748 164.332 255.572 164.88 255.22 165.344C254.876 165.816 254.396 166.168 253.78 166.4ZM65.5554 172.016H66.8154V183.008H65.5554V172.016ZM58.3794 179.36H59.3154C59.9474 179.36 60.5514 179.352 61.1274 179.336C61.7114 179.312 62.2914 179.272 62.8674 179.216C63.4434 179.16 64.0394 179.084 64.6554 178.988L64.7754 180.008C63.8314 180.168 62.9274 180.276 62.0634 180.332C61.1994 180.38 60.2834 180.404 59.3154 180.404H58.3794V179.36ZM58.3554 173H63.4794V177.056H59.6514V179.756H58.3794V176.06H62.1954V174.02H58.3554V173ZM71.5185 178.172H72.7785V182.66H71.5185V178.172ZM76.5585 172.028H77.8185V182.996H76.5585V172.028ZM68.7945 178.736L68.6505 177.704C69.3305 177.704 70.0745 177.7 70.8825 177.692C71.6905 177.676 72.5105 177.644 73.3425 177.596C74.1825 177.548 74.9985 177.472 75.7905 177.368L75.8625 178.28C75.0545 178.424 74.2345 178.528 73.4025 178.592C72.5705 178.656 71.7625 178.696 70.9785 178.712C70.2025 178.728 69.4745 178.736 68.7945 178.736ZM74.2065 179.456H76.8345V180.428H74.2065V179.456ZM72.2025 172.532C72.7465 172.532 73.2265 172.624 73.6425 172.808C74.0585 172.992 74.3825 173.248 74.6145 173.576C74.8545 173.904 74.9745 174.288 74.9745 174.728C74.9745 175.168 74.8545 175.552 74.6145 175.88C74.3825 176.208 74.0585 176.464 73.6425 176.648C73.2265 176.832 72.7465 176.924 72.2025 176.924C71.6665 176.924 71.1905 176.832 70.7745 176.648C70.3585 176.464 70.0305 176.208 69.7905 175.88C69.5585 175.552 69.4425 175.168 69.4425 174.728C69.4425 174.288 69.5585 173.904 69.7905 173.576C70.0305 173.248 70.3585 172.992 70.7745 172.808C71.1905 172.624 71.6665 172.532 72.2025 172.532ZM72.2145 173.48C71.9025 173.48 71.6265 173.532 71.3865 173.636C71.1465 173.74 70.9585 173.884 70.8225 174.068C70.6865 174.252 70.6185 174.468 70.6185 174.716C70.6185 174.972 70.6865 175.196 70.8225 175.388C70.9585 175.572 71.1465 175.716 71.3865 175.82C71.6265 175.916 71.9025 175.964 72.2145 175.964C72.5185 175.964 72.7865 175.916 73.0185 175.82C73.2585 175.716 73.4465 175.572 73.5825 175.388C73.7185 175.196 73.7865 174.972 73.7865 174.716C73.7865 174.468 73.7185 174.252 73.5825 174.068C73.4465 173.884 73.2585 173.74 73.0185 173.636C72.7865 173.532 72.5185 173.48 72.2145 173.48ZM80.8175 177.188H88.4255V178.208H80.8175V177.188ZM79.6055 180.548H89.5415V181.58H79.6055V180.548ZM80.8175 172.988H88.3295V174.008H82.0655V177.632H80.8175V172.988ZM95.8839 173.66H96.8919V175.196C96.8919 175.804 96.8199 176.4 96.6759 176.984C96.5319 177.56 96.3199 178.104 96.0399 178.616C95.7679 179.128 95.4399 179.58 95.0559 179.972C94.6719 180.364 94.2479 180.676 93.7839 180.908L93.0519 179.912C93.4759 179.712 93.8599 179.444 94.2039 179.108C94.5559 178.772 94.8559 178.392 95.1039 177.968C95.3519 177.536 95.5439 177.084 95.6799 176.612C95.8159 176.14 95.8839 175.668 95.8839 175.196V173.66ZM96.1479 173.66H97.1559V175.196C97.1559 175.652 97.2239 176.104 97.3599 176.552C97.4959 177 97.6879 177.424 97.9359 177.824C98.1839 178.224 98.4799 178.58 98.8239 178.892C99.1679 179.204 99.5559 179.452 99.9879 179.636L99.2919 180.632C98.8119 180.416 98.3799 180.124 97.9959 179.756C97.6119 179.388 97.2799 178.964 96.9999 178.484C96.7279 177.996 96.5159 177.476 96.3639 176.924C96.2199 176.364 96.1479 175.788 96.1479 175.196V173.66ZM93.4479 173.108H99.5919V174.152H93.4479V173.108ZM100.864 172.028H102.124V182.996H100.864V172.028ZM105.255 178.28H106.503V179.588H111.459V178.28H112.707V182.852H105.255V178.28ZM106.503 180.572V181.844H111.459V180.572H106.503ZM105.267 172.496H112.275V173.504H105.267V172.496ZM104.019 176.408H113.955V177.428H104.019V176.408ZM111.483 172.496H112.719V173.324C112.719 173.78 112.703 174.272 112.671 174.8C112.647 175.32 112.555 175.94 112.395 176.66L111.135 176.708C111.311 175.98 111.411 175.348 111.435 174.812C111.467 174.276 111.483 173.78 111.483 173.324V172.496ZM115.334 184.4L115.022 183.62C115.438 183.444 115.762 183.208 115.994 182.912C116.226 182.624 116.338 182.3 116.33 181.94L116.234 180.836L116.81 181.748C116.73 181.836 116.638 181.9 116.534 181.94C116.43 181.972 116.318 181.988 116.198 181.988C115.958 181.988 115.742 181.912 115.55 181.76C115.366 181.6 115.274 181.38 115.274 181.1C115.274 180.828 115.366 180.612 115.55 180.452C115.742 180.292 115.97 180.212 116.234 180.212C116.578 180.212 116.842 180.344 117.026 180.608C117.21 180.872 117.302 181.236 117.302 181.7C117.302 182.332 117.126 182.88 116.774 183.344C116.43 183.816 115.95 184.168 115.334 184.4ZM129.056 172.028H130.256V178.76H129.056V172.028ZM127.496 174.836H129.416V175.856H127.496V174.836ZM126.668 172.232H127.844V178.388H126.668V172.232ZM121.436 177.164H122.168C122.688 177.164 123.164 177.16 123.596 177.152C124.028 177.136 124.444 177.108 124.844 177.068C125.252 177.02 125.668 176.956 126.092 176.876L126.2 177.872C125.768 177.952 125.344 178.016 124.928 178.064C124.512 178.104 124.08 178.132 123.632 178.148C123.192 178.164 122.704 178.172 122.168 178.172H121.436V177.164ZM121.424 172.808H125.564V175.904H122.648V177.944H121.436V174.968H124.34V173.804H121.424V172.808ZM126.596 178.94C127.356 178.94 128.012 179.02 128.564 179.18C129.124 179.34 129.552 179.572 129.848 179.876C130.152 180.172 130.304 180.532 130.304 180.956C130.304 181.372 130.152 181.732 129.848 182.036C129.552 182.34 129.124 182.572 128.564 182.732C128.012 182.892 127.356 182.972 126.596 182.972C125.844 182.972 125.188 182.892 124.628 182.732C124.068 182.572 123.636 182.34 123.332 182.036C123.036 181.732 122.888 181.372 122.888 180.956C122.888 180.532 123.036 180.172 123.332 179.876C123.636 179.572 124.068 179.34 124.628 179.18C125.188 179.02 125.844 178.94 126.596 178.94ZM126.596 179.9C125.828 179.9 125.224 179.992 124.784 180.176C124.352 180.352 124.136 180.612 124.136 180.956C124.136 181.292 124.352 181.552 124.784 181.736C125.224 181.92 125.828 182.012 126.596 182.012C127.108 182.012 127.548 181.972 127.916 181.892C128.284 181.804 128.564 181.684 128.756 181.532C128.948 181.372 129.044 181.18 129.044 180.956C129.044 180.724 128.948 180.532 128.756 180.38C128.564 180.22 128.284 180.1 127.916 180.02C127.548 179.94 127.108 179.9 126.596 179.9ZM136.399 172.724H137.707C137.707 173.7 137.531 174.576 137.179 175.352C136.827 176.12 136.275 176.788 135.523 177.356C134.779 177.916 133.811 178.372 132.619 178.724L132.139 177.716C132.915 177.5 133.575 177.244 134.119 176.948C134.663 176.644 135.099 176.304 135.427 175.928C135.763 175.544 136.007 175.128 136.159 174.68C136.319 174.232 136.399 173.756 136.399 173.252V172.724ZM132.643 172.724H137.119V173.732H132.643V172.724ZM136.351 174.764V175.628L132.283 175.928L132.091 174.932L136.351 174.764ZM139.663 172.028H140.923V178.556H139.663V172.028ZM137.275 178.724C138.035 178.724 138.691 178.812 139.243 178.988C139.803 179.156 140.231 179.4 140.527 179.72C140.831 180.032 140.983 180.408 140.983 180.848C140.983 181.296 140.831 181.68 140.527 182C140.231 182.32 139.803 182.564 139.243 182.732C138.691 182.9 138.035 182.984 137.275 182.984C136.515 182.984 135.855 182.9 135.295 182.732C134.743 182.564 134.315 182.32 134.011 182C133.715 181.68 133.567 181.296 133.567 180.848C133.567 180.408 133.715 180.032 134.011 179.72C134.315 179.4 134.743 179.156 135.295 178.988C135.855 178.812 136.515 178.724 137.275 178.724ZM137.275 179.72C136.755 179.72 136.311 179.764 135.943 179.852C135.575 179.932 135.295 180.06 135.103 180.236C134.911 180.404 134.815 180.608 134.815 180.848C134.815 181.096 134.911 181.308 135.103 181.484C135.295 181.652 135.575 181.78 135.943 181.868C136.311 181.956 136.755 182 137.275 182C137.795 182 138.235 181.956 138.595 181.868C138.963 181.78 139.243 181.652 139.435 181.484C139.635 181.308 139.735 181.096 139.735 180.848C139.735 180.608 139.635 180.404 139.435 180.236C139.243 180.06 138.963 179.932 138.595 179.852C138.235 179.764 137.795 179.72 137.275 179.72ZM153.205 172.016H154.465V177.572H153.205V172.016ZM149.665 172.508H151.033C151.033 173.444 150.837 174.268 150.445 174.98C150.053 175.684 149.481 176.272 148.729 176.744C147.977 177.216 147.057 177.576 145.969 177.824L145.537 176.804C146.473 176.604 147.245 176.328 147.853 175.976C148.461 175.616 148.913 175.2 149.209 174.728C149.513 174.248 149.665 173.724 149.665 173.156V172.508ZM146.125 172.508H150.205V173.516H146.125V172.508ZM150.625 173.504H153.385V174.476H150.625V173.504ZM150.529 175.628H153.337V176.588H150.529V175.628ZM147.325 178.04H154.465V180.872H148.597V182.444H147.349V179.924H153.217V179.036H147.325V178.04ZM147.349 181.88H154.765V182.888H147.349V181.88ZM156.78 173.168H161.628V174.188H156.78V173.168ZM158.352 176.312H159.588V180.032H158.352V176.312ZM161.124 173.168H162.36V173.9C162.36 174.38 162.348 174.972 162.324 175.676C162.3 176.38 162.208 177.216 162.048 178.184L160.812 178.076C160.964 177.14 161.052 176.332 161.076 175.652C161.108 174.964 161.124 174.38 161.124 173.9V173.168ZM163.548 172.016H164.796V182.984H163.548V172.016ZM164.436 176.528H166.428V177.572H164.436V176.528ZM156.324 180.68L156.192 179.636C156.848 179.636 157.56 179.632 158.328 179.624C159.096 179.608 159.876 179.58 160.668 179.54C161.46 179.492 162.22 179.424 162.948 179.336L163.02 180.26C162.268 180.38 161.496 180.472 160.704 180.536C159.92 180.592 159.156 180.628 158.412 180.644C157.668 180.66 156.972 180.672 156.324 180.68ZM167.231 177.152H177.143V178.184H167.231V177.152ZM168.455 175.232H175.991V176.24H168.455V175.232ZM168.455 172.4H175.931V173.42H169.703V175.712H168.455V172.4ZM172.151 178.988C173.335 178.988 174.259 179.164 174.923 179.516C175.595 179.86 175.931 180.352 175.931 180.992C175.931 181.624 175.595 182.112 174.923 182.456C174.259 182.8 173.335 182.972 172.151 182.972C170.983 182.972 170.063 182.8 169.391 182.456C168.719 182.112 168.383 181.624 168.383 180.992C168.383 180.352 168.719 179.86 169.391 179.516C170.063 179.164 170.983 178.988 172.151 178.988ZM172.151 179.96C171.623 179.96 171.171 180 170.795 180.08C170.419 180.16 170.131 180.276 169.931 180.428C169.739 180.572 169.643 180.76 169.643 180.992C169.643 181.216 169.739 181.404 169.931 181.556C170.131 181.708 170.419 181.824 170.795 181.904C171.171 181.976 171.623 182.012 172.151 182.012C172.695 182.012 173.151 181.976 173.519 181.904C173.895 181.824 174.179 181.708 174.371 181.556C174.563 181.404 174.659 181.216 174.659 180.992C174.659 180.76 174.563 180.572 174.371 180.428C174.179 180.276 173.895 180.16 173.519 180.08C173.151 180 172.695 179.96 172.151 179.96ZM183.094 172.196C184.326 172.196 185.282 172.36 185.962 172.688C186.65 173.008 186.994 173.472 186.994 174.08C186.994 174.688 186.65 175.156 185.962 175.484C185.282 175.812 184.326 175.976 183.094 175.976C181.862 175.976 180.902 175.812 180.214 175.484C179.526 175.156 179.182 174.688 179.182 174.08C179.182 173.472 179.526 173.008 180.214 172.688C180.902 172.36 181.862 172.196 183.094 172.196ZM183.082 173.132C182.522 173.132 182.046 173.168 181.654 173.24C181.27 173.312 180.978 173.42 180.778 173.564C180.586 173.7 180.49 173.872 180.49 174.08C180.49 174.288 180.586 174.464 180.778 174.608C180.978 174.752 181.27 174.86 181.654 174.932C182.046 175.004 182.522 175.04 183.082 175.04C183.658 175.04 184.138 175.004 184.522 174.932C184.906 174.86 185.198 174.752 185.398 174.608C185.598 174.464 185.698 174.288 185.698 174.08C185.698 173.872 185.598 173.7 185.398 173.564C185.198 173.42 184.906 173.312 184.522 173.24C184.138 173.168 183.658 173.132 183.082 173.132ZM178.138 176.612H188.05V177.608H178.138V176.612ZM179.302 178.4H186.802V181.028H180.562V182.192H179.326V180.14H185.566V179.348H179.302V178.4ZM179.326 181.928H187.114V182.888H179.326V181.928ZM198.941 172.028H200.189V178.436H198.941V172.028ZM199.853 174.596H201.737V175.64H199.853V174.596ZM192.017 172.64H193.265V174.188H195.941V172.64H197.189V177.812H192.017V172.64ZM193.265 175.172V176.816H195.941V175.172H193.265ZM193.217 178.976H200.273V179.984H194.477V182.552H193.217V178.976ZM193.217 181.844H200.489V182.852H193.217V181.844ZM205.48 172.82C206.024 172.82 206.504 172.98 206.92 173.3C207.344 173.62 207.676 174.068 207.916 174.644C208.164 175.22 208.288 175.904 208.288 176.696C208.288 177.48 208.164 178.164 207.916 178.748C207.676 179.324 207.344 179.772 206.92 180.092C206.504 180.404 206.024 180.56 205.48 180.56C204.928 180.56 204.44 180.404 204.016 180.092C203.6 179.772 203.268 179.324 203.02 178.748C202.78 178.164 202.66 177.48 202.66 176.696C202.66 175.904 202.78 175.22 203.02 174.644C203.268 174.068 203.6 173.62 204.016 173.3C204.44 172.98 204.928 172.82 205.48 172.82ZM205.48 173.96C205.16 173.96 204.876 174.068 204.628 174.284C204.388 174.5 204.2 174.812 204.064 175.22C203.936 175.628 203.872 176.116 203.872 176.684C203.872 177.26 203.936 177.752 204.064 178.16C204.2 178.568 204.388 178.884 204.628 179.108C204.876 179.324 205.16 179.432 205.48 179.432C205.792 179.432 206.068 179.324 206.308 179.108C206.556 178.884 206.744 178.568 206.872 178.16C207.008 177.752 207.076 177.26 207.076 176.684C207.076 176.116 207.008 175.628 206.872 175.22C206.744 174.812 206.556 174.5 206.308 174.284C206.068 174.068 205.792 173.96 205.48 173.96ZM209.788 172.028H211.048V182.996H209.788V172.028ZM210.772 176.3H212.752V177.344H210.772V176.3ZM214.755 172.184H216.003V173.084H220.851V172.184H222.099V175.832H214.755V172.184ZM216.003 174.02V174.884H220.851V174.02H216.003ZM213.471 176.732H223.383V177.728H213.471V176.732ZM217.779 175.4H219.027V177.008H217.779V175.4ZM214.635 178.484H222.135V181.076H215.895V182.276H214.659V180.188H220.899V179.42H214.635V178.484ZM214.659 181.928H222.447V182.888H214.659V181.928ZM231.261 172.376H232.365V172.952C232.365 173.368 232.293 173.768 232.149 174.152C232.005 174.528 231.797 174.876 231.525 175.196C231.261 175.516 230.941 175.804 230.565 176.06C230.197 176.316 229.789 176.532 229.341 176.708C228.893 176.876 228.413 177 227.901 177.08L227.409 176.072C227.857 176.008 228.273 175.908 228.657 175.772C229.049 175.628 229.405 175.456 229.725 175.256C230.045 175.048 230.317 174.82 230.541 174.572C230.773 174.324 230.949 174.064 231.069 173.792C231.197 173.52 231.261 173.24 231.261 172.952V172.376ZM231.501 172.376H232.593V172.952C232.593 173.232 232.653 173.508 232.773 173.78C232.901 174.052 233.081 174.312 233.313 174.56C233.545 174.808 233.821 175.036 234.141 175.244C234.461 175.444 234.813 175.616 235.197 175.76C235.589 175.904 236.005 176.008 236.445 176.072L235.953 177.08C235.449 177 234.973 176.872 234.525 176.696C234.077 176.52 233.665 176.304 233.289 176.048C232.921 175.792 232.601 175.504 232.329 175.184C232.065 174.864 231.861 174.516 231.717 174.14C231.573 173.764 231.501 173.368 231.501 172.952V172.376ZM231.273 178.88H232.521V182.996H231.273V178.88ZM226.965 178.1H236.877V179.132H226.965V178.1ZM243.075 178.736H244.035V179.228C244.035 179.732 243.943 180.224 243.759 180.704C243.575 181.176 243.299 181.6 242.931 181.976C242.571 182.344 242.115 182.632 241.563 182.84L240.939 181.916C241.411 181.748 241.803 181.52 242.115 181.232C242.435 180.944 242.675 180.624 242.835 180.272C242.995 179.92 243.075 179.572 243.075 179.228V178.736ZM243.375 178.736H244.287V179.228C244.287 179.58 244.355 179.936 244.491 180.296C244.627 180.656 244.835 180.984 245.115 181.28C245.403 181.576 245.767 181.816 246.207 182L245.691 182.936C245.147 182.72 244.703 182.416 244.359 182.024C244.015 181.64 243.763 181.204 243.603 180.716C243.451 180.228 243.375 179.732 243.375 179.228V178.736ZM247.095 178.736H248.019V179.228C248.019 179.684 247.935 180.156 247.767 180.644C247.607 181.132 247.359 181.58 247.023 181.988C246.687 182.396 246.243 182.712 245.691 182.936L245.175 182C245.615 181.8 245.975 181.544 246.255 181.232C246.543 180.92 246.755 180.588 246.891 180.236C247.027 179.876 247.095 179.54 247.095 179.228V178.736ZM247.371 178.736H248.331V179.228C248.331 179.596 248.411 179.96 248.571 180.32C248.731 180.672 248.967 180.988 249.279 181.268C249.599 181.54 249.995 181.756 250.467 181.916L249.843 182.84C249.291 182.64 248.831 182.36 248.463 182C248.095 181.64 247.819 181.22 247.635 180.74C247.459 180.26 247.371 179.756 247.371 179.228V178.736ZM248.235 172.028H249.495V178.268H248.235V172.028ZM243.579 172.628C244.139 172.628 244.639 172.74 245.079 172.964C245.519 173.18 245.863 173.484 246.111 173.876C246.367 174.26 246.495 174.708 246.495 175.22C246.495 175.732 246.367 176.18 246.111 176.564C245.863 176.948 245.519 177.252 245.079 177.476C244.639 177.692 244.139 177.8 243.579 177.8C243.019 177.8 242.519 177.692 242.079 177.476C241.639 177.252 241.291 176.948 241.035 176.564C240.787 176.18 240.663 175.732 240.663 175.22C240.663 174.708 240.787 174.26 241.035 173.876C241.291 173.484 241.639 173.18 242.079 172.964C242.519 172.74 243.019 172.628 243.579 172.628ZM243.579 173.672C243.259 173.672 242.971 173.736 242.715 173.864C242.459 173.992 242.259 174.172 242.115 174.404C241.971 174.636 241.899 174.908 241.899 175.22C241.899 175.532 241.971 175.804 242.115 176.036C242.259 176.268 242.459 176.448 242.715 176.576C242.971 176.704 243.259 176.768 243.579 176.768C243.907 176.768 244.195 176.704 244.443 176.576C244.699 176.448 244.899 176.268 245.043 176.036C245.195 175.804 245.271 175.532 245.271 175.22C245.271 174.908 245.195 174.636 245.043 174.404C244.899 174.172 244.699 173.992 244.443 173.864C244.195 173.736 243.907 173.672 243.579 173.672ZM254.33 172.82C254.874 172.82 255.354 172.98 255.77 173.3C256.186 173.62 256.514 174.068 256.754 174.644C256.994 175.22 257.114 175.9 257.114 176.684C257.114 177.476 256.994 178.164 256.754 178.748C256.514 179.324 256.186 179.772 255.77 180.092C255.354 180.404 254.874 180.56 254.33 180.56C253.794 180.56 253.314 180.404 252.89 180.092C252.474 179.772 252.146 179.324 251.906 178.748C251.674 178.164 251.558 177.476 251.558 176.684C251.558 175.9 251.674 175.22 251.906 174.644C252.146 174.068 252.474 173.62 252.89 173.3C253.314 172.98 253.794 172.82 254.33 172.82ZM254.33 173.96C254.018 173.96 253.742 174.068 253.502 174.284C253.27 174.5 253.086 174.812 252.95 175.22C252.822 175.628 252.758 176.116 252.758 176.684C252.758 177.26 252.822 177.752 252.95 178.16C253.086 178.568 253.27 178.884 253.502 179.108C253.742 179.324 254.018 179.432 254.33 179.432C254.65 179.432 254.926 179.324 255.158 179.108C255.398 178.884 255.582 178.568 255.71 178.16C255.846 177.752 255.914 177.26 255.914 176.684C255.914 176.116 255.846 175.628 255.71 175.22C255.582 174.812 255.398 174.5 255.158 174.284C254.926 174.068 254.65 173.96 254.33 173.96ZM259.226 172.016H260.486V183.008H259.226V172.016ZM256.718 176.096H259.766V177.116H256.718V176.096ZM264.626 177.632H265.874V180.824H264.626V177.632ZM268.634 177.632H269.894V180.824H268.634V177.632ZM262.298 180.608H272.234V181.64H262.298V180.608ZM267.254 172.652C268.03 172.652 268.722 172.772 269.33 173.012C269.938 173.244 270.414 173.576 270.758 174.008C271.11 174.432 271.286 174.936 271.286 175.52C271.286 176.104 271.11 176.612 270.758 177.044C270.414 177.468 269.938 177.8 269.33 178.04C268.722 178.272 268.03 178.388 267.254 178.388C266.478 178.388 265.782 178.272 265.166 178.04C264.558 177.8 264.078 177.468 263.726 177.044C263.382 176.612 263.21 176.104 263.21 175.52C263.21 174.936 263.382 174.432 263.726 174.008C264.078 173.576 264.558 173.244 265.166 173.012C265.782 172.772 266.478 172.652 267.254 172.652ZM267.254 173.636C266.702 173.636 266.214 173.712 265.79 173.864C265.366 174.016 265.034 174.236 264.794 174.524C264.562 174.804 264.446 175.136 264.446 175.52C264.446 175.904 264.562 176.24 264.794 176.528C265.034 176.808 265.366 177.028 265.79 177.188C266.214 177.34 266.702 177.416 267.254 177.416C267.806 177.416 268.29 177.34 268.706 177.188C269.13 177.028 269.462 176.808 269.702 176.528C269.942 176.24 270.062 175.904 270.062 175.52C270.062 175.136 269.942 174.804 269.702 174.524C269.462 174.236 269.13 174.016 268.706 173.864C268.29 173.712 267.806 173.636 267.254 173.636Z" fill="black"/>
<rect x="30.5" y="206" width="130" height="45" rx="10" fill="#43BB65"/>
<path d="M78.53 222.824H80.196V229.278H78.53V222.824ZM79.524 225.372H81.946V226.73H79.524V225.372ZM71.782 229.824H80.196V233.24H73.462V234.892H71.81V232.036H78.558V231.112H71.782V229.824ZM71.81 234.234H80.602V235.55H71.81V234.234ZM73.63 223.216C74.2927 223.216 74.876 223.342 75.38 223.594C75.8933 223.837 76.2993 224.177 76.598 224.616C76.8967 225.045 77.046 225.545 77.046 226.114C77.046 226.683 76.8967 227.187 76.598 227.626C76.2993 228.065 75.8933 228.41 75.38 228.662C74.876 228.905 74.2927 229.026 73.63 229.026C72.986 229.026 72.4073 228.905 71.894 228.662C71.3807 228.41 70.9747 228.065 70.676 227.626C70.3773 227.187 70.228 226.683 70.228 226.114C70.228 225.545 70.3773 225.045 70.676 224.616C70.9747 224.177 71.3807 223.837 71.894 223.594C72.4073 223.342 72.986 223.216 73.63 223.216ZM73.63 224.56C73.2847 224.56 72.9767 224.625 72.706 224.756C72.4447 224.877 72.2347 225.055 72.076 225.288C71.9173 225.521 71.838 225.797 71.838 226.114C71.838 226.441 71.9173 226.721 72.076 226.954C72.2347 227.187 72.4447 227.369 72.706 227.5C72.9767 227.631 73.2847 227.696 73.63 227.696C73.9847 227.696 74.2973 227.631 74.568 227.5C74.8387 227.369 75.0487 227.187 75.198 226.954C75.3567 226.721 75.436 226.441 75.436 226.114C75.436 225.797 75.3567 225.521 75.198 225.288C75.0487 225.055 74.8387 224.877 74.568 224.756C74.2973 224.625 73.9847 224.56 73.63 224.56ZM91.8289 222.824H93.5089V230.454H91.8289V222.824ZM83.5129 228.634H84.6049C85.4262 228.634 86.1729 228.625 86.8449 228.606C87.5169 228.587 88.1562 228.55 88.7629 228.494C89.3789 228.438 90.0042 228.359 90.6389 228.256L90.8209 229.586C90.1676 229.698 89.5236 229.782 88.8889 229.838C88.2636 229.894 87.6056 229.931 86.9149 229.95C86.2242 229.969 85.4542 229.978 84.6049 229.978H83.5129V228.634ZM83.4849 223.566H89.3929V227.346H85.1509V229.432H83.5129V226.1H87.7549V224.896H83.4849V223.566ZM85.0109 231.07H93.5089V235.55H85.0109V231.07ZM91.8709 232.372H86.6349V234.234H91.8709V232.372ZM104.008 222.824H105.674V230.342H104.008V222.824ZM105.226 225.792H107.438V227.164H105.226V225.792ZM95.9998 223.552H97.6518V225.274H100.48V223.552H102.118V229.656H95.9998V223.552ZM97.6518 226.562V228.34H100.48V226.562H97.6518ZM97.3998 230.944H105.758V232.26H99.0658V235.158H97.3998V230.944ZM97.3998 234.206H106.01V235.536H97.3998V234.206ZM117.335 222.81H119.015V235.69H117.335V222.81ZM113.541 224.168H115.193C115.193 225.139 115.09 226.067 114.885 226.954C114.689 227.831 114.367 228.662 113.919 229.446C113.471 230.23 112.864 230.958 112.099 231.63C111.333 232.302 110.391 232.913 109.271 233.464L108.389 232.134C109.63 231.537 110.629 230.865 111.385 230.118C112.141 229.362 112.687 228.517 113.023 227.584C113.368 226.641 113.541 225.601 113.541 224.462V224.168ZM109.061 224.168H114.311V225.498H109.061V224.168Z" fill="#FEFAF4"/>
<rect x="170.5" y="206" width="130" height="45" rx="10" fill="#D7FFC2"/>
<path d="M213.706 227.752H216.002V229.124H213.706V227.752ZM212.474 222.81H214.14V235.676H212.474V222.81ZM204.536 224.056H206.188V232.05H204.536V224.056ZM204.536 231.126H205.614C206.538 231.126 207.495 231.089 208.484 231.014C209.473 230.93 210.491 230.785 211.536 230.58L211.718 231.938C210.645 232.162 209.599 232.316 208.582 232.4C207.565 232.475 206.575 232.512 205.614 232.512H204.536V231.126ZM221.825 229.278H223.491V231.546H221.825V229.278ZM216.841 228.718H228.489V230.048H216.841V228.718ZM222.637 231.07C224.028 231.07 225.115 231.271 225.899 231.672C226.692 232.073 227.089 232.643 227.089 233.38C227.089 234.117 226.692 234.687 225.899 235.088C225.115 235.489 224.028 235.69 222.637 235.69C221.256 235.69 220.168 235.489 219.375 235.088C218.582 234.687 218.185 234.117 218.185 233.38C218.185 232.643 218.582 232.073 219.375 231.672C220.168 231.271 221.256 231.07 222.637 231.07ZM222.637 232.344C222.04 232.344 221.536 232.386 221.125 232.47C220.714 232.545 220.402 232.657 220.187 232.806C219.972 232.955 219.865 233.147 219.865 233.38C219.865 233.613 219.972 233.809 220.187 233.968C220.402 234.117 220.714 234.234 221.125 234.318C221.536 234.393 222.04 234.43 222.637 234.43C223.244 234.43 223.752 234.393 224.163 234.318C224.574 234.234 224.882 234.117 225.087 233.968C225.302 233.809 225.409 233.613 225.409 233.38C225.409 233.147 225.302 232.955 225.087 232.806C224.882 232.657 224.574 232.545 224.163 232.47C223.752 232.386 223.244 232.344 222.637 232.344ZM221.531 223.986H223.015V224.322C223.015 224.723 222.94 225.101 222.791 225.456C222.642 225.801 222.422 226.123 222.133 226.422C221.853 226.721 221.508 226.991 221.097 227.234C220.686 227.467 220.215 227.663 219.683 227.822C219.16 227.971 218.586 228.079 217.961 228.144L217.373 226.828C217.914 226.781 218.404 226.702 218.843 226.59C219.282 226.478 219.669 226.343 220.005 226.184C220.341 226.016 220.621 225.829 220.845 225.624C221.069 225.419 221.237 225.209 221.349 224.994C221.47 224.77 221.531 224.546 221.531 224.322V223.986ZM222.329 223.986H223.799V224.322C223.799 224.555 223.855 224.784 223.967 225.008C224.079 225.223 224.247 225.428 224.471 225.624C224.704 225.82 224.989 226.002 225.325 226.17C225.661 226.338 226.048 226.478 226.487 226.59C226.926 226.702 227.416 226.781 227.957 226.828L227.369 228.144C226.744 228.079 226.165 227.971 225.633 227.822C225.11 227.663 224.644 227.467 224.233 227.234C223.822 227.001 223.477 226.735 223.197 226.436C222.917 226.137 222.702 225.811 222.553 225.456C222.404 225.092 222.329 224.714 222.329 224.322V223.986ZM217.905 223.37H227.439V224.686H217.905V223.37ZM234.746 227.626H236.958V228.97H234.746V227.626ZM239.03 222.81H240.612V235.69H239.03V222.81ZM236.426 223.034H237.98V235.102H236.426V223.034ZM232.478 223.762C233.047 223.762 233.537 223.949 233.948 224.322C234.368 224.695 234.69 225.227 234.914 225.918C235.147 226.609 235.264 227.435 235.264 228.396C235.264 229.348 235.147 230.174 234.914 230.874C234.69 231.565 234.368 232.097 233.948 232.47C233.528 232.843 233.038 233.03 232.478 233.03C231.918 233.03 231.428 232.843 231.008 232.47C230.597 232.097 230.275 231.565 230.042 230.874C229.818 230.174 229.706 229.348 229.706 228.396C229.706 227.435 229.818 226.609 230.042 225.918C230.275 225.227 230.597 224.695 231.008 224.322C231.428 223.949 231.918 223.762 232.478 223.762ZM232.478 225.33C232.216 225.33 231.992 225.447 231.806 225.68C231.619 225.913 231.474 226.259 231.372 226.716C231.269 227.164 231.218 227.724 231.218 228.396C231.218 229.059 231.269 229.619 231.372 230.076C231.474 230.533 231.619 230.879 231.806 231.112C231.992 231.336 232.216 231.448 232.478 231.448C232.748 231.448 232.977 231.336 233.164 231.112C233.35 230.879 233.495 230.533 233.598 230.076C233.7 229.619 233.752 229.059 233.752 228.396C233.752 227.724 233.7 227.164 233.598 226.716C233.495 226.259 233.35 225.913 233.164 225.68C232.977 225.447 232.748 225.33 232.478 225.33ZM250.705 222.824H252.371V235.704H250.705V222.824ZM251.993 227.92H254.289V229.306H251.993V227.92ZM242.263 224.77H249.781V226.1H242.263V224.77ZM246.057 226.912C246.682 226.912 247.233 227.043 247.709 227.304C248.194 227.565 248.577 227.925 248.857 228.382C249.137 228.83 249.277 229.353 249.277 229.95C249.277 230.547 249.137 231.075 248.857 231.532C248.577 231.989 248.194 232.349 247.709 232.61C247.233 232.871 246.682 233.002 246.057 233.002C245.441 233.002 244.89 232.871 244.405 232.61C243.919 232.349 243.532 231.989 243.243 231.532C242.963 231.075 242.823 230.547 242.823 229.95C242.823 229.353 242.963 228.83 243.243 228.382C243.532 227.925 243.919 227.565 244.405 227.304C244.89 227.043 245.441 226.912 246.057 226.912ZM246.057 228.27C245.739 228.27 245.455 228.34 245.203 228.48C244.96 228.62 244.769 228.816 244.629 229.068C244.489 229.311 244.419 229.605 244.419 229.95C244.419 230.295 244.489 230.594 244.629 230.846C244.769 231.098 244.96 231.294 245.203 231.434C245.455 231.574 245.739 231.644 246.057 231.644C246.374 231.644 246.654 231.574 246.897 231.434C247.149 231.294 247.345 231.098 247.485 230.846C247.625 230.594 247.695 230.295 247.695 229.95C247.695 229.605 247.625 229.311 247.485 229.068C247.345 228.816 247.149 228.62 246.897 228.48C246.654 228.34 246.374 228.27 246.057 228.27ZM245.203 223.02H246.883V225.288H245.203V223.02ZM264.074 222.81H265.754V235.69H264.074V222.81ZM260.28 224.168H261.932C261.932 225.139 261.829 226.067 261.624 226.954C261.428 227.831 261.106 228.662 260.658 229.446C260.21 230.23 259.603 230.958 258.838 231.63C258.072 232.302 257.13 232.913 256.01 233.464L255.128 232.134C256.369 231.537 257.368 230.865 258.124 230.118C258.88 229.362 259.426 228.517 259.762 227.584C260.107 226.641 260.28 225.601 260.28 224.462V224.168ZM255.8 224.168H261.05V225.498H255.8V224.168Z" fill="#43BB65"/>
</svg>
