<svg width="108" height="127" viewBox="0 0 108 127" fill="none" xmlns="http://www.w3.org/2000/svg">
<path d="M53.6261 4.68703C55.9819 2.01259 60.4934 0.257553 64.0372 0.0346429C69.2672 -0.294469 75.2361 1.74391 79.1983 5.18894C81.1549 6.88982 82.0629 8.57585 83.0826 10.8696C86.9371 11.0653 90.0018 12.3531 92.6163 15.2826C94.9433 17.9014 96.1226 21.3468 95.8898 24.8451C95.6926 28.0389 94.3228 31.0469 91.8939 33.1527C89.5256 35.2197 86.4301 36.2512 83.2971 36.0171C82.6064 35.9657 82.0831 35.8631 81.4088 35.7218C80.874 38.3237 80.5257 40.9612 80.0659 43.5733C79.7225 45.5213 79.8053 47.7862 78.8173 49.4888C81.1779 51.2691 83.0181 52.9164 84.0993 55.8036C84.3956 56.5942 84.5005 57.6716 84.9026 58.2911C85.196 58.7439 85.9597 59.5726 86.3522 59.9916C87.672 61.3955 88.2145 63.2125 88.5512 65.0565C88.8042 66.4428 88.5156 68.3243 88.8071 69.6154C89.1803 71.2737 89.5122 72.4798 89.7459 74.1971C90.6078 73.1336 91.6438 72.1367 93.1377 72.1122C95.4214 72.0745 96.8979 72.6398 99.3441 72.6099C102.201 72.5751 104.714 69.4844 107.27 70.9164C107.703 71.1589 107.964 72.0564 107.979 72.5112C108.208 74.488 106.479 76.1194 105.116 77.3152C108.036 79.8834 103.555 82.758 101.375 83.6214C101.775 86.1794 99.777 87.4688 97.5174 87.7763C97.1605 87.8225 96.8017 87.8553 96.4429 87.8755C95.8715 89.7789 93.7736 90.174 92.0902 89.6459C91.7737 89.5447 91.4678 89.4156 91.1744 89.2585C90.325 90.7031 88.9186 90.4689 87.596 89.9437C87.899 93.4709 87.3824 94.9223 85.5336 97.9156C85.6538 99.3969 86.432 110.045 86.0569 110.299C84.31 111.477 75.895 113.091 73.5931 113.563C73.8932 114.557 74.3732 115.716 74.9436 116.578C76.3442 118.696 77.1176 118.718 76.3875 121.431C76.071 122.593 75.6228 123.713 75.0523 124.772C74.6666 125.488 74.0692 126.534 73.2641 126.81C71.1834 127.773 70.2677 124.833 69.9021 123.421C69.4664 123.297 69.0325 123.165 68.6025 123.023C64.3084 121.601 62.9223 119.445 60.9888 115.598C60.4049 114.67 59.4757 115.308 58.5426 115.246C56.6986 115.125 55.6337 115.4 54.1889 116.552C52.1549 117.712 49.1539 119.785 46.7619 119.464C45.6835 119.224 43.4568 117.868 42.5053 117.246C40.5569 119.699 39.5338 121.825 37.8093 124.313C37.2038 125.476 36.2069 125.585 35.0654 125.12C32.979 124.649 27.2096 122.279 26.9661 119.894C26.9144 119.372 27.0772 118.852 27.4172 118.452C28.0704 117.684 29.2403 117.507 30.1801 117.41C30.4718 115.66 30.8325 114.5 31.3529 112.804C28.2848 112.106 21.6162 110.068 19.2161 108.343C19.1074 106.421 19.5539 102.577 19.7711 100.543C15.5493 96.6609 14.5779 92.4706 16.627 87.1518C15.8571 86.7846 15.6426 86.7509 15.3062 85.9481C13.4091 86.9802 10.9271 86.6786 10.2413 84.3328C8.19459 84.2858 6.23272 83.2746 5.7556 81.1426C5.7632 80.7499 5.75868 80.4359 5.82159 80.0454C4.60792 79.3953 3.55421 78.7734 2.62238 77.7212C1.5149 76.4708 0.81144 74.7879 2.57525 73.6848C1.63784 72.7359 0.669649 71.7059 0.209651 70.4472C-0.143861 69.4802 -0.0812402 68.2206 0.636173 67.4585C0.982278 67.0908 1.76299 66.9306 2.25646 66.977C4.47296 67.3037 6.03649 69.1068 8.48125 69.4675C11.1699 69.8644 14.8989 68.1672 16.8949 70.5211C17.2775 70.9724 17.7201 71.699 18.0223 72.1989C18.2784 70.9848 18.8369 69.8647 19.0558 68.7609C19.3196 67.4312 18.8703 65.7206 19.4104 64.3567C20.1396 62.0395 21.0532 60.2272 22.6389 58.4001C23.1723 57.3591 23.2947 55.4278 23.9381 54.486C25.0356 52.88 26.648 50.6234 28.1372 49.3465C29.8086 47.9133 31.5165 46.2923 33.1602 44.8326C33.8287 44.239 35.6509 43.872 36.4588 43.4285C38.2049 42.4619 38.6352 41.6802 40.7464 41.1482C40.8172 40.4213 40.8885 39.6315 41.0582 38.9209C42.0097 34.9354 43.3356 30.9932 44.3091 27.0177C41.1264 26.2138 38.8352 24.2452 37.172 21.4335C35.7001 18.9485 35.288 15.9747 36.0285 13.182C36.881 9.92411 39.4297 6.99467 42.3085 5.31615C45.1893 3.66664 48.5982 3.20636 51.8121 4.03304C52.4209 4.19485 53.0451 4.4408 53.6261 4.68703ZM21.0022 108.073L21.7815 108.386C22.7966 108.802 23.8212 109.194 24.8543 109.563L25.5502 109.823C25.729 109.884 26.2383 110.071 26.3948 110.105C27.8113 110.615 29.2569 111.039 30.7239 111.376C31.269 111.503 32.3582 111.676 32.7848 111.815C32.8956 111.442 32.3201 110.914 32.0818 110.654C30.9867 109.459 29.818 108.272 28.8165 106.998C27.2303 105.023 27.2491 104.027 24.6314 103.69H24.475C23.4097 103.41 21.7212 103.302 20.8732 102.244C20.737 103.41 20.557 104.746 20.5382 105.905C20.443 106.564 20.2576 107.246 20.5584 107.827C20.7204 107.922 20.8308 107.989 21.0022 108.073Z" fill="#592209"/>
<path d="M32.2456 114.358C34.6255 114.737 37.2893 115.449 38.611 117.648C38.1522 118.975 37.3583 120.565 36.0519 121.245C34.3774 122.116 30.1962 120.822 28.432 120.289C28.2075 120.056 28.1331 119.876 28.1254 119.571C28.5397 118.657 30.1282 118.808 31.0762 118.38C31.5759 117.789 31.9077 115.442 32.207 114.48L32.2456 114.358Z" fill="#F6C25E"/>
<path d="M32.6053 113.14C34.587 113.618 36.1116 113.917 38.1207 114.231C39.2157 115.124 40.2183 115.826 41.372 116.635C39.5891 118.945 38.2154 121.335 36.6592 123.793C36.5532 123.96 36.4099 124.075 36.2204 124.132C33.9081 123.378 30.0386 122.154 28.432 120.289C30.1962 120.822 34.3774 122.116 36.0519 121.245C37.3583 120.565 38.1522 118.975 38.611 117.648C37.2893 115.449 34.6255 114.737 32.2456 114.358C32.3594 113.945 32.4641 113.544 32.6053 113.14Z" fill="#E5A44A"/>
<path d="M36.2204 124.132C37.1242 124.836 37.5103 124.225 37.8093 124.313C37.2038 125.476 36.2069 125.585 35.0654 125.12L35.0831 125.078L35.0679 124.944C35.4747 124.432 35.5526 124.168 36.2204 124.132Z" fill="#632A13"/>
<path d="M41.5252 42.3327C42.0988 42.7873 42.561 43.1483 43.172 43.5596C45.3686 44.7073 50.9572 47.0486 53.3828 47.3587C56.638 48.1679 58.8658 48.9307 62.2826 49.3447C66.4074 50.258 73.1477 50.5942 77.3158 49.9655C79.306 51.8047 81.6262 53.2102 82.7267 55.8309C83.0662 56.6378 83.3981 58.7914 83.8088 59.2225C85.9761 61.4989 87.2747 62.8578 87.2295 66.2603C87.2151 67.3397 87.3103 69.1296 87.4796 70.2249C87.6864 71.3094 88.3088 72.5427 88.3299 73.6886C88.3655 75.527 87.8192 77.6431 87.4353 79.4537C86.4503 79.9075 85.4566 80.3427 84.4543 80.759C83.1701 81.2985 82.1851 81.5728 80.8336 81.9239C77.865 82.9412 74.2857 83.7225 71.2171 84.4037C70.2869 84.6104 68.4582 85.0319 67.6089 85.1314C64.8414 82.5087 61.1514 81.0885 57.344 81.1806C53.7185 81.2784 50.997 82.7358 48.4601 85.2181C46.6994 83.4508 45.3137 82.255 42.9185 81.3143C38.7691 79.6846 33.6835 80.4156 30.1492 83.1638C29.7626 83.0116 27.6005 82.137 27.3575 82.1091C25.7939 81.4006 23.9007 80.5886 22.4208 79.7871C21.8414 79.4923 21.3619 79.2627 20.8272 78.8835C20.2085 78.5696 19.8822 78.3736 19.3074 77.9838C19.2057 75.6692 18.9164 73.8738 19.5738 71.5318C19.7832 70.7862 20.3756 69.7251 20.5033 69.0671C20.7334 67.881 20.3053 66.6067 20.6151 65.3155C21.0228 63.6161 21.7924 62.0785 22.7512 60.6244C23.1472 60.0239 23.8516 59.1731 24.1377 58.5456C24.5329 57.6785 24.6203 56.3517 25.0741 55.4315C25.9883 53.5778 27.6826 51.7017 29.1694 50.2781C29.7971 49.6769 30.5836 49.145 31.2127 48.5325C32.1161 47.6529 32.8996 46.7379 33.9339 46.023C34.6943 45.4098 36.1132 45.2818 36.8713 44.8235C38.5196 43.8269 39.6904 43.0347 41.5252 42.3327Z" fill="#F6C25E"/>
<path d="M60.3943 50.8451C61.4476 50.3078 61.7324 49.443 62.2826 49.3447C66.4074 50.258 73.1477 50.5942 77.3158 49.9655C79.306 51.8047 81.6262 53.2102 82.7267 55.8309C83.0662 56.6378 83.3981 58.7914 83.8088 59.2225C85.9761 61.4989 87.2747 62.8578 87.2295 66.2603C87.2151 67.3397 87.3103 69.1296 87.4796 70.2249C87.6864 71.3094 88.3088 72.5427 88.3299 73.6886C88.3655 75.527 87.8192 77.6431 87.4353 79.4537C86.4503 79.9075 85.4566 80.3427 84.4543 80.759C83.1701 81.2985 82.1851 81.5728 80.8336 81.9239L81.1308 81.6198C81.5137 81.235 81.6608 81.0001 81.9273 80.5369C82.5968 79.3736 83.1586 73.1004 82.8286 72.0535L82.3515 72.0053C82.9065 71.7482 83.1624 71.6167 83.5818 71.1807C82.9277 70.4662 83.4462 67.1976 83.4212 66.0773C83.3875 64.5773 80.923 62.5618 80.849 62.1701L80.6056 62.0853L80.6902 61.8906C80.5065 60.1436 80.3747 59.3362 79.4176 57.7928C77.8814 55.3166 76.0277 53.1497 74.3078 50.8189C71.6326 51.1979 62.7347 51.7242 60.3943 50.8451Z" fill="#E5A44A"/>
<path d="M80.849 62.1701C82.4698 62.6337 83.0528 63.1782 83.9676 64.5427C84.9968 66.7204 85.2912 69.2623 83.5818 71.1807C82.9277 70.4662 83.4462 67.1976 83.4212 66.0773C83.3875 64.5773 80.923 62.5618 80.849 62.1701Z" fill="#804920"/>
<path d="M41.5252 42.3327C42.0988 42.7873 42.561 43.1483 43.172 43.5596C43.0936 43.8871 43.0007 43.9512 42.773 44.2175C42.5463 44.3679 42.613 44.2866 42.4112 44.3322C41.2881 44.5857 40.2389 45.2854 39.1924 45.7614C38.5008 46.1639 36.0248 47.0424 35.7281 47.285C32.6892 49.7756 30.0443 52.9025 27.5798 55.9452C26.9859 56.6786 25.7867 58.7538 25.6654 59.7003C25.4819 61.1323 23.8516 62.3976 23.7266 62.9227C23.5969 63.2618 23.4598 63.6075 23.3406 63.9497C23.1559 64.5719 22.9046 65.0965 22.6952 65.6974C22.2663 66.9437 21.9201 68.2929 21.8151 69.6083C21.5962 72.3515 20.7862 75.0149 21.0552 77.7865C21.0997 78.2441 21.2253 78.6617 20.8272 78.8835C20.2085 78.5696 19.8822 78.3736 19.3074 77.9838C19.2057 75.6692 18.9164 73.8738 19.5738 71.5318C19.7832 70.7862 20.3756 69.7251 20.5033 69.0671C20.7334 67.881 20.3053 66.6067 20.6151 65.3155C21.0228 63.6161 21.7924 62.0785 22.7512 60.6244C23.1472 60.0239 23.8516 59.1731 24.1377 58.5456C24.5329 57.6785 24.6203 56.3517 25.0741 55.4315C25.9883 53.5778 27.6826 51.7017 29.1694 50.2781C29.7971 49.6769 30.5836 49.145 31.2127 48.5325C32.1161 47.6529 32.8996 46.7379 33.9339 46.023C34.6943 45.4098 36.1132 45.2818 36.8713 44.8235C38.5196 43.8269 39.6904 43.0347 41.5252 42.3327Z" fill="#F9D99B"/>
<path d="M82.3515 72.0053C81.7974 72.0839 80.898 72.1114 80.3411 72.0913C78.8116 72.0347 77.3706 71.3593 76.3461 70.2196C75.4438 69.226 74.9792 67.9095 75.0591 66.5684C75.1658 64.8142 76.2413 62.9563 77.9006 62.2931C78.8356 61.9191 79.6292 62.0098 80.6056 62.0853L80.849 62.1701C80.923 62.5618 83.3875 64.5773 83.4212 66.0773C83.4462 67.1976 82.9277 70.4662 83.5818 71.1807C83.1624 71.6167 82.9065 71.7482 82.3515 72.0053Z" fill="#9A5220"/>
<path d="M43.172 43.5596C45.3686 44.7073 50.9572 47.0486 53.3828 47.3587C53.604 48.2563 53.7675 48.677 54.2658 49.4604C54.134 49.686 54.2283 49.5962 53.9397 49.6943C51.7301 49.4515 48.0251 47.5907 46.0452 46.4119C44.9859 45.7812 43.8415 44.775 42.773 44.2175C43.0007 43.9512 43.0936 43.8871 43.172 43.5596Z" fill="#E5A44A"/>
<path d="M53.3828 47.3587C56.638 48.1679 58.8658 48.9307 62.2826 49.3447C61.7324 49.443 61.4476 50.3078 60.3943 50.8451C58.0838 51.8221 55.9675 51.2861 54.2658 49.4604C53.7675 48.677 53.604 48.2563 53.3828 47.3587Z" fill="#83421D"/>
<path d="M23.7266 62.9227C24.3652 62.486 24.8207 61.9182 25.6609 62.1488C27.5474 62.6666 27.1259 65.994 25.6304 66.751C25.3256 66.9052 25.0074 66.929 24.6869 66.954C24.0079 66.6177 23.9014 66.5428 23.5505 65.8473C23.3199 65.1707 23.3432 64.6577 23.3406 63.9497C23.4598 63.6075 23.5969 63.2618 23.7266 62.9227Z" fill="#9A5220"/>
<path d="M23.5505 65.8473C24.0711 65.8071 24.399 65.8201 24.8317 66.1253C25.0062 66.4397 24.9767 66.278 24.9364 66.6246L24.6869 66.954C24.0079 66.6177 23.9014 66.5428 23.5505 65.8473Z" fill="#83421D"/>
<path d="M22.4208 79.7871C24.8732 78.9953 26.3289 79.8937 27.3575 82.1091C25.7939 81.4006 23.9007 80.5886 22.4208 79.7871Z" fill="#9A5927"/>
<path d="M62.777 64.5798C67.7695 64.3829 68.6881 72.9648 63.3042 74.1031C62.3615 74.1069 61.5689 74.0383 60.8041 73.4435C57.6201 70.9665 58.5041 65.2105 62.777 64.5798Z" fill="#592209"/>
<path d="M61.439 66.2755C63.5591 66.0652 63.864 68.421 62.375 69.2748C60.4838 69.652 59.7922 67.3233 61.439 66.2755Z" fill="#FEFEFE"/>
<path d="M64.0343 70.2232C65.3435 70.5181 65.406 71.7761 64.2459 72.2751C63.0079 71.9291 62.8636 70.8463 64.0343 70.2232Z" fill="#FEFEFE"/>
<path d="M39.3657 63.2202C44.7525 62.7049 45.6612 71.028 40.6869 72.5768C35.1752 73.2841 34.2435 64.7946 39.3657 63.2202Z" fill="#592209"/>
<path d="M38.4402 64.8506C38.5923 64.8327 38.7452 64.8234 38.8983 64.8227C40.5644 64.8133 40.812 66.8548 39.4957 67.9045C37.3379 68.1792 36.8767 66.0471 38.4402 64.8506Z" fill="#FEFEFE"/>
<path d="M40.8115 68.9419C41.2807 68.7627 41.8062 68.998 41.986 69.4677C42.1659 69.9374 41.9322 70.4644 41.4637 70.6455C40.9939 70.8272 40.466 70.5923 40.2856 70.1211C40.1052 69.6499 40.3409 69.1216 40.8115 68.9419Z" fill="#FEFEFE"/>
<path d="M33.8803 51.354C34.9064 48.5163 38.9666 47.2745 41.0908 49.6323C41.8263 50.3074 42.0844 51.1175 42.1671 52.1018C42.4549 55.5264 37.2411 58.5878 34.7311 55.911C34.3335 55.6482 33.9685 54.9365 33.8559 54.4719C33.5215 53.5465 33.5556 52.2815 33.8803 51.354Z" fill="#9A5220"/>
<path d="M41.0908 49.6323C41.8263 50.3074 42.0844 51.1175 42.1671 52.1018C42.4549 55.5264 37.2411 58.5878 34.7311 55.911L34.8636 55.8496C35.1639 56.0662 35.5326 56.2019 35.8002 55.8357C36.098 55.4281 36.3346 54.8528 36.5357 54.3882C37.1127 53.0544 37.9693 51.8839 39.0967 50.9646C39.7345 50.4375 40.1651 51.1219 40.9071 51.2168C41.1434 50.8891 40.853 50.1316 41.0908 49.6323Z" fill="#83421D"/>
<path d="M33.8803 51.354C34.0586 51.6562 34.0484 54.1989 33.8559 54.4719C33.5215 53.5465 33.5556 52.2815 33.8803 51.354Z" fill="#632A13"/>
<path d="M69.9377 53.0102C70.915 52.9839 71.7163 53.0827 72.4657 53.8235C73.6229 54.9682 74.3463 57.5642 73.0063 58.8198C72.2877 59.4935 71.5865 59.4981 70.6813 59.4469C66.6864 58.3035 64.8 53.7154 69.9377 53.0102Z" fill="#9A5220"/>
<path d="M66.14 74.3921C69.8954 74.0878 71.6403 78.4466 67.3597 79.678C62.727 80.0029 62.2701 75.3389 66.14 74.3921Z" fill="#E5A44A"/>
<path d="M35.0461 72.382C36.4304 72.266 37.9637 72.9023 38.4683 74.2853C38.6866 74.8795 38.6489 75.5377 38.364 76.103C37.9314 76.9732 37.1522 77.3933 36.2746 77.6718C34.6518 77.7088 32.7562 77.0545 32.4276 75.2316C32.3135 74.6093 32.4689 73.9676 32.8549 73.4669C33.4209 72.7376 34.1847 72.5101 35.0461 72.382Z" fill="#E5A44A"/>
<path d="M47.0983 70.7671C48.128 70.9007 48.5222 72.4192 51.0067 72.4723C53.4174 72.5239 53.9176 70.8452 55.1662 71.06C55.6558 71.4892 55.4606 71.912 55.096 72.3532C52.7425 74.2485 49.5616 74.3622 47.1997 72.4233C46.4976 71.8469 46.526 71.3529 47.0983 70.7671Z" fill="#592209"/>
<path d="M58.8369 76.2055C60.1952 76.0225 59.8749 76.5563 60.6194 77.0905C60.8859 77.2816 62.0325 77.1578 62.4452 77.6748C62.8954 78.2377 62.4 78.9408 62.019 79.2746C60.6675 79.8415 59.1063 78.3851 58.5234 77.2145C58.3925 76.9538 58.6955 76.4313 58.8369 76.2055Z" fill="#E6A146"/>
<path d="M26.147 70.8235C28.0651 70.8675 27.9825 72.1457 26.5047 72.9967C25.0207 73.1191 24.4888 71.6233 26.147 70.8235Z" fill="#E5A44A"/>
<path d="M47.4677 79.7623C48.9519 79.8025 49.0977 81.3961 48.0045 82.1126C46.677 81.709 46.4071 80.6905 47.4677 79.7623Z" fill="#E5A44A"/>
<path d="M26.8714 91.8364C26.6662 91.7709 26.7548 91.8259 26.6268 91.6341C26.4521 90.4545 27.5041 88.0018 28.1363 87.0188C30.6346 83.1331 35.6753 81.0799 40.1906 81.7729C41.9339 82.0405 43.2445 82.6323 44.6993 83.5673C46.0582 84.3937 46.8367 85.1599 47.8263 86.3847L48.3292 86.7113C49.9839 85.1048 51.9045 83.6143 54.1206 82.8833C56.9025 81.9659 60.4338 82.2353 63.0358 83.5958C65.2454 84.2834 67.8003 86.7017 68.8103 88.7593C69.5741 90.3186 69.8944 91.4616 69.9483 93.1982C66.9682 92.9573 68.8757 94.6043 66.9894 95.2943C66.113 95.7771 65.4272 96.2436 64.8385 97.0762C63.7573 98.6047 63.8034 100.767 65.0588 102.19C65.8475 102.95 66.1737 103.178 67.1625 103.645C63.8775 108.599 52.9403 117.204 47.2683 118.526C46.5147 118.282 45.8009 117.925 45.1204 117.521C41.8761 115.696 38.8556 113.498 36.1207 110.971C35.094 110.183 33.3519 108.425 32.498 107.449C32.1756 107.193 31.4822 106.331 31.1836 105.979C30.488 105.154 29.8373 104.293 29.2345 103.397C29.0507 103.182 28.8723 102.836 28.7248 102.583C31.2173 101.873 32.1869 100.461 32.3537 97.9407C31.7735 95.5333 30.9432 95.3396 29.2191 93.8391C28.2274 92.9756 29.8692 92.1766 26.8714 91.8364Z" fill="#F6C25E"/>
<path d="M65.0588 102.19C65.8475 102.95 66.1737 103.178 67.1625 103.645C63.8775 108.599 52.9403 117.204 47.2683 118.526C46.5147 118.282 45.8009 117.925 45.1204 117.521C49.3273 116.816 58.0626 109.876 61.1523 106.792C62.2489 105.697 64.1045 103.48 65.0588 102.19Z" fill="#E5A44A"/>
<path d="M26.8714 91.8364C26.6662 91.7709 26.7548 91.8259 26.6268 91.6341C26.4521 90.4545 27.5041 88.0018 28.1363 87.0188C30.6346 83.1331 35.6753 81.0799 40.1906 81.7729C41.9339 82.0405 43.2445 82.6323 44.6993 83.5673L44.6156 83.8589C40.4554 82.5936 37.2127 82.3761 33.1079 84.4498C32.2311 84.8928 31.3399 85.6753 30.6659 86.0098C30.2445 86.5234 29.8274 87.04 29.4148 87.5604C28.6335 88.8691 28.0825 90.1249 27.7366 91.6109C27.6602 91.9396 27.1604 91.8461 26.8714 91.8364Z" fill="#F9D99B"/>
<path d="M63.0358 83.5958C65.2454 84.2834 67.8003 86.7017 68.8103 88.7593C69.5741 90.3186 69.8944 91.4616 69.9483 93.1982C66.9682 92.9573 68.8757 94.6043 66.9894 95.2943C67.1981 94.6823 67.3155 93.4834 67.3039 92.8406C67.2212 88.5482 65.8418 86.5706 63.0723 83.7565L63.0358 83.5958Z" fill="#E5A44A"/>
<path d="M48.3292 86.7113C49.9839 85.1048 51.9045 83.6143 54.1206 82.8833C56.9025 81.9659 60.4338 82.2353 63.0358 83.5958L63.0723 83.7565C63.0079 83.7939 62.9435 83.8312 62.879 83.8686C59.6806 83.032 55.6125 83.2217 52.6787 84.7466C51.6445 85.2956 50.6613 85.9356 49.7409 86.6603C49.2133 87.0766 47.7864 88.3661 47.203 88.3458L47.0313 88.2042C47.0723 88.0577 47.0491 88.0384 47.1326 87.9584C47.5124 87.6539 47.9881 87.0901 48.3292 86.7113Z" fill="#F9D99B"/>
<path d="M32.3537 97.9407C32.7133 99.4036 32.7815 100.392 31.9966 101.739C31.6787 102.284 30.8894 103.006 30.2706 103.144C29.7987 103.172 29.627 103.138 29.2345 103.397C29.0507 103.182 28.8723 102.836 28.7248 102.583C31.2173 101.873 32.1869 100.461 32.3537 97.9407Z" fill="#E5A44A"/>
<path d="M31.1836 105.979C31.4273 105.648 31.4584 105.646 31.8617 105.544C32.3607 106.214 32.984 107.012 33.4455 107.694C33.954 108.162 35.9125 110.176 36.2602 110.688C36.2346 110.917 36.2846 110.829 36.1207 110.971C35.094 110.183 33.3519 108.425 32.498 107.449C32.1756 107.193 31.4822 106.331 31.1836 105.979Z" fill="#F9D99B"/>
<path d="M30.2706 103.144C30.8374 104.081 31.2089 104.667 31.8617 105.544C31.4584 105.646 31.4273 105.648 31.1836 105.979C30.488 105.154 29.8373 104.293 29.2345 103.397C29.627 103.138 29.7987 103.172 30.2706 103.144Z" fill="#F9D99B"/>
<path d="M47.8263 86.3847L48.3292 86.7113C47.9881 87.0901 47.5124 87.6539 47.1326 87.9584C47.0555 87.3204 47.4546 86.9002 47.8263 86.3847Z" fill="#632A13"/>
<path d="M32.5997 92.7558C31.7472 89.5505 34.9163 87.1055 37.7861 89.1795C37.9883 89.4088 38.1885 89.6401 38.3867 89.8724C39.8403 90.945 39.8504 92.8532 38.795 94.2091C38.2454 94.9088 37.4404 95.3598 36.5579 95.463C35.7285 95.5574 34.4977 95.2133 33.9909 94.5108C33.2266 93.8535 33.0358 93.6579 32.5997 92.7558Z" fill="#83421D"/>
<path d="M37.7861 89.1795C37.9883 89.4088 38.1885 89.6401 38.3867 89.8724C39.8403 90.945 39.8504 92.8532 38.795 94.2091C38.2454 94.9088 37.4404 95.3598 36.5579 95.463C35.7285 95.5574 34.4977 95.2133 33.9909 94.5108C33.2266 93.8535 33.0358 93.6579 32.5997 92.7558C33.1259 92.7211 33.0952 92.726 33.3992 92.4205C33.6875 93.0353 34.2244 93.7658 34.9667 93.6945C36.5639 93.5422 38.5835 91.3604 37.1282 89.8704C37.3302 89.8541 37.4411 89.8184 37.6363 89.7712C37.8713 89.4907 37.8126 89.6276 37.7861 89.1795Z" fill="#592209"/>
<path d="M38.3867 89.8724C39.8403 90.945 39.8504 92.8532 38.795 94.2091C38.2454 94.9088 37.4404 95.3598 36.5579 95.463C35.7285 95.5574 34.4977 95.2133 33.9909 94.5108C37.3494 95.8369 39.8613 93.3081 38.3867 89.8724Z" fill="#E5A44A"/>
<path d="M32.5997 92.7558C31.7472 89.5505 34.9163 87.1055 37.7861 89.1795C37.8126 89.6276 37.8713 89.4907 37.6363 89.7712C37.4411 89.8184 37.3302 89.8541 37.1282 89.8704C36.384 89.4127 35.8096 89.3558 34.9699 89.4532L34.6825 89.6112C34.0115 89.9919 33.8959 90.1258 33.5344 90.8197C33.2592 91.3131 33.3494 91.8673 33.3992 92.4205C33.0952 92.726 33.1259 92.7211 32.5997 92.7558Z" fill="#592209"/>
<path d="M33.5344 90.8197C33.8959 90.1258 34.0115 89.9919 34.6825 89.6112C34.7904 89.9427 34.795 89.9909 34.8239 90.3417C34.5056 90.6328 34.2015 90.9865 33.8033 91.078C33.6598 90.9575 33.6574 90.9623 33.5344 90.8197Z" fill="#AD6C39"/>
<path d="M34.9699 89.4532C35.2866 89.483 35.5741 89.4522 35.7801 89.6247C35.4756 89.9446 35.1659 90.0536 34.8239 90.3417C34.795 89.9909 34.7904 89.9427 34.6825 89.6112L34.9699 89.4532Z" fill="#9A5220"/>
<path d="M58.2521 91.3517C57.2305 90.9257 56.5273 89.9688 56.4263 88.8643C56.3253 87.7608 56.8429 86.6911 57.7702 86.0859C58.6975 85.4807 59.8826 85.4392 60.8493 85.9789C62.6424 86.348 63.4783 87.9738 63.0772 89.7047C62.8579 90.6183 62.2836 91.4076 61.4813 91.8952C60.402 92.5496 58.9428 92.5631 58.2521 91.3517Z" fill="#592209"/>
<path d="M60.8493 85.9789C62.6424 86.348 63.4783 87.9738 63.0772 89.7047C62.8579 90.6183 62.2836 91.4076 61.4813 91.8952C60.402 92.5496 58.9428 92.5631 58.2521 91.3517C59.7133 91.9608 61.3947 91.3218 62.0845 89.8945C62.7742 88.4682 62.2326 86.7499 60.8493 85.9789Z" fill="#E5A44A"/>
<path d="M58.734 86.5379C60.1038 86.2083 60.8157 86.8973 61.3553 88.0519C60.6579 92.5583 56.3051 90.3889 57.522 87.5527C57.9241 86.9976 58.1597 86.8443 58.734 86.5379Z" fill="#83421D"/>
<path d="M58.734 86.5379L58.9716 86.7056C58.8793 87.199 58.2059 87.8052 57.7028 87.8755C57.6307 87.756 57.5787 87.6799 57.522 87.5527C57.9241 86.9976 58.1597 86.8443 58.734 86.5379Z" fill="#AD6C39"/>
<path d="M44.4095 102.069C43.8466 101.798 43.3514 101.04 43.2063 100.449C43.0177 99.6465 43.1574 98.8013 43.5943 98.1036C44.0337 97.4126 44.7423 96.9374 45.5475 96.7948C46.3801 96.6522 47.0987 96.8864 47.7676 97.3779C48.136 97.6843 48.2282 97.7913 48.5256 98.1498C49.6136 98.9622 49.6106 100.78 48.8309 101.851C48.3009 102.584 47.5032 103.075 46.6122 103.22C45.793 103.346 44.6212 103.023 44.3959 102.136L44.4095 102.069Z" fill="#83421D"/>
<path d="M46.8625 97.7663C46.7384 97.5494 46.7176 97.5234 46.638 97.2767C46.8727 97.1273 47.1877 97.3297 47.6842 97.3711L47.7676 97.3779C48.136 97.6843 48.2282 97.7913 48.5256 98.1498C49.6136 98.9622 49.6106 100.78 48.8309 101.851C48.3009 102.584 47.5032 103.075 46.6122 103.22C45.793 103.346 44.6212 103.023 44.3959 102.136L44.4095 102.069C44.8287 101.921 44.7653 101.855 45.0483 101.422C47.3263 102.172 49.3568 99.2359 46.8625 97.7663Z" fill="#60290F"/>
<path d="M48.5256 98.1498C49.6136 98.9622 49.6106 100.78 48.8309 101.851C48.3009 102.584 47.5032 103.075 46.6122 103.22C45.793 103.346 44.6212 103.023 44.3959 102.136C47.4882 103.387 49.6677 101.293 48.5256 98.1498Z" fill="#E5A44A"/>
<path d="M44.4095 102.069C43.8466 101.798 43.3514 101.04 43.2063 100.449C43.0177 99.6465 43.1574 98.8013 43.5943 98.1036C44.0337 97.4126 44.7423 96.9374 45.5475 96.7948C46.3801 96.6522 47.0987 96.8864 47.7676 97.3779L47.6842 97.3711C47.1877 97.3297 46.8727 97.1273 46.638 97.2767C46.7176 97.5234 46.7384 97.5494 46.8625 97.7663C46.3572 97.639 45.9966 97.508 45.4894 97.613C44.7168 98.0448 44.5237 98.1325 44.1244 98.9449C43.8187 99.9578 44.1052 100.88 45.0483 101.422C44.7653 101.855 44.8287 101.921 44.4095 102.069Z" fill="#592209"/>
<path d="M45.4894 97.613L45.8114 97.9638C45.7234 98.2693 44.7109 98.9275 44.4073 99.128C44.2036 99.1049 44.3044 99.1367 44.1244 98.9449C44.5237 98.1325 44.7168 98.0448 45.4894 97.613Z" fill="#AD6C39"/>
<path d="M55.2836 107.508C54.3601 106.995 53.857 105.956 54.0263 104.911C54.1966 103.867 55.0017 103.042 56.0406 102.848C57.0795 102.655 58.127 103.135 58.66 104.049C59.7133 104.583 59.7546 106.155 59.2477 107.11C58.9014 107.765 58.3021 108.25 57.5903 108.451C56.7159 108.695 55.6924 108.348 55.2836 107.508Z" fill="#592209"/>
<path d="M58.66 104.049C59.7133 104.583 59.7546 106.155 59.2477 107.11C58.9014 107.765 58.3021 108.25 57.5903 108.451C56.7159 108.695 55.6924 108.348 55.2836 107.508C56.2695 108.056 57.4999 107.876 58.2877 107.068C59.0755 106.261 59.2285 105.025 58.66 104.049Z" fill="#E5A44A"/>
<path d="M55.349 104.027C56.0165 103.536 56.4254 103.447 57.2026 103.743C57.5816 103.982 57.799 104.313 58.0414 104.687C58.7927 105.916 57.0564 107.746 55.8193 106.827C54.6939 106.136 54.4005 105.027 55.349 104.027Z" fill="#83421D"/>
<path d="M58.0414 104.687C58.7927 105.916 57.0564 107.746 55.8193 106.827C57.0295 106.125 57.4219 105.977 58.0414 104.687Z" fill="#632A13"/>
<path d="M55.349 104.027C56.0165 103.536 56.4254 103.447 57.2026 103.743C56.9361 104.021 55.7126 104.224 55.349 104.027Z" fill="#83421D"/>
<path d="M45.1607 115.08C44.3106 114.572 43.8676 113.586 44.0513 112.611C44.235 111.637 45.0064 110.882 45.9829 110.719C46.9593 110.557 47.9331 111.022 48.4211 111.885C50.2418 112.931 49.0439 115.624 47.1567 116.034C46.6634 116.144 46.1468 116.041 45.7318 115.753C45.4457 115.555 45.3115 115.384 45.1607 115.08Z" fill="#592209"/>
<path d="M48.4211 111.885C50.2418 112.931 49.0439 115.624 47.1567 116.034C46.6634 116.144 46.1468 116.041 45.7318 115.753C45.4457 115.555 45.3115 115.384 45.1607 115.08C46.0798 115.629 47.253 115.489 48.0181 114.739C48.7833 113.99 48.9488 112.818 48.4211 111.885Z" fill="#E5A44A"/>
<path d="M46.1658 111.62C46.7555 111.555 46.9565 111.649 47.4747 111.946C47.7663 112.079 47.7421 111.995 47.8645 112.311C48.4565 113.844 46.3103 115.609 45.2367 114.079C44.7708 113.429 44.6853 113.092 44.9901 112.344C45.4044 111.774 45.471 111.74 46.1658 111.62Z" fill="#83421D"/>
<path d="M47.4747 111.946C47.7663 112.079 47.7421 111.995 47.8645 112.311C48.4565 113.844 46.3103 115.609 45.2367 114.079C45.5892 114.004 46.7134 113.261 47.0123 112.967C47.3749 112.611 47.4711 112.45 47.4747 111.946Z" fill="#632A13"/>
<path d="M46.1658 111.62L46.2992 111.77C46.1073 112.023 45.5237 112.284 45.2282 112.413L44.9901 112.344C45.4044 111.774 45.471 111.74 46.1658 111.62Z" fill="#9A5220"/>
<path d="M36.3191 107.914C35.3533 107.59 34.7636 106.614 34.9255 105.606C35.0875 104.599 35.9535 103.857 36.972 103.853C37.9906 103.849 38.8623 104.585 39.032 105.591C39.9615 107.872 38.0806 109.255 36.3191 107.914Z" fill="#592209"/>
<path d="M39.032 105.591C39.9615 107.872 38.0806 109.255 36.3191 107.914C37.0125 108.147 37.7769 107.998 38.3326 107.522C38.8883 107.046 39.1539 106.313 39.032 105.591Z" fill="#E5A44A"/>
<path d="M36.2411 104.744C37.8641 103.605 39.3814 107.052 36.4941 107.214C36.0407 106.952 35.9311 106.705 35.7282 106.244C35.704 105.995 35.6772 105.746 35.648 105.497C35.7918 105.252 36.0523 104.966 36.2411 104.744Z" fill="#83421D"/>
<path d="M36.2411 104.744C36.5419 104.741 36.9134 104.695 37.1579 104.843C36.9739 105.07 36.215 105.649 35.9436 105.864L35.8027 105.857L35.648 105.497C35.7918 105.252 36.0523 104.966 36.2411 104.744Z" fill="#AD6C39"/>
<path d="M36.4941 107.214L36.5511 107.297L36.2984 107.32L36.2155 107.397C35.7559 107.446 34.8844 106.748 35.3656 106.202L35.7282 106.244C35.9311 106.705 36.0407 106.952 36.4941 107.214Z" fill="#632A13"/>
<path d="M52.7796 94.1214C52.3299 93.8998 52.0641 93.4218 52.1118 92.9226C52.1595 92.4224 52.5108 92.0041 52.9941 91.8711C53.478 91.7382 53.9926 91.9193 54.2879 92.3251C54.9026 92.7992 55.3576 93.4459 54.7583 94.1725C54.5246 94.4616 54.1754 94.6312 53.8041 94.638C53.3828 94.6467 53.0249 94.4607 52.7796 94.1214Z" fill="#592209"/>
<path d="M54.2879 92.3251C54.9026 92.7992 55.3576 93.4459 54.7583 94.1725C54.5246 94.4616 54.1754 94.6312 53.8041 94.638C53.3828 94.6467 53.0249 94.4607 52.7796 94.1214C53.2779 94.3682 53.8791 94.2409 54.2369 93.8159C54.5938 93.39 54.616 92.7742 54.2879 92.3251Z" fill="#E5A44A"/>
<path d="M53.1336 92.4677C53.3289 92.3742 53.5588 92.3944 53.7348 92.5207C53.9099 92.6469 54.0022 92.8599 53.9743 93.0748C53.9474 93.2897 53.8051 93.4719 53.603 93.5499C53.3087 93.6646 52.9759 93.5259 52.8496 93.2348C52.7234 92.9447 52.849 92.6055 53.1336 92.4677Z" fill="#83421D"/>
<path d="M39.8998 87.3455C39.4658 87.1267 39.2154 86.6593 39.2741 86.1765C39.3328 85.6927 39.6878 85.2985 40.1613 85.1911C40.6349 85.0831 41.1251 85.285 41.3864 85.6946C41.7119 85.9982 41.9301 86.2507 41.9495 86.7229C41.9616 87.0487 41.8423 87.3647 41.6185 87.6009C41.0542 88.1916 40.3335 87.9478 39.8998 87.3455Z" fill="#592209"/>
<path d="M41.3864 85.6946C41.7119 85.9982 41.9301 86.2507 41.9495 86.7229C41.9616 87.0487 41.8423 87.3647 41.6185 87.6009C41.0542 88.1916 40.3335 87.9478 39.8998 87.3455C40.3626 87.5787 40.9238 87.4727 41.2708 87.0872C41.6179 86.7027 41.6652 86.1321 41.3864 85.6946Z" fill="#E5A44A"/>
<path d="M40.2644 85.8373C40.6048 85.9009 40.8019 85.9307 40.9794 86.2295C40.8238 86.5861 40.8325 86.4955 40.4589 86.7576L40.0966 86.7422C39.8121 86.5215 39.8911 86.6593 39.8214 86.3336C39.9664 85.9722 39.9019 86.0926 40.2644 85.8373Z" fill="#83421D"/>
<path d="M63.3561 95.1709C63.9641 94.9493 64.6374 95.2615 64.8635 95.8696C65.0886 96.4777 64.7836 97.1543 64.1786 97.3856C63.5658 97.6207 62.88 97.3094 62.652 96.6936C62.423 96.0788 62.7395 95.3945 63.3561 95.1709Z" fill="#592209"/>
<path d="M63.3465 95.6036C63.7929 95.7482 63.9756 95.7694 64.167 96.1963C64.144 96.5346 64.0593 96.6059 63.8602 96.9008C63.1387 96.868 63.0637 96.1626 63.3465 95.6036Z" fill="#83421D"/>
<path d="M31.0357 86.1774C31.2399 86.4627 31.3179 87.0544 31.4367 87.4149L32.4623 88.0577C31.0993 88.7197 31.4284 89.0282 31.0332 90.3803C30.8222 89.1824 30.8791 88.4991 29.6043 88.0153L29.6982 87.9854C30.7847 87.6433 30.7679 87.2115 31.0357 86.1774Z" fill="#FEFEFE"/>
<path d="M61.1119 103.959C62.2432 103.938 62.754 104.721 61.793 105.47C60.4251 105.746 60.1769 104.819 61.1119 103.959Z" fill="#E5A44A"/>
<path d="M59.088 100.065C59.3468 99.9713 59.6354 100.027 59.8422 100.209C60.048 100.391 60.1394 100.672 60.0798 100.941C60.0192 101.21 59.8181 101.425 59.5536 101.502C59.1631 101.616 58.7513 101.399 58.6253 101.01C58.4993 100.622 58.7042 100.203 59.088 100.065Z" fill="#E5A44A"/>
<path d="M40.0815 102.465C40.4266 102.313 40.8306 102.453 41.0074 102.787C41.1841 103.121 41.0735 103.535 40.7539 103.736C40.5256 103.879 40.2363 103.882 40.0046 103.744C39.7728 103.606 39.6373 103.351 39.6535 103.081C39.6697 102.812 39.8348 102.574 40.0815 102.465Z" fill="#E5A44A"/>
<path d="M50.5549 107.869C50.9216 107.784 51.2892 108.008 51.3826 108.373C51.4761 108.738 51.2613 109.111 50.8988 109.213C50.6568 109.282 50.3969 109.213 50.2196 109.035C50.0424 108.856 49.9757 108.595 50.0453 108.353C50.115 108.111 50.3099 107.926 50.5549 107.869Z" fill="#632A13"/>
<path d="M53.8214 84.7246C54.1504 84.5897 54.5265 84.7393 54.6727 85.0632C54.8199 85.3872 54.6843 85.7688 54.3659 85.9278C54.1504 86.0358 53.8926 86.0165 53.6944 85.8777C53.4963 85.7399 53.3895 85.5038 53.4164 85.2635C53.4434 85.0232 53.5982 84.8165 53.8214 84.7246Z" fill="#592209"/>
<path d="M51.9679 7.4988C52.8787 6.73572 53.6665 5.93236 54.6458 5.16195C57.7942 2.68479 61.2543 1.23805 65.2944 1.23005C69.7174 1.22128 75.6564 3.39332 78.7991 6.52283C80.6479 8.10334 81.5906 10.2022 82.492 12.3924C82.6872 12.8671 82.8382 13.2473 83.1518 13.6577C83.528 13.3772 83.3173 12.5615 83.2625 12.116C84.5399 12.1189 85.6211 12.4106 86.8197 12.8104C89.7055 13.8317 92.0805 15.9377 93.4436 18.6826C95.0616 21.9752 95.0683 25.8697 93.4032 29.1413C91.0513 33.373 86.5677 35.5671 81.7897 34.6521C81.885 34.0124 82.3207 30.8817 82.5929 30.5627L82.6853 30.544C83.046 30.4242 83.1307 30.4125 83.2567 30.0648L83.2644 29.8348C84.3062 29.5822 87.747 29.1217 88.0144 28.0448C87.8528 27.8176 87.5537 27.9619 87.3074 28.0504C81.5541 30.1241 75.4679 27.6035 72.1357 22.6446C72.4868 22.4366 72.9274 22.2472 73.3026 22.0725C74.025 21.7683 76.7396 20.4896 76.6338 19.6321C76.2509 19.7647 75.8459 19.9753 75.4939 20.1684C71.1449 22.5503 65.8273 23.3262 61.1081 21.5815C58.7956 20.7268 56.661 19.5983 55.1143 17.5221C54.5929 16.9423 54.0609 16.0462 53.603 15.3721C53.5559 16.7178 54.9459 18.5463 55.7135 19.5769C52.6027 21.0503 49.7912 21.7707 46.3044 20.6898C45.6836 20.4973 44.4013 19.8273 43.9175 19.4128C43.2817 18.9921 42.7122 18.2192 41.9004 17.649C42.1621 18.2255 42.2783 18.4166 42.6349 18.9426C43.5755 20.1065 43.9881 20.5807 45.322 21.3392C44.2646 21.381 43.3597 21.3673 42.3001 21.3397C42.4973 21.6953 42.5294 21.6405 42.9623 21.8524C44.0988 22.081 44.6051 22.1392 45.7237 21.898C45.367 23.201 44.9907 24.4985 44.5949 25.7901L44.4888 25.7654C41.7864 25.123 39.9115 23.4038 38.4672 21.0617C36.7738 18.397 36.4642 15.5688 37.5656 12.6023C38.6793 9.64704 40.9049 7.24688 43.7648 5.91684C46.8976 4.4832 49.7952 4.55211 52.9874 5.73633C52.4133 6.43195 52.2772 6.65072 51.9679 7.4988Z" fill="#FEFEFE"/>
<path d="M72.1357 22.6446C72.4868 22.4366 72.9274 22.2472 73.3026 22.0725C75.667 25.081 81.6656 27.4651 85.4114 27.5505C86.2551 27.5697 87.4921 27.3681 88.2636 27.6302C88.6772 28.2869 87.1237 29.6524 86.6706 30.0532C88.2347 30.3007 88.5762 30.3035 90.1759 29.999C91.1475 29.8141 92.6327 29.0437 93.4032 29.1413C91.0513 33.373 86.5677 35.5671 81.7897 34.6521C81.885 34.0124 82.3207 30.8817 82.5929 30.5627L82.6853 30.544C83.046 30.4242 83.1307 30.4125 83.2567 30.0648L83.2644 29.8348C84.3062 29.5822 87.747 29.1217 88.0144 28.0448C87.8528 27.8176 87.5537 27.9619 87.3074 28.0504C81.5541 30.1241 75.4679 27.6035 72.1357 22.6446Z" fill="#DBDBE7"/>
<path d="M83.2567 30.0648L83.3596 30.1388C84.1821 30.7261 85.4153 31.0561 85.9742 31.5613L85.9607 31.6612C84.8064 31.8073 83.627 31.1236 82.6853 30.544C83.046 30.4242 83.1307 30.4125 83.2567 30.0648Z" fill="#632A13"/>
<path d="M55.1143 17.5221C55.6097 17.6705 56.3455 18.1681 56.7957 18.4553C58.3348 19.4391 59.7998 20.2931 61.615 20.6856C64.4171 21.2948 67.3039 21.4168 70.1474 21.0464C70.917 20.949 71.6904 20.8295 72.4464 20.6538C73.6614 20.3718 75.414 19.3272 76.6338 19.6321C76.2509 19.7647 75.8459 19.9753 75.4939 20.1684C71.1449 22.5503 65.8273 23.3262 61.1081 21.5815C58.7956 20.7268 56.661 19.5983 55.1143 17.5221Z" fill="#DBDBE7"/>
<path d="M38.4672 21.0617L38.6177 20.8757C39.3257 21.0491 42.2129 23.0097 42.9623 21.8524C44.0988 22.081 44.6051 22.1392 45.7237 21.898C45.367 23.201 44.9907 24.4985 44.5949 25.7901L44.4888 25.7654C41.7864 25.123 39.9115 23.4038 38.4672 21.0617Z" fill="#DBDBE7"/>
<path d="M53.7906 18.4597C53.5617 17.5557 53.0047 16.0166 53.2067 15.179L53.3674 15.0822L53.5521 15.1593L53.603 15.3721C53.5559 16.7178 54.9459 18.5463 55.7135 19.5769C52.6027 21.0503 49.7912 21.7707 46.3044 20.6898C45.6836 20.4973 44.4013 19.8273 43.9175 19.4128C44.7649 19.4615 46.1674 20.1235 47.2426 20.2244C49.3099 20.4184 52.1707 19.8241 53.7906 18.4597Z" fill="#D2D4E8"/>
<path d="M78.7991 6.52283C80.6479 8.10334 81.5906 10.2022 82.492 12.3924C82.6872 12.8671 82.8382 13.2473 83.1518 13.6577L83.0422 13.6919C82.87 13.7444 82.719 13.7681 82.542 13.7981L82.6439 13.7879C82.7767 13.8636 82.8709 13.8845 83.0201 13.9116C82.0273 13.8959 81.0558 13.9799 80.0688 14.0741C80.1188 12.3872 80.4334 10.477 79.8476 8.87066C79.5571 8.07279 79.0473 7.36802 78.7991 6.52283Z" fill="#DBDBE7"/>
<path d="M83.2625 12.116C84.5399 12.1189 85.6211 12.4106 86.8197 12.8104C86.4898 13.2121 86.9573 14.0144 87.1381 14.5117C85.4393 14.0965 84.7554 14.0405 83.0201 13.9116C82.8709 13.8845 82.7767 13.8636 82.6439 13.7879L82.542 13.7981C82.719 13.7681 82.87 13.7444 83.0422 13.6919L83.1518 13.6577C83.528 13.3772 83.3173 12.5615 83.2625 12.116Z" fill="#D2D4E8"/>
<path d="M42.6349 18.9426C43.5755 20.1065 43.9881 20.5807 45.322 21.3392C44.2646 21.381 43.3597 21.3673 42.3001 21.3397C42.7054 21.2073 43.4342 21.2337 43.8907 21.2281C42.9605 20.607 42.5872 20.0957 42.6349 18.9426Z" fill="#DBDBE7"/>
<path d="M56.3619 20.2164C61.0292 23.4926 65.7196 24.4608 71.2633 22.9292C73.594 26.4361 76.3615 28.7273 80.5883 29.5884C80.9278 29.6584 81.2712 29.7088 81.6166 29.7395C80.7383 33.437 80.0005 36.7505 79.1925 40.4725C78.1574 40.4655 77.2975 40.4265 76.2644 40.353C76.5635 39.187 77.1388 36.5844 77.2128 35.4023C77.1984 35.1623 77.1821 34.9801 77.1513 34.7415L76.9916 34.684C76.5116 36.5388 75.9412 38.4978 75.6006 40.3643L73.1487 40.2399C71.8818 40.6089 70.8842 39.962 70.3735 39.982L69.9714 39.8179C68.6141 39.6667 67.1654 39.53 65.8235 39.3166L65.129 39.2851C64.6509 39.4213 64.3642 39.5619 64.0266 39.1208C63.3908 38.8785 61.1331 38.5421 60.2606 38.3302C59.6594 38.3126 58.0828 37.941 57.4566 37.8C57.7634 36.5119 58.4175 34.1694 58.4647 32.9423C57.8067 33.6902 57.2161 36.6568 57.0237 37.7041L54.5861 37.105C53.7656 36.83 52.1881 36.6618 51.4697 36.2388L50.9734 36.0943C50.6991 36.1723 50.2598 35.9746 49.9638 35.8757C49.0106 35.5729 47.9615 35.2732 47.0652 34.8489C46.8667 34.7142 46.8578 34.7406 46.6103 34.7477C46.3034 34.5738 45.8952 34.4244 45.5627 34.2893C44.9977 34.0863 44.4029 33.8001 43.852 33.55C44.7197 30.0845 45.7286 26.7278 46.4001 23.2134C46.4767 22.7362 46.541 22.22 46.6865 21.7619C49.6733 22.5812 52.8031 22.3305 55.5202 20.7649C55.8107 20.597 56.0906 20.4139 56.3619 20.2164Z" fill="#FEFEFE"/>
<path d="M56.3619 20.2164C61.0292 23.4926 65.7196 24.4608 71.2633 22.9292C73.594 26.4361 76.3615 28.7273 80.5883 29.5884C80.9278 29.6584 81.2712 29.7088 81.6166 29.7395C80.7383 33.437 80.0005 36.7505 79.1925 40.4725C78.1574 40.4655 77.2975 40.4265 76.2644 40.353C76.5635 39.187 77.1388 36.5844 77.2128 35.4023C77.1984 35.1623 77.1821 34.9801 77.1513 34.7415L76.9916 34.684C76.5116 36.5388 75.9412 38.4978 75.6006 40.3643L73.1487 40.2399C71.8818 40.6089 70.8842 39.962 70.3735 39.982L69.9714 39.8179C69.9935 39.396 70.0656 39.2443 69.7443 38.9634C70.4427 38.5648 70.8871 35.6863 71.0959 34.8565C71.6865 32.5174 72.2175 30.1685 72.962 27.8702C71.5845 26.4349 70.9804 26.1403 70.2628 24.2325C69.1037 24.2957 67.934 24.4765 66.7354 24.5071C64.4143 24.5667 61.6323 23.9877 59.5055 23.0265C58.5849 22.6107 57.6326 21.8407 56.6312 21.375L56.5177 21.3229C54.2293 22.1057 52.0399 23.2454 49.5481 23.2243C48.6292 23.2166 47.2373 23.3787 47.0051 22.2518C46.7754 22.4661 46.6576 22.883 46.4001 23.2134C46.4767 22.7362 46.541 22.22 46.6865 21.7619C49.6733 22.5812 52.8031 22.3305 55.5202 20.7649C55.8107 20.597 56.0906 20.4139 56.3619 20.2164Z" fill="#DBDBE7"/>
<path d="M73.3112 28.4287C74.253 29.1244 74.8753 29.5588 75.9084 30.1469C75.4361 33.118 74.3857 36.1967 73.8076 39.3153C73.166 39.3009 72.2492 39.1335 71.8395 39.5515C71.5922 39.8036 71.7413 39.8146 71.4441 39.9828C71.2498 39.9481 71.3094 39.9629 71.1315 39.8734C71.4066 37.8704 72.1723 36.0962 72.2146 33.9438C72.1444 33.4423 73.2083 29.5768 73.3112 28.4287Z" fill="#FEFEFE"/>
<path d="M70.3735 39.982C71.1199 39.1391 71.2565 34.8902 72.2146 33.9438C72.1723 36.0962 71.4066 37.8704 71.1315 39.8734C71.3094 39.9629 71.2498 39.9481 71.4441 39.9828C71.8366 40.0792 72.9832 40.1647 73.1487 40.2399C71.8818 40.6089 70.8842 39.962 70.3735 39.982Z" fill="#632A13"/>
<path d="M76.9916 34.684C77.0551 34.4113 77.0897 34.0924 77.2831 33.9119C77.4783 34.2157 77.3696 34.6867 77.2994 35.0165C77.2715 35.1454 77.2427 35.274 77.2128 35.4023C77.1984 35.1623 77.1821 34.9801 77.1513 34.7415L76.9916 34.684Z" fill="#83421D"/>
<path d="M54.0994 24.2992C54.0975 24.3221 54.0956 24.3449 54.0936 24.3677L54.0811 24.4818C53.9224 26.0701 53.1096 29.1906 52.7411 30.9912C52.5069 32.0165 51.7751 35.4627 51.4697 36.2388L50.9734 36.0943C50.6991 36.1723 50.2598 35.9746 49.9638 35.8757C51.5416 34.0415 52.637 26.9713 54.0994 24.2992Z" fill="#DBDBE7"/>
<path d="M50.9734 36.0943C51.1721 35.2972 52.1591 31.1474 52.5999 30.8585L52.7411 30.9912C52.5069 32.0165 51.7751 35.4627 51.4697 36.2388L50.9734 36.0943Z" fill="#632A13"/>
<path d="M60.0701 25.5205C59.9374 27.4511 58.962 30.8849 58.4647 32.9423C57.8067 33.6902 57.2161 36.6568 57.0237 37.7041L54.5861 37.105C55.3461 37.0334 56.2128 37.1347 56.5562 36.3739C56.9227 35.5621 57.0833 34.7045 57.3815 33.8871C58.3329 31.2749 58.8446 27.9777 60.0701 25.5205Z" fill="#DBDBE7"/>
<path d="M65.1877 34.5186C65.4339 33.7043 65.6176 31.5929 66.0996 31.2079L66.4055 31.2813C66.1679 32.3671 64.8154 38.3964 64.8933 39.1578L65.129 39.2851C64.6509 39.4213 64.3642 39.5619 64.0266 39.1208C64.3431 38.8377 65.079 35.1665 65.1877 34.5186Z" fill="#632A13"/>
<path d="M60.2606 38.3302C61.1898 38.0483 62.9098 38.5691 63.2417 38.3043C64.0939 37.6235 64.8317 34.3156 65.0799 33.286L65.1877 34.5186C65.079 35.1665 64.3431 38.8377 64.0266 39.1208C63.3908 38.8785 61.1331 38.5421 60.2606 38.3302Z" fill="#DBDBE7"/>
<path d="M67.0952 26.2356C67.1769 27.1102 66.568 30.1817 66.4055 31.2813L66.0996 31.2079C65.6176 31.5929 65.4339 33.7043 65.1877 34.5186L65.0799 33.286C65.8148 31.1053 66.3728 28.4513 67.0952 26.2356Z" fill="#D2D4E8"/>
<path d="M47.5069 31.06C47.6522 30.4075 47.6643 29.4922 48.3883 29.4379C47.9781 31.107 47.5385 33.286 47.0652 34.8489C46.8667 34.7142 46.8578 34.7406 46.6103 34.7477C46.7697 33.7856 47.1116 32.5473 47.3511 31.5759L47.5069 31.06Z" fill="#632A13"/>
<path d="M47.5069 31.06C47.254 29.1589 48.6096 27.1359 49.0048 25.2788C49.0637 25.0026 49.182 24.5082 49.3119 24.2857C49.347 24.6562 48.5665 29.0408 48.3883 29.4379C47.6643 29.4922 47.6522 30.4075 47.5069 31.06Z" fill="#D2D4E8"/>
<path d="M65.8235 39.3166C66.2179 39.2993 66.7277 39.166 67.1731 39.1229C68.0417 39.0384 68.8738 39.0109 69.7443 38.9634C70.0656 39.2443 69.9935 39.396 69.9714 39.8179C68.6141 39.6667 67.1654 39.53 65.8235 39.3166Z" fill="#D2D4E8"/>
<path d="M45.5627 34.2893C46.709 33.3166 46.6246 32.2122 47.3511 31.5759C47.1116 32.5473 46.7697 33.7856 46.6103 34.7477C46.3034 34.5738 45.8952 34.4244 45.5627 34.2893Z" fill="#DBDBE7"/>
<path d="M43.6979 33.9986C52.6735 38.1193 63.384 40.1752 73.1737 41.0633C74.8301 41.2084 77.4485 41.3425 79.0886 41.2975C78.9405 42.3267 78.3777 47.9075 77.8323 48.3354C77.208 48.8242 76.0181 48.8129 75.2572 48.8654C70.9506 49.1619 66.7191 48.76 62.4683 48.0694C61.4707 47.9073 60.429 47.7635 59.4584 47.4788C59.1063 47.4368 58.7619 47.373 58.4147 47.3011C53.6338 46.3097 48.5585 44.8726 44.2257 42.5935C43.5789 42.2532 42.6034 41.8054 42.2177 41.1579C41.7319 40.3418 43.3891 35.1988 43.6979 33.9986Z" fill="#FEFEFE"/>
<path d="M73.1737 41.0633C74.8301 41.2084 77.4485 41.3425 79.0886 41.2975C78.9405 42.3267 78.3777 47.9075 77.8323 48.3354C77.208 48.8242 76.0181 48.8129 75.2572 48.8654C70.9506 49.1619 66.7191 48.76 62.4683 48.0694C61.4707 47.9073 60.429 47.7635 59.4584 47.4788C60.0336 47.2849 61.5958 47.4556 62.3028 47.4874C65.7735 47.6437 68.718 47.3681 72.0299 46.374C72.1963 45.7202 73.1583 41.5388 73.1737 41.0633Z" fill="#DBDBE7"/>
<path d="M89.4525 79.531C89.0841 79.1162 89.0831 79.0866 89.1207 78.5241C89.2486 76.6539 90.1249 75.0115 91.5457 73.7813C93.1444 72.3976 95.8533 73.5147 97.6992 73.62C99.9655 73.7997 101.632 73.334 103.612 72.2994C104.061 72.0566 105.623 71.3048 106.085 71.4994C108.929 72.6947 104.978 76.3077 103.685 77.3122C102.852 77.9595 101.897 78.5084 100.846 79.1302L100.814 79.2574C101.372 79.4596 103.438 78.5311 104.072 78.2651C104.325 78.1607 104.328 78.1799 104.588 78.2277C105.384 78.8717 104.744 80.06 104.186 80.6453C102.938 81.9538 100.765 83.1588 99.0142 83.5544C98.5957 83.637 98.185 83.6646 97.8724 83.9293L97.8897 84.0636C98.2283 84.2262 98.6592 84.198 99.0411 84.1749C99.4211 84.1239 100.202 83.9808 100.539 84.0623C100.625 84.4987 100.439 85.005 100.187 85.3544C98.8824 87.1595 96.5709 87.0381 94.6961 86.7595L94.6364 87.1884C95.0799 87.4419 95.3406 87.491 95.3973 88.0365C94.8673 89.3442 91.8958 88.9482 91.1061 88.0933C90.9849 87.9623 90.1884 87.5662 89.9893 87.5218L89.8412 87.6288C89.8161 88.0789 90.2798 88.4094 90.2673 88.66C90.1865 90.2357 86.4926 89.1245 87.5277 87.4457C88.1164 86.4907 88.2193 85.287 88.203 84.1138C88.7051 83.6482 88.8177 83.286 89.0235 82.6627C89.2977 81.6666 89.4275 80.8959 89.6016 79.875L89.4525 79.531Z" fill="#FEFEFE"/>
<path d="M88.203 84.1138C88.7051 83.6482 88.8177 83.286 89.0235 82.6627C89.7902 83.641 90.0441 85.4585 89.9114 86.6728C90.9782 87.3416 93.3609 88.8768 94.5287 87.4631C94.5825 87.3975 94.6152 87.2703 94.6364 87.1884C95.0799 87.4419 95.3406 87.491 95.3973 88.0365C94.8673 89.3442 91.8958 88.9482 91.1061 88.0933C90.9849 87.9623 90.1884 87.5662 89.9893 87.5218L89.8412 87.6288C89.8161 88.0789 90.2798 88.4094 90.2673 88.66C90.1865 90.2357 86.4926 89.1245 87.5277 87.4457C88.1164 86.4907 88.2193 85.287 88.203 84.1138Z" fill="#DBDBE7"/>
<path d="M104.072 78.2651C104.325 78.1607 104.328 78.1799 104.588 78.2277C105.384 78.8717 104.744 80.06 104.186 80.6453C102.938 81.9538 100.765 83.1588 99.0142 83.5544C99.3913 83.0888 100.093 82.8434 100.67 82.5971C101.754 82.134 104.652 79.6141 104.072 78.2651Z" fill="#DBDBE7"/>
<path d="M99.0411 84.1749C99.4211 84.1239 100.202 83.9808 100.539 84.0623C100.625 84.4987 100.439 85.005 100.187 85.3544C98.8824 87.1595 96.5709 87.0381 94.6961 86.7595C95.4887 86.3586 97.4328 86.5099 98.3649 85.8247C98.7564 85.5366 99.675 84.8932 99.7837 84.4293C99.5827 84.2263 99.3316 84.2238 99.0411 84.1749Z" fill="#DFDEE9"/>
<path d="M89.4525 79.531C91.2129 76.6562 92.8337 75.051 96.315 75.176C93.8216 75.6754 92.5461 76.3485 90.8637 78.3896C90.578 78.736 89.9143 79.6478 89.6016 79.875L89.4525 79.531Z" fill="#83421D"/>
<path d="M98.6871 77.5969C99.5779 77.9138 99.1796 79.4016 98.7439 79.9595C97.8945 81.0464 96.7373 81.4266 95.4281 81.656C95.2049 81.582 95.2155 81.5935 95.0433 81.4363L95.177 81.3089C96.238 81.1326 97.654 80.477 98.3178 79.5902C98.8285 78.907 98.7901 78.3655 98.6871 77.5969Z" fill="#6F3417"/>
<path d="M95.5445 82.7249L95.7167 82.8812C95.961 83.7034 95.7445 84.1756 95.076 84.7468C94.1545 85.5347 93.4397 85.6956 92.2402 85.6175C92.0055 85.4151 92.0074 85.4826 91.9555 85.2401C92.348 85.0382 93.5465 85.1966 94.1449 84.8161C95.0154 84.2616 95.2751 83.6447 95.5445 82.7249Z" fill="#6F3319"/>
<path d="M1.35108 68.1618C2.60074 67.5306 3.40886 68.3493 4.47998 68.947C5.6546 69.6023 6.82085 70.1583 8.15313 70.3902C10.7829 71.0701 14.3951 69.1316 16.2038 71.3288C16.6847 71.913 17.3724 73.2338 17.7543 73.9391C17.7121 75.0975 17.6998 75.8142 17.7825 76.9784L17.8721 77.1687C17.7624 77.3396 17.7593 77.3546 17.6248 77.5057C16.8148 78.065 16.975 78.7717 17.0019 79.6619C17.2461 81.1909 17.2195 82.1103 18.2652 83.235L18.3459 83.3233C18.3624 83.3406 18.3788 83.3581 18.3953 83.3755C18.3022 84.1741 17.9008 86.2941 16.6698 86.0955C16.4369 86.0579 16.2795 85.844 16.1595 85.657C16.1021 85.0854 16.6151 84.9138 16.6143 84.3079C16.1844 84.4585 15.5117 84.8175 15.167 85.0994C14.4736 85.4257 13.747 85.6609 12.9744 85.5742C12.2995 85.499 11.2542 85.0596 11.3844 84.238C11.6563 84.0448 11.5114 84.0838 11.8275 84.0958C12.198 83.773 12.1314 83.8293 12.2047 83.3975C9.69127 83.6295 7.38743 83.5572 6.56392 80.7063L6.66665 80.4326C7.00246 80.3343 7.11021 80.4477 7.4946 80.58C7.90294 80.6765 8.88151 80.8883 9.24907 80.6502C9.04427 80.3148 6.97996 79.5931 6.38365 79.3096C5.23279 78.6867 0.96679 76.0172 3.14327 74.4926L3.79402 74.7149C3.82451 74.4818 3.81855 74.295 3.97381 74.1262L4.41986 74.1588C3.05362 72.9226 -0.153291 70.108 1.35108 68.1618Z" fill="#FEFEFE"/>
<path d="M17.0019 79.6619C17.2461 81.1909 17.2195 82.1103 18.2652 83.235L18.3459 83.3233C18.3624 83.3406 18.3788 83.3581 18.3953 83.3755C18.3022 84.1741 17.9008 86.2941 16.6698 86.0955C16.4369 86.0579 16.2795 85.844 16.1595 85.657C16.1021 85.0854 16.6151 84.9138 16.6143 84.3079L16.3403 84.1665L16.2915 83.9644C16.3296 83.9022 16.9929 79.907 17.0019 79.6619Z" fill="#DBDBE7"/>
<path d="M4.41986 74.1588C3.05362 72.9226 -0.153291 70.108 1.35108 68.1618C1.7752 69.5257 2.01703 70.2077 2.77918 71.4521C3.56239 72.7308 6.22051 74.0796 6.28823 75.4365C5.74704 75.125 4.9546 74.5293 4.41986 74.1588Z" fill="#DBDBE7"/>
<path d="M17.6248 77.5057C17.3325 77.2749 16.8638 76.5069 16.6488 76.1758C15.1859 73.9229 14.1544 72.9913 11.6079 72.2329L11.6075 72.1896C12.1341 72.0368 12.6544 72.1837 13.173 72.3262C15.3577 72.927 16.7425 75.0811 17.7825 76.9784L17.8721 77.1687C17.7624 77.3396 17.7593 77.3546 17.6248 77.5057Z" fill="#632A13"/>
<path d="M15.167 85.0994C14.4736 85.4257 13.747 85.6609 12.9744 85.5742C12.2995 85.499 11.2542 85.0596 11.3844 84.238C11.6563 84.0448 11.5114 84.0838 11.8275 84.0958C12.2002 84.4453 13.1587 84.7757 13.7032 84.7672C14.7463 84.7508 15.4101 84.2455 16.2915 83.9644L16.3403 84.1665L16.6143 84.3079C16.1844 84.4585 15.5117 84.8175 15.167 85.0994Z" fill="#DBDBE7"/>
<path d="M6.56392 80.7063L6.66665 80.4326C7.00246 80.3343 7.11021 80.4477 7.4946 80.58C7.05403 81.119 7.65024 81.6615 8.09812 81.9986C9.28938 82.8956 10.7889 83.0781 12.2047 83.3975C9.69127 83.6295 7.38743 83.5572 6.56392 80.7063Z" fill="#DBDBE7"/>
<path d="M6.38365 79.3096C5.23279 78.6867 0.96679 76.0172 3.14327 74.4926C3.58807 77.7639 6.03226 77.9617 6.38365 79.3096Z" fill="#DBDBE7"/>
<path d="M3.79402 74.7149C3.82451 74.4818 3.81855 74.295 3.97381 74.1262L4.41986 74.1588C4.9546 74.5293 5.74704 75.125 6.28823 75.4365C6.4304 75.5611 6.42318 75.5552 6.51707 75.7202L6.35787 75.8026C5.70953 75.7462 4.30971 75.1204 3.79402 74.7149Z" fill="#632A13"/>
<path d="M8.48337 74.2388C8.73733 74.5321 8.46663 75.9866 9.66684 77.0109C10.3353 77.5814 11.9297 77.9661 12.1719 78.2908L12.0703 78.474C10.1201 78.3506 7.15869 76.4682 8.48337 74.2388Z" fill="#65280B"/>
<path d="M11.4373 79.4373C11.7679 79.7346 11.7865 80.948 12.6304 81.5344C13.2637 81.9746 14.3504 81.9361 14.7262 82.2009L14.6312 82.4459C12.8503 82.8735 10.501 81.1808 11.4373 79.4373Z" fill="#63280F"/>
<path d="M71.8529 103.797C73.0765 104.917 74.5473 104.302 75.9893 103.912C79.2714 103.022 81.8869 101.487 84.4053 99.2436C84.4851 102.436 84.638 106.355 85.0074 109.502L78.953 111.14C72.256 112.552 67.5348 113.311 60.6396 113.839C59.9951 113.906 58.8456 113.916 58.153 113.945C62.2999 110.596 65.4262 108.39 68.4794 103.941C69.9637 104.107 70.4119 104.031 71.8529 103.797Z" fill="#FEFEFE"/>
<path d="M71.8529 103.797C73.0765 104.917 74.5473 104.302 75.9893 103.912C79.2714 103.022 81.8869 101.487 84.4053 99.2436C84.4851 102.436 84.638 106.355 85.0074 109.502L78.953 111.14C78.751 109.38 78.7212 106.582 78.6538 104.764C77.1734 105.185 75.0004 105.809 73.4632 105.759C71.9789 105.71 70.9035 105.46 69.3548 105.555C68.6987 105.995 67.2914 107.731 66.6267 108.44C65.6148 109.498 64.5605 110.515 63.4658 111.488C62.8309 112.053 62.425 112.361 61.691 112.776C61.1841 113.063 60.4126 113.206 60.0961 113.503V113.671C60.2856 113.823 60.3972 113.811 60.6396 113.839C59.9951 113.906 58.8456 113.916 58.153 113.945C62.2999 110.596 65.4262 108.39 68.4794 103.941C69.9637 104.107 70.4119 104.031 71.8529 103.797Z" fill="#DBDBE7"/>
<path d="M86.6629 85.0421C87.1698 85.4903 86.686 86.5302 86.1194 86.8309C86.2262 87.5643 86.6148 88.368 86.8033 89.1293C87.8143 93.9162 84.6034 98.4582 80.6142 100.788C79.7043 101.32 78.7317 101.753 77.7698 102.182C77.8881 100.868 77.8746 100.229 77.7467 98.8707C77.2667 95.8716 76.5549 94.3113 74.556 92.0986C76.4394 91.289 78.1373 90.3089 79.6081 88.8653C79.7725 88.8807 82.3092 87.4737 82.667 87.2732C83.7348 86.6728 85.9972 86.0184 86.6629 85.0421Z" fill="#FEFEFE"/>
<path d="M86.8033 89.1293C87.8143 93.9162 84.6034 98.4582 80.6142 100.788C79.7043 101.32 78.7317 101.753 77.7698 102.182C77.8881 100.868 77.8746 100.229 77.7467 98.8707C80.7855 97.5003 83.4472 95.9862 85.2094 93.0045C85.8145 91.982 86.5754 90.3147 86.8033 89.1293Z" fill="#DBDBE7"/>
<path d="M62.2489 115.305L62.2605 115.102C62.5625 114.958 71.067 114.084 72.3156 113.855C72.8687 115.42 73.9903 118.189 75.3419 119.175C75.8094 120.282 74.1664 123.872 73.4459 124.902C73.3237 125.063 73.1236 125.293 73.065 125.47C71.5691 126.112 71.2844 123.611 70.9439 122.543C70.2734 122.145 69.5549 121.912 68.8228 121.647C66.1332 120.676 65.305 120.028 63.7649 117.768C63.5264 117.548 62.4952 115.713 62.2489 115.305Z" fill="#F6C25E"/>
<path d="M62.2489 115.305L62.2605 115.102C62.5625 114.958 71.067 114.084 72.3156 113.855C72.8687 115.42 73.9903 118.189 75.3419 119.175C74.9908 119.384 74.3645 119.845 74.0548 119.953C71.4912 116.338 70.0637 117.488 65.9322 117.574C65.4224 117.584 64.1699 117.606 63.7649 117.768C63.5264 117.548 62.4952 115.713 62.2489 115.305Z" fill="#E5A44A"/>
<path d="M75.3419 119.175C75.8094 120.282 74.1664 123.872 73.4459 124.902C73.1544 123.228 74.6752 121.932 74.0548 119.953C74.3645 119.845 74.9908 119.384 75.3419 119.175Z" fill="#E5A44A"/>
<path d="M81.3309 83.1783C83.3731 82.5909 85.2114 81.8715 87.1477 81.0016C87.5258 80.8319 87.9481 80.6467 88.3376 80.5133C88.0645 81.561 87.7682 82.6025 87.4488 83.6372C83.9002 85.4267 80.1939 86.9185 76.4212 88.154C75.2659 88.5318 73.3689 89.2344 72.2137 89.4541L70.5947 89.908C70.1234 88.395 69.5376 87.5295 68.6324 86.2719C73.114 85.2947 76.8723 84.4485 81.3309 83.1783Z" fill="#FEFEFE"/>
<path d="M81.3309 83.1783C83.3731 82.5909 85.2114 81.8715 87.1477 81.0016C87.5258 80.8319 87.9481 80.6467 88.3376 80.5133C88.0645 81.561 87.7682 82.6025 87.4488 83.6372C83.9002 85.4267 80.1939 86.9185 76.4212 88.154C75.2659 88.5318 73.3689 89.2344 72.2137 89.4541C72.6263 89.0609 73.1611 88.8566 73.6479 88.554C75.9277 87.1257 78.7346 86.5523 80.771 84.7591C81.2568 84.3315 81.8955 83.745 81.3309 83.1783Z" fill="#DBDBE7"/>
<path d="M19.8524 84.2497C21.4872 85.3361 24.5917 86.8925 26.4107 87.6905C25.9617 88.6504 25.7425 89.2739 25.4792 90.3041C24.8601 89.883 24.2803 89.4069 23.7469 88.8817C23.3651 88.5087 22.1893 87.2231 21.8566 87.0371L21.7095 87.0997C21.5993 87.916 22.7713 89.3529 23.3214 89.936C20.9928 91.5936 20.0974 93.2416 19.3309 95.9795C19.1452 96.9249 19.1412 97.6024 19.1486 98.5449C18.0417 97.3017 17.0488 95.409 16.7684 93.7543C16.0891 89.8926 17.3908 87.1142 19.8524 84.2497Z" fill="#FEFEFE"/>
<path d="M16.7684 93.7543C17.4467 93.6887 18.5625 95.6489 19.3309 95.9795C19.1452 96.9249 19.1412 97.6024 19.1486 98.5449C18.0417 97.3017 17.0488 95.409 16.7684 93.7543Z" fill="#DBDBE7"/>
<path d="M26.5774 92.8859C27.0096 92.8734 27.3352 92.8146 27.7036 93.018L27.8194 93.2155C27.6549 93.6588 27.5069 93.7465 27.5819 94.1195C28.1822 94.6785 29.0309 95.0755 29.6833 95.6085C31.1177 96.7823 31.517 98.1209 30.711 99.8151C29.251 102.232 25.4669 101.781 23.433 100.424C23.5263 99.1579 23.5805 98.2385 23.9278 97.002C24.1921 95.6567 25.2369 93.4661 26.5774 92.8859Z" fill="#F6C25E"/>
<path d="M23.9278 97.002C23.9785 97.4338 23.9017 97.426 24.1411 97.6593L24.8076 97.8241C25.2899 100.858 27.0085 100.814 29.598 100.58C30.0055 100.337 30.418 99.9809 30.711 99.8151C29.251 102.232 25.4669 101.781 23.433 100.424C23.5263 99.1579 23.5805 98.2385 23.9278 97.002Z" fill="#E5A44A"/>
<path d="M23.9278 97.002C24.1921 95.6567 25.2369 93.4661 26.5774 92.8859C25.6086 94.3354 24.7276 96.0373 24.8076 97.8241L24.1411 97.6593C23.9017 97.426 23.9785 97.4338 23.9278 97.002Z" fill="#E5A44A"/>
<path d="M65.8649 101.302C65.2733 100.56 65.1829 99.8286 65.3127 98.9246C65.5955 96.9509 67.4357 96.3814 68.9248 95.5275C69.1152 95.4176 69.0902 95.3165 69.1172 95.1305C68.9402 94.7469 68.7853 94.5937 69.0325 94.2438C69.3615 94.0578 69.9829 94.2294 70.3648 94.3151C72.2685 96.9529 72.711 99.0981 72.8774 102.305C70.6505 102.965 67.5088 103.399 65.8649 101.302Z" fill="#F6C25E"/>
<path d="M70.3648 94.3151C72.2685 96.9529 72.711 99.0981 72.8774 102.305C70.6505 102.965 67.5088 103.399 65.8649 101.302C67.251 101.98 69.9666 102.279 71.0468 100.938C71.7596 100.052 71.6298 98.1055 71.2767 97.0859C70.94 96.1125 70.5216 95.5333 70.3831 94.4626L70.3648 94.3151Z" fill="#E5A44A"/>
<path d="M18.1615 78.7011C18.9043 79.0346 20.6107 80.1167 21.4844 80.5898C23.9172 81.9062 26.4266 83.0754 28.999 84.091C28.4851 84.6416 28.079 85.0707 27.6228 85.6763C27.3586 86.0445 27.0628 86.535 26.8131 86.9243C24.7263 85.9278 20.5016 83.972 18.8217 82.2834C18.4807 81.9407 18.056 79.3102 18.1615 78.7011Z" fill="#FEFEFE"/>
<path d="M20.8732 102.244L20.9208 101.768L21.0692 101.648C22.1063 101.828 22.6312 102.94 24.1091 102.12C25.2581 102.504 26.1458 102.711 27.3703 102.72C29.9805 106.993 32.3458 109.219 36.058 112.56C35.4137 112.386 33.0156 111.974 32.7848 111.815C32.8956 111.442 32.3201 110.914 32.0818 110.654C30.9867 109.459 29.818 108.272 28.8165 106.998C27.2303 105.023 27.2491 104.027 24.6314 103.69H24.475C23.4097 103.41 21.7212 103.302 20.8732 102.244Z" fill="#DBDBE7"/>
<path d="M71.1276 93.4333C71.7971 93.1404 72.7648 92.8339 73.4738 92.5862C75.44 94.265 76.2788 96.5895 76.677 99.0817C75.8555 99.3747 74.6714 99.712 73.8056 99.8807C73.3901 97.2362 72.5244 95.6248 71.1276 93.4333Z" fill="#FEFEFE"/>
<path d="M24.6314 103.69C27.2491 104.027 27.2303 105.023 28.8165 106.998C28.7191 107.495 28.7334 107.458 28.2054 107.605L28.123 107.773C28.2127 107.986 28.2785 108.115 28.319 108.347C28.1839 108.279 28.0536 108.216 27.908 108.174C27.5857 109.689 28.7548 109.556 26.3948 110.105C26.2383 110.071 25.729 109.884 25.5502 109.823C26.0179 109.697 26.9153 109.477 27.2611 109.159C27.2531 108.904 26.9086 108.479 26.7268 108.332C26.0678 107.797 25.2904 106.668 24.3953 106.739C23.2892 106.826 23.7014 106.245 23.4011 105.934C22.5596 106.761 20.6975 106.218 21.0022 108.073C20.8308 107.989 20.7204 107.922 20.5584 107.827C20.2576 107.246 20.443 106.564 20.5382 105.905L20.5268 106.284L20.5877 106.487C21.7182 106.168 22.2718 105.521 23.0918 104.787C23.2728 104.625 24.1127 104.603 24.3637 104.303L24.2591 104.009C24.399 103.9 24.5007 103.808 24.6314 103.69Z" fill="#D5B791" fill-opacity="0.329412"/>
<path d="M24.1461 90.6819C24.5849 91.0298 25.2741 91.5464 25.6511 91.928C23.8264 93.5981 23.0172 95.5988 22.535 97.9927C21.9249 97.8356 20.7704 97.1389 20.3871 96.6531C20.9358 94.027 21.8801 92.2027 24.1461 90.6819Z" fill="#FEFEFE"/>
<path d="M70.9131 90.8284C76.9329 89.0763 80.9317 87.7435 86.6629 85.0421C85.9972 86.0184 83.7348 86.6728 82.667 87.2732C82.3092 87.4737 79.7725 88.8807 79.6081 88.8653C79.5523 88.6841 79.5494 88.6966 79.4195 88.555C79.1425 88.581 77.1166 89.6979 76.7578 89.8926C74.9128 90.8978 73.139 91.5859 71.1719 92.3058L70.9131 90.8284Z" fill="#DBDBE7"/>
<path d="M28.8165 106.998C29.818 108.272 30.9867 109.459 32.0818 110.654C32.3201 110.914 32.8956 111.442 32.7848 111.815C32.3582 111.676 31.269 111.503 30.7239 111.376C29.2569 111.039 27.8113 110.615 26.3948 110.105C28.7548 109.556 27.5857 109.689 27.908 108.174C28.0536 108.216 28.1839 108.279 28.319 108.347C28.2785 108.115 28.2127 107.986 28.123 107.773L28.2054 107.605C28.7334 107.458 28.7191 107.495 28.8165 106.998Z" fill="#E5A44A" fill-opacity="0.133333"/>
<path d="M73.8056 99.8807C74.6714 99.712 75.8555 99.3747 76.677 99.0817C76.7905 100.337 76.7819 101.409 76.4808 102.64C75.6103 102.931 74.7234 103.172 73.8249 103.36C73.9538 102.008 73.9346 101.252 73.8056 99.8807Z" fill="#DBDBE7"/>
<path d="M21.0022 108.073C20.6975 106.218 22.5596 106.761 23.4011 105.934C23.7014 106.245 23.2892 106.826 24.3953 106.739C25.2904 106.668 26.0678 107.797 26.7268 108.332C26.9086 108.479 27.2531 108.904 27.2611 109.159C26.9153 109.477 26.0179 109.697 25.5502 109.823L24.8543 109.563C25.2943 109.508 25.5504 109.44 25.6357 108.971C25.4598 108.427 25.0475 108.11 24.6325 107.713C23.6255 107.616 21.5503 106.663 21.7815 108.386L21.0022 108.073Z" fill="#F9D99B" fill-opacity="0.470588"/>
<path d="M22.3766 101.164C19.8922 99.6619 20.0563 99.4402 20.3871 96.6531C20.7704 97.1389 21.9249 97.8356 22.535 97.9927C22.3708 99.1453 22.3477 100.018 22.3766 101.164Z" fill="#DBDBE7"/>
<path d="M21.7815 108.386C21.5503 106.663 23.6255 107.616 24.6325 107.713C25.0475 108.11 25.4598 108.427 25.6357 108.971C25.5504 109.44 25.2943 109.508 24.8543 109.563C23.8212 109.194 22.7966 108.802 21.7815 108.386Z" fill="#DACCBC" fill-opacity="0.678431"/>
<path d="M20.8732 102.244C21.7212 103.302 23.4097 103.41 24.475 103.69L24.3988 103.7C23.9736 103.751 23.4368 103.666 23.1769 103.804L23.1578 104.166C22.2727 104.76 21.9197 104.232 21.4913 105.258L21.3158 105.132C21.1353 105.492 21.5203 105.715 21.1272 105.822C20.8241 105.904 20.7273 106.049 20.5268 106.284L20.5382 105.905C20.557 104.746 20.737 103.41 20.8732 102.244Z" fill="#83421D" fill-opacity="0.0431373"/>
<path d="M24.475 103.69H24.6314C24.5007 103.808 24.399 103.9 24.2591 104.009L24.3637 104.303C24.1127 104.603 23.2728 104.625 23.0918 104.787C22.2718 105.521 21.7182 106.168 20.5877 106.487L20.5268 106.284C20.7273 106.049 20.8241 105.904 21.1272 105.822C21.5203 105.715 21.1353 105.492 21.3158 105.132L21.4913 105.258C21.9197 104.232 22.2727 104.76 23.1578 104.166L23.1769 103.804C23.4368 103.666 23.9736 103.751 24.3988 103.7L24.475 103.69Z" fill="#E5A44A" fill-opacity="0.184314"/>
</svg>
