<svg width="84" height="81" viewBox="0 0 84 81" fill="none" xmlns="http://www.w3.org/2000/svg">
<path d="M36.9462 0.396629C41.5487 -0.585692 48.3876 0.389045 52.8481 1.87315C54.3282 2.36559 55.6933 3.07788 57.1354 3.60092C59.2411 4.3648 62.253 5.15038 64.1262 6.33632C67.5559 7.81117 70.2109 11.0274 72.15 14.0559C73.1061 15.5495 74.4134 16.8323 75.4976 18.2336C77.3157 20.7756 79.822 24.7314 80.4636 27.7936C80.7853 29.1476 81.5326 29.7875 81.9564 31.0109C82.6302 32.9531 82.9161 35.1335 83.3202 37.1557C83.8605 40.223 84.1804 43.052 83.891 46.1849C83.7458 47.7634 83.1078 49.3281 82.675 50.8454C80.7602 59.5738 75.5908 67.3482 68.2701 72.5982C67.5909 73.0851 66.8776 73.637 66.1536 74.069C61.6058 76.2528 57.208 79.1046 51.9684 79.1672C49.879 79.1928 48.4586 79.9062 46.5102 80.3569C42.5484 81.2723 38.4182 81.2096 34.4869 80.1743C31.8038 79.4741 30.1435 78.4935 27.5511 77.8629L26.1704 77.6548C24.6327 77.4202 22.6912 76.5467 21.2796 75.8561C18.5887 74.5396 17.4266 73.5163 15.9099 70.9735C14.8517 70.9265 13.8361 70.7549 12.9324 70.1169C10.5144 68.4098 8.09223 65.7117 6.76159 63.0838C6.38176 62.3335 6.08202 60.9572 5.69923 60.3414C4.67477 58.6933 4.08051 58.0388 3.37325 56.1974C2.61053 54.2114 2.46896 52.5485 1.90811 50.6749C1.441 49.1143 0.911613 48.3292 0.513406 46.4889C-0.244297 42.9876 -0.0998528 40.5552 0.533568 37.0303C0.618066 36.56 1.24486 35.4486 1.25785 35.2113C1.30785 34.3044 1.15158 33.3852 1.35095 32.4211C1.52855 31.5619 1.81116 30.721 2.04028 29.8835C3.13956 25.8665 4.99027 22.2251 7.30021 18.7625C9.34545 15.6966 11.8624 13.0339 14.7964 10.7817C16.0069 9.85236 17.0773 8.82321 18.4572 8.02802C19.7437 7.28646 21.0821 6.70548 22.391 6.0117C22.8168 5.80887 23.3629 5.23301 23.7581 5.06872C25.7576 4.23728 27.8076 2.90962 29.8098 2.19662C32.0606 1.39518 34.6093 0.882983 36.9462 0.396629Z" fill="#F9C356"/>
<path d="M15.9099 70.9735C14.8517 70.9265 13.8361 70.7549 12.9324 70.1169C10.5144 68.4098 8.09223 65.7117 6.76159 63.0838C6.38176 62.3335 6.08202 60.9572 5.69923 60.3414C4.67477 58.6933 4.08051 58.0388 3.37325 56.1974C2.61053 54.2114 2.46896 52.5485 1.90811 50.6749C1.441 49.1143 0.911613 48.3292 0.513406 46.4889C-0.244297 42.9876 -0.0998528 40.5552 0.533568 37.0303C0.618066 36.56 1.24486 35.4486 1.25785 35.2113C1.30785 34.3044 1.15158 33.3852 1.35095 32.4211C1.52855 31.5619 1.81116 30.721 2.04028 29.8835C3.13956 25.8665 4.99027 22.2251 7.30021 18.7625C9.34545 15.6966 11.8624 13.0339 14.7964 10.7817C16.0069 9.85236 17.0773 8.82321 18.4572 8.02802C19.7437 7.28646 21.0821 6.70548 22.391 6.0117C22.8168 5.80887 23.3629 5.23301 23.7581 5.06872C25.7576 4.23728 27.8076 2.90962 29.8098 2.19662C32.0606 1.39518 34.6093 0.882983 36.9462 0.396629C37.0319 0.802204 37.8934 1.66599 38.2677 1.76106C36.7411 1.95736 32.4482 2.84585 31.1315 3.50532L31.8226 3.46846C30.9093 3.78787 29.3253 4.26902 28.6197 4.87187L28.6081 5.1539C28.4783 5.20584 28.4045 5.23477 28.2778 5.29579L28.4637 5.39465C27.8983 5.71265 25.512 6.81262 25.2399 7.10134C25.2681 6.76941 25.1184 6.72408 24.8778 6.58686L24.8687 6.426C24.4878 6.65114 24.0673 6.90195 23.6709 7.09649C14.8415 11.4299 8.65442 17.5379 4.85112 26.6365C3.5289 29.2302 2.93168 32.8939 2.50336 35.7363C2.46474 35.9923 2.17774 35.8828 2.12075 36.1009C1.90955 36.5912 1.79844 37.9232 1.8582 38.4279C1.55426 41.5195 1.38607 44.2673 2.18069 47.3587C2.37881 48.1293 3.07684 49.4417 3.21859 50.1287C3.62352 52.2997 4.18472 54.229 5.02136 56.268C5.515 57.471 6.87369 59.0268 7.19143 59.9168C8.62888 63.9427 10.953 67.2622 14.8325 69.3426C15.0924 69.482 16.0177 69.512 16.3423 69.5794C16.9225 70.1184 17.435 71.1671 18.0305 71.7367C19.1573 72.8149 20.33 73.4925 21.6639 74.2122C22.3765 75.2582 25.7273 76.1062 26.9923 76.1567C28.4839 76.1578 29.2513 76.7057 30.5043 77.2481C34.0747 78.7933 38.2682 79.8269 42.1892 79.4759C42.5528 79.4432 42.9507 79.4371 43.3217 79.4194C45.1791 79.2087 46.6566 78.6945 48.4513 78.437C49.3213 78.2271 50.0484 78.0076 50.9492 77.8541C53.1557 77.4793 55.1187 77.4273 57.2551 76.7104C58.9247 76.1505 60.3633 75.0291 61.7615 74.4503C64.1867 73.4465 64.7753 73.3562 66.9251 71.6754C68.2441 70.5772 69.9878 69.4875 71.1186 68.3318C73.2467 66.157 75.5747 63.5494 77.0183 60.8665C78.831 58.6486 79.8372 54.1312 80.8363 51.4542C81.5738 49.4791 81.9851 47.9399 82.2019 45.837C82.4376 43.5523 82.1589 41.3985 82.1482 39.1415C82.1956 38.3818 82.3928 37.8245 83.2055 37.5047L83.3202 37.1557C83.8605 40.223 84.1804 43.052 83.891 46.1849C83.7458 47.7634 83.1078 49.3281 82.675 50.8454C80.7602 59.5738 75.5908 67.3482 68.2701 72.5982C67.5909 73.0851 66.8776 73.637 66.1536 74.069C61.6058 76.2528 57.208 79.1046 51.9684 79.1672C49.879 79.1928 48.4586 79.9062 46.5102 80.3569C42.5484 81.2723 38.4182 81.2096 34.4869 80.1743C31.8038 79.4741 30.1435 78.4935 27.5511 77.8629L26.1704 77.6548C24.6327 77.4202 22.6912 76.5467 21.2796 75.8561C18.5887 74.5396 17.4266 73.5163 15.9099 70.9735Z" fill="#5E1302"/>
<path d="M26.9923 76.1567C28.4839 76.1578 29.2513 76.7057 30.5043 77.2481C34.0747 78.7933 38.2682 79.8269 42.1892 79.4759C42.5528 79.4432 42.9507 79.4371 43.3217 79.4194C39.0888 80.7193 32.5172 78.9273 28.7388 76.8414C28.2724 76.584 27.504 76.3573 26.9923 76.1567Z" fill="#631003"/>
<path d="M66.9251 71.6754C66.2584 72.9994 63.0774 74.0769 61.8026 74.686C60.1273 75.4865 58.5982 76.4918 56.8047 77.0926C55.8754 77.4044 54.591 77.3947 53.8484 77.6733L53.8576 77.7359C54.0181 77.7421 54.3091 77.7412 54.452 77.7809C54.0189 77.9061 53.7785 77.8453 53.3741 77.9397C53.1818 77.9846 52.5423 78.4088 52.3424 78.43C51.1183 78.5623 49.6571 78.572 48.4513 78.437C49.3213 78.2271 50.0484 78.0076 50.9492 77.8541C53.1557 77.4793 55.1187 77.4273 57.2551 76.7104C58.9247 76.1505 60.3633 75.0291 61.7615 74.4503C64.1867 73.4465 64.7753 73.3562 66.9251 71.6754Z" fill="#631003"/>
<path d="M24.8687 6.426C25.9545 5.6847 29.803 3.83938 31.1315 3.50532L31.8226 3.46846C30.9093 3.78787 29.3253 4.26902 28.6197 4.87187L28.6081 5.1539C28.4783 5.20584 28.4045 5.23477 28.2778 5.29579L28.4637 5.39465C27.8983 5.71265 25.512 6.81262 25.2399 7.10134C25.2681 6.76941 25.1184 6.72408 24.8778 6.58686L24.8687 6.426Z" fill="#F4BD70"/>
<path d="M26.1704 77.6548C25.9174 77.3867 25.9092 77.4608 25.857 77.1603C26.2259 76.8851 27.8077 77.0922 28.0421 77.6416C27.9315 77.8418 27.7948 77.8682 27.5511 77.8629L26.1704 77.6548Z" fill="#631003"/>
<path d="M1.8582 38.4279C1.79844 37.9232 1.90955 36.5912 2.12075 36.1009C2.17774 35.8828 2.46474 35.9923 2.50336 35.7363C2.93168 32.8939 3.5289 29.2302 4.85112 26.6365C4.78427 27.0666 4.71609 27.4116 4.73088 27.8483L4.58563 28.173C4.99234 28.3168 5.29969 28.1403 5.72155 27.9901C6.88257 27.7902 8.58212 28.1991 9.43122 29.0107C10.4349 29.7773 11.3058 30.6466 11.8537 31.8024C11.8884 32.0188 11.9352 32.2751 11.9518 32.4928C12.1795 35.4828 9.47987 39.2554 6.58221 40.0232C5.10677 39.641 3.95131 39.3329 3.11466 37.8041C2.89755 37.4072 2.9264 36.9852 2.59988 36.5931L2.50732 36.5856C2.35114 37.3223 2.06062 37.4878 1.8582 38.4279Z" fill="#984819"/>
<path d="M5.72155 27.9901C6.88257 27.7902 8.58212 28.1991 9.43122 29.0107C8.25416 28.7091 7.03354 28.1766 5.8262 28.2737C5.28866 28.3169 4.90855 28.687 4.50685 28.6393C4.43248 28.4157 4.47245 28.458 4.58563 28.173C4.99234 28.3168 5.29969 28.1403 5.72155 27.9901Z" fill="#F4BD70"/>
<path d="M63.1674 7.513L63.2914 7.44598C62.9722 6.99702 58.9887 5.61644 58.1861 5.28785C58.3803 5.04657 58.3976 4.90865 58.5224 4.63844C58.5589 4.55951 58.7424 4.33675 58.7662 4.34257C60.5656 4.78042 62.2706 5.63681 63.9473 6.3954C64.0069 6.37573 64.0666 6.35608 64.1262 6.33632C67.5559 7.81117 70.2109 11.0274 72.15 14.0559C73.1061 15.5495 74.4134 16.8323 75.4976 18.2336C77.3157 20.7756 79.822 24.7314 80.4636 27.7936C80.3901 28.3201 80.5129 28.4418 80.1903 28.8159C79.9018 28.7383 79.279 27.8814 78.8785 27.6079C78.0953 26.0363 78.0335 26.2886 76.796 25.2358C76.6007 24.5366 76.6061 22.8818 76.3346 22.3226C75.2907 20.072 73.1213 18.2108 71.719 16.1983C68.9968 12.2928 67.5927 9.83762 63.1674 7.513Z" fill="#5E1302"/>
<path d="M36.9462 0.396629C41.5487 -0.585692 48.3876 0.389045 52.8481 1.87315C54.3282 2.36559 55.6933 3.07788 57.1354 3.60092C59.2411 4.3648 62.253 5.15038 64.1262 6.33632C64.0666 6.35608 64.0069 6.37573 63.9473 6.3954C62.2706 5.63681 60.5656 4.78042 58.7662 4.34257C58.7424 4.33675 58.5589 4.55951 58.5224 4.63844C58.3976 4.90865 58.3803 5.04657 58.1861 5.28785C58.9887 5.61644 62.9722 6.99702 63.2914 7.44598L63.1674 7.513C60.099 6.12854 56.9942 5.10399 53.8635 3.87219C48.7223 1.84925 43.7746 1.13625 38.2677 1.76106C37.8934 1.66599 37.0319 0.802204 36.9462 0.396629Z" fill="#631003"/>
<path d="M21.6639 74.2122C23.0927 74.8464 24.7275 75.6738 26.3479 75.7616C27.4414 75.8208 29.2988 74.9691 30.3295 75.1431C31.2386 75.2966 31.8694 76.53 33.0051 76.7341C32.536 76.7418 31.7667 76.2795 31.3909 76.0205C30.8728 76.4081 30.4379 76.4919 30.244 76.6597L30.2794 76.7953C32.2527 77.4343 34.0621 78.1601 36.0956 78.6284C38.8428 79.2616 41.3997 79.3163 44.1834 78.8436C44.7998 78.7395 45.5394 78.7616 46.1589 78.6257C46.9757 78.3603 47.6576 78.0137 48.5138 77.8594C53.1841 77.1868 57.6802 76.7984 61.6717 74.0395C62.2859 73.6917 63.4661 73.5258 64.0245 73.1602C66.1085 71.7961 68.59 70.1845 70.5102 68.6607C71.6894 67.7241 73.0192 65.875 74.0864 64.7604C75.0514 63.7523 75.8847 61.8289 76.9636 60.8904C76.9824 60.8824 77.0003 60.8745 77.0183 60.8665C75.5747 63.5494 73.2467 66.157 71.1186 68.3318C69.9878 69.4875 68.2441 70.5772 66.9251 71.6754C64.7753 73.3562 64.1867 73.4465 61.7615 74.4503C60.3633 75.0291 58.9247 76.1505 57.2551 76.7104C55.1187 77.4273 53.1557 77.4793 50.9492 77.8541C50.0484 78.0076 49.3213 78.2271 48.4513 78.437C46.6566 78.6945 45.1791 79.2087 43.3217 79.4194C42.9507 79.4371 42.5528 79.4432 42.1892 79.4759C38.2682 79.8269 34.0747 78.7933 30.5043 77.2481C29.2513 76.7057 28.4839 76.1578 26.9923 76.1567C25.7273 76.1062 22.3765 75.2582 21.6639 74.2122Z" fill="#D37F2B"/>
<path d="M11.8537 31.8024C13.2397 33.1339 14.2497 33.8806 14.1846 35.9311C14.0471 40.2639 9.9805 40.9899 6.58221 40.0232C9.47987 39.2554 12.1795 35.4828 11.9518 32.4928C11.9352 32.2751 11.8884 32.0188 11.8537 31.8024Z" fill="#B36D33"/>
<path d="M25.3507 7.76822L25.4385 7.7079C25.5344 7.64141 25.5598 7.62148 25.6422 7.5347C25.9633 7.49369 25.9376 7.44687 26.1883 7.55578C26.1684 7.96902 25.8961 8.21842 25.6243 8.56438C24.7296 9.36715 23.9659 9.78119 22.8788 10.2555C22.4098 10.5107 21.5746 10.7924 21.161 11.1019C18.2425 13.2858 15.1811 15.4027 12.9141 18.2799C12.2939 19.0671 11.8 19.496 10.8882 19.9233C11.6221 18.3677 14.6018 14.923 15.954 13.7125C17.7476 12.107 20.7478 10.7223 22.8188 9.40048C23.6332 8.88062 24.5152 8.24426 25.3507 7.76822Z" fill="#F7F6F2"/>
<path d="M78.8785 27.6079C79.279 27.8814 79.9018 28.7383 80.1903 28.8159C80.5129 28.4418 80.3901 28.3201 80.4636 27.7936C80.7853 29.1476 81.5326 29.7875 81.9564 31.0109C82.6302 32.9531 82.9161 35.1335 83.3202 37.1557L83.2055 37.5047C82.3928 37.8245 82.1956 38.3818 82.1482 39.1415C81.9627 38.4852 81.8354 37.155 81.6392 36.3585C80.9053 33.3759 80.167 30.4064 78.8785 27.6079Z" fill="#631003"/>
<path d="M37.9266 2.14601C38.2687 2.15192 38.3282 2.09883 38.5898 2.2618C38.3074 2.85584 32.7671 3.51151 31.7015 4.12565C30.6164 4.49983 29.5498 4.9949 28.4637 5.39465L28.2778 5.29579C28.4045 5.23477 28.4783 5.20584 28.6081 5.1539L28.6197 4.87187C29.3253 4.26902 30.9093 3.78787 31.8226 3.46846C32.7249 3.02364 36.7229 2.31657 37.9266 2.14601Z" fill="#F8E6C8"/>
<path d="M37.9266 2.14601C38.6358 1.99786 40.8638 1.7429 41.4723 1.94679C41.5697 2.03762 41.5424 1.98268 41.5583 2.1095C41.1276 2.67919 39.0346 2.6171 38.3455 2.72734C37.1283 2.92197 35.9352 3.20673 34.735 3.48267C34.153 3.60921 32.0856 4.17336 31.7015 4.12565C32.7671 3.51151 38.3074 2.85584 38.5898 2.2618C38.3282 2.09883 38.2687 2.15192 37.9266 2.14601Z" fill="#F4BD70"/>
<path d="M24.2367 7.2556L24.2975 7.37589C23.5972 8.1373 22.4168 9.25243 21.2248 8.98778L21.2806 8.8375C21.9779 8.27284 23.3942 7.61558 24.2367 7.2556Z" fill="#FCE2B6"/>
<path d="M24.8778 6.58686C25.1184 6.72408 25.2681 6.76941 25.2399 7.10134C25.734 7.38275 26.4855 7.21502 26.6756 7.70666C26.4976 8.05165 25.9705 8.33677 25.6243 8.56438C25.8961 8.21842 26.1684 7.96902 26.1883 7.55578C25.9376 7.44687 25.9633 7.49369 25.6422 7.5347C25.5598 7.62148 25.5344 7.64141 25.4385 7.7079L25.3507 7.76822C25.2018 7.69158 24.5333 7.47069 24.2975 7.37589L24.2367 7.2556C24.3203 7.01335 24.664 6.77099 24.8778 6.58686Z" fill="#FCE2B6"/>
<path d="M47.1855 40.2014C48.5576 40.1378 50.2589 40.2233 50.6431 41.7659C51.639 45.7663 48.5539 49.6483 44.9905 50.8469C42.8718 51.543 40.5587 51.38 38.5624 50.3941C35.8247 49.1479 34.1486 46.8849 33.7663 43.9463C33.3382 40.6544 37.4779 40.9079 39.7676 40.7139C42.2354 40.4814 44.7088 40.3105 47.1855 40.2014Z" fill="#5E1302"/>
<path d="M42.153 45.0436C42.2709 45.0311 42.3892 45.0223 42.5076 45.0173C44.5769 44.9316 46.6691 45.3487 48.2369 46.752C46.8196 48.7781 45.4714 49.2921 43.1903 49.8995C43.1021 49.9076 43.0137 49.914 42.9252 49.9188C40.2828 50.0593 38.8604 49.2526 36.9952 47.6024C38.543 45.9825 39.882 45.296 42.153 45.0436Z" fill="#ED6D49"/>
<path d="M45.6841 5.87581C47.8292 5.81205 48.6495 6.20369 50.3274 7.55569C52.509 9.31371 53.3562 12.3184 51.3516 14.5513C50.285 15.7393 48.752 15.9488 47.2 16.0325C44.4073 15.9903 41.0529 14.4966 40.3583 11.5349C39.7257 8.83794 43.2568 6.29091 45.6841 5.87581Z" fill="#A3541D"/>
<path d="M55.7586 28.7264C58.7225 28.2796 61.4914 30.2875 61.9358 33.2061C62.3802 36.1246 60.3309 38.8431 57.3641 39.271C54.4108 39.6969 51.664 37.6913 51.2217 34.7862C50.7794 31.8811 52.8082 29.1713 55.7586 28.7264Z" fill="#5E1302"/>
<path d="M54.9401 30.5777C56.983 30.8889 57.0912 33.3806 55.011 34.0385C54.1741 33.9366 53.569 33.5265 53.3609 32.691C53.2428 32.2329 53.322 31.7472 53.5798 31.3484C53.9207 30.8261 54.3671 30.6875 54.9401 30.5777Z" fill="#F7F6F2"/>
<path d="M58.6561 35.1061C58.9547 34.9693 59.3051 35.0023 59.5719 35.1923C59.8387 35.3822 59.9801 35.6994 59.9416 36.0213C59.9031 36.3432 59.6905 36.6193 59.3861 36.743C58.9296 36.9285 58.4061 36.7211 58.2076 36.276C58.0091 35.8308 58.2084 35.3111 58.6561 35.1061Z" fill="#F7F6F2"/>
<path d="M27.1205 29.7867C33.9474 29.4209 35.0669 39.2174 28.4228 40.5235C25.0234 40.6615 22.9924 39.2605 22.4823 35.8101C22.0408 32.8227 23.9855 30.0731 27.1205 29.7867Z" fill="#5E1302"/>
<path d="M25.4407 31.9698C26.3015 31.7044 27.219 32.17 27.4985 33.0139C27.7782 33.8579 27.3159 34.7662 26.4616 35.0512C25.9002 35.2385 25.2797 35.1143 24.8372 34.726C24.3946 34.3377 24.1984 33.7453 24.3233 33.1749C24.4482 32.6045 24.875 32.1442 25.4407 31.9698Z" fill="#F7F6F2"/>
<path d="M29.7915 36.3198C30.1118 36.2471 30.4466 36.3524 30.6649 36.5941C30.8832 36.8358 30.95 37.1755 30.839 37.4798C30.7281 37.7843 30.4572 38.0047 30.1326 38.0549C29.6547 38.1286 29.2032 37.8167 29.1113 37.3493C29.0195 36.8818 29.3202 36.4268 29.7915 36.3198Z" fill="#F7F6F2"/>
<path d="M63.0738 50.9489C66.2468 50.668 68.0048 52.3763 68.6303 55.3763C68.8641 56.4984 68.1572 58.0443 67.4914 58.9319C66.5496 60.1887 65.4477 60.6733 63.9082 60.8919C62.6533 60.7567 61.5245 60.6631 60.4297 59.9396C59.3516 59.2085 58.3865 57.6418 58.1993 56.3617C57.7428 53.2394 60.3541 51.4109 63.0738 50.9489Z" fill="#984819"/>
<path d="M22.8511 59.3588C21.6583 60.7659 19.4979 61.229 17.6907 60.8578C16.0329 60.4579 14.7991 58.9505 14.3152 57.3981C14.2648 57.2361 14.5013 56.6866 14.5417 56.5041C14.651 56.0093 14.7296 55.5113 14.8427 55.0173C15.3959 52.6029 18.2069 51.5114 20.4727 52.1291C21.9062 52.52 22.6051 53.2061 23.3086 54.4446C24.6717 55.739 24.3382 58.277 22.8511 59.3588Z" fill="#B36D33"/>
<path d="M23.3086 54.4446C24.6717 55.739 24.3382 58.277 22.8511 59.3588C22.9819 59.1226 23.1102 58.8851 23.2358 58.6462C24.0513 57.094 23.8217 56.0373 23.3086 54.4446Z" fill="#F4BD70"/>
<path d="M24.8942 14.5192C25.9483 14.3883 27.3433 14.4751 28.2466 15.0765C29.1327 15.6696 29.7396 16.5881 29.931 17.6258C30.4769 20.7536 28.4438 22.5647 25.5025 23.0635C23.33 23.3555 20.9683 23.1389 20.4795 20.5767C19.9034 17.5564 21.8442 15.027 24.8942 14.5192Z" fill="#984819"/>
<path d="M42.6905 64.5566C43.3674 62.7552 44.8653 61.8411 46.7583 61.5862C48.0019 61.4188 48.651 61.5722 49.6048 62.2907C50.808 63.261 50.6711 64.173 50.6615 65.6401C50.711 67.6061 48.6394 69.422 46.6848 68.6612C46.0977 68.4327 45.5515 67.7578 45.0266 67.4214C44.1373 66.8516 43.4302 66.6783 42.69 65.8811C42.6628 65.4602 42.6124 64.9666 42.6905 64.5566Z" fill="#984819"/>
<path d="M49.6048 62.2907C50.808 63.261 50.6711 64.173 50.6615 65.6401C50.711 67.6061 48.6394 69.422 46.6848 68.6612C46.0977 68.4327 45.5515 67.7578 45.0266 67.4214C44.1373 66.8516 43.4302 66.6783 42.69 65.8811C42.6628 65.4602 42.6124 64.9666 42.6905 64.5566C42.8983 66.3491 43.7102 66.1917 45.0256 67.0501C45.5903 67.4194 46.1382 68.1104 46.7853 68.3313C49.7569 69.3459 50.4991 66.5314 50.2263 64.2361C50.1196 63.3383 49.9741 63.0636 49.6048 62.2907Z" fill="#D37F2B"/>
<path d="M59.4787 15.3096C59.8338 15.2678 60.3226 15.2893 60.692 15.2957C62.2362 16.3177 63.5872 18.1639 63.6398 20.0184C63.691 21.8191 62.0554 23.0871 60.333 23.0454C58.2869 22.5157 54.6863 20.1597 56.2681 17.7333C56.9328 16.7137 58.2531 15.5802 59.4787 15.3096Z" fill="#AA5921"/>
<path d="M6.1281 24.5799C6.85766 22.954 10.6689 16.3906 12.1173 15.9252L12.2541 16.0238C12.3412 17.0382 10.331 18.7396 10.0679 19.6186C9.76258 20.6385 9.52853 21.6769 9.20927 22.7059C9.02719 23.0631 8.9624 23.2729 8.61608 23.4266L8.44305 23.3325C8.23696 23.0263 8.22128 22.6651 8.16796 22.2966L8.04467 22.3545L8.02997 22.4269C7.36232 23.0442 6.86519 24.5097 6.31017 24.6845L6.1281 24.5799Z" fill="#FCE2B6"/>
<path d="M73.4789 26.1006C74.6975 26.0952 75.7342 28.0826 76.2575 29.0474C76.977 30.3721 77.4959 32.4378 77.046 33.9294C76.9878 34.1218 76.7109 34.6536 76.5299 34.7438L76.5855 34.4607C77.546 33.3907 77.0057 31.4159 76.6365 30.1831C76.5245 29.8081 75.7898 28.2226 75.4555 28.0636C75.2772 28.1728 75.2611 28.1916 75.0541 28.2559C74.5855 27.9898 73.7575 27.0929 73.4179 26.6165C73.3176 26.4762 73.4242 26.2751 73.4789 26.1006Z" fill="#FCE2B6"/>
<path d="M44.3251 72.205C44.6564 72.278 44.7799 72.2716 45.0006 72.5202C45.1237 72.8192 45.0942 72.8766 45.0548 73.2111C44.4532 73.0968 44.2677 72.7928 44.3251 72.205Z" fill="#F4BD70"/>
</svg>
