<svg width="43" height="43" viewBox="0 0 43 43" fill="none" xmlns="http://www.w3.org/2000/svg">
<g clip-path="url(#clip0_1_7398)">
<path d="M22.3079 0H18.2117C18.0506 0.0842616 17.353 0.168055 17.1396 0.203016C16.7737 0.263078 16.4096 0.334418 16.0479 0.416935C13.5867 0.988334 11.4383 2.0272 9.38317 3.50238C8.18595 4.30487 7.14496 5.22458 6.10116 6.218C4.66088 7.58911 3.65412 9.21045 2.61904 10.8796C1.1772 13.2048 0.316399 15.5976 0.0664978 18.3437C0.0559158 18.4574 0.0375557 18.5919 0.000209808 18.7009V24.6254C0.0913963 24.8631 0.238598 26.1462 0.310799 26.4986C0.629166 28.0439 1.14079 29.5411 1.83355 30.9535C2.39186 32.1081 3.09457 33.2271 3.85143 34.2572C4.542 35.1976 5.26307 36.0952 6.12139 36.884C7.82059 38.4451 10.3084 39.6858 12.4771 40.4384C13.6069 40.8305 14.7654 41.121 15.9136 41.4489C16.8339 41.7118 17.747 41.9837 18.6898 42.1543C21.9091 42.7363 24.3773 41.9142 27.3929 40.9481C28.9362 40.4537 30.5492 40.0388 32.0033 39.3081C32.7229 38.9506 33.4043 38.5183 34.0368 38.0182C34.8212 37.3924 35.717 36.4051 36.4258 35.6661C37.998 34.0266 39.4215 31.9575 40.1917 29.7994C40.5294 28.8533 40.6729 27.8368 40.909 26.8634C41.0584 26.2601 41.2842 25.6601 41.455 25.0638C41.6502 24.3619 41.7969 23.6468 41.894 22.924C42.3969 19.1323 40.772 14.6406 39.1839 11.2847C37.6853 8.11775 35.5892 5.63201 32.6687 3.77365C30.4862 2.38492 28.6956 1.58281 26.2233 0.855684C25.4214 0.615092 24.6072 0.419843 23.7842 0.270823C23.4368 0.205954 22.5902 0.107322 22.3079 0Z" fill="#5B2103"/>
<path d="M29.6146 2.96594C27.0597 1.65277 23.2699 0.750947 20.4056 0.680451C19.1863 0.650441 16.7515 1.01429 15.575 1.33111C14.2915 1.67742 13.1666 2.13362 12.0001 2.77667C11.8201 2.87593 11.3938 3.08179 11.2659 3.22263C11.1689 3.27103 11.0279 3.33316 10.947 3.39973C8.13586 5.08962 5.74297 7.41475 3.95289 10.1959C3.71949 10.5617 3.34634 11.1193 3.18856 11.5233C3.14188 11.6427 3.12259 12.0621 3.07217 12.1687C2.91376 12.5038 2.5982 12.456 2.40432 12.8355C1.66862 14.2759 1.21301 15.8663 0.957191 17.4688C0.61953 19.2076 0.596809 21.1845 0.644737 22.9518C0.649403 23.1231 0.667145 23.8132 0.703556 23.9485C1.0714 27.3615 2.0402 30.2251 4.00206 33.0304C4.99762 34.4541 6.10864 35.9473 7.52589 36.9772C8.40412 37.7054 9.91411 38.3848 10.9227 38.9093C11.1314 39.0207 12.7473 39.7048 12.9338 39.7359C14.4049 40.1992 15.9027 40.6097 17.3857 41.0324C17.7136 41.126 18.0774 41.2015 18.4135 41.2652C19.3631 41.4454 20.3207 41.6189 21.2898 41.5751C23.496 41.4758 25.5449 40.7067 27.6199 40.0191C29.6503 39.3499 31.8575 38.8304 33.5212 37.3882C36.2264 35.0437 38.6386 32.2448 39.7152 28.7294C39.9039 28.1133 39.944 27.457 40.1033 26.8359C40.2515 26.2583 40.4863 25.71 40.627 25.1277C40.7513 24.7657 40.838 24.3664 40.9256 23.9936C41.8857 19.9083 40.3163 15.7888 38.6959 12.0858C37.9056 9.98901 35.7763 7.16203 34.0592 5.7333C32.7157 4.61542 31.1771 3.72258 29.6146 2.96594Z" fill="#EFC160"/>
<path d="M1.9264 23.7122C1.53833 23.9469 1.14682 23.9594 0.703037 23.9485C1.07089 27.3614 2.03968 30.2251 4.00154 33.0303C4.9971 34.4541 6.10812 35.9473 7.52537 36.9771C8.4036 37.7053 9.91359 38.3847 10.9222 38.9093C11.1309 39.0206 12.7468 39.7047 12.9333 39.7358C14.4044 40.1992 15.9022 40.6096 17.3852 41.0324C17.7131 41.1259 18.0769 41.2014 18.413 41.2652C19.3625 41.4453 20.3202 41.6188 21.2893 41.575C23.4955 41.4758 25.5444 40.7066 27.6194 40.019C29.6498 39.3498 31.8569 38.8303 33.5207 37.3882C36.2259 35.0437 38.6381 32.2447 39.7147 28.7293C39.9034 28.1132 39.9435 27.4569 40.1028 26.8359C40.2509 26.2582 40.4857 25.7099 40.6265 25.1276C40.252 25.1076 39.7813 25.4053 39.5814 25.7167C39.3791 26.0317 39.3141 26.486 39.1984 26.8535C39.105 27.1411 38.9976 27.4238 38.8767 27.7005C37.8984 29.969 36.1335 32.632 34.2425 34.2298C33.5716 34.7969 32.4091 35.325 31.6046 35.7196C30.8097 36.11 29.9016 36.5448 29.0796 36.8658C28.5821 37.0599 27.972 37.1826 27.4549 37.3869C26.9248 37.5959 26.4559 37.8668 25.9373 38.0885C24.956 38.5081 23.9842 38.7485 22.9436 38.9258C21.0218 39.2613 19.0932 39.151 17.1696 38.8979C16.2036 38.7707 15.0816 38.6562 14.3217 37.9711C14.0389 37.7161 13.7854 37.4078 13.5387 37.1163C13.1663 36.6764 12.77 36.2819 12.2819 35.9765C11.9298 35.7601 11.2435 35.3872 10.8615 35.2736C10.1607 35.0649 9.64253 35.0186 8.98619 34.658C8.69739 34.4982 8.42632 34.3069 8.17767 34.0881C6.89828 32.9425 4.69398 30.065 3.76752 28.594C3.46658 28.116 3.19987 27.6165 2.96989 27.0994C2.56967 26.2151 2.29892 25.2552 2.08823 24.3083C2.04808 24.1288 2.04528 23.8434 1.9264 23.7122Z" fill="#DD9C3F"/>
<path d="M11.1685 36.9239C10.1174 36.4282 8.49067 36.1925 7.52561 36.9772C8.40385 37.7054 9.91383 38.3848 10.9225 38.9094C11.1236 38.609 10.8397 37.8183 10.8384 37.4568C10.8372 37.0812 10.9673 37.1374 11.1685 36.9239Z" fill="#81471D"/>
<path d="M12.9341 39.7361C12.9355 39.7284 12.937 39.7208 12.9385 39.7132L12.9452 39.6755C13.0145 39.2879 12.9746 38.888 12.8302 38.5226C12.5044 37.6973 11.9377 37.253 11.169 36.9241C10.9678 37.1375 10.8377 37.0814 10.839 37.4569C10.8402 37.8185 11.1242 38.6092 10.923 38.9095C11.1317 39.0208 12.7475 39.705 12.9341 39.7361Z" fill="#6D3411"/>
<path d="M1.92704 23.7124C4.15437 22.477 4.40614 19.0456 2.21055 17.6093C1.96127 17.4462 1.25483 17.467 0.957312 17.4689C0.619649 19.2078 0.59693 21.1846 0.644856 22.9519C0.649524 23.1232 0.667264 23.8134 0.703675 23.9487C1.14746 23.9596 1.53896 23.9471 1.92704 23.7124Z" fill="#81471D"/>
<path d="M15.5749 1.33105C14.2914 1.67737 13.1665 2.13356 12 2.77661C11.82 2.87587 11.3937 3.08173 11.2658 3.22257C11.3847 3.42904 11.4424 3.75439 11.5312 3.97682C12.0524 5.28277 13.3315 5.54542 14.5458 5.14947C14.6378 5.11947 14.8055 5.07218 14.9009 5.0535C15.2397 4.9148 15.7546 4.54705 15.9882 4.27324C16.3307 3.86971 16.4991 3.34243 16.4551 2.8107C16.4023 2.15787 16.0387 1.73863 15.5749 1.33105Z" fill="#81471D"/>
<path d="M29.6147 2.96606C29.3996 3.20918 29.72 3.36656 29.5169 3.64497L29.4542 3.67183C29.3877 3.71417 29.3472 3.73133 29.3055 3.79939C30.9963 4.41304 32.3835 5.46118 33.7874 6.56427C34.0114 6.74027 34.9004 6.85451 34.8943 7.35626C34.7229 7.60946 34.7053 7.78989 34.9841 7.98875C35.1635 7.99205 35.2715 8.08942 35.3852 8.22485C36.3956 9.4283 37.0453 10.9136 37.9438 12.1952C38.1678 12.5147 38.6407 12.6998 38.6961 12.0859C37.9057 9.98914 35.7765 7.16216 34.0594 5.73343C32.7159 4.61555 31.1772 3.7227 29.6147 2.96606Z" fill="#F1D9A2"/>
<path d="M34.8945 7.3562C34.7231 7.60939 34.7056 7.78983 34.9844 7.98869L35.105 7.96154C35.3535 7.75107 35.1616 7.44767 34.8945 7.3562Z" fill="#F0E9DA"/>
<path d="M11.266 3.22266C11.169 3.27106 11.028 3.33319 10.9471 3.39976C11.052 3.5631 10.9057 4.23723 10.9537 4.48824C11.0937 5.2245 11.7013 5.88588 12.3876 6.12924C12.9444 6.32763 13.5559 6.291 14.086 6.02753C14.3837 5.87615 14.869 5.40424 14.9012 5.05358C14.8057 5.07226 14.6381 5.11955 14.5461 5.14956C13.3317 5.5455 12.0526 5.28286 11.5314 3.9769C11.4426 3.75448 11.3849 3.42913 11.266 3.22266Z" fill="#DD9C3F"/>
<path d="M29.4539 3.67187C29.129 3.54611 28.1324 3.09474 27.8464 3.16603L27.8478 3.21115C28.0004 3.35543 29.1146 3.76759 29.3052 3.79943C29.3469 3.73137 29.3874 3.71421 29.4539 3.67187Z" fill="#F1D9A2"/>
<path d="M14.8891 21.6017C15.1904 21.3643 15.4556 21.135 15.6851 20.8204C17.24 18.6897 15.7588 15.9613 13.3278 15.6571C12.4426 15.5464 11.4861 15.7978 10.7836 16.3699C10.0504 16.9791 9.5845 17.8601 9.48834 18.8192C9.39747 19.6913 9.68129 20.6256 10.2262 21.3022C10.3158 21.4139 10.4092 21.522 10.5069 21.6263C10.4126 21.6853 10.3018 21.7496 10.2156 21.8181C10.1145 21.9691 10.1002 22.0712 10.2113 22.2172C10.262 22.2397 10.3277 22.2631 10.3821 22.2448C10.9753 22.0457 11.555 21.7814 12.1904 21.7483C12.9109 21.6882 13.6577 21.8004 14.3426 22.0326C14.6226 22.1275 15.3458 22.6475 15.4051 22.0947C15.3373 21.8843 15.0732 21.7137 14.8891 21.6017Z" fill="#5B2103"/>
<path d="M14.4446 16.5721C13.7824 16.4757 13.1694 16.9462 13.0774 17.6214C12.9855 18.2967 13.4495 18.9195 14.1124 19.0106C14.7717 19.1011 15.3787 18.6314 15.4701 17.9599C15.5616 17.2884 15.1031 16.6679 14.4446 16.5721Z" fill="#FBFAF8"/>
<path d="M11.3123 16.7C9.85514 17.8654 9.69424 19.9812 10.9406 21.3711C11.2055 21.2549 11.4913 21.1314 11.7793 21.0975C11.3408 20.7333 11.0107 20.3939 10.8124 19.8364C10.4346 18.7744 10.6693 17.5421 11.4868 16.7635L11.3123 16.7Z" fill="#FBFAF8"/>
<path d="M12.411 19.2725C12.1985 19.2075 11.9681 19.2645 11.8084 19.4213C11.6486 19.5782 11.5843 19.8107 11.64 20.0296C11.6958 20.2484 11.8629 20.4196 12.0774 20.4775C12.4017 20.565 12.7349 20.3712 12.8259 20.0422C12.917 19.7132 12.7323 19.3706 12.411 19.2725Z" fill="#FBFAF8"/>
<path d="M12.2654 16.2512C11.8856 16.3635 11.6331 16.4664 11.3121 16.6999L11.4867 16.7634C11.7019 16.5994 12.0297 16.4033 12.2654 16.2512Z" fill="#F0E9DA"/>
<path d="M29.2064 15.5227C28.1954 15.4397 27.0547 15.989 26.3922 16.7637C25.854 17.3952 25.5867 18.2202 25.6499 19.0542C25.7338 20.1473 26.2759 20.7994 27.0436 21.4731C26.8849 21.5743 26.525 21.7818 26.5566 21.9928C26.6263 22.459 27.3727 21.9745 27.6082 21.8897C27.9671 21.7603 28.2352 21.6924 28.6041 21.6187C29.2829 21.5274 29.9296 21.568 30.5915 21.751C30.8807 21.8309 31.571 22.2313 31.7998 21.9704C31.8333 21.764 31.6209 21.5919 31.4737 21.4933C32.0035 20.9517 32.4054 20.0256 32.4562 19.2662C32.5182 18.316 32.2039 17.3801 31.5836 16.6679C30.9712 15.9568 30.1208 15.5854 29.2064 15.5227Z" fill="#5B2103"/>
<path d="M30.7796 16.7325C30.3802 16.4193 30.1892 16.3071 29.7073 16.1692C29.8257 16.2548 29.9754 16.3383 30.1027 16.4135C29.9697 16.5069 29.8394 16.4862 29.6637 16.4926C29.0157 16.5208 28.5058 17.0667 28.5103 17.7278C28.5148 18.3888 29.032 18.9276 29.6803 18.9466C30.3287 18.9657 30.8755 18.4581 30.9173 17.7984C30.9702 17.6356 30.9041 17.5881 31.0237 17.4102C30.9175 17.1276 30.699 16.9034 30.4969 16.6896C30.5938 16.6972 30.6642 16.728 30.7796 16.7325Z" fill="#FBFAF8"/>
<path d="M30.7796 16.7325C30.3802 16.4193 30.1892 16.3071 29.7073 16.1692C29.8257 16.2548 29.9754 16.3383 30.1027 16.4135C29.9697 16.5069 29.8394 16.4862 29.6637 16.4926C30.0054 16.4778 30.3371 16.6116 30.5762 16.8607C30.8153 17.1098 30.9393 17.4507 30.9173 17.7984C30.9702 17.6356 30.9041 17.5881 31.0237 17.4102C30.9175 17.1276 30.699 16.9034 30.4969 16.6896C30.5938 16.6972 30.6642 16.728 30.7796 16.7325Z" fill="#81471D"/>
<path d="M30.7796 16.7325C30.3802 16.4193 30.1891 16.3071 29.7073 16.1692C29.8257 16.2548 29.9754 16.3383 30.1027 16.4135C30.1729 16.4575 30.487 16.6849 30.4969 16.6896C30.5937 16.6972 30.6642 16.728 30.7796 16.7325Z" fill="#F0E9DA"/>
<path d="M30.7793 16.7326C30.6639 16.7281 30.5935 16.6973 30.4966 16.6897C30.6987 16.9035 30.9172 17.1277 31.0235 17.4103C31.5699 18.5043 31.4056 19.8218 30.5336 20.6841C30.4407 20.776 30.347 20.8672 30.254 20.9591C30.52 21.023 30.7959 21.151 31.0451 21.2647C31.0985 21.198 31.1502 21.1299 31.2003 21.0606C32.1293 19.7675 32.1223 17.7298 30.7793 16.7326Z" fill="#FBFAF8"/>
<path d="M27.8159 19.1695C27.6587 19.1411 27.4968 19.1763 27.3647 19.2678C27.1608 19.409 27.0599 19.6611 27.1087 19.9074C27.1575 20.1537 27.3464 20.3461 27.5881 20.3957C27.8042 20.4399 28.0269 20.3624 28.1713 20.1928C28.3157 20.0231 28.3595 19.7874 28.286 19.5757C28.2125 19.3639 28.0329 19.2088 27.8159 19.1695Z" fill="#FBFAF8"/>
<path d="M22.6935 21.5823C21.9742 21.5885 21.2535 21.6003 20.534 21.6088C19.7518 21.618 18.958 21.5306 18.1891 21.6801C17.358 21.8416 17.4224 22.7632 17.5859 23.4112C17.8396 24.4231 18.4205 25.2344 19.3114 25.7565C21.5427 26.902 24.0111 25.2489 24.1555 22.7717C24.2171 21.7164 23.5528 21.6069 22.6935 21.5823Z" fill="#5B2103"/>
<path d="M21.129 23.8314C20.2285 23.7108 19.4141 23.9867 18.6695 24.4823C19.0911 25.0393 19.6683 25.4276 20.3505 25.5567C20.6214 25.5995 20.897 25.6022 21.1686 25.5645C21.8809 25.4623 22.4469 25.1305 22.8738 24.5493C22.2893 24.081 21.8592 23.9216 21.129 23.8314Z" fill="#F1936E"/>
<path d="M27.938 34.6877C28.2465 34.1653 28.4367 33.6065 28.2746 32.9982C28.0988 32.3388 27.6336 31.785 27.0605 31.4541C25.8266 30.6478 24.1805 31.1567 23.481 32.4352C23.1502 33.04 22.9801 33.8526 23.1734 34.5272C23.3519 35.1495 23.9541 35.7822 24.5631 35.9709C24.6828 36.2301 24.9516 36.4042 25.2085 36.5095C26.2902 36.9529 27.4589 36.3553 27.8937 35.2827C27.9691 35.0965 28.0227 34.872 27.938 34.6877Z" fill="#81471D"/>
<path d="M27.9386 34.6875C26.9564 35.829 26.0732 36.2235 24.5636 35.9707C24.6834 36.2299 24.9522 36.404 25.2091 36.5093C26.2908 36.9527 27.4595 36.3551 27.8943 35.2825C27.9697 35.0963 28.0233 34.8718 27.9386 34.6875Z" fill="#DD9C3F"/>
<path d="M37.059 15.3161C37.6125 14.521 38.0114 13.4926 37.6977 12.5461C37.4348 11.7532 37.0393 11.3282 36.331 10.9199C35.7978 10.6127 35.0639 10.6081 34.4928 10.795C32.9516 11.3158 32.7713 12.4137 33.2502 13.838C33.1817 13.9797 33.1646 14.0724 33.1853 14.23C33.2806 14.9573 33.7846 15.6194 34.351 16.0261C35.2337 16.6602 36.491 16.5769 37.0319 15.5497C37.0725 15.4727 37.059 15.3978 37.059 15.3161Z" fill="#81471D"/>
<path d="M33.2501 13.8381C33.1816 13.9799 33.1645 14.0725 33.1852 14.2301C33.2806 14.9575 33.7846 15.6196 34.3509 16.0263C35.2337 16.6603 36.491 16.577 37.0318 15.5499C37.0724 15.4728 37.0589 15.3979 37.0589 15.3162C36.4536 15.8266 35.873 15.922 35.127 15.6511C34.1984 15.3139 33.6672 14.7251 33.2501 13.8381Z" fill="#DD9C3F"/>
<path d="M22.3739 10.3574C22.8791 9.86227 23.2351 9.50289 23.2881 8.74754C23.3408 8.17839 23.1811 7.52084 22.796 7.08928C21.5472 5.6896 18.7404 6.17331 18.6088 8.28337C18.3542 8.5697 18.2501 9.10755 18.2642 9.48428C18.3057 10.5926 19.6015 11.6757 20.6688 11.5976C21.2373 11.556 21.7008 11.3109 22.0624 10.8662C22.1695 10.7399 22.3448 10.521 22.3739 10.3574Z" fill="#81471D"/>
<path d="M18.609 8.2832C18.3544 8.56954 18.2503 9.10739 18.2644 9.48411C18.3059 10.5925 19.6017 11.6755 20.669 11.5974C21.2375 11.5559 21.701 11.3107 22.0626 10.8661C22.1697 10.7397 22.345 10.5208 22.3741 10.3573C21.998 10.4318 21.675 10.5652 21.2736 10.5991C19.5641 10.7435 18.7765 9.94343 18.609 8.2832Z" fill="#DD9C3F"/>
<path d="M14.2373 33.0009C16.0028 30.9412 13.9814 28.712 11.7673 28.742C10.4832 28.7594 9.98866 30.2302 10.054 31.3269C10.0914 31.9394 10.5333 32.8528 11.0885 33.1953C11.1034 33.4462 11.2578 33.5357 11.4243 33.712C12.1893 34.5227 13.6777 34.2994 14.1674 33.2832C14.227 33.1595 14.2549 33.1522 14.2373 33.0009Z" fill="#81471D"/>
<path d="M14.2365 33.001C13.0985 33.5202 12.5716 33.7752 11.258 33.2636C11.2011 33.2414 11.1443 33.2186 11.0878 33.1954C11.1027 33.4463 11.2571 33.5357 11.4236 33.7121C12.1886 34.5227 13.6769 34.2994 14.1666 33.2833C14.2263 33.1596 14.2542 33.1523 14.2365 33.001Z" fill="#DD9C3F"/>
<path d="M33.867 24.8763C32.6789 24.7879 31.5298 25.548 31.366 26.8097C31.1699 28.3201 32.2292 29.3679 33.6307 29.582C34.8114 29.6712 35.9097 29.1028 36.1004 27.8273C36.1946 27.1833 36.0314 26.5278 35.6474 26.0075C35.235 25.4399 34.5608 24.9768 33.867 24.8763Z" fill="#81471D"/>
<path d="M12.1893 21.7483C11.5539 21.7813 10.9742 22.0457 10.381 22.2448C10.3266 22.2631 10.2609 22.2396 10.2102 22.2172C10.0991 22.0711 10.1134 21.9691 10.2145 21.8181C9.82831 21.6903 9.03597 22.1137 8.74375 22.3518C8.20224 22.7695 8.12133 23.4344 8.60557 23.9755C9.65435 25.1479 13.2478 25.1031 13.5334 23.2362C13.6485 22.4832 12.5178 22.127 12.1893 21.7483Z" fill="#F1936E"/>
<path d="M10.7956 22.3511C10.6446 22.3509 10.6605 22.348 10.5634 22.4294C10.4131 22.7447 11.126 23.8117 11.3628 23.9679C11.4674 23.9522 11.487 23.952 11.5727 23.8907C11.8052 23.5749 11.0324 22.5591 10.7956 22.3511Z" fill="#E56C43"/>
<path d="M12.157 22.5669C12.034 22.5736 11.9803 22.5875 11.8924 22.6695C11.7737 22.9917 12.3304 23.646 12.5683 23.8234C13.1069 23.8874 12.8155 23.3334 12.6441 23.1186C12.4716 22.9024 12.3676 22.7532 12.157 22.5669Z" fill="#E56C43"/>
<path d="M9.69964 22.6399C9.55338 22.634 9.52194 22.6393 9.42391 22.7226C9.2985 23.0303 9.81728 23.6526 10.0386 23.857C10.7668 23.8151 9.94021 22.8339 9.69964 22.6399Z" fill="#E56C43"/>
<path d="M30.0109 5.03186C29.2525 4.86659 28.5067 5.3607 28.3471 6.1341C28.1876 6.90751 28.675 7.66588 29.4344 7.82586C30.1902 7.98504 30.9299 7.49125 31.0887 6.72159C31.2475 5.95192 30.7655 5.19634 30.0109 5.03186Z" fill="#81471D"/>
<path d="M7.32285 9.10526C5.93734 9.05423 5.33702 10.9404 6.82149 11.4178C7.39722 11.4483 7.97608 11.1353 8.14662 10.5497C8.2294 10.2658 8.19735 9.95999 8.0573 9.70045C7.89827 9.41183 7.63468 9.19816 7.32285 9.10526Z" fill="#81471D"/>
<path d="M29.9038 12.2832C29.4551 12.2022 27.974 12.3531 28.1261 13.1109C28.147 13.1987 28.2975 13.2601 28.3733 13.2539C29.2191 13.1852 29.521 13.0844 30.3559 13.4385C30.6982 13.6189 31.2534 14.2722 31.582 14.1052C31.7851 13.8909 31.5807 13.463 31.4409 13.2617C31.0738 12.7432 30.522 12.392 29.9038 12.2832Z" fill="#5B2103"/>
<path d="M12.8292 12.4412C11.8337 12.3293 10.7611 12.773 10.3839 13.8129C10.3201 13.9891 10.3606 14.2881 10.5933 14.2957C10.8128 14.3029 10.9933 14.0829 11.141 13.9376C11.6387 13.5173 12.163 13.3396 12.8161 13.3194C13.0928 13.3108 13.5286 13.5237 13.762 13.3846C13.8309 13.3434 13.8802 13.2751 13.8981 13.1957C14.0049 12.7182 13.1526 12.5096 12.8292 12.4412Z" fill="#5B2103"/>
<path d="M40.3811 19.9043C40.3071 19.9243 39.9831 20.0241 39.9344 20.0285C40.0358 20.9153 39.9496 21.5752 39.8566 22.4543C39.8372 22.6376 39.8014 23.052 39.909 23.1835L39.9718 23.1813C40.6053 22.7631 40.5352 20.6161 40.3811 19.9043Z" fill="#F1D9A2"/>
<path d="M30.4237 22.3472C29.74 22.4571 30.3558 23.1281 30.5355 23.4319C30.6317 23.5945 30.7592 23.8087 30.8998 23.9277C31.0172 23.91 31.0629 23.9102 31.163 23.839C31.1975 23.775 31.2126 23.7668 31.217 23.6955C31.2338 23.4235 30.5907 22.5195 30.4237 22.3472Z" fill="#E56C43"/>
<path d="M40.3814 19.9043C40.2559 19.1013 40.2219 18.6924 39.7208 18.0256C39.6973 18.8015 39.7655 19.2657 39.9347 20.0285C39.9834 20.0241 40.3074 19.9243 40.3814 19.9043Z" fill="#FBFAF8"/>
<path d="M31.6856 22.4773C31.5777 22.5117 31.5553 22.5153 31.4748 22.5944C31.3133 22.9388 31.9539 23.6318 32.2101 23.8092C32.3443 23.7434 32.4829 23.6642 32.4493 23.4857C32.3821 23.1294 31.953 22.6892 31.6856 22.4773Z" fill="#E56C43"/>
<path d="M29.1423 22.5029C29.0245 22.5171 29.0058 22.5176 28.9111 22.5886C28.7458 22.891 29.3499 23.6143 29.5652 23.8123C29.6857 23.7965 29.7741 23.7545 29.8491 23.6582C29.9707 23.323 29.3859 22.6878 29.1423 22.5029Z" fill="#E56C43"/>
</g>
<defs>
<clipPath id="clip0_1_7398">
<rect width="42.2" height="42.5" fill="white" transform="matrix(-1 0 0 1 42.2 0)"/>
</clipPath>
</defs>
</svg>
