<svg width="43" height="43" viewBox="0 0 43 43" fill="none" xmlns="http://www.w3.org/2000/svg">
<g clip-path="url(#clip0_1_7092)">
<path d="M21.9039 0H19.022C18.7845 0.109237 17.6923 0.208317 17.3846 0.254898C14.3623 0.712471 11.559 1.99063 9.13524 3.87873C8.78856 4.14901 8.4011 4.3801 8.05286 4.65264C6.8768 5.5865 5.80655 6.65093 4.86171 7.82631C4.18203 8.6817 3.57549 9.71423 3.00006 10.6519C2.51208 11.4466 1.87566 12.5048 1.51123 13.3689C0.82066 15.0308 0.371269 16.7865 0.177387 18.5805C0.126038 19.065 0.0821571 20.2944 0 20.661V23.1702C0.0827827 23.4804 0.188282 24.9265 0.234653 25.3573C0.402393 26.7845 0.756863 28.1825 1.28872 29.5138C2.35119 32.216 4.32644 35.3289 6.50895 37.2411C7.77775 38.3528 9.645 39.3483 11.1982 40.0068C11.984 40.3021 12.9003 40.7448 13.7131 40.9386C15.259 41.3075 16.8167 41.8219 18.3511 42.1866C19.8851 42.5511 22.0724 42.526 23.6259 42.2402C24.7467 42.0341 26.062 41.5882 27.1606 41.2494C28.0202 40.9852 28.877 40.7115 29.7308 40.4286C30.5512 40.1622 31.3719 39.9196 32.1461 39.5301C32.9196 39.1409 33.9534 38.5646 34.5832 37.9595C37.4387 35.2163 40.3739 32.0586 40.981 27.9363C41.151 26.7819 41.75 25.5389 41.9583 24.375C42.0278 24.0639 42.1129 22.7797 42.2 22.6002V20.6615C42.1325 20.5044 42.0224 19.3444 41.9761 19.0629C41.8471 18.3233 41.6792 17.5914 41.4732 16.8701C40.2518 12.6984 38.428 8.47957 35.1795 5.51444C34.4754 4.86355 33.738 4.39647 32.9444 3.86363C30.1666 1.99846 26.8701 0.788143 23.5924 0.256884C23.3306 0.214447 22.0568 0.0976812 21.9039 0Z" fill="#612309"/>
<path d="M28.2612 2.35999C27.8611 2.13695 26.6339 1.76037 26.1788 1.62118C24.5578 1.12534 22.3701 0.787756 20.6794 0.739953C19.4234 0.704443 16.9921 1.06889 15.7986 1.39929C14.4336 1.76604 12.602 2.42899 11.454 3.27539C11.4132 3.30276 11.1535 3.47283 11.1321 3.49262C10.7524 3.70604 10.4269 3.97683 10.0662 4.20516C8.89698 4.94501 7.8787 5.87668 6.88065 6.82379C5.4827 8.15043 4.46443 9.63301 3.52613 11.3162C3.31358 11.6974 3.2893 11.9583 3.25942 12.3778C3.13961 12.4694 2.80226 12.6823 2.74344 12.7715C1.97351 13.9385 1.37381 15.9692 1.18365 17.3116C1.17121 17.3993 1.16094 17.4871 1.15223 17.5752C1.06353 17.8823 1.03054 18.3429 0.982613 18.6693C0.76041 20.1823 0.745785 21.7114 0.805538 23.2374C0.811451 23.3868 0.826698 24.0388 0.861244 24.1598C1.22598 27.4186 2.02921 29.9476 3.83703 32.6868C4.56121 33.7839 5.06257 34.5482 5.97472 35.5289C6.59123 36.1915 7.07672 36.5793 7.71439 37.1674C7.86719 37.2448 8.25993 37.4906 8.40465 37.5898C9.28568 38.1956 10.2125 38.64 11.1694 39.1021C11.4034 39.2277 12.992 39.9245 13.1939 39.9426C15.8447 40.6517 18.7688 41.7929 21.5347 41.7383C23.7031 41.6584 25.7437 40.9045 27.7808 40.2283C29.5651 39.6359 31.3032 39.2499 32.9082 38.2099C33.9072 37.5762 34.676 36.7528 35.5253 35.913C37.7082 33.7547 39.7277 30.8666 40.2228 27.7512C40.2605 27.5448 40.2317 27.1501 40.3037 26.9631C40.5227 26.3946 40.7112 25.9181 40.8514 25.3182C40.8661 25.2095 41.103 24.424 41.1488 24.2289C41.917 20.9568 41.0472 17.6242 39.8857 14.5675C39.6474 13.9403 39.0388 12.3189 38.6961 11.767C38.4803 11.3283 38.2743 10.7804 38.0383 10.3757C37.1331 8.82377 35.7106 7.07172 34.3775 5.888C33.2172 4.85772 31.4267 3.81806 30.0434 3.14327C29.6564 2.95451 28.638 2.45639 28.2612 2.35999Z" fill="#F5C35F"/>
<path d="M2.12329 23.8562C1.69632 24.0271 1.3266 24.1332 0.861965 24.1598C1.2267 27.4186 2.02993 29.9476 3.83775 32.6868C4.56194 33.7839 5.06329 34.5482 5.97544 35.5289C6.59195 36.1914 7.07744 36.5793 7.71511 37.1674C7.86791 37.2447 8.26065 37.4905 8.40537 37.5898C9.2864 38.1956 10.2132 38.64 11.1702 39.1021C11.4042 39.2277 12.9927 39.9245 13.1947 39.9425C15.8455 40.6517 18.7695 41.7929 21.5354 41.7383C23.7038 41.6584 25.7444 40.9045 27.7815 40.2283C29.5658 39.6358 31.3039 39.2499 32.9089 38.2099C33.9079 37.5762 34.6767 36.7528 35.5261 35.913C37.7089 33.7547 39.7285 30.8665 40.2235 27.7512C40.2612 27.5448 40.2325 27.1501 40.3045 26.9631C40.5235 26.3946 40.7119 25.9181 40.8521 25.3182C40.7246 25.3032 40.6696 25.3465 40.561 25.3989C39.5057 25.9071 39.7126 26.4227 39.3756 27.3782C39.2314 27.787 38.9489 28.3701 38.7479 28.7775C37.6813 30.9392 36.2216 33.0572 34.3427 34.5638C33.8611 34.9501 32.9888 35.4004 32.4238 35.6716C31.4401 36.1436 30.4091 36.6475 29.3989 37.0532C28.8922 37.2641 28.2417 37.3456 27.7491 37.566C26.9528 37.9222 26.2476 38.2892 25.4148 38.5772C23.0537 39.3942 20.5249 39.4214 18.069 39.1541C17.0685 39.045 15.9912 38.9685 15.0796 38.5064C14.292 38.103 13.9107 37.363 13.2957 36.7627C12.6931 36.1943 11.8444 35.6916 11.0665 35.4337C10.4833 35.24 9.92314 35.2016 9.35923 34.8949C8.92789 34.6599 8.61481 34.455 8.24696 34.1194C7.43097 33.3747 6.77214 32.4819 6.0881 31.6161C4.96869 30.2086 3.80507 28.7996 3.08804 27.1233C2.83503 26.5285 2.64799 25.921 2.47185 25.3006C2.35826 24.9018 2.29851 24.198 2.12329 23.8562Z" fill="#E49D40"/>
<path d="M11.4195 37.1137C10.1645 36.5495 8.93525 36.474 7.71469 37.1676C7.86749 37.245 8.26024 37.4908 8.40495 37.5901C9.28598 38.1959 10.2128 38.6402 11.1697 39.1023C11.3568 38.7113 11.0443 37.9618 11.0851 37.5425C11.1055 37.3326 11.2579 37.2428 11.4195 37.1137Z" fill="#84461F"/>
<path d="M11.4201 37.1138C11.2585 37.2429 11.1062 37.3326 11.0857 37.5426C11.045 37.9619 11.3575 38.7113 11.1704 39.1024C11.4044 39.228 12.993 39.9248 13.1949 39.9429C13.2557 38.5502 12.6827 37.659 11.4201 37.1138Z" fill="#723515"/>
<path d="M2.12293 23.8564C2.33953 23.7285 2.54369 23.5796 2.73228 23.4118C4.16602 22.1401 4.33034 19.7808 3.07025 18.3141C2.38964 17.5218 2.08185 17.6334 1.15258 17.5754C1.06388 17.8825 1.03089 18.3431 0.982968 18.6695C0.760764 20.1825 0.746139 21.7117 0.805891 23.2376C0.811804 23.387 0.827055 24.039 0.861599 24.16C1.32623 24.1334 1.69595 24.0273 2.12293 23.8564Z" fill="#84461F"/>
<path d="M15.7992 1.39941C14.4342 1.76616 12.6026 2.42911 11.4546 3.27551L11.4665 3.30076C11.5743 3.53311 11.6124 3.80074 11.7175 4.02564C12.4498 5.59189 13.7198 5.58656 15.0963 5.10717C15.9788 4.73631 16.7054 4.02776 16.6529 2.98663C16.6111 2.15596 16.3578 1.92767 15.7992 1.39941Z" fill="#84461F"/>
<path d="M28.2621 2.36007C28.0308 2.3893 26.5842 1.71701 26.4885 1.7914C26.6497 1.92522 26.9964 1.96837 27.1949 2.04391C27.63 2.20943 29.6404 3.06168 29.7896 3.36416C29.7947 3.48928 29.8079 3.76134 29.6388 3.76014C29.3661 3.7582 28.2482 3.13804 28.0682 3.24351C28.1501 3.35109 29.9086 4.04546 30.2221 4.18158C31.6076 4.78321 32.7151 5.65332 33.9001 6.57037C34.2968 6.87735 34.8291 6.88033 35.1573 7.37904C35.155 7.39496 35.1518 7.43353 35.1451 7.44511C34.9342 7.72596 35.0009 7.97407 35.3238 8.11965C36.326 8.49778 37.6983 12.6223 38.773 12.6621C39.0007 12.5109 38.7246 12.0127 38.697 11.7671C38.4812 11.3284 38.2752 10.7805 38.0391 10.3758C37.134 8.82385 35.7115 7.07181 34.3784 5.88809C33.218 4.85781 31.4276 3.81815 30.0442 3.14336C29.6573 2.9546 28.6388 2.45648 28.2621 2.36007Z" fill="#F7D89D"/>
<path d="M35.323 8.11961C35.5949 7.91929 35.4009 7.54431 35.1443 7.44507C34.9334 7.72592 35.0001 7.97403 35.323 8.11961Z" fill="#F8E9CD"/>
<path d="M11.4538 3.27563C11.4131 3.30301 11.1533 3.47307 11.1319 3.49286C11.3194 3.71297 11.1136 4.36709 11.191 4.66393C11.5655 6.10049 13.3933 6.87288 14.5633 5.88222C14.7917 5.68878 15.0575 5.41779 15.0955 5.10729C13.719 5.58668 12.449 5.59201 11.7168 4.02576C11.6116 3.80086 11.5735 3.53324 11.4657 3.30088L11.4538 3.27563Z" fill="#E49D40"/>
<path d="M13.73 14.9202C12.4279 14.9327 11.7802 15.4389 10.9658 16.3681C10.3446 16.3243 10.2385 16.1928 9.65932 15.9959C9.03565 16.1445 9.5395 16.9795 9.85289 17.1941C10.1311 17.385 10.2347 17.444 10.5674 17.5035C10.2992 19.0321 10.9869 20.343 12.3487 21.0316C12.7033 21.1941 13.0832 21.2918 13.4711 21.3203C14.3126 21.3821 15.1437 21.1003 15.7813 20.5371C16.4386 19.9552 16.7756 19.2176 16.8335 18.3382C16.8961 17.4939 16.6228 16.6593 16.0751 16.0226C15.4738 15.3291 14.6257 14.9779 13.73 14.9202Z" fill="#612309"/>
<path d="M14.6624 16.0592C13.9517 15.9496 13.2898 16.4517 13.1889 17.1769C13.088 17.9022 13.5869 18.572 14.2995 18.668C15.0026 18.7627 15.6493 18.2625 15.7488 17.5468C15.8484 16.8312 15.3636 16.1674 14.6624 16.0592Z" fill="#FEFEFE"/>
<path d="M12.806 18.8528C12.5682 18.7978 12.3197 18.8777 12.1559 19.0618C11.9921 19.246 11.9384 19.5058 12.0154 19.7416C12.0923 19.9775 12.2881 20.1527 12.5274 20.2002C12.8897 20.2721 13.2416 20.0344 13.3177 19.6663C13.3938 19.2982 13.166 18.936 12.806 18.8528Z" fill="#FEFEFE"/>
<path d="M28.2819 14.9499C26.9484 14.8199 25.8085 15.3677 25.132 16.5581C24.7135 17.2911 24.5985 18.1636 24.8123 18.9832C25.2783 20.7102 27.0475 21.6894 28.7321 21.1993C30.48 20.6178 31.16 19.3118 31.0268 17.5116C31.3543 17.4419 31.5869 17.316 31.8162 17.0613C32.0055 16.8511 32.3323 16.3495 32.0658 16.0887C32.0233 16.0471 31.9029 16.0123 31.8363 16.0053C31.426 16.1952 31.0087 16.3209 30.5819 16.3648C29.9185 15.5904 29.3301 15.0824 28.2819 14.9499Z" fill="#612309"/>
<path d="M28.8152 16.0644C28.1105 15.9379 27.4387 16.4176 27.3148 17.1357C27.1908 17.8538 27.6617 18.5384 28.3664 18.6645C29.0708 18.7905 29.7421 18.3109 29.866 17.593C29.9899 16.8752 29.5195 16.1909 28.8152 16.0644Z" fill="#FEFEFE"/>
<path d="M26.9091 18.8496C26.5493 18.7726 26.1945 19.0013 26.1088 19.3657C26.023 19.7301 26.2372 20.0979 26.5922 20.1956C26.831 20.2614 27.0859 20.1897 27.2578 20.0085C27.4297 19.8273 27.4914 19.5652 27.4189 19.3242C27.3464 19.0832 27.1511 18.9015 26.9091 18.8496Z" fill="#FEFEFE"/>
<path d="M36.3833 15.9356C36.8365 15.7846 37.2163 15.583 37.4462 15.1349C37.9026 14.2449 38.198 13.7917 37.958 12.7712C37.7862 12.041 37.3207 11.481 36.7008 11.1077C36.1613 10.7877 35.5197 10.6975 34.9153 10.8565C33.5978 11.2014 32.7769 12.228 33.1406 13.6416C33.0028 13.7813 32.9746 13.9759 32.9863 14.1674C33.0563 15.3204 34.1157 16.4317 35.2742 16.4179C35.6493 16.4135 36.0972 16.2406 36.348 15.9745C36.36 15.9617 36.3717 15.9488 36.3833 15.9356Z" fill="#84461F"/>
<path d="M36.3834 15.9356C35.996 15.9218 35.7982 15.9873 35.3909 15.8508C34.3167 15.4906 33.5367 14.6943 33.1406 13.6416C33.0029 13.7813 32.9747 13.9759 32.9863 14.1674C33.0564 15.3204 34.1158 16.4317 35.2743 16.4179C35.6493 16.4135 36.0973 16.2406 36.3481 15.9745C36.3601 15.9617 36.3718 15.9488 36.3834 15.9356Z" fill="#E49D40"/>
<path d="M28.2313 34.875C28.519 34.2749 28.761 33.7284 28.5178 33.0484C28.0354 31.6992 26.5444 30.911 25.1859 31.3934C23.8441 31.8699 23.0907 33.4715 23.5411 34.8372C23.7182 35.3745 24.2774 35.9365 24.8007 36.1573C24.8768 36.2743 24.912 36.314 25.0221 36.4005C25.4433 36.7364 25.9808 36.8826 26.5102 36.8053C27.0539 36.7272 27.5435 36.4281 27.8675 35.9765C28.0483 35.7263 28.2754 35.1811 28.2313 34.875Z" fill="#84461F"/>
<path d="M28.2308 34.875C27.2262 35.7843 26.8631 36.2838 25.2861 36.2074C25.1585 36.2011 24.9051 36.1602 24.8002 36.1573C24.8763 36.2743 24.9115 36.314 25.0216 36.4006C25.4428 36.7364 25.9803 36.8826 26.5097 36.8053C27.0534 36.7272 27.543 36.4282 27.867 35.9765C28.0478 35.7263 28.2749 35.1811 28.2308 34.875Z" fill="#E49D40"/>
<path d="M14.4998 33.1251C16.3031 31.1637 14.1318 28.8677 12.0312 28.8973C10.7389 28.9155 10.2578 30.3017 10.2786 31.4151C10.2942 32.0413 10.657 32.8222 11.1397 33.2412C11.1808 33.2773 11.2253 33.309 11.2725 33.3363C11.2752 33.35 11.2778 33.3633 11.2805 33.3766C11.7308 34.5231 13.4191 34.7017 14.1833 33.7756C14.3145 33.6167 14.51 33.3385 14.4998 33.1251Z" fill="#84461F"/>
<path d="M14.4992 33.125C13.2707 33.7733 12.6002 33.9363 11.2719 33.3362C11.2746 33.3499 11.2772 33.3632 11.2799 33.3765C11.7303 34.5231 13.4185 34.7016 14.1827 33.7755C14.3139 33.6166 14.5094 33.3385 14.4992 33.125Z" fill="#E49D40"/>
<path d="M22.6275 10.4002C22.6589 10.3802 22.6892 10.3585 22.7184 10.3352C23.6614 9.59654 23.8755 8.24523 23.153 7.26504C22.3652 6.19642 20.6019 6.09772 19.6135 6.9179C19.1012 7.34303 18.9764 7.77688 18.9164 8.42021C18.9095 8.55805 18.9153 8.63988 18.8307 8.75546C18.1217 9.72363 18.8638 10.7642 19.6841 11.3136C20.7743 12.044 21.8679 11.7013 22.5601 10.6385C22.6156 10.5531 22.6243 10.5013 22.6275 10.4002Z" fill="#84461F"/>
<path d="M18.9156 8.42017C18.9088 8.55801 18.9146 8.63983 18.8299 8.75541C18.121 9.72358 18.8631 10.7641 19.6833 11.3136C20.7735 12.044 21.8672 11.7013 22.5593 10.6384C22.6149 10.5531 22.6235 10.5012 22.6268 10.4002C20.8975 11.0946 18.9345 10.6434 18.9156 8.42017Z" fill="#E49D40"/>
<path d="M34.3443 25.0613C33.7196 25.0187 33.1786 25.109 32.6309 25.4448C32.1655 25.7323 31.8333 26.1985 31.7089 26.7383C31.3443 28.2713 32.3079 29.3993 33.728 29.7387C34.8238 29.811 35.8257 29.6059 36.2967 28.417C36.6462 27.5348 36.2876 26.454 35.6256 25.8308C35.2475 25.4749 34.8331 25.243 34.3443 25.0613Z" fill="#84461F"/>
<path d="M11.3922 21.1047C10.7464 21.0436 9.78603 21.2589 9.31611 21.7073C7.61939 23.3267 9.32171 24.9376 11.0723 25.0749C11.8506 25.0914 12.5633 24.9791 13.1766 24.4442C14.5221 23.2707 13.6005 21.5566 12.1064 21.1789C11.8865 21.1233 11.6173 21.1199 11.3922 21.1047Z" fill="#FAA273"/>
<path d="M30.6679 21.1021C27.5084 20.8069 26.41 24.461 29.9928 25.0474C30.7194 25.1295 31.6909 24.9368 32.2263 24.4506C33.914 22.9178 32.4259 21.3009 30.6679 21.1021Z" fill="#FAA273"/>
<path d="M20.8146 21.3533C18.6984 21.1748 18.2349 24.7917 20.4118 25.2764C21.4755 25.3316 22.1135 24.7965 22.2943 23.7197C22.3912 23.1354 22.2527 22.536 21.9101 22.0572C21.6423 21.677 21.268 21.4283 20.8146 21.3533Z" fill="#612309"/>
<path d="M20.7139 22.1115C19.5524 22.0601 19.3348 24.3121 20.512 24.5183C20.6848 24.523 20.8862 24.5357 21.0354 24.439C21.8682 23.8992 21.6749 22.3812 20.7139 22.1115Z" fill="#F5C35F"/>
<path d="M30.0906 5.08734C29.3212 5.01407 28.6391 5.5902 28.5669 6.37436C28.4947 7.15848 29.0597 7.85386 29.8291 7.92773C30.5989 8.00166 31.2817 7.42544 31.3539 6.64084C31.4262 5.85627 30.8605 5.16063 30.0906 5.08734Z" fill="#84461F"/>
<path d="M7.59479 9.20219C6.06986 9.13453 5.61238 11.0528 6.9845 11.5122C8.27945 11.5889 9.05934 9.98374 7.59479 9.20219Z" fill="#84461F"/>
<path d="M40.5975 19.9983C40.5442 20.1848 40.327 20.3141 40.1439 20.2865C40.1854 20.7374 40.1892 21.1911 40.1552 21.6426C40.1315 21.9738 39.9294 23.2871 40.1714 23.444C40.2376 23.4202 40.2811 23.3892 40.317 23.3253C40.8215 22.4287 40.7497 20.9481 40.5975 19.9983Z" fill="#F8E9CD"/>
<path d="M40.5972 19.9983C40.4969 19.3211 40.4107 18.7752 39.9667 18.217C39.9047 19.0303 40.0091 19.4816 40.1436 20.2865C40.3267 20.3141 40.5439 20.1848 40.5972 19.9983Z" fill="#FEFEFE"/>
</g>
<defs>
<clipPath id="clip0_1_7092">
<rect width="42.2" height="42.5" fill="white" transform="matrix(-1 0 0 1 42.2 0)"/>
</clipPath>
</defs>
</svg>
