<svg width="43" height="43" viewBox="0 0 43 43" fill="none" xmlns="http://www.w3.org/2000/svg">
<g clip-path="url(#clip0_1_7317)">
<path d="M22.3636 0H18.4222C18.2845 0.0803967 16.6926 0.313158 16.3363 0.388437C12.4291 1.21385 9.06055 3.51009 6.17844 6.24687C4.77987 7.5748 3.62217 9.4233 2.65337 11.0951C1.05344 13.737 0.185482 16.6601 0.0818481 19.7669C0.0725098 20.0437 0.0625534 20.4651 0 20.7285V23.1077C0.0513496 23.3548 0.115772 24.3312 0.149384 24.6436C0.249901 25.6329 0.422932 26.6131 0.667233 27.576C1.68955 31.5649 4.70891 36.2598 8.25172 38.4064C10.7187 39.9012 13.181 40.7505 15.943 41.4362C17.2347 41.7569 18.3277 42.179 19.6978 42.3005C21.3593 42.448 23.0334 42.2986 24.6445 41.859C25.9663 41.5035 27.3407 41.0318 28.6425 40.6249C30.1291 40.1606 31.3782 39.8371 32.7536 39.0432C33.9425 38.3572 34.8236 37.5332 35.7584 36.5316C36.1716 36.0888 36.9415 35.3879 37.3041 34.9356C38.6984 33.1976 40.1228 31.2038 40.6337 28.99C40.7812 28.3506 40.8608 27.6495 41.0379 27.0385C41.3145 26.0844 41.6056 25.2441 41.8265 24.2617C41.9659 23.6421 41.9641 22.8495 42.1896 22.2788C42.1931 22.2734 42.1965 22.2679 42.2 22.2625V20.6559C42.0569 20.4669 41.9348 19.2013 41.8807 18.8687C41.7045 17.7852 41.3983 16.8155 41.0818 15.7809C40.6723 14.4422 40.3025 13.4517 39.7305 12.178C38.4646 9.3591 36.7858 6.8333 34.3832 4.89546C33.8791 4.48886 33.3371 4.15022 32.8106 3.79322C30.8072 2.4345 28.6138 1.50809 26.3047 0.847434C25.4028 0.559002 24.4736 0.396684 23.5522 0.194254C23.2504 0.127931 22.6133 0.106644 22.3636 0Z" fill="#5B2102"/>
<path d="M29.6721 2.96009C29.3866 2.7848 28.6283 2.47271 28.2904 2.33534C26.3003 1.52614 24.1855 1.00484 22.0516 0.805869C21.5184 0.756154 20.8565 0.668775 20.3264 0.688027C18.8015 0.74341 17.198 0.995492 15.7141 1.34428C15.2713 1.49238 14.8197 1.6017 14.3714 1.75539C13.4458 2.07266 12.5532 2.49399 11.7168 3.0095C11.6181 3.0704 11.4508 3.20038 11.3661 3.24295L11.0964 3.39595C10.7227 3.62681 10.3897 3.88558 10.0272 4.1304C7.63709 5.74302 5.43622 7.84639 3.98194 10.3836C3.53349 11.1658 3.2425 11.3323 3.23161 12.2736L3.20329 12.2989C3.02466 12.4582 2.82797 12.5304 2.70411 12.6778C2.49903 12.9216 2.34809 13.2855 2.21489 13.5765C1.62795 14.8597 1.34008 16.1008 1.10107 17.4829C1.01829 17.8625 0.988415 18.2704 0.932396 18.6529C0.712994 20.1451 0.69619 21.6245 0.759987 23.1276C0.768082 23.3166 0.772747 23.9545 0.826588 24.0956C0.949825 25.3101 1.30803 27.2929 1.72287 28.4379C2.82922 31.4924 4.90125 34.7597 7.39217 36.8219C7.44943 36.8695 7.58979 36.9878 7.64145 37.0195C8.12849 37.4822 10.4243 38.6814 11.0486 38.9291C11.2641 39.0627 12.9071 39.8039 13.0818 39.8334C13.3512 39.9174 13.6964 39.9799 13.9876 40.0614C16.3191 40.7148 18.9691 41.7085 21.4109 41.6219C23.5599 41.5458 25.7002 40.7373 27.7213 40.0789C29.4428 39.5181 31.2681 39.0855 32.8083 38.0757C34.1378 37.1451 35.7077 35.552 36.7818 34.3217C38.212 32.6832 39.391 30.5043 39.9882 28.4117C40.1365 27.8922 40.1141 27.3109 40.223 26.7832C40.41 26.2266 40.6141 25.8208 40.7482 25.2269L40.9969 24.3044C42.014 20.423 40.629 16.3285 39.0948 12.7623C38.9635 12.457 38.8491 12.126 38.686 11.8385C38.3364 11.1684 38.0285 10.4202 37.6322 9.79356C37.2926 9.24661 36.8935 8.74267 36.5051 8.23305C34.6767 5.83392 32.3959 4.20256 29.6721 2.96009Z" fill="#EFC05C"/>
<path d="M2.09779 23.7231C1.97268 23.7776 1.90266 23.8121 1.71157 23.8729C1.5317 23.9303 1.07795 24.0206 0.873177 24.0335C0.857616 24.0541 0.842056 24.0748 0.826496 24.0954C0.949734 25.3099 1.30793 27.2927 1.72278 28.4377C2.82913 31.4922 4.90116 34.7595 7.39208 36.8217C7.44934 36.8693 7.5897 36.9876 7.64136 37.0193C8.1284 37.482 10.4242 38.6812 11.0485 38.9289C11.264 39.0625 12.907 39.8037 13.0817 39.8332C13.3512 39.9172 13.6963 39.9797 13.9875 40.0612C16.319 40.7146 18.969 41.7083 21.4108 41.6217C23.5598 41.5456 25.7002 40.7371 27.7212 40.0787C29.4427 39.5179 31.268 39.0853 32.8082 38.0755C34.1377 37.1449 35.7076 35.5518 36.7817 34.3215C38.2119 32.683 39.391 30.5041 39.9881 28.4115C40.1364 27.892 40.114 27.3107 40.2229 26.783C40.4099 26.2264 40.614 25.8206 40.7481 25.2267C40.3846 25.2747 39.8847 25.5268 39.6874 25.8512C39.435 26.2663 39.4379 26.8155 39.2446 27.273C38.9081 28.0695 38.543 28.8528 38.1196 29.6056C37.1252 31.3858 35.6172 33.4147 33.9762 34.6016C33.0848 35.1782 32.0995 35.6349 31.1404 36.0827C30.5125 36.3761 29.8604 36.6844 29.2138 36.9295C28.6775 37.1325 28.0946 37.248 27.5554 37.4478C27.1455 37.5997 26.7614 37.8201 26.3646 38.0044C25.7898 38.2705 25.1935 38.4852 24.5824 38.6464C23.5397 38.9194 22.4734 39.0882 21.3986 39.1503C19.9125 39.2417 15.9596 39.0476 14.7614 38.2559C13.8717 37.6682 13.4122 36.593 12.3375 35.9663C11.958 35.7449 11.5336 35.4975 11.1207 35.3526C10.1814 35.0234 9.6969 35.0589 8.77385 34.5036C7.81159 33.9241 6.58044 32.2593 5.86435 31.346C5.15106 30.4367 4.43715 29.55 3.82562 28.5635C3.4612 27.9752 3.14438 27.3349 2.87737 26.6943C2.61315 26.0604 2.4286 25.3989 2.29042 24.7254C2.22196 24.3926 2.17995 24.0526 2.09779 23.7231Z" fill="#DE9B3C"/>
<path d="M11.3592 36.9861C10.3808 36.5807 8.49985 36.1967 7.64154 37.0194C8.12858 37.4821 10.4244 38.6813 11.0487 38.929C11.2021 38.3892 10.903 37.8224 11.0088 37.3017C11.0378 37.1596 11.233 37.0584 11.3592 36.9861Z" fill="#83481D"/>
<path d="M13.0814 39.8333C13.1302 39.0023 13.0436 38.4168 12.4734 37.7822C12.1212 37.3902 11.8299 37.191 11.3587 36.9861C11.2325 37.0584 11.0373 37.1596 11.0084 37.3017C10.9026 37.8224 11.2016 38.3892 11.0482 38.929C11.2637 39.0626 12.9067 39.8038 13.0814 39.8333Z" fill="#6C310E"/>
<path d="M1.10176 17.4829C1.01898 17.8626 0.989105 18.2705 0.933087 18.653C0.713684 20.1452 0.696882 21.6246 0.76068 23.1277C0.768771 23.3166 0.77344 23.9546 0.827279 24.0957C0.842839 24.075 0.8584 24.0544 0.87396 24.0337C1.07874 24.0209 1.53248 23.9305 1.71236 23.8732C1.90344 23.8124 1.97346 23.7779 2.09857 23.7234C2.90336 23.2672 3.52297 22.3977 3.73522 21.4929C3.954 20.5603 3.85037 19.5123 3.34247 18.6938C3.0294 18.189 2.47887 17.5465 1.84836 17.5253C1.65011 17.515 1.26266 17.5303 1.10176 17.4829Z" fill="#83481D"/>
<path d="M15.7139 1.34424C15.2711 1.49233 14.8196 1.60165 14.3712 1.75535C13.4457 2.07261 12.553 2.49395 11.7167 3.00946C11.6179 3.07035 11.4507 3.20034 11.366 3.2429C11.4865 3.34877 11.5822 3.83568 11.6602 4.01288C11.9983 4.7808 12.7235 5.33193 13.563 5.33758C14.1917 5.35613 14.5113 5.14278 15.0239 5.0468C15.8898 4.75251 16.6555 3.80844 16.5633 2.86289C16.4902 2.11331 16.2342 1.82127 15.7139 1.34424Z" fill="#83481D"/>
<path d="M38.6861 11.8384C38.3364 11.1683 38.0285 10.4201 37.6323 9.79343C37.2926 9.24648 36.8935 8.74254 36.5051 8.23292C34.6768 5.83379 32.3959 4.20243 29.6721 2.95996C29.4928 3.19727 29.773 3.25664 29.5614 3.72024C29.5401 3.7661 29.51 3.82554 29.4928 3.8715C31.0776 4.39748 32.5058 5.51314 33.8024 6.53882C34.0564 6.73971 35.0219 6.90536 35.0181 7.38473C34.8325 7.62669 34.85 7.92511 35.1433 8.0586C35.9678 8.01775 37.7665 12.8511 38.6767 12.5377C38.7667 12.4195 38.701 12.0041 38.6861 11.8384Z" fill="#F1D697"/>
<path d="M35.0184 7.38477C34.8328 7.62673 34.8503 7.92515 35.1436 8.05864C35.5005 7.94799 35.3174 7.49787 35.0184 7.38477Z" fill="#F5E7C3"/>
<path d="M11.3658 3.24292L11.0961 3.39592C11.1836 3.64905 11.0939 4.17529 11.112 4.47019C11.152 5.11917 11.6559 5.68984 12.1871 5.99023C12.6941 6.2751 13.2927 6.33838 13.8462 6.16562C14.2595 6.03974 14.9866 5.51242 15.0237 5.04682C14.5111 5.1428 14.1915 5.35615 13.5628 5.3376C12.7233 5.33195 11.9981 4.78082 11.66 4.0129C11.582 3.8357 11.4863 3.34879 11.3658 3.24292Z" fill="#DE9B3C"/>
<path d="M29.5611 3.72028L29.5401 3.7127C29.248 3.60505 28.1971 3.05128 27.9658 3.19122L27.9577 3.23616C28.0716 3.35988 29.3217 3.86132 29.4924 3.87153C29.5097 3.82558 29.5398 3.76614 29.5611 3.72028Z" fill="#F1D697"/>
<path d="M20.863 20.6933C19.8522 20.6417 17.1561 20.519 17.1084 21.9577C17.0395 24.0379 18.378 25.6639 20.4118 25.8789C21.5396 25.9083 22.1118 25.7057 22.9993 24.9695C23.8883 24.2322 24.7755 22.2977 23.9394 21.2766C23.4407 20.6676 21.6441 20.7286 20.863 20.6933Z" fill="#5B2102"/>
<path d="M20.6265 22.8806C19.753 22.8141 18.7069 23.0658 17.9838 23.5755C18.4481 24.6611 19.338 25.1854 20.4476 25.372C20.7305 25.3839 21.0138 25.358 21.2902 25.2948C22.0836 25.1129 22.7732 24.6163 23.2066 23.915C22.4689 23.231 21.5981 22.9728 20.6265 22.8806Z" fill="#F49575"/>
<path d="M29.8306 21.6048C30.5959 21.2798 31.2013 20.6555 31.5112 19.8718C31.6927 19.4211 31.7381 18.839 31.6886 18.3527C31.5688 17.1757 30.7829 16.2308 29.7195 15.8014C28.9842 15.5046 28.163 15.5195 27.4385 15.8428C26.6789 16.1778 26.0804 16.8058 25.774 17.5893C24.9538 19.7464 26.6795 22.0196 28.9094 21.8405C29.2452 21.7734 29.5081 21.7215 29.8306 21.6048Z" fill="#5B2102"/>
<path d="M29.4347 16.2209C29.3038 16.3483 29.2652 16.7375 29.1546 16.9475C28.8432 17.5387 28.4001 17.7145 27.8393 17.93C28.4804 18.1767 28.9534 18.4086 29.2237 19.0985C29.2949 19.2801 29.3179 19.5251 29.4198 19.6838C29.458 19.6052 29.5584 19.3001 29.5963 19.2019C29.9275 18.3435 30.2103 18.2772 30.939 17.9462L30.9439 17.9095C30.8109 17.8059 30.6072 17.7813 30.4538 17.7053C29.8169 17.3899 29.6569 16.8223 29.4347 16.2209Z" fill="#FBFAF8"/>
<path d="M27.5934 18.9182C27.4548 19.0358 27.4714 19.33 27.2788 19.4721C27.1553 19.5632 27.078 19.571 26.9496 19.6484C26.9937 19.7632 27.2673 19.863 27.3803 20.0249C27.4797 20.1672 27.5011 20.2294 27.5682 20.3931C27.6924 20.3003 27.6833 20.0328 27.8546 19.9018C27.9742 19.8104 28.0631 19.7932 28.1937 19.7212C28.1051 19.4903 27.8047 19.6491 27.5934 18.9182Z" fill="#FBFAF8"/>
<path d="M12.9634 15.6007C11.275 15.497 9.82342 16.8069 9.7201 18.5275C9.61678 20.2482 10.9008 21.7287 12.589 21.8355C14.2794 21.9424 15.7343 20.6318 15.8377 18.9091C15.9412 17.1863 14.6539 15.7047 12.9634 15.6007Z" fill="#5B2102"/>
<path d="M13.3839 16.2234C13.2544 16.3121 13.1778 16.7757 13.0724 16.9739C12.7688 17.5451 12.3047 17.7243 11.7411 17.9076C12.7897 18.3036 13.0188 18.5608 13.3409 19.6659C13.4638 19.5294 13.4938 19.2314 13.5751 19.0285C13.8632 18.3101 14.3802 18.1778 14.9983 17.9038C14.4651 17.7691 14.0458 17.6095 13.7327 17.1138C13.5206 16.7779 13.5238 16.5582 13.3839 16.2234Z" fill="#FBFAF8"/>
<path d="M11.7399 18.9158C11.5469 19.0046 11.708 19.4575 10.9097 19.679C11.3982 19.8315 11.5187 19.9037 11.679 20.4083L11.7348 20.3953C11.7764 20.2973 11.8206 20.2004 11.8672 20.1048C12.0129 19.8115 12.199 19.7757 12.4922 19.6786C11.9856 19.5263 11.8986 19.4334 11.7399 18.9158Z" fill="#FBFAF8"/>
<path d="M28.1283 34.6931C28.4079 34.1289 28.6338 33.6227 28.4259 32.9734C28.0047 31.6577 26.4395 30.7813 25.1365 31.2326C24.4794 31.4739 23.9546 31.8906 23.6434 32.5272C23.2809 33.269 23.1659 33.9329 23.4406 34.7324C23.6154 35.2408 24.1923 35.8193 24.6729 36.023C25.0097 36.512 25.6834 36.6865 26.2477 36.67C27.2104 36.6414 28.1885 35.722 28.1283 34.6931Z" fill="#83481D"/>
<path d="M28.1278 34.6931C27.4246 35.4879 26.8267 35.997 25.6996 36.076C25.3063 36.1035 25.0314 36.0347 24.6724 36.023C25.0091 36.5121 25.6828 36.6865 26.2472 36.67C27.2099 36.6415 28.188 35.722 28.1278 34.6931Z" fill="#DE9B3C"/>
<path d="M37.185 15.3335C37.7792 14.3418 38.1758 13.5146 37.7618 12.3818C37.5083 11.6885 37.0006 11.2792 36.3788 10.9318C35.8744 10.65 35.1109 10.6582 34.5761 10.836C33.0165 11.395 32.9004 12.5012 33.386 13.9322C33.2602 14.2303 33.3213 14.4655 33.4299 14.7646C33.9935 16.3176 36.1758 17.2572 37.1681 15.5703C37.1961 15.5228 37.189 15.3905 37.185 15.3335Z" fill="#83481D"/>
<path d="M37.1847 15.3334C36.6589 15.9482 35.7619 15.937 35.0846 15.6428C34.3349 15.3172 33.7019 14.6941 33.3857 13.9321C33.2598 14.2302 33.321 14.4654 33.4296 14.7645C33.9932 16.3175 36.1755 17.2571 37.1678 15.5702C37.1958 15.5226 37.1887 15.3904 37.1847 15.3334Z" fill="#DE9B3C"/>
<path d="M14.4732 32.9704C14.8559 32.3262 15.2298 31.7328 15.0155 30.9376C14.6389 29.5398 12.8787 28.5263 11.5105 28.8418C10.4247 29.0921 10.0045 30.8094 10.2725 31.7566C10.4312 32.318 10.6979 32.873 11.1783 33.2225C11.1995 33.3034 11.1941 33.3329 11.2419 33.4062C11.9964 34.5626 13.6021 34.5147 14.3084 33.3342C14.3904 33.1972 14.4466 33.1391 14.4732 32.9704Z" fill="#83481D"/>
<path d="M14.4732 32.9705C13.135 33.6114 12.7519 33.7941 11.269 33.2553C11.2477 33.2477 11.1983 33.2277 11.1784 33.2226C11.1995 33.3035 11.1942 33.333 11.2419 33.4062C11.9964 34.5626 13.6021 34.5147 14.3084 33.3342C14.3904 33.1972 14.4466 33.1392 14.4732 32.9705Z" fill="#DE9B3C"/>
<path d="M22.5684 10.3147C22.5997 10.2857 22.6308 10.2565 22.6616 10.227C23.1973 9.7129 23.4331 9.28653 23.4562 8.53029C23.5374 5.87445 19.227 5.4668 18.8215 8.07817C18.7911 8.27373 18.7946 8.45696 18.7961 8.653C18.6335 8.74041 18.5251 8.95218 18.4864 9.11606C18.1297 10.6252 20.2786 12.2525 21.6041 11.3805C21.9258 11.1688 22.4761 10.6885 22.5684 10.3147Z" fill="#83481D"/>
<path d="M18.7961 8.65308C18.6335 8.74049 18.5251 8.95226 18.4864 9.11614C18.1297 10.6252 20.2786 12.2525 21.6041 11.3806C21.9258 11.1689 22.4761 10.6885 22.5684 10.3147C22.3211 10.3857 22.0806 10.4844 21.8277 10.5397C20.1636 10.9036 19.1702 10.2889 18.7961 8.65308Z" fill="#DE9B3C"/>
<path d="M34.0899 24.9372C32.8669 24.8704 31.7664 25.5366 31.5545 26.8314C31.4575 27.4591 31.6056 28.1007 31.9672 28.6184C32.3542 29.1686 33.0674 29.528 33.7145 29.6374C34.359 29.7112 34.9506 29.5976 35.4831 29.2055C35.9026 28.9017 36.1853 28.4393 36.268 27.9216C36.3671 27.2795 36.2072 26.6238 35.8246 26.1037C35.4579 25.5971 34.7135 25.0318 34.0899 24.9372Z" fill="#83481D"/>
<path d="M29.8304 21.6047C29.5079 21.7214 29.245 21.7733 28.9092 21.8404C28.9213 21.887 28.9145 21.9452 28.8735 21.9717C28.391 22.2719 27.6417 22.8572 27.9259 23.5298C28.349 24.5311 29.6604 24.7277 30.6109 24.7088C31.1496 24.7088 31.5715 24.6148 32.075 24.4087C32.6671 24.1663 33.3684 23.6048 33.0562 22.8671C32.9059 22.5117 32.5123 22.2479 32.1849 22.0707C31.7162 21.8128 31.1913 21.748 30.6705 21.6957C30.4103 21.6696 30.0688 21.701 29.8304 21.6047Z" fill="#F49575"/>
<path d="M30.209 22.4062C30.1063 22.4342 30.0857 22.4364 30.0103 22.511C29.8894 22.8223 30.5956 23.8047 30.8273 23.9481C30.9216 23.9296 30.9441 23.9213 31.0322 23.882C31.278 23.5191 30.471 22.6499 30.209 22.4062Z" fill="#E86D46"/>
<path d="M29.0854 22.579C28.9681 22.5701 28.9423 22.564 28.8332 22.6053C28.6075 22.862 29.2367 23.5868 29.4189 23.7994C29.5087 23.8332 29.6368 23.8046 29.7119 23.7493C29.8654 23.4262 29.3028 22.8065 29.0854 22.579Z" fill="#E86D46"/>
<path d="M31.5815 22.5383C31.4754 22.5611 31.4625 22.5582 31.3842 22.6282C31.2357 22.9489 31.8669 23.6195 32.0886 23.8328C32.7698 23.5962 31.8495 22.7787 31.5815 22.5383Z" fill="#E86D46"/>
<path d="M11.4105 21.8331C10.5321 21.7742 9.568 21.7894 8.80958 22.3005C8.27803 22.6587 7.96029 23.2414 8.36517 23.8346C8.79869 24.4698 9.56644 24.6539 10.2657 24.7927C11.0849 24.8705 12.2588 24.7687 12.8923 24.2356C14.4878 22.8929 12.5237 21.9768 11.4105 21.8331Z" fill="#F49575"/>
<path d="M10.7431 22.4768C10.6059 22.4796 10.6062 22.4835 10.5253 22.5564C10.3955 22.908 10.9983 23.618 11.1795 23.9299C11.1966 23.9594 11.3 24.0017 11.3363 24.0158C11.4397 24.0101 11.4567 24.0112 11.5416 23.9528C11.7419 23.6423 10.985 22.6618 10.7431 22.4768Z" fill="#E86D46"/>
<path d="M12.0696 22.6399C11.3487 22.6934 12.3009 23.6992 12.5045 23.8832C12.6746 23.8873 12.7056 23.8761 12.7956 23.7417C12.8558 23.4127 12.3322 22.7983 12.0696 22.6399Z" fill="#E86D46"/>
<path d="M9.57725 22.6752C9.51252 22.6661 9.48295 22.6759 9.41947 22.688C9.11635 22.9771 9.77144 23.7095 9.9812 23.9202C9.99925 23.9162 10.0173 23.9116 10.035 23.9067C10.6186 23.7456 9.84427 22.8272 9.57725 22.6752Z" fill="#E86D46"/>
<path d="M30.1105 5.03629C29.3517 4.88725 28.6179 5.39322 28.4715 6.1665C28.325 6.93981 28.8213 7.68772 29.5801 7.8372C30.3391 7.98671 31.0733 7.4807 31.2198 6.70711C31.3663 5.93351 30.8696 5.18539 30.1105 5.03629Z" fill="#83481D"/>
<path d="M7.40911 9.14484C6.06375 9.10818 5.46156 10.8957 6.9395 11.4611C7.55258 11.4666 8.17375 11.0486 8.2889 10.414C8.33745 10.1444 8.27832 9.86623 8.12458 9.6413C7.97147 9.41507 7.68142 9.19302 7.40911 9.14484Z" fill="#83481D"/>
<path d="M40.4582 19.7251C40.4606 20.0513 40.4106 20.1154 40.0499 20.1325C40.0848 20.4401 40.0963 20.6901 40.1017 20.9935C40.1088 21.3894 39.7822 23.122 40.093 23.285C40.1536 23.2574 40.1833 23.2273 40.2179 23.1671C40.735 22.2676 40.6496 20.6896 40.4582 19.7251Z" fill="#F5E7C3"/>
<path d="M40.4572 19.7252C40.4104 19.3558 40.2403 18.4689 39.9204 18.2715C39.6887 18.3989 39.9959 19.8707 40.049 20.1325C40.4096 20.1155 40.4597 20.0514 40.4572 19.7252Z" fill="#FBFAF8"/>
</g>
<defs>
<clipPath id="clip0_1_7317">
<rect width="42.2" height="42.5" fill="white" transform="matrix(-1 0 0 1 42.2 0)"/>
</clipPath>
</defs>
</svg>
