<svg width="43" height="43" viewBox="0 0 43 43" fill="none" xmlns="http://www.w3.org/2000/svg">
<g clip-path="url(#clip0_1_7276)">
<path d="M21.5812 0.515264L21.3353 0.507887C16.9484 0.397896 13.3525 1.43296 9.71901 3.94973C8.72097 4.62888 7.77926 5.39012 6.90339 6.22581C5.27285 7.80364 4.11627 9.31562 3.02029 11.3183C2.57908 12.1246 2.10839 12.8169 1.7268 13.6747C0.69207 15.9999 0.322918 18.3937 0.226948 20.8964C0.0526924 25.4346 0.687481 29.4912 3.24925 33.3022C4.00687 34.4294 4.39764 35.1064 5.39928 36.1724C6.03604 36.8624 6.73634 37.4885 7.49102 38.0423C9.00397 39.1372 11.3517 40.1836 13.1381 40.7813C13.9165 41.0417 14.811 41.2539 15.6028 41.497C17.4445 42.0624 18.7794 42.4754 20.72 42.5193C22.3607 42.5373 23.8474 42.3745 25.4192 41.8533C27.2956 41.2316 29.2081 40.6898 31.08 40.0537C31.8096 39.7899 32.5085 39.4243 33.1881 39.0523C34.3136 38.4366 35.1332 37.4668 36.0436 36.599C37.9679 34.7644 39.6822 32.5406 40.5534 29.9833C40.8622 29.077 40.9761 28.1341 41.217 27.2109C41.3682 26.6377 41.5696 26.0652 41.7266 25.4872C41.981 24.5416 42.1344 23.5708 42.1842 22.5917C42.2423 21.2403 42.1295 19.8869 41.8484 18.5647C41.7287 17.9769 41.5525 17.3471 41.3749 16.7759C40.3256 13.4013 38.7977 9.86932 36.4126 7.24117C32.927 3.40022 26.6815 0.733954 21.5812 0.515264Z" fill="#5C2103"/>
<path d="M29.8033 3.50499C27.114 2.16038 23.6306 1.31961 20.6361 1.25163C19.4174 1.22396 16.9895 1.55306 15.8178 1.90964C14.5078 2.22603 12.6226 2.98851 11.5003 3.73563C11.4587 3.76051 11.2471 3.88382 11.2264 3.90427C10.8064 4.13215 10.3693 4.47249 9.97134 4.7471C7.6536 6.34726 5.62541 8.39373 4.16847 10.8357C3.74823 11.5395 3.47046 11.8643 3.47013 12.7098L3.44 12.7359C3.23201 12.9121 3.01943 12.9801 2.8717 13.168C2.69122 13.3971 2.54546 13.7411 2.42623 14.0107C1.8825 15.2254 1.50189 16.5087 1.2939 17.8264C1.22773 18.0626 1.15207 18.6204 1.11636 18.8855C0.917213 20.4361 0.857925 22.0021 0.939812 23.5637C0.945053 23.6706 0.970604 24.2224 1.00008 24.3048C1.35154 29.0241 3.72268 33.7262 7.2458 36.8119C7.40957 36.9548 7.57826 37.0923 7.75121 37.2242C7.88616 37.3397 8.20716 37.5226 8.37093 37.6278C9.23697 38.1833 10.1846 38.7371 11.1358 39.1243C11.4017 39.2446 12.9639 39.9526 13.1542 39.9759C14.0204 40.2146 14.8842 40.4621 15.7456 40.7182C17.9656 41.3709 20.0871 42.0382 22.4249 41.7199C24.1838 41.4951 25.8763 40.9003 27.5582 40.3465C28.8669 39.9156 30.3591 39.5406 31.6223 38.9888C32.1895 38.7374 32.7299 38.4274 33.2352 38.0637C34.0098 37.5096 34.6294 36.8898 35.3129 36.2424C37.366 34.2986 39.1155 31.9216 39.9748 29.1708C40.0926 28.8028 40.1765 28.4245 40.2254 28.0408C40.2507 27.8265 40.2946 27.2011 40.3525 27.0227C40.5442 26.4318 40.7839 26.0467 40.8929 25.4065C42.3254 21.3104 40.7869 16.9056 39.1614 13.1177C39.0713 12.9077 38.9729 12.6988 38.8786 12.4905C38.6113 11.9405 38.2484 11.0295 37.9256 10.5435C36.747 8.76918 35.2523 6.91352 33.5238 5.68107C32.337 4.83485 31.1071 4.06348 29.8033 3.50499Z" fill="#EFC05D"/>
<path d="M2.30407 24.009C1.85958 24.2065 1.4901 24.2952 1.00206 24.3047C1.35352 29.024 3.72465 33.7261 7.24777 36.8118C7.41154 36.9547 7.58023 37.0922 7.75318 37.2241C7.88813 37.3396 8.20913 37.5224 8.3729 37.6277C9.23895 38.1831 10.1865 38.737 11.1378 39.1242C11.4037 39.2445 12.9659 39.9525 13.1562 39.9758C14.0224 40.2145 14.8862 40.462 15.7476 40.7181C17.9676 41.3708 20.0891 42.0381 22.4268 41.7198C24.1858 41.495 25.8782 40.9002 27.5602 40.3464C28.8689 39.9155 30.3611 39.5405 31.6243 38.9887C32.1915 38.7373 32.7319 38.4272 33.2371 38.0636C34.0118 37.5095 34.6314 36.8897 35.3148 36.2423C37.368 34.2985 39.1174 31.9215 39.9768 29.1707C40.0946 28.8027 40.1784 28.4244 40.2274 28.0407C40.2526 27.8264 40.2966 27.201 40.3545 27.0226C40.5462 26.4317 40.7858 26.0466 40.8948 25.4064C40.5969 25.4846 39.9877 25.8429 39.8262 26.1095C39.5767 26.521 39.5575 27.1212 39.357 27.5827C39.0022 28.3997 38.614 29.2544 38.1605 30.0152C37.0761 31.7981 35.6564 33.8063 33.8902 34.9469C32.574 35.7971 30.8097 36.4555 29.3754 37.1068C28.9377 37.306 28.2947 37.4026 27.824 37.5871C27.3565 37.7702 26.9531 37.9773 26.5018 38.1845C25.89 38.4712 25.2545 38.702 24.6027 38.8742C23.6426 39.1219 22.6318 39.2595 21.6438 39.3184C20.1574 39.4076 16.1333 39.2638 14.9149 38.4719C13.9613 37.8521 13.5109 36.7808 12.405 36.1241C11.9899 35.8777 11.524 35.6446 11.0639 35.4994C10.4112 35.2936 9.75779 35.2127 9.15837 34.8473C8.67687 34.5533 8.23271 34.2 7.8367 33.795C7.10136 33.0567 6.46918 32.1702 5.82621 31.3419C5.22253 30.5225 4.49439 29.6864 3.97752 28.8104C3.26772 27.6076 2.71121 26.2321 2.45768 24.853C2.40953 24.5912 2.3758 24.2882 2.31226 24.0395L2.30407 24.009Z" fill="#DE9B3D"/>
<path d="M11.3685 37.1383C10.3015 36.6498 8.74371 36.4866 7.75614 37.2239C7.89109 37.3394 8.21209 37.5223 8.37586 37.6275C9.24191 38.183 10.1895 38.7368 11.1407 39.1241C11.2788 38.8517 11.0852 38.0148 11.0792 37.6954C11.0715 37.2838 11.1451 37.3821 11.3685 37.1383Z" fill="#81461C"/>
<path d="M11.3667 37.1384C11.1433 37.3822 11.0697 37.284 11.0775 37.6956C11.0835 38.0149 11.2771 38.8518 11.139 39.1242C11.4049 39.2444 12.9671 39.9524 13.1574 39.9757C13.2638 38.585 12.6343 37.6503 11.3667 37.1384Z" fill="#6D330F"/>
<path d="M1.30033 17.8262C1.23417 18.0624 1.1585 18.6202 1.1228 18.8853C0.92365 20.4359 0.864363 22.0019 0.94625 23.5635C0.951491 23.6704 0.977043 24.2222 1.00652 24.3046C1.49457 24.2951 1.86405 24.2065 2.30853 24.0089C2.57647 23.8342 2.86013 23.6138 3.07434 23.3917C4.4471 21.9678 4.37275 19.3402 2.73664 18.1473C2.22763 17.7764 1.48835 17.9614 1.30033 17.8262Z" fill="#81461C"/>
<path d="M15.8205 1.90942C14.5105 2.22582 12.6252 2.9883 11.503 3.73542C11.623 3.88228 11.7183 4.33255 11.8052 4.52816C12.5077 6.11004 13.7922 5.94477 15.1018 5.57669C15.4663 5.41824 15.8592 5.17947 16.1307 4.88655C16.487 4.50541 16.6784 3.99523 16.6625 3.46971C16.6403 2.77074 16.2995 2.36196 15.8205 1.90942Z" fill="#81461C"/>
<path d="M38.8809 12.4904C38.6137 11.9404 38.2508 11.0294 37.9279 10.5434C36.7493 8.76907 35.2546 6.91342 33.5261 5.68096C32.3393 4.83474 31.1094 4.06338 29.8057 3.50488C29.6835 3.73523 29.9553 4.0468 29.6957 4.2135C29.34 4.19336 28.3551 3.5959 28.0982 3.73147C28.1154 3.84173 28.621 4.00487 28.7401 4.045C30.6883 4.70144 32.3583 5.77174 33.9573 7.05964C34.1552 7.21902 35.2093 7.46779 35.1071 7.85505C35.4088 7.96548 35.4714 8.26928 35.371 8.55374C35.9331 8.92699 36.3522 9.89463 36.8226 10.5551C36.995 10.7973 38.1653 13.3047 38.812 12.8824C38.8276 12.8722 38.8693 12.5707 38.8809 12.4904Z" fill="#F1D69A"/>
<path d="M11.5054 3.7356C11.4638 3.76047 11.2523 3.88379 11.2315 3.90423C11.2985 3.97567 11.2986 3.96368 11.2905 4.09212C11.2359 4.95283 11.1112 5.34076 11.7383 6.03945C12.1282 6.47967 12.6774 6.73995 13.2598 6.7606C13.8078 6.78444 14.3422 6.60385 14.7381 6.21352C14.9265 6.0278 15.1164 5.85823 15.1042 5.57686C13.7946 5.94495 12.5101 6.11022 11.8077 4.52834C11.7208 4.33272 11.6255 3.88245 11.5054 3.7356Z" fill="#DE9B3D"/>
<path d="M35.3707 8.55368C35.4712 8.26922 35.4085 7.96541 35.1068 7.85498C34.8752 8.20381 34.9825 8.44745 35.3707 8.55368Z" fill="#F6E7C3"/>
<path d="M13.2596 16.0655C12.6493 15.9909 11.8903 16.2965 11.384 16.6413C11.1624 16.7921 10.9744 16.9812 10.73 17.0971L10.2628 17.0812C10.1196 16.9648 9.97127 16.8096 9.83861 16.6778C9.73347 17.1198 9.64339 17.7769 9.95391 18.1577C10.0387 18.2618 10.2618 18.4442 10.2628 18.5711C10.2661 18.7689 10.2078 18.996 10.1963 19.189C10.1524 19.9254 10.7106 21.5552 11.2803 21.9466C11.6981 21.6527 11.8161 21.5542 12.2931 21.3867C12.3852 21.3594 12.478 21.3344 12.5714 21.3118C13.6546 21.0495 14.3235 21.3702 15.2065 21.9192C15.5521 21.6139 15.4043 21.5728 15.5809 21.2931C16.9856 19.069 15.9745 16.3619 13.2596 16.0655Z" fill="#5C2103"/>
<path d="M14.4438 16.95C13.8088 16.799 13.1737 17.2005 13.0262 17.8464C12.8786 18.4923 13.2745 19.1373 13.91 19.2864C14.5441 19.4351 15.1769 19.0336 15.3242 18.3891C15.4714 17.7446 15.0775 17.1007 14.4438 16.95Z" fill="#F9F8F6"/>
<path d="M12.339 19.5652C12.0306 19.4896 11.7203 19.6823 11.6455 19.9957C11.5708 20.3092 11.7599 20.625 12.0681 20.7014C12.3768 20.7779 12.6881 20.5852 12.763 20.2712C12.8379 19.9572 12.648 19.641 12.339 19.5652Z" fill="#F9F8F6"/>
<path d="M31.049 17.0763C30.1611 16.3668 29.4542 15.9558 28.3228 16.0929C25.7941 16.4003 24.9905 19.2032 26.2649 21.2101C26.369 21.4227 26.4088 21.6614 26.6006 21.8157C26.724 21.915 26.8834 21.77 27.0247 21.6915C28.2684 21.0002 29.2711 21.0393 30.496 21.867C30.6306 21.9104 30.5786 21.9111 30.7029 21.8824C31.2196 21.247 31.7037 19.963 31.6308 19.1111C31.616 18.9383 31.5665 18.6721 31.5867 18.5129C31.6403 18.4686 31.9183 18.2398 31.9381 18.205C32.0868 17.943 32.2422 17.0007 32.0312 16.7763C31.7218 16.8078 31.9424 17.1927 31.049 17.0763Z" fill="#5C2103"/>
<path d="M29.7094 16.9158C29.0721 16.797 28.4604 17.2244 28.3409 17.8718C28.2214 18.5191 28.6393 19.1429 29.2755 19.267C29.9155 19.3918 30.5333 18.964 30.6535 18.3128C30.7736 17.6617 30.3503 17.0353 29.7094 16.9158Z" fill="#F9F8F6"/>
<path d="M27.7027 19.532C27.3973 19.4495 27.0835 19.6328 26.9998 19.9426C26.916 20.2525 27.0936 20.5731 27.3977 20.6609C27.7054 20.7497 28.0254 20.5665 28.1102 20.2528C28.195 19.9392 28.012 19.6154 27.7027 19.532Z" fill="#F9F8F6"/>
<path d="M28.2148 34.931C28.4949 34.4135 28.7321 33.8067 28.5331 33.2203C27.7886 31.0261 24.8416 30.6931 23.7382 32.7747C23.4049 33.4038 23.3112 34.1574 23.49 34.845C23.6524 35.4162 24.2392 36.0376 24.7964 36.2201C24.8545 36.3259 24.8912 36.3709 24.9833 36.4508C25.9523 37.2914 27.5007 36.8548 28.0676 35.7398C28.1723 35.534 28.2841 35.1557 28.2148 34.931Z" fill="#81461C"/>
<path d="M28.2161 34.9307C27.4947 35.7519 26.9475 36.1895 25.7791 36.294C25.4131 36.3267 25.1363 36.2467 24.7977 36.2198C24.8559 36.3257 24.8925 36.3706 24.9846 36.4505C25.9537 37.2911 27.5021 36.8545 28.069 35.7396C28.1737 35.5338 28.2855 35.1554 28.2161 34.9307Z" fill="#DE9B3D"/>
<path d="M37.2823 15.7546C37.3927 15.5857 37.4903 15.3738 37.5844 15.1937C38.0502 14.3022 38.1617 13.7828 37.8588 12.7968C37.6704 12.173 37.031 11.6566 36.4778 11.3519C35.5535 10.8428 33.9336 11.2358 33.4072 12.1842C33.0726 12.787 33.2362 13.6997 33.4704 14.3282C33.4144 14.5602 33.3942 14.7576 33.4631 14.9874C33.7316 15.8835 34.4185 16.5925 35.3309 16.7894C36.1158 16.9588 36.9298 16.6953 37.2685 15.918C37.2779 15.8954 37.2816 15.7801 37.2823 15.7546Z" fill="#81461C"/>
<path d="M37.2813 15.7546C35.916 16.9726 34.095 15.7599 33.4694 14.3281C33.4134 14.5601 33.3932 14.7575 33.4621 14.9873C33.7306 15.8835 34.4175 16.5924 35.3299 16.7893C36.1148 16.9587 36.9288 16.6952 37.2675 15.9179C37.2769 15.8954 37.2806 15.7801 37.2813 15.7546Z" fill="#DE9B3D"/>
<path d="M22.627 10.7899C23.2248 10.3238 23.5628 9.69305 23.5448 8.92076C23.5273 8.35693 23.2917 7.82291 22.8891 7.43472C22.3948 6.9672 21.7226 6.80748 21.0615 6.8253C19.6828 6.86246 18.811 7.6895 18.8836 9.13209C17.8944 9.9901 19.0996 11.5665 20.013 11.9241C20.9645 12.2966 21.8323 12.0089 22.4431 11.1704C22.5453 11.023 22.6007 10.9721 22.627 10.7899Z" fill="#81461C"/>
<path d="M22.6268 10.7899C20.7756 11.4413 19.417 11.2454 18.8834 9.13208C17.8942 9.99009 19.0993 11.5665 20.0127 11.9241C20.9643 12.2965 21.8321 12.0089 22.4429 11.1704C22.545 11.023 22.6005 10.9721 22.6268 10.7899Z" fill="#DE9B3D"/>
<path d="M14.5367 33.1886C14.9402 32.6032 15.2761 32.0522 15.1463 31.3037C15.0336 30.6543 14.5537 30.0388 14.0287 29.673C13.102 29.0311 11.5083 28.5724 10.759 29.7088C10.3564 30.3196 10.1824 31.1222 10.3233 31.8445C10.4323 32.4051 10.8168 33.1503 11.3186 33.4427C11.3306 33.5283 11.3412 33.5779 11.3877 33.6519C11.9156 34.4901 13.1094 34.6689 13.8875 34.0894C14.1409 33.9006 14.4854 33.5163 14.5367 33.1886Z" fill="#81461C"/>
<path d="M14.5389 33.1887C12.9517 33.8841 12.9294 33.9204 11.3207 33.4428C11.3328 33.5284 11.3434 33.578 11.3899 33.6519C11.9178 34.4901 13.1116 34.669 13.8897 34.0895C14.1431 33.9007 14.4876 33.5164 14.5389 33.1887Z" fill="#DE9B3D"/>
<path d="M23.5843 26.0421C26.0154 24.3185 24.9329 21.9753 23.5925 22.8751C23.4373 23.2798 23.4239 23.5736 23.0581 23.859C22.5608 24.2469 21.8182 24.352 21.2056 24.3475C20.489 24.3423 19.5239 24.226 19.066 23.6067C18.8078 23.2574 18.8877 22.7912 18.3725 22.6948C18.2245 22.6667 18.0717 22.6817 17.9317 22.738C17.6965 22.8328 17.5203 23.0327 17.4155 23.2665C16.9978 24.1982 17.9716 25.6931 18.8304 26.0508C20.3336 26.916 22.0741 26.8161 23.5843 26.0421Z" fill="#5C2103"/>
<path d="M23.5826 26.0421C23.3429 25.8056 23.1232 25.5752 22.8419 25.3869C21.7218 24.6372 19.5408 24.7553 18.8287 26.0508C20.3319 26.916 22.0723 26.8161 23.5826 26.0421Z" fill="#F3966F"/>
<path d="M34.2894 25.1832C33.6978 25.1343 33.1062 25.2777 32.5999 25.5926C31.5982 26.2276 31.4115 27.8505 32.0808 28.7781C32.5699 29.4559 33.0355 29.6943 33.8122 29.8681C34.472 29.9338 35.0154 29.8839 35.5854 29.4914C36.024 29.1838 36.3219 28.7093 36.4115 28.1754C36.6488 26.8253 35.5759 25.4129 34.2894 25.1832Z" fill="#81461C"/>
<path d="M11.3726 22.0562C10.5464 22.0158 9.52181 22.137 8.85263 22.6551C8.63088 22.8267 8.38129 23.1331 8.36294 23.4288C8.2935 24.5524 9.64595 24.9949 10.532 25.0902C11.3337 25.1502 12.1569 25.0475 12.8597 24.6263C13.4022 24.3013 13.8201 23.6302 13.4095 23.0302C12.9616 22.3758 12.0888 22.2055 11.3726 22.0562Z" fill="#F3966F"/>
<path d="M10.8831 22.7351C10.7697 22.7385 10.7541 22.7386 10.6601 22.8016C10.6116 22.8863 10.5815 22.9268 10.6142 23.0412C10.6946 23.3203 11.1525 24.1354 11.3743 24.2653C11.5233 24.2784 11.5576 24.2728 11.6578 24.1878C11.7951 23.8725 11.1089 22.9396 10.8831 22.7351Z" fill="#E76E45"/>
<path d="M12.1953 22.8792C12.0738 22.9054 12.0292 22.9019 11.9507 22.9972C11.8112 23.3452 12.4072 23.9718 12.6629 24.163C12.8079 24.1501 12.8255 24.1375 12.9083 24.026C12.9785 23.7203 12.4425 23.0293 12.1953 22.8792Z" fill="#E76E45"/>
<path d="M9.77852 22.9429C9.63014 22.9255 9.5964 22.9386 9.49944 23.0124C9.35893 23.3457 9.87383 23.9494 10.0903 24.1641C10.2142 24.1611 10.2364 24.1704 10.3281 24.0976C10.4893 23.7843 9.98553 23.1475 9.77852 22.9429Z" fill="#E76E45"/>
<path d="M30.4982 21.8672C30.2756 21.9649 29.6634 22.06 29.3879 22.1336C28.0487 22.4911 27.335 23.8209 28.8591 24.5896C29.7828 25.0555 30.9067 25.0807 31.9032 24.7903C32.7253 24.5506 33.6614 23.7204 32.9745 22.8278C32.5474 22.2807 31.8083 22.0876 31.1618 21.9952C31.0282 21.9761 30.8248 21.948 30.7051 21.8826C30.5809 21.9113 30.6329 21.9106 30.4982 21.8672Z" fill="#F3966F"/>
<path d="M30.3224 22.6714C30.169 22.6926 30.2149 22.6659 30.1178 22.755C29.9985 23.078 30.6742 24.0291 30.942 24.1809C31.0535 24.1584 31.07 24.1612 31.158 24.0943C31.3224 23.7429 30.6141 22.8629 30.3224 22.6714Z" fill="#E76E45"/>
<path d="M31.6867 22.7791C31.5827 22.7948 31.5698 22.7915 31.4867 22.8509C31.3431 23.1955 31.9485 23.886 32.2076 24.0423C32.8814 23.901 31.9378 22.9318 31.6867 22.7791Z" fill="#E76E45"/>
<path d="M29.1058 22.8013C28.8615 22.8494 28.8402 22.9584 28.9325 23.1779C29.0706 23.506 29.3422 23.8785 29.6006 24.1093C29.6494 24.0881 29.7597 24.0429 29.7869 24.004C30.0187 23.6717 29.3131 22.952 29.1058 22.8013Z" fill="#E76E45"/>
<path d="M30.0926 5.54383C29.3362 5.48944 28.6792 6.06766 28.6237 6.83655C28.5682 7.60545 29.1353 8.27494 29.8914 8.33332C30.6503 8.3919 31.3117 7.81282 31.3674 7.04112C31.4231 6.26943 30.8518 5.59844 30.0926 5.54383Z" fill="#81461C"/>
<path d="M7.70873 9.63053C7.54463 9.62061 7.30028 9.60822 7.14731 9.65904C6.82369 9.76364 6.55641 9.99844 6.40771 10.3087C6.06967 11.0083 6.42015 11.5834 7.06084 11.8941C8.48633 11.9815 9.1208 10.2608 7.70873 9.63053Z" fill="#81461C"/>
<path d="M40.158 20.4096C40.1968 20.7991 40.2053 21.191 40.1836 21.5819C40.1532 22.0566 39.9934 23.1298 40.1042 23.5537L40.167 23.564C40.7916 23.1446 40.7841 20.9451 40.6049 20.2886C40.4748 20.3786 40.3138 20.4141 40.158 20.4096Z" fill="#F6E7C3"/>
<path d="M40.6077 20.2886C40.5421 19.8037 40.4155 18.9712 40.0904 18.5823L40.0145 18.5464C39.8083 18.7372 40.095 20.0945 40.1608 20.4096C40.3166 20.4141 40.4776 20.3786 40.6077 20.2886Z" fill="#F9F8F6"/>
</g>
<defs>
<clipPath id="clip0_1_7276">
<rect width="42.2" height="42.5" fill="white" transform="matrix(-1 0 0 1 42.2 0)"/>
</clipPath>
</defs>
</svg>
