<svg width="43" height="43" viewBox="0 0 43 43" fill="none" xmlns="http://www.w3.org/2000/svg">
<g clip-path="url(#clip0_1_7228)">
<path d="M22.2054 0H18.6522C18.4055 0.124592 17.1616 0.229744 16.7671 0.313191C15.7741 0.525106 14.797 0.80867 13.8434 1.16174C12.252 1.74286 11.0857 2.46699 9.69013 3.41897C7.17213 5.13641 5.22147 7.01409 3.57735 9.60709C1.75927 12.4746 0.490467 15.0781 0.167118 18.5416C0.13102 18.9661 0.100208 19.3912 0.0746918 19.8165C0.0597534 20.0853 0.058506 20.4431 0 20.693V23.0201C0.0594406 23.3024 0.052906 23.6045 0.0768661 23.8948C0.103943 24.2242 0.138489 24.5498 0.172409 24.8784C0.303741 26.0599 0.54306 27.2262 0.887569 28.3623C1.8713 31.5148 4.0311 34.922 6.46662 37.1532C7.37069 37.9814 8.57195 38.6474 9.64127 39.2237C11.54 40.2469 13.4814 40.8466 15.555 41.3848C16.7131 41.6855 17.9349 42.1153 19.124 42.2777C20.1855 42.4229 21.7325 42.4334 22.8061 42.3135C23.929 42.1882 25.2159 41.7604 26.2957 41.4353C27.64 41.0331 28.9796 40.6145 30.3142 40.1799C31.379 39.8336 32.3518 39.4029 33.3055 38.7908C34.6801 37.9087 35.7287 36.649 36.8759 35.4973C37.0269 35.346 37.2143 35.1554 37.3463 34.9902C38.7233 33.267 40.0977 31.3925 40.6428 29.2035C40.8263 28.4667 40.9253 27.7157 41.111 26.9797C41.4448 25.8287 41.8836 24.7133 42.0022 23.5084C42.0251 23.2758 42.1022 22.6166 42.2 22.4465V20.6509C42.0878 20.4531 41.9778 19.3078 41.9374 19.0252C41.8682 18.5407 41.7694 18.1489 41.6544 17.6696C41.1906 15.7986 40.564 13.9735 39.7819 12.216C38.5254 9.43649 36.8974 6.93781 34.5411 5.00333C34.0184 4.57414 33.477 4.21977 32.9159 3.8479C31.4256 2.84495 29.8223 2.02822 28.1406 1.4153C26.4219 0.799241 24.5419 0.32464 22.7378 0.0962216C22.5605 0.0737654 22.3705 0.0705389 22.2054 0Z" fill="#5E2205"/>
<path d="M29.6036 2.93558C29.5992 2.93238 29.5948 2.92918 29.5903 2.92598C27.2202 1.76771 24.6265 1.04674 22.008 0.81032C21.5036 0.764778 20.9636 0.687 20.4585 0.702113C18.8736 0.749535 17.283 1.01439 15.7398 1.36088C14.4577 1.72724 13.2823 2.13152 12.1177 2.80622C11.963 2.89583 11.5631 3.12465 11.4349 3.2423C11.3924 3.26869 11.1582 3.41037 11.1337 3.43181C10.7448 3.64976 10.3791 3.93299 10.0088 4.18478C7.64856 5.79008 5.45951 7.88248 4.01955 10.3939C3.78147 10.8093 3.29816 11.4387 3.2798 11.9064C3.24993 12.6545 2.85967 12.3638 2.55624 12.9469C1.83641 14.3558 1.35497 15.8783 1.13214 17.4504C1.03847 17.8176 1.00268 18.2921 0.947906 18.6715C0.734108 20.1575 0.717304 21.6511 0.781101 23.1489C0.78857 23.322 0.79604 23.9395 0.835564 24.0757C1.18754 27.379 2.02501 29.9341 3.85243 32.6981C4.54674 33.7482 4.93886 34.3537 5.80122 35.3115C6.45974 36.0429 6.95861 36.4343 7.65261 37.0711C8.30023 37.5799 10.3791 38.7147 11.1097 39.0039C11.3382 39.1346 12.9354 39.8508 13.1257 39.8676C13.3625 39.9678 13.97 40.1054 14.2614 40.1863C16.5942 40.8311 19.1694 41.7817 21.6098 41.6602C23.7192 41.5549 25.7784 40.7861 27.762 40.1375C29.4816 39.558 31.4999 39.1019 33.0048 38.0337C34.191 37.192 35.5771 35.779 36.5633 34.6857C37.9394 33.1602 39.1293 31.1555 39.8074 29.2154C39.9605 28.7771 40.091 28.308 40.16 27.8472C40.2083 27.6201 40.1691 27.1357 40.2411 26.9369C40.4663 26.3147 40.6708 25.8529 40.8045 25.1968C40.9116 24.858 41.0073 24.5156 41.0915 24.1702C41.5912 22.0813 41.4157 20.0728 40.9374 18.0005C40.5314 16.2417 39.8887 14.551 39.1932 12.8889C39.054 12.5563 38.884 12.1261 38.7048 11.827C36.8985 7.64092 33.6429 4.76773 29.6036 2.93558Z" fill="#F2C25D"/>
<path d="M2.13297 23.7661C1.6506 23.9629 1.35992 24.0473 0.834602 24.0757C1.18658 27.379 2.02404 29.934 3.85147 32.698C4.54578 33.7481 4.9379 34.3536 5.80026 35.3114C6.45878 36.0428 6.95765 36.4342 7.65165 37.0711C8.29927 37.5798 10.3782 38.7146 11.1087 39.0039C11.3372 39.1345 12.9344 39.8507 13.1247 39.8675C13.3616 39.9677 13.9691 40.1054 14.2605 40.1862C16.5932 40.831 19.1684 41.7816 21.6088 41.6601C23.7182 41.5548 25.7775 40.786 27.761 40.1374C29.4806 39.5579 31.4989 39.1019 33.0039 38.0337C34.19 37.1919 35.5762 35.7789 36.5624 34.6857C37.9385 33.1601 39.1283 31.1554 39.8064 29.2153C39.9596 28.777 40.0901 28.3079 40.159 27.8471C40.2074 27.62 40.1681 27.1356 40.2401 26.9369C40.4654 26.3146 40.6698 25.8528 40.8035 25.1967C40.488 25.3129 39.9097 25.5975 39.7551 25.8919C39.4779 26.4195 39.4405 27.0775 39.1773 27.6436C38.6024 28.8801 37.968 30.157 37.185 31.2735C36.2856 32.5562 35.1657 33.8677 33.8823 34.7567C33.2952 35.143 32.3082 35.6042 31.654 35.9194C30.8708 36.2785 30.0858 36.6752 29.2814 36.981C28.7726 37.1745 28.2155 37.2598 27.7042 37.4678C27.2417 37.6559 26.8127 37.8957 26.3564 38.0936C25.3949 38.5129 24.387 38.812 23.3548 38.9842C22.5755 39.1237 21.7874 39.2056 20.9966 39.2297C19.5252 39.2693 18.0032 39.0746 16.5524 38.8843C15.2263 38.7105 14.4925 38.2423 13.6926 37.183C13.1238 36.4298 11.9455 35.6451 11.0606 35.3692C10.2222 35.1078 9.36143 34.9933 8.62542 34.4081C7.67685 33.6761 6.97974 32.7348 6.2344 31.8039C3.98497 29.0189 2.73827 27.3981 2.13297 23.7661Z" fill="#E09C3E"/>
<path d="M11.3631 37.0288C10.1246 36.495 8.85334 36.3514 7.65238 37.071C8.30001 37.5797 10.3789 38.7145 11.1095 39.0038C11.2159 38.7364 11.0626 38.0215 11.0234 37.7063C10.9506 37.1195 11.1455 37.3469 11.3631 37.0288Z" fill="#83471E"/>
<path d="M13.1245 39.8674C13.2237 38.4627 12.6258 37.5889 11.3621 37.0288C11.1445 37.3469 10.9496 37.1195 11.0224 37.7063C11.0616 38.0215 11.2149 38.7364 11.1085 39.0038C11.337 39.1345 12.9342 39.8506 13.1245 39.8674Z" fill="#6F3312"/>
<path d="M1.13146 17.4504C1.03779 17.8177 1.002 18.2921 0.947224 18.6716C0.733423 20.1576 0.716619 21.6512 0.780416 23.1489C0.787886 23.322 0.795355 23.9396 0.834878 24.0758C1.3602 24.0475 1.65087 23.963 2.13325 23.7662C4.08733 22.7048 4.47385 19.7028 2.90411 18.1211C2.19829 17.4101 2.00969 17.6275 1.17036 17.5283L1.13146 17.4504Z" fill="#83471E"/>
<path d="M15.7393 1.36084C14.4572 1.7272 13.2817 2.13149 12.1172 2.80618C11.9625 2.89579 11.5625 3.12461 11.4343 3.24226C11.5721 3.6679 11.6352 3.96876 11.8825 4.35221C12.7099 5.63457 13.792 5.45226 15.0369 5.08124C15.3971 4.95463 15.997 4.53061 16.2079 4.22598C16.929 3.18428 16.6593 2.10663 15.7393 1.36084Z" fill="#83471E"/>
<path d="M29.6028 2.93555L29.559 3.06004C29.6945 3.32429 29.8177 3.47998 29.5882 3.74812L29.5222 3.83889L29.5292 3.88354C31.1342 4.44905 32.5161 5.49337 33.8327 6.54068C34.1752 6.81313 34.9686 6.87776 35.0921 7.41523C35.3638 7.48758 35.499 7.8715 35.2563 8.09542C36.1653 8.27846 37.757 12.8149 38.7497 12.5731C38.8563 12.4325 38.6963 12.0466 38.704 11.8269C36.8977 7.64089 33.6421 4.7677 29.6028 2.93555Z" fill="#F4D79A"/>
<path d="M11.4343 3.24219C11.3919 3.26858 11.1577 3.41025 11.1332 3.43169C11.2387 3.7638 11.0517 4.36745 11.1816 4.7569C11.6522 6.16704 13.3679 6.77638 14.5402 5.83916C14.7261 5.69 15.0774 5.33192 15.0369 5.08117C13.792 5.45219 12.71 5.63449 11.8825 4.35214C11.6352 3.96868 11.5721 3.66782 11.4343 3.24219Z" fill="#E09C3E"/>
<path d="M29.5882 3.74814C29.3105 3.60859 28.2825 3.16069 28.0159 3.21267L27.9933 3.25289C28.1512 3.38029 29.3441 3.85226 29.5292 3.88357L29.5222 3.83891L29.5882 3.74814Z" fill="#F4D79A"/>
<path d="M35.2561 8.09547C35.4989 7.87156 35.3637 7.48763 35.0919 7.41528C34.8277 7.67942 34.9363 7.95859 35.2561 8.09547Z" fill="#F6E8C8"/>
<path d="M28.915 15.6077C27.2854 15.4747 25.8591 16.7144 25.7308 18.3753C25.6025 20.0363 26.8209 21.4882 28.4509 21.6167C30.0777 21.7449 31.499 20.5062 31.627 18.8484C31.7551 17.1907 30.5415 15.7405 28.915 15.6077Z" fill="#5E2205"/>
<path d="M29.7662 16.4402C29.1096 16.3774 28.5277 16.8699 28.4678 17.5392C28.4079 18.2086 28.8927 18.8003 29.5496 18.8595C30.2041 18.9186 30.782 18.4268 30.8417 17.7599C30.9014 17.0931 30.4203 16.5028 29.7662 16.4402Z" fill="#FBFAF9"/>
<path d="M27.8086 19.0825C27.4939 18.9836 27.1598 19.1618 27.0604 19.4817C26.9609 19.8016 27.1332 20.1434 27.4464 20.2473C27.7629 20.3522 28.1028 20.1743 28.2033 19.8508C28.3039 19.5274 28.1266 19.1825 27.8086 19.0825Z" fill="#FBFAF9"/>
<path d="M13.27 15.6121C11.6384 15.4912 10.2213 16.7452 10.1099 18.4085C9.99883 20.0718 11.2354 21.5104 12.8679 21.6165C14.4903 21.7221 15.8912 20.4712 16.0019 18.8183C16.1126 17.1653 14.8914 15.7321 13.27 15.6121Z" fill="#5E2205"/>
<path d="M14.1717 16.4454C13.5195 16.3587 12.9223 16.8282 12.8389 17.4931C12.7557 18.1579 13.218 18.7653 13.8706 18.8484C14.5207 18.9312 15.1139 18.4622 15.1969 17.7999C15.2799 17.1376 14.8213 16.5317 14.1717 16.4454Z" fill="#FBFAF9"/>
<path d="M12.1609 19.077C11.8357 18.9844 11.4987 19.1792 11.4098 19.5111C11.3208 19.8431 11.514 20.1854 11.8402 20.2741C12.1637 20.3619 12.4962 20.1671 12.5844 19.838C12.6726 19.5088 12.4834 19.1689 12.1609 19.077Z" fill="#FBFAF9"/>
<path d="M28.1726 34.772C28.3362 34.439 28.5356 34.0685 28.5483 33.6952C28.607 31.9737 26.6701 30.7711 25.1579 31.3003C24.4917 31.5331 23.9451 32.0288 23.6409 32.6762C23.035 33.9613 23.3613 35.4564 24.7019 36.0644C25.1631 36.6401 25.8167 36.7796 26.5212 36.7029C27.3185 36.616 28.2994 35.6255 28.1726 34.772Z" fill="#83471E"/>
<path d="M28.1727 34.772C27.3979 35.5842 26.8369 36.0955 25.6274 36.1367C25.2838 36.1485 24.9906 36.0711 24.702 36.0644C25.1632 36.6401 25.8168 36.7796 26.5213 36.7029C27.3186 36.616 28.2995 35.6255 28.1727 34.772Z" fill="#E09C3E"/>
<path d="M37.231 15.3819C37.8056 14.4419 38.1985 13.5707 37.8252 12.4879C37.5719 11.7534 37.1215 11.3544 36.4694 10.9814C35.9388 10.678 35.2028 10.6842 34.6386 10.8722C33.0822 11.4143 32.9546 12.5119 33.4343 13.9411C33.3182 14.25 33.3816 14.5629 33.5169 14.873C34.0226 16.0322 35.229 16.8366 36.4715 16.335C36.7641 16.2169 37.252 15.7368 37.231 15.3819Z" fill="#83471E"/>
<path d="M37.2316 15.382C37.0757 15.5215 36.9018 15.6384 36.7147 15.7297C36.2172 15.9676 35.7147 15.9095 35.2136 15.7123C34.3545 15.3743 33.8163 14.7682 33.4349 13.9412C33.3188 14.2501 33.3822 14.563 33.5174 14.8731C34.0231 16.0323 35.2296 16.8367 36.4721 16.3351C36.7646 16.217 37.2526 15.7369 37.2316 15.382Z" fill="#E09C3E"/>
<path d="M14.4934 33.0269C14.8947 32.4392 15.2177 31.8655 15.0814 31.1172C14.9491 30.3931 14.4699 29.8512 13.8889 29.43C13.0308 28.8079 11.4636 28.4388 10.7447 29.4595C9.97543 30.5515 10.0747 32.4675 11.2145 33.2747C11.2365 33.3501 11.2578 33.419 11.3012 33.4853C11.5601 33.8881 11.9672 34.1678 12.4307 34.2614C13.1999 34.4171 13.9698 34.0695 14.3477 33.3654C14.4125 33.2445 14.4685 33.169 14.4934 33.0269Z" fill="#83471E"/>
<path d="M14.4947 33.0269C12.9741 33.7614 12.7954 33.8004 11.2158 33.2746C11.2378 33.35 11.2591 33.4189 11.3025 33.4852C11.5614 33.888 11.9685 34.1677 12.432 34.2613C13.2012 34.417 13.9711 34.0694 14.349 33.3653C14.4138 33.2444 14.4698 33.1689 14.4947 33.0269Z" fill="#E09C3E"/>
<path d="M22.5573 10.3789C22.6273 10.3228 22.6953 10.264 22.7612 10.2027C23.6528 9.36279 23.81 8.01881 22.9605 7.08533C21.8715 5.88877 19.358 6.12702 18.9251 7.86134C18.8558 8.1393 18.8545 8.36224 18.8538 8.64502C18.8165 8.73611 18.8193 8.7141 18.7611 8.77997C18.2251 9.38645 18.5373 10.1885 18.9992 10.7281C19.8127 11.6783 21.0455 12.0281 22.0437 11.1312C22.1953 10.995 22.5342 10.5829 22.5573 10.3789Z" fill="#83471E"/>
<path d="M18.8535 8.64502C18.8162 8.73611 18.8189 8.7141 18.7607 8.77997C18.2248 9.38645 18.5369 10.1885 18.9989 10.7281C19.8124 11.6783 21.0452 12.0281 22.0433 11.1312C22.195 10.995 22.5339 10.5829 22.5569 10.3789C22.2458 10.4244 21.883 10.6047 21.528 10.6511C20.0929 10.8389 19.0666 10.1257 18.8535 8.64502Z" fill="#E09C3E"/>
<path d="M34.2415 24.998C30.8947 24.8007 30.655 29.0945 33.7158 29.6796C34.3472 29.7107 34.7531 29.7261 35.3275 29.3983C36.4209 28.7742 36.6221 27.4143 36.0165 26.3586C35.6669 25.7492 34.9281 25.1709 34.2415 24.998Z" fill="#83471E"/>
<path d="M21.1671 20.3672C18.7361 20.1381 18.3134 25.157 20.7077 25.8042C23.1892 26.0291 23.5941 20.9507 21.1671 20.3672Z" fill="#5E2205"/>
<path d="M11.3209 21.865C10.5466 21.73 9.34155 21.9476 8.73656 22.4442C8.22337 22.8653 8.05221 23.4467 8.49506 23.9938C8.946 24.5504 9.80276 24.7828 10.4803 24.8473C11.061 25.0127 12.5671 24.6529 13.0048 24.2345C14.487 22.8174 12.4581 21.9871 11.3209 21.865Z" fill="#F69973"/>
<path d="M10.7965 22.5118C10.6602 22.5093 10.6406 22.5011 10.5528 22.6014C10.4501 22.9317 11.1093 23.9081 11.3786 24.0796C11.476 24.0615 11.4882 24.0532 11.5721 23.9986C11.7871 23.6904 11.0318 22.713 10.7965 22.5118Z" fill="#EC6D48"/>
<path d="M12.0879 22.678C11.9905 22.7025 11.9767 22.7062 11.8953 22.7652C11.7183 23.136 12.3397 23.7408 12.6106 23.9328C12.6567 23.9262 12.7125 23.9133 12.7591 23.9041C13.1085 23.6233 12.3216 22.7879 12.0879 22.678Z" fill="#EC6D48"/>
<path d="M9.64971 22.6985C9.54919 22.6987 9.53426 22.698 9.44494 22.7438C9.21589 23.0553 9.78416 23.7581 10.0188 23.9355C10.1716 23.9253 10.1722 23.9297 10.2703 23.8499C10.4237 23.5145 9.88094 22.9237 9.64971 22.6985Z" fill="#EC6D48"/>
<path d="M30.7244 21.7395C30.0094 21.6691 29.0033 21.914 28.4342 22.3545C27.9129 22.758 27.7371 23.4117 28.1984 23.9395C28.7221 24.5387 29.586 24.705 30.3353 24.7583C31.1331 24.8138 32.1031 24.6309 32.7402 24.1125C33.2088 23.7312 33.3417 23.0714 32.9089 22.601C32.3337 21.9759 31.5273 21.7988 30.7244 21.7395Z" fill="#F69973"/>
<path d="M30.3236 22.4862C30.2228 22.4791 30.2071 22.4813 30.1086 22.5054C30.0563 22.5559 30.0299 22.5649 30.0327 22.6559C30.0418 22.9518 30.6801 23.8233 30.8601 23.9693C30.9698 23.9591 31.0071 23.9638 31.1033 23.9054C31.3075 23.5691 30.5672 22.6987 30.3236 22.4862Z" fill="#EC6D48"/>
<path d="M31.6184 22.5769C31.4841 22.6239 31.4801 22.618 31.4073 22.7144C31.3418 23.0329 31.9094 23.7015 32.1624 23.864C32.2234 23.8403 32.309 23.8095 32.3469 23.7577C32.5818 23.4358 31.8152 22.726 31.6184 22.5769Z" fill="#EC6D48"/>
<path d="M29.1111 22.6112C28.9483 22.6115 28.8934 22.5881 28.8118 22.7439C28.8155 23.0612 29.2818 23.6433 29.5 23.8661C29.6608 23.863 29.7305 23.8145 29.7906 23.6741C29.7872 23.3396 29.3404 22.8449 29.1111 22.6112Z" fill="#EC6D48"/>
<path d="M30.143 5.06107C29.3796 4.92513 28.6531 5.44759 28.5228 6.22626C28.3926 7.00493 28.9082 7.7432 29.6728 7.87273C30.4329 8.00149 31.1522 7.4797 31.2817 6.70556C31.4112 5.9314 30.9021 5.19621 30.143 5.06107Z" fill="#83471E"/>
<path d="M7.56403 9.17243C7.32004 9.16259 7.16163 9.14943 6.93663 9.23576C6.11161 9.55255 5.77395 10.7235 6.56753 11.2835C6.68673 11.3676 6.77386 11.4088 6.90551 11.4663C8.09588 11.6255 9.07588 10.0742 7.56403 9.17243Z" fill="#83471E"/>
<path d="M40.0955 20.1715C40.1458 20.7223 40.1472 21.173 40.0899 21.7194C40.0576 22.0283 39.921 23.1587 40.073 23.3699C40.8186 23.1335 40.6444 20.504 40.5347 19.8816C40.5137 20.0065 40.5282 20.0389 40.4192 20.1152C40.3337 20.1751 40.1924 20.2109 40.0955 20.1715Z" fill="#F6E8C8"/>
<path d="M40.535 19.8815C40.4183 19.1706 40.3393 18.724 39.8997 18.1211C39.8714 18.9957 39.9436 19.3174 40.0958 20.1714C40.1926 20.2108 40.334 20.175 40.4195 20.1151C40.5285 20.0388 40.5139 20.0064 40.535 19.8815Z" fill="#FBFAF9"/>
</g>
<defs>
<clipPath id="clip0_1_7228">
<rect width="42.2" height="42.5" fill="white" transform="matrix(-1 0 0 1 42.2 0)"/>
</clipPath>
</defs>
</svg>
