<svg width="43" height="43" viewBox="0 0 43 43" fill="none" xmlns="http://www.w3.org/2000/svg">
<g clip-path="url(#clip0_1_7200)">
<path d="M21.9586 0H18.5917C18.2775 0.297788 17.6736 -0.0527656 17.3146 0.22046C17.2272 0.248614 17.0673 0.27038 16.9825 0.283708C14.0592 0.743744 11.3916 2.08048 9.05402 3.89741C8.89375 4.02202 8.70702 4.14134 8.53741 4.25457C7.76872 4.76685 7.15253 5.46138 6.4576 6.06821C5.90831 6.54779 5.41567 7.13099 4.94076 7.68543C4.50196 8.21024 4.15589 8.77406 3.78991 9.35035C2.17411 11.7824 0.74379 14.3921 0.344818 17.3456C0.288799 17.7593 0.194817 18.1772 0.154671 18.5927C0.127594 18.8728 0.234028 19.2698 0 19.4836V24.511C0.00342178 24.5158 0.00684357 24.5204 0.0102692 24.5253C0.156849 24.7474 0.270752 26.1166 0.34824 26.5022C0.513493 27.322 0.769623 28.1083 1.05593 28.8911C1.38084 29.7793 1.71974 30.6635 2.15046 31.5052C3.17776 33.5132 5.16421 36.2341 6.89578 37.6122C8.7232 39.0664 11.6716 40.3569 13.8995 41.0502C14.3613 41.1939 14.8354 41.2837 15.3004 41.4134C15.9188 41.5859 16.5323 41.7788 17.1587 41.9202C17.4567 41.9875 19.2884 42.389 19.4122 42.4908C19.4161 42.494 19.4201 42.4968 19.424 42.5H22.6212C22.692 42.4385 24.4963 42.0842 24.7678 42.0122C26.2799 41.6129 27.7679 41.1092 29.2523 40.6154C29.9883 40.3706 30.7496 40.1622 31.4689 39.8704C32.4192 39.4854 33.3164 38.9766 34.1382 38.3562C34.7405 37.9052 35.2937 37.3106 35.823 36.7746C37.1858 35.4098 38.3777 33.9873 39.3724 32.3174C39.8726 31.4778 40.168 30.8943 40.4969 29.9593C40.8529 28.9476 40.9655 27.9389 41.2578 26.9188C41.5522 25.8916 41.9777 24.9235 42.058 23.8363C42.0707 23.68 42.0834 23.6883 42.2 23.6021V19.9968C42.1799 19.972 42.1525 19.941 42.1469 19.9083C41.8664 18.2683 41.5733 16.6435 40.9635 15.0904C40.8331 14.7311 40.7312 14.3462 40.5936 13.9909C39.6242 11.4882 38.3802 9.12989 36.6911 7.0518C35.5322 5.62602 34.2764 4.68864 32.7638 3.68998C30.9784 2.5225 29.0379 1.62214 27.0016 1.01642C26.3594 0.828712 25.2242 0.504418 24.5879 0.389246C23.9519 0.277891 23.3135 0.181084 22.6732 0.0988962C22.4988 0.0771346 22.0673 0.0998623 21.9586 0Z" fill="#5E2209"/>
<path d="M40.8527 25.2922C42.0825 21.5053 41.1786 17.9682 39.8249 14.393C39.4454 13.3905 39.0402 12.409 38.5535 11.4543C38.3911 11.1358 38.2692 10.7985 38.0918 10.4832C36.598 7.82748 34.4364 5.6256 31.8299 4.10439C28.5092 2.13567 24.5187 0.80902 20.6287 0.740408C19.2068 0.71533 17.1678 1.03206 15.7989 1.40066C14.7628 1.62121 12.2247 2.59581 11.4504 3.27234L11.1609 3.46029C8.40338 5.17504 5.79047 7.45631 4.12487 10.3035C3.7035 11.0239 3.31573 11.4599 3.23077 12.3114C3.2121 12.4991 2.65628 12.7353 2.59528 12.9537C1.89444 14.3098 1.32741 16.048 1.15002 17.5725C1.05946 17.8907 1.02585 18.3802 0.975433 18.717C0.751675 20.2147 0.741714 21.7081 0.804581 23.2183C0.810802 23.3716 0.826675 24.0307 0.862778 24.1598C1.22409 27.5303 2.10948 30.1543 4.01159 32.9581C4.61596 33.8493 4.92437 34.3695 5.67532 35.2097C6.38643 36.0054 6.92981 36.4764 7.71592 37.1681C7.75669 37.1821 8.23751 37.4882 8.29446 37.5265C9.16367 38.1095 10.1969 38.6912 11.1594 39.0918C11.4549 39.2522 12.9012 39.9043 13.1823 39.9234C13.3627 40.0093 14.4444 40.3027 14.6868 40.3728C16.0517 40.768 17.3657 41.1723 18.7601 41.4521C19.9884 41.6985 20.9351 41.8238 22.1902 41.6934C24.1581 41.4889 25.9188 40.8485 27.7797 40.2288C29.6121 39.6186 31.4224 39.2158 33.0559 38.1111C33.8591 37.5681 34.3837 37.0093 35.0676 36.36C37.1577 34.3762 38.9506 32.0111 39.8789 29.2304C40.0279 28.7841 40.1285 28.4738 40.1842 28.005C40.2078 27.8062 40.2599 27.0895 40.3135 26.9373C40.5283 26.3282 40.7189 25.9421 40.8527 25.2922Z" fill="#F4C25F"/>
<path d="M2.13815 23.843C1.69001 24.0237 1.35141 24.1253 0.862194 24.1597C1.22351 27.5302 2.1089 30.1542 4.01101 32.958C4.61538 33.8493 4.92379 34.3694 5.67474 35.2096C6.38585 36.0053 6.92923 36.4763 7.71534 37.1681C7.75611 37.182 8.23693 37.4881 8.29388 37.5265C9.16308 38.1094 10.1963 38.6911 11.1588 39.0917C11.4544 39.2522 12.9006 39.9042 13.1818 39.9233C13.3621 40.0092 14.4438 40.3026 14.6862 40.3727C16.0511 40.7679 17.3651 41.1723 18.7595 41.452C19.9879 41.6984 20.9345 41.8237 22.1896 41.6934C24.1575 41.4888 25.9182 40.8484 27.7791 40.2287C29.6116 39.6185 31.4218 39.2157 33.0553 38.111C33.8585 37.568 34.3832 37.0092 35.067 36.3599C37.1572 34.3761 38.95 32.011 39.8784 29.2303C40.0273 28.7841 40.128 28.4737 40.1836 28.0049C40.2073 27.8061 40.2593 27.0894 40.3129 26.9372C40.5277 26.3281 40.7184 25.942 40.8521 25.2921C40.8134 25.2929 40.774 25.2963 40.7373 25.3096C40.3923 25.4346 40.005 25.6758 39.8012 25.9905C39.5818 26.3293 39.4893 27.0367 39.3359 27.4614C39.1374 28.0107 38.8658 28.5459 38.598 29.0638C37.5335 31.1227 35.9411 33.4899 34.0226 34.789C33.2705 35.2981 32.4045 35.6812 31.5868 36.0685C30.8689 36.4085 30.1397 36.7719 29.3972 37.0507C28.8618 37.2515 28.2981 37.3695 27.7595 37.5629C27.3893 37.6961 27.0414 37.8953 26.6854 38.0628C26.1717 38.3045 25.6315 38.5205 25.0909 38.6898C24.195 38.9702 23.245 39.1481 22.3122 39.2347C20.6092 39.3933 16.3314 39.2908 14.9334 38.4297C13.9786 37.8414 13.5238 36.7424 12.435 36.103C12.0229 35.861 11.5565 35.5924 11.104 35.4446C10.4518 35.2311 9.81569 35.1601 9.20074 34.8233C8.7249 34.5622 8.28485 34.1855 7.90051 33.8007C7.20651 33.1061 6.60836 32.2936 6.00182 31.5207C5.22846 30.5352 4.44857 29.5766 3.79161 28.5026C3.50436 28.0336 3.25975 27.5287 3.04035 27.0237C2.7559 26.3684 2.55299 25.6675 2.39397 24.9706C2.31118 24.6076 2.25361 24.2312 2.1478 23.8748L2.13815 23.843Z" fill="#E39D41"/>
<path d="M11.3863 37.0931C10.1947 36.6282 8.84968 36.3982 7.71625 37.1683C7.75702 37.1822 8.23784 37.4883 8.29479 37.5267C9.164 38.1096 10.1972 38.6913 11.1598 39.0919C11.3011 38.7075 11.1054 37.8803 11.0216 37.4575C11.1557 37.3329 11.3032 37.2603 11.3863 37.0931Z" fill="#83461F"/>
<path d="M11.3852 37.093C11.3021 37.2602 11.1547 37.3328 11.0206 37.4574C11.1043 37.8802 11.3 38.7074 11.1587 39.0918C11.4542 39.2523 12.9005 39.9044 13.1816 39.9234C13.2258 39.5891 13.1402 38.9548 13.0188 38.6484C12.7142 37.8793 12.0976 37.4162 11.3852 37.093Z" fill="#713515"/>
<path d="M1.14988 17.5725C1.05932 17.8907 1.02571 18.3802 0.975291 18.717C0.751531 20.2148 0.741573 21.7081 0.804437 23.2183C0.810661 23.3716 0.826533 24.0307 0.862633 24.1598C1.35185 24.1254 1.69045 24.0238 2.13859 23.8431C2.35208 23.7182 2.55188 23.5707 2.73487 23.403C4.16021 22.1117 4.32764 19.7616 3.04546 18.2902C2.39316 17.5419 2.04336 17.6176 1.14988 17.5725Z" fill="#83461F"/>
<path d="M15.7987 1.40063C14.7626 1.62119 12.2245 2.59579 11.4502 3.27231C11.5576 3.46813 11.5923 3.73207 11.6803 3.94254C12.3665 5.58266 13.677 5.5826 15.0883 5.10876C16.0029 4.66067 16.7097 4.06564 16.6412 2.93882C16.5963 2.19996 16.3108 1.87504 15.7987 1.40063Z" fill="#83461F"/>
<path d="M11.4498 3.27246L11.1603 3.46041C11.2281 3.63488 11.1818 4.11751 11.1755 4.32912C11.1537 5.06314 11.6849 5.74434 12.2999 6.06446C12.8219 6.33604 13.4282 6.38616 13.9863 6.20382C14.4513 6.05047 14.8354 5.71161 15.051 5.2646C15.0767 5.21119 15.0832 5.16714 15.0879 5.1089C13.6766 5.58275 12.3661 5.58281 11.6799 3.94269C11.5918 3.73222 11.5572 3.46828 11.4498 3.27246Z" fill="#E39D41"/>
<path d="M36.0573 15.961C37.3795 15.6582 38.242 14.3588 38.0257 12.9954C37.8095 11.632 36.5892 10.6757 35.2408 10.8129C33.8923 10.95 32.8816 12.1332 32.9339 13.5133C32.5683 14.0788 32.7339 14.8582 33.0111 15.4266C33.5197 16.4696 35.1279 16.9138 35.9902 16.0885C36.0011 16.078 36.0474 15.9821 36.0573 15.961Z" fill="#83461F"/>
<path d="M32.9331 13.5132C32.5674 14.0787 32.733 14.8581 33.0102 15.4265C33.5189 16.4695 35.127 16.9137 35.9893 16.0884C36.0002 16.0779 36.0465 15.9821 36.0564 15.9609C35.3137 16.131 34.5353 15.9559 33.9319 15.483C33.3285 15.0101 32.9625 14.2884 32.9331 13.5132Z" fill="#E39D41"/>
<path d="M28.2257 34.8692C28.3924 34.5229 28.5736 34.1686 28.6 33.7731C28.6638 32.7725 27.9673 31.9279 27.1082 31.505C25.8141 30.8681 24.3594 31.4334 23.7201 32.7192C23.0845 33.9977 23.4012 35.5797 24.7998 36.1547C24.8398 36.2178 24.8823 36.2835 24.9382 36.3336C26.0428 37.3263 27.8176 36.7345 28.174 35.2926C28.2127 35.136 28.2371 35.0351 28.2257 34.8692Z" fill="#83461F"/>
<path d="M28.2258 34.8694C27.2723 35.7549 26.8635 36.2624 25.3646 36.2138C25.1727 36.2078 24.9724 36.1663 24.7999 36.1548C24.8398 36.218 24.8824 36.2836 24.9383 36.3337C26.0428 37.3265 27.8176 36.7346 28.174 35.2928C28.2128 35.1361 28.2371 35.0353 28.2258 34.8694Z" fill="#E39D41"/>
<path d="M14.4955 33.1211C14.9071 32.6596 15.1999 32.0294 15.1612 31.4028C15.0712 29.9476 13.3183 28.8092 11.9849 28.8933C11.5837 28.9186 11.1405 29.0744 10.8779 29.4076C10.0383 30.5482 10.0336 32.2289 11.1188 33.2181C11.1612 33.2568 11.2193 33.3031 11.2673 33.3313C11.3067 33.6311 11.6569 33.9593 11.9062 34.1068C12.7583 34.6114 13.8872 34.3662 14.3805 33.4737C14.449 33.3497 14.5042 33.2701 14.4955 33.1211Z" fill="#83461F"/>
<path d="M14.4957 33.1211C13.5494 33.6203 12.9356 33.8855 11.8182 33.5528C11.6023 33.4884 11.4397 33.3904 11.2676 33.3314C11.3069 33.6311 11.6571 33.9594 11.9064 34.1068C12.7586 34.6114 13.8874 34.3663 14.3808 33.4738C14.4492 33.3498 14.5044 33.2702 14.4957 33.1211Z" fill="#E39D41"/>
<path d="M22.6103 10.4062C22.6582 10.375 22.7046 10.3416 22.7493 10.3059C23.2405 9.91027 23.4801 9.45879 23.5533 8.82082C23.8097 6.59226 21.0747 5.67179 19.5611 6.94641C19.0934 7.34033 18.9521 7.81994 18.9091 8.41247C18.8491 8.53616 18.9147 8.62592 18.867 8.72262C18.817 8.82237 18.6784 8.96173 18.6331 9.05844C18.5042 9.34801 18.5203 9.79334 18.6314 10.0866C19.0701 11.2444 20.4752 11.8687 21.613 11.4356C21.959 11.3039 22.6375 10.8131 22.6103 10.4062Z" fill="#83461F"/>
<path d="M18.9094 8.41235C18.8494 8.53605 18.915 8.6258 18.8673 8.72251C18.8173 8.82226 18.6787 8.96162 18.6334 9.05832C18.5045 9.34789 18.5206 9.79322 18.6317 10.0865C19.0704 11.2442 20.4755 11.8686 21.6133 11.4355C21.9593 11.3038 22.6378 10.8129 22.6106 10.4061C20.8462 11.102 18.9555 10.6383 18.9094 8.41235Z" fill="#E39D41"/>
<path d="M34.3423 25.0607C33.7239 25.0182 33.1903 25.1071 32.6451 25.4338C32.1762 25.718 31.8389 26.1821 31.7086 26.722C31.3327 28.2467 32.3061 29.3894 33.7173 29.736C34.1817 29.7872 34.726 29.7675 35.1655 29.5837C36.3024 29.1083 36.7128 27.7873 36.2165 26.6718C35.84 25.8258 35.1682 25.3859 34.3423 25.0607Z" fill="#83461F"/>
<path d="M14.0828 18.3443C12.9844 18.1755 11.3436 18.6114 10.6385 19.5256C10.448 19.4575 9.661 19.0695 9.63206 19.0767C8.4949 19.3553 10.0463 20.2448 10.2504 20.3701C10.3463 20.4289 10.1907 21.0752 10.6867 21.028C11.0425 20.9941 11.1871 20.5656 11.4211 20.3225L11.4501 20.2927C11.6202 20.1481 11.8055 20.0233 12.0027 19.9206C13.0895 19.3643 14.3595 19.4066 15.4861 19.8168C15.7357 19.9077 15.9797 20.1255 16.2388 20.2077C16.7961 20.3847 16.9511 19.8462 16.6541 19.4587C15.9771 18.7493 15.0271 18.4533 14.0828 18.3443Z" fill="#5E2209"/>
<path d="M28.5805 18.3438C27.8026 18.2686 27.0415 18.3504 26.2919 18.6552C25.8419 18.8401 24.7332 19.4124 24.9705 20.0548C25.1286 20.4826 25.8419 20.0763 26.0523 19.9091C26.1518 19.8299 26.635 19.7029 26.7705 19.6631C27.746 19.3766 28.6015 19.4951 29.5454 19.8367C30.285 20.1091 30.3922 20.5564 30.8529 20.9768C31.6057 21.1825 31.3203 20.4922 31.4694 20.3712C31.7183 20.1691 32.1826 19.9655 32.3978 19.6409C32.5719 19.3786 32.4268 19.2324 32.1964 19.0972C32.0354 19.0158 31.5961 19.3417 31.4321 19.4022C31.3255 19.4416 31.235 19.4757 31.1276 19.508C30.4903 18.786 29.5017 18.4559 28.5805 18.3438Z" fill="#5E2209"/>
<path d="M11.293 21.4202C8.81046 21.1103 7.45888 23.4101 10.543 23.8446C11.2589 23.9016 12.0189 23.8188 12.6252 23.3948C13.0562 23.0934 13.2575 22.5757 12.8938 22.1276C12.5057 21.6492 11.8733 21.4889 11.293 21.4202Z" fill="#F99B75"/>
<path d="M31.1008 21.4199C30.3504 21.3013 28.7351 21.5781 28.5724 22.5013C28.4163 23.387 29.6206 23.7276 30.2678 23.8271C31.0231 23.9026 31.8257 23.8227 32.4613 23.3645C32.8605 23.0752 33.0536 22.5662 32.7069 22.1481C32.3095 21.6691 31.6846 21.4957 31.1008 21.4199Z" fill="#F99B75"/>
<path d="M30.1173 5.08739C29.3561 4.99913 28.6668 5.55118 28.5711 6.32582C28.4753 7.10043 29.0087 7.80949 29.7675 7.91643C30.2666 7.98675 30.7643 7.77815 31.0704 7.37028C31.3765 6.96243 31.4438 6.41831 31.2465 5.94583C31.0492 5.47332 30.6179 5.14543 30.1173 5.08739Z" fill="#83461F"/>
<path d="M23.5689 21.6294C22.7022 21.7274 23.7287 22.6453 22.3153 23.1025C21.3244 22.9275 21.6015 22.5869 21.0099 22.1518C20.6017 22.1288 20.4427 22.78 20.0566 22.9686C19.5879 23.1977 19.0383 23.0474 18.7861 22.6094C18.6384 22.353 18.8206 21.7179 18.3579 21.6057C18.0148 21.6298 17.9796 22.0142 17.9703 22.2768C17.9988 22.68 18.1761 23.0572 18.4665 23.3325C19.2058 24.0422 20.2802 23.8657 20.9325 23.1256C21.0849 23.2735 21.1865 23.3724 21.3768 23.5051C22.4493 24.2526 24.0374 23.327 23.8507 22.0024C23.8269 21.8337 23.7185 21.7182 23.5689 21.6294Z" fill="#5E2209"/>
<path d="M7.59425 9.19856C6.11694 9.08181 5.56423 11.0631 6.99019 11.5128C8.22631 11.5983 9.0781 10.0397 7.59425 9.19856Z" fill="#83461F"/>
<path d="M40.5934 19.9243C40.5581 20.2414 40.4383 20.2198 40.1448 20.3017C40.1967 21.0661 40.166 21.7419 40.0682 22.4973C40.0409 22.7084 39.9826 23.2728 40.1922 23.3801C40.2627 23.3476 40.2767 23.3488 40.3222 23.2752C40.8357 22.4432 40.7193 20.8253 40.5934 19.9243Z" fill="#F8E9CD"/>
<path d="M40.5933 19.9243C40.4726 19.2645 40.3967 18.7367 39.9558 18.2046C39.8832 19.0067 40.0203 19.5167 40.1448 20.3017C40.4382 20.2197 40.558 20.2414 40.5933 19.9243Z" fill="#FEFEFD"/>
<path d="M35.1856 7.36572C35.1686 7.46113 35.1601 7.42722 35.0985 7.50106C34.7561 7.91099 35.3938 8.11934 35.5845 8.28369L35.6127 8.3083L35.6301 8.32375L35.6568 8.31607C35.5934 8.24325 35.5309 8.16967 35.4692 8.09533C35.6328 7.81213 35.4222 7.51653 35.1856 7.36572Z" fill="#F8E9CD"/>
</g>
<defs>
<clipPath id="clip0_1_7200">
<rect width="42.2" height="42.5" fill="white" transform="matrix(-1 0 0 1 42.2 0)"/>
</clipPath>
</defs>
</svg>
