<svg width="43" height="43" viewBox="0 0 43 43" fill="none" xmlns="http://www.w3.org/2000/svg">
<g clip-path="url(#clip0_1_7445)">
<path d="M-0.000808716 26.2564C0.0589409 26.35 0.190895 26.9966 0.223259 27.1356C0.559677 28.5945 1.05917 30.0093 1.71178 31.3523C2.45308 32.8721 3.75704 34.7948 4.86028 36.0517C6.68397 38.1291 9.49917 39.5247 12.0323 40.4689C13.1123 40.8717 14.3474 41.1387 15.454 41.4663C16.309 41.7191 17.1451 41.9675 18.0159 42.1489C21.1946 42.8612 24.0782 41.982 27.0766 40.9861C29.5482 40.1653 32.1104 39.5979 34.079 37.6997C36.6848 35.1782 39.2851 32.2854 40.0988 28.6049C40.2603 27.8747 40.3853 27.1655 40.6058 26.4526C41.0556 24.9985 41.3865 23.5393 41.5066 22.0167C41.5668 21.253 41.484 20.5478 41.378 19.7916C40.9456 16.7066 39.849 13.7135 38.4835 10.9365C37.4151 8.77175 35.9391 6.78088 34.1121 5.21707C33.5398 4.72721 32.8768 4.29317 32.2515 3.87331C30.677 2.81723 28.9745 1.97399 27.1869 1.36472C25.8526 0.915406 24.0638 0.424175 22.6874 0.222667C18.8893 -0.326013 15.0172 0.305309 11.5766 2.03419C9.37406 3.16362 6.52183 5.37537 4.93497 7.28958C2.90433 9.7391 0.936241 13.0271 0.256874 16.1837C0.177826 16.5511 0.114338 17.0968 -0.000808716 17.426V26.2564Z" fill="#5B2003"/>
<path d="M29.1069 3.01874C28.838 2.79742 27.4895 2.30709 27.1102 2.16521C24.756 1.29368 22.1122 0.756914 19.5996 0.792163C18.3676 0.809449 16.4871 1.08407 15.28 1.40423C13.9972 1.762 12.7584 2.26681 11.5872 2.909C11.4004 3.01381 11.1033 3.17033 10.9527 3.30829C10.8581 3.35859 10.7121 3.42687 10.6368 3.49656C7.97162 5.28457 5.54419 7.28724 3.83191 10.0799C3.35047 10.8649 2.96239 11.2904 2.91322 12.2501L2.88646 12.2756C2.71187 12.4397 2.44609 12.5527 2.35211 12.7003C1.57097 13.9274 1.03943 16.0229 0.789528 17.418C0.706745 17.7732 0.661308 18.2812 0.608093 18.6486C0.387756 20.1726 0.369083 21.683 0.417633 23.2197C0.422302 23.3686 0.433502 23.9452 0.479565 24.0342C0.936417 27.8135 1.80998 30.4551 4.00868 33.5767C4.9171 34.8663 5.7695 35.9187 7.01714 36.92C7.06849 36.9615 7.12139 37.0005 7.17585 37.0376C8.22743 37.7481 9.4147 38.4728 10.5799 38.9758C10.8074 39.0982 12.3904 39.7798 12.5974 39.8147C14.1314 40.1959 15.7169 40.7748 17.2555 41.1427C18.3062 41.3942 19.8072 41.6942 20.8564 41.6394C23.0646 41.5233 25.0705 40.8119 27.1454 40.117C28.9292 39.5194 30.6843 39.1312 32.3042 38.0827C33.3078 37.4331 34.0773 36.5926 34.913 35.7563C36.8964 33.7705 38.459 31.4664 39.272 28.7379C39.4725 28.0652 39.4855 27.4509 39.6457 26.8286C39.7854 26.2859 40.0227 25.7955 40.1597 25.1954C41.2265 21.6602 40.6978 18.719 39.4588 15.3273C39.0018 14.0763 38.6448 13.1387 38.0828 11.9199C37.3705 10.3592 36.9206 9.58056 35.8611 8.21542C33.9806 5.79235 31.8162 4.32328 29.1069 3.01874Z" fill="#EEC163"/>
<path d="M1.72472 23.717C1.26227 23.9647 0.572937 23.9288 0.490467 23.992L0.479576 24.0341C0.936432 27.8134 1.81 30.455 4.00869 33.5766C4.91711 34.8662 5.76951 35.9186 7.01715 36.9199C7.0685 36.9614 7.12141 37.0004 7.17587 37.0375C8.22744 37.748 9.41471 38.4727 10.5799 38.9757C10.8074 39.0981 12.3904 39.7797 12.5974 39.8146C14.1314 40.1958 15.7169 40.7747 17.2555 41.1426C18.3062 41.3941 19.8072 41.6941 20.8564 41.6393C23.0646 41.5232 25.0705 40.8118 27.1455 40.1169C28.9292 39.5193 30.6843 39.1311 32.3042 38.0826C33.3078 37.433 34.0773 36.5925 34.913 35.7562C36.8965 33.7704 38.459 31.4663 39.272 28.7378C39.4725 28.0651 39.4855 27.4508 39.6457 26.8285C39.7855 26.2858 40.0227 25.7954 40.1597 25.1953C39.7529 25.2255 39.326 25.4893 39.1041 25.8335C38.9397 26.0886 38.8533 26.5696 38.7618 26.8773C38.6846 27.1329 38.5925 27.3834 38.4857 27.6276C37.6127 29.6208 36.7035 31.2331 35.2589 32.877C34.6876 33.5478 34.0551 34.2202 33.306 34.6896C32.4635 35.2176 31.5171 35.6502 30.621 36.0772C29.9934 36.3762 29.3525 36.6753 28.7051 36.9233C28.2217 37.1083 27.7026 37.2174 27.2163 37.3966C26.7489 37.564 26.3094 37.8006 25.8598 38.0103C25.455 38.1961 25.0401 38.3579 24.617 38.4952C21.6517 39.4699 18.5122 39.2647 15.4827 38.7261C13.6887 38.407 13.4175 36.9944 12.0462 36.0787C11.5818 35.8161 11.1145 35.4904 10.607 35.3248C9.96711 35.1184 9.26564 35.0362 8.67497 34.6877C7.36944 33.9169 6.39567 32.5373 5.47044 31.3483C4.49822 30.0989 3.46936 28.7827 2.80089 27.343C2.44673 26.5837 2.17411 25.7878 1.98738 24.9689C1.9379 24.7458 1.82276 23.8512 1.72472 23.717Z" fill="#DD9C3F"/>
<path d="M10.867 36.9692C9.87579 36.5274 8.02876 36.1839 7.17543 37.0374C8.227 37.7478 9.41427 38.4725 10.5794 38.9756C10.7326 38.7526 10.4795 37.6485 10.4867 37.3618C10.492 37.1595 10.6694 37.1341 10.8443 36.9885L10.867 36.9692Z" fill="#81461D"/>
<path d="M12.5978 39.8145C12.6814 38.4092 12.1272 37.5528 10.8679 36.9692L10.8451 36.9886C10.6702 37.1342 10.4928 37.1595 10.4876 37.3619C10.4804 37.6486 10.7334 38.7527 10.5803 38.9756C10.8078 39.098 12.3908 39.7796 12.5978 39.8145Z" fill="#6D3311"/>
<path d="M0.788897 17.418C0.706115 17.7732 0.66068 18.2812 0.607463 18.6486C0.387127 20.1726 0.368454 21.683 0.417003 23.2197C0.421671 23.3686 0.432874 23.9452 0.478933 24.0342L0.489825 23.9921C0.572295 23.9289 1.26163 23.9648 1.72408 23.7171C2.95025 23.131 3.72205 21.416 3.52069 20.0777C3.36571 19.0476 2.74796 17.7459 1.64659 17.5114C1.45613 17.4709 0.879459 17.4883 0.788897 17.418Z" fill="#81461D"/>
<path d="M15.2796 1.40405C13.9968 1.76182 12.7579 2.26663 11.5867 2.90882C11.3999 3.01363 11.1029 3.17015 10.9523 3.30811C11.0693 3.50367 11.1349 3.83264 11.2192 4.05538C11.4534 4.66833 11.9552 5.13447 12.5758 5.31535C13.2173 5.49765 13.9301 5.34589 14.5439 5.11753C15.0782 4.99771 15.8449 4.25513 16.0072 3.72772C16.185 3.22083 16.1498 2.8035 15.9756 2.30887C15.8597 1.97954 15.3574 1.61758 15.2796 1.40405Z" fill="#81461D"/>
<path d="M38.0826 11.9197C37.3703 10.359 36.9204 9.58037 35.8609 8.21524C33.9804 5.79217 31.816 4.32309 29.1067 3.01855C29.0795 3.04639 29.0231 3.08581 29.0325 3.12245C29.0922 3.35343 29.3313 3.63853 29.0563 3.83907C29.0035 3.87183 28.9989 3.86875 28.9657 3.92033C30.6867 4.62145 31.9365 5.5194 33.3828 6.67616C33.7931 7.00427 34.2182 6.73272 34.4784 7.4247C34.3207 7.69375 34.3019 7.88846 34.5449 8.11828C34.7533 8.12507 34.8558 8.22072 34.9924 8.37109C35.4354 8.8586 35.8133 9.58107 36.152 10.1538C36.4082 10.5871 37.4028 12.5516 37.869 12.5641C37.9326 12.5657 37.9843 12.5461 38.0318 12.5014C38.1121 12.4259 38.1227 12.3127 38.1169 12.2089C38.1114 12.1117 38.1022 12.0151 38.0826 11.9197Z" fill="#F1D89D"/>
<path d="M34.4783 7.4248C34.3206 7.69386 34.3019 7.88856 34.5449 8.11838L34.6679 8.09221C34.8875 7.89858 34.6952 7.52106 34.4783 7.4248Z" fill="#F4E4C0"/>
<path d="M10.9525 3.30811C10.8579 3.35841 10.7119 3.42669 10.6366 3.49637C10.6528 3.51705 10.669 3.53773 10.6851 3.55841C10.6711 3.89562 10.6133 4.23131 10.6655 4.56845C10.7561 5.15191 11.1528 5.70492 11.6528 5.99896C12.1224 6.27514 12.7242 6.38555 13.2596 6.27638C13.7074 6.1851 14.0948 5.90882 14.3732 5.54303C14.486 5.39492 14.5478 5.31404 14.5441 5.11753C13.9303 5.34589 13.2176 5.49765 12.576 5.31534C11.9555 5.13446 11.4536 4.66833 11.2194 4.05538C11.1351 3.83263 11.0695 3.50367 10.9525 3.30811Z" fill="#DD9C3F"/>
<path d="M29.0562 3.83915C28.866 3.66902 27.7747 3.23407 27.5226 3.29395C27.5854 3.42636 28.7763 3.87734 28.9657 3.92041C28.9988 3.86884 29.0035 3.87191 29.0562 3.83915Z" fill="#F1D89D"/>
<path d="M23.0543 22.1466C22.2247 22.0654 21.2716 22.1622 20.4327 22.1229C20.1716 22.1265 19.8869 22.1184 19.6282 22.1235C18.1922 22.1521 16.6483 21.8396 17.0029 23.9497C17.1963 25.1007 17.6582 25.8098 18.5954 26.5007C18.9597 26.7406 19.3633 26.9117 19.787 27.0059C20.6803 27.2033 21.6583 27.057 22.4294 26.5462C23.2794 25.9829 23.8717 25.0951 24.0729 24.0824C24.2782 23.0548 24.1456 22.3588 23.0543 22.1466Z" fill="#5B2003"/>
<path d="M21.0423 24.434C19.9191 24.2656 18.9918 24.5985 18.0627 25.1976C18.5435 25.8383 19.1858 26.3263 19.9788 26.4748C21.2313 26.6968 22.2661 26.2467 23.011 25.2149C22.3736 24.7364 21.8194 24.5338 21.0423 24.434Z" fill="#EC6D4C"/>
<path d="M22.1193 22.6763L19.0911 22.6785C19.0764 22.9762 19.0144 23.2095 19.2726 23.4107C19.8061 23.649 21.5019 23.7784 22.0235 23.3267C22.157 23.211 22.1256 22.862 22.1193 22.6763Z" fill="#FCFCFA"/>
<path d="M27.602 34.7232C27.8937 34.164 28.1009 33.5995 27.9093 32.9569C27.5842 31.8674 26.399 31.0495 25.2904 31.1015C25.0711 31.1117 24.906 31.1599 24.6974 31.2158C22.7524 31.7371 21.9687 34.8859 23.9942 35.9011C24.078 35.9423 24.1638 35.9795 24.2512 36.0121C24.3165 36.197 24.4602 36.3207 24.6191 36.4181C25.5586 36.9953 26.7727 36.6398 27.3375 35.6981C27.4967 35.4323 27.6656 35.021 27.602 34.7232Z" fill="#81461D"/>
<path d="M27.6023 34.7231C26.859 35.5259 26.3242 36.0251 25.1443 36.0825C24.7322 36.1025 24.5783 36.0311 24.2514 36.0121C24.3167 36.197 24.4605 36.3207 24.6194 36.4181C25.5588 36.9953 26.7729 36.6398 27.3377 35.6981C27.497 35.4323 27.6659 35.021 27.6023 34.7231Z" fill="#DD9C3F"/>
<path d="M36.619 15.3445C36.635 15.3183 36.6507 15.292 36.666 15.2654C36.7492 15.1207 36.8231 14.9553 36.8943 14.8158C37.3367 13.9478 37.5096 13.5268 37.2132 12.5626C36.9912 11.8402 36.5651 11.4294 35.9401 11.0385C34.9832 10.44 33.366 10.8078 32.794 11.7969C32.4199 12.4693 32.5997 13.1905 32.7998 13.8843C32.68 14.2137 32.8039 14.6177 32.9362 14.9202C33.3231 15.8049 34.1823 16.4934 35.1588 16.4691C35.8396 16.4656 36.288 16.1563 36.6094 15.543C36.6287 15.5062 36.6219 15.3893 36.619 15.3445Z" fill="#81461D"/>
<path d="M36.6181 15.3444C36.022 15.8659 35.4949 16.0086 34.729 15.7365C33.7529 15.3898 33.2387 14.8177 32.7988 13.8843C32.679 14.2137 32.803 14.6176 32.9353 14.9201C33.3221 15.8048 34.1813 16.4934 35.1578 16.469C35.8386 16.4656 36.2871 16.1563 36.6085 15.543C36.6278 15.5062 36.621 15.3893 36.6181 15.3444Z" fill="#DD9C3F"/>
<path d="M22.0323 10.3769C22.6498 9.93917 22.9692 9.21918 22.9401 8.46084C22.8305 5.59856 18.0893 5.66611 18.2804 8.65637C17.9512 8.88371 17.8795 9.32669 17.9239 9.70456C18.0266 10.5794 19.0311 11.4809 19.8553 11.6257C20.3595 11.7167 20.8784 11.5963 21.2942 11.2918C21.5292 11.1179 21.9566 10.6677 22.0323 10.3769Z" fill="#81461D"/>
<path d="M18.28 8.65649C17.9507 8.88384 17.8791 9.32682 17.9234 9.70469C18.0261 10.5795 19.0306 11.481 19.8548 11.6258C20.359 11.7168 20.8779 11.5964 21.2938 11.2919C21.5287 11.118 21.9562 10.6679 22.0318 10.377C21.8167 10.4539 21.5974 10.5181 21.3751 10.5692C19.7206 10.9412 18.6353 10.3769 18.28 8.65649Z" fill="#DD9C3F"/>
<path d="M13.9683 32.9851C14.3843 32.3539 14.7189 31.8071 14.541 31.0044C14.2265 29.5851 12.5533 28.5608 11.1687 28.8058C10.0304 29.0073 9.58628 30.6784 9.8116 31.6833C9.94324 32.2711 10.2513 32.8446 10.7322 33.2172C10.7474 33.2988 10.7462 33.3444 10.7925 33.4164C11.349 34.2845 12.5359 34.4929 13.3556 33.89C13.5782 33.726 13.9255 33.2734 13.9683 32.9851Z" fill="#81461D"/>
<path d="M13.9686 32.9851C12.7881 33.5893 12.0234 33.8335 10.7324 33.2173C10.7477 33.2988 10.7464 33.3445 10.7928 33.4164C11.3493 34.2845 12.5362 34.4929 13.3558 33.89C13.5785 33.726 13.9258 33.2734 13.9686 32.9851Z" fill="#DD9C3F"/>
<path d="M33.6161 24.9367C30.5596 24.7263 29.9564 28.8486 33.1022 29.6148C34.2731 29.7883 35.4473 29.2713 35.7142 28.0084C35.8428 27.3768 35.7185 26.7191 35.3689 26.1815C34.979 25.5782 34.3154 25.0813 33.6161 24.9367Z" fill="#81461D"/>
<path d="M10.9887 21.8014C10.16 21.7241 9.23694 21.8373 8.5252 22.2956C7.99241 22.655 7.68774 23.3402 8.11254 23.91C8.55166 24.4988 9.31505 24.6733 9.98789 24.7942C10.8422 24.9112 11.8405 24.7723 12.5631 24.2596C13.0621 23.9055 13.3626 23.2154 12.9265 22.6789C12.4547 22.0984 11.6998 21.8876 10.9887 21.8014Z" fill="#F29A72"/>
<path d="M10.4369 22.4453C10.2748 22.4365 10.253 22.4362 10.1562 22.5559C10.0871 22.8608 10.7223 23.8556 10.9317 24.0136C11.6644 24.0288 10.863 23.0726 10.7351 22.824C10.6675 22.6932 10.5415 22.5444 10.4369 22.4453Z" fill="#EC6D4C"/>
<path d="M11.719 22.6353C11.6214 22.663 11.6039 22.6658 11.5287 22.7335C11.3467 23.0765 11.9789 23.7615 12.2358 23.9305C12.8649 23.6735 11.9996 22.8124 11.719 22.6353Z" fill="#EC6D4C"/>
<path d="M9.30681 22.7005C9.19695 22.697 9.17828 22.6946 9.07714 22.7357C8.83688 23.0307 9.42849 23.7322 9.65443 23.9126C10.4076 23.8825 9.51874 22.9041 9.30681 22.7005Z" fill="#EC6D4C"/>
<path d="M30.4275 21.7718C29.6662 21.7382 28.857 21.8904 28.2299 22.3671C27.7142 22.7591 27.4839 23.4162 27.9352 23.9656C28.4417 24.5823 29.3359 24.7295 30.0851 24.8046C30.9211 24.8162 31.8648 24.7243 32.4789 24.1564C33.5962 23.1232 32.2947 22.0584 31.2461 21.8706C30.918 21.8119 30.7416 21.7864 30.4275 21.7718Z" fill="#F29A72"/>
<path d="M30.0988 22.51C30.0054 22.5105 29.9824 22.5146 29.8912 22.5363C29.8306 22.5968 29.806 22.6054 29.7961 22.7046C29.7689 22.9759 30.3803 23.8562 30.5522 24.0352C31.0825 23.9781 30.7946 23.5135 30.6197 23.2294C30.479 23.001 30.2953 22.6852 30.0988 22.51Z" fill="#EC6D4C"/>
<path d="M31.3915 22.6057C30.6572 22.6894 31.6042 23.6607 31.8173 23.8904C32.6077 23.8824 31.6198 22.7909 31.3915 22.6057Z" fill="#EC6D4C"/>
<path d="M28.832 22.6301C28.7232 22.6349 28.7107 22.6425 28.6171 22.7004C28.4249 23.0019 29.0166 23.776 29.2564 23.9315C29.9662 23.7784 29.0774 22.8555 28.832 22.6301Z" fill="#EC6D4C"/>
<path d="M13.368 17.1371C11.7627 16.9468 10.3988 17.9656 9.87814 19.4821C9.60116 20.2886 10.0418 20.9346 10.841 20.3581C10.9674 20.1055 11.0125 19.7667 11.1987 19.4629C11.5851 18.8322 11.9611 18.578 12.6416 18.3923C12.9458 18.3287 13.2636 18.3673 13.5702 18.451C14.115 18.5902 14.7475 19.1413 14.9426 19.717C15.0455 20.286 15.3686 20.8298 16.0121 20.4699C16.6636 20.1056 15.8959 18.8087 15.6128 18.4277C15.0685 17.6953 14.2237 17.2554 13.368 17.1371Z" fill="#5B2003"/>
<path d="M28.2604 17.1357C26.9104 17.0018 25.8189 17.5024 25.062 18.6421C24.6538 19.2566 24.0641 20.7513 25.391 20.5466C25.648 20.5069 25.8434 19.6562 25.9857 19.4667C26.3225 18.9293 26.6674 18.5941 27.3008 18.438C28.6633 18.0913 29.5253 18.9881 29.9077 20.2085C30.0135 20.5457 30.4065 20.6781 30.7276 20.4935C31.4093 20.1016 30.7642 18.977 30.4453 18.5172C29.9243 17.7809 29.139 17.2844 28.2604 17.1357Z" fill="#5B2003"/>
<path d="M29.5384 5.1014C28.7749 4.9856 28.0639 5.52272 27.9507 6.30088C27.8374 7.07904 28.3648 7.80335 29.1284 7.91839C29.8915 8.03333 30.6016 7.4963 30.7147 6.71871C30.8279 5.94109 30.3013 5.21713 29.5384 5.1014Z" fill="#81461D"/>
<path d="M7.16336 9.17297C6.96108 9.15784 6.77404 9.14154 6.57393 9.20469C5.99197 9.38836 5.57682 10.129 5.77848 10.7285C5.9039 11.1014 6.18119 11.2785 6.51636 11.4416C7.07125 11.5046 7.59065 11.2638 7.83464 10.7333C7.95632 10.4675 7.97002 10.1633 7.87199 9.88748C7.74595 9.54012 7.48391 9.32451 7.16336 9.17297Z" fill="#81461D"/>
<path d="M39.8413 19.6604C39.839 19.8013 39.8609 19.8573 39.749 19.9631C39.6845 20.024 39.5287 20.0999 39.443 20.0894C39.4933 20.5615 39.4965 20.8444 39.4775 21.313C39.456 21.841 39.2799 22.7449 39.3995 23.2274L39.4477 23.2567C39.7329 23.1793 39.8735 22.4764 39.9195 22.2269C40.0816 21.3481 39.989 20.5293 39.8413 19.6604Z" fill="#F4E4C0"/>
<path d="M39.8413 19.6603C39.7694 19.2807 39.6103 18.4942 39.3167 18.2434L39.2686 18.2537C39.1333 18.553 39.3667 19.7526 39.4429 20.0892C39.5287 20.0998 39.6845 20.0239 39.749 19.9629C39.8609 19.8572 39.839 19.8011 39.8413 19.6603Z" fill="#FCFCFA"/>
</g>
<defs>
<clipPath id="clip0_1_7445">
<rect width="42.2" height="42.5" fill="white" transform="matrix(-1 0 0 1 42.2 0)"/>
</clipPath>
</defs>
</svg>
