<svg width="43" height="43" viewBox="0 0 43 43" fill="none" xmlns="http://www.w3.org/2000/svg">
<g clip-path="url(#clip0_1_7160)">
<path d="M22.2437 0H18.8419C18.4255 0.163846 17.48 0.206345 17.0041 0.292097C13.5593 0.915542 10.785 2.52308 8.03481 4.67757C5.24637 6.86197 3.23502 9.8751 1.6768 13.0476C0.78767 14.8577 0.354153 16.987 0.17334 18.968C0.135998 19.3799 0.111725 20.2178 0 20.5897V23.0394C0.0656662 23.2849 0.0718918 23.6436 0.0986557 23.9097C0.157162 24.4798 0.219093 25.0496 0.285069 25.6189C0.515053 27.4641 1.35252 29.9598 2.24071 31.5728C3.24498 33.3958 4.89346 35.8243 6.46631 37.1796C8.27195 38.7359 11.1535 40.1051 13.4128 40.8159C14.1864 41.0458 15.0187 41.231 15.7856 41.4648C17.6834 42.0436 19.5443 42.5701 21.543 42.4537C22.3585 42.4064 23.0088 42.3839 23.8334 42.1984C25.1481 41.9028 26.3994 41.4645 27.6875 41.0734C29.4754 40.4832 31.2604 40.0664 32.8984 39.1219C34.2684 38.3318 35.2307 37.3375 36.308 36.2033C36.5866 35.91 37.1053 35.4174 37.3445 35.1167C38.6222 33.5106 39.9768 31.69 40.5665 29.6874C40.8359 28.8184 40.9309 27.8895 41.1709 27.0174C41.4513 25.9986 41.8258 25.0143 42.003 23.964C42.0608 23.6209 42.0916 23.1913 42.1897 22.8644L42.2 22.831V20.281C42.0936 20.0398 41.9953 19.0627 41.9389 18.7367C41.754 17.6674 41.4477 16.7482 41.1336 15.7231C40.3884 13.2904 39.3943 11.0395 38.0221 8.90959C36.6616 6.79788 34.972 5.05014 32.8202 3.76728C32.4362 3.53838 32.0696 3.25778 31.6778 3.03927C29.8384 2.01355 27.8882 1.2594 25.8674 0.698903C24.6679 0.364063 23.4882 0.2076 22.2699 0.00974087C22.2612 0.00649394 22.2524 0.00324697 22.2437 0Z" fill="#60240A"/>
<path d="M29.7251 2.97527C27.1988 1.62529 23.1373 0.683477 20.274 0.730703C18.8851 0.753612 17.1685 1.07601 15.8085 1.36944C14.4366 1.76048 13.2919 2.15944 12.0387 2.88975C11.9098 2.96484 11.5316 3.17128 11.4385 3.27056C11.4095 3.28978 11.1746 3.44322 11.1615 3.4555C10.7686 3.68605 10.4294 3.94599 10.0532 4.19763C8.29546 5.37374 6.63827 6.89432 5.30132 8.55046C4.88678 9.06404 4.44487 9.76833 4.0985 10.3452C3.83552 10.7834 3.4574 11.3195 3.32265 11.7992C3.28437 11.9357 3.27254 12.2278 3.26383 12.3804C3.10418 12.4669 2.9106 12.5725 2.79172 12.7165C2.27013 13.3494 1.87459 14.5465 1.6334 15.3188C1.4501 15.9045 1.24719 16.8783 1.16379 17.482C1.05891 17.9543 1.02872 18.3727 0.961189 18.8384C0.75486 20.2595 0.75206 21.6553 0.795319 23.0872C0.801231 23.2899 0.812119 23.9537 0.859425 24.1253C0.928825 24.5147 0.963367 24.9531 1.02716 25.3603C1.16783 26.2622 1.36607 27.1538 1.62064 28.0294C2.55241 31.1469 5.11397 35.1208 7.69981 37.0999C7.71537 37.1104 7.73062 37.1205 7.74587 37.131C7.93384 37.3058 8.2326 37.4586 8.45045 37.6029C9.33273 38.1865 10.205 38.6036 11.1451 39.0686C11.3666 39.1992 13.0147 39.8995 13.1901 39.9087C13.6718 40.0848 14.5016 40.2893 15.024 40.4485C16.4912 40.8954 17.9702 41.2966 19.4802 41.5627C20.5124 41.7445 21.3845 41.7822 22.4243 41.6484C24.3978 41.4013 26.2568 40.702 28.1366 40.0933C29.949 39.5069 31.7528 39.066 33.3176 37.9058C33.9725 37.4203 34.4958 36.882 35.0848 36.3251C37.1905 34.3343 38.9857 31.9219 39.9083 29.1244C40.0328 28.7469 40.103 28.4732 40.1638 28.085C40.2066 27.8113 40.243 27.1377 40.3141 26.9183C40.5091 26.3158 40.7342 25.9204 40.8424 25.2625C42.0625 21.4494 41.2077 17.9469 39.8131 14.3378C39.5425 13.6376 39.099 12.3832 38.7001 11.7657C38.6995 11.7635 38.6988 11.7613 38.6982 11.7591C37.7094 9.36027 35.7149 6.90434 33.7113 5.34174C32.4949 4.3931 31.014 3.57726 29.7251 2.97527Z" fill="#F5C360"/>
<path d="M2.16454 23.8176C1.69865 24.001 1.36659 24.0927 0.859322 24.1254C0.928722 24.5148 0.963264 24.9532 1.02707 25.3604C1.16773 26.2623 1.36597 27.1539 1.62054 28.0295C2.5523 31.147 5.11386 35.1209 7.6997 37.1C7.71526 37.1105 7.73051 37.1206 7.74576 37.1311C7.93373 37.3059 8.23249 37.4587 8.45034 37.603C9.33262 38.1866 10.2049 38.6037 11.145 39.0687C11.3665 39.1993 13.0146 39.8996 13.19 39.9088C13.6717 40.0849 14.5015 40.2894 15.0239 40.4486C16.4911 40.8955 17.9701 41.2967 19.4801 41.5628C20.5123 41.7446 21.3844 41.7823 22.4242 41.6485C24.3977 41.4014 26.2567 40.7021 28.1365 40.0934C29.9489 39.507 31.7527 39.0661 33.3175 37.9059C33.9724 37.4204 34.4957 36.8821 35.0847 36.3252C37.1904 34.3343 38.9856 31.922 39.9082 29.1245C40.0327 28.747 40.1029 28.4733 40.1637 28.0851C40.2065 27.8114 40.2429 27.1378 40.314 26.9184C40.509 26.3159 40.7341 25.9205 40.8423 25.2626C40.4909 25.2606 39.7578 25.8613 39.669 26.2628C39.2819 28.0117 38.2139 29.9113 37.2247 31.3715C36.308 32.7247 34.9188 34.3039 33.5151 35.0775C32.2052 35.7996 30.753 36.4451 29.3773 37.0287C28.8817 37.2354 28.2877 37.3277 27.7803 37.5333C27.3616 37.7029 26.9792 37.9021 26.5709 38.0893C25.947 38.3747 25.3017 38.6088 24.6411 38.7892C23.6329 39.0522 22.601 39.2101 21.5615 39.2602C20.0285 39.3474 16.1417 39.1733 14.87 38.3557C13.9855 37.7873 13.5039 36.7013 12.5376 36.1317C12.0921 35.8691 11.6021 35.5779 11.1105 35.4162C10.4256 35.191 9.73439 35.1127 9.10139 34.7311C8.67659 34.4749 8.27793 34.1377 7.92657 33.7853C7.23631 33.0939 6.63879 32.2896 6.03442 31.5214C5.28036 30.5637 4.51136 29.619 3.86591 28.579C3.55595 28.0795 3.29111 27.5442 3.05646 27.0042C2.75023 26.3002 2.53207 25.5461 2.36557 24.7961C2.29338 24.4713 2.24358 24.1405 2.16454 23.8176Z" fill="#E39E41"/>
<path d="M11.3504 37.0539C10.3221 36.5623 8.70913 36.4174 7.74562 37.131C7.93359 37.3057 8.23235 37.4586 8.4502 37.6029C9.33248 38.1865 10.2048 38.6036 11.1449 39.0685L11.1803 39.0248C11.2806 38.6607 11.1266 37.7739 11.0407 37.392C11.1452 37.2804 11.2484 37.1678 11.3504 37.0539Z" fill="#84471F"/>
<path d="M11.3503 37.054C11.2483 37.1678 11.1451 37.2804 11.0406 37.392C11.1265 37.7739 11.2805 38.6607 11.1801 39.0248L11.1448 39.0686C11.3663 39.1993 13.0144 39.8996 13.1897 39.9088C13.2688 38.4688 12.636 37.6065 11.3503 37.054Z" fill="#713516"/>
<path d="M1.16396 17.4822C1.05909 17.9545 1.0289 18.3728 0.961367 18.8386C0.755035 20.2596 0.752236 21.6555 0.795494 23.0874C0.801407 23.2901 0.812297 23.9538 0.859601 24.1255C1.36687 24.0928 1.69894 24.0011 2.16482 23.8177C2.95996 23.2985 3.48092 22.69 3.7579 21.7526C4.04359 20.7939 3.94244 19.7588 3.47687 18.8763C3.14201 18.2506 2.55445 17.6214 1.82528 17.581C1.63949 17.5707 1.34664 17.5992 1.1982 17.5539L1.16396 17.4822Z" fill="#84471F"/>
<path d="M15.8077 1.36938C14.4358 1.76043 13.2911 2.15938 12.0378 2.8897C11.909 2.96478 11.5308 3.17123 11.4376 3.27051C11.6362 3.70261 11.7156 4.09701 12.0006 4.48778C12.8383 5.63643 13.9387 5.4729 15.0983 5.09347C15.6646 4.91814 16.446 4.2168 16.5687 3.62028C16.7054 3.07952 16.6645 2.53537 16.4126 2.036C16.3075 1.82773 15.8792 1.51678 15.8077 1.36938Z" fill="#84471F"/>
<path d="M29.7242 2.97534L29.6371 3.01287L29.632 3.04947L29.7764 3.0738L29.7842 3.11673L29.7381 3.1456L29.6273 3.1105C29.7728 3.29671 29.8724 3.41412 29.7242 3.65605C29.6512 3.70477 29.5882 3.73991 29.4893 3.70959C29.0918 3.58758 28.5285 3.25382 28.0998 3.24253L28.1 3.26965L28.1253 3.24323L28.1118 3.24402C28.2093 3.38418 30.0435 4.08204 30.3582 4.22746C31.2143 4.6299 32.027 5.12173 32.7835 5.69507C33.1714 5.98429 33.5522 6.294 33.9414 6.57726C34.2654 6.81307 35.0227 6.94343 35.17 7.4134C34.9991 7.66444 34.9695 7.90269 35.2501 8.09683C36.1528 8.11598 37.8307 12.8789 38.796 12.6325C38.9425 12.4698 38.7415 11.9715 38.6991 11.7658C38.6985 11.7636 38.6979 11.7614 38.6973 11.7592C37.7085 9.36035 35.7139 6.90442 33.7103 5.34181C32.494 4.39317 31.013 3.57733 29.7242 2.97534Z" fill="#F6D79C"/>
<path d="M35.171 7.41333C35.0001 7.66437 34.9705 7.90262 35.2511 8.09676C35.5695 7.91416 35.4031 7.57334 35.171 7.41333Z" fill="#F8E9CE"/>
<path d="M11.4378 3.27075C11.4088 3.28997 11.1739 3.44342 11.1608 3.45569C11.2495 3.68462 11.1914 4.16611 11.1922 4.42421C11.1873 5.12271 11.7652 5.76449 12.3447 6.06804C12.8392 6.32707 13.5208 6.34122 14.0479 6.17715C14.4436 6.05396 15.0391 5.53346 15.0984 5.09372C13.9389 5.47314 12.8385 5.63667 12.0008 4.48803C11.7157 4.09725 11.6363 3.70286 11.4378 3.27075Z" fill="#E39E41"/>
<path d="M22.2782 20.3758C21.0117 20.3238 19.4245 20.2759 18.1873 20.5504C17.7278 20.7096 17.5773 21.1741 17.5907 21.5971C17.6434 23.2611 18.2087 24.7121 19.8351 25.4089C20.1478 25.5162 20.4597 25.5941 20.7906 25.6162C21.6495 25.6696 22.4942 25.3749 23.1409 24.7965C23.9933 24.0242 24.3302 22.9789 24.4216 21.8501C24.5463 20.3092 23.4081 20.4252 22.2782 20.3758Z" fill="#60240A"/>
<path d="M20.556 22.4687C19.9803 22.4359 19.077 22.5431 18.5868 22.8989C18.2529 23.1412 18.8757 23.9764 19.0857 24.1898C19.6744 24.7882 20.3344 24.994 21.151 24.9908C22.0823 24.887 22.7803 24.5132 23.2793 23.6822C22.6007 22.921 21.5472 22.531 20.556 22.4687Z" fill="#F7987A"/>
<path d="M29.0696 15.643C27.4526 15.4599 25.9942 16.6424 25.8058 18.2894C25.6175 19.9363 26.77 21.429 28.385 21.6298C30.0123 21.832 31.4906 20.6466 31.6803 18.9871C31.8701 17.3276 30.699 15.8275 29.0696 15.643Z" fill="#60240A"/>
<path d="M29.7479 16.4665C29.0862 16.4484 28.537 16.9835 28.5249 17.658C28.5129 18.3324 29.0427 18.8875 29.7046 18.8939C30.3584 18.9002 30.895 18.3683 30.9068 17.7021C30.9187 17.0359 30.4015 16.4844 29.7479 16.4665Z" fill="#FDFCFC"/>
<path d="M27.8782 19.1137C27.5617 19.011 27.2234 19.1897 27.1234 19.5125C27.0233 19.8354 27.1995 20.1797 27.5165 20.2809C27.8324 20.3818 28.1689 20.203 28.2686 19.8812C28.3684 19.5594 28.1937 19.2161 27.8782 19.1137Z" fill="#FDFCFC"/>
<path d="M13.4322 15.6466C11.8078 15.4566 10.3407 16.6469 10.1583 18.3028C9.97597 19.9587 11.1476 21.4509 12.7729 21.6325C14.3924 21.8135 15.8502 20.6247 16.0319 18.9747C16.2136 17.3247 15.0507 15.836 13.4322 15.6466Z" fill="#60240A"/>
<path d="M14.3422 16.501C13.9259 16.3965 13.4868 16.5284 13.1926 16.8462C12.8985 17.164 12.7949 17.6185 12.9215 18.0359C13.0481 18.4533 13.3853 18.769 13.8041 18.8622C14.4398 19.0036 15.069 18.5981 15.2163 17.9522C15.3635 17.3062 14.974 16.6596 14.3422 16.501Z" fill="#FDFCFC"/>
<path d="M12.1779 19.1045C11.9659 19.0519 11.7426 19.1193 11.593 19.2811C11.4435 19.4429 11.3907 19.6741 11.4547 19.8865C11.5189 20.099 11.69 20.26 11.9029 20.3082C12.2275 20.3817 12.5496 20.1751 12.625 19.8451C12.7004 19.515 12.5009 19.1847 12.1779 19.1045Z" fill="#FDFCFC"/>
<path d="M28.2289 34.8428C28.5157 34.2893 28.7581 33.7159 28.5435 33.0841C28.0795 31.7181 26.6158 30.8898 25.2322 31.3506C23.8871 31.7987 23.1041 33.3756 23.5177 34.7454C23.6864 35.3043 24.2766 35.9304 24.8262 36.1368C25.208 36.637 25.7858 36.8016 26.3918 36.788C27.2917 36.7677 28.3101 35.8022 28.2289 34.8428Z" fill="#84471F"/>
<path d="M28.2279 34.8428C27.3593 35.7045 26.8506 36.1939 25.5093 36.2012C25.2537 36.2028 25.0688 36.1542 24.8252 36.1368C25.207 36.637 25.7848 36.8016 26.3908 36.7879C27.2907 36.7676 28.3091 35.8022 28.2279 34.8428Z" fill="#E39E41"/>
<path d="M37.3174 15.3695C37.8907 14.3738 38.3035 13.5164 37.8506 12.4078C37.5756 11.7346 37.0844 11.2876 36.4611 10.97C35.4661 10.4631 33.8858 10.9287 33.3938 11.9581C33.1199 12.5499 33.2672 13.3803 33.4996 13.9849C33.4421 14.162 33.4307 14.2593 33.4649 14.4427C33.6603 15.4902 34.569 16.4401 35.635 16.5245C36.3765 16.5832 37.0016 16.2301 37.3079 15.5398C37.3212 15.5091 37.3187 15.4067 37.3174 15.3695Z" fill="#84471F"/>
<path d="M33.5 13.9849C33.4425 14.162 33.4311 14.2593 33.4653 14.4427C33.6607 15.4902 34.5694 16.4401 35.6353 16.5245C36.3769 16.5832 37.002 16.2301 37.3082 15.5398C37.3216 15.5091 37.3191 15.4067 37.3178 15.3695C37.168 15.5229 36.994 15.6497 36.8032 15.7446C36.293 15.9967 35.7912 15.9338 35.2714 15.7386C34.4523 15.4308 33.8633 14.7745 33.5 13.9849Z" fill="#E39E41"/>
<path d="M14.5219 33.0874C15.5104 31.7968 15.3732 30.62 14.1043 29.5992C13.2476 28.91 11.6313 28.451 10.8307 29.465C10.0023 30.5328 10.1084 32.5257 11.2715 33.3085C11.2755 33.3265 11.2795 33.3443 11.2836 33.3621L11.2901 33.3865C11.4185 33.8793 12.1323 34.2603 12.5981 34.3313C13.0621 34.4068 13.5362 34.2853 13.9099 33.9948C14.1559 33.8061 14.4798 33.4033 14.5219 33.0874Z" fill="#84471F"/>
<path d="M14.5218 33.0876C13.2912 33.7213 12.608 33.9304 11.2714 33.3087C11.2754 33.3268 11.2794 33.3446 11.2834 33.3623L11.29 33.3867C11.4183 33.8796 12.1321 34.2605 12.5979 34.3316C13.0619 34.407 13.5361 34.2856 13.9097 33.9951C14.1558 33.8063 14.4797 33.4035 14.5218 33.0876Z" fill="#E39E41"/>
<path d="M22.6483 10.3719L22.6672 10.3581C23.6456 9.62807 23.8808 8.26049 23.1517 7.25911C22.3776 6.19585 20.6265 6.09366 19.6335 6.87902C19.1282 7.27874 18.9852 7.7378 18.9158 8.35589C18.8805 8.72507 18.7727 8.7403 18.6427 9.06501C18.1737 10.2359 19.5729 11.5581 20.6109 11.6645C21.1182 11.7174 21.6253 11.563 22.0209 11.2351C22.2209 11.0694 22.6171 10.6316 22.6483 10.3719Z" fill="#84471F"/>
<path d="M18.9158 8.35596C18.8804 8.72514 18.7726 8.74036 18.6426 9.06507C18.1736 10.2359 19.5728 11.5581 20.6108 11.6645C21.1181 11.7175 21.6252 11.563 22.0208 11.2351C22.2208 11.0695 22.617 10.6316 22.6482 10.3719C22.1163 10.5537 21.8549 10.6776 21.2648 10.6961C19.8306 10.741 18.916 9.8145 18.9158 8.35596Z" fill="#E39E41"/>
<path d="M34.1446 25.0369C30.8908 24.9939 30.797 29.3089 33.8978 29.7292C34.5353 29.7899 35.1809 29.66 35.6874 29.2413C36.0988 28.906 36.358 28.4139 36.4049 27.8792C36.47 27.1984 36.2781 26.5849 35.8515 26.0595C35.4574 25.5739 34.7721 25.0941 34.1446 25.0369Z" fill="#84471F"/>
<path d="M31.1026 21.7988C30.239 21.7254 29.4377 21.7881 28.6829 22.2757C28.1256 22.6357 27.7562 23.2241 28.1848 23.8539C28.6144 24.485 29.3889 24.6563 30.0842 24.7951C30.9918 24.8673 31.8762 24.7908 32.6629 24.2691C33.1733 23.9307 33.4902 23.2626 33.0626 22.7204C32.5904 22.1216 31.818 21.9075 31.1026 21.7988Z" fill="#F7987A"/>
<path d="M30.4182 22.5095C30.2782 22.4989 30.2207 22.4996 30.1183 22.5908C30.0335 22.9033 30.7109 23.7848 30.9334 23.9911C31.0261 24.0283 31.0413 24.0245 31.1407 24.0097C31.4814 23.7426 30.6155 22.7473 30.4182 22.5095Z" fill="#F16D49"/>
<path d="M31.6399 22.6101C31.115 22.7241 31.9843 23.7778 32.2396 23.8812C32.341 23.8604 32.3807 23.8634 32.451 23.7938C32.6118 23.4313 31.9093 22.7803 31.6399 22.6101Z" fill="#F16D49"/>
<path d="M29.1295 22.6025C29.0263 22.638 29.0122 22.6434 28.9295 22.7151C28.7956 23.0165 29.3826 23.7105 29.5922 23.9028C30.2768 23.7148 29.3689 22.8542 29.1295 22.6025Z" fill="#F16D49"/>
<path d="M10.9784 21.8667C10.2067 21.8793 9.38817 22.001 8.76513 22.508C8.26035 22.9118 8.13711 23.5644 8.59365 24.0636C9.1753 24.6992 9.99752 24.8488 10.8023 24.8933C11.5735 24.9067 12.5831 24.7523 13.1199 24.2217C14.2583 23.0967 12.9398 22.1379 11.8316 21.9624C11.4968 21.9094 11.2958 21.8816 10.9784 21.8667Z" fill="#F7987A"/>
<path d="M10.8248 22.5029C10.1482 22.6642 11.2577 24.0488 11.4622 24.1147C11.5314 24.1065 11.5563 24.0918 11.619 24.0648C11.6561 24.0198 11.6893 23.976 11.6877 23.9143C11.679 23.5703 11.0308 22.7235 10.8248 22.5029Z" fill="#F16D49"/>
<path d="M12.152 22.7368C12.0074 22.7451 12.016 22.7429 11.9304 22.8244C11.8151 23.1614 12.4041 23.8383 12.7028 23.9613C12.8338 23.9401 12.8533 23.921 12.9182 23.8185C12.9648 23.5077 12.397 22.8803 12.152 22.7368Z" fill="#F16D49"/>
<path d="M9.72467 22.7672C9.56502 22.7572 9.53359 22.7429 9.43929 22.87C9.39323 23.1761 9.8532 23.796 10.0953 23.955L10.1613 23.972C10.2587 23.9408 10.268 23.9294 10.3381 23.8525C10.4348 23.5584 9.94812 22.9352 9.72467 22.7672Z" fill="#F16D49"/>
<path d="M30.054 5.06484C29.2856 5.01375 28.6214 5.60535 28.5681 6.38818C28.5149 7.171 29.0927 7.85037 29.8606 7.90781C30.6329 7.96556 31.3042 7.37256 31.3577 6.58523C31.4113 5.79794 30.8267 5.11622 30.054 5.06484Z" fill="#84471F"/>
<path d="M7.56133 9.17163C6.06068 9.18708 5.62156 11.0088 6.97937 11.4805C8.36176 11.5486 9.04082 9.88452 7.56133 9.17163Z" fill="#84471F"/>
<path d="M40.1438 20.2556C40.1776 20.668 40.1825 21.0823 40.1585 21.4954C40.1401 21.817 39.9317 23.2491 40.1829 23.3965C40.2357 23.3745 40.2467 23.3681 40.2817 23.3189C40.8226 22.5585 40.7185 20.8209 40.5981 19.947C40.5753 20.076 40.5989 20.0744 40.485 20.154C40.407 20.2085 40.2397 20.2638 40.1438 20.2556Z" fill="#F8E9CE"/>
<path d="M40.5972 19.9469C40.4994 19.2977 40.4 18.7117 39.9574 18.1951C39.8906 18.9617 40.0172 19.5011 40.1429 20.2554C40.2388 20.2636 40.406 20.2083 40.484 20.1538C40.5979 20.0742 40.5744 20.0759 40.5972 19.9469Z" fill="#FDFCFC"/>
</g>
<defs>
<clipPath id="clip0_1_7160">
<rect width="42.2" height="42.5" fill="white" transform="matrix(-1 0 0 1 42.2 0)"/>
</clipPath>
</defs>
</svg>
