<svg width="43" height="43" viewBox="0 0 43 43" fill="none" xmlns="http://www.w3.org/2000/svg">
<g clip-path="url(#clip0_1_7358)">
<path d="M22.551 0H18.2104C18.0384 0.107027 17.6227 0.117487 17.4163 0.153568C14.9234 0.58938 12.5654 1.41818 10.4401 2.83321C8.40421 4.18888 6.47938 5.66379 4.93018 7.5984C4.04479 8.69772 3.29166 9.93643 2.58895 11.1639C1.76829 12.5511 1.26818 13.5864 0.799187 15.1577C0.514431 16.1133 0.305607 17.0907 0.175209 18.0806C0.128529 18.4539 0.0750008 19.4359 0 19.709V23.958C0.0659752 24.1644 0.182056 25.2076 0.221893 25.4907C0.318367 26.1583 0.448143 26.8205 0.610592 27.4748C1.40231 30.74 3.69997 34.595 6.14265 36.8786C6.76663 37.4526 7.44413 37.963 8.16551 38.4026C9.57467 39.2694 11.1694 40.0353 12.7313 40.5643C13.7777 40.9189 14.8196 41.1708 15.8743 41.4679C17.1889 41.8387 18.3223 42.2225 19.7094 42.3478C21.2871 42.4962 22.878 42.3674 24.4128 41.9665C25.607 41.6652 27.0636 41.1676 28.2461 40.8025C29.8427 40.2948 31.3364 39.8809 32.8074 39.0401C34.0726 38.3169 34.7957 37.5408 35.8066 36.5373C37.9422 34.4174 39.955 31.8817 40.678 28.8721C40.8159 28.2977 40.8687 27.6918 41.0353 27.1217C41.3344 26.0889 41.6609 25.0789 41.8938 24.0271C41.9688 23.6884 42.0502 22.4798 42.2 22.2592V20.9433C42.1189 20.732 42.0368 19.9428 42.0006 19.6613C41.9364 19.1619 41.8753 18.779 41.7681 18.2819C41.2644 16.0524 40.527 13.8845 39.5687 11.8156C38.3438 9.1767 36.711 6.77425 34.4555 4.94262C33.9383 4.52267 33.44 4.21644 32.911 3.8486C30.969 2.49832 28.767 1.55139 26.513 0.892443C25.7363 0.641598 24.9464 0.47711 24.1541 0.297237C23.7264 0.200102 22.911 0.14538 22.551 0Z" fill="#5D2206"/>
<path d="M29.6208 2.9267C29.3696 2.74083 28.596 2.45081 28.2929 2.32945C26.2563 1.49716 24.1113 0.972566 21.9259 0.772289C21.4039 0.722091 20.8021 0.662522 20.2824 0.678047C18.7056 0.725146 17.2173 1.00219 15.6787 1.31558C14.5279 1.66101 13.6696 1.94009 12.5808 2.49629C12.2641 2.6606 11.9518 2.83339 11.6441 3.01448C11.5749 3.05505 11.3601 3.20072 11.3183 3.22165C11.2806 3.2449 11.0589 3.37804 11.0406 3.39815C8.17559 5.10415 5.755 7.487 3.98235 10.3459C3.74552 10.7346 3.42716 11.2329 3.23732 11.6548C3.20433 11.7282 3.21429 12.2061 3.16045 12.2714C2.86605 12.6285 2.67403 12.5637 2.43253 13.0385C1.66976 14.5375 1.38874 15.8611 1.06974 17.4819C0.994122 17.8407 0.956154 18.2547 0.906361 18.6192C0.69754 20.1409 0.679176 21.6546 0.73893 23.1871C0.743908 23.3161 0.75885 24.0006 0.795261 24.0969C0.911964 25.2342 1.30969 27.3628 1.68874 28.4298C2.7702 31.4742 4.90198 34.7938 7.37485 36.8424C7.45265 36.9068 7.57465 37.0111 7.65525 37.066C8.27144 37.6115 10.3357 38.6775 11.092 39.0055C11.246 39.1158 12.9516 39.8383 13.0959 39.8475C13.8123 40.0746 14.5812 40.2706 15.3089 40.4844C17.4255 41.1057 19.6895 41.8159 21.9122 41.6278C23.9453 41.4556 25.7977 40.7575 27.7174 40.1247C29.5348 39.5253 31.3972 39.0632 33.0152 37.9794C33.7882 37.4514 34.379 36.8323 35.0594 36.1852C37.363 33.994 39.387 31.2091 40.0655 28.0209C40.1459 27.643 40.1287 27.1376 40.2457 26.7872C40.4298 26.2358 40.6382 25.8395 40.7501 25.2559C41.1006 24.0442 41.3419 22.8515 41.3623 21.5816C41.4108 18.5674 40.0303 14.7051 38.7525 12.0019C38.0357 10.1166 36.7692 8.44445 35.4286 6.97364C33.8027 5.18991 31.7907 3.93327 29.6208 2.9267Z" fill="#F2C25E"/>
<path d="M2.10816 23.7522C1.7733 23.9123 1.46862 23.9923 1.10077 24.0408C1.01114 24.0526 0.860207 24.046 0.794231 24.097C0.910934 25.2343 1.30866 27.3629 1.68771 28.4299C2.76917 31.4743 4.90095 34.7939 7.37382 36.8425C7.45162 36.9069 7.57362 37.0112 7.65422 37.0661C8.27041 37.6116 10.3347 38.6776 11.091 39.0055C11.245 39.1159 12.9506 39.8384 13.0949 39.8476C13.8113 40.0747 14.5802 40.2707 15.3078 40.4845C17.4245 41.1058 19.6885 41.8159 21.9112 41.6279C23.9443 41.4556 25.7967 40.7576 27.7164 40.1248C29.5337 39.5254 31.3962 39.0633 33.0142 37.9795C33.7872 37.4514 34.378 36.8323 35.0583 36.1853C37.362 33.994 39.386 31.2091 40.0644 28.021C40.1449 27.6431 40.1276 27.1376 40.2446 26.7873C40.4288 26.2358 40.6371 25.8395 40.7491 25.256C40.3022 25.2219 39.6633 25.7781 39.5572 26.2273C39.4565 26.6539 39.3613 27.0897 39.1875 27.4917C38.426 29.2522 37.5075 30.969 36.2711 32.4329C35.4288 33.4346 34.5323 34.4079 33.371 35.0305C32.5493 35.4587 31.7129 35.8726 30.8675 36.25C30.3428 36.4844 29.8118 36.761 29.2736 36.9586C28.7413 37.1543 28.1685 37.251 27.6403 37.4692C27.2157 37.6446 26.8106 37.8542 26.3931 38.0455C25.8715 38.2805 25.3358 38.4813 24.7891 38.6468C22.3945 39.3532 19.9436 39.3084 17.517 39.0001C15.7815 38.7797 14.7564 38.6992 13.6677 37.1831C13.2127 36.5497 12.5348 36.1311 11.8744 35.7511C10.6851 35.0667 9.28371 35.1717 8.25734 34.1218C7.29259 33.2446 6.82609 32.5528 6.04153 31.5769C4.48953 29.6465 3.04707 27.8201 2.42559 25.3355C2.29737 24.8228 2.15048 24.2893 2.10816 23.7522Z" fill="#E09D3F"/>
<path d="M11.2073 36.9612C10.2785 36.5606 8.46068 36.2999 7.65496 37.0662C8.27116 37.6117 10.3354 38.6777 11.0917 39.0057C11.1723 38.4554 10.9861 37.8762 10.9603 37.3323C10.9575 37.2739 11.153 37.0579 11.2073 36.9612Z" fill="#83471E"/>
<path d="M13.0958 39.8474C13.1718 38.2638 12.5295 37.6105 11.2075 36.9609C11.1532 37.0577 10.9577 37.2737 10.9605 37.332C10.9863 37.876 11.1725 38.4551 11.0919 39.0054C11.246 39.1157 12.9515 39.8383 13.0958 39.8474Z" fill="#703513"/>
<path d="M1.06953 17.4819C0.993902 17.8407 0.955935 18.2548 0.906141 18.6193C0.69732 20.1409 0.678958 21.6547 0.738711 23.1872C0.74369 23.3161 0.75863 24.0006 0.795041 24.097C0.861018 24.046 1.01195 24.0526 1.10158 24.0408C1.46943 23.9923 1.77411 23.9123 2.10897 23.7522C2.88201 23.2785 3.37154 22.6341 3.65443 21.7662C3.95786 20.8107 3.87384 19.7711 3.42103 18.8791C3.14436 18.3284 2.53843 17.5926 1.8656 17.5498C1.69101 17.5387 1.20366 17.5347 1.06953 17.4819Z" fill="#83471E"/>
<path d="M15.6777 1.31567C14.5268 1.66111 13.6685 1.94019 12.5797 2.49639C12.2631 2.66069 11.9508 2.83349 11.6431 3.01458C11.5738 3.05515 11.3591 3.20082 11.3173 3.22175C11.4427 3.39638 11.5175 3.78541 11.6085 3.99319C12.1772 5.29175 13.4006 5.57184 14.6482 5.14557C14.738 5.1149 14.8839 5.07154 14.9777 5.05391C15.0221 5.0364 15.0658 5.0168 15.1085 4.99517C15.6754 4.70513 16.2748 4.22085 16.4524 3.59981C16.6402 2.95066 16.5237 2.16813 16.0156 1.69744C15.94 1.62735 15.7123 1.39859 15.6777 1.31567Z" fill="#83471E"/>
<path d="M29.6198 2.92676C29.4877 3.1924 29.8801 3.47741 29.5257 3.71778L29.4581 3.84344C31.1297 4.4236 32.559 5.55575 33.9543 6.6192C34.3186 6.89691 34.6593 6.69954 35.0226 7.30704L35.0286 7.39261C34.8002 7.6621 34.9132 7.94508 35.226 8.05868C36.0589 8.20382 37.8099 12.8022 38.6553 12.5442C38.7515 12.4203 38.72 12.178 38.7515 12.0019C38.0347 10.1167 36.7682 8.44451 35.4276 6.9737C33.8018 5.18997 31.7898 3.93333 29.6198 2.92676Z" fill="#F4D89C"/>
<path d="M35.2259 8.05865C35.5044 7.9153 35.3183 7.47568 35.0285 7.39258C34.8002 7.66207 34.9131 7.94505 35.2259 8.05865Z" fill="#F7E8C8"/>
<path d="M11.3184 3.22168C11.2806 3.24493 11.059 3.37807 11.0406 3.39818C11.2181 3.72121 10.7154 4.68482 11.4995 5.44925C12.2451 6.17597 12.8331 6.46481 13.9288 6.13956C14.2891 6.00974 14.9662 5.46032 14.9788 5.05384C14.885 5.07148 14.7391 5.11483 14.6493 5.1455C13.4018 5.57177 12.1783 5.29168 11.6096 3.99312C11.5186 3.78534 11.4438 3.39631 11.3184 3.22168Z" fill="#E09D3F"/>
<path d="M29.5259 3.71767C29.2746 3.54839 28.3234 3.15401 28.0197 3.17408L27.9714 3.20786C28.0316 3.36349 29.248 3.78979 29.4583 3.84333L29.5259 3.71767Z" fill="#F4D89C"/>
<path d="M30.9176 18.8265C31.2774 18.8912 32.1973 19.0413 32.2342 18.5023C32.2758 17.8955 31.1899 17.9992 30.8166 17.9169C30.1625 17.7727 29.5486 17.5894 28.9504 17.2864C28.453 17.0432 27.9796 16.685 27.5925 16.2902C27.402 16.0959 27.0295 15.5308 26.7537 15.5634C25.9504 15.6583 26.617 16.5148 26.854 16.7495C26.0291 17.1647 25.4953 17.6804 25.1934 18.5975C24.9456 19.3725 25.0071 20.2157 25.3647 20.9448C25.907 22.0432 27.094 22.7278 28.2959 22.6002C28.6841 22.5526 28.9957 22.4434 29.3468 22.2825C30.64 21.5564 31.2241 20.3038 30.9176 18.8265Z" fill="#5D2206"/>
<path d="M28.0805 17.7898C28.0749 17.7921 28.0694 17.7944 28.0638 17.7966C27.4955 18.3842 27.9011 19.5361 28.6319 19.7271C29.0803 19.8443 29.371 19.7262 29.658 19.5666C29.998 19.2879 30.0729 19.0992 30.1678 18.679C29.1427 18.3958 28.9735 18.3318 28.0805 17.7898Z" fill="#FCFBFA"/>
<path d="M27.1627 20.0078C26.9395 19.9294 26.692 19.9875 26.5251 20.1576C26.3581 20.3276 26.301 20.5798 26.3778 20.8073C26.4424 20.9984 26.5931 21.1462 26.7829 21.2047C27.1048 21.3038 27.4454 21.1221 27.5488 20.796C27.6523 20.47 27.4806 20.1195 27.1627 20.0078Z" fill="#FCFBFA"/>
<path d="M14.9685 15.5713C14.9454 15.5709 14.9223 15.5709 14.8992 15.5714C14.5848 15.5761 14.3764 15.9602 14.1754 16.1979C13.2249 17.3209 11.7665 17.8219 10.3519 17.9937C10.0021 18.0362 9.07037 18.0278 9.61467 18.8229C9.71053 18.9624 10.2362 18.9038 10.4101 18.8746C10.2956 20.3255 10.5583 21.3313 11.7917 22.1829C12.4025 22.5555 13.2769 22.7219 13.9725 22.5637C14.7751 22.3873 15.4752 21.8913 15.9171 21.186C16.7018 19.9229 16.4573 18.3351 15.3826 17.3403C15.1844 17.1568 14.9693 17.0149 14.7449 16.8696C15.0864 16.4755 15.6716 15.9485 14.9685 15.5713Z" fill="#5D2206"/>
<path d="M14.5319 17.353C14.4828 17.3488 14.3276 17.3354 14.2914 17.3533C13.9762 17.51 13.5316 17.847 13.2528 18.0598C13.2506 18.0668 13.2484 18.0738 13.2463 18.0807L13.2361 18.1158C13.0129 18.8678 13.3632 19.6763 14.1786 19.7817C15.7535 19.8773 16.0513 17.7699 14.5319 17.353Z" fill="#FCFBFA"/>
<path d="M12.5289 20.0422C12.2328 19.9411 11.9094 20.0831 11.7781 20.3718C11.7045 20.5336 11.7022 20.7198 11.7719 20.8834C11.8416 21.0469 11.9766 21.1724 12.1428 21.228C12.4638 21.3355 12.8096 21.1581 12.916 20.8313C13.0224 20.5045 12.8492 20.1516 12.5289 20.0422Z" fill="#FCFBFA"/>
<path d="M28.1066 34.779C28.4043 34.2046 28.6395 33.673 28.4221 33.0174C27.9669 31.6455 26.4733 30.8274 25.1178 31.2801C24.4559 31.5017 23.9091 31.9851 23.6004 32.6216C22.9754 33.9249 23.2126 35.3115 24.6097 36.0248C24.6284 36.0327 24.6472 36.0407 24.666 36.0486C24.7317 36.1507 24.7763 36.1961 24.8688 36.2716C25.8573 37.0778 27.3259 36.7587 27.9218 35.6249C28.0284 35.4219 28.1728 35.0029 28.1066 34.779Z" fill="#83471E"/>
<path d="M28.1069 34.7788C27.3528 35.5777 26.7665 36.0947 25.5953 36.1252C25.2325 36.1347 25.0085 36.0808 24.6662 36.0484C24.732 36.1505 24.7765 36.1959 24.8691 36.2714C25.8576 37.0776 27.3262 36.7585 27.922 35.6247C28.0286 35.4217 28.173 35.0027 28.1069 34.7788Z" fill="#E09D3F"/>
<path d="M37.2477 15.2797C37.3746 15.0478 37.4934 14.8114 37.6039 14.571C38.0306 13.6489 38.0613 13.3027 37.7337 12.3095C37.5416 11.7274 36.9015 11.1809 36.3777 10.9169C35.7791 10.6388 35.128 10.6522 34.5258 10.8666C33.0539 11.3906 32.8724 12.5375 33.3788 13.9295C33.2711 14.1624 33.3098 14.4788 33.4073 14.7162C33.841 15.7715 34.684 16.5126 35.8536 16.4611C36.4336 16.4355 37.2316 15.8991 37.2477 15.2797Z" fill="#83471E"/>
<path d="M37.2479 15.2796C36.1199 16.4902 34.4286 15.59 33.6463 14.4347C33.5413 14.2797 33.4598 14.0991 33.3789 13.9294C33.2712 14.1623 33.3099 14.4787 33.4074 14.7161C33.8411 15.7714 34.6841 16.5125 35.8538 16.461C36.4337 16.4355 37.2317 15.899 37.2479 15.2796Z" fill="#E09D3F"/>
<path d="M22.5077 10.339C23.1179 9.76883 23.4498 9.33377 23.4206 8.43385C23.3505 6.26828 20.5303 5.64242 19.2027 7.07176C18.8159 7.48826 18.7122 8.08526 18.7436 8.64844C18.6129 8.73592 18.5724 8.78587 18.5047 8.92885C18.0189 9.95602 18.9398 10.9316 19.7634 11.393C20.3784 11.7375 21.1908 11.681 21.7587 11.2769C21.9899 11.1065 22.4596 10.6138 22.5077 10.339Z" fill="#83471E"/>
<path d="M18.7441 8.64844C18.6134 8.73591 18.5728 8.78586 18.5052 8.92884C18.0193 9.95601 18.9403 10.9316 19.7638 11.393C20.3788 11.7375 21.1912 11.681 21.7591 11.2769C21.9904 11.1065 22.46 10.6138 22.5081 10.339C21.993 10.5076 21.5534 10.6501 21.0049 10.6424C19.7147 10.6241 18.9627 9.91202 18.7441 8.64844Z" fill="#E09D3F"/>
<path d="M14.4576 33.0076C14.8403 32.4278 15.2071 31.7722 15.0289 31.0369C14.6857 29.6206 12.9948 28.607 11.604 28.8598C10.4568 29.0683 10.0335 30.6448 10.2181 31.6592C10.322 32.2289 10.6728 32.901 11.1577 33.2483C11.1733 33.3073 11.1868 33.3675 11.2196 33.4199C11.4712 33.8303 11.8722 34.1221 12.3347 34.2312C13.197 34.4335 14.2582 33.9042 14.4576 33.0076Z" fill="#83471E"/>
<path d="M14.4576 33.0076C13.5758 33.4395 12.9797 33.7891 11.9649 33.5055C11.7682 33.4503 11.3004 33.2803 11.1577 33.2483C11.1733 33.3073 11.1867 33.3675 11.2195 33.4199C11.4712 33.8303 11.8722 34.1221 12.3346 34.2312C13.197 34.4335 14.2581 33.9042 14.4576 33.0076Z" fill="#E09D3F"/>
<path d="M34.0566 24.9723C33.4822 24.9426 32.7987 25.1334 32.3403 25.4886C31.3807 26.2323 31.2937 27.7691 32.0165 28.7101C32.4323 29.2512 33.1521 29.5887 33.8049 29.6765C34.4796 29.7182 35.0496 29.6343 35.5979 29.1897C36.009 28.8523 36.2706 28.3613 36.3241 27.8262C36.4559 26.4938 35.3457 25.0894 34.0566 24.9723Z" fill="#83471E"/>
<path d="M29.3466 22.2825C28.9954 22.4434 28.6838 22.5526 28.2956 22.6002C28.1223 22.8913 27.8055 23.0045 27.5884 23.3808C27.4549 23.607 27.4182 23.8791 27.4868 24.1337C27.8418 25.4375 30.412 25.5941 31.4356 25.2077C31.8518 25.0506 32.3988 24.791 32.5863 24.35C33.2363 22.8213 31.0121 22.2911 29.9424 22.3525C29.7572 22.3632 29.4994 22.3721 29.3466 22.2825Z" fill="#F59973"/>
<path d="M29.8583 23.0507C29.7455 23.0484 29.7189 23.0426 29.6225 23.0989C29.5822 23.1564 29.5494 23.1888 29.5618 23.2735C29.6107 23.6072 30.1932 24.4015 30.4056 24.6032C31.2095 24.6444 30.044 23.2287 29.8583 23.0507Z" fill="#EB6D45"/>
<path d="M31.1931 23.179C30.3904 23.172 31.4735 24.2795 31.6639 24.4433C31.7558 24.4656 31.7718 24.4502 31.865 24.4129C32.0903 24.129 31.4216 23.359 31.1931 23.179Z" fill="#EB6D45"/>
<path d="M28.5986 23.1641C28.5135 23.177 28.5097 23.1805 28.4334 23.2238C28.2254 23.5472 28.8081 24.3041 29.0643 24.4759C29.745 24.2935 28.8195 23.4337 28.5986 23.1641Z" fill="#EB6D45"/>
<path d="M11.4565 22.4416C10.7532 22.3583 9.37982 22.4868 8.84859 22.9628C7.30997 24.3415 9.23231 25.3271 10.4494 25.4576C11.2982 25.5526 12.3387 25.3936 13.0361 24.865C13.5563 24.4708 13.7544 23.7952 13.3072 23.264C12.8722 22.7474 12.1012 22.5052 11.4565 22.4416Z" fill="#F59973"/>
<path d="M10.769 23.0212C10.7544 23.0252 10.7397 23.0295 10.7254 23.0341C10.1845 23.2059 11.1873 24.5632 11.4404 24.6971C11.5425 24.6467 11.7265 24.5444 11.6735 24.4064C11.5412 24.0612 11.0516 23.2078 10.769 23.0212Z" fill="#EB6D45"/>
<path d="M12.159 23.2654C11.407 23.3629 12.4275 24.3666 12.649 24.5597C13.302 24.3775 12.4077 23.4696 12.159 23.2654Z" fill="#EB6D45"/>
<path d="M9.65277 23.2651C9.00358 23.3253 9.86843 24.3945 10.0969 24.5614C10.7544 24.3523 9.89582 23.5131 9.65277 23.2651Z" fill="#EB6D45"/>
<path d="M21.1062 22.3373C20.0813 22.2005 19.0132 22.7727 18.4518 23.6449C18.2331 23.9899 17.7335 24.7846 18.1867 25.12C18.3869 25.2682 18.7316 25.1098 18.8343 24.8636C19.2074 23.9697 19.594 23.4982 20.5142 23.2303C20.8 23.1899 21.0911 23.2166 21.3653 23.3085C21.8894 23.4803 22.3238 23.869 22.5885 24.358C22.7348 24.6282 22.7591 25.0591 23.1069 25.1467C23.222 25.1754 23.3436 25.1549 23.4436 25.09C23.7244 24.9069 23.6577 24.572 23.5448 24.3129C23.0372 23.1471 22.3137 22.5823 21.1062 22.3373Z" fill="#5D2206"/>
<path d="M30.1252 5.02959C29.3612 4.86819 28.6147 5.37257 28.4631 6.15258C28.3115 6.93261 28.813 7.68895 29.5797 7.83653C30.3368 7.98226 31.0677 7.47889 31.2174 6.7086C31.3671 5.9383 30.8797 5.189 30.1252 5.02959Z" fill="#83471E"/>
<path d="M7.50799 9.14C7.28921 9.11853 7.14855 9.10261 6.9335 9.17127C6.33069 9.36268 5.90308 10.1219 6.12747 10.7418C6.25755 11.101 6.53515 11.2834 6.86099 11.4307C7.38039 11.4891 7.91225 11.2271 8.15966 10.7511C8.2941 10.4962 8.32243 10.1971 8.23871 9.9207C8.12263 9.54476 7.8413 9.31187 7.50799 9.14Z" fill="#83471E"/>
<path d="M40.036 20.0746C40.0812 20.4474 40.1125 20.7616 40.1087 21.1356C40.1047 21.5319 39.8123 23.0817 40.0621 23.3261L40.1237 23.3114C40.664 22.7383 40.7047 20.7592 40.507 20.0142C40.3429 20.0687 40.1932 20.1443 40.036 20.0746Z" fill="#F7E8C8"/>
<path d="M40.5069 20.0142C40.4542 19.5908 40.2677 18.4636 39.9164 18.2275C39.7016 18.4062 39.9824 19.7851 40.0359 20.0746C40.193 20.1443 40.3428 20.0687 40.5069 20.0142Z" fill="#FCFBFA"/>
</g>
<defs>
<clipPath id="clip0_1_7358">
<rect width="42.2" height="42.5" fill="white" transform="matrix(-1 0 0 1 42.2 0)"/>
</clipPath>
</defs>
</svg>
