<svg width="43" height="43" viewBox="0 0 43 43" fill="none" xmlns="http://www.w3.org/2000/svg">
<g clip-path="url(#clip0_1_7126)">
<path d="M22.4 42.4999C22.4764 42.4526 24.328 42.1078 24.6184 42.0324C25.2399 41.8703 25.8667 41.648 26.4936 41.4586C27.1408 41.2629 27.8145 41.0542 28.4665 40.8474C30.1356 40.3181 31.6088 39.9201 33.1239 38.9946C34.3825 38.2261 35.1187 37.3837 36.1348 36.3535C37.938 34.5254 39.6881 32.2015 40.4813 29.7135C40.7285 28.9384 40.8445 28.0284 41.0556 27.2191C41.2862 26.3351 41.5647 25.5064 41.7754 24.6137C41.9985 23.6684 42.1138 22.585 42.1394 21.6085C42.145 21.3941 42.0762 20.7714 42.0472 20.5322C41.6088 16.9067 40.3003 13.0407 38.4669 9.90608C38.102 9.28212 37.6255 8.54715 37.1984 7.98184C34.3164 4.16677 29.95 1.86406 25.4232 0.751477C22.9013 0.131667 20.3138 -0.091931 17.7287 0.270917C16.9853 0.375253 16.3227 0.555327 15.5966 0.736852C13.9248 1.15476 12.3456 1.81414 10.8714 2.73233C8.57279 4.16413 6.36943 5.90762 4.67583 8.05986C3.9392 8.99597 3.35474 10.0617 2.74166 11.0698C1.90482 12.4461 1.25657 13.7405 0.803452 15.3031C0.598675 16.0089 0.403858 16.9268 0.284977 17.6539C0.183834 18.2719 0.158005 19.0676 0.00831223 19.6805L-9.15527e-05 19.7137V23.9902L0.00893402 24.0257C0.140575 24.5582 0.170143 25.2491 0.234562 25.8057C0.311741 26.4244 0.431866 27.0368 0.593697 27.6383C1.51021 31.144 3.85455 35.0456 6.5683 37.3923C9.12426 39.5065 12.2567 40.692 15.4252 41.4681C16.204 41.6587 16.9508 41.9318 17.7425 42.1012C18.0282 42.1624 19.436 42.4206 19.5447 42.4999H22.4Z" fill="#5E2206"/>
<path d="M40.7232 25.441C40.8711 24.9184 41.0265 24.3887 41.1302 23.8556C41.7473 20.6823 40.8541 17.6267 39.7835 14.6747C39.397 13.6166 38.9571 12.5795 38.4656 11.5676C38.308 11.2351 38.1109 10.767 37.9291 10.4577C36.9936 8.86654 35.6588 7.2583 34.3183 6.01596C33.7338 5.47422 32.5891 4.69409 31.9268 4.29998C29.1102 2.62394 26.0141 1.40539 22.7602 1.02444C21.9983 0.944893 21.1469 0.798648 20.3843 0.835068C18.8692 0.907436 17.1387 1.08999 15.6772 1.49267C14.4134 1.84101 13.1386 2.32182 12.0044 2.98517C11.8262 3.08935 11.5067 3.26628 11.356 3.39838C11.3102 3.42191 11.1591 3.49372 11.131 3.52289C8.20153 5.21696 5.73426 7.63093 3.95414 10.5449C3.72976 10.9203 3.39397 11.3963 3.24957 11.7889C3.19168 11.9459 3.19697 12.3241 3.14687 12.5051C3.05444 12.5603 2.73669 12.7426 2.68596 12.8108C2.18243 13.4871 1.70815 14.8199 1.50119 15.6205C1.33034 16.2767 1.18749 16.9401 1.07265 17.6089C0.992985 17.9232 0.941013 18.4265 0.890598 18.7551C0.661549 20.2488 0.648479 21.742 0.708542 23.249C0.714767 23.4108 0.72628 24.0638 0.764557 24.1945C0.929497 25.5448 1.23822 27.2763 1.67702 28.5595C2.71242 31.5883 5.10811 35.2429 7.59779 37.2128L7.6121 37.2246C8.06958 37.4507 8.52799 37.8316 8.95715 38.0695C10.118 38.7136 11.3363 39.3439 12.5729 39.8244C12.6771 39.8646 12.9845 40.0042 13.0676 40.0131C13.3373 40.0422 14.7342 40.4622 15.0339 40.5507C16.4121 40.9845 17.798 41.3182 19.2091 41.604C22.1459 42.1983 24.922 41.1945 27.6777 40.2697C29.4889 39.6617 31.6129 39.1754 33.1912 38.0026C34.4207 37.0888 35.5722 35.8065 36.6286 34.6888C37.9354 33.2188 39.1716 31.1376 39.7783 29.2601C39.9066 28.8744 39.9994 28.4774 40.0557 28.0742C40.0926 27.8097 40.1482 27.2346 40.2125 26.9941C40.3631 26.4312 40.6198 26.0536 40.7232 25.441Z" fill="#F2C260"/>
<path d="M2.0233 23.9385C1.58449 24.1362 1.25803 24.2221 0.765076 24.1945C0.930016 25.5448 1.23874 27.2763 1.67754 28.5596C2.71294 31.5883 5.10863 35.2429 7.5983 37.2128L7.61262 37.2246C8.0701 37.4507 8.5285 37.8316 8.95766 38.0695C10.1185 38.7137 11.3368 39.3439 12.5734 39.8244C12.6776 39.8647 12.9851 40.0042 13.0681 40.0131C13.3378 40.0423 14.7347 40.4622 15.0344 40.5507C16.4126 40.9846 17.7985 41.3182 19.2097 41.604C22.1464 42.1983 24.9225 41.1945 27.6782 40.2697C29.4894 39.6617 31.6134 39.1755 33.1917 38.0026C34.4213 37.0888 35.5728 35.8065 36.6291 34.6888C37.9359 33.2188 39.1721 31.1377 39.7789 29.2601C39.9071 28.8744 39.9999 28.4774 40.0562 28.0742C40.0931 27.8097 40.1487 27.2346 40.213 26.9941C40.3637 26.4312 40.6203 26.0536 40.7237 25.441C40.5769 25.3943 40.4285 25.4751 40.2887 25.5418C39.4042 25.9641 39.5525 26.5817 39.2596 27.3882C39.0079 28.0812 38.6466 28.813 38.2892 29.4571C38.0375 29.9106 37.7769 30.4225 37.4982 30.8529C36.6225 32.2051 35.5143 33.5442 34.2768 34.5636C33.8287 34.9327 33.1413 35.2953 32.6298 35.5541C31.9758 35.8801 31.3161 36.1941 30.651 36.496C30.2101 36.6997 29.7739 36.9103 29.3219 37.0872C28.768 37.3045 28.2024 37.4146 27.6465 37.6261C27.2778 37.7666 26.9388 37.9563 26.5825 38.112C26.1716 38.2915 25.6785 38.5034 25.2542 38.6455C22.895 39.4358 20.4488 39.4799 18.0042 39.2091C16.9969 39.0977 15.8693 39.0219 14.9578 38.5554C14.2472 38.1916 13.926 37.6394 13.4044 37.0625C12.7594 36.3489 11.8283 35.784 10.927 35.4849C10.519 35.3498 10.0709 35.2604 9.65104 35.1183C9.12105 34.9385 8.64521 34.6346 8.22352 34.2597C7.35711 33.4785 6.61612 32.5115 5.89318 31.5961C4.77065 30.1751 3.61607 28.7406 2.9174 27.044C2.65785 26.4389 2.4898 25.8162 2.32112 25.1829C2.24114 24.8828 2.15089 24.1745 2.0233 23.9385Z" fill="#E19C3F"/>
<path d="M13.0674 40.0131C13.0739 39.9798 13.0798 39.9462 13.085 39.9123C13.4805 37.3194 9.36617 35.8827 7.61189 37.2246C8.06937 37.4507 8.52778 37.8317 8.95693 38.0695C10.1177 38.7137 11.3361 39.3439 12.5727 39.8244C12.6769 39.8647 12.9843 40.0042 13.0674 40.0131Z" fill="#7B3E19"/>
<path d="M1.0735 17.6089C0.993829 17.9232 0.941858 18.4265 0.891442 18.7551C0.662392 20.2488 0.649322 21.7419 0.709386 23.249C0.71561 23.4107 0.727122 24.0638 0.765401 24.1945C1.25836 24.2221 1.58482 24.1361 2.02362 23.9384C3.29398 23.2047 3.9914 21.6945 3.77822 20.2224C3.63133 19.2071 2.98961 17.9328 1.9203 17.7111C1.7261 17.6709 1.18802 17.6946 1.0735 17.6089Z" fill="#82461D"/>
<path d="M15.678 1.49268C14.4141 1.84102 13.1394 2.32183 12.0051 2.98517C11.827 3.08936 11.5074 3.26628 11.3567 3.39838C11.4552 3.50831 11.543 3.92906 11.6084 4.09259C11.9064 4.83847 12.513 5.39871 13.318 5.47663C13.9645 5.54663 14.3711 5.39033 14.9525 5.21139C15.8733 4.91268 16.6556 3.98574 16.553 2.96873C16.4804 2.24901 16.1939 1.93565 15.678 1.49268Z" fill="#82461D"/>
<path d="M11.3563 3.39844C11.3105 3.42197 11.1594 3.49378 11.1313 3.52296C11.2065 3.8516 11.0077 4.39738 11.0987 4.77623C11.2199 5.2803 11.5321 5.7203 11.9477 6.00971C12.4572 6.35923 13.0829 6.48625 13.685 6.36243C14.1612 6.26455 14.9956 5.77038 14.952 5.21144C14.3707 5.39039 13.964 5.54669 13.3176 5.47669C12.5125 5.39876 11.906 4.83852 11.608 4.09265C11.5426 3.92912 11.4547 3.50837 11.3563 3.39844Z" fill="#E19C3F"/>
<path d="M25.9701 14.5251C25.9273 14.535 25.9136 14.5541 25.8765 14.5836C25.6411 15.1097 25.9685 15.3671 26.394 15.5948C26.349 15.6278 26.3061 15.6637 26.2655 15.7022C25.0747 16.8165 24.8986 18.8029 26.0083 20.0171C26.6059 20.6672 27.4313 21.0503 28.3048 21.0829C29.1495 21.1102 30.0006 20.7252 30.6083 20.1383C31.3575 19.2981 31.5976 18.4241 31.3339 17.3126C31.3585 17.3078 31.383 17.3028 31.4075 17.2976C31.9764 17.1758 32.4958 16.7291 32.3538 16.0834C32.2318 15.996 31.9289 16.2531 31.7728 16.301C31.4885 16.3883 31.2129 16.3998 30.9201 16.421C30.1401 15.7181 29.2084 15.3306 28.1866 15.1438C27.165 14.957 26.9068 15.0694 25.9701 14.5251Z" fill="#5E2206"/>
<path d="M29.1615 16.1476C27.797 16.0209 27.6284 18.1273 29.0961 18.3084C30.3215 18.3149 30.9389 16.6189 29.1615 16.1476Z" fill="#FEFDFD"/>
<path d="M27.6352 18.5328C27.2363 18.4277 26.8297 18.6737 26.7294 19.081C26.6291 19.4883 26.8734 19.9009 27.2738 20.0002C27.67 20.0985 28.0699 19.8525 28.1692 19.4493C28.2685 19.0462 28.03 18.6369 27.6352 18.5328Z" fill="#FEFDFD"/>
<path d="M14.9615 14.5071C14.0237 15.0365 13.8951 14.9405 12.8726 15.119C11.6742 15.3283 10.8988 15.6504 9.97514 16.4296C9.53571 16.3864 9.2217 16.3716 8.83331 16.1452C8.74804 16.0954 8.60737 16.0238 8.51463 16.0535C8.50561 16.0732 8.48849 16.1085 8.49005 16.1314C8.53642 16.817 8.88279 17.2234 9.55376 17.2615C9.3826 18.3373 9.52202 19.2181 10.249 20.0544C10.8073 20.7467 11.7904 21.0824 12.6522 21.0651C13.478 21.045 14.2623 20.6924 14.8337 20.0845C15.7534 19.1075 15.8978 17.5659 15.1986 16.4095C14.9954 16.0735 14.7957 15.8719 14.5218 15.6027L14.5429 15.5893C14.9585 15.3214 15.2726 15.0234 14.9615 14.5071Z" fill="#5E2206"/>
<path d="M13.6471 16.1103C13.0538 15.9845 12.4731 16.3741 12.3519 16.9793C12.2308 17.5844 12.6153 18.1747 13.2095 18.2959C13.8006 18.4164 14.376 18.0271 14.4965 17.4252C14.6171 16.8233 14.2373 16.2354 13.6471 16.1103Z" fill="#FEFDFD"/>
<path d="M11.7504 18.5045C11.3503 18.4782 11.0029 18.7825 10.9683 19.1896C10.9338 19.5967 11.2245 19.9573 11.623 20.0017C11.8888 20.0312 12.1495 19.9119 12.3043 19.6897C12.4591 19.4675 12.4838 19.1774 12.3688 18.9314C12.2538 18.6854 12.0172 18.522 11.7504 18.5045Z" fill="#FEFDFD"/>
<path d="M37.0871 15.5708C37.0983 15.5555 37.1094 15.5401 37.1202 15.5245C38.1466 14.0465 38.3404 12.4398 36.7107 11.2952C36.1788 10.9212 35.5213 10.7819 34.8872 10.9089C33.6918 11.1485 32.7755 12.1345 33.0364 13.4249C32.8346 13.9038 32.8379 14.6122 33.0349 15.0939C33.5628 16.3849 34.972 17.0227 36.2619 16.5392C36.6123 16.4079 37.0863 15.9723 37.0871 15.5708Z" fill="#82461D"/>
<path d="M37.0865 15.571C35.7111 16.6605 34.1862 15.6358 33.3898 14.3334C33.2457 14.0977 33.1187 13.6949 33.0358 13.425C32.834 13.904 32.8373 14.6124 33.0343 15.0941C33.5622 16.3851 34.9714 17.0228 36.2613 16.5394C36.6117 16.4081 37.0858 15.9724 37.0865 15.571Z" fill="#E19C3F"/>
<path d="M28.1103 34.891C28.2645 34.602 28.4306 34.2963 28.4659 33.9544C28.57 32.9499 27.9664 32.1472 27.1532 31.6531C25.8911 30.886 24.3377 31.4159 23.6418 32.687C22.9324 33.9829 23.2759 35.6052 24.6851 36.2059C24.714 36.2367 24.7435 36.2674 24.7733 36.2976C26.0189 37.5507 28.1603 36.5919 28.1103 34.891Z" fill="#82461D"/>
<path d="M28.11 34.8909C27.3412 35.7015 26.7865 36.2284 25.5645 36.2823C25.2315 36.2969 25.0013 36.2376 24.6848 36.2058C24.7138 36.2366 24.7432 36.2674 24.7731 36.2975C26.0187 37.5506 28.16 36.5918 28.11 34.8909Z" fill="#E19C3F"/>
<path d="M14.4142 33.1839C14.8198 32.6504 15.1338 32.0126 15.0356 31.3212C14.8784 30.2311 13.8075 29.3521 12.8153 29.056C12.1537 28.8587 11.1556 28.8984 10.7067 29.5525C9.89324 30.7381 9.96856 32.4335 11.1245 33.3675C11.1471 33.3859 11.171 33.3992 11.1967 33.4126C11.2147 33.6108 11.3523 33.7957 11.499 33.9346C12.313 34.7053 13.6164 34.575 14.2288 33.6143C14.3137 33.4811 14.4142 33.3479 14.4142 33.1839Z" fill="#82461D"/>
<path d="M14.4148 33.1838C13.3269 33.7008 12.7605 34.0009 11.5379 33.5476C11.4237 33.5048 11.3102 33.4598 11.1974 33.4125C11.2154 33.6107 11.353 33.7956 11.4997 33.9346C12.3137 34.7053 13.6171 34.5749 14.2295 33.6142C14.3144 33.481 14.4149 33.3478 14.4148 33.1838Z" fill="#E19C3F"/>
<path d="M22.5006 10.4856C23.647 9.81574 23.7885 8.04717 22.845 7.13811C22.3715 6.68523 21.7411 6.44213 21.0921 6.46208C19.6877 6.5021 18.7491 7.31303 18.8041 8.7854C18.6668 8.85708 18.5439 9.00491 18.5066 9.15537C18.0524 10.9881 20.3199 12.1856 21.7794 11.3748C22.0818 11.2068 22.3302 10.9246 22.5139 10.6375C22.5301 10.6101 22.5099 10.5208 22.5006 10.4856Z" fill="#82461D"/>
<path d="M18.8039 8.78516C18.6666 8.85684 18.5437 9.00467 18.5065 9.15513C18.0522 10.9878 20.3197 12.1853 21.7792 11.3745C22.0816 11.2066 22.33 10.9244 22.5137 10.6372C22.53 10.6099 22.5097 10.5205 22.5004 10.4853C20.8095 11.2425 19.1853 10.7573 18.8039 8.78516Z" fill="#E19C3F"/>
<path d="M34.0509 25.1306C33.4895 25.0969 32.8204 25.2727 32.3635 25.6005C31.3979 26.2934 31.2508 27.7999 31.922 28.7532C32.356 29.3698 32.9668 29.6738 33.6711 29.806C34.3299 29.8866 34.9397 29.8086 35.4865 29.3946C35.9128 29.075 36.1942 28.5934 36.2668 28.0591C36.461 26.7023 35.3464 25.3072 34.0509 25.1306Z" fill="#82461D"/>
<path d="M31.3529 20.9451C30.7201 20.8676 29.8315 21.0058 29.3013 21.3795C28.7822 21.7454 28.493 22.3536 28.9209 22.9241C29.3279 23.4668 30.0136 23.6256 30.6471 23.724C31.4694 23.7558 32.236 23.6903 32.9371 23.1654C33.1472 22.9993 33.3907 22.6808 33.3974 22.3959C33.4219 21.3652 32.1017 21.018 31.3529 20.9451Z" fill="#F59B6A"/>
<path d="M10.4709 20.9453C9.74978 20.8896 9.01439 20.9904 8.41624 21.4413C7.91769 21.82 7.71011 22.4497 8.1539 22.965C8.61387 23.4989 9.29541 23.6557 9.95642 23.7174C10.722 23.7373 11.4996 23.6938 12.1284 23.1726C13.0091 22.4423 12.4356 21.5362 11.5774 21.1552C11.2025 20.9888 10.872 20.9808 10.4709 20.9453Z" fill="#F59B6A"/>
<path d="M30.1487 5.20429C29.3934 5.03153 28.6443 5.51781 28.4787 6.28846C28.3131 7.05907 28.7941 7.81995 29.5511 7.98471C30.3026 8.14828 31.0425 7.66238 31.2069 6.89741C31.3713 6.13244 30.8984 5.37582 30.1487 5.20429Z" fill="#82461D"/>
<path d="M23.273 21.7225C22.5823 21.6834 23.1918 22.5344 22.4748 22.7989C22.0025 22.9786 21.4702 22.8332 21.1494 22.4368C20.9962 22.2445 20.8989 21.9558 20.6888 21.8567C20.3293 21.8181 20.3013 22.4089 19.9273 22.6508C19.5494 22.8952 19.3515 22.899 18.9387 22.8515C18.2589 22.7733 18.4536 22.2926 18.207 21.8518C18.1615 21.803 18.1057 21.7765 18.0454 21.7796C17.7045 21.7975 17.7364 22.056 17.7359 22.3171C17.7498 22.5189 17.8065 22.7035 17.9257 22.8653C18.6337 23.8258 19.9611 23.6057 20.6494 22.7687C22.3916 24.6542 24.1816 22.3158 23.273 21.7225Z" fill="#5E2206"/>
<path d="M7.47209 9.29751C6.0038 9.21552 5.48782 11.1056 6.89013 11.6029C7.44906 11.6302 7.97158 11.3666 8.20187 10.8262C8.31329 10.5675 8.3192 10.2741 8.21775 10.0111C8.08704 9.67865 7.79014 9.43202 7.47209 9.29751Z" fill="#82461D"/>
<path d="M12.5261 11.8085C11.6658 11.7128 10.4413 12.1137 10.1297 13.0328C9.99593 13.4273 10.2082 13.7946 10.6286 13.441C11.0466 13.101 11.6028 12.7022 12.1928 12.7641C12.5256 12.799 13.6567 12.8949 13.2277 12.1236C13.1037 11.9005 12.7687 11.8399 12.5261 11.8085Z" fill="#5E2206"/>
<path d="M28.8944 11.8066C28.2844 11.733 27.0402 11.9369 27.8561 12.7766C28.7046 12.8311 29.0603 12.6095 29.8604 13.1374C30.0966 13.3029 30.4561 13.6867 30.7547 13.5275C30.9414 13.3231 30.7834 12.9445 30.6417 12.7529C30.2177 12.1796 29.5718 11.9159 28.8944 11.8066Z" fill="#5E2206"/>
<path d="M40.469 20.031C40.4313 20.3138 40.2869 20.362 40.0121 20.3632C40.1345 21.2217 39.9831 22.0018 39.9297 22.8547C39.9201 23.0076 39.8972 23.3678 39.9915 23.4756L40.0567 23.4746C40.7377 22.9825 40.5893 20.7902 40.469 20.031Z" fill="#F7E3BC"/>
<path d="M40.4688 20.0311C40.38 19.4281 40.2198 18.7542 39.8345 18.2693C39.791 18.9999 39.9008 19.6448 40.0119 20.3633C40.2867 20.3621 40.4311 20.3139 40.4688 20.0311Z" fill="#FEFDFD"/>
<path d="M28.2902 2.62158L28.2342 2.6379L28.2411 2.66393C28.5326 2.8248 29.6768 3.20348 29.7022 3.49026C29.7795 4.36284 28.4091 3.17744 27.8563 3.33678C28.0326 3.50564 29.521 4.1838 29.6992 3.79594C30.0351 3.06491 28.7181 2.94445 28.2902 2.62158Z" fill="#F7E3BC"/>
<path d="M35.0208 7.3894L35.0024 7.40225L35.0529 7.49546C34.9378 7.64193 34.8612 7.78713 34.9033 7.97895C35.02 8.16091 35.1343 8.1742 35.3352 8.22913L35.347 8.25663C35.3517 8.24895 35.4006 7.96572 35.4026 7.94181C35.4251 7.67013 35.1399 7.55845 35.0208 7.3894Z" fill="#F7E3BC"/>
</g>
<defs>
<clipPath id="clip0_1_7126">
<rect width="42.2" height="42.5" fill="white" transform="matrix(-1 0 0 1 42.2 0)"/>
</clipPath>
</defs>
</svg>
