<svg width="256" height="274" viewBox="0 0 256 274" fill="none" xmlns="http://www.w3.org/2000/svg">
<g filter="url(#filter0_d_88_12627)">
<circle cx="128" cy="125.679" r="119" fill="#FEF4D2"/>
<g filter="url(#filter1_d_88_12627)">
<path d="M128 11.9037C128 6.80888 123.864 2.64269 118.783 3.02432C91.1663 5.09877 64.9535 16.4491 44.4887 35.3745C21.7585 56.3948 7.79136 85.2139 5.37515 116.079C2.95895 146.945 12.2714 177.586 31.4537 201.888C50.636 226.189 78.2772 242.363 108.86 247.18C139.443 251.998 170.718 245.105 196.442 227.878C222.166 210.651 240.448 184.356 247.637 154.243C254.827 124.129 250.396 92.4119 235.229 65.4216C221.574 41.1213 200.12 22.2621 174.478 11.7979C169.761 9.87285 164.544 12.5656 162.978 17.4137V17.4137C161.411 22.2618 164.093 27.424 168.784 29.4114C190.014 38.4049 207.765 54.2098 219.145 74.4602C232.037 97.4019 235.803 124.362 229.692 149.958C223.58 175.555 208.041 197.905 186.176 212.548C164.31 227.191 137.726 233.05 111.731 228.955C85.7356 224.86 62.2406 211.113 45.9357 190.456C29.6307 169.8 21.7151 143.755 23.7689 117.519C25.8226 91.2836 37.6947 66.7874 57.0154 48.9201C74.0694 33.1489 95.8196 23.5665 118.786 21.5353C123.861 21.0864 128 16.9985 128 11.9037V11.9037Z" fill="url(#paint0_linear_88_12627)"/>
</g>
</g>
<g filter="url(#filter2_d_88_12627)">
<rect x="70" y="212.679" width="125" height="57" rx="24.7826" fill="#FEF4D2" shape-rendering="crispEdges"/>
<rect x="72.5" y="215.179" width="120" height="52" rx="22.2826" stroke="#FED16A" stroke-width="5" shape-rendering="crispEdges"/>
<path d="M110.945 256.699C109.086 256.699 107.476 256.365 106.112 255.695C104.774 255.026 103.671 254.258 102.804 253.391L106.298 249.413C106.769 249.933 107.389 250.392 108.157 250.788C108.95 251.16 109.731 251.346 110.499 251.346C111.242 251.346 111.936 251.185 112.581 250.863C113.25 250.541 113.82 250.02 114.291 249.302C114.786 248.583 115.171 247.629 115.443 246.439C115.716 245.25 115.852 243.775 115.852 242.015C115.852 239.612 115.641 237.753 115.22 236.439C114.824 235.126 114.303 234.221 113.659 233.726C113.039 233.205 112.382 232.945 111.689 232.945C111.119 232.945 110.586 233.094 110.09 233.391C109.594 233.688 109.198 234.159 108.901 234.804C108.603 235.448 108.454 236.303 108.454 237.369C108.454 238.36 108.603 239.153 108.901 239.748C109.198 240.343 109.594 240.776 110.09 241.049C110.611 241.297 111.181 241.421 111.8 241.421C112.494 241.421 113.188 241.21 113.882 240.789C114.601 240.367 115.232 239.661 115.778 238.67L116.112 242.945C115.666 243.589 115.109 244.147 114.439 244.618C113.795 245.088 113.126 245.448 112.432 245.696C111.738 245.943 111.106 246.067 110.536 246.067C109 246.067 107.612 245.758 106.373 245.138C105.158 244.518 104.192 243.564 103.473 242.276C102.779 240.987 102.432 239.351 102.432 237.369C102.432 235.411 102.841 233.738 103.659 232.35C104.502 230.938 105.617 229.86 107.005 229.116C108.392 228.373 109.904 228.001 111.54 228.001C112.853 228.001 114.117 228.261 115.332 228.782C116.571 229.302 117.674 230.12 118.64 231.235C119.631 232.35 120.412 233.8 120.982 235.584C121.577 237.369 121.874 239.512 121.874 242.015C121.874 244.518 121.577 246.699 120.982 248.558C120.387 250.392 119.569 251.916 118.529 253.13C117.488 254.32 116.311 255.212 114.997 255.807C113.708 256.402 112.358 256.699 110.945 256.699ZM133.895 256.699C132.433 256.699 131.107 256.526 129.918 256.179C128.728 255.857 127.663 255.41 126.721 254.84C125.804 254.246 124.974 253.589 124.23 252.87L127.241 248.707C127.762 249.202 128.319 249.648 128.914 250.045C129.509 250.442 130.141 250.764 130.81 251.012C131.504 251.235 132.21 251.346 132.929 251.346C133.821 251.346 134.589 251.185 135.234 250.863C135.878 250.541 136.374 250.057 136.721 249.413C137.092 248.769 137.278 247.976 137.278 247.034C137.278 245.646 136.894 244.593 136.126 243.874C135.382 243.131 134.416 242.759 133.226 242.759C132.458 242.759 131.814 242.858 131.293 243.056C130.798 243.23 130.141 243.577 129.323 244.097L126.423 242.201L127.13 228.484H142.668V234.023H132.817L132.408 238.707C132.904 238.509 133.375 238.372 133.821 238.298C134.267 238.199 134.75 238.149 135.271 238.149C136.832 238.149 138.269 238.459 139.583 239.079C140.896 239.698 141.937 240.652 142.706 241.941C143.499 243.23 143.895 244.878 143.895 246.885C143.895 248.942 143.424 250.714 142.483 252.201C141.566 253.663 140.351 254.778 138.839 255.547C137.328 256.315 135.68 256.699 133.895 256.699ZM156.422 243.679H159.922V245.839H156.422V243.679ZM159.222 239.439H161.902V250.139H159.222V239.439ZM149.542 250.879H161.902V257.759H149.542V250.879ZM159.282 252.959H152.162V255.659H159.282V252.959ZM150.682 241.139H152.842V242.319C152.842 243.479 152.655 244.585 152.282 245.639C151.909 246.692 151.335 247.619 150.562 248.419C149.802 249.205 148.822 249.792 147.622 250.179L146.302 248.079C147.062 247.825 147.715 247.499 148.262 247.099C148.822 246.685 149.275 246.219 149.622 245.699C149.982 245.179 150.249 244.632 150.422 244.059C150.595 243.485 150.682 242.905 150.682 242.319V241.139ZM151.242 241.139H153.362V242.299C153.362 243.019 153.509 243.739 153.802 244.459C154.095 245.165 154.549 245.805 155.162 246.379C155.789 246.952 156.589 247.405 157.562 247.739L156.262 249.819C155.115 249.432 154.169 248.859 153.422 248.099C152.689 247.339 152.142 246.459 151.782 245.459C151.422 244.459 151.242 243.405 151.242 242.299V241.139ZM147.022 240.359H156.982V242.479H147.022V240.359Z" fill="#5D3300"/>
</g>
<defs>
<filter id="filter0_d_88_12627" x="0" y="0" width="256" height="255.679" filterUnits="userSpaceOnUse" color-interpolation-filters="sRGB">
<feFlood flood-opacity="0" result="BackgroundImageFix"/>
<feColorMatrix in="SourceAlpha" type="matrix" values="0 0 0 0 0 0 0 0 0 0 0 0 0 0 0 0 0 0 127 0" result="hardAlpha"/>
<feOffset dy="2"/>
<feGaussianBlur stdDeviation="2.5"/>
<feComposite in2="hardAlpha" operator="out"/>
<feColorMatrix type="matrix" values="0 0 0 0 0 0 0 0 0 0 0 0 0 0 0 0 0 0 0.2 0"/>
<feBlend mode="normal" in2="BackgroundImageFix" result="effect1_dropShadow_88_12627"/>
<feBlend mode="normal" in="SourceGraphic" in2="effect1_dropShadow_88_12627" result="shape"/>
</filter>
<filter id="filter1_d_88_12627" x="1" y="3" width="254" height="253.679" filterUnits="userSpaceOnUse" color-interpolation-filters="sRGB">
<feFlood flood-opacity="0" result="BackgroundImageFix"/>
<feColorMatrix in="SourceAlpha" type="matrix" values="0 0 0 0 0 0 0 0 0 0 0 0 0 0 0 0 0 0 127 0" result="hardAlpha"/>
<feOffset dy="4"/>
<feGaussianBlur stdDeviation="2"/>
<feComposite in2="hardAlpha" operator="out"/>
<feColorMatrix type="matrix" values="0 0 0 0 0 0 0 0 0 0 0 0 0 0 0 0 0 0 0.25 0"/>
<feBlend mode="normal" in2="BackgroundImageFix" result="effect1_dropShadow_88_12627"/>
<feBlend mode="normal" in="SourceGraphic" in2="effect1_dropShadow_88_12627" result="shape"/>
</filter>
<filter id="filter2_d_88_12627" x="68.7609" y="211.44" width="129.957" height="61.9565" filterUnits="userSpaceOnUse" color-interpolation-filters="sRGB">
<feFlood flood-opacity="0" result="BackgroundImageFix"/>
<feColorMatrix in="SourceAlpha" type="matrix" values="0 0 0 0 0 0 0 0 0 0 0 0 0 0 0 0 0 0 127 0" result="hardAlpha"/>
<feOffset dx="1.23913" dy="1.23913"/>
<feGaussianBlur stdDeviation="1.23913"/>
<feComposite in2="hardAlpha" operator="out"/>
<feColorMatrix type="matrix" values="0 0 0 0 0 0 0 0 0 0 0 0 0 0 0 0 0 0 0.25 0"/>
<feBlend mode="normal" in2="BackgroundImageFix" result="effect1_dropShadow_88_12627"/>
<feBlend mode="normal" in="SourceGraphic" in2="effect1_dropShadow_88_12627" result="shape"/>
</filter>
<linearGradient id="paint0_linear_88_12627" x1="128" y1="2.67871" x2="140.629" y2="-8.85254" gradientUnits="userSpaceOnUse">
<stop offset="1" stop-color="#FED16A"/>
</linearGradient>
</defs>
</svg>
