<svg width="95" height="201" viewBox="0 0 95 201" fill="none" xmlns="http://www.w3.org/2000/svg">
<path d="M45.2836 106.214L45.2942 0H49.5761L49.5877 126.565C50.6149 127.357 50.6424 128.014 50.6515 129.166C50.6601 130.234 50.6195 131.308 50.5961 132.376C54.0012 132.487 58.2107 133.58 60.6332 135.699C63.9131 138.568 63.4624 142.065 63.4646 145.757C64.8075 146.08 66.1599 146.562 67.4372 147.042C78.3902 151.158 86.2747 159.08 90.5705 168.561C92.6382 173.124 96.581 186.463 94.323 190.757C92.7309 193.786 88.2705 195.476 84.8553 196.574C66.6179 202.435 25.1936 202.779 7.35024 195.77C4.70565 194.731 1.43346 193.051 0.402302 190.592C-0.246678 189.044 0.0526153 187.256 0.186389 185.647C0.770026 178.625 2.57961 171.477 6.1217 165.108C11.3209 155.757 20.116 149.276 31.4308 145.845C31.4036 142.305 31.0915 138.668 34.0691 135.828C36.4208 133.586 40.7469 132.522 44.1852 132.387C44.1737 131.342 44.1322 130.294 44.128 129.249C44.1233 128.068 44.1808 127.374 45.301 126.624C45.1841 124.882 45.3159 122.444 45.307 120.621L45.2836 106.214Z" fill="#5D3300"/>
<path d="M46.6548 126.32L46.661 0H48.1835L48.1876 126.318L46.6548 126.32Z" fill="#FFD95E"/>
<path d="M44.9167 144.94C53.9625 144.757 62.1147 145.787 70.0264 149.775C72.0476 150.793 75.7664 152.826 77.2767 154.345C86.9278 161.455 92.1329 174.486 92.9445 185.101C93.0705 186.742 93.1631 188.441 92.9778 190.082C92.6085 189.38 92.4282 189.013 91.9131 188.368C91.1435 187.628 90.4605 187.197 89.5514 186.618C88.1407 185.882 86.8178 185.381 85.309 184.818C67.0854 178.958 32.6072 178.81 13.9854 183.645C11.8819 184.042 8.21163 185.325 6.31385 186.226C4.29132 187.186 2.64416 188.173 1.98283 190.138C1.9606 189.834 1.94405 189.529 1.93318 189.223C1.83128 186.33 2.26137 183.225 2.78374 180.363C4.43275 171.329 8.0802 162.907 15.4639 156.168C22.8528 149.424 34.1659 145.214 44.9167 144.94Z" fill="#FFD95E"/>
<path d="M1.98283 190.138C1.9606 189.834 1.94405 189.529 1.93318 189.223C1.83128 186.33 2.26137 183.225 2.78374 180.363C4.43275 171.329 8.0802 162.907 15.4639 156.168C22.8528 149.424 34.1659 145.214 44.9167 144.94L44.9314 145.179C44.3793 145.556 41.0621 146.097 40.0275 146.366C38.739 146.695 37.4751 147.091 36.2431 147.553C22.024 152.97 16.1711 163.874 14.4685 176.642C14.1536 178.967 13.9923 181.305 13.9854 183.645C11.8819 184.042 8.21163 185.325 6.31385 186.226C4.29132 187.186 2.64416 188.173 1.98283 190.138Z" fill="#F4BF45"/>
<path d="M63.9808 148.851C64.5186 148.872 65.7366 148.868 66.195 149.001C69.3241 149.91 73.3758 153.124 75.5439 155.147C82.8302 161.949 86.9278 171.639 88.6991 180.627C89.0339 182.326 89.6045 184.933 89.5514 186.618C88.1407 185.882 86.8178 185.381 85.309 184.818C85.0834 182.312 84.5743 179.891 83.9882 177.435C81.2478 165.951 76.157 155.158 63.9808 148.851Z" fill="#FEF2AE"/>
<path d="M91.9131 188.368C91.6821 179.278 87.2144 166.816 81.2151 159.327C79.9147 157.704 77.8038 155.497 76.3045 153.955C76.6541 154.125 76.8117 154.198 77.19 154.317L77.2767 154.345C86.9278 161.455 92.1329 174.486 92.9445 185.101C93.0705 186.742 93.1631 188.441 92.9778 190.082C92.6085 189.38 92.4282 189.013 91.9131 188.368Z" fill="#FEF2AE"/>
<path d="M33.2982 182.107C39.6426 181.597 46.0185 181.435 52.3869 181.625C55.4958 181.717 58.6242 182.023 61.5792 182.112C61.8528 182.134 62.3129 182.184 62.5707 182.187C69.6366 182.872 86.9266 184.717 90.9126 189.824C93.0112 194.139 77.4629 197.181 74.1445 197.676C55.2379 200.496 34.8752 200.553 16.137 196.822C13.4117 196.28 0.992128 193.293 4.29706 189.404C8.85597 184.89 24.642 182.85 31.6081 182.256C31.9111 182.186 32.9292 182.134 33.2982 182.107Z" fill="#F9C356"/>
<path d="M33.2982 182.107C39.6426 181.597 46.0185 181.435 52.3869 181.625C55.4958 181.717 58.6242 182.023 61.5792 182.112C61.5819 182.176 61.5837 182.24 61.5845 182.304C61.6416 186.118 60.3011 189.656 57.1413 192.402C54.6118 194.611 51.1551 195.854 47.5484 195.852C43.8191 195.876 40.2337 194.616 37.5945 192.351C34.146 189.376 33.2725 186.167 33.2982 182.107Z" fill="#FEFEF3"/>
<path d="M90.9126 189.824C93.0112 194.139 77.4629 197.181 74.1445 197.676C55.2379 200.496 34.8752 200.553 16.137 196.822C13.4117 196.28 0.992128 193.293 4.29706 189.404C4.30657 190.422 4.58276 191.048 5.43172 191.767C10.2379 195.832 28.8265 197.543 35.7897 197.985C40.3301 198.283 44.8842 198.4 49.4373 198.334C58.4281 198.197 83.8275 196.506 89.9986 191.028C90.3877 190.679 90.6977 190.271 90.9126 189.824Z" fill="#FFD95E"/>
<path d="M36.6894 135.659C42.0964 132.401 55.8752 132.404 60.1101 137.243C62.1757 139.759 61.8828 142.359 61.8832 145.341L60.8617 145.081C60.0541 144.877 59.4219 144.743 58.6051 144.589C57.9273 144.454 57.1902 144.347 56.5026 144.235C52.7661 143.549 47.5553 143.529 43.7292 143.682C39.5823 144.006 37.0014 144.334 32.9947 145.427C32.8915 141.943 32.828 137.776 36.6894 135.659Z" fill="#FFD95E"/>
<path d="M36.6894 135.659C36.6984 135.664 36.7075 135.669 36.7165 135.674C36.7968 135.692 36.877 135.71 36.9573 135.728C38.0822 135.024 39.7111 134.46 41.0217 134.195C41.7383 134.05 42.7983 133.835 43.1739 134.029C42.741 134.594 38.7213 134.981 38.2461 135.51L38.3526 135.596C38.7691 135.452 39.3533 135.168 39.7187 135.076C40.997 134.756 42.4594 134.558 43.7766 134.346C43.9657 134.803 43.7679 142.602 43.7292 143.682C39.5823 144.006 37.0014 144.334 32.9947 145.427C32.8915 141.943 32.828 137.776 36.6894 135.659Z" fill="#F2BA41"/>
<path d="M36.6894 135.659C42.0964 132.401 55.8752 132.404 60.1101 137.243C62.1757 139.759 61.8828 142.359 61.8832 145.341L60.8617 145.081C60.0541 144.877 59.4219 144.743 58.6051 144.589C57.9273 144.454 57.1902 144.347 56.5026 144.235C56.4662 141.339 56.3192 138.528 55.5933 135.688C52.7176 134.897 50.0444 134.305 47.0158 134.242C46.3893 134.229 44.2346 134.103 43.7766 134.346C42.4594 134.558 40.997 134.756 39.7187 135.076C39.3533 135.168 38.7691 135.452 38.3526 135.596L38.2461 135.51C38.7213 134.981 42.741 134.594 43.1739 134.029C42.7983 133.835 41.7383 134.05 41.0217 134.195C39.7111 134.46 38.0822 135.024 36.9573 135.728C36.877 135.71 36.7968 135.692 36.7165 135.674C36.7075 135.669 36.6984 135.664 36.6894 135.659Z" fill="#FFF1A3"/>
<path d="M58.477 136.863C59.0539 137.409 59.5905 137.879 59.9152 138.562C60.0229 138.402 60.0604 137.553 60.1101 137.243C62.1757 139.759 61.8828 142.359 61.8832 145.341L60.8617 145.081C60.0541 144.877 59.4219 144.743 58.6051 144.589C58.6397 142.016 58.5007 139.444 58.477 136.863Z" fill="#FFD95E"/>
<path d="M60.1101 137.243C62.1757 139.759 61.8828 142.359 61.8832 145.341L60.8617 145.081C60.5144 142.284 60.7389 141.557 59.9152 138.562C60.0229 138.402 60.0604 137.553 60.1101 137.243Z" fill="#FFD95E"/>
<path d="M45.5969 132.322C45.6269 131.326 45.5437 130.361 45.5338 129.371C45.5196 127.939 45.768 127.409 47.4208 127.281C47.9165 127.334 48.564 127.366 48.8499 127.744C49.5555 128.678 49.1884 131.092 49.2018 132.297C48.626 132.254 47.9925 132.194 47.4203 132.19C46.736 132.19 46.2793 132.245 45.5969 132.322Z" fill="#FFD95E"/>
<path d="M45.5969 132.322C45.6269 131.326 45.5437 130.361 45.5338 129.371C45.5196 127.939 45.768 127.409 47.4208 127.281C47.3334 128.753 47.3662 130.701 47.4203 132.19C46.736 132.19 46.2793 132.245 45.5969 132.322Z" fill="#F2BA41"/>
</svg>
