<svg width="115" height="159" viewBox="0 0 115 159" fill="none" xmlns="http://www.w3.org/2000/svg">
<path d="M62.3474 0.494159C65.5075 -0.256254 67.7438 -0.0364938 70.8981 0.392921C72.6126 0.610192 75.6588 0.941595 77.2067 1.55444C79.6199 1.87236 88.5331 4.69908 90.9829 5.89093C93.1754 6.93011 94.2964 7.60815 96.3077 9.07747C98.2561 10.5191 99.5044 11.643 98.3073 14.2203C96.619 18.2023 94.8826 22.1639 93.1008 26.1045C92.3349 27.8427 91.6421 29.6699 90.8528 31.3839C90.6628 32.0451 90.3704 32.9927 89.9612 33.5549C89.7755 34.2188 89.5899 34.4606 89.7346 35.0576L90.1673 35.2217C93.5612 35.7576 97.3733 37.6369 99.6447 40.2315C101.277 42.362 101.362 44.8786 98.8963 46.439L98.6537 46.8397C101.861 50.0162 107.957 58.8858 108.359 63.292C109.838 64.7417 110.224 65.8706 110.875 67.8408C113.168 74.7913 114.294 81.9929 113.868 89.3164C113.731 91.6929 113.935 92.0544 114.579 94.2244C115.054 96.3486 115.172 99.1821 114.7 101.334C114.374 102.902 113.881 104.723 113.121 106.143C112.314 107.719 111.613 108.784 110.522 110.202C109.134 111.751 107.633 113.38 105.849 114.485C103.055 116.243 102.531 117.254 100.412 119.781C99.4547 120.924 97.6934 122.412 96.562 123.499C93.6899 126.261 91.7254 128.887 87.6751 129.77C88.6617 134.531 88.6661 139.801 87.9309 144.595C87.7599 145.672 87.6064 146.475 87.3477 147.533C87.9061 147.71 88.5185 147.887 89.0637 148.088C90.1395 148.593 90.806 148.952 91.7327 149.717C92.5045 150.507 93.0219 151.088 93.5159 152.093C93.8784 153.11 94.0187 153.803 93.9574 154.896C93.7206 156.059 93.5963 156.305 92.7369 157.146C91.6026 157.823 90.2403 158.395 88.919 158.541C84.9476 159.433 74.1532 159.268 71.6333 155.821C71.4477 155.361 71.3337 154.849 71.2094 154.366C71.0794 152.813 71.0837 151.929 71.1583 150.411C71.2387 149.156 71.4506 147.601 71.5953 146.333C71.9096 142.604 71.9739 139.28 71.5997 135.537C63.5752 138.625 58.2372 139.585 49.857 136.712C49.5524 139.488 49.504 142.288 49.7126 145.073C49.9271 148.031 51.2824 155.01 48.6535 156.865C46.0143 158.726 40.6301 158.862 37.4015 158.877C34.8023 158.811 31.5359 158.642 29.2576 157.457C25.7259 155.618 27.068 151.572 29.5613 149.556C30.9921 148.4 32.1211 147.922 33.8555 147.439C33.4806 146.078 33.2497 144.475 33.0687 143.076C32.9249 141.432 32.759 139.819 32.753 138.169C32.8105 137.166 32.8572 136.21 32.9832 135.211C33.0299 133.921 33.346 132.782 33.301 131.53C33.289 131.196 33.0354 131.118 32.7447 130.917C33.3399 129.546 33.6018 130.18 32.9376 128.52L31.2471 127.213C30.2331 126.75 29.9412 127.021 28.9949 127.474C26.2106 125.867 24.4474 125.06 22.2365 122.396C21.3821 121.366 20.6513 119.828 19.6068 119.041C16.4358 119.69 15.3938 118.807 13.6848 116.224C13.3371 116.096 12.9909 115.965 12.6459 115.828C7.66761 113.864 3.57129 110.198 1.44778 105.234C-0.441713 100.838 -0.483371 95.8622 1.33246 91.434C2.10977 89.5051 3.49338 87.2277 5.48008 86.3868C5.63984 85.799 5.82649 81.1235 6.02923 79.825C7.32119 71.5514 8.26528 65.2504 12.3727 57.8002C16.0327 51.1617 20.7345 45.6246 26.7858 41.0087C27.94 39.9545 30.133 39.1101 31.2272 38.1829C34.6564 35.2766 36.695 34.2364 40.9622 32.9048C41.9481 32.5728 42.7602 32.5117 43.7813 32.3889C43.03 30.2092 42.1515 28.8953 44.1009 26.9573C46.8014 23.9967 54.2278 25.6455 57.7402 26.2863L57.8761 25.7892C57.9331 24.6275 58.262 23.0256 58.4681 21.847C58.509 21.0866 58.5514 20.7208 58.6932 19.9731C59.5439 13.8801 60.0072 7.77414 60.9076 1.69567C60.9836 1.18304 61.9235 0.716412 62.3474 0.494159Z" fill="#F5C25A"/>
<path d="M52.4244 99.3183L53.0016 99.0297C53.2825 99.2333 53.3287 99.2846 53.5698 99.5381L55.6471 99.6465C55.6369 100.177 55.6939 100.372 55.3767 100.75C54.6546 101.11 53.727 100.855 52.8885 100.969C51.5961 101.063 51.6388 101.931 51.2894 103.104C50.988 103.101 50.5402 102.949 50.2394 102.862C50.4738 102.131 50.6733 101.661 50.9817 100.956C50.9165 100.594 51.3083 99.837 51.6314 99.6494C52.1962 99.5513 52.0894 99.6567 52.4244 99.3183Z" fill="#5D1D07"/>
<path d="M98.2649 115.85C100.636 115.091 102.403 114.378 104.503 113.005C104.948 113.635 105.298 113.95 105.849 114.485C103.055 116.243 102.531 117.254 100.412 119.781C99.4547 120.924 97.6934 122.412 96.562 123.499C93.6899 126.261 91.7254 128.887 87.6751 129.77C88.6617 134.531 88.6661 139.801 87.9309 144.595C87.7599 145.672 87.6064 146.475 87.3477 147.533C87.9061 147.71 88.5185 147.887 89.0637 148.088C90.1395 148.593 90.806 148.952 91.7327 149.717C92.5045 150.507 93.0219 151.088 93.5159 152.093C93.8784 153.11 94.0187 153.803 93.9574 154.896C93.7206 156.059 93.5963 156.305 92.7369 157.146C91.6026 157.823 90.2403 158.395 88.919 158.541C84.9476 159.433 74.1532 159.268 71.6333 155.821C71.4477 155.361 71.3337 154.849 71.2094 154.366C71.0794 152.813 71.0837 151.929 71.1583 150.411C71.2387 149.156 71.4506 147.601 71.5953 146.333C71.9096 142.604 71.9739 139.28 71.5997 135.537C63.5752 138.625 58.2372 139.585 49.857 136.712C49.5524 139.488 49.504 142.288 49.7126 145.073C49.9271 148.031 51.2824 155.01 48.6535 156.865C46.0143 158.726 40.6301 158.862 37.4015 158.877C34.8023 158.811 31.5359 158.642 29.2576 157.457C25.7259 155.618 27.068 151.572 29.5613 149.556C30.9921 148.4 32.1211 147.922 33.8555 147.439C33.4806 146.078 33.2497 144.475 33.0687 143.076C32.9249 141.432 32.759 139.819 32.753 138.169C32.8105 137.166 32.8572 136.21 32.9832 135.211C33.0299 133.921 33.346 132.782 33.301 131.53C33.289 131.196 33.0354 131.118 32.7447 130.917C33.3399 129.546 33.6018 130.18 32.9376 128.52C35.6879 130.264 37.3321 131.304 40.578 132.17L40.7121 132.171C42.5183 132.845 42.8484 131.839 43.8883 133.116C44.023 134.386 45.0994 134.441 44.7467 135.331C45.4844 135.516 47.3999 135.91 47.9597 136.156L47.9983 136.309C48.3575 135.551 48.2788 134.996 48.2429 134.178L49.7903 134.628C50.8354 134.926 51.9002 135.157 52.9595 135.4C56.3735 136.451 62.1632 136.638 65.5177 135.428C71.1188 133.409 76.7506 131.932 82.5461 130.648C83.9186 130.343 85.6259 128.39 86.9253 127.7C88.1633 127.042 89.6586 126.846 90.7709 125.983C91.8584 125.029 93.2938 123.644 94.2497 122.595C95.2612 121.483 98.7809 118.714 99.3129 117.597L99.0308 117.529C98.8247 117.082 98.4388 116.272 98.2649 115.85Z" fill="#66230A"/>
<path d="M73.8054 142.957C73.7893 143.592 73.687 144.147 74.0144 144.651C74.6371 145.191 75.2393 145.199 76.166 145.889C77.2344 145.903 79.3188 145.978 80.3156 145.802C82.0214 145.791 84.0911 145.383 85.658 144.733L85.8787 144.087C86.8522 144.182 87.0115 144.255 87.9309 144.595C87.7599 145.672 87.6064 146.475 87.3477 147.533C87.9061 147.71 88.5185 147.887 89.0637 148.088C90.1395 148.593 90.806 148.952 91.7327 149.717C92.5045 150.507 93.0219 151.088 93.5159 152.093C93.8784 153.11 94.0187 153.803 93.9574 154.896C93.7206 156.059 93.5963 156.305 92.7369 157.146C91.6026 157.823 90.2403 158.395 88.919 158.541C84.9476 159.433 74.1532 159.268 71.6333 155.821C71.4477 155.361 71.3337 154.849 71.2094 154.366C71.0794 152.813 71.0837 151.929 71.1583 150.411C72.0075 150.148 72.0879 150.291 73.0599 150.598L73.304 148.913C73.6168 146.963 73.5203 144.83 73.8054 142.957Z" fill="#955326"/>
<path d="M73.3025 155.328C77.9229 157.056 82.5417 157.164 87.3682 156.846L87.8461 156.971C88.0668 157.454 88.0361 157.557 88.0449 158.106L88.2393 158.417L88.919 158.541C84.9476 159.433 74.1532 159.268 71.6333 155.821C72.0908 155.714 72.6155 155.665 73.0877 155.61L73.3025 155.328Z" fill="#66230A"/>
<path d="M85.658 144.733L85.8787 144.087C86.8522 144.182 87.0115 144.255 87.9309 144.595C87.7599 145.672 87.6064 146.475 87.3477 147.533C87.9061 147.71 88.5185 147.887 89.0637 148.088C88.3606 148.664 87.8827 148.979 87.1124 149.469C84.9097 148.949 83.8543 149.708 81.8635 149.31C81.6311 149.263 81.6618 149.188 81.5683 148.952C82.2026 147.851 84.1349 147.584 85.2897 147.344C85.3891 146.44 85.5118 145.629 85.658 144.733Z" fill="#5D1D07"/>
<path d="M93.5159 152.093C93.8784 153.11 94.0187 153.803 93.9574 154.896C93.7206 156.059 93.5963 156.305 92.7369 157.146C91.6026 157.823 90.2403 158.395 88.919 158.541L88.2393 158.417L88.0449 158.106C88.0361 157.557 88.0668 157.454 87.8461 156.971L87.3682 156.846C89.4583 156.533 92.674 156.254 91.8979 153.358C92.7486 152.868 92.826 152.81 93.5159 152.093Z" fill="#72280C"/>
<path d="M92.7369 157.146C92.6901 156.41 92.4007 155.69 92.7179 155.116C93.2806 154.801 93.2733 154.9 93.9574 154.896C93.7206 156.059 93.5963 156.305 92.7369 157.146Z" fill="#5D1D07"/>
<path d="M71.1583 150.411C72.0075 150.148 72.0879 150.291 73.0599 150.598C72.943 151.802 72.9649 152.719 72.8816 153.802C73.0073 154.427 73.0482 154.735 73.3025 155.328L73.0877 155.61C72.6155 155.665 72.0908 155.714 71.6333 155.821C71.4477 155.361 71.3337 154.849 71.2094 154.366C71.0794 152.813 71.0837 151.929 71.1583 150.411Z" fill="#72280C"/>
<path d="M71.2094 154.366C72.142 154.455 72.1098 154.379 72.8816 153.802C73.0073 154.427 73.0482 154.735 73.3025 155.328L73.0877 155.61C72.6155 155.665 72.0908 155.714 71.6333 155.821C71.4477 155.361 71.3337 154.849 71.2094 154.366Z" fill="#5D1D07"/>
<path d="M89.0637 148.088C90.1395 148.593 90.806 148.952 91.7327 149.717C91.1787 150.199 90.7899 150.555 90.1673 150.948C89.0374 150.138 88.4337 149.862 87.1124 149.469C87.8827 148.979 88.3606 148.664 89.0637 148.088Z" fill="#72280C"/>
<path d="M91.7327 149.717C92.5045 150.507 93.0219 151.088 93.5159 152.093C92.826 152.81 92.7486 152.868 91.8979 153.358C91.3892 152.142 91.0998 151.84 90.1673 150.948C90.7899 150.555 91.1787 150.199 91.7327 149.717Z" fill="#66230A"/>
<path d="M32.9376 128.52C35.6879 130.264 37.3321 131.304 40.578 132.17L40.7121 132.171C42.5183 132.845 42.8484 131.839 43.8883 133.116C44.023 134.386 45.0994 134.441 44.7467 135.331C45.4844 135.516 47.3999 135.91 47.9597 136.156L47.9983 136.309L47.8124 137.629C47.7018 139.62 47.5402 142.354 47.7288 144.34C47.1981 145.755 44.4114 146.012 43.0845 145.921C41.1908 146.088 37.1417 145.646 35.498 144.777L35.2327 143.647C34.9389 141.665 34.8352 139.881 34.7837 137.888C33.9042 138.015 33.4132 137.774 32.753 138.169C32.8105 137.166 32.8572 136.21 32.9832 135.211C33.0299 133.921 33.346 132.782 33.301 131.53C33.289 131.196 33.0354 131.118 32.7447 130.917C33.3399 129.546 33.6018 130.18 32.9376 128.52Z" fill="#EEAF4B"/>
<path d="M34.8486 137.725L35.0392 136.956C35.4268 136.914 37.3178 138.221 37.8549 138.489C42.1427 140.619 44.8344 139.81 45.2352 145.465C44.639 145.531 43.5267 145.587 43.0845 145.921C41.1908 146.088 37.1417 145.646 35.498 144.777L35.2327 143.647C34.9389 141.665 34.8352 139.881 34.7837 137.888L34.8486 137.725Z" fill="#F5C25A"/>
<path d="M32.9376 128.52C35.6879 130.264 37.3321 131.304 40.578 132.17C40.2755 133.28 39.5395 133.037 39.1732 134C37.7434 133.551 36.7388 132.99 35.382 132.489C35.0792 132.759 35.0934 133.244 35.0034 133.737C33.7347 133.976 34.0247 134.885 32.9832 135.211C33.0299 133.921 33.346 132.782 33.301 131.53C33.289 131.196 33.0354 131.118 32.7447 130.917C33.3399 129.546 33.6018 130.18 32.9376 128.52Z" fill="#66230A"/>
<path d="M40.578 132.17L40.7121 132.171C42.5183 132.845 42.8484 131.839 43.8883 133.116C43.104 134.233 42.7347 134.161 41.4737 134.561C40.7767 134.351 39.8963 134.168 39.1732 134C39.5395 133.037 40.2755 133.28 40.578 132.17Z" fill="#72280C"/>
<path d="M32.9832 135.211C34.0247 134.885 33.7347 133.976 35.0034 133.737C34.9397 134.783 34.7641 136.75 34.8486 137.725L34.7837 137.888C33.9042 138.015 33.4132 137.774 32.753 138.169C32.8105 137.166 32.8572 136.21 32.9832 135.211Z" fill="#5D1D07"/>
<path d="M43.8883 133.116C44.023 134.386 45.0994 134.441 44.7467 135.331C43.6376 135.087 42.5738 134.854 41.4737 134.561C42.7347 134.161 43.104 134.233 43.8883 133.116Z" fill="#B16E32"/>
<path d="M47.7288 144.34L47.7832 144.496C47.8028 145.259 47.7918 146.082 47.9375 146.826C48.0331 148.312 48.7336 154.074 47.9245 155.003C46.6764 156.436 41.7216 156.82 39.7727 156.918C38.7688 156.959 37.7642 156.979 36.7596 156.981C34.6467 156.877 31.1042 156.729 29.4856 155.29C28.4617 154.38 29.6975 151.872 30.689 151.094C33.4808 148.904 35.9008 149.131 39.2082 149.392C39.5946 148.595 38.6101 148.1 38.0055 147.727C36.8574 147.411 36.0344 147.78 35.7051 146.63L35.498 144.777C37.1417 145.646 41.1908 146.088 43.0845 145.921C44.4114 146.012 47.1981 145.755 47.7288 144.34Z" fill="#955325"/>
<path d="M73.4867 135.072C76.9085 134.014 80.3872 133.718 83.6731 132.47C84.306 132.23 85.3657 131.423 85.9562 130.999C86.2719 133.122 86.3728 135.156 86.4195 137.296C86.3815 139.818 86.2631 141.596 85.8787 144.087L85.658 144.733C84.0911 145.383 82.0214 145.791 80.3156 145.802C79.3188 145.978 77.2344 145.903 76.166 145.889C75.2393 145.199 74.6371 145.191 74.0144 144.651C73.687 144.147 73.7893 143.592 73.8054 142.957C73.8244 139.982 73.7878 138.017 73.4867 135.072Z" fill="#EEAF4B"/>
<path d="M76.6118 141.332C78.6625 139.99 83.9888 138.122 86.4195 137.296C86.3815 139.818 86.2631 141.596 85.8787 144.087L85.658 144.733C84.0911 145.383 82.0214 145.791 80.3156 145.802C79.044 145.732 77.0751 146.038 76.1879 145.259C75.6705 144.211 76.2931 142.487 76.6118 141.332Z" fill="#F5C25A"/>
<path d="M71.5953 146.333C71.7444 148.787 73.0351 146.86 73.304 148.913L73.0599 150.598C72.0879 150.291 72.0075 150.148 71.1583 150.411C71.2387 149.156 71.4506 147.601 71.5953 146.333Z" fill="#5D1D07"/>
<path d="M35.7051 146.63C36.0344 147.78 36.8574 147.411 38.0055 147.727C37.2701 148.195 36.3434 148.746 35.5867 148.119C35.3818 147.612 35.5686 147.19 35.7051 146.63Z" fill="#72280C"/>
<path d="M48.2429 134.178L49.7903 134.628C49.1874 134.634 49.0886 134.533 48.6558 134.838C48.5757 135.307 48.8876 135.874 49.0814 136.339C48.7346 136.7 48.1729 137.321 47.8124 137.629L47.9983 136.309C48.3575 135.551 48.2788 134.996 48.2429 134.178Z" fill="#72280C"/>
<path d="M47.7832 144.496L48.4554 144.636C48.84 145.398 48.815 146.457 47.9375 146.826C47.7918 146.082 47.8028 145.259 47.7832 144.496Z" fill="#5D1D07"/>
<path d="M50.2394 102.862C50.5402 102.949 50.988 103.101 51.2894 103.104C52.6387 103.592 53.8492 104.714 55.1735 104.692C55.0668 106.289 55.0069 107.889 54.9923 109.489L55.0624 109.763C55.6734 109.477 55.7435 109.697 56.2069 110.169L56.451 111.76C61.2979 112.217 66.497 112.018 71.3936 112.205C70.3763 113.232 69.91 113.754 69.815 115.307C70.4771 115.294 70.6496 115.285 71.2898 115.131C71.4623 117.16 71.9841 118.171 73.3639 119.722C73.5203 119.862 74.4719 120.684 74.5508 120.78L75.5374 121.385C78.2269 122.626 79.5249 122.748 82.457 122.593C83.5401 122.288 84.1876 122.259 85.4753 121.838C86.0205 122.112 86.6563 122.346 86.991 122.82C88.5185 122.04 89.2025 121.445 90.4815 120.344C92.5161 120.963 93.2338 121.107 95.1413 119.835C94.7496 119.438 94.8461 118.744 94.8431 118.158C95.7815 116.926 96.0709 116.306 96.5752 114.835C97.249 114.728 97.173 114.637 97.7255 114.844C97.8249 115.014 97.8951 115.102 97.9535 115.286L97.955 115.78L98.2649 115.85C98.4388 116.272 98.8247 117.082 99.0308 117.529L99.3129 117.597C98.7809 118.714 95.2612 121.483 94.2497 122.595C93.2938 123.644 91.8584 125.029 90.7709 125.983C89.6586 126.846 88.1633 127.042 86.9253 127.7C85.6259 128.39 83.9186 130.343 82.5461 130.648C76.7506 131.932 71.1188 133.409 65.5177 135.428C62.1632 136.638 56.3735 136.451 52.9595 135.4C51.9002 135.157 50.8354 134.926 49.7903 134.628L48.2429 134.178C48.2788 134.996 48.3575 135.551 47.9983 136.309L47.9597 136.156C47.3999 135.91 45.4844 135.516 44.7467 135.331C45.0994 134.441 44.023 134.386 43.8883 133.116C42.8484 131.839 42.5183 132.845 40.7121 132.171L40.578 132.17C37.3321 131.304 35.6879 130.264 32.9376 128.52L31.2471 127.213C30.4718 126.365 30.1438 125.558 29.0727 124.822C28.1153 124.165 27.0899 123.889 26.2651 123.054L26.4293 122.922C26.3667 122.433 26.3237 122.363 26.5365 121.948C27.0269 121.558 27.8161 121.639 28.5282 121.59C31.6345 121.476 32.8179 121.29 35.5528 119.642C35.9557 120.071 36.3611 120.237 36.8821 120.514C37.6715 119.813 37.9269 119.544 38.5903 118.722C38.2281 118.228 37.9773 118.092 37.4843 117.753C38.3331 116.394 38.4526 115.992 38.7799 114.406C39.6056 114.794 39.2155 114.549 40.1448 114.454C40.292 113.346 39.882 112.428 39.0867 111.663L39.0279 111.394C40.7748 111.188 49.1846 111.966 49.7688 111.398C49.6754 110.492 49.6018 109.586 49.5477 108.676C49.5478 107.205 49.6139 106.351 49.783 104.886L50.2394 102.862Z" fill="#EEAF4B"/>
<path d="M50.2394 102.862C50.5402 102.949 50.988 103.101 51.2894 103.104C52.6387 103.592 53.8492 104.714 55.1735 104.692C55.0668 106.289 55.0069 107.889 54.9923 109.489L55.0624 109.763C55.6734 109.477 55.7435 109.697 56.2069 110.169L56.451 111.76C61.2979 112.217 66.497 112.018 71.3936 112.205C70.3763 113.232 69.91 113.754 69.815 115.307C70.4771 115.294 70.6496 115.285 71.2898 115.131C71.4623 117.16 71.9841 118.171 73.3639 119.722C72.7661 119.623 71.8248 119.308 71.3746 119.706C70.923 119.131 70.5882 118.407 70.2506 117.752L65.7209 117.266C61.8299 116.782 58.4652 116.564 54.5728 116.262C53.9545 116.079 44.1758 116.076 43.3442 116.176L40.0127 116.212C39.673 116.945 39.1355 118.127 38.5903 118.722C38.2281 118.228 37.9773 118.092 37.4843 117.753C38.3331 116.394 38.4526 115.992 38.7799 114.406C39.6056 114.794 39.2155 114.549 40.1448 114.454C40.292 113.346 39.882 112.428 39.0867 111.663L39.0279 111.394C40.7748 111.188 49.1846 111.966 49.7688 111.398C49.6754 110.492 49.6018 109.586 49.5477 108.676C49.5478 107.205 49.6139 106.351 49.783 104.886L50.2394 102.862Z" fill="#72280C"/>
<path d="M56.451 111.76C61.2979 112.217 66.497 112.018 71.3936 112.205C70.3763 113.232 69.91 113.754 69.815 115.307C69.8588 115.88 69.9597 115.861 69.7039 116.209C68.6618 116.441 67.4486 116.02 66.3158 115.881C64.534 115.824 59.177 115.217 57.3207 115.003C56.9085 113.906 56.7579 113.349 56.5036 112.202L56.451 111.76Z" fill="#EAD0A2"/>
<path d="M49.7688 111.398C49.9934 112.466 50.3035 113.746 50.7546 114.732C48.6345 114.702 46.514 114.715 44.3945 114.772C43.4721 114.791 41.2231 114.914 40.4002 114.775L40.1448 114.454C40.292 113.346 39.882 112.428 39.0867 111.663L39.0279 111.394C40.7748 111.188 49.1846 111.966 49.7688 111.398Z" fill="#EAD0A2"/>
<path d="M50.2394 102.862C50.5402 102.949 50.988 103.101 51.2894 103.104C52.6387 103.592 53.8492 104.714 55.1735 104.692C55.0668 106.289 55.0069 107.889 54.9923 109.489C54.2673 109.297 53.4946 109.035 52.8018 109.326C51.7896 110.516 53.0461 111.169 51.441 111.669L50.9516 111.741C50.7661 110.698 50.6969 109.83 50.6086 108.781C50.098 108.847 50.0363 108.84 49.5477 108.676C49.5478 107.205 49.6139 106.351 49.783 104.886L50.2394 102.862Z" fill="#DF4934"/>
<path d="M49.5477 108.676C49.5478 107.205 49.6139 106.351 49.783 104.886C50.3928 105.047 50.3408 104.93 50.6751 105.324L50.7824 106.003C50.7213 106.89 50.6263 107.904 50.6086 108.781C50.098 108.847 50.0363 108.84 49.5477 108.676Z" fill="#5D1D07"/>
<path d="M50.2394 102.862C50.5402 102.949 50.988 103.101 51.2894 103.104L51.202 103.571C51.1092 104.002 50.9898 104.494 50.916 104.924L50.7824 106.003L50.6751 105.324C50.3408 104.93 50.3928 105.047 49.783 104.886L50.2394 102.862Z" fill="#72280C"/>
<path d="M51.202 103.571C51.9863 104.021 52.1088 104.402 51.6452 105.227L51.3533 105.397C50.9642 105.17 51.1026 105.325 50.916 104.924C50.9898 104.494 51.1092 104.002 51.202 103.571Z" fill="#DD543B"/>
<path d="M51.441 111.669C53.0461 111.169 51.7896 110.516 52.8018 109.326C53.4946 109.035 54.2673 109.297 54.9923 109.489L55.0624 109.763C55.6734 109.477 55.7435 109.697 56.2069 110.169L56.451 111.76L56.5036 112.202C56.4364 112.998 56.4145 113.355 55.7625 113.839C55.9087 114.24 55.9569 114.312 55.935 114.751C55.3007 115.192 53.0124 114.768 51.9061 114.746C51.4291 113.574 51.2586 112.945 50.9516 111.741L51.441 111.669Z" fill="#BE3026"/>
<path d="M51.441 111.669C53.0461 111.169 51.7896 110.516 52.8018 109.326C53.4946 109.035 54.2673 109.297 54.9923 109.489L55.0624 109.763L55.1823 111.531C54.6663 111.799 52.3851 111.603 51.441 111.669Z" fill="#DD543B"/>
<path d="M55.0624 109.763C55.6734 109.477 55.7435 109.697 56.2069 110.169L56.451 111.76L56.5036 112.202C56.4364 112.998 56.4145 113.355 55.7625 113.839C55.5331 113.168 55.3314 112.226 55.1823 111.531L55.0624 109.763Z" fill="#5D1D07"/>
<path d="M43.3442 116.176C44.1758 116.076 53.9545 116.079 54.5728 116.262L54.067 116.347C53.8171 116.725 54.7496 118.526 54.7876 119.412C54.8505 120.834 54.3915 121.859 53.4748 122.894C52.1442 124.346 50.2861 125.344 48.3103 125.466C43.8094 125.744 39.9065 119.769 43.3442 116.176Z" fill="#964C1F"/>
<path d="M40.7121 132.171C42.8708 132.176 45.5502 130.949 47.9964 131.017C49.5648 132.395 49.0436 132.876 50.1496 134.171C50.4734 134.551 51.9589 134.696 52.9595 135.4C51.9002 135.157 50.8354 134.926 49.7903 134.628L48.2429 134.178C48.2788 134.996 48.3575 135.551 47.9983 136.309L47.9597 136.156C47.3999 135.91 45.4844 135.516 44.7467 135.331C45.0994 134.441 44.023 134.386 43.8883 133.116C42.8484 131.839 42.5183 132.845 40.7121 132.171Z" fill="#D58533"/>
<path d="M47.9597 136.156C47.5211 135.583 47.3149 135.389 47.3049 134.713C47.7041 134.241 47.5638 134.389 48.2429 134.178C48.2788 134.996 48.3575 135.551 47.9983 136.309L47.9597 136.156Z" fill="#964C1F"/>
<path d="M74.5508 120.78L75.5374 121.385C78.2269 122.626 79.5249 122.748 82.457 122.593C83.5401 122.288 84.1876 122.259 85.4753 121.838C86.0205 122.112 86.6563 122.346 86.991 122.82C86.4722 123.085 85.9138 123.305 85.3657 123.498C82.0243 124.68 78.3511 124.471 75.1647 122.919C75.5316 122.764 75.5389 122.768 75.8722 122.509C75.8517 121.835 74.9659 121.662 74.5508 120.78Z" fill="#66230A"/>
<path d="M75.5374 121.385C78.2269 122.626 79.5249 122.748 82.457 122.593C80.7366 124.034 76.7477 123.223 75.5374 121.385Z" fill="#72280C"/>
<path d="M35.5528 119.642C35.9557 120.071 36.3611 120.237 36.8821 120.514C33.8541 122.908 31.3033 123.519 27.4417 123.057C27.1038 123.016 26.7663 122.971 26.4293 122.922C26.3667 122.433 26.3237 122.363 26.5365 121.948C27.0269 121.558 27.8161 121.639 28.5282 121.59C31.6345 121.476 32.8179 121.29 35.5528 119.642Z" fill="#69220B"/>
<path d="M96.5752 114.835C97.249 114.728 97.173 114.637 97.7255 114.844C97.8249 115.014 97.8951 115.102 97.9535 115.286L97.955 115.78L98.2649 115.85C98.4388 116.272 98.8247 117.082 99.0308 117.529C98.2166 117.86 97.7168 117.912 96.8515 118.049C96.2902 118.71 95.8297 119.306 95.1413 119.835C94.7496 119.438 94.8461 118.744 94.8431 118.158C95.7815 116.926 96.0709 116.306 96.5752 114.835Z" fill="#5D1D07"/>
<path d="M71.3746 119.706C71.8248 119.308 72.7661 119.623 73.3639 119.722C73.5203 119.862 74.4719 120.684 74.5508 120.78C74.9659 121.662 75.8517 121.835 75.8722 122.509C75.5389 122.768 75.5316 122.764 75.1647 122.919C73.4984 121.987 72.5293 121.217 71.3746 119.706Z" fill="#5D1D07"/>
<path d="M62.3474 0.494159C65.5075 -0.256254 67.7438 -0.0364938 70.8981 0.392921C72.6126 0.610192 75.6588 0.941595 77.2067 1.55444C79.6199 1.87236 88.5331 4.69908 90.9829 5.89093C93.1754 6.93011 94.2964 7.60815 96.3077 9.07747C98.2561 10.5191 99.5044 11.643 98.3073 14.2203C96.619 18.2023 94.8826 22.1639 93.1008 26.1045C92.3349 27.8427 91.6421 29.6699 90.8528 31.3839L90.3543 31.1978L90.2374 30.9284L89.625 30.3925L89.4686 30.6257C87.4398 31.3319 85.0587 31.2825 82.932 31.2216C77.974 30.7243 75.9599 30.1512 71.2182 28.6436C66.0921 27.0136 63.9113 24.9501 59.4006 22.5026V22.372C59.0791 22.1086 58.8394 22.0201 58.4681 21.847C58.509 21.0866 58.5514 20.7208 58.6932 19.9731C59.5439 13.8801 60.0072 7.77414 60.9076 1.69567C60.9836 1.18304 61.9235 0.716412 62.3474 0.494159Z" fill="#6952C6"/>
<path d="M62.3474 0.494159C65.5075 -0.256254 67.7438 -0.0364938 70.8981 0.392921C72.6126 0.610192 75.6588 0.941595 77.2067 1.55444C79.6199 1.87236 88.5331 4.69908 90.9829 5.89093C93.1754 6.93011 94.2964 7.60815 96.3077 9.07747C98.2561 10.5191 99.5044 11.643 98.3073 14.2203C97.7854 14.2559 97.6057 13.6151 97.3601 13.1867C96.2463 13.2754 95.2699 13.7092 94.1517 13.8579L91.7634 13.794C90.9112 13.7263 90.0196 13.5867 89.1748 13.463C88.0303 13.4002 86.4225 13.302 85.3189 13.0534C85.1815 13.0316 85.0222 13.0056 84.9272 12.8968C84.3717 12.2538 83.3646 12.7327 82.5125 12.4521C79.4971 11.459 76.3808 10.48 73.4224 9.32361L72.4738 8.55649C69.7156 7.48332 68.4381 6.55768 65.9197 5.16366C65.0602 4.47448 63.7462 3.43736 62.7742 2.97337V2.57618C61.7671 2.80063 61.713 7.56903 61.6516 8.64366L61.5464 8.56235C61.5464 8.28135 61.5639 7.76696 61.5142 7.51599C61.6151 5.42254 61.5814 3.61785 62.476 1.7008C62.5388 1.32354 62.4204 0.881966 62.3474 0.494159Z" fill="#8A7AD1"/>
<path d="M72.4738 8.55649C74.8461 8.98796 77.9828 10.4495 80.358 11.1851C81.729 11.61 83.5225 11.9399 84.9549 12.2366C87.2761 12.6857 95.4979 14.0659 97.0692 12.2856C95.9598 11.3711 95.6543 11.4012 95.4716 10.1537L96.0051 10.5628L96.3077 9.07747C98.2561 10.5191 99.5044 11.643 98.3073 14.2203C97.7854 14.2559 97.6057 13.6151 97.3601 13.1867C96.2463 13.2754 95.2699 13.7092 94.1517 13.8579L91.7634 13.794C90.9112 13.7263 90.0196 13.5867 89.1748 13.463C88.0303 13.4002 86.4225 13.302 85.3189 13.0534C85.1815 13.0316 85.0222 13.0056 84.9272 12.8968C84.3717 12.2538 83.3646 12.7327 82.5125 12.4521C79.4971 11.459 76.3808 10.48 73.4224 9.32361L72.4738 8.55649Z" fill="#7066AE"/>
<path d="M96.3077 9.07747C98.2561 10.5191 99.5044 11.643 98.3073 14.2203C97.7854 14.2559 97.6057 13.6151 97.3601 13.1867L97.6612 12.8943C97.6378 12.0098 96.6585 11.2289 96.0051 10.5628L96.3077 9.07747Z" fill="#372578"/>
<path d="M77.2067 1.55444C79.6199 1.87236 88.5331 4.69908 90.9829 5.89093C90.7256 6.03011 90.2432 6.27858 90.0488 6.49234C88.6018 5.79027 80.5612 3.05497 78.9051 2.73163C78.5455 2.15952 77.8629 2.0193 77.2008 1.76614L77.2067 1.55444Z" fill="#6D5ECB"/>
<path d="M62.3474 0.494159C65.5075 -0.256254 67.7438 -0.0364938 70.8981 0.392921C70.7753 1.07477 70.904 0.984666 70.4947 1.35518C69.5344 1.6501 68.6457 1.34054 67.5275 1.46346C66.0512 1.32896 63.8178 1.03741 62.476 1.7008C62.5388 1.32354 62.4204 0.881966 62.3474 0.494159Z" fill="#49349D"/>
<path d="M70.8981 0.392921C72.6126 0.610192 75.6588 0.941595 77.2067 1.55444L77.2008 1.76614C77.8629 2.0193 78.5455 2.15952 78.9051 2.73163C76.6424 2.13637 74.2512 1.88979 71.9213 1.71691C70.6423 1.62197 68.6793 1.72483 67.5275 1.46346C68.6457 1.34054 69.5344 1.6501 70.4947 1.35518C70.904 0.984666 70.7753 1.07477 70.8981 0.392921Z" fill="#6952C6"/>
<path d="M90.9829 5.89093C93.1754 6.93011 94.2964 7.60815 96.3077 9.07747L96.0051 10.5628L95.4716 10.1537C94.8226 9.21314 91.2489 7.23894 90.0488 6.49234C90.2432 6.27858 90.7256 6.03011 90.9829 5.89093Z" fill="#49349D"/>
<path d="M94.1517 13.8579C95.2699 13.7092 96.2463 13.2754 97.3601 13.1867C97.6057 13.6151 97.7854 14.2559 98.3073 14.2203C96.619 18.2023 94.8826 22.1639 93.1008 26.1045C92.3349 27.8427 91.6421 29.6699 90.8528 31.3839L90.3543 31.1978L90.2374 30.9284L89.625 30.3925L89.4686 30.6257C87.4398 31.3319 85.0587 31.2825 82.932 31.2216C82.6557 30.1721 86.7996 23.4729 87.5085 21.9431C88.6866 19.4016 90.3514 16.4826 91.7429 14.025C91.1144 14.0047 90.0006 14.0217 89.454 13.8207L89.1748 13.463C90.0196 13.5867 90.9112 13.7263 91.7634 13.794L94.1517 13.8579Z" fill="#5945AE"/>
<path d="M94.1517 13.8579C95.2699 13.7092 96.2463 13.2754 97.3601 13.1867C97.6057 13.6151 97.7854 14.2559 98.3073 14.2203C96.619 18.2023 94.8826 22.1639 93.1008 26.1045C92.3349 27.8427 91.6421 29.6699 90.8528 31.3839L90.3543 31.1978L90.2374 30.9284L89.625 30.3925C89.8822 30.0152 90.1892 29.3334 90.3982 28.9023C91.0808 27.5719 91.6655 25.9738 92.1551 24.5637C93.1593 21.7243 94.7978 17.9411 96.3779 15.3712L96.8514 14.3058C95.5564 14.3254 94.4075 14.2661 93.1183 14.1988C92.7383 14.2382 91.9797 14.2593 91.6757 14.013L91.7634 13.794L94.1517 13.8579Z" fill="#3D2B8A"/>
<path d="M92.1551 24.5637C93.1593 21.7243 94.7978 17.9411 96.3779 15.3712C95.9087 18.2758 94.7057 19.8565 93.4063 22.3638C93.0511 23.0493 92.7178 24.0579 92.1551 24.5637Z" fill="#49349D"/>
<path d="M90.3982 28.9023C91.0106 29.5754 91.1802 30.1622 90.4713 30.8698L90.2374 30.9284L89.625 30.3925C89.8822 30.0152 90.1892 29.3334 90.3982 28.9023Z" fill="#372578"/>
<path d="M58.6932 19.9731C59.5439 13.8801 60.0072 7.77414 60.9076 1.69567C60.9836 1.18304 61.9235 0.716412 62.3474 0.494159C62.4204 0.881966 62.5388 1.32354 62.476 1.7008C61.5814 3.61785 61.6151 5.42254 61.5142 7.51599C61.3169 8.19623 61.276 10.0512 61.0962 10.9928C60.4925 14.172 60.1417 17.011 59.8611 20.2236C59.465 20.0928 59.3948 20.124 58.9899 20.1794L58.8701 20.197L58.6932 19.9731Z" fill="#372578"/>
<path d="M73.4224 9.32361C76.3808 10.48 79.4971 11.459 82.5125 12.4521C83.3646 12.7327 84.3717 12.2538 84.9272 12.8968C85.0222 13.0056 85.1815 13.0316 85.3189 13.0534C86.4225 13.302 88.0303 13.4002 89.1748 13.463L89.454 13.8207C85.107 13.4153 82.2012 12.7075 77.993 11.5118C76.7813 11.1677 74.7116 10.7809 73.6329 10.2342C73.3288 9.83345 73.4268 9.94773 73.4224 9.32361Z" fill="#3D2B8A"/>
<path d="M62.7742 2.97337C63.7462 3.43736 65.0602 4.47448 65.9197 5.16366C66.3026 6.10732 66.8201 6.20314 67.7848 6.7688L67.8111 6.87326C65.8597 7.0605 62.932 4.72179 62.7742 2.97337Z" fill="#5945AE"/>
<path d="M58.6932 19.9731L58.8701 20.197L58.9899 20.1794C59.3948 20.124 59.465 20.0928 59.8611 20.2236C59.7734 20.8374 59.6827 21.8823 59.4006 22.372C59.0791 22.1086 58.8394 22.0201 58.4681 21.847C58.509 21.0866 58.5514 20.7208 58.6932 19.9731Z" fill="#372578"/>
<path d="M58.4681 21.847C58.8394 22.0201 59.0791 22.1086 59.4006 22.372V22.5026C63.9113 24.9501 66.0921 27.0136 71.2182 28.6436C75.9599 30.1512 77.974 30.7243 82.932 31.2216C85.0587 31.2825 87.4398 31.3319 89.4686 30.6257L89.625 30.3925L90.2374 30.9284L90.3543 31.1978L90.8528 31.3839C90.6628 32.0451 90.3704 32.9927 89.9612 33.5549C89.7755 34.2188 89.5899 34.4606 89.7346 35.0576L90.1673 35.2217C93.5612 35.7576 97.3733 37.6369 99.6447 40.2315C101.277 42.362 101.362 44.8786 98.8963 46.439L98.6537 46.8397C97.9623 47.3133 97.3367 47.5086 96.8895 47.8035C93.6007 49.6706 88.2072 49.7497 84.4638 49.6304C81.9439 49.4759 79.921 49.2107 77.4332 48.7797C74.7642 48.3135 72.1171 47.7364 69.4964 47.0497C64.1247 45.4166 60.4326 44.0013 55.3474 41.5912C53.1282 40.0413 50.1126 38.6727 47.9244 36.8271C47.0389 36.0803 46.0615 35.0242 45.227 34.1851C44.7337 33.5957 44.2516 32.997 43.7813 32.3889C43.03 30.2092 42.1515 28.8953 44.1009 26.9573C46.8014 23.9967 54.2278 25.6455 57.7402 26.2863L57.8761 25.7892C57.9331 24.6275 58.262 23.0256 58.4681 21.847Z" fill="#7661CA"/>
<path d="M58.4681 21.847C58.8394 22.0201 59.0791 22.1086 59.4006 22.372V22.5026C63.9113 24.9501 66.0921 27.0136 71.2182 28.6436C75.9599 30.1512 77.974 30.7243 82.932 31.2216C85.0587 31.2825 87.4398 31.3319 89.4686 30.6257L89.625 30.3925L90.2374 30.9284L90.3543 31.1978L90.8528 31.3839C90.6628 32.0451 90.3704 32.9927 89.9612 33.5549C89.7755 34.2188 89.5899 34.4606 89.7346 35.0576L90.1673 35.2217C90.3777 36.2365 90.7841 35.9588 91.5047 36.5468C90.0445 36.2761 87.7789 37.661 87.2775 38.997C87.2205 38.633 87.2995 38.7846 87.0364 38.5267C86.4254 38.4983 85.965 38.5127 85.3613 38.5374C84.9549 38.5656 83.3968 38.6646 83.0869 38.8129C82.6557 38.9444 82.5169 38.9723 82.1339 39.196C82.0711 39.456 82.0155 39.6717 81.9746 39.9363C77.9097 40.5715 68.634 37.722 64.9301 35.7888C63.1147 34.9297 59.5307 32.7593 58.4067 31.1962L58.2839 30.5047L59.0747 30.7214C58.8408 30.4499 58.5324 30.1519 58.2766 29.8917C58.5353 28.3386 58.7853 26.8512 58.9709 25.2873L57.8761 25.7892C57.9331 24.6275 58.262 23.0256 58.4681 21.847Z" fill="#E7E6E8"/>
<path d="M64.9301 35.7888C64.6977 35.4432 64.4039 35.1449 64.4098 34.793C64.9944 34.8503 65.4622 35.2119 65.9767 35.3512C67.8578 35.8607 73.8083 38.9691 75.3664 37.991C78.2444 38.4088 80.1402 38.8174 83.0869 38.8129C82.6557 38.9444 82.5169 38.9723 82.1339 39.196C82.0711 39.456 82.0155 39.6717 81.9746 39.9363C77.9097 40.5715 68.634 37.722 64.9301 35.7888Z" fill="#49349D"/>
<path d="M74.4748 38.4157C75.422 38.3782 78.2167 38.4673 78.851 39.2071C77.4917 39.6122 75.5871 39.3119 74.4748 38.4157Z" fill="#372578"/>
<path d="M89.4686 30.6257L89.625 30.3925L90.2374 30.9284L90.3543 31.1978L90.8528 31.3839C90.6628 32.0451 90.3704 32.9927 89.9612 33.5549C89.7755 34.2188 89.5899 34.4606 89.7346 35.0576L90.1673 35.2217C90.3777 36.2365 90.7841 35.9588 91.5047 36.5468C90.0445 36.2761 87.7789 37.661 87.2775 38.997C87.2205 38.633 87.2995 38.7846 87.0364 38.5267C86.4254 38.4983 85.965 38.5127 85.3613 38.5374L86.9077 38.1694C87.7204 36.5654 88.7041 33.1292 89.4905 31.1779C89.5855 30.9699 89.5197 30.9382 89.4686 30.6257Z" fill="#7066AE"/>
<path d="M89.4686 30.6257L89.625 30.3925L90.2374 30.9284L90.3543 31.1978L90.8528 31.3839C90.6628 32.0451 90.3704 32.9927 89.9612 33.5549C89.4057 32.6491 89.5007 32.254 89.4905 31.1779C89.5855 30.9699 89.5197 30.9382 89.4686 30.6257Z" fill="#6952C6"/>
<path d="M58.4067 31.1962L58.2839 30.5047L59.0747 30.7214C59.747 31.2236 61.5654 32.7133 62.1486 33.0403C65.7837 35.0777 71.3249 37.2737 75.3664 37.991C73.8083 38.9691 67.8578 35.8607 65.9767 35.3512C65.4622 35.2119 64.9944 34.8503 64.4098 34.793C64.4039 35.1449 64.6977 35.4432 64.9301 35.7888C63.1147 34.9297 59.5307 32.7593 58.4067 31.1962Z" fill="#5945AE"/>
<path d="M58.4681 21.847C58.8394 22.0201 59.0791 22.1086 59.4006 22.372V22.5026C59.2676 23.4169 59.1434 24.3839 58.9709 25.2873L57.8761 25.7892C57.9331 24.6275 58.262 23.0256 58.4681 21.847Z" fill="#3D2B8A"/>
<path d="M44.1009 26.9573C44.4484 28.4354 44.2951 28.8461 44.5029 30.0149C44.6447 28.7485 44.6296 27.9826 45.8738 27.3948C45.5132 27.8365 45.1833 28.1398 45.0696 28.6848C45.1938 29.4733 45.8868 29.721 46.1474 30.2672C48.017 34.1851 50.5122 35.6414 54.0904 37.7523C63.6439 43.3469 74.466 46.4004 85.5279 46.6231C89.7346 46.6776 93.4472 46.2673 97.4814 44.8679C98.7677 44.4218 99.6535 43.0113 98.6508 41.7215C98.3847 41.1254 98.0822 40.8057 97.6729 40.31C98.5528 40.6474 98.6434 40.8071 99.0322 41.6635L99.101 41.8197C99.0279 41.0804 99.0191 40.6732 99.6447 40.2315C101.277 42.362 101.362 44.8786 98.8963 46.439L98.6537 46.8397C97.9623 47.3133 97.3367 47.5086 96.8895 47.8035C93.6007 49.6706 88.2072 49.7497 84.4638 49.6304C81.9439 49.4759 79.921 49.2107 77.4332 48.7797C74.7642 48.3135 72.1171 47.7364 69.4964 47.0497C64.1247 45.4166 60.4326 44.0013 55.3474 41.5912C53.1282 40.0413 50.1126 38.6727 47.9244 36.8271C47.0389 36.0803 46.0615 35.0242 45.227 34.1851C44.7337 33.5957 44.2516 32.997 43.7813 32.3889C43.03 30.2092 42.1515 28.8953 44.1009 26.9573Z" fill="#5945AE"/>
<path d="M44.1009 26.9573C44.4484 28.4354 44.2951 28.8461 44.5029 30.0149C45.7287 34.4127 50.824 37.8654 54.6268 40.0387C62.8779 44.7541 76.8749 48.5558 86.4166 48.536C89.3429 48.5055 92.2545 48.092 95.0755 47.3057C95.9379 47.0639 97.9112 46.5177 98.6157 46.0649L98.8963 46.439L98.6537 46.8397C97.9623 47.3133 97.3367 47.5086 96.8895 47.8035C93.6007 49.6706 88.2072 49.7497 84.4638 49.6304C81.9439 49.4759 79.921 49.2107 77.4332 48.7797C74.7642 48.3135 72.1171 47.7364 69.4964 47.0497C64.1247 45.4166 60.4326 44.0013 55.3474 41.5912C53.1282 40.0413 50.1126 38.6727 47.9244 36.8271C47.0389 36.0803 46.0615 35.0242 45.227 34.1851C44.7337 33.5957 44.2516 32.997 43.7813 32.3889C43.03 30.2092 42.1515 28.8953 44.1009 26.9573Z" fill="#372578"/>
<path d="M99.6447 40.2315C101.277 42.362 101.362 44.8786 98.8963 46.439L98.6157 46.0649C99.7251 44.9554 99.7865 43.1749 99.101 41.8197C99.0279 41.0804 99.0191 40.6732 99.6447 40.2315Z" fill="#372578"/>
<path d="M44.1009 26.9573C46.8014 23.9967 54.2278 25.6455 57.7402 26.2863C57.7285 26.7315 57.787 27.1062 57.5882 27.46C53.4389 27.1544 50.1177 25.9024 45.8738 27.3948C44.6296 27.9826 44.6447 28.7485 44.5029 30.0149C44.2951 28.8461 44.4484 28.4354 44.1009 26.9573Z" fill="#3D2B8A"/>
<path d="M90.1673 35.2217C93.5612 35.7576 97.3733 37.6369 99.6447 40.2315C99.0191 40.6732 99.0279 41.0804 99.101 41.8197L99.0322 41.6635C98.6434 40.8071 98.5528 40.6474 97.6729 40.31C96.8544 39.7989 96.1893 38.9907 94.9381 38.2728C93.9924 37.7062 92.4986 36.9969 91.5047 36.5468C90.7841 35.9588 90.3777 36.2365 90.1673 35.2217Z" fill="#3D2B8A"/>
<path d="M85.3613 38.5374C85.965 38.5127 86.4254 38.4983 87.0364 38.5267C87.2995 38.7846 87.2205 38.633 87.2775 38.997C86.6812 39.476 83.1176 39.6837 81.9746 39.9363C82.0155 39.6717 82.0711 39.456 82.1339 39.196C82.5169 38.9723 82.6557 38.9444 83.0869 38.8129C83.3968 38.6646 84.9549 38.5656 85.3613 38.5374Z" fill="#5945AE"/>
<path d="M94.9381 38.2728C96.1893 38.9907 96.8544 39.7989 97.6729 40.31C98.0822 40.8057 98.3847 41.1254 98.6508 41.7215C98.5894 41.8019 98.4622 41.8934 98.3789 41.9628C98.1479 41.8771 97.8819 41.7553 97.7226 41.5652C96.8997 40.5839 95.0156 39.5879 94.9381 38.2728Z" fill="#8A7AD1"/>
<path d="M58.4067 31.1962C57.3616 30.3205 57.0883 29.4531 57.5575 28.1891L57.6964 28.1433C58.0486 28.796 57.6934 29.1293 58.2766 29.8917C58.5324 30.1519 58.8408 30.4499 59.0747 30.7214L58.2839 30.5047L58.4067 31.1962Z" fill="#6952C6"/>
<path d="M85.813 96.5288L85.9737 96.4907C87.3126 97.6804 87.5655 98.7792 88.1341 100.485C90.0781 101.154 89.9904 102.232 91.3337 101.882C92.7705 102.077 92.5366 102.464 93.1651 102.675C93.7132 102.859 95.6806 102.761 96.4612 102.801C96.2259 102.909 95.8093 103.117 95.5798 103.189C96.0505 103.854 96.5123 104.525 96.9669 105.202C96.3048 105.312 96.1835 105.319 95.6251 105.68L95.9525 106.229C96.8354 108.449 97.0853 109.331 97.0912 111.757C97.0283 112.806 96.9172 113.833 96.5752 114.835C96.0709 116.306 95.7815 116.926 94.8431 118.158C94.8461 118.744 94.7496 119.438 95.1413 119.835C93.2338 121.107 92.5161 120.963 90.4815 120.344C89.2025 121.445 88.5185 122.04 86.991 122.82C86.6563 122.346 86.0205 122.112 85.4753 121.838C84.1876 122.259 83.5401 122.288 82.457 122.593C79.5249 122.748 78.2269 122.626 75.5374 121.385L74.5508 120.78C74.4719 120.684 73.5203 119.862 73.3639 119.722C71.9841 118.171 71.4623 117.16 71.2898 115.131C70.6496 115.285 70.4771 115.294 69.815 115.307C69.91 113.754 70.3763 113.232 71.3936 112.205C72.104 111.729 72.3422 111.641 73.1418 111.328C73.3464 111.289 74.1021 111.159 74.1693 111.07C75.4234 109.416 75.0069 108.888 77.2783 108.292L78.3731 108.255C79.7543 108.207 80.6123 108.708 81.3636 108.551C81.6633 108.175 81.5463 108.008 81.5259 107.419C81.9264 107.354 82.4073 107.132 82.7931 106.976C82.7654 105.738 82.9335 104.341 83.1074 103.114C83.4538 101.589 83.6219 100.76 84.3995 99.4194L85.1274 98.1331L85.0427 97.9411L85.3481 97.8195C85.9723 98.0583 86.1696 98.1594 86.8098 98.0203L86.8391 97.8474C86.5175 97.2643 86.212 97.0723 85.7004 96.6651L85.813 96.5288Z" fill="#F2F2F5"/>
<path d="M85.1274 98.1331C86.4985 98.2957 86.7835 100.574 87.029 101.733C87.5713 104.601 87.564 106.953 86.9823 109.829L85.8378 109.899L85.5981 109.901C85.335 110.147 85.4855 110.091 85.1376 110.09C84.7737 109.542 84.7108 109.392 84.1291 109.109L84.1539 109.609L83.9785 109.772C82.5549 109.722 82.8326 108.088 82.7931 106.976C82.7654 105.738 82.9335 104.341 83.1074 103.114C83.4538 101.589 83.6219 100.76 84.3995 99.4194L85.1274 98.1331Z" fill="#5D1D07"/>
<path d="M85.1274 98.1331C86.4985 98.2957 86.7835 100.574 87.029 101.733C87.5713 104.601 87.564 106.953 86.9823 109.829L85.8378 109.899L85.5981 109.901C86.5131 107.769 86.9881 105.375 86.2456 103.111L86.4078 103.028C86.4312 102.65 86.0673 102.147 85.8612 101.791L86.0132 101.759L86.1418 101.517C85.9079 100.867 85.5688 100.827 84.9856 100.794C84.9652 99.9161 84.9403 99.938 84.3995 99.4194L85.1274 98.1331Z" fill="#EAD0A2"/>
<path d="M84.3995 99.4194C84.9403 99.938 84.9652 99.9161 84.9856 100.794C84.0355 102.231 83.9815 103.695 83.7988 105.4C83.7637 106.603 83.6847 107.978 84.1291 109.109L84.1539 109.609L83.9785 109.772C82.5549 109.722 82.8326 108.088 82.7931 106.976C82.7654 105.738 82.9335 104.341 83.1074 103.114C83.4538 101.589 83.6219 100.76 84.3995 99.4194Z" fill="#F6D289"/>
<path d="M84.9856 100.794C85.5688 100.827 85.9079 100.867 86.1418 101.517L86.0132 101.759L85.8612 101.791C84.9652 102.88 84.9272 104.411 84.7825 105.797C84.4755 105.642 84.1232 105.523 83.7988 105.4C83.9815 103.695 84.0355 102.231 84.9856 100.794Z" fill="#72280C"/>
<path d="M84.7825 105.797C84.9272 104.411 84.9652 102.88 85.8612 101.791C86.0673 102.147 86.4312 102.65 86.4078 103.028L86.2456 103.111C85.9606 103.299 85.772 103.337 85.737 103.684C85.5279 105.721 85.756 107.006 85.1347 108.988C84.8029 107.718 84.7664 107.117 84.7825 105.797Z" fill="#F6D289"/>
<path d="M97.0912 111.757C97.0283 112.806 96.9172 113.833 96.5752 114.835C96.0709 116.306 95.7815 116.926 94.8431 118.158C94.8461 118.744 94.7496 119.438 95.1413 119.835C93.2338 121.107 92.5161 120.963 90.4815 120.344C89.2025 121.445 88.5185 122.04 86.991 122.82C86.6563 122.346 86.0205 122.112 85.4753 121.838C88.7582 120.432 91.3117 118.222 92.1332 114.669C92.2633 114.104 92.5322 112.87 92.8772 112.466L93.2631 112.498C95.1296 114.079 95.3489 112.566 97.0912 111.757Z" fill="#72280C"/>
<path d="M97.0912 111.757C97.0283 112.806 96.9172 113.833 96.5752 114.835C96.0709 116.306 95.7815 116.926 94.8431 118.158C94.2643 118.736 92.6316 119.702 91.8248 119.396C91.2606 118.082 93.9924 116.518 93.2952 112.671L93.2631 112.498C95.1296 114.079 95.3489 112.566 97.0912 111.757Z" fill="#DBD6E1"/>
<path d="M77.2783 108.292L78.3731 108.255C78.8408 108.537 79.0367 108.537 79.1858 108.961C78.908 109.309 78.8686 109.303 78.4944 109.518L77.9229 109.788C77.1043 109.978 75.4614 110.501 75.8824 111.694C76.7243 114.08 79.2179 115.091 80.9354 116.646C80.9032 116.751 80.8725 116.857 80.8418 116.962C80.3083 117.375 79.9137 117.112 79.2764 116.879C77.1672 116.104 75.8312 114.31 74.4953 112.602C74.3812 112.457 73.9325 112.542 73.8156 112.566L73.9267 111.985C73.7557 111.531 73.7074 111.637 73.1418 111.328C73.3464 111.289 74.1021 111.159 74.1693 111.07C75.4234 109.416 75.0069 108.888 77.2783 108.292Z" fill="#6F2711"/>
<path d="M77.2783 108.292L78.3731 108.255C78.8408 108.537 79.0367 108.537 79.1858 108.961C78.908 109.309 78.8686 109.303 78.4944 109.518C77.9024 109.586 77.48 109.6 77.0079 109.254C76.9172 108.714 76.9392 108.893 77.2783 108.292Z" fill="#5D1D07"/>
<path d="M85.813 96.5288L85.9737 96.4907C87.3126 97.6804 87.5655 98.7792 88.1341 100.485C90.0781 101.154 89.9904 102.232 91.3337 101.882C92.7705 102.077 92.5366 102.464 93.1651 102.675C93.7132 102.859 95.6806 102.761 96.4612 102.801C96.2259 102.909 95.8093 103.117 95.5798 103.189C94.7759 102.836 93.9924 102.813 93.3069 103.391C92.731 103.214 92.3671 103.07 91.8511 103.27C91.6625 104.251 93.1096 105.309 92.4869 106.784L92.2647 106.796C91.3351 105.949 90.0094 102.332 88.5273 102.177C88.3255 101.945 88.1253 101.711 87.9294 101.475C87.4281 101.418 87.5655 101.45 87.029 101.733C86.7835 100.574 86.4985 98.2957 85.1274 98.1331L85.0427 97.9411L85.3481 97.8195C85.9723 98.0583 86.1696 98.1594 86.8098 98.0203L86.8391 97.8474C86.5175 97.2643 86.212 97.0723 85.7004 96.6651L85.813 96.5288Z" fill="#66230A"/>
<path d="M87.029 101.733C87.5655 101.45 87.4281 101.418 87.9294 101.475C88.1253 101.711 88.3255 101.945 88.5273 102.177C88.65 102.864 88.7553 103.526 88.7743 104.228C88.8211 105.882 88.574 107.534 88.4279 109.18C88.5697 109.448 88.7114 109.716 88.8532 109.984C87.9587 110.92 87.4778 111.062 86.2471 111.493L85.8188 111.322C85.6171 110.926 85.7705 110.368 85.8378 109.899L86.9823 109.829C87.564 106.953 87.5713 104.601 87.029 101.733Z" fill="#5D1D07"/>
<path d="M82.7931 106.976C82.8326 108.088 82.5549 109.722 83.9785 109.772L84.1539 109.609L84.1291 109.109C84.7108 109.392 84.7737 109.542 85.1376 110.09C85.4855 110.091 85.335 110.147 85.5981 109.901L85.8378 109.899C85.7705 110.368 85.6171 110.926 85.8188 111.322L86.2471 111.493C83.6848 111.944 81.4996 110.013 77.9229 109.788L78.4944 109.518C78.8686 109.303 78.908 109.309 79.1858 108.961C79.0367 108.537 78.8408 108.537 78.3731 108.255C79.7543 108.207 80.6123 108.708 81.3636 108.551C81.6633 108.175 81.5463 108.008 81.5259 107.419C81.9264 107.354 82.4073 107.132 82.7931 106.976Z" fill="#72280C"/>
<path d="M71.3936 112.205C72.104 111.729 72.3422 111.641 73.1418 111.328C73.7074 111.637 73.7557 111.531 73.9267 111.985L73.8156 112.566C72.9795 113.366 73.1783 113.664 73.3113 114.766C72.9868 115.507 72.9474 115.358 72.0791 115.192C71.9914 114.779 71.9359 114.56 71.8029 114.16C71.5427 114.274 71.4258 114.787 71.2898 115.131C70.6496 115.285 70.4771 115.294 69.815 115.307C69.91 113.754 70.3763 113.232 71.3936 112.205Z" fill="#5D1D07"/>
<path d="M73.3113 114.766C73.706 115.562 73.8595 115.85 74.3418 116.565C75.0244 117.576 77.1248 118.808 77.1307 119.78C76.0432 120.665 73.3464 117.592 72.791 116.681C72.5001 116.212 72.2619 115.713 72.0791 115.192C72.9474 115.358 72.9868 115.507 73.3113 114.766Z" fill="#66230A"/>
<path d="M93.3069 103.391C93.9924 102.813 94.7759 102.836 95.5798 103.189C96.0505 103.854 96.5123 104.525 96.9669 105.202C96.3048 105.312 96.1835 105.319 95.6251 105.68C94.827 104.472 94.5318 104.149 93.3069 103.391Z" fill="#72280C"/>
<path d="M58.4783 96.5112C61.3198 93.5534 65.2517 93.9878 63.2112 97.8942C63.5693 98.262 63.7637 98.5125 64.2271 98.7513L63.9493 99.1527L64.0283 99.3344C64.5486 99.3784 64.8059 99.3549 65.3306 99.3198L68.6369 98.9872C70.4114 98.7835 72.1814 98.5374 73.9457 98.2503C74.2687 98.6971 74.7657 99.4179 75.3036 99.5703C76.3604 99.4238 77.5063 99.182 78.5602 98.9813C78.414 98.1096 78.3263 98.1462 77.5516 97.6759C79.386 97.38 84.5471 95.934 85.813 96.5288L85.7004 96.6651C86.212 97.0723 86.5175 97.2643 86.8391 97.8474L86.8098 98.0203C86.1696 98.1594 85.9723 98.0583 85.3481 97.8195L85.0427 97.9411L85.1274 98.1331L84.3995 99.4194C83.6219 100.76 83.4538 101.589 83.1074 103.114C82.9335 104.341 82.7654 105.738 82.7931 106.976C82.4073 107.132 81.9264 107.354 81.5259 107.419C81.5463 108.008 81.6633 108.175 81.3636 108.551C80.6123 108.708 79.7543 108.207 78.3731 108.255L77.2783 108.292C75.0069 108.888 75.4234 109.416 74.1693 111.07C74.1021 111.159 73.3464 111.289 73.1418 111.328C72.3422 111.641 72.104 111.729 71.3936 112.205C66.497 112.018 61.2979 112.217 56.451 111.76L56.2069 110.169C55.7435 109.697 55.6734 109.477 55.0624 109.763L54.9923 109.489C55.0069 107.889 55.0668 106.289 55.1735 104.692C53.8492 104.714 52.6387 103.592 51.2894 103.104C51.6388 101.931 51.5961 101.063 52.8885 100.969C53.727 100.855 54.6546 101.11 55.3767 100.75C55.6939 100.372 55.6369 100.177 55.6471 99.6465C56.0183 99.6421 55.9964 99.6538 56.3297 99.4941C56.4758 99.037 56.4963 98.8085 56.5621 98.3279L56.1294 97.5631C56.1031 97.2159 56.0753 97.1661 56.1806 96.8262L56.8822 96.5815L56.986 96.4013C57.5443 96.4643 57.749 96.3354 58.0194 96.854L58.4783 96.5112Z" fill="#FAF2CF"/>
<path d="M58.4783 96.5112C61.3198 93.5534 65.2517 93.9878 63.2112 97.8942C63.5693 98.262 63.7637 98.5125 64.2271 98.7513L63.9493 99.1527L64.0283 99.3344C64.5486 99.3784 64.8059 99.3549 65.3306 99.3198C65.4797 99.9703 65.5586 100.127 65.8554 100.729C63.2024 100.987 59.8128 101.126 57.1351 101.098L56.8003 102.455C56.2054 105.034 55.9599 107.526 56.2069 110.169C55.7435 109.697 55.6734 109.477 55.0624 109.763L54.9923 109.489C55.0069 107.889 55.0668 106.289 55.1735 104.692C53.8492 104.714 52.6387 103.592 51.2894 103.104C51.6388 101.931 51.5961 101.063 52.8885 100.969C53.727 100.855 54.6546 101.11 55.3767 100.75C55.6939 100.372 55.6369 100.177 55.6471 99.6465C56.0183 99.6421 55.9964 99.6538 56.3297 99.4941C56.4758 99.037 56.4963 98.8085 56.5621 98.3279L56.1294 97.5631C56.1031 97.2159 56.0753 97.1661 56.1806 96.8262L56.8822 96.5815L56.986 96.4013C57.5443 96.4643 57.749 96.3354 58.0194 96.854L58.4783 96.5112Z" fill="#72280C"/>
<path d="M58.4783 96.5112C61.3198 93.5534 65.2517 93.9878 63.2112 97.8942C62.5096 98.6869 62.0726 99.1278 61.1035 99.6216L59.7982 99.6245C58.9285 99.6245 58.5134 99.6465 57.6525 99.7622L57.7621 99.1176C57.8732 98.4905 57.9419 98.4187 57.6817 97.8225C57.6101 97.3302 57.6934 97.4093 58.0194 96.854L58.4783 96.5112Z" fill="#DD543B"/>
<path d="M57.6817 97.8225C58.5514 97.6027 58.8423 97.1456 59.7134 97.6789C59.7017 98.2576 59.6535 99.0868 59.7982 99.6245C58.9285 99.6245 58.5134 99.6465 57.6525 99.7622L57.7621 99.1176C57.8732 98.4905 57.9419 98.4187 57.6817 97.8225Z" fill="#BE3026"/>
<path d="M59.7134 97.6789L59.8084 97.6335C60.5714 98.4334 60.7088 99.3476 61.1035 99.6216L59.7982 99.6245C59.6535 99.0868 59.7017 98.2576 59.7134 97.6789Z" fill="#DF4934"/>
<path d="M52.8885 100.969C53.8229 101.068 55.2013 100.994 55.8853 101.157C56.0622 101.47 56.0315 101.302 55.9394 101.684C55.4921 102.755 55.3328 103.533 55.1735 104.692C53.8492 104.714 52.6387 103.592 51.2894 103.104C51.6388 101.931 51.5961 101.063 52.8885 100.969Z" fill="#DD543B"/>
<path d="M56.8822 96.5815L56.986 96.4013C57.5443 96.4643 57.749 96.3354 58.0194 96.854C57.6934 97.4093 57.6101 97.3302 57.6817 97.8225C57.9419 98.4187 57.8732 98.4905 57.7621 99.1176L57.6525 99.7622C58.759 99.9117 59.9283 99.3637 60.7702 100.036C60.893 100.524 60.9178 100.303 60.7541 100.729C60.2177 101.019 59.4036 100.946 58.7561 100.953C58.1992 100.504 57.7621 100.212 57.1131 99.9058L57.005 99.856C56.4817 99.1279 56.6966 99.2172 56.5621 98.3279L56.1294 97.5631C56.1031 97.2159 56.0753 97.1661 56.1806 96.8262L56.8822 96.5815Z" fill="#5D1D07"/>
<path d="M77.5516 97.6759C79.386 97.38 84.5471 95.934 85.813 96.5288L85.7004 96.6651C86.212 97.0723 86.5175 97.2643 86.8391 97.8474L86.8098 98.0203C86.1696 98.1594 85.9723 98.0583 85.3481 97.8195L85.0427 97.9411L85.1274 98.1331L84.3995 99.4194C83.6219 100.76 83.4538 101.589 83.1074 103.114L82.7288 102.607C82.2611 102.429 82.4423 102.464 81.8314 102.732C82.3386 100.594 82.5724 99.8648 83.5927 97.9192C81.9848 98.3279 80.2001 98.6517 78.5602 98.9813C78.414 98.1096 78.3263 98.1462 77.5516 97.6759Z" fill="#72280C"/>
<path d="M73.9457 98.2503C74.2687 98.6971 74.7657 99.4179 75.3036 99.5703L70.255 100.272C70.3763 99.6055 70.4377 99.8296 70.1293 99.3623C69.6308 99.0707 69.2113 99.0663 68.6369 98.9872C70.4114 98.7835 72.1814 98.5374 73.9457 98.2503Z" fill="#72280C"/>
<path d="M65.3306 99.3198L68.6369 98.9872C69.2113 99.0663 69.6308 99.0707 70.1293 99.3623C70.4377 99.8296 70.3763 99.6055 70.255 100.272L65.8554 100.729C65.5586 100.127 65.4797 99.9703 65.3306 99.3198Z" fill="#5D1D07"/>
<path d="M81.8314 102.732C82.4423 102.464 82.2611 102.429 82.7288 102.607L83.1074 103.114C82.9335 104.341 82.7654 105.738 82.7931 106.976C82.4073 107.132 81.9264 107.354 81.5259 107.419C81.4031 105.583 81.5478 104.516 81.8314 102.732Z" fill="#5D1D07"/>
<path d="M20.9515 100.54C21.3099 100.47 21.9685 99.7315 22.9824 99.3667L23.2117 99.7124C23.1706 99.9029 23.1608 100.013 23.0851 100.19C23.8996 100.303 23.9571 100.621 24.6149 101.018C23.9826 103.421 23.6268 105.529 24.126 108.012C24.2876 108.554 24.1621 108.421 24.5523 108.692L25.1927 108.673C25.6866 108.46 27.7355 107.852 28.4442 107.596C30.6156 106.928 32.5098 106.499 34.5428 107.822C35.1754 108.468 35.457 108.926 35.6679 109.838L35.6489 109.769C37.0703 110.274 37.7697 110.56 39.0279 111.394L39.0867 111.663C39.882 112.428 40.292 113.346 40.1448 114.454C39.2155 114.549 39.6056 114.794 38.7799 114.406C38.4526 115.992 38.3331 116.394 37.4843 117.753C37.9773 118.092 38.2281 118.228 38.5903 118.722C37.9269 119.544 37.6715 119.813 36.8821 120.514C36.3611 120.237 35.9557 120.071 35.5528 119.642C32.8179 121.29 31.6345 121.476 28.5282 121.59C24.5037 121.092 21.2557 119.577 19.4859 115.749L18.8156 113.827C18.1344 114.31 18.1368 114.388 17.9079 115.318C17.5086 113.793 17.4999 113.144 17.5442 111.558L17.3647 112.081C16.4059 112.989 14.922 112.019 14.122 111.332L14.1355 110.41L14.2645 108.938C13.498 108.863 13.3339 108.841 12.6379 109.162C12.7877 108.164 12.9305 107.636 13.214 106.66C13.5381 105.771 13.8062 105.164 14.213 104.307L14.854 103.299C15.4627 103.456 15.8116 103.511 16.1394 104.096C17.3568 102.593 18.1896 101.555 20.2819 101.766C20.318 101.005 20.3574 100.961 20.9515 100.54Z" fill="#FAFBFB"/>
<path d="M36.7391 113.014C37.0345 111.735 37.9315 111.518 39.0867 111.663C39.882 112.428 40.292 113.346 40.1448 114.454C39.2155 114.549 39.6056 114.794 38.7799 114.406C38.4526 115.992 38.3331 116.394 37.4843 117.753C37.9773 118.092 38.2281 118.228 38.5903 118.722C37.9269 119.544 37.6715 119.813 36.8821 120.514C36.3611 120.237 35.9557 120.071 35.5528 119.642C32.8179 121.29 31.6345 121.476 28.5282 121.59C24.5037 121.092 21.2557 119.577 19.4859 115.749C22.6777 117.515 23.6136 118.501 27.811 118.127C30.6106 117.878 33.0572 116.725 34.8444 114.45C35.392 113.752 35.6793 112.854 36.4461 111.911L36.5592 111.773C36.6666 112.283 36.7207 112.5 36.7391 113.014Z" fill="#DBD6E1"/>
<path d="M36.7391 113.014C37.0345 111.735 37.9315 111.518 39.0867 111.663C39.882 112.428 40.292 113.346 40.1448 114.454C39.2155 114.549 39.6056 114.794 38.7799 114.406C38.6787 113.877 38.597 113.077 38.0993 112.823C37.6071 115.696 36.4102 117.34 33.7101 118.761C33.3997 118.925 33.0758 118.769 32.81 118.628C32.7748 118.43 32.6963 118.178 32.8695 118.03C34.8445 116.338 35.9133 115.598 36.7391 113.014Z" fill="#5D1D07"/>
<path d="M37.4843 117.753C37.9773 118.092 38.2281 118.228 38.5903 118.722C37.9269 119.544 37.6715 119.813 36.8821 120.514C36.3611 120.237 35.9557 120.071 35.5528 119.642C36.3908 118.942 36.7553 118.571 37.4843 117.753Z" fill="#5D1D07"/>
<path d="M22.7657 100.946L22.7784 100.457L23.0851 100.19C23.8996 100.303 23.9571 100.621 24.6149 101.018C23.9826 103.421 23.6268 105.529 24.126 108.012C24.2876 108.554 24.1621 108.421 24.5523 108.692L25.1927 108.673C25.6866 108.46 27.7355 107.852 28.4442 107.596C30.6156 106.928 32.5098 106.499 34.5428 107.822C34.5181 108.623 34.4333 108.733 33.8447 109.29C31.0538 107.28 27.5046 110.393 24.5506 110.202C23.4817 110.135 21.8361 109.271 21.9883 108.022C22.2834 107.98 22.3101 108 22.5592 107.848C22.4322 104.62 22.5487 104.184 23.0648 101.028L22.7657 100.946Z" fill="#5D1D07"/>
<path d="M34.5428 107.822C35.1754 108.468 35.457 108.926 35.6679 109.838L35.6489 109.769C37.0703 110.274 37.7697 110.56 39.0279 111.394L39.0867 111.663C37.9315 111.518 37.0345 111.735 36.7391 113.014C36.7207 112.5 36.6666 112.283 36.5592 111.773C35.9104 111.418 36.0799 111.374 35.5302 111.5C34.2077 112.759 33.9248 113.889 32.2217 114.858C32.4427 114.406 32.511 114.335 32.5224 113.849L32.316 113.695C31.9307 113.768 31.5446 113.839 31.1583 113.906C32.638 112.791 34.4977 111.352 33.8447 109.29C34.4333 108.733 34.5181 108.623 34.5428 107.822Z" fill="#72280C"/>
<path d="M20.9515 100.54C21.3099 100.47 21.9685 99.7315 22.9824 99.3667L23.2117 99.7124C23.1706 99.9029 23.1608 100.013 23.0851 100.19L22.7784 100.457L22.7657 100.946C21.7733 102.032 19.8032 105.315 19.1477 105.398C18.7242 104.259 19.8671 102.75 20.2819 101.766C20.318 101.005 20.3574 100.961 20.9515 100.54Z" fill="#5D1D07"/>
<path d="M31.1583 113.906C31.5446 113.839 31.9307 113.768 32.316 113.695L32.5224 113.849C32.511 114.335 32.4427 114.406 32.2217 114.858C31.4416 115.289 29.7687 116.376 28.9949 115.609C29.1459 114.8 30.4702 114.269 31.1583 113.906Z" fill="#5D1D07"/>
<path d="M13.214 106.66C13.7272 106.563 14.1308 106.414 14.5884 106.611L14.7418 106.928C14.5827 107.593 14.412 108.273 14.2645 108.938C13.498 108.863 13.3339 108.841 12.6379 109.162C12.7877 108.164 12.9305 107.636 13.214 106.66Z" fill="#66230A"/>
<path d="M17.5442 111.558C17.8393 111.081 17.7414 111.068 18.1733 110.92C18.5127 111.398 18.6815 113.141 18.8156 113.827C18.1344 114.31 18.1368 114.388 17.9079 115.318C17.5086 113.793 17.4999 113.144 17.5442 111.558Z" fill="#66230A"/>
<path d="M14.213 104.307C14.5157 104.798 14.7766 105.344 15.2431 105.643L14.7418 106.928L14.5884 106.611C14.1308 106.414 13.7272 106.563 13.214 106.66C13.5381 105.771 13.8062 105.164 14.213 104.307Z" fill="#72280C"/>
<path d="M14.854 103.299C15.4627 103.456 15.8116 103.511 16.1394 104.096L15.2431 105.643C14.7766 105.344 14.5157 104.798 14.213 104.307L14.854 103.299Z" fill="#5D1D07"/>
<path d="M27.5841 96.9097C31.3618 97.8371 35.713 98.9286 39.5588 99.4809C40.0904 98.7059 40.1872 98.8158 41.1671 98.3733L44.6024 98.8509C45.1881 98.9403 46.5507 99.2363 47.013 99.0194L46.881 98.6195C47.0893 98.4788 47.7909 98.177 48.1539 97.9631C48.9385 98.5184 49.6804 99.04 50.5928 99.3784C50.963 99.5146 51.3366 99.497 51.6314 99.6494C51.3083 99.837 50.9165 100.594 50.9817 100.956C50.6733 101.661 50.4738 102.131 50.2394 102.862L49.783 104.886C49.6139 106.351 49.5478 107.205 49.5477 108.676C49.6018 109.586 49.6754 110.492 49.7688 111.398C49.1846 111.966 40.7748 111.188 39.0279 111.394C37.7697 110.56 37.0703 110.274 35.6489 109.769L35.6679 109.838C35.457 108.926 35.1754 108.468 34.5428 107.822C32.5098 106.499 30.6156 106.928 28.4442 107.596C27.7355 107.852 25.6866 108.46 25.1927 108.673L24.5523 108.692C24.1621 108.421 24.2876 108.554 24.126 108.012C23.6268 105.529 23.9826 103.421 24.6149 101.018C25.2418 99.0356 25.8197 98.0408 27.5841 96.9097Z" fill="#FAF2CF"/>
<path d="M48.1539 97.9631C48.9385 98.5184 49.6804 99.04 50.5928 99.3784C50.963 99.5146 51.3366 99.497 51.6314 99.6494C51.3083 99.837 50.9165 100.594 50.9817 100.956C48.9687 100.685 46.6973 100.495 44.6574 100.272C44.7248 99.6362 44.6983 99.4868 44.6024 98.8509C45.1881 98.9403 46.5507 99.2363 47.013 99.0194L46.881 98.6195C47.0893 98.4788 47.7909 98.177 48.1539 97.9631Z" fill="#72280C"/>
<path d="M41.1671 98.3733L44.6024 98.8509C44.6983 99.4868 44.7248 99.6362 44.6574 100.272C42.9516 100.049 41.2516 99.7857 39.5588 99.4809C40.0904 98.7059 40.1872 98.8158 41.1671 98.3733Z" fill="#5D1D07"/>
<path d="M24.7982 106.689C26.444 106.83 26.9799 106.878 28.4442 107.596C27.7355 107.852 25.6866 108.46 25.1927 108.673L24.5523 108.692C24.1621 108.421 24.2876 108.554 24.126 108.012C24.4757 107.712 24.6272 107.142 24.7982 106.689Z" fill="#F6D289"/>
<path d="M24.126 108.012C24.4757 107.712 24.6272 107.142 24.7982 106.689C24.8561 107.596 24.9242 107.803 25.1927 108.673L24.5523 108.692C24.1621 108.421 24.2876 108.554 24.126 108.012Z" fill="#FAF2CF"/>
<path d="M40.9622 32.9048C41.9481 32.5728 42.7602 32.5117 43.7813 32.3889C44.2516 32.997 44.7337 33.5957 45.227 34.1851C45.067 34.2253 43.3673 34.5788 43.4692 34.5353L42.7243 34.5471C40.8672 35.0922 38.1623 36.0494 36.5244 37.0933C35.6198 37.6229 35.1284 37.8875 34.3512 38.5735C32.8483 39.6112 27.8284 42.7715 26.7521 43.853C25.5724 44.7164 24.4661 45.6762 23.4445 46.7228C22.6419 47.4727 20.2739 49.9123 19.6854 50.8056C20.3962 52.4583 18.5732 54.68 18.0918 56.2466C17.8756 56.9322 17.7386 57.2316 17.4336 57.8728C17.0074 58.9577 16.4718 61.3656 15.7528 61.8602C15.1851 61.8886 15.3517 61.8726 14.7752 61.5711C14.179 62.2854 13.5327 62.7914 12.7013 63.2057L12.3362 63.1481C11.3112 65.205 10.8342 67.2546 10.2947 69.4704C9.52787 72.7519 8.68156 76.6175 8.30971 79.9648C8.08462 81.31 7.88919 82.6091 7.73542 83.9622C7.6524 84.6924 7.56426 86.958 7.16479 87.3972L7.02973 87.438C6.45471 87.618 6.36687 87.664 5.87896 88.0113C5.71263 87.5791 5.5365 86.8496 5.48008 86.3868C5.63984 85.799 5.82649 81.1235 6.02923 79.825C7.32119 71.5514 8.26528 65.2504 12.3727 57.8002C16.0327 51.1617 20.7345 45.6246 26.7858 41.0087C27.94 39.9545 30.133 39.1101 31.2272 38.1829C34.6564 35.2766 36.695 34.2364 40.9622 32.9048Z" fill="#5D1D07"/>
<path d="M15.8605 56.3919C15.9374 56.8747 15.5229 57.4658 15.2706 57.8952L15.5336 57.9168C16.0998 56.7582 16.7811 56.0487 18.0918 56.2466C17.8756 56.9322 17.7386 57.2316 17.4336 57.8728C17.0074 58.9577 16.4718 61.3656 15.7528 61.8602C15.1851 61.8886 15.3517 61.8726 14.7752 61.5711C14.7153 61.0806 14.675 60.6234 14.7082 60.1251C14.7641 59.2822 15.2551 58.8014 14.8695 58.0236C15.2368 57.3012 15.3634 57.0421 15.8605 56.3919Z" fill="#F6D289"/>
<path d="M19.6854 50.8056C20.3962 52.4583 18.5732 54.68 18.0918 56.2466C16.7811 56.0487 16.0998 56.7582 15.5336 57.9168L15.2706 57.8952C15.5229 57.4658 15.9374 56.8747 15.8605 56.3919C16.6134 54.7042 18.4928 52.2317 19.6854 50.8056Z" fill="#FAF2CF"/>
<path d="M14.8695 58.0236C15.2551 58.8014 14.7641 59.2822 14.7082 60.1251C14.675 60.6234 14.7153 61.0806 14.7752 61.5711C14.179 62.2854 13.5327 62.7914 12.7013 63.2057L12.3362 63.1481C13.1592 61.1804 13.722 59.8527 14.8695 58.0236Z" fill="#FAF2CF"/>
<path d="M40.9622 32.9048C41.9481 32.5728 42.7602 32.5117 43.7813 32.3889C44.2516 32.997 44.7337 33.5957 45.227 34.1851C45.067 34.2253 43.3673 34.5788 43.4692 34.5353L42.7243 34.5471L42.7602 34.3579L42.9467 34.2415C43.0551 31.9931 42.1292 33.4766 40.9622 32.9048Z" fill="#66230A"/>
<path d="M98.6537 46.8397C101.861 50.0162 107.957 58.8858 108.359 63.292C109.838 64.7417 110.224 65.8706 110.875 67.8408C113.168 74.7913 114.294 81.9929 113.868 89.3164C113.731 91.6929 113.935 92.0544 114.579 94.2244C114.049 93.8852 113.26 94.2352 112.659 94.4302C112.151 91.8011 111.442 90.5687 109.233 89.1095C104.848 87.8281 105.803 81.8587 108.014 79.0029C108.878 77.8868 110.683 77.583 110.717 75.5012C109.862 71.5249 107.706 64.8563 105.712 61.2358C105.211 60.3258 103.75 59.4025 103.198 58.7928C102.967 58.5364 102.776 56.067 102.393 55.3461C101.011 52.7418 98.7253 50.1161 96.8895 47.8035C97.3367 47.5086 97.9623 47.3133 98.6537 46.8397Z" fill="#66230A"/>
<path d="M110.717 75.5012C111.585 80.1162 111.847 84.2586 111.826 88.97C110.769 88.3608 109.998 87.7697 109.233 89.1095C104.848 87.8281 105.803 81.8587 108.014 79.0029C108.878 77.8868 110.683 77.583 110.717 75.5012Z" fill="#EEAF4B"/>
<path d="M10.2947 69.4704C12.89 68.8174 14.8051 68.2498 17.3335 69.7196C18.3275 70.2976 19.7111 71.8692 20.1951 72.8569C21.1241 76.9612 20.7253 78.9875 17.8103 82.166C17.1531 82.7018 16.2368 83.5261 15.4426 83.7325C14.5893 84.1531 14.0264 84.428 13.0442 84.4595C12.0666 84.1118 11.5514 83.8991 10.7253 83.2842C9.51282 82.4271 8.87465 81.288 8.30971 79.9648C8.68156 76.6175 9.52787 72.7519 10.2947 69.4704Z" fill="#964C1F"/>
<path d="M10.7253 83.2842C11.8605 82.8663 14.3848 83.0846 15.4426 83.7325C14.5893 84.1531 14.0264 84.428 13.0442 84.4595C12.0666 84.1118 11.5514 83.8991 10.7253 83.2842Z" fill="#964C1F"/>
<path d="M5.48008 86.3868C5.5365 86.8496 5.71263 87.5791 5.87896 88.0113C3.16421 90.6922 2.00935 94.1743 1.97471 97.9558C1.96872 102.355 3.685 106.582 6.7545 109.726C8.67177 111.66 10.529 112.778 12.8773 114.01C12.6914 112.608 12.5206 111.515 12.5654 110.087L12.6379 109.162C13.3339 108.841 13.498 108.863 14.2645 108.938L14.1355 110.41L14.122 111.332C14.922 112.019 16.4059 112.989 17.3647 112.081L17.5442 111.558C17.4999 113.144 17.5086 113.793 17.9079 115.318C18.1368 114.388 18.1344 114.31 18.8156 113.827L19.4859 115.749C21.2557 119.577 24.5037 121.092 28.5282 121.59C27.8161 121.639 27.0269 121.558 26.5365 121.948C26.3237 122.363 26.3667 122.433 26.4293 122.922L26.2651 123.054C27.0899 123.889 28.1153 124.165 29.0727 124.822C30.1438 125.558 30.4718 126.365 31.2471 127.213C30.2331 126.75 29.9412 127.021 28.9949 127.474C26.2106 125.867 24.4474 125.06 22.2365 122.396C21.3821 121.366 20.6513 119.828 19.6068 119.041C16.4358 119.69 15.3938 118.807 13.6848 116.224C13.3371 116.096 12.9909 115.965 12.6459 115.828C7.66761 113.864 3.57129 110.198 1.44778 105.234C-0.441713 100.838 -0.483371 95.8622 1.33246 91.434C2.10977 89.5051 3.49338 87.2277 5.48008 86.3868Z" fill="#5D1D07"/>
<path d="M14.122 111.332C14.922 112.019 16.4059 112.989 17.3647 112.081L17.5442 111.558C17.4999 113.144 17.5086 113.793 17.9079 115.318C18.2653 116.284 18.6365 117.006 19.0956 117.92C15.1829 117.702 14.2694 114.734 14.122 111.332Z" fill="#DBD6E1"/>
<path d="M12.6379 109.162C13.3339 108.841 13.498 108.863 14.2645 108.938L14.1355 110.41C13.8275 110.712 13.7951 110.778 13.3662 110.873C12.8749 110.655 12.9417 110.583 12.5654 110.087L12.6379 109.162Z" fill="#5D1D07"/>
<path d="M77.4332 48.7797C79.921 49.2107 81.9439 49.4759 84.4638 49.6304C85.3101 51.1371 86.2777 52.7664 85.7749 54.5598C85.1157 56.9214 82.4189 57.8998 80.2498 57.0704C77.8878 56.1681 75.8385 54.7021 75.7625 51.9725C76.4875 50.4846 75.7728 50.4733 77.4332 48.7797Z" fill="#AA5923"/>
<path d="M55.3474 41.5912C60.4326 44.0013 64.1247 45.4166 69.4964 47.0497C67.0174 49.5173 67.0568 48.7447 64.3893 49.3846C61.1985 49.4984 58.0442 47.9235 56.1119 45.4078C55.4074 43.9719 55.2597 43.1958 55.3474 41.5912Z" fill="#964C1F"/>
<path d="M45.227 34.1851C46.0615 35.0242 47.0389 36.0803 47.9244 36.8271C50.1126 38.6727 53.1282 40.0413 55.3474 41.5912C55.2597 43.1958 55.4074 43.9719 56.1119 45.4078C53.2882 43.9877 50.6188 42.9807 48.3008 40.4281C46.5565 38.5074 46.0546 37.4354 43.9155 35.7712C43.7971 35.218 43.8259 34.8447 43.4692 34.5353C43.3673 34.5788 45.067 34.2253 45.227 34.1851Z" fill="#EEAF4B"/>
<path d="M34.3512 38.5735C35.1284 37.8875 35.6198 37.6229 36.5244 37.0933C37.0955 38.0251 36.2252 38.291 37.1051 38.9925C37.6467 39.3177 37.718 39.2293 37.8871 39.6862C37.0822 40.876 31.1301 44.0983 29.8015 45.2812C27.7315 47.1241 25.7385 49.0325 23.8047 51.0444C22.4285 52.4761 20.2449 55.7527 18.8988 56.7462C18.8093 56.5437 18.8143 56.4845 18.77 56.265C19.3583 54.4349 24.1963 48.1733 25.8279 46.7951C28.1835 44.8055 31.5889 43.1076 34.0898 40.9963C33.8175 40.4941 33.5556 40.4629 33.023 40.102C33.2099 39.6508 33.5955 39.5056 34.0602 39.1787L34.3512 38.5735Z" fill="#FAF2CF"/>
<path d="M34.0602 39.1787C34.5358 39.4686 35.0727 39.7788 35.5309 40.0851C35.3209 40.2186 34.255 40.9179 34.0898 40.9963C33.8175 40.4941 33.5556 40.4629 33.023 40.102C33.2099 39.6508 33.5955 39.5056 34.0602 39.1787Z" fill="#F6D289"/>
<path d="M20.1951 72.8569C21.5737 73.9694 22.7704 74.6549 23.5066 76.3391C25.0414 79.8506 22.9867 83.9829 19.1158 84.6198C19.3614 83.4812 18.5465 83.5522 18.0086 82.708C17.9206 82.57 18.1793 82.6428 17.8103 82.166C20.7253 78.9875 21.1241 76.9612 20.1951 72.8569Z" fill="#B77A3E"/>
<path d="M85.9737 96.4907C86.7119 96.1479 88.2744 96.0014 89.1148 95.9618C91.7912 95.8358 93.8083 97.5676 94.8811 99.9058C95.0785 100.344 95.2714 100.786 95.4556 101.232C92.8114 102.448 93.1768 101.312 91.3337 101.882C89.9904 102.232 90.0781 101.154 88.1341 100.485C87.5655 98.7792 87.3126 97.6804 85.9737 96.4907Z" fill="#964C1F"/>
<path d="M69.4964 47.0497C72.1171 47.7364 74.7642 48.3135 77.4332 48.7797C75.7728 50.4733 76.4875 50.4846 75.7625 51.9725C75.0931 51.666 71.1934 51.3288 70.1483 50.9985C68.2218 50.3898 66.3187 49.8898 64.3893 49.3846C67.0568 48.7447 67.0174 49.5173 69.4964 47.0497Z" fill="#EEAF4B"/>
<path d="M27.4217 95.6307C32.0533 96.6519 36.4873 97.6305 41.1671 98.3733C40.1872 98.8158 40.0904 98.7059 39.5588 99.4809C35.713 98.9286 31.3618 97.8371 27.5841 96.9097C25.8197 98.0408 25.2418 99.0356 24.6149 101.018C23.9571 100.621 23.8996 100.303 23.0851 100.19C23.1608 100.013 23.1706 99.9029 23.2117 99.7124L22.9824 99.3667C24.6045 98.9359 24.3031 96.7134 27.4217 95.6307Z" fill="#662409"/>
<path d="M49.3184 94.0459L49.5683 94.128C50.9662 95.0066 51.9565 95.9311 53.108 97.0943C52.6043 97.9939 52.4764 98.2429 52.4244 99.3183C52.0894 99.6567 52.1962 99.5513 51.6314 99.6494C51.3366 99.497 50.963 99.5146 50.5928 99.3784C49.6804 99.04 48.9385 98.5184 48.1539 97.9631C47.7909 98.177 47.0893 98.4788 46.881 98.6195L46.4241 98.1931C47.0444 97.7492 46.8895 97.5309 46.9138 96.8247L46.6169 96.2548C47.3929 95.6703 48.6299 94.6916 49.3184 94.0459Z" fill="#DD543B"/>
<path d="M46.9138 96.8247C47.3175 97.2013 47.7377 97.6056 48.1539 97.9631C47.7909 98.177 47.0893 98.4788 46.881 98.6195L46.4241 98.1931C47.0444 97.7492 46.8895 97.5309 46.9138 96.8247Z" fill="#66230A"/>
<path d="M13.4099 96.52C15.0578 98.4891 15.932 99.1059 18.1089 100.458C19.2626 100.181 19.7829 100.058 20.9515 100.54C20.3574 100.961 20.318 101.005 20.2819 101.766C18.1896 101.555 17.3568 102.593 16.1394 104.096C15.8116 103.511 15.4627 103.456 14.854 103.299L16.2919 101.657C14.4114 100.43 13.4004 99.5146 12.0104 97.7653C12.8109 97.3903 12.9935 97.2906 13.4099 96.52Z" fill="#72280C"/>
<path d="M49.8598 92.8887C51.7133 93.8654 52.7066 94.9304 54.124 96.4819C55.4541 96.372 55.5784 96.4174 56.8822 96.5815L56.1806 96.8262C56.0753 97.1661 56.1031 97.2159 56.1294 97.5631L56.5621 98.3279C56.4963 98.8085 56.4758 99.037 56.3297 99.4941C55.9964 99.6538 56.0183 99.6421 55.6471 99.6465L53.5698 99.5381C53.3287 99.2846 53.2825 99.2333 53.0016 99.0297L52.4244 99.3183C52.4764 98.2429 52.6043 97.9939 53.108 97.0943C51.9565 95.9311 50.9662 95.0066 49.5683 94.128C50.0059 93.2853 49.3702 93.8285 49.8598 92.8887Z" fill="#66230A"/>
<path d="M55.8868 97.6496L56.1294 97.5631L56.5621 98.3279C56.4963 98.8085 56.4758 99.037 56.3297 99.4941C55.9964 99.6538 56.0183 99.6421 55.6471 99.6465L53.5698 99.5381L53.5021 98.8905C53.6126 98.9433 53.8156 98.9916 53.9413 99.0282C54.7905 98.7587 55.289 98.2781 55.8868 97.6496Z" fill="#DD543B"/>
<path d="M53.5021 98.8905C54.0173 97.4269 54.4953 97.4943 55.8868 97.6496C55.289 98.2781 54.7905 98.7587 53.9413 99.0282C53.8156 98.9916 53.6126 98.9433 53.5021 98.8905Z" fill="#DF4934"/>
<path d="M56.986 96.4013C58.3102 95.008 59.8903 93.2201 61.9834 93.1937C62.7727 93.1836 63.5342 93.4829 64.1043 94.0275C65.4417 95.3245 65.1932 97.3287 64.2271 98.7513C63.7637 98.5125 63.5693 98.262 63.2112 97.8942C65.2517 93.9878 61.3198 93.5534 58.4783 96.5112L58.0194 96.854C57.749 96.3354 57.5443 96.4643 56.986 96.4013Z" fill="#66230A"/>
<path d="M96.9669 105.202L97.6378 106.642C98.5061 109.108 99.0688 112.863 97.9535 115.286C97.8951 115.102 97.8249 115.014 97.7255 114.844C97.173 114.637 97.249 114.728 96.5752 114.835C96.9172 113.833 97.0283 112.806 97.0912 111.757C97.0853 109.331 96.8354 108.449 95.9525 106.229L95.6251 105.68C96.1835 105.319 96.3048 105.312 96.9669 105.202Z" fill="#72280C"/>
<path d="M96.9669 105.202L97.6378 106.642C97.1321 106.921 97.2636 106.954 96.8178 106.874C96.4875 106.522 96.3866 106.439 95.9525 106.229L95.6251 105.68C96.1835 105.319 96.3048 105.312 96.9669 105.202Z" fill="#5D1D07"/>
<path d="M112.659 94.4302C113.26 94.2352 114.049 93.8852 114.579 94.2244C115.054 96.3486 115.172 99.1821 114.7 101.334C113.528 101.238 113.718 101.066 112.797 100.485C113.126 98.2913 113.139 96.5977 112.659 94.4302Z" fill="#72280C"/>
<path d="M104.503 113.005C106.139 111.818 106.971 111.036 108.339 109.619C109.099 109.843 109.749 110.032 110.522 110.202C109.134 111.751 107.633 113.38 105.849 114.485C105.298 113.95 104.948 113.635 104.503 113.005Z" fill="#5D1D07"/>
<path d="M108.339 109.619C109.736 108.049 110.54 106.711 111.427 104.848C112.067 105.24 112.671 105.545 113.121 106.143C112.314 107.719 111.613 108.784 110.522 110.202C109.749 110.032 109.099 109.843 108.339 109.619Z" fill="#72280C"/>
<path d="M45.3539 95.9457C45.2334 93.0697 47.284 91.9446 49.8598 92.8887C49.3702 93.8285 50.0059 93.2853 49.5683 94.128L49.3184 94.0459C48.6299 94.6916 47.3929 95.6703 46.6169 96.2548L46.3893 95.4446C45.9115 95.452 45.612 95.4842 45.3539 95.9457Z" fill="#72280C"/>
<path d="M46.3893 95.4446C47.2143 93.8335 47.5573 93.5317 49.3184 94.0459C48.6299 94.6916 47.3929 95.6703 46.6169 96.2548L46.3893 95.4446Z" fill="#DF4934"/>
<path d="M112.797 100.485C113.718 101.066 113.528 101.238 114.7 101.334C114.374 102.902 113.881 104.723 113.121 106.143C112.671 105.545 112.067 105.24 111.427 104.848C112.062 103.434 112.421 101.977 112.797 100.485Z" fill="#5D1D07"/>
<path d="M97.7445 99.9263C98.5981 100.492 98.6756 100.518 98.7911 101.553C98.126 101.963 97.1993 102.568 96.4612 102.801C95.6806 102.761 93.7132 102.859 93.1651 102.675C92.5366 102.464 92.7705 102.077 91.3337 101.882C93.1768 101.312 92.8114 102.448 95.4556 101.232L97.7445 99.9263Z" fill="#5D1D07"/>
<path d="M15.4426 83.7325C16.2368 83.5261 17.1531 82.7018 17.8103 82.166C18.1793 82.6428 17.9206 82.57 18.0086 82.708C18.5465 83.5522 19.3614 83.4812 19.1158 84.6198C16.9791 85.2336 15.2271 84.7903 13.0442 84.4595C14.0264 84.428 14.5893 84.1531 15.4426 83.7325Z" fill="#B16E32"/>
<path d="M102.339 95.1399C102.891 95.1633 103.311 95.1135 103.762 95.4051L103.917 95.8021C103.226 97.257 102.742 97.8752 101.66 99.0795C101.038 98.6004 100.845 98.407 100.311 97.8298C101.163 96.9405 101.717 96.1918 102.339 95.1399Z" fill="#5D1D07"/>
<path d="M100.311 97.8298C100.845 98.407 101.038 98.6004 101.66 99.0795C100.694 100.039 99.9297 100.761 98.7911 101.553C98.6756 100.518 98.5981 100.492 97.7445 99.9263C98.8481 99.1821 99.3874 98.7748 100.311 97.8298Z" fill="#72280C"/>
<path d="M73.9457 98.2503C75.0945 98.0993 76.3954 97.862 77.5516 97.6759C78.3263 98.1462 78.414 98.1096 78.5602 98.9813C77.5063 99.182 76.3604 99.4238 75.3036 99.5703C74.7657 99.4179 74.2687 98.6971 73.9457 98.2503Z" fill="#5D1D07"/>
<path d="M10.4315 94.6579C10.9381 94.4472 11.536 94.5974 12.2651 94.502C12.6677 95.3055 12.9137 95.7772 13.4099 96.52C12.9935 97.2906 12.8109 97.3903 12.0104 97.7653C11.2902 96.7398 10.8773 95.8197 10.4315 94.6579Z" fill="#5D1D07"/>
<path d="M10.4315 94.6579C10.1308 93.9057 9.7597 92.0729 10.4123 91.4771L10.7628 91.5011C11.7043 92.2096 11.9057 93.3663 12.2651 94.502C11.536 94.5974 10.9381 94.4472 10.4315 94.6579Z" fill="#72280C"/>
<path d="M42.7243 34.5471L43.4692 34.5353C43.8259 34.8447 43.7971 35.218 43.9155 35.7712L43.7531 35.8506C43.6353 35.4932 43.5616 34.9845 43.1671 34.8929C42.2147 34.6721 39.4454 35.8988 38.7105 36.4009L38.8477 36.9918C38.5161 37.5188 37.9906 37.6445 37.3828 37.8571C37.0415 38.292 37.0314 38.349 37.1051 38.9925C36.2252 38.291 37.0955 38.0251 36.5244 37.0933C38.1623 36.0494 40.8672 35.0922 42.7243 34.5471Z" fill="#F6D289"/>
<path d="M26.7521 43.853C26.8618 45.1471 24.9458 46.8616 23.7569 46.9706C23.6075 46.8723 23.5372 46.8551 23.4445 46.7228C24.4661 45.6762 25.5724 44.7164 26.7521 43.853Z" fill="#F6D289"/>
<path d="M45.3539 95.9457C45.612 95.4842 45.9115 95.452 46.3893 95.4446L46.6169 96.2548L46.9138 96.8247C46.8895 97.5309 47.0444 97.7492 46.4241 98.1931C45.6883 97.4137 45.5701 96.9449 45.3539 95.9457Z" fill="#5D1D07"/>
<path d="M102.969 93.8707C103.476 94.0185 103.984 94.1631 104.493 94.3047L103.917 95.8021L103.762 95.4051C103.311 95.1135 102.891 95.1633 102.339 95.1399L102.969 93.8707Z" fill="#72280C"/>
<path d="M102.969 93.8707C103.328 93.4299 103.362 93.3162 103.878 93.184C104.361 93.333 104.171 93.1932 104.452 93.632L104.493 94.3047C103.984 94.1631 103.476 94.0185 102.969 93.8707Z" fill="#964C1F"/>
<path d="M55.0419 74.1319C58.0442 74.3003 60.4779 74.1929 63.3822 74.0428C66.1638 73.8989 65.9357 79.2401 65.8057 81.3C65.5309 85.6619 63.1235 91.7956 57.746 91.4076C51.3144 90.8002 50.0466 82.5934 50.5617 77.4448C50.8227 74.8351 52.0943 73.6491 54.7189 74.1148L55.0419 74.1319Z" fill="#66230A"/>
<path d="M54.7189 74.1148L55.0419 74.1319C55.3664 74.6065 55.5769 74.808 55.3577 75.3622L55.0054 75.4787C54.3564 75.4047 53.4711 75.1422 53.4774 74.3717C53.9121 74.0394 54.0904 74.142 54.7189 74.1148Z" fill="#5D1D07"/>
<path d="M54.6458 85.1646C56.4305 83.0616 59.329 82.195 62.0097 82.401L63.5547 82.7717C63.4875 83.0383 63.1717 84.2432 63.1513 84.4478C62.0609 87.3866 60.2119 90.2878 56.4305 89.0353C55.289 88.6575 54.1489 87.1659 53.858 86.0018L54.6458 85.1646Z" fill="#DD543B"/>
<path d="M53.3999 75.567C56.4685 76.1513 59.4986 75.8662 62.5783 75.7516C62.8487 75.7417 63.0548 75.9011 63.2492 76.0653C63.6044 76.9581 63.1352 77.4583 62.4336 77.9611C59.9414 79.213 56.3998 79.2687 53.8887 78.0569C52.7771 77.5211 52.796 76.4968 53.3999 75.567Z" fill="#FAFBFB"/>
<path d="M53.858 86.0018C53.4037 85.7202 52.8885 85.3734 53.1396 84.8156L53.5199 84.7078C54.0904 84.8193 54.1723 84.8331 54.6458 85.1646L53.858 86.0018Z" fill="#5D1D07"/>
<path d="M75.0668 64.3445C78.0003 64.2008 80.4998 64.9914 82.3649 67.3904C83.0109 68.2223 83.369 69.6084 82.3634 70.3048C81.7817 70.4025 81.6604 70.3004 81.121 70.0613C81.3286 74.0083 81.4484 76.7662 77.5005 78.8829C77.1292 79.0053 76.6819 79.153 76.3019 79.2267C74.8241 79.5138 73.2952 79.2012 72.0484 78.3579C67.2352 75.0707 68.1399 65.6959 75.0668 64.3445Z" fill="#66230A"/>
<path d="M72.9605 67.8275C76.1265 67.7656 76.8368 71.5114 73.9617 72.8103C70.9434 72.8247 70.1395 69.4179 72.9605 67.8275Z" fill="#FAFBFB"/>
<path d="M77.2315 73.3445C79.1317 73.521 78.9256 75.1638 77.6174 76.2547C75.8444 75.4503 75.8751 74.5366 77.2315 73.3445Z" fill="#FAFBFB"/>
<path d="M39.7352 64.3561C49.5689 62.9462 50.8458 77.9298 41.9706 79.2149C39.3789 79.3608 37.2064 77.6885 36.3192 75.3347C35.6305 73.5076 35.7372 72.1112 35.845 70.2054C34.1716 69.9429 33.5796 69.0934 34.6679 67.5087C35.7684 65.9061 37.8256 64.7392 39.7352 64.3561Z" fill="#66230A"/>
<path d="M39.1877 67.8289C40.3581 67.7828 41.2166 67.9618 41.794 69.1345C42.0935 69.7492 42.1322 70.4592 41.9013 71.1031C41.5857 71.9739 41.1519 72.2845 40.3711 72.6782C40.1239 72.693 39.8558 72.706 39.6106 72.6742C38.9711 72.5865 38.3978 72.2334 38.0309 71.701C37.0271 70.251 37.8336 68.6747 39.1877 67.8289Z" fill="#FAFBFB"/>
<path d="M43.3827 73.1989C44.1167 73.2431 44.8942 73.7667 44.9165 74.5409C44.9383 75.3024 44.556 75.5911 44.0846 76.0981C42.0879 76.0284 42.1195 74.4564 43.3827 73.1989Z" fill="#FAFBFB"/>
<path d="M96.0388 74.5678C95.9613 74.4944 95.8824 74.421 95.8049 74.3476C94.4207 72.6281 92.7617 70.0295 92.5103 67.7986C91.8935 62.3185 94.2424 63.2403 97.8527 61.0315C99.0469 60.3008 98.7224 61.112 99.7441 59.7975C99.8405 60.0354 99.8581 60.0977 99.9282 60.3412C101.634 62.3113 102.904 63.9705 103.859 66.4794C105.257 68.5708 104.652 71.806 103.11 73.622C101.983 74.9473 97.8088 74.493 96.0388 74.5678Z" fill="#F6D289"/>
<path d="M99.9282 60.3412C101.634 62.3113 102.904 63.9705 103.859 66.4794C103.968 67.023 104.164 67.3572 103.634 67.6207C102.78 67.3195 101.862 64.1535 101.334 63.345C100.96 62.7726 99.7295 61.6397 99.1843 61.0951C99.2413 60.7532 99.5804 60.6067 99.9282 60.3412Z" fill="#EAD0A2"/>
<path d="M35.5591 48.8299C36.9106 48.7192 38.7089 48.6682 39.9548 49.2882C42.6285 50.6188 43.7048 54.2399 42.3218 56.8717C41.1012 59.1946 39.5468 59.7149 37.219 60.4429C27.77 62.7534 28.8154 50.9708 35.5591 48.8299Z" fill="#964C1F"/>
<path d="M82.1865 80.4783C88.441 80.2157 89.8252 88.1033 82.8165 89.0475C77.0313 89.3314 74.9849 81.4909 82.1865 80.4783Z" fill="#EEAF4B"/>
<path d="M33.3596 80.2074C38.7708 80.5994 40.4209 87.4062 34.4247 87.9385C33.051 87.8172 32.2009 87.708 31.0608 86.912C28.6305 85.2153 29.0413 81.5179 31.8586 80.5259C32.3829 80.3411 32.8169 80.2812 33.3596 80.2074Z" fill="#EEAF4B"/>
<path d="M28.9949 127.474C29.9412 127.021 30.2331 126.75 31.2471 127.213L32.9376 128.52C33.6018 130.18 33.3399 129.546 32.7447 130.917C31.0956 130.019 30.0029 129.051 28.9949 127.474Z" fill="#5D1D07"/>
</svg>
