<svg width="360" height="407" viewBox="0 0 360 407" fill="none" xmlns="http://www.w3.org/2000/svg">
<rect x="15" width="330" height="407" rx="24" fill="white"/>
<path fill-rule="evenodd" clip-rule="evenodd" d="M321 25.5915L324.977 29.5687C325.188 29.7798 325.474 29.8983 325.773 29.8983C326.071 29.8983 326.358 29.7798 326.569 29.5687C326.78 29.3577 326.898 29.0714 326.898 28.773C326.898 28.4745 326.78 28.1883 326.569 27.9772L322.59 24L326.568 20.0227C326.672 19.9182 326.755 19.7942 326.812 19.6576C326.868 19.5211 326.897 19.3748 326.897 19.2271C326.897 19.0793 326.868 18.933 326.812 18.7965C326.755 18.66 326.672 18.536 326.568 18.4316C326.463 18.3271 326.339 18.2443 326.203 18.1878C326.066 18.1313 325.92 18.1022 325.772 18.1022C325.624 18.1023 325.478 18.1314 325.341 18.188C325.205 18.2446 325.081 18.3275 324.976 18.432L321 22.4092L317.023 18.432C316.919 18.3245 316.795 18.2387 316.658 18.1797C316.52 18.1207 316.373 18.0895 316.223 18.0882C316.074 18.0868 315.926 18.1152 315.788 18.1717C315.649 18.2282 315.524 18.3117 315.418 18.4173C315.312 18.5228 315.229 18.6484 315.172 18.7866C315.115 18.9249 315.087 19.073 315.088 19.2224C315.089 19.3718 315.12 19.5194 315.179 19.6567C315.238 19.794 315.324 19.9181 315.431 20.022L319.41 24L315.432 27.978C315.325 28.0818 315.239 28.206 315.18 28.3432C315.121 28.4805 315.09 28.6282 315.089 28.7775C315.088 28.9269 315.116 29.075 315.173 29.2133C315.229 29.3515 315.313 29.4771 315.419 29.5827C315.524 29.6882 315.65 29.7717 315.788 29.8282C315.927 29.8847 316.075 29.9131 316.224 29.9117C316.374 29.9104 316.521 29.8793 316.658 29.8202C316.796 29.7612 316.92 29.6755 317.023 29.568L321 25.5915Z" fill="#888880" fill-opacity="0.8"/>
<path d="M130.499 38.68H133.139V41.34H130.499V38.68ZM123.499 37.12H140.159V39.06H123.499V37.12ZM130.479 29.24H133.139V31.46H130.479V29.24ZM130.319 31.58H132.659V31.96C132.659 32.6267 132.492 33.2333 132.159 33.78C131.826 34.3133 131.332 34.7867 130.679 35.2C130.026 35.6 129.212 35.9267 128.239 36.18C127.266 36.42 126.139 36.5733 124.859 36.64L124.119 34.68C125.252 34.6267 126.212 34.52 126.999 34.36C127.786 34.1867 128.419 33.98 128.899 33.74C129.392 33.4867 129.752 33.2067 129.979 32.9C130.206 32.5933 130.319 32.28 130.319 31.96V31.58ZM130.959 31.58H133.299V31.96C133.299 32.28 133.406 32.5933 133.619 32.9C133.846 33.2067 134.206 33.4867 134.699 33.74C135.192 33.98 135.832 34.1867 136.619 34.36C137.419 34.52 138.379 34.6267 139.499 34.68L138.759 36.64C137.479 36.5733 136.352 36.42 135.379 36.18C134.406 35.9267 133.592 35.6 132.939 35.2C132.286 34.7867 131.792 34.3133 131.459 33.78C131.126 33.2333 130.959 32.6267 130.959 31.96V31.58ZM125.039 30.68H138.579V32.62H125.039V30.68ZM125.359 40.18H138.159V44.76H128.019V46.52H125.379V42.98H135.539V42.08H125.359V40.18ZM125.379 45.72H138.659V47.66H125.379V45.72ZM144.977 30.36H147.057V32.5C147.057 33.5533 146.911 34.58 146.617 35.58C146.324 36.5667 145.864 37.4533 145.237 38.24C144.611 39.0267 143.791 39.6333 142.777 40.06L141.397 38.02C142.251 37.6333 142.937 37.1467 143.457 36.56C143.991 35.96 144.377 35.3067 144.617 34.6C144.857 33.8933 144.977 33.1933 144.977 32.5V30.36ZM145.477 30.36H147.557V32.5C147.557 33.1667 147.671 33.82 147.897 34.46C148.124 35.0867 148.491 35.66 148.997 36.18C149.517 36.7 150.177 37.1267 150.977 37.46L149.577 39.48C148.617 39.0933 147.831 38.5467 147.217 37.84C146.617 37.12 146.177 36.3067 145.897 35.4C145.617 34.48 145.477 33.5133 145.477 32.5V30.36ZM154.897 29.26H157.437V40.58H154.897V29.26ZM152.677 33.76H155.617V35.9H152.677V33.76ZM150.997 29.6H153.477V40H150.997V29.6ZM151.157 40.84C152.451 40.84 153.571 40.98 154.517 41.26C155.477 41.5267 156.217 41.92 156.737 42.44C157.257 42.96 157.517 43.58 157.517 44.3C157.517 45.0333 157.257 45.66 156.737 46.18C156.217 46.7 155.477 47.0933 154.517 47.36C153.571 47.64 152.451 47.78 151.157 47.78C149.864 47.78 148.737 47.64 147.777 47.36C146.817 47.0933 146.077 46.7 145.557 46.18C145.037 45.66 144.777 45.0333 144.777 44.3C144.777 43.58 145.037 42.96 145.557 42.44C146.077 41.92 146.817 41.5267 147.777 41.26C148.737 40.98 149.864 40.84 151.157 40.84ZM151.157 42.84C149.957 42.84 149.031 42.96 148.377 43.2C147.737 43.44 147.417 43.8067 147.417 44.3C147.417 44.7933 147.737 45.1667 148.377 45.42C149.031 45.66 149.957 45.78 151.157 45.78C151.944 45.78 152.611 45.7267 153.157 45.62C153.717 45.5 154.137 45.3333 154.417 45.12C154.711 44.9067 154.857 44.6333 154.857 44.3C154.857 43.8067 154.537 43.44 153.897 43.2C153.257 42.96 152.344 42.84 151.157 42.84ZM168.216 31.82H173.676V33.96H168.216V31.82ZM168.216 36.32H173.676V38.46H168.216V36.32ZM172.676 29.26H175.356V42.8H172.676V29.26ZM163.116 45.32H175.776V47.46H163.116V45.32ZM163.116 41.48H165.776V46.44H163.116V41.48ZM164.956 30.36C165.876 30.36 166.703 30.5667 167.436 30.98C168.183 31.38 168.769 31.94 169.196 32.66C169.636 33.38 169.856 34.2067 169.856 35.14C169.856 36.06 169.636 36.8867 169.196 37.62C168.769 38.34 168.183 38.9067 167.436 39.32C166.703 39.7333 165.876 39.94 164.956 39.94C164.049 39.94 163.223 39.7333 162.476 39.32C161.743 38.9067 161.156 38.34 160.716 37.62C160.289 36.8867 160.076 36.06 160.076 35.14C160.076 34.2067 160.289 33.38 160.716 32.66C161.156 31.94 161.743 31.38 162.476 30.98C163.223 30.5667 164.049 30.36 164.956 30.36ZM164.956 32.68C164.516 32.68 164.116 32.78 163.756 32.98C163.396 33.18 163.109 33.4667 162.896 33.84C162.696 34.2 162.596 34.6333 162.596 35.14C162.596 35.66 162.696 36.1067 162.896 36.48C163.109 36.84 163.396 37.12 163.756 37.32C164.116 37.5067 164.516 37.6 164.956 37.6C165.409 37.6 165.809 37.5067 166.156 37.32C166.516 37.12 166.796 36.84 166.996 36.48C167.209 36.1067 167.316 35.66 167.316 35.14C167.316 34.6333 167.209 34.2 166.996 33.84C166.796 33.4667 166.516 33.18 166.156 32.98C165.809 32.78 165.409 32.68 164.956 32.68ZM180.014 37.5H193.034V39.64H180.014V37.5ZM178.054 43.52H194.834V45.7H178.054V43.52ZM185.094 38.48H187.734V44.22H185.094V38.48ZM180.014 30.52H192.894V32.64H182.654V38.42H180.014V30.52ZM210.024 31.96H214.584V34.08H210.024V31.96ZM213.404 29.26H216.084V38.66H213.404V29.26ZM203.844 39.42H216.084V44.42H206.504V46.74H203.864V42.5H213.444V41.48H203.844V39.42ZM203.864 45.5H216.604V47.58H203.864V45.5ZM204.804 29.84H206.964V31.18C206.964 32.3267 206.777 33.4133 206.404 34.44C206.044 35.4667 205.484 36.36 204.724 37.12C203.964 37.8667 202.991 38.4267 201.804 38.8L200.444 36.72C201.471 36.4 202.304 35.96 202.944 35.4C203.584 34.8267 204.051 34.1733 204.344 33.44C204.651 32.7067 204.804 31.9533 204.804 31.18V29.84ZM205.344 29.84H207.484V31.18C207.484 31.7133 207.564 32.2467 207.724 32.78C207.897 33.3133 208.151 33.8133 208.484 34.28C208.817 34.7467 209.244 35.16 209.764 35.52C210.297 35.88 210.924 36.1733 211.644 36.4L210.284 38.44C209.164 38.08 208.237 37.54 207.504 36.82C206.771 36.1 206.224 35.2533 205.864 34.28C205.517 33.3067 205.344 32.2733 205.344 31.18V29.84ZM228.823 33.72H232.343V35.88H228.823V33.72ZM231.603 29.26H234.283V40.26H231.603V29.26ZM228.003 40.66C229.309 40.66 230.436 40.8 231.383 41.08C232.329 41.36 233.056 41.7667 233.563 42.3C234.083 42.8333 234.343 43.4733 234.343 44.22C234.343 45.3667 233.776 46.2467 232.643 46.86C231.509 47.4867 229.963 47.8 228.003 47.8C226.043 47.8 224.496 47.4867 223.363 46.86C222.229 46.2467 221.663 45.3667 221.663 44.22C221.663 43.4733 221.916 42.8333 222.423 42.3C222.943 41.7667 223.676 41.36 224.623 41.08C225.569 40.8 226.696 40.66 228.003 40.66ZM228.003 42.68C227.203 42.68 226.529 42.74 225.983 42.86C225.436 42.9667 225.016 43.1333 224.723 43.36C224.443 43.5867 224.303 43.8733 224.303 44.22C224.303 44.5667 224.443 44.86 224.723 45.1C225.016 45.3267 225.436 45.5 225.983 45.62C226.529 45.7267 227.203 45.78 228.003 45.78C228.803 45.78 229.476 45.7267 230.023 45.62C230.569 45.5 230.983 45.3267 231.263 45.1C231.543 44.86 231.683 44.5667 231.683 44.22C231.683 43.8733 231.543 43.5867 231.263 43.36C230.983 43.1333 230.569 42.9667 230.023 42.86C229.476 42.74 228.803 42.68 228.003 42.68ZM223.063 31.1H225.223V32.28C225.223 33.4533 225.036 34.5733 224.663 35.64C224.289 36.7067 223.716 37.6467 222.943 38.46C222.183 39.26 221.209 39.86 220.023 40.26L218.683 38.16C219.443 37.9067 220.096 37.5667 220.643 37.14C221.203 36.7133 221.656 36.24 222.003 35.72C222.363 35.1867 222.629 34.6267 222.803 34.04C222.976 33.4533 223.063 32.8667 223.063 32.28V31.1ZM223.623 31.1H225.743V32.26C225.743 32.9933 225.889 33.7133 226.183 34.42C226.476 35.1267 226.929 35.7667 227.543 36.34C228.169 36.9133 228.969 37.3667 229.943 37.7L228.643 39.78C227.496 39.3933 226.549 38.8267 225.803 38.08C225.069 37.32 224.523 36.44 224.163 35.44C223.803 34.4267 223.623 33.3667 223.623 32.26V31.1ZM219.403 30.38H229.363V32.48H219.403V30.38Z" fill="black"/>
<path d="M45.6333 101.909V100.657C46.6249 99.7737 47.4693 98.9539 48.1664 98.1979C48.8733 97.4419 49.4133 96.7399 49.7864 96.0919C50.1595 95.4341 50.346 94.8254 50.346 94.2657C50.346 93.9123 50.2822 93.603 50.1545 93.3379C50.0269 93.0728 49.8404 92.8715 49.5949 92.7341C49.3593 92.5868 49.0647 92.5132 48.7113 92.5132C48.3185 92.5132 47.9553 92.6261 47.6215 92.8519C47.2975 93.0679 46.998 93.3281 46.7231 93.6325L45.5155 92.469C46.026 91.9192 46.5464 91.5068 47.0765 91.2319C47.6165 90.9472 48.2547 90.8048 48.9911 90.8048C49.6784 90.8048 50.2773 90.9472 50.7878 91.2319C51.3082 91.5068 51.7107 91.8946 51.9955 92.3954C52.2802 92.8961 52.4225 93.4852 52.4225 94.1626C52.4225 94.8205 52.2556 95.493 51.9218 96.1803C51.5978 96.8577 51.1609 97.5352 50.6111 98.2126C50.0613 98.8901 49.4525 99.5577 48.7849 100.216C49.0696 100.176 49.374 100.147 49.698 100.127C50.0318 100.098 50.3264 100.083 50.5816 100.083H52.938V101.909H45.6333ZM58.0313 102.115C57.295 102.115 56.647 101.904 56.0873 101.482C55.5375 101.05 55.1055 100.412 54.7913 99.5675C54.487 98.7134 54.3348 97.6579 54.3348 96.4012C54.3348 95.1543 54.487 94.1185 54.7913 93.2937C55.1055 92.4592 55.5375 91.8357 56.0873 91.4234C56.647 91.011 57.295 90.8048 58.0313 90.8048C58.7775 90.8048 59.4255 91.0159 59.9753 91.4381C60.5252 91.8505 60.9522 92.469 61.2566 93.2937C61.5708 94.1185 61.7279 95.1543 61.7279 96.4012C61.7279 97.6579 61.5708 98.7134 61.2566 99.5675C60.9522 100.412 60.5252 101.05 59.9753 101.482C59.4255 101.904 58.7775 102.115 58.0313 102.115ZM58.0313 100.422C58.3553 100.422 58.6401 100.299 58.8855 100.054C59.131 99.8081 59.3224 99.3957 59.4599 98.8165C59.5973 98.2274 59.6661 97.4223 59.6661 96.4012C59.6661 95.3899 59.5973 94.5995 59.4599 94.0301C59.3224 93.4508 59.131 93.0483 58.8855 92.8225C58.6401 92.5868 58.3553 92.469 58.0313 92.469C57.727 92.469 57.4472 92.5868 57.1919 92.8225C56.9464 93.0483 56.7501 93.4508 56.6028 94.0301C56.4555 94.5995 56.3819 95.3899 56.3819 96.4012C56.3819 97.4223 56.4555 98.2274 56.6028 98.8165C56.7501 99.3957 56.9464 99.8081 57.1919 100.054C57.4472 100.299 57.727 100.422 58.0313 100.422ZM63.0069 101.909V100.657C63.9985 99.7737 64.8429 98.9539 65.5399 98.1979C66.2469 97.4419 66.7869 96.7399 67.1599 96.0919C67.533 95.4341 67.7196 94.8254 67.7196 94.2657C67.7196 93.9123 67.6558 93.603 67.5281 93.3379C67.4005 93.0728 67.2139 92.8715 66.9685 92.7341C66.7329 92.5868 66.4383 92.5132 66.0849 92.5132C65.6921 92.5132 65.3289 92.6261 64.995 92.8519C64.671 93.0679 64.3716 93.3281 64.0967 93.6325L62.889 92.469C63.3996 91.9192 63.9199 91.5068 64.4501 91.2319C64.9901 90.9472 65.6283 90.8048 66.3647 90.8048C67.0519 90.8048 67.6509 90.9472 68.1614 91.2319C68.6818 91.5068 69.0843 91.8946 69.369 92.3954C69.6538 92.8961 69.7961 93.4852 69.7961 94.1626C69.7961 94.8205 69.6292 95.493 69.2954 96.1803C68.9714 96.8577 68.5345 97.5352 67.9847 98.2126C67.4349 98.8901 66.8261 99.5577 66.1585 100.216C66.4432 100.176 66.7476 100.147 67.0716 100.127C67.4054 100.098 67.6999 100.083 67.9552 100.083H70.3116V101.909H63.0069ZM75.7142 102.115C75.2036 102.115 74.7078 102.007 74.2267 101.791C73.7555 101.575 73.3382 101.246 72.9749 100.805C72.6116 100.353 72.322 99.7835 72.106 99.0963C71.8998 98.3992 71.7967 97.5695 71.7967 96.6074C71.7967 95.5961 71.9096 94.7223 72.1355 93.9859C72.3711 93.2495 72.6853 92.6506 73.078 92.1892C73.4707 91.7179 73.9175 91.3694 74.4182 91.1435C74.9287 90.9177 75.4638 90.8048 76.0235 90.8048C76.6911 90.8048 77.2655 90.9275 77.7465 91.173C78.2375 91.4086 78.6449 91.6983 78.9689 92.0419L77.8202 93.3379C77.6336 93.1219 77.3882 92.9354 77.0838 92.7783C76.7795 92.6212 76.4702 92.5426 76.156 92.5426C75.7142 92.5426 75.3116 92.6703 74.9484 92.9255C74.5949 93.1808 74.3102 93.603 74.0942 94.1921C73.8782 94.7812 73.7702 95.5863 73.7702 96.6074C73.7702 97.5499 73.8536 98.3059 74.0205 98.8754C74.1973 99.435 74.428 99.8425 74.7127 100.098C74.9975 100.353 75.3165 100.481 75.67 100.481C75.9449 100.481 76.1904 100.407 76.4064 100.26C76.6322 100.103 76.8138 99.8768 76.9513 99.5823C77.0887 99.2779 77.1575 98.9048 77.1575 98.463C77.1575 98.031 77.0887 97.6775 76.9513 97.4026C76.8236 97.1277 76.642 96.9215 76.4064 96.7841C76.1805 96.6466 75.9105 96.5779 75.5964 96.5779C75.3018 96.5779 74.9925 96.6712 74.6685 96.8577C74.3445 97.0345 74.0451 97.3486 73.7702 97.8003L73.6671 96.3423C73.8635 96.0674 74.0942 95.8317 74.3593 95.6354C74.6342 95.439 74.914 95.2917 75.1987 95.1935C75.4933 95.0954 75.7584 95.0463 75.994 95.0463C76.6027 95.0463 77.1427 95.169 77.614 95.4145C78.0951 95.6599 78.4682 96.033 78.7333 96.5337C78.9984 97.0345 79.1309 97.6775 79.1309 98.463C79.1309 99.2092 78.9738 99.8572 78.6596 100.407C78.3553 100.947 77.9429 101.369 77.4225 101.674C76.9022 101.968 76.3327 102.115 75.7142 102.115ZM89.7912 89.5677H91.7646V99.597H89.7912V89.5677ZM86.4922 91.0994H90.4539V92.631H86.4922V91.0994ZM82.7515 101.408H92.0592V102.984H82.7515V101.408ZM82.7515 98.7134H84.7102V102.218H82.7515V98.7134ZM81.0873 90.4366H83.0313V96.843H81.0873V90.4366ZM81.0873 96.2539H82.1772C83.1688 96.2539 84.1162 96.2245 85.0195 96.1655C85.9326 96.1066 86.8752 95.9937 87.8472 95.8268L88.0386 97.4174C87.0372 97.5941 86.0652 97.7119 85.1226 97.7708C84.1801 97.8297 83.1982 97.8592 82.1772 97.8592H81.0873V96.2539ZM86.4922 93.6325H90.4539V95.1788H86.4922V93.6325ZM101.286 102.115C100.775 102.115 100.279 102.007 99.7981 101.791C99.3268 101.575 98.9096 101.246 98.5463 100.805C98.183 100.353 97.8934 99.7835 97.6774 99.0963C97.4712 98.3992 97.3681 97.5695 97.3681 96.6074C97.3681 95.5961 97.481 94.7223 97.7068 93.9859C97.9425 93.2495 98.2567 92.6506 98.6494 92.1892C99.0421 91.7179 99.4888 91.3694 99.9896 91.1435C100.5 90.9177 101.035 90.8048 101.595 90.8048C102.262 90.8048 102.837 90.9275 103.318 91.173C103.809 91.4086 104.216 91.6983 104.54 92.0419L103.392 93.3379C103.205 93.1219 102.96 92.9354 102.655 92.7783C102.351 92.6212 102.042 92.5426 101.727 92.5426C101.286 92.5426 100.883 92.6703 100.52 92.9255C100.166 93.1808 99.8816 93.603 99.6656 94.1921C99.4496 94.7812 99.3416 95.5863 99.3416 96.6074C99.3416 97.5499 99.425 98.3059 99.5919 98.8754C99.7687 99.435 99.9994 99.8425 100.284 100.098C100.569 100.353 100.888 100.481 101.241 100.481C101.516 100.481 101.762 100.407 101.978 100.26C102.204 100.103 102.385 99.8768 102.523 99.5823C102.66 99.2779 102.729 98.9048 102.729 98.463C102.729 98.031 102.66 97.6775 102.523 97.4026C102.395 97.1277 102.213 96.9215 101.978 96.7841C101.752 96.6466 101.482 96.5779 101.168 96.5779C100.873 96.5779 100.564 96.6712 100.24 96.8577C99.9159 97.0345 99.6165 97.3486 99.3416 97.8003L99.2385 96.3423C99.4348 96.0674 99.6656 95.8317 99.9307 95.6354C100.206 95.439 100.485 95.2917 100.77 95.1935C101.065 95.0954 101.33 95.0463 101.565 95.0463C102.174 95.0463 102.714 95.169 103.185 95.4145C103.666 95.6599 104.04 96.033 104.305 96.5337C104.57 97.0345 104.702 97.6775 104.702 98.463C104.702 99.2092 104.545 99.8572 104.231 100.407C103.927 100.947 103.514 101.369 102.994 101.674C102.474 101.968 101.904 102.115 101.286 102.115ZM109.207 95.1052H111.165V97.4763H109.207V95.1052ZM115.436 89.5677H117.395V97.4615H115.436V89.5677ZM106.129 95.7237L105.922 94.3688C106.796 94.3688 107.724 94.3639 108.706 94.3541C109.688 94.3443 110.684 94.3197 111.695 94.2805C112.707 94.2412 113.689 94.1774 114.641 94.089L114.744 95.2966C113.762 95.4341 112.771 95.5323 111.769 95.5912C110.768 95.6501 109.791 95.6894 108.838 95.709C107.886 95.7188 106.983 95.7237 106.129 95.7237ZM107.866 97.8886H117.395V101.084H109.825V102.16H107.881V99.8474H115.466V99.2141H107.866V97.8886ZM107.881 101.777H117.719V103.132H107.881V101.777ZM113.036 95.8857H116.04V97.0639H113.036V95.8857ZM110.252 89.7739C110.93 89.7739 111.524 89.8574 112.034 90.0243C112.545 90.1912 112.942 90.4268 113.227 90.7312C113.512 91.0355 113.654 91.3988 113.654 91.821C113.654 92.2334 113.512 92.5917 113.227 92.8961C112.942 93.2005 112.545 93.4361 112.034 93.603C111.524 93.7699 110.93 93.8534 110.252 93.8534C109.575 93.8534 108.976 93.7699 108.455 93.603C107.945 93.4361 107.547 93.2005 107.263 92.8961C106.978 92.5917 106.835 92.2334 106.835 91.821C106.835 91.3988 106.978 91.0355 107.263 90.7312C107.547 90.4268 107.945 90.1912 108.455 90.0243C108.976 89.8574 109.575 89.7739 110.252 89.7739ZM110.252 91.0552C109.771 91.0552 109.383 91.119 109.089 91.2466C108.804 91.3743 108.662 91.5657 108.662 91.821C108.662 92.0665 108.804 92.253 109.089 92.3806C109.383 92.5083 109.771 92.5721 110.252 92.5721C110.743 92.5721 111.126 92.5083 111.401 92.3806C111.686 92.253 111.828 92.0665 111.828 91.821C111.828 91.5657 111.686 91.3743 111.401 91.2466C111.126 91.119 110.743 91.0552 110.252 91.0552Z" fill="#EF9F27"/>
<path d="M133.727 93.682L139.864 102.273L146 93.682H133.727Z" fill="#EF9F27" stroke="#EF9F27" stroke-width="2.45455" stroke-linejoin="round"/>
<g clip-path="url(#clip0_1_7551)">
<g clip-path="url(#clip1_1_7551)">
<path d="M57.3862 128.011C58.0931 128.011 58.7166 128.148 59.2566 128.423C59.8064 128.688 60.2384 129.056 60.5526 129.528C60.8766 129.989 61.0386 130.524 61.0386 131.133C61.0386 131.742 60.8766 132.282 60.5526 132.753C60.2384 133.214 59.8064 133.578 59.2566 133.843C58.7166 134.108 58.0931 134.24 57.3862 134.24C56.699 134.24 56.0804 134.108 55.5306 133.843C54.9808 133.578 54.5439 133.214 54.2199 132.753C53.9057 132.282 53.7486 131.742 53.7486 131.133C53.7486 130.524 53.9057 129.984 54.2199 129.513C54.5439 129.042 54.9808 128.673 55.5306 128.408C56.0804 128.143 56.699 128.011 57.3862 128.011ZM57.401 129.601C57.0671 129.601 56.7677 129.665 56.5026 129.793C56.2375 129.911 56.0264 130.082 55.8693 130.308C55.7221 130.534 55.6484 130.809 55.6484 131.133C55.6484 131.457 55.7221 131.737 55.8693 131.972C56.0264 132.198 56.2326 132.37 56.4879 132.488C56.753 132.606 57.0573 132.665 57.401 132.665C57.7348 132.665 58.0293 132.606 58.2846 132.488C58.5497 132.37 58.7559 132.198 58.9031 131.972C59.0602 131.737 59.1388 131.457 59.1388 131.133C59.1388 130.809 59.0602 130.534 58.9031 130.308C58.7559 130.082 58.5497 129.911 58.2846 129.793C58.0195 129.665 57.725 129.601 57.401 129.601ZM62.9237 127.628H64.8824V134.447H62.9237V127.628ZM55.7957 135.006H64.8824V138.732H57.7397V140.396H55.8104V137.318H62.9384V136.508H55.7957V135.006ZM55.8104 139.586H65.2211V141.118H55.8104V139.586Z" fill="#1C1000"/>
<path d="M96.9321 133.151H98.8909V135.522H96.9321V133.151ZM103.162 127.613H105.121V135.507H103.162V127.613ZM93.8541 133.769L93.648 132.414C94.5218 132.414 95.4496 132.409 96.4314 132.399C97.4132 132.39 98.4098 132.365 99.4211 132.326C100.432 132.287 101.414 132.223 102.367 132.134L102.47 133.342C101.488 133.479 100.496 133.578 99.4947 133.637C98.4932 133.695 97.5163 133.735 96.564 133.754C95.6116 133.764 94.7083 133.769 93.8541 133.769ZM95.592 135.934H105.121V139.13H97.5507V140.205H95.6067V137.893H103.191V137.259H95.592V135.934ZM95.6067 139.822H105.445V141.177H95.6067V139.822ZM100.761 133.931H103.766V135.109H100.761V133.931ZM97.9778 127.819C98.6552 127.819 99.2492 127.903 99.7598 128.07C100.27 128.237 100.668 128.472 100.953 128.777C101.237 129.081 101.38 129.444 101.38 129.866C101.38 130.279 101.237 130.637 100.953 130.941C100.668 131.246 100.27 131.481 99.7598 131.648C99.2492 131.815 98.6552 131.899 97.9778 131.899C97.3003 131.899 96.7014 131.815 96.1811 131.648C95.6705 131.481 95.2729 131.246 94.9881 130.941C94.7034 130.637 94.5611 130.279 94.5611 129.866C94.5611 129.444 94.7034 129.081 94.9881 128.777C95.2729 128.472 95.6705 128.237 96.1811 128.07C96.7014 127.903 97.3003 127.819 97.9778 127.819ZM97.9778 129.101C97.4967 129.101 97.1089 129.164 96.8143 129.292C96.5296 129.42 96.3872 129.611 96.3872 129.866C96.3872 130.112 96.5296 130.298 96.8143 130.426C97.1089 130.554 97.4967 130.617 97.9778 130.617C98.4687 130.617 98.8516 130.554 99.1265 130.426C99.4112 130.298 99.5536 130.112 99.5536 129.866C99.5536 129.611 99.4112 129.42 99.1265 129.292C98.8516 129.164 98.4687 129.101 97.9778 129.101Z" fill="#1C1000"/>
<path d="M136.891 135.698H138.849V137.893H136.891V135.698ZM142.62 127.628H144.578V141.265H142.62V127.628ZM143.901 133.165H146.301V134.771H143.901V133.165ZM133.827 138.997L133.592 137.407C134.377 137.407 135.236 137.402 136.169 137.392C137.112 137.382 138.074 137.348 139.056 137.289C140.047 137.23 141.004 137.142 141.927 137.024L142.075 138.438C141.122 138.614 140.155 138.747 139.173 138.835C138.192 138.914 137.244 138.963 136.331 138.983C135.428 138.992 134.593 138.997 133.827 138.997ZM133.842 129.115H141.868V130.647H133.842V129.115ZM137.863 131.192C138.52 131.192 139.1 131.3 139.6 131.516C140.101 131.732 140.494 132.031 140.779 132.414C141.063 132.797 141.206 133.244 141.206 133.754C141.206 134.255 141.063 134.702 140.779 135.095C140.494 135.477 140.101 135.777 139.6 135.993C139.1 136.209 138.52 136.317 137.863 136.317C137.215 136.317 136.64 136.209 136.14 135.993C135.639 135.777 135.246 135.477 134.961 135.095C134.677 134.702 134.534 134.255 134.534 133.754C134.534 133.244 134.677 132.797 134.961 132.414C135.246 132.031 135.639 131.732 136.14 131.516C136.64 131.3 137.215 131.192 137.863 131.192ZM137.863 132.665C137.421 132.665 137.062 132.763 136.788 132.959C136.522 133.146 136.39 133.411 136.39 133.754C136.39 134.108 136.522 134.378 136.788 134.564C137.062 134.751 137.421 134.844 137.863 134.844C138.314 134.844 138.673 134.751 138.938 134.564C139.213 134.378 139.35 134.108 139.35 133.754C139.35 133.411 139.213 133.146 138.938 132.959C138.673 132.763 138.314 132.665 137.863 132.665ZM136.891 127.687H138.849V130.264H136.891V127.687Z" fill="#1C1000"/>
<path d="M178.97 128.011H180.678V128.659C180.678 129.179 180.595 129.685 180.428 130.176C180.271 130.657 180.035 131.108 179.721 131.531C179.407 131.953 179.024 132.331 178.572 132.665C178.12 132.998 177.595 133.283 176.996 133.519C176.407 133.745 175.759 133.916 175.052 134.034L174.286 132.458C174.915 132.38 175.474 132.247 175.965 132.061C176.466 131.874 176.903 131.653 177.276 131.398C177.659 131.143 177.973 130.863 178.219 130.559C178.464 130.254 178.651 129.94 178.778 129.616C178.906 129.292 178.97 128.973 178.97 128.659V128.011ZM179.338 128.011H181.046V128.659C181.046 128.973 181.11 129.292 181.238 129.616C181.365 129.94 181.552 130.254 181.797 130.559C182.043 130.863 182.352 131.143 182.725 131.398C183.108 131.653 183.545 131.874 184.036 132.061C184.537 132.247 185.101 132.38 185.729 132.458L184.964 134.034C184.247 133.916 183.594 133.745 183.005 133.519C182.416 133.283 181.895 132.998 181.444 132.665C180.992 132.321 180.609 131.938 180.295 131.516C179.981 131.094 179.74 130.642 179.573 130.161C179.416 129.68 179.338 129.179 179.338 128.659V128.011ZM178.97 136.258H180.928V141.265H178.97V136.258ZM173.83 135.021H186.171V136.611H173.83V135.021Z" fill="#1C1000"/>
<path d="M215.423 128.158H224.687V132.974H215.423V128.158ZM222.757 129.69H217.352V131.442H222.757V129.69ZM213.906 134.27H226.248V135.816H213.906V134.27ZM219.09 132.635H221.034V134.697H219.09V132.635ZM215.276 136.803H224.76V141.265H222.801V138.335H215.276V136.803Z" fill="#1C1000"/>
<path d="M255.529 128.232H264.159V129.778H255.529V128.232ZM254.012 133.136H266.368V134.682H254.012V133.136ZM262.981 128.232H264.91V129.321C264.91 129.901 264.895 130.524 264.866 131.192C264.836 131.859 264.718 132.635 264.512 133.519L262.554 133.504C262.77 132.611 262.892 131.835 262.922 131.177C262.961 130.519 262.981 129.901 262.981 129.321V128.232ZM255.455 136.111H264.851V141.118H255.455V136.111ZM262.936 137.642H257.384V139.572H262.936V137.642Z" fill="#1C1000"/>
<path d="M295.546 134.373H305.133V135.919H295.546V134.373ZM294.103 138.187H306.459V139.763H294.103V138.187ZM299.287 135.153H301.245V138.879H299.287V135.153ZM295.546 128.541H305.03V130.117H297.534V134.947H295.546V128.541ZM296.93 131.442H304.721V132.959H296.93V131.442Z" fill="#1C1000"/>
</g>
<g clip-path="url(#clip2_1_7551)">
<path d="M55.8388 172.763C55.3642 172.763 54.9388 172.706 54.5624 172.591C54.186 172.485 53.8506 172.337 53.556 172.149C53.2697 171.953 53.0201 171.736 52.8074 171.499L53.6542 170.357C53.9324 170.611 54.2351 170.832 54.5624 171.02C54.8978 171.2 55.2701 171.29 55.6792 171.29C55.9901 171.29 56.2601 171.241 56.4892 171.143C56.7265 171.045 56.9065 170.902 57.0292 170.713C57.1601 170.525 57.2256 170.296 57.2256 170.026C57.2256 169.723 57.1519 169.466 57.0047 169.253C56.8656 169.032 56.616 168.864 56.256 168.75C55.896 168.635 55.3888 168.578 54.7342 168.578V167.277C55.2906 167.277 55.7283 167.22 56.0474 167.105C56.3665 166.982 56.5915 166.819 56.7224 166.614C56.8615 166.402 56.931 166.16 56.931 165.89C56.931 165.538 56.8247 165.264 56.6119 165.068C56.3992 164.863 56.1006 164.761 55.716 164.761C55.3969 164.761 55.0983 164.835 54.8201 164.982C54.5501 165.121 54.2801 165.313 54.0101 165.559L53.0774 164.442C53.4783 164.107 53.8997 163.841 54.3415 163.644C54.7833 163.44 55.2701 163.337 55.8019 163.337C56.3828 163.337 56.8942 163.432 57.336 163.62C57.786 163.808 58.1338 164.082 58.3792 164.442C58.6247 164.802 58.7474 165.24 58.7474 165.755C58.7474 166.246 58.6165 166.667 58.3547 167.019C58.0928 167.371 57.7206 167.641 57.2378 167.829V167.891C57.5733 167.981 57.876 168.128 58.146 168.332C58.4242 168.529 58.641 168.778 58.7965 169.081C58.9601 169.384 59.0419 169.736 59.0419 170.137C59.0419 170.685 58.8947 171.155 58.6001 171.548C58.3138 171.941 57.9251 172.243 57.4342 172.456C56.9515 172.661 56.4197 172.763 55.8388 172.763ZM60.7337 172.591V171.118H62.6973V165.387H61.0405V164.258C61.4987 164.176 61.8914 164.078 62.2187 163.963C62.5541 163.841 62.865 163.685 63.1514 163.497H64.4891V171.118H66.195V172.591H60.7337Z" fill="#1C1000"/>
<path d="M97.205 172.591V171.118H99.1686V165.387H97.5118V164.258C97.97 164.176 98.3627 164.078 98.69 163.963C99.0254 163.841 99.3363 163.685 99.6227 163.497H100.96V171.118H102.666V172.591H97.205Z" fill="#1C1000"/>
<path d="M136.817 172.591V171.548C137.644 170.812 138.347 170.128 138.928 169.498C139.517 168.868 139.967 168.283 140.278 167.743C140.589 167.195 140.745 166.688 140.745 166.222C140.745 165.927 140.692 165.669 140.585 165.448C140.479 165.227 140.323 165.06 140.119 164.945C139.922 164.822 139.677 164.761 139.382 164.761C139.055 164.761 138.752 164.855 138.474 165.043C138.204 165.223 137.955 165.44 137.726 165.694L136.719 164.724C137.145 164.266 137.578 163.922 138.02 163.693C138.47 163.456 139.002 163.337 139.616 163.337C140.188 163.337 140.687 163.456 141.113 163.693C141.547 163.922 141.882 164.246 142.119 164.663C142.357 165.08 142.475 165.571 142.475 166.136C142.475 166.684 142.336 167.244 142.058 167.817C141.788 168.382 141.424 168.946 140.966 169.511C140.507 170.075 140 170.632 139.444 171.18C139.681 171.147 139.935 171.122 140.205 171.106C140.483 171.082 140.728 171.069 140.941 171.069H142.905V172.591H136.817Z" fill="#1C1000"/>
<path d="M179.731 172.763C179.256 172.763 178.831 172.706 178.455 172.591C178.078 172.485 177.743 172.337 177.448 172.149C177.162 171.953 176.912 171.736 176.7 171.499L177.546 170.357C177.825 170.611 178.127 170.832 178.455 171.02C178.79 171.2 179.162 171.29 179.571 171.29C179.882 171.29 180.152 171.241 180.381 171.143C180.619 171.045 180.799 170.902 180.921 170.713C181.052 170.525 181.118 170.296 181.118 170.026C181.118 169.723 181.044 169.466 180.897 169.253C180.758 169.032 180.508 168.864 180.148 168.75C179.788 168.635 179.281 168.578 178.626 168.578V167.277C179.183 167.277 179.621 167.22 179.94 167.105C180.259 166.982 180.484 166.819 180.615 166.614C180.754 166.402 180.823 166.16 180.823 165.89C180.823 165.538 180.717 165.264 180.504 165.068C180.291 164.863 179.993 164.761 179.608 164.761C179.289 164.761 178.991 164.835 178.712 164.982C178.442 165.121 178.172 165.313 177.902 165.559L176.97 164.442C177.371 164.107 177.792 163.841 178.234 163.644C178.676 163.44 179.162 163.337 179.694 163.337C180.275 163.337 180.786 163.432 181.228 163.62C181.678 163.808 182.026 164.082 182.271 164.442C182.517 164.802 182.64 165.24 182.64 165.755C182.64 166.246 182.509 166.667 182.247 167.019C181.985 167.371 181.613 167.641 181.13 167.829V167.891C181.466 167.981 181.768 168.128 182.038 168.332C182.316 168.529 182.533 168.778 182.689 169.081C182.852 169.384 182.934 169.736 182.934 170.137C182.934 170.685 182.787 171.155 182.492 171.548C182.206 171.941 181.817 172.243 181.326 172.456C180.844 172.661 180.312 172.763 179.731 172.763Z" fill="#1C1000"/>
<path d="M220.607 172.591V167.007C220.607 166.745 220.616 166.434 220.632 166.074C220.648 165.706 220.665 165.387 220.681 165.117H220.62C220.513 165.362 220.399 165.608 220.276 165.853C220.153 166.099 220.027 166.348 219.896 166.602L218.484 168.86H223.369V170.235H216.729V169.007L220.117 163.497H222.289V172.591H220.607Z" fill="#1C1000"/>
<path d="M259.962 172.763C259.479 172.763 259.05 172.706 258.673 172.591C258.297 172.477 257.961 172.325 257.667 172.137C257.372 171.949 257.111 171.744 256.881 171.523L257.716 170.37C257.888 170.542 258.072 170.697 258.268 170.836C258.473 170.975 258.694 171.086 258.931 171.167C259.176 171.249 259.438 171.29 259.716 171.29C260.027 171.29 260.301 171.225 260.539 171.094C260.784 170.963 260.976 170.775 261.116 170.529C261.255 170.276 261.324 169.973 261.324 169.621C261.324 169.097 261.181 168.692 260.895 168.406C260.616 168.12 260.248 167.977 259.79 167.977C259.528 167.977 259.303 168.013 259.115 168.087C258.927 168.152 258.698 168.271 258.428 168.443L257.606 167.915L257.851 163.497H262.711V165.019H259.41L259.238 166.946C259.418 166.864 259.594 166.802 259.766 166.762C259.937 166.721 260.126 166.7 260.33 166.7C260.837 166.7 261.304 166.802 261.729 167.007C262.155 167.203 262.494 167.514 262.748 167.94C263.001 168.365 263.128 168.909 263.128 169.572C263.128 170.243 262.977 170.82 262.674 171.302C262.38 171.777 261.991 172.141 261.508 172.395C261.034 172.64 260.518 172.763 259.962 172.763Z" fill="#1C1000"/>
<path d="M300.531 172.763C300.106 172.763 299.693 172.673 299.292 172.493C298.899 172.313 298.551 172.039 298.249 171.671C297.946 171.294 297.705 170.82 297.525 170.247C297.353 169.666 297.267 168.975 297.267 168.173C297.267 167.33 297.361 166.602 297.549 165.988C297.745 165.375 298.007 164.876 298.335 164.491C298.662 164.098 299.034 163.808 299.451 163.62C299.877 163.432 300.323 163.337 300.789 163.337C301.345 163.337 301.824 163.44 302.225 163.644C302.634 163.841 302.974 164.082 303.244 164.368L302.286 165.448C302.131 165.268 301.926 165.113 301.673 164.982C301.419 164.851 301.161 164.786 300.9 164.786C300.531 164.786 300.196 164.892 299.893 165.105C299.599 165.317 299.361 165.669 299.181 166.16C299.001 166.651 298.911 167.322 298.911 168.173C298.911 168.958 298.981 169.588 299.12 170.063C299.267 170.529 299.46 170.869 299.697 171.082C299.934 171.294 300.2 171.401 300.495 171.401C300.724 171.401 300.928 171.339 301.108 171.217C301.296 171.086 301.448 170.897 301.562 170.652C301.677 170.398 301.734 170.087 301.734 169.719C301.734 169.359 301.677 169.065 301.562 168.836C301.456 168.607 301.305 168.435 301.108 168.32C300.92 168.206 300.695 168.148 300.433 168.148C300.188 168.148 299.93 168.226 299.66 168.382C299.39 168.529 299.14 168.791 298.911 169.167L298.825 167.952C298.989 167.723 299.181 167.527 299.402 167.363C299.631 167.199 299.865 167.077 300.102 166.995C300.347 166.913 300.568 166.872 300.765 166.872C301.272 166.872 301.722 166.974 302.115 167.179C302.515 167.383 302.826 167.694 303.047 168.112C303.268 168.529 303.379 169.065 303.379 169.719C303.379 170.341 303.248 170.881 302.986 171.339C302.732 171.789 302.389 172.141 301.955 172.395C301.521 172.64 301.047 172.763 300.531 172.763Z" fill="#1C1000"/>
</g>
<g clip-path="url(#clip3_1_7551)">
<path d="M58.3905 205.727C58.4314 204.942 58.501 204.218 58.5992 203.555C58.6973 202.884 58.8364 202.254 59.0164 201.665C59.1964 201.068 59.4296 200.483 59.716 199.91C60.0105 199.337 60.3746 198.752 60.8083 198.155H56.7214V196.633H62.7596V197.738C62.236 198.376 61.8105 198.99 61.4833 199.579C61.1642 200.168 60.9187 200.765 60.7469 201.37C60.5833 201.976 60.4605 202.63 60.3787 203.334C60.3051 204.038 60.2478 204.835 60.2069 205.727H58.3905Z" fill="#1C1000"/>
<path d="M99.8191 205.899C99.2382 205.899 98.7186 205.797 98.2604 205.592C97.8023 205.388 97.4382 205.101 97.1682 204.733C96.9063 204.365 96.7754 203.944 96.7754 203.469C96.7754 203.076 96.845 202.733 96.9841 202.438C97.1313 202.135 97.3236 201.874 97.5609 201.653C97.7982 201.432 98.0559 201.248 98.3341 201.1V201.039C97.9904 200.794 97.7041 200.495 97.475 200.143C97.2459 199.783 97.1313 199.366 97.1313 198.891C97.1313 198.4 97.25 197.975 97.4873 197.615C97.7245 197.255 98.0477 196.977 98.4568 196.78C98.8741 196.584 99.3445 196.486 99.8682 196.486C100.408 196.486 100.875 196.588 101.267 196.793C101.66 196.989 101.963 197.267 102.175 197.627C102.396 197.987 102.507 198.413 102.507 198.904C102.507 199.198 102.45 199.476 102.335 199.738C102.229 200 102.085 200.237 101.905 200.45C101.734 200.655 101.545 200.83 101.341 200.978V201.039C101.627 201.186 101.885 201.37 102.114 201.591C102.343 201.812 102.527 202.078 102.666 202.389C102.805 202.692 102.875 203.052 102.875 203.469C102.875 203.927 102.744 204.34 102.482 204.709C102.229 205.077 101.873 205.367 101.415 205.58C100.956 205.793 100.425 205.899 99.8191 205.899ZM100.384 200.536C100.605 200.299 100.768 200.053 100.875 199.8C100.981 199.546 101.034 199.284 101.034 199.014C101.034 198.769 100.985 198.552 100.887 198.364C100.797 198.167 100.662 198.016 100.482 197.91C100.302 197.803 100.085 197.75 99.8313 197.75C99.5204 197.75 99.2586 197.848 99.0459 198.045C98.8332 198.241 98.7268 198.523 98.7268 198.891C98.7268 199.17 98.7963 199.411 98.9354 199.615C99.0827 199.812 99.2832 199.984 99.5368 200.131C99.7904 200.27 100.073 200.405 100.384 200.536ZM99.8559 204.623C100.118 204.623 100.347 204.578 100.543 204.488C100.748 204.39 100.907 204.25 101.022 204.07C101.136 203.882 101.194 203.661 101.194 203.408C101.194 203.17 101.14 202.966 101.034 202.794C100.936 202.614 100.797 202.459 100.617 202.328C100.437 202.189 100.224 202.062 99.9786 201.947C99.7332 201.833 99.4632 201.71 99.1686 201.579C98.9232 201.784 98.7227 202.033 98.5673 202.328C98.4118 202.614 98.3341 202.929 98.3341 203.273C98.3341 203.543 98.3995 203.78 98.5304 203.985C98.6695 204.181 98.8536 204.336 99.0827 204.451C99.3118 204.565 99.5695 204.623 99.8559 204.623Z" fill="#1C1000"/>
<path d="M139.419 205.899C138.855 205.899 138.364 205.797 137.947 205.592C137.537 205.388 137.198 205.146 136.928 204.868L137.885 203.776C138.049 203.964 138.262 204.12 138.523 204.242C138.785 204.365 139.051 204.426 139.321 204.426C139.583 204.426 139.832 204.369 140.07 204.255C140.307 204.132 140.512 203.94 140.683 203.678C140.863 203.408 141.002 203.052 141.101 202.61C141.207 202.168 141.26 201.624 141.26 200.978C141.26 200.2 141.187 199.583 141.039 199.125C140.9 198.666 140.712 198.339 140.475 198.143C140.237 197.938 139.967 197.836 139.665 197.836C139.444 197.836 139.239 197.897 139.051 198.02C138.863 198.143 138.712 198.327 138.597 198.572C138.491 198.818 138.437 199.129 138.437 199.505C138.437 199.857 138.491 200.151 138.597 200.389C138.703 200.618 138.851 200.79 139.039 200.904C139.235 201.019 139.464 201.076 139.726 201.076C139.98 201.076 140.242 200.998 140.512 200.843C140.782 200.687 141.027 200.425 141.248 200.057L141.334 201.272C141.178 201.493 140.986 201.685 140.757 201.849C140.536 202.013 140.307 202.14 140.07 202.23C139.832 202.32 139.603 202.365 139.382 202.365C138.883 202.365 138.437 202.262 138.045 202.058C137.652 201.845 137.341 201.53 137.112 201.113C136.891 200.687 136.781 200.151 136.781 199.505C136.781 198.883 136.912 198.347 137.173 197.897C137.435 197.439 137.783 197.087 138.217 196.842C138.65 196.596 139.125 196.474 139.64 196.474C140.074 196.474 140.483 196.564 140.867 196.744C141.26 196.915 141.608 197.185 141.911 197.554C142.222 197.914 142.463 198.38 142.635 198.953C142.815 199.517 142.905 200.192 142.905 200.978C142.905 201.837 142.811 202.577 142.622 203.199C142.434 203.813 142.172 204.32 141.837 204.721C141.51 205.122 141.137 205.42 140.72 205.617C140.303 205.805 139.869 205.899 139.419 205.899Z" fill="#1C1000"/>
<path d="M173.767 205.727V204.255H175.731V198.523H174.074V197.394C174.532 197.312 174.925 197.214 175.252 197.1C175.588 196.977 175.899 196.821 176.185 196.633H177.523V204.255H179.229V205.727H173.767ZM183.62 205.899C183.007 205.899 182.467 205.723 182 205.371C181.542 205.011 181.182 204.48 180.92 203.776C180.667 203.064 180.54 202.185 180.54 201.137C180.54 200.098 180.667 199.235 180.92 198.548C181.182 197.852 181.542 197.333 182 196.989C182.467 196.645 183.007 196.474 183.62 196.474C184.242 196.474 184.782 196.65 185.24 197.001C185.699 197.345 186.055 197.86 186.308 198.548C186.57 199.235 186.701 200.098 186.701 201.137C186.701 202.185 186.57 203.064 186.308 203.776C186.055 204.48 185.699 205.011 185.24 205.371C184.782 205.723 184.242 205.899 183.62 205.899ZM183.62 204.488C183.89 204.488 184.128 204.385 184.332 204.181C184.537 203.976 184.696 203.633 184.811 203.15C184.925 202.659 184.983 201.988 184.983 201.137C184.983 200.295 184.925 199.636 184.811 199.161C184.696 198.679 184.537 198.343 184.332 198.155C184.128 197.959 183.89 197.86 183.62 197.86C183.367 197.86 183.134 197.959 182.921 198.155C182.716 198.343 182.553 198.679 182.43 199.161C182.307 199.636 182.246 200.295 182.246 201.137C182.246 201.988 182.307 202.659 182.43 203.15C182.553 203.633 182.716 203.976 182.921 204.181C183.134 204.385 183.367 204.488 183.62 204.488Z" fill="#1C1000"/>
<path d="M213.858 205.727V204.255H215.822V198.523H214.165V197.394C214.623 197.312 215.016 197.214 215.343 197.1C215.679 196.977 215.99 196.821 216.276 196.633H217.614V204.255H219.32V205.727H213.858ZM221.097 205.727V204.255H223.061V198.523H221.404V197.394C221.862 197.312 222.255 197.214 222.582 197.1C222.918 196.977 223.229 196.821 223.515 196.633H224.853V204.255H226.559V205.727H221.097Z" fill="#1C1000"/>
<rect x="245.455" y="186" width="29.4545" height="29.4545" rx="4.90909" fill="#EF9F27"/>
<path d="M253.949 205.727V204.255H255.913V198.523H254.256V197.394C254.714 197.312 255.107 197.214 255.434 197.1C255.77 196.977 256.081 196.821 256.367 196.633H257.705V204.255H259.411V205.727H253.949ZM260.71 205.727V204.684C261.536 203.948 262.24 203.265 262.821 202.635C263.41 202.005 263.86 201.42 264.171 200.88C264.481 200.331 264.637 199.824 264.637 199.358C264.637 199.063 264.584 198.805 264.477 198.585C264.371 198.364 264.216 198.196 264.011 198.081C263.815 197.959 263.569 197.897 263.275 197.897C262.947 197.897 262.645 197.991 262.366 198.18C262.096 198.36 261.847 198.576 261.618 198.83L260.611 197.86C261.037 197.402 261.471 197.059 261.912 196.83C262.362 196.592 262.894 196.474 263.508 196.474C264.081 196.474 264.58 196.592 265.005 196.83C265.439 197.059 265.774 197.382 266.011 197.799C266.249 198.216 266.367 198.707 266.367 199.272C266.367 199.82 266.228 200.38 265.95 200.953C265.68 201.518 265.316 202.082 264.858 202.647C264.4 203.211 263.892 203.768 263.336 204.316C263.573 204.283 263.827 204.259 264.097 204.242C264.375 204.218 264.621 204.205 264.833 204.205H266.797V205.727H260.71Z" fill="white"/>
<path d="M294.04 205.727V204.255H296.004V198.523H294.347V197.394C294.805 197.312 295.198 197.214 295.525 197.1C295.861 196.977 296.171 196.821 296.458 196.633H297.796V204.255H299.501V205.727H294.04ZM303.623 205.899C303.149 205.899 302.723 205.842 302.347 205.727C301.97 205.621 301.635 205.474 301.34 205.285C301.054 205.089 300.805 204.872 300.592 204.635L301.439 203.494C301.717 203.747 302.02 203.968 302.347 204.156C302.682 204.336 303.055 204.426 303.464 204.426C303.775 204.426 304.045 204.377 304.274 204.279C304.511 204.181 304.691 204.038 304.814 203.85C304.945 203.661 305.01 203.432 305.01 203.162C305.01 202.86 304.936 202.602 304.789 202.389C304.65 202.168 304.4 202 304.04 201.886C303.68 201.771 303.173 201.714 302.519 201.714V200.413C303.075 200.413 303.513 200.356 303.832 200.241C304.151 200.119 304.376 199.955 304.507 199.75C304.646 199.538 304.715 199.296 304.715 199.026C304.715 198.675 304.609 198.4 304.396 198.204C304.184 198 303.885 197.897 303.5 197.897C303.181 197.897 302.883 197.971 302.605 198.118C302.335 198.257 302.065 198.45 301.795 198.695L300.862 197.578C301.263 197.243 301.684 196.977 302.126 196.78C302.568 196.576 303.055 196.474 303.586 196.474C304.167 196.474 304.679 196.568 305.12 196.756C305.57 196.944 305.918 197.218 306.164 197.578C306.409 197.938 306.532 198.376 306.532 198.891C306.532 199.382 306.401 199.804 306.139 200.155C305.877 200.507 305.505 200.777 305.022 200.965V201.027C305.358 201.117 305.66 201.264 305.93 201.469C306.209 201.665 306.425 201.915 306.581 202.217C306.745 202.52 306.826 202.872 306.826 203.273C306.826 203.821 306.679 204.291 306.385 204.684C306.098 205.077 305.71 205.38 305.219 205.592C304.736 205.797 304.204 205.899 303.623 205.899Z" fill="#1C1000"/>
</g>
<g clip-path="url(#clip4_1_7551)">
<path d="M53.4947 238.864V237.391H55.4583V231.66H53.8015V230.531C54.2597 230.449 54.6524 230.351 54.9797 230.236C55.3151 230.113 55.626 229.958 55.9124 229.77H57.2501V237.391H58.956V238.864H53.4947ZM63.8632 238.864V233.28C63.8632 233.018 63.8714 232.707 63.8877 232.347C63.9041 231.979 63.9205 231.66 63.9368 231.39H63.8755C63.7691 231.635 63.6546 231.881 63.5318 232.126C63.4091 232.371 63.2823 232.621 63.1514 232.875L61.74 235.133H66.6246V236.507H59.985V235.28L63.3723 229.77H65.5446V238.864H63.8632Z" fill="#1C1000"/>
<path d="M93.5855 238.864V237.391H95.5491V231.66H93.8923V230.531C94.3505 230.449 94.7432 230.351 95.0705 230.236C95.4059 230.113 95.7169 229.958 96.0032 229.77H97.3409V237.391H99.0469V238.864H93.5855ZM103.218 239.036C102.735 239.036 102.305 238.978 101.929 238.864C101.553 238.749 101.217 238.598 100.923 238.41C100.628 238.221 100.366 238.017 100.137 237.796L100.972 236.642C101.144 236.814 101.328 236.97 101.524 237.109C101.729 237.248 101.949 237.358 102.187 237.44C102.432 237.522 102.694 237.563 102.972 237.563C103.283 237.563 103.557 237.497 103.794 237.366C104.04 237.236 104.232 237.047 104.371 236.802C104.51 236.548 104.58 236.246 104.58 235.894C104.58 235.37 104.437 234.965 104.15 234.679C103.872 234.392 103.504 234.249 103.046 234.249C102.784 234.249 102.559 234.286 102.371 234.36C102.183 234.425 101.954 234.544 101.684 234.716L100.861 234.188L101.107 229.77H105.967V231.291H102.665L102.494 233.218C102.674 233.136 102.849 233.075 103.021 233.034C103.193 232.993 103.381 232.973 103.586 232.973C104.093 232.973 104.559 233.075 104.985 233.28C105.41 233.476 105.75 233.787 106.004 234.212C106.257 234.638 106.384 235.182 106.384 235.845C106.384 236.516 106.233 237.092 105.93 237.575C105.635 238.05 105.247 238.414 104.764 238.667C104.289 238.913 103.774 239.036 103.218 239.036Z" fill="#1C1000"/>
<path d="M133.677 238.864V237.391H135.64V231.66H133.983V230.531C134.442 230.449 134.834 230.351 135.162 230.236C135.497 230.113 135.808 229.958 136.094 229.77H137.432V237.391H139.138V238.864H133.677ZM143.787 239.036C143.362 239.036 142.949 238.946 142.548 238.766C142.155 238.586 141.807 238.311 141.505 237.943C141.202 237.567 140.961 237.092 140.781 236.52C140.609 235.939 140.523 235.247 140.523 234.446C140.523 233.603 140.617 232.875 140.805 232.261C141.001 231.647 141.263 231.148 141.591 230.764C141.918 230.371 142.29 230.081 142.707 229.892C143.133 229.704 143.579 229.61 144.045 229.61C144.601 229.61 145.08 229.712 145.481 229.917C145.89 230.113 146.23 230.355 146.5 230.641L145.542 231.721C145.387 231.541 145.182 231.386 144.929 231.255C144.675 231.124 144.417 231.058 144.156 231.058C143.787 231.058 143.452 231.165 143.149 231.377C142.855 231.59 142.617 231.942 142.437 232.433C142.257 232.924 142.167 233.595 142.167 234.446C142.167 235.231 142.237 235.861 142.376 236.336C142.523 236.802 142.716 237.141 142.953 237.354C143.19 237.567 143.456 237.673 143.751 237.673C143.98 237.673 144.184 237.612 144.364 237.489C144.552 237.358 144.704 237.17 144.818 236.925C144.933 236.671 144.99 236.36 144.99 235.992C144.99 235.632 144.933 235.337 144.818 235.108C144.712 234.879 144.561 234.707 144.364 234.593C144.176 234.478 143.951 234.421 143.689 234.421C143.444 234.421 143.186 234.499 142.916 234.654C142.646 234.801 142.396 235.063 142.167 235.44L142.081 234.225C142.245 233.996 142.437 233.799 142.658 233.636C142.887 233.472 143.121 233.349 143.358 233.267C143.603 233.186 143.824 233.145 144.021 233.145C144.528 233.145 144.978 233.247 145.371 233.451C145.771 233.656 146.082 233.967 146.303 234.384C146.524 234.801 146.635 235.337 146.635 235.992C146.635 236.614 146.504 237.154 146.242 237.612C145.988 238.062 145.645 238.414 145.211 238.667C144.777 238.913 144.303 239.036 143.787 239.036Z" fill="#1C1000"/>
<path d="M173.767 238.864V237.391H175.731V231.66H174.074V230.531C174.532 230.449 174.925 230.351 175.252 230.236C175.588 230.113 175.899 229.958 176.185 229.77H177.523V237.391H179.229V238.864H173.767ZM182.283 238.864C182.324 238.078 182.393 237.354 182.491 236.691C182.59 236.021 182.729 235.391 182.909 234.801C183.089 234.204 183.322 233.619 183.608 233.046C183.903 232.474 184.267 231.889 184.7 231.291H180.614V229.77H186.652V230.874C186.128 231.512 185.703 232.126 185.375 232.715C185.056 233.304 184.811 233.901 184.639 234.507C184.475 235.112 184.353 235.767 184.271 236.471C184.197 237.174 184.14 237.972 184.099 238.864H182.283Z" fill="#1C1000"/>
<path d="M213.858 238.864V237.391H215.822V231.66H214.165V230.531C214.623 230.449 215.016 230.351 215.343 230.236C215.679 230.113 215.99 229.958 216.276 229.77H217.614V237.391H219.32V238.864H213.858ZM223.712 239.036C223.131 239.036 222.611 238.933 222.153 238.729C221.695 238.524 221.331 238.238 221.061 237.87C220.799 237.501 220.668 237.08 220.668 236.606C220.668 236.213 220.737 235.869 220.877 235.575C221.024 235.272 221.216 235.01 221.453 234.789C221.691 234.568 221.948 234.384 222.227 234.237V234.176C221.883 233.93 221.597 233.631 221.367 233.28C221.138 232.92 221.024 232.502 221.024 232.028C221.024 231.537 221.142 231.111 221.38 230.751C221.617 230.391 221.94 230.113 222.349 229.917C222.767 229.721 223.237 229.622 223.761 229.622C224.301 229.622 224.767 229.725 225.16 229.929C225.552 230.126 225.855 230.404 226.068 230.764C226.289 231.124 226.399 231.549 226.399 232.04C226.399 232.335 226.342 232.613 226.227 232.875C226.121 233.136 225.978 233.374 225.798 233.586C225.626 233.791 225.438 233.967 225.233 234.114V234.176C225.52 234.323 225.777 234.507 226.007 234.728C226.236 234.949 226.42 235.215 226.559 235.526C226.698 235.828 226.767 236.188 226.767 236.606C226.767 237.064 226.637 237.477 226.375 237.845C226.121 238.213 225.765 238.504 225.307 238.716C224.849 238.929 224.317 239.036 223.712 239.036ZM224.276 233.672C224.497 233.435 224.661 233.19 224.767 232.936C224.873 232.682 224.927 232.421 224.927 232.151C224.927 231.905 224.877 231.688 224.779 231.5C224.689 231.304 224.554 231.152 224.374 231.046C224.194 230.94 223.977 230.886 223.724 230.886C223.413 230.886 223.151 230.985 222.938 231.181C222.726 231.377 222.619 231.66 222.619 232.028C222.619 232.306 222.689 232.547 222.828 232.752C222.975 232.948 223.176 233.12 223.429 233.267C223.683 233.406 223.965 233.541 224.276 233.672ZM223.748 237.759C224.01 237.759 224.239 237.714 224.436 237.624C224.64 237.526 224.8 237.387 224.914 237.207C225.029 237.019 225.086 236.798 225.086 236.544C225.086 236.307 225.033 236.102 224.927 235.931C224.828 235.751 224.689 235.595 224.509 235.464C224.329 235.325 224.117 235.198 223.871 235.084C223.626 234.969 223.356 234.846 223.061 234.716C222.816 234.92 222.615 235.17 222.46 235.464C222.304 235.751 222.227 236.066 222.227 236.409C222.227 236.679 222.292 236.916 222.423 237.121C222.562 237.317 222.746 237.473 222.975 237.587C223.204 237.702 223.462 237.759 223.748 237.759Z" fill="#1C1000"/>
<path d="M253.949 238.864V237.391H255.913V231.66H254.256V230.531C254.714 230.449 255.107 230.351 255.434 230.236C255.77 230.113 256.081 229.958 256.367 229.77H257.705V237.391H259.411V238.864H253.949ZM263.311 239.036C262.747 239.036 262.256 238.933 261.839 238.729C261.43 238.524 261.09 238.283 260.82 238.005L261.777 236.912C261.941 237.101 262.154 237.256 262.416 237.379C262.677 237.501 262.943 237.563 263.213 237.563C263.475 237.563 263.725 237.506 263.962 237.391C264.199 237.268 264.404 237.076 264.576 236.814C264.756 236.544 264.895 236.188 264.993 235.746C265.099 235.305 265.152 234.761 265.152 234.114C265.152 233.337 265.079 232.719 264.931 232.261C264.792 231.803 264.604 231.476 264.367 231.279C264.13 231.075 263.86 230.972 263.557 230.972C263.336 230.972 263.131 231.034 262.943 231.156C262.755 231.279 262.604 231.463 262.489 231.709C262.383 231.954 262.33 232.265 262.33 232.641C262.33 232.993 262.383 233.288 262.489 233.525C262.596 233.754 262.743 233.926 262.931 234.041C263.127 234.155 263.356 234.212 263.618 234.212C263.872 234.212 264.134 234.135 264.404 233.979C264.674 233.824 264.919 233.562 265.14 233.194L265.226 234.409C265.071 234.63 264.878 234.822 264.649 234.986C264.428 235.149 264.199 235.276 263.962 235.366C263.725 235.456 263.496 235.501 263.275 235.501C262.776 235.501 262.33 235.399 261.937 235.194C261.544 234.981 261.233 234.666 261.004 234.249C260.783 233.824 260.673 233.288 260.673 232.641C260.673 232.02 260.804 231.484 261.066 231.034C261.327 230.576 261.675 230.224 262.109 229.978C262.542 229.733 263.017 229.61 263.532 229.61C263.966 229.61 264.375 229.7 264.76 229.88C265.152 230.052 265.5 230.322 265.803 230.69C266.114 231.05 266.355 231.516 266.527 232.089C266.707 232.654 266.797 233.329 266.797 234.114C266.797 234.973 266.703 235.714 266.515 236.336C266.326 236.949 266.065 237.456 265.729 237.857C265.402 238.258 265.03 238.557 264.612 238.753C264.195 238.941 263.761 239.036 263.311 239.036Z" fill="#1C1000"/>
<path d="M293.561 238.864V237.821C294.388 237.084 295.091 236.401 295.672 235.771C296.261 235.141 296.711 234.556 297.022 234.016C297.333 233.468 297.489 232.961 297.489 232.494C297.489 232.2 297.436 231.942 297.329 231.721C297.223 231.5 297.067 231.332 296.863 231.218C296.666 231.095 296.421 231.034 296.126 231.034C295.799 231.034 295.496 231.128 295.218 231.316C294.948 231.496 294.699 231.713 294.47 231.966L293.463 230.997C293.889 230.539 294.322 230.195 294.764 229.966C295.214 229.729 295.746 229.61 296.36 229.61C296.932 229.61 297.431 229.729 297.857 229.966C298.291 230.195 298.626 230.518 298.863 230.936C299.101 231.353 299.219 231.844 299.219 232.408C299.219 232.956 299.08 233.517 298.802 234.09C298.532 234.654 298.168 235.219 297.71 235.783C297.251 236.348 296.744 236.904 296.188 237.452C296.425 237.42 296.679 237.395 296.949 237.379C297.227 237.354 297.472 237.342 297.685 237.342H299.649V238.864H293.561ZM303.893 239.036C303.28 239.036 302.74 238.86 302.273 238.508C301.815 238.148 301.455 237.616 301.193 236.912C300.94 236.201 300.813 235.321 300.813 234.274C300.813 233.235 300.94 232.371 301.193 231.684C301.455 230.989 301.815 230.469 302.273 230.126C302.74 229.782 303.28 229.61 303.893 229.61C304.515 229.61 305.055 229.786 305.513 230.138C305.971 230.481 306.327 230.997 306.581 231.684C306.843 232.371 306.974 233.235 306.974 234.274C306.974 235.321 306.843 236.201 306.581 236.912C306.327 237.616 305.971 238.148 305.513 238.508C305.055 238.86 304.515 239.036 303.893 239.036ZM303.893 237.624C304.163 237.624 304.4 237.522 304.605 237.317C304.81 237.113 304.969 236.769 305.084 236.286C305.198 235.796 305.255 235.125 305.255 234.274C305.255 233.431 305.198 232.772 305.084 232.298C304.969 231.815 304.81 231.48 304.605 231.291C304.4 231.095 304.163 230.997 303.893 230.997C303.64 230.997 303.406 231.095 303.194 231.291C302.989 231.48 302.825 231.815 302.703 232.298C302.58 232.772 302.519 233.431 302.519 234.274C302.519 235.125 302.58 235.796 302.703 236.286C302.825 236.769 302.989 237.113 303.194 237.317C303.406 237.522 303.64 237.624 303.893 237.624Z" fill="#1C1000"/>
</g>
<g clip-path="url(#clip5_1_7551)">
<path d="M53.016 272V270.957C53.8424 270.22 54.546 269.537 55.1269 268.907C55.716 268.277 56.166 267.692 56.4769 267.152C56.7878 266.604 56.9433 266.097 56.9433 265.63C56.9433 265.336 56.8901 265.078 56.7838 264.857C56.6774 264.636 56.5219 264.469 56.3174 264.354C56.121 264.231 55.8756 264.17 55.581 264.17C55.2538 264.17 54.951 264.264 54.6728 264.452C54.4028 264.632 54.1533 264.849 53.9242 265.103L52.9178 264.133C53.3433 263.675 53.7769 263.331 54.2188 263.102C54.6688 262.865 55.2006 262.746 55.8142 262.746C56.3869 262.746 56.886 262.865 57.3115 263.102C57.7451 263.331 58.0806 263.655 58.3178 264.072C58.5551 264.489 58.6738 264.98 58.6738 265.545C58.6738 266.093 58.5347 266.653 58.2565 267.226C57.9865 267.79 57.6224 268.355 57.1642 268.92C56.706 269.484 56.1988 270.04 55.6424 270.589C55.8797 270.556 56.1333 270.531 56.4033 270.515C56.6815 270.49 56.9269 270.478 57.1397 270.478H59.1033V272H53.016ZM60.7337 272V270.527H62.6973V264.796H61.0405V263.667C61.4987 263.585 61.8914 263.487 62.2187 263.372C62.5541 263.25 62.865 263.094 63.1514 262.906H64.4891V270.527H66.195V272H60.7337Z" fill="#1C1000"/>
<path d="M93.1069 272V270.957C93.9332 270.22 94.6369 269.537 95.2178 268.907C95.8069 268.277 96.2569 267.692 96.5678 267.152C96.8787 266.604 97.0341 266.097 97.0341 265.63C97.0341 265.336 96.9809 265.078 96.8746 264.857C96.7682 264.636 96.6128 264.469 96.4082 264.354C96.2119 264.231 95.9664 264.17 95.6719 264.17C95.3446 264.17 95.0419 264.264 94.7637 264.452C94.4937 264.632 94.2441 264.849 94.015 265.103L93.0087 264.133C93.4341 263.675 93.8678 263.331 94.3096 263.102C94.7596 262.865 95.2914 262.746 95.905 262.746C96.4778 262.746 96.9769 262.865 97.4023 263.102C97.8359 263.331 98.1714 263.655 98.4087 264.072C98.6459 264.489 98.7646 264.98 98.7646 265.545C98.7646 266.093 98.6255 266.653 98.3473 267.226C98.0773 267.79 97.7132 268.355 97.255 268.92C96.7969 269.484 96.2896 270.04 95.7332 270.589C95.9705 270.556 96.2241 270.531 96.4941 270.515C96.7723 270.49 97.0178 270.478 97.2305 270.478H99.1941V272H93.1069ZM100.346 272V270.957C101.172 270.22 101.876 269.537 102.457 268.907C103.046 268.277 103.496 267.692 103.807 267.152C104.118 266.604 104.273 266.097 104.273 265.63C104.273 265.336 104.22 265.078 104.114 264.857C104.007 264.636 103.852 264.469 103.647 264.354C103.451 264.231 103.205 264.17 102.911 264.17C102.584 264.17 102.281 264.264 102.003 264.452C101.733 264.632 101.483 264.849 101.254 265.103L100.248 264.133C100.673 263.675 101.107 263.331 101.549 263.102C101.999 262.865 102.53 262.746 103.144 262.746C103.717 262.746 104.216 262.865 104.641 263.102C105.075 263.331 105.41 263.655 105.648 264.072C105.885 264.489 106.004 264.98 106.004 265.545C106.004 266.093 105.864 266.653 105.586 267.226C105.316 267.79 104.952 268.355 104.494 268.92C104.036 269.484 103.529 270.04 102.972 270.589C103.209 270.556 103.463 270.531 103.733 270.515C104.011 270.49 104.257 270.478 104.469 270.478H106.433V272H100.346Z" fill="#1C1000"/>
<path d="M133.198 272V270.957C134.024 270.22 134.728 269.537 135.309 268.907C135.898 268.277 136.348 267.692 136.659 267.152C136.97 266.604 137.125 266.097 137.125 265.63C137.125 265.336 137.072 265.078 136.966 264.857C136.859 264.636 136.704 264.469 136.499 264.354C136.303 264.231 136.057 264.17 135.763 264.17C135.436 264.17 135.133 264.264 134.855 264.452C134.585 264.632 134.335 264.849 134.106 265.103L133.1 264.133C133.525 263.675 133.959 263.331 134.401 263.102C134.851 262.865 135.382 262.746 135.996 262.746C136.569 262.746 137.068 262.865 137.493 263.102C137.927 263.331 138.262 263.655 138.5 264.072C138.737 264.489 138.856 264.98 138.856 265.545C138.856 266.093 138.717 266.653 138.438 267.226C138.168 267.79 137.804 268.355 137.346 268.92C136.888 269.484 136.381 270.04 135.824 270.589C136.062 270.556 136.315 270.531 136.585 270.515C136.863 270.49 137.109 270.478 137.322 270.478H139.285V272H133.198ZM143.26 272.172C142.785 272.172 142.36 272.115 141.983 272C141.607 271.894 141.271 271.746 140.977 271.558C140.691 271.362 140.441 271.145 140.228 270.908L141.075 269.766C141.353 270.02 141.656 270.241 141.983 270.429C142.319 270.609 142.691 270.699 143.1 270.699C143.411 270.699 143.681 270.65 143.91 270.552C144.147 270.454 144.327 270.31 144.45 270.122C144.581 269.934 144.646 269.705 144.646 269.435C144.646 269.132 144.573 268.875 144.426 268.662C144.286 268.441 144.037 268.273 143.677 268.159C143.317 268.044 142.81 267.987 142.155 267.987V266.686C142.711 266.686 143.149 266.629 143.468 266.514C143.787 266.391 144.012 266.228 144.143 266.023C144.282 265.81 144.352 265.569 144.352 265.299C144.352 264.947 144.246 264.673 144.033 264.477C143.82 264.272 143.521 264.17 143.137 264.17C142.818 264.17 142.519 264.244 142.241 264.391C141.971 264.53 141.701 264.722 141.431 264.968L140.498 263.851C140.899 263.515 141.321 263.25 141.762 263.053C142.204 262.849 142.691 262.746 143.223 262.746C143.804 262.746 144.315 262.84 144.757 263.029C145.207 263.217 145.555 263.491 145.8 263.851C146.046 264.211 146.168 264.649 146.168 265.164C146.168 265.655 146.037 266.076 145.776 266.428C145.514 266.78 145.141 267.05 144.659 267.238V267.3C144.994 267.39 145.297 267.537 145.567 267.741C145.845 267.938 146.062 268.187 146.217 268.49C146.381 268.793 146.463 269.145 146.463 269.545C146.463 270.094 146.316 270.564 146.021 270.957C145.735 271.35 145.346 271.652 144.855 271.865C144.372 272.07 143.841 272.172 143.26 272.172Z" fill="#1C1000"/>
<path d="M173.289 272V270.957C174.115 270.22 174.819 269.537 175.4 268.907C175.989 268.277 176.439 267.692 176.75 267.152C177.061 266.604 177.216 266.097 177.216 265.63C177.216 265.336 177.163 265.078 177.056 264.857C176.95 264.636 176.795 264.469 176.59 264.354C176.394 264.231 176.148 264.17 175.854 264.17C175.526 264.17 175.224 264.264 174.946 264.452C174.676 264.632 174.426 264.849 174.197 265.103L173.191 264.133C173.616 263.675 174.05 263.331 174.491 263.102C174.941 262.865 175.473 262.746 176.087 262.746C176.66 262.746 177.159 262.865 177.584 263.102C178.018 263.331 178.353 263.655 178.591 264.072C178.828 264.489 178.946 264.98 178.946 265.545C178.946 266.093 178.807 266.653 178.529 267.226C178.259 267.79 177.895 268.355 177.437 268.92C176.979 269.484 176.471 270.04 175.915 270.589C176.152 270.556 176.406 270.531 176.676 270.515C176.954 270.49 177.2 270.478 177.412 270.478H179.376V272H173.289ZM184.136 272V266.416C184.136 266.154 184.144 265.843 184.16 265.483C184.177 265.115 184.193 264.796 184.21 264.526H184.148C184.042 264.771 183.927 265.017 183.805 265.262C183.682 265.508 183.555 265.757 183.424 266.011L182.013 268.269H186.897V269.644H180.258V268.416L183.645 262.906H185.817V272H184.136Z" fill="#1C1000"/>
<path d="M213.38 272V270.957C214.206 270.22 214.91 269.537 215.491 268.907C216.08 268.277 216.53 267.692 216.841 267.152C217.152 266.604 217.307 266.097 217.307 265.63C217.307 265.336 217.254 265.078 217.148 264.857C217.041 264.636 216.886 264.469 216.681 264.354C216.485 264.231 216.239 264.17 215.945 264.17C215.618 264.17 215.315 264.264 215.037 264.452C214.767 264.632 214.517 264.849 214.288 265.103L213.282 264.133C213.707 263.675 214.141 263.331 214.583 263.102C215.033 262.865 215.564 262.746 216.178 262.746C216.751 262.746 217.25 262.865 217.675 263.102C218.109 263.331 218.444 263.655 218.682 264.072C218.919 264.489 219.038 264.98 219.038 265.545C219.038 266.093 218.898 266.653 218.62 267.226C218.35 267.79 217.986 268.355 217.528 268.92C217.07 269.484 216.563 270.04 216.006 270.589C216.243 270.556 216.497 270.531 216.767 270.515C217.045 270.49 217.291 270.478 217.503 270.478H219.467V272H213.38ZM223.491 272.172C223.008 272.172 222.578 272.115 222.202 272C221.826 271.885 221.49 271.734 221.196 271.546C220.901 271.358 220.639 271.153 220.41 270.932L221.245 269.779C221.417 269.95 221.601 270.106 221.797 270.245C222.002 270.384 222.222 270.495 222.46 270.576C222.705 270.658 222.967 270.699 223.245 270.699C223.556 270.699 223.83 270.634 224.067 270.503C224.313 270.372 224.505 270.184 224.644 269.938C224.783 269.685 224.853 269.382 224.853 269.03C224.853 268.506 224.71 268.101 224.423 267.815C224.145 267.529 223.777 267.385 223.319 267.385C223.057 267.385 222.832 267.422 222.644 267.496C222.456 267.561 222.227 267.68 221.957 267.852L221.134 267.324L221.38 262.906H226.24V264.428H222.938L222.767 266.355C222.947 266.273 223.122 266.211 223.294 266.17C223.466 266.13 223.654 266.109 223.859 266.109C224.366 266.109 224.832 266.211 225.258 266.416C225.683 266.612 226.023 266.923 226.277 267.349C226.53 267.774 226.657 268.318 226.657 268.981C226.657 269.652 226.506 270.229 226.203 270.711C225.908 271.186 225.52 271.55 225.037 271.804C224.562 272.049 224.047 272.172 223.491 272.172Z" fill="#1C1000"/>
<path d="M253.471 272V270.957C254.297 270.22 255.001 269.537 255.582 268.907C256.171 268.277 256.621 267.692 256.932 267.152C257.242 266.604 257.398 266.097 257.398 265.63C257.398 265.336 257.345 265.078 257.238 264.857C257.132 264.636 256.977 264.469 256.772 264.354C256.576 264.231 256.33 264.17 256.036 264.17C255.708 264.17 255.406 264.264 255.127 264.452C254.857 264.632 254.608 264.849 254.379 265.103L253.372 264.133C253.798 263.675 254.232 263.331 254.673 263.102C255.123 262.865 255.655 262.746 256.269 262.746C256.842 262.746 257.341 262.865 257.766 263.102C258.2 263.331 258.535 263.655 258.772 264.072C259.01 264.489 259.128 264.98 259.128 265.545C259.128 266.093 258.989 266.653 258.711 267.226C258.441 267.79 258.077 268.355 257.619 268.92C257.161 269.484 256.653 270.04 256.097 270.589C256.334 270.556 256.588 270.531 256.858 270.515C257.136 270.49 257.382 270.478 257.594 270.478H259.558V272H253.471ZM264.06 272.172C263.635 272.172 263.221 272.082 262.821 271.902C262.428 271.722 262.08 271.448 261.777 271.08C261.475 270.703 261.233 270.229 261.053 269.656C260.881 269.075 260.796 268.384 260.796 267.582C260.796 266.739 260.89 266.011 261.078 265.397C261.274 264.784 261.536 264.285 261.863 263.9C262.191 263.507 262.563 263.217 262.98 263.029C263.406 262.84 263.851 262.746 264.318 262.746C264.874 262.746 265.353 262.849 265.754 263.053C266.163 263.25 266.502 263.491 266.772 263.777L265.815 264.857C265.66 264.677 265.455 264.522 265.201 264.391C264.948 264.26 264.69 264.195 264.428 264.195C264.06 264.195 263.725 264.301 263.422 264.514C263.127 264.726 262.89 265.078 262.71 265.569C262.53 266.06 262.44 266.731 262.44 267.582C262.44 268.367 262.51 268.997 262.649 269.472C262.796 269.938 262.988 270.278 263.226 270.49C263.463 270.703 263.729 270.81 264.023 270.81C264.252 270.81 264.457 270.748 264.637 270.625C264.825 270.495 264.976 270.306 265.091 270.061C265.206 269.807 265.263 269.496 265.263 269.128C265.263 268.768 265.206 268.474 265.091 268.245C264.985 268.015 264.833 267.844 264.637 267.729C264.449 267.615 264.224 267.557 263.962 267.557C263.716 267.557 263.459 267.635 263.189 267.79C262.919 267.938 262.669 268.2 262.44 268.576L262.354 267.361C262.518 267.132 262.71 266.935 262.931 266.772C263.16 266.608 263.393 266.485 263.631 266.404C263.876 266.322 264.097 266.281 264.293 266.281C264.801 266.281 265.251 266.383 265.643 266.588C266.044 266.792 266.355 267.103 266.576 267.52C266.797 267.938 266.907 268.474 266.907 269.128C266.907 269.75 266.776 270.29 266.515 270.748C266.261 271.198 265.917 271.55 265.484 271.804C265.05 272.049 264.576 272.172 264.06 272.172Z" fill="#1C1000"/>
<path d="M293.561 272V270.957C294.388 270.22 295.091 269.537 295.672 268.907C296.261 268.277 296.711 267.692 297.022 267.152C297.333 266.604 297.489 266.097 297.489 265.63C297.489 265.336 297.436 265.078 297.329 264.857C297.223 264.636 297.067 264.469 296.863 264.354C296.666 264.231 296.421 264.17 296.126 264.17C295.799 264.17 295.496 264.264 295.218 264.452C294.948 264.632 294.699 264.849 294.47 265.103L293.463 264.133C293.889 263.675 294.322 263.331 294.764 263.102C295.214 262.865 295.746 262.746 296.36 262.746C296.932 262.746 297.431 262.865 297.857 263.102C298.291 263.331 298.626 263.655 298.863 264.072C299.101 264.489 299.219 264.98 299.219 265.545C299.219 266.093 299.08 266.653 298.802 267.226C298.532 267.79 298.168 268.355 297.71 268.92C297.251 269.484 296.744 270.04 296.188 270.589C296.425 270.556 296.679 270.531 296.949 270.515C297.227 270.49 297.472 270.478 297.685 270.478H299.649V272H293.561ZM302.555 272C302.596 271.215 302.666 270.49 302.764 269.828C302.862 269.157 303.001 268.527 303.181 267.938C303.361 267.34 303.595 266.755 303.881 266.183C304.175 265.61 304.54 265.025 304.973 264.428H300.886V262.906H306.925V264.01C306.401 264.649 305.975 265.262 305.648 265.851C305.329 266.44 305.084 267.038 304.912 267.643C304.748 268.249 304.625 268.903 304.544 269.607C304.47 270.31 304.413 271.108 304.372 272H302.555Z" fill="#1C1000"/>
</g>
<g clip-path="url(#clip6_1_7551)">
<path d="M53.016 305.136V304.093C53.8424 303.357 54.546 302.674 55.1269 302.044C55.716 301.414 56.166 300.829 56.4769 300.289C56.7878 299.741 56.9433 299.233 56.9433 298.767C56.9433 298.472 56.8901 298.215 56.7838 297.994C56.6774 297.773 56.5219 297.605 56.3174 297.491C56.121 297.368 55.8756 297.306 55.581 297.306C55.2538 297.306 54.951 297.401 54.6728 297.589C54.4028 297.769 54.1533 297.986 53.9242 298.239L52.9178 297.27C53.3433 296.811 53.7769 296.468 54.2188 296.239C54.6688 296.001 55.2006 295.883 55.8142 295.883C56.3869 295.883 56.886 296.001 57.3115 296.239C57.7451 296.468 58.0806 296.791 58.3178 297.208C58.5551 297.626 58.6738 298.116 58.6738 298.681C58.6738 299.229 58.5347 299.79 58.2565 300.362C57.9865 300.927 57.6224 301.491 57.1642 302.056C56.706 302.621 56.1988 303.177 55.6424 303.725C55.8797 303.692 56.1333 303.668 56.4033 303.651C56.6815 303.627 56.9269 303.615 57.1397 303.615H59.1033V305.136H53.016ZM63.3477 305.308C62.7668 305.308 62.2473 305.206 61.7891 305.001C61.3309 304.797 60.9668 304.511 60.6968 304.142C60.435 303.774 60.3041 303.353 60.3041 302.878C60.3041 302.486 60.3737 302.142 60.5127 301.847C60.66 301.545 60.8523 301.283 61.0896 301.062C61.3268 300.841 61.5846 300.657 61.8627 300.51V300.448C61.5191 300.203 61.2327 299.904 61.0037 299.552C60.7746 299.192 60.66 298.775 60.66 298.301C60.66 297.81 60.7787 297.384 61.0159 297.024C61.2532 296.664 61.5764 296.386 61.9855 296.19C62.4027 295.993 62.8732 295.895 63.3968 295.895C63.9368 295.895 64.4032 295.997 64.7959 296.202C65.1887 296.398 65.4914 296.676 65.7041 297.036C65.925 297.396 66.0355 297.822 66.0355 298.313C66.0355 298.607 65.9782 298.886 65.8637 299.147C65.7573 299.409 65.6141 299.646 65.4341 299.859C65.2623 300.064 65.0741 300.24 64.8696 300.387V300.448C65.1559 300.596 65.4137 300.78 65.6428 301.001C65.8718 301.221 66.0559 301.487 66.195 301.798C66.3341 302.101 66.4037 302.461 66.4037 302.878C66.4037 303.336 66.2728 303.75 66.0109 304.118C65.7573 304.486 65.4014 304.776 64.9432 304.989C64.485 305.202 63.9532 305.308 63.3477 305.308ZM63.9123 299.945C64.1332 299.708 64.2968 299.462 64.4032 299.209C64.5096 298.955 64.5628 298.693 64.5628 298.423C64.5628 298.178 64.5137 297.961 64.4155 297.773C64.3255 297.576 64.1905 297.425 64.0105 297.319C63.8305 297.212 63.6137 297.159 63.36 297.159C63.0491 297.159 62.7873 297.257 62.5746 297.454C62.3618 297.65 62.2555 297.932 62.2555 298.301C62.2555 298.579 62.325 298.82 62.4641 299.025C62.6114 299.221 62.8118 299.393 63.0655 299.54C63.3191 299.679 63.6014 299.814 63.9123 299.945ZM63.3846 304.032C63.6464 304.032 63.8755 303.987 64.0718 303.897C64.2764 303.799 64.4359 303.66 64.5505 303.48C64.665 303.291 64.7223 303.071 64.7223 302.817C64.7223 302.58 64.6691 302.375 64.5628 302.203C64.4646 302.023 64.3255 301.868 64.1455 301.737C63.9655 301.598 63.7528 301.471 63.5073 301.356C63.2618 301.242 62.9918 301.119 62.6973 300.988C62.4518 301.193 62.2514 301.442 62.0959 301.737C61.9405 302.023 61.8627 302.338 61.8627 302.682C61.8627 302.952 61.9282 303.189 62.0591 303.394C62.1982 303.59 62.3823 303.746 62.6114 303.86C62.8405 303.975 63.0982 304.032 63.3846 304.032Z" fill="#1C1000"/>
<path d="M93.1069 305.136V304.093C93.9332 303.357 94.6369 302.674 95.2178 302.044C95.8069 301.414 96.2569 300.829 96.5678 300.289C96.8787 299.741 97.0341 299.233 97.0341 298.767C97.0341 298.472 96.9809 298.215 96.8746 297.994C96.7682 297.773 96.6128 297.605 96.4082 297.491C96.2119 297.368 95.9664 297.306 95.6719 297.306C95.3446 297.306 95.0419 297.401 94.7637 297.589C94.4937 297.769 94.2441 297.986 94.015 298.239L93.0087 297.27C93.4341 296.811 93.8678 296.468 94.3096 296.239C94.7596 296.001 95.2914 295.883 95.905 295.883C96.4778 295.883 96.9769 296.001 97.4023 296.239C97.8359 296.468 98.1714 296.791 98.4087 297.208C98.6459 297.626 98.7646 298.116 98.7646 298.681C98.7646 299.229 98.6255 299.79 98.3473 300.362C98.0773 300.927 97.7132 301.491 97.255 302.056C96.7969 302.621 96.2896 303.177 95.7332 303.725C95.9705 303.692 96.2241 303.668 96.4941 303.651C96.7723 303.627 97.0178 303.615 97.2305 303.615H99.1941V305.136H93.1069ZM102.948 305.308C102.383 305.308 101.892 305.206 101.475 305.001C101.066 304.797 100.726 304.556 100.456 304.277L101.414 303.185C101.577 303.373 101.79 303.529 102.052 303.651C102.314 303.774 102.579 303.836 102.849 303.836C103.111 303.836 103.361 303.778 103.598 303.664C103.835 303.541 104.04 303.349 104.212 303.087C104.392 302.817 104.531 302.461 104.629 302.019C104.735 301.577 104.789 301.033 104.789 300.387C104.789 299.61 104.715 298.992 104.568 298.534C104.429 298.076 104.24 297.748 104.003 297.552C103.766 297.347 103.496 297.245 103.193 297.245C102.972 297.245 102.768 297.306 102.579 297.429C102.391 297.552 102.24 297.736 102.125 297.981C102.019 298.227 101.966 298.538 101.966 298.914C101.966 299.266 102.019 299.561 102.125 299.798C102.232 300.027 102.379 300.199 102.567 300.313C102.764 300.428 102.993 300.485 103.254 300.485C103.508 300.485 103.77 300.407 104.04 300.252C104.31 300.096 104.555 299.835 104.776 299.466L104.862 300.681C104.707 300.902 104.514 301.095 104.285 301.258C104.064 301.422 103.835 301.549 103.598 301.639C103.361 301.729 103.132 301.774 102.911 301.774C102.412 301.774 101.966 301.671 101.573 301.467C101.18 301.254 100.869 300.939 100.64 300.522C100.419 300.096 100.309 299.561 100.309 298.914C100.309 298.292 100.44 297.756 100.702 297.306C100.964 296.848 101.311 296.496 101.745 296.251C102.179 296.006 102.653 295.883 103.169 295.883C103.602 295.883 104.011 295.973 104.396 296.153C104.789 296.325 105.136 296.595 105.439 296.963C105.75 297.323 105.991 297.789 106.163 298.362C106.343 298.926 106.433 299.601 106.433 300.387C106.433 301.246 106.339 301.986 106.151 302.608C105.963 303.222 105.701 303.729 105.365 304.13C105.038 304.531 104.666 304.83 104.249 305.026C103.831 305.214 103.398 305.308 102.948 305.308Z" fill="#1C1000"/>
<path d="M136.021 305.308C135.546 305.308 135.121 305.251 134.744 305.136C134.368 305.03 134.032 304.883 133.738 304.695C133.452 304.498 133.202 304.281 132.989 304.044L133.836 302.903C134.114 303.156 134.417 303.377 134.744 303.566C135.08 303.746 135.452 303.836 135.861 303.836C136.172 303.836 136.442 303.786 136.671 303.688C136.908 303.59 137.088 303.447 137.211 303.259C137.342 303.071 137.407 302.841 137.407 302.571C137.407 302.269 137.334 302.011 137.187 301.798C137.047 301.577 136.798 301.41 136.438 301.295C136.078 301.181 135.571 301.123 134.916 301.123V299.822C135.472 299.822 135.91 299.765 136.229 299.651C136.548 299.528 136.773 299.364 136.904 299.16C137.043 298.947 137.113 298.706 137.113 298.436C137.113 298.084 137.007 297.81 136.794 297.613C136.581 297.409 136.282 297.306 135.898 297.306C135.579 297.306 135.28 297.38 135.002 297.527C134.732 297.666 134.462 297.859 134.192 298.104L133.259 296.987C133.66 296.652 134.082 296.386 134.523 296.19C134.965 295.985 135.452 295.883 135.984 295.883C136.565 295.883 137.076 295.977 137.518 296.165C137.968 296.353 138.316 296.627 138.561 296.987C138.807 297.347 138.929 297.785 138.929 298.301C138.929 298.791 138.798 299.213 138.537 299.565C138.275 299.916 137.902 300.186 137.42 300.375V300.436C137.755 300.526 138.058 300.673 138.328 300.878C138.606 301.074 138.823 301.324 138.978 301.626C139.142 301.929 139.224 302.281 139.224 302.682C139.224 303.23 139.077 303.701 138.782 304.093C138.496 304.486 138.107 304.789 137.616 305.001C137.133 305.206 136.602 305.308 136.021 305.308ZM143.53 305.308C142.916 305.308 142.376 305.132 141.91 304.781C141.451 304.421 141.091 303.889 140.83 303.185C140.576 302.473 140.449 301.594 140.449 300.546C140.449 299.507 140.576 298.644 140.83 297.957C141.091 297.261 141.451 296.742 141.91 296.398C142.376 296.055 142.916 295.883 143.53 295.883C144.151 295.883 144.691 296.059 145.15 296.411C145.608 296.754 145.964 297.27 146.217 297.957C146.479 298.644 146.61 299.507 146.61 300.546C146.61 301.594 146.479 302.473 146.217 303.185C145.964 303.889 145.608 304.421 145.15 304.781C144.691 305.132 144.151 305.308 143.53 305.308ZM143.53 303.897C143.8 303.897 144.037 303.795 144.241 303.59C144.446 303.386 144.606 303.042 144.72 302.559C144.835 302.068 144.892 301.397 144.892 300.546C144.892 299.704 144.835 299.045 144.72 298.571C144.606 298.088 144.446 297.752 144.241 297.564C144.037 297.368 143.8 297.27 143.53 297.27C143.276 297.27 143.043 297.368 142.83 297.564C142.626 297.752 142.462 298.088 142.339 298.571C142.216 299.045 142.155 299.704 142.155 300.546C142.155 301.397 142.216 302.068 142.339 302.559C142.462 303.042 142.626 303.386 142.83 303.59C143.043 303.795 143.276 303.897 143.53 303.897Z" fill="#1C1000"/>
<path d="M173.289 305.136V304.093C174.115 303.357 174.819 302.674 175.4 302.044C175.989 301.414 176.439 300.829 176.75 300.289C177.061 299.741 177.216 299.233 177.216 298.767C177.216 298.472 177.163 298.215 177.056 297.994C176.95 297.773 176.795 297.605 176.59 297.491C176.394 297.368 176.148 297.306 175.854 297.306C175.526 297.306 175.224 297.401 174.946 297.589C174.676 297.769 174.426 297.986 174.197 298.239L173.191 297.27C173.616 296.811 174.05 296.468 174.491 296.239C174.941 296.001 175.473 295.883 176.087 295.883C176.66 295.883 177.159 296.001 177.584 296.239C178.018 296.468 178.353 296.791 178.591 297.208C178.828 297.626 178.946 298.116 178.946 298.681C178.946 299.229 178.807 299.79 178.529 300.362C178.259 300.927 177.895 301.491 177.437 302.056C176.979 302.621 176.471 303.177 175.915 303.725C176.152 303.692 176.406 303.668 176.676 303.651C176.954 303.627 177.2 303.615 177.412 303.615H179.376V305.136H173.289ZM184.136 305.136V299.552C184.136 299.291 184.144 298.98 184.16 298.62C184.177 298.251 184.193 297.932 184.21 297.662H184.148C184.042 297.908 183.927 298.153 183.805 298.399C183.682 298.644 183.555 298.894 183.424 299.147L182.013 301.406H186.897V302.78H180.258V301.553L183.645 296.042H185.817V305.136H184.136Z" fill="white"/>
<path d="M213.38 305.136V304.093C214.206 303.357 214.91 302.674 215.491 302.044C216.08 301.414 216.53 300.829 216.841 300.289C217.152 299.741 217.307 299.233 217.307 298.767C217.307 298.472 217.254 298.215 217.148 297.994C217.041 297.773 216.886 297.605 216.681 297.491C216.485 297.368 216.239 297.306 215.945 297.306C215.618 297.306 215.315 297.401 215.037 297.589C214.767 297.769 214.517 297.986 214.288 298.239L213.282 297.27C213.707 296.811 214.141 296.468 214.583 296.239C215.033 296.001 215.564 295.883 216.178 295.883C216.751 295.883 217.25 296.001 217.675 296.239C218.109 296.468 218.444 296.791 218.682 297.208C218.919 297.626 219.038 298.116 219.038 298.681C219.038 299.229 218.898 299.79 218.62 300.362C218.35 300.927 217.986 301.491 217.528 302.056C217.07 302.621 216.563 303.177 216.006 303.725C216.243 303.692 216.497 303.668 216.767 303.651C217.045 303.627 217.291 303.615 217.503 303.615H219.467V305.136H213.38ZM223.491 305.308C223.008 305.308 222.578 305.251 222.202 305.136C221.826 305.022 221.49 304.871 221.196 304.682C220.901 304.494 220.639 304.29 220.41 304.069L221.245 302.915C221.417 303.087 221.601 303.242 221.797 303.381C222.002 303.521 222.222 303.631 222.46 303.713C222.705 303.795 222.967 303.836 223.245 303.836C223.556 303.836 223.83 303.77 224.067 303.639C224.313 303.508 224.505 303.32 224.644 303.075C224.783 302.821 224.853 302.518 224.853 302.166C224.853 301.643 224.71 301.238 224.423 300.951C224.145 300.665 223.777 300.522 223.319 300.522C223.057 300.522 222.832 300.559 222.644 300.632C222.456 300.698 222.227 300.816 221.957 300.988L221.134 300.461L221.38 296.042H226.24V297.564H222.938L222.767 299.491C222.947 299.409 223.122 299.348 223.294 299.307C223.466 299.266 223.654 299.246 223.859 299.246C224.366 299.246 224.832 299.348 225.258 299.552C225.683 299.749 226.023 300.06 226.277 300.485C226.53 300.911 226.657 301.455 226.657 302.117C226.657 302.788 226.506 303.365 226.203 303.848C225.908 304.322 225.52 304.686 225.037 304.94C224.562 305.186 224.047 305.308 223.491 305.308Z" fill="white"/>
<path d="M253.471 305.136V304.093C254.297 303.357 255.001 302.674 255.582 302.044C256.171 301.414 256.621 300.829 256.932 300.289C257.242 299.741 257.398 299.233 257.398 298.767C257.398 298.472 257.345 298.215 257.238 297.994C257.132 297.773 256.977 297.605 256.772 297.491C256.576 297.368 256.33 297.306 256.036 297.306C255.708 297.306 255.406 297.401 255.127 297.589C254.857 297.769 254.608 297.986 254.379 298.239L253.372 297.27C253.798 296.811 254.232 296.468 254.673 296.239C255.123 296.001 255.655 295.883 256.269 295.883C256.842 295.883 257.341 296.001 257.766 296.239C258.2 296.468 258.535 296.791 258.772 297.208C259.01 297.626 259.128 298.116 259.128 298.681C259.128 299.229 258.989 299.79 258.711 300.362C258.441 300.927 258.077 301.491 257.619 302.056C257.161 302.621 256.653 303.177 256.097 303.725C256.334 303.692 256.588 303.668 256.858 303.651C257.136 303.627 257.382 303.615 257.594 303.615H259.558V305.136H253.471ZM264.06 305.308C263.635 305.308 263.221 305.218 262.821 305.038C262.428 304.858 262.08 304.584 261.777 304.216C261.475 303.84 261.233 303.365 261.053 302.792C260.881 302.211 260.796 301.52 260.796 300.718C260.796 299.876 260.89 299.147 261.078 298.534C261.274 297.92 261.536 297.421 261.863 297.036C262.191 296.644 262.563 296.353 262.98 296.165C263.406 295.977 263.851 295.883 264.318 295.883C264.874 295.883 265.353 295.985 265.754 296.19C266.163 296.386 266.502 296.627 266.772 296.914L265.815 297.994C265.66 297.814 265.455 297.658 265.201 297.527C264.948 297.396 264.69 297.331 264.428 297.331C264.06 297.331 263.725 297.437 263.422 297.65C263.127 297.863 262.89 298.215 262.71 298.706C262.53 299.196 262.44 299.867 262.44 300.718C262.44 301.504 262.51 302.134 262.649 302.608C262.796 303.075 262.988 303.414 263.226 303.627C263.463 303.84 263.729 303.946 264.023 303.946C264.252 303.946 264.457 303.885 264.637 303.762C264.825 303.631 264.976 303.443 265.091 303.197C265.206 302.944 265.263 302.633 265.263 302.265C265.263 301.905 265.206 301.61 265.091 301.381C264.985 301.152 264.833 300.98 264.637 300.866C264.449 300.751 264.224 300.694 263.962 300.694C263.716 300.694 263.459 300.771 263.189 300.927C262.919 301.074 262.669 301.336 262.44 301.712L262.354 300.497C262.518 300.268 262.71 300.072 262.931 299.908C263.16 299.745 263.393 299.622 263.631 299.54C263.876 299.458 264.097 299.417 264.293 299.417C264.801 299.417 265.251 299.52 265.643 299.724C266.044 299.929 266.355 300.24 266.576 300.657C266.797 301.074 266.907 301.61 266.907 302.265C266.907 302.886 266.776 303.426 266.515 303.885C266.261 304.335 265.917 304.686 265.484 304.94C265.05 305.186 264.576 305.308 264.06 305.308Z" fill="white"/>
<path d="M293.561 305.136V304.093C294.388 303.357 295.091 302.674 295.672 302.044C296.261 301.414 296.711 300.829 297.022 300.289C297.333 299.741 297.489 299.233 297.489 298.767C297.489 298.472 297.436 298.215 297.329 297.994C297.223 297.773 297.067 297.605 296.863 297.491C296.666 297.368 296.421 297.306 296.126 297.306C295.799 297.306 295.496 297.401 295.218 297.589C294.948 297.769 294.699 297.986 294.47 298.239L293.463 297.27C293.889 296.811 294.322 296.468 294.764 296.239C295.214 296.001 295.746 295.883 296.36 295.883C296.932 295.883 297.431 296.001 297.857 296.239C298.291 296.468 298.626 296.791 298.863 297.208C299.101 297.626 299.219 298.116 299.219 298.681C299.219 299.229 299.08 299.79 298.802 300.362C298.532 300.927 298.168 301.491 297.71 302.056C297.251 302.621 296.744 303.177 296.188 303.725C296.425 303.692 296.679 303.668 296.949 303.651C297.227 303.627 297.472 303.615 297.685 303.615H299.649V305.136H293.561ZM302.555 305.136C302.596 304.351 302.666 303.627 302.764 302.964C302.862 302.293 303.001 301.663 303.181 301.074C303.361 300.477 303.595 299.892 303.881 299.319C304.175 298.746 304.54 298.161 304.973 297.564H300.886V296.042H306.925V297.147C306.401 297.785 305.975 298.399 305.648 298.988C305.329 299.577 305.084 300.174 304.912 300.78C304.748 301.385 304.625 302.04 304.544 302.743C304.47 303.447 304.413 304.245 304.372 305.136H302.555Z" fill="white"/>
</g>
</g>
<g clip-path="url(#clip7_1_7551)">
<rect x="45.5" y="338" width="269" height="48" rx="16" fill="#FFD95E"/>
<path d="M106.542 368V366.64C107.62 365.68 108.537 364.789 109.294 363.968C110.062 363.147 110.649 362.384 111.054 361.68C111.46 360.965 111.662 360.304 111.662 359.696C111.662 359.312 111.593 358.976 111.454 358.688C111.316 358.4 111.113 358.181 110.846 358.032C110.59 357.872 110.27 357.792 109.886 357.792C109.46 357.792 109.065 357.915 108.702 358.16C108.35 358.395 108.025 358.677 107.726 359.008L106.414 357.744C106.969 357.147 107.534 356.699 108.11 356.4C108.697 356.091 109.39 355.936 110.19 355.936C110.937 355.936 111.588 356.091 112.142 356.4C112.708 356.699 113.145 357.12 113.454 357.664C113.764 358.208 113.918 358.848 113.918 359.584C113.918 360.299 113.737 361.029 113.374 361.776C113.022 362.512 112.548 363.248 111.95 363.984C111.353 364.72 110.692 365.445 109.966 366.16C110.276 366.117 110.606 366.085 110.958 366.064C111.321 366.032 111.641 366.016 111.918 366.016H114.478V368H106.542ZM119.852 368.224C119.052 368.224 118.348 367.995 117.74 367.536C117.143 367.067 116.673 366.373 116.332 365.456C116.001 364.528 115.836 363.381 115.836 362.016C115.836 360.661 116.001 359.536 116.332 358.64C116.673 357.733 117.143 357.056 117.74 356.608C118.348 356.16 119.052 355.936 119.852 355.936C120.663 355.936 121.367 356.165 121.964 356.624C122.561 357.072 123.025 357.744 123.356 358.64C123.697 359.536 123.868 360.661 123.868 362.016C123.868 363.381 123.697 364.528 123.356 365.456C123.025 366.373 122.561 367.067 121.964 367.536C121.367 367.995 120.663 368.224 119.852 368.224ZM119.852 366.384C120.204 366.384 120.513 366.251 120.78 365.984C121.047 365.717 121.255 365.269 121.404 364.64C121.553 364 121.628 363.125 121.628 362.016C121.628 360.917 121.553 360.059 121.404 359.44C121.255 358.811 121.047 358.373 120.78 358.128C120.513 357.872 120.204 357.744 119.852 357.744C119.521 357.744 119.217 357.872 118.94 358.128C118.673 358.373 118.46 358.811 118.3 359.44C118.14 360.059 118.06 360.917 118.06 362.016C118.06 363.125 118.14 364 118.3 364.64C118.46 365.269 118.673 365.717 118.94 365.984C119.217 366.251 119.521 366.384 119.852 366.384ZM125.097 368V366.64C126.175 365.68 127.092 364.789 127.849 363.968C128.617 363.147 129.204 362.384 129.609 361.68C130.015 360.965 130.217 360.304 130.217 359.696C130.217 359.312 130.148 358.976 130.009 358.688C129.871 358.4 129.668 358.181 129.401 358.032C129.145 357.872 128.825 357.792 128.441 357.792C128.015 357.792 127.62 357.915 127.257 358.16C126.905 358.395 126.58 358.677 126.281 359.008L124.969 357.744C125.524 357.147 126.089 356.699 126.665 356.4C127.252 356.091 127.945 355.936 128.745 355.936C129.492 355.936 130.143 356.091 130.697 356.4C131.263 356.699 131.7 357.12 132.009 357.664C132.319 358.208 132.473 358.848 132.473 359.584C132.473 360.299 132.292 361.029 131.929 361.776C131.577 362.512 131.103 363.248 130.505 363.984C129.908 364.72 129.247 365.445 128.521 366.16C128.831 366.117 129.161 366.085 129.513 366.064C129.876 366.032 130.196 366.016 130.473 366.016H133.033V368H125.097ZM138.743 368.224C138.188 368.224 137.65 368.107 137.127 367.872C136.615 367.637 136.162 367.28 135.767 366.8C135.372 366.309 135.058 365.691 134.823 364.944C134.599 364.187 134.487 363.285 134.487 362.24C134.487 361.141 134.61 360.192 134.855 359.392C135.111 358.592 135.452 357.941 135.879 357.44C136.306 356.928 136.791 356.549 137.335 356.304C137.89 356.059 138.471 355.936 139.079 355.936C139.804 355.936 140.428 356.069 140.951 356.336C141.484 356.592 141.927 356.907 142.279 357.28L141.031 358.688C140.828 358.453 140.562 358.251 140.231 358.08C139.9 357.909 139.564 357.824 139.223 357.824C138.743 357.824 138.306 357.963 137.911 358.24C137.527 358.517 137.218 358.976 136.983 359.616C136.748 360.256 136.631 361.131 136.631 362.24C136.631 363.264 136.722 364.085 136.903 364.704C137.095 365.312 137.346 365.755 137.655 366.032C137.964 366.309 138.311 366.448 138.695 366.448C138.994 366.448 139.26 366.368 139.495 366.208C139.74 366.037 139.938 365.792 140.087 365.472C140.236 365.141 140.311 364.736 140.311 364.256C140.311 363.787 140.236 363.403 140.087 363.104C139.948 362.805 139.751 362.581 139.495 362.432C139.25 362.283 138.956 362.208 138.615 362.208C138.295 362.208 137.959 362.309 137.607 362.512C137.255 362.704 136.93 363.045 136.631 363.536L136.519 361.952C136.732 361.653 136.983 361.397 137.271 361.184C137.57 360.971 137.874 360.811 138.183 360.704C138.503 360.597 138.791 360.544 139.047 360.544C139.708 360.544 140.295 360.677 140.807 360.944C141.33 361.211 141.735 361.616 142.023 362.16C142.311 362.704 142.455 363.403 142.455 364.256C142.455 365.067 142.284 365.771 141.943 366.368C141.612 366.955 141.164 367.413 140.599 367.744C140.034 368.064 139.415 368.224 138.743 368.224ZM153.876 354.592H156.02V365.488H153.876V354.592ZM150.292 356.256H154.596V357.92H150.292V356.256ZM146.228 367.456H156.34V369.168H146.228V367.456ZM146.228 364.528H148.356V368.336H146.228V364.528ZM144.42 355.536H146.532V362.496H144.42V355.536ZM144.42 361.856H145.604C146.682 361.856 147.711 361.824 148.692 361.76C149.684 361.696 150.708 361.573 151.764 361.392L151.972 363.12C150.884 363.312 149.828 363.44 148.804 363.504C147.78 363.568 146.714 363.6 145.604 363.6H144.42V361.856ZM150.292 359.008H154.596V360.688H150.292V359.008ZM166.044 368.224C165.489 368.224 164.951 368.107 164.428 367.872C163.916 367.637 163.463 367.28 163.068 366.8C162.673 366.309 162.359 365.691 162.124 364.944C161.9 364.187 161.788 363.285 161.788 362.24C161.788 361.141 161.911 360.192 162.156 359.392C162.412 358.592 162.753 357.941 163.18 357.44C163.607 356.928 164.092 356.549 164.636 356.304C165.191 356.059 165.772 355.936 166.38 355.936C167.105 355.936 167.729 356.069 168.252 356.336C168.785 356.592 169.228 356.907 169.58 357.28L168.332 358.688C168.129 358.453 167.863 358.251 167.532 358.08C167.201 357.909 166.865 357.824 166.524 357.824C166.044 357.824 165.607 357.963 165.212 358.24C164.828 358.517 164.519 358.976 164.284 359.616C164.049 360.256 163.932 361.131 163.932 362.24C163.932 363.264 164.023 364.085 164.204 364.704C164.396 365.312 164.647 365.755 164.956 366.032C165.265 366.309 165.612 366.448 165.996 366.448C166.295 366.448 166.561 366.368 166.796 366.208C167.041 366.037 167.239 365.792 167.388 365.472C167.537 365.141 167.612 364.736 167.612 364.256C167.612 363.787 167.537 363.403 167.388 363.104C167.249 362.805 167.052 362.581 166.796 362.432C166.551 362.283 166.257 362.208 165.916 362.208C165.596 362.208 165.26 362.309 164.908 362.512C164.556 362.704 164.231 363.045 163.932 363.536L163.82 361.952C164.033 361.653 164.284 361.397 164.572 361.184C164.871 360.971 165.175 360.811 165.484 360.704C165.804 360.597 166.092 360.544 166.348 360.544C167.009 360.544 167.596 360.677 168.108 360.944C168.631 361.211 169.036 361.616 169.324 362.16C169.612 362.704 169.756 363.403 169.756 364.256C169.756 365.067 169.585 365.771 169.244 366.368C168.913 366.955 168.465 367.413 167.9 367.744C167.335 368.064 166.716 368.224 166.044 368.224ZM174.49 360.608H176.618V363.184H174.49V360.608ZM181.258 354.592H183.386V363.168H181.258V354.592ZM171.146 361.28L170.922 359.808C171.871 359.808 172.879 359.803 173.946 359.792C175.012 359.781 176.095 359.755 177.194 359.712C178.292 359.669 179.359 359.6 180.394 359.504L180.506 360.816C179.439 360.965 178.362 361.072 177.274 361.136C176.186 361.2 175.124 361.243 174.09 361.264C173.055 361.275 172.074 361.28 171.146 361.28ZM173.034 363.632H183.386V367.104H175.162V368.272H173.05V365.76H181.29V365.072H173.034V363.632ZM173.05 367.856H183.738V369.328H173.05V367.856ZM178.65 361.456H181.914V362.736H178.65V361.456ZM175.626 354.816C176.362 354.816 177.007 354.907 177.562 355.088C178.116 355.269 178.548 355.525 178.858 355.856C179.167 356.187 179.322 356.581 179.322 357.04C179.322 357.488 179.167 357.877 178.858 358.208C178.548 358.539 178.116 358.795 177.562 358.976C177.007 359.157 176.362 359.248 175.626 359.248C174.89 359.248 174.239 359.157 173.674 358.976C173.119 358.795 172.687 358.539 172.378 358.208C172.068 357.877 171.914 357.488 171.914 357.04C171.914 356.581 172.068 356.187 172.378 355.856C172.687 355.525 173.119 355.269 173.674 355.088C174.239 354.907 174.89 354.816 175.626 354.816ZM175.626 356.208C175.103 356.208 174.682 356.277 174.362 356.416C174.052 356.555 173.898 356.763 173.898 357.04C173.898 357.307 174.052 357.509 174.362 357.648C174.682 357.787 175.103 357.856 175.626 357.856C176.159 357.856 176.575 357.787 176.874 357.648C177.183 357.509 177.338 357.307 177.338 357.04C177.338 356.763 177.183 356.555 176.874 356.416C176.575 356.277 176.159 356.208 175.626 356.208ZM189.601 368V366.08H192.161V358.608H190.001V357.136C190.599 357.029 191.111 356.901 191.537 356.752C191.975 356.592 192.38 356.389 192.753 356.144H194.497V366.08H196.721V368H189.601ZM198.255 368V366.64C199.332 365.68 200.25 364.789 201.007 363.968C201.775 363.147 202.362 362.384 202.767 361.68C203.172 360.965 203.375 360.304 203.375 359.696C203.375 359.312 203.306 358.976 203.167 358.688C203.028 358.4 202.826 358.181 202.559 358.032C202.303 357.872 201.983 357.792 201.599 357.792C201.172 357.792 200.778 357.915 200.415 358.16C200.063 358.395 199.738 358.677 199.439 359.008L198.127 357.744C198.682 357.147 199.247 356.699 199.823 356.4C200.41 356.091 201.103 355.936 201.903 355.936C202.65 355.936 203.3 356.091 203.855 356.4C204.42 356.699 204.858 357.12 205.167 357.664C205.476 358.208 205.631 358.848 205.631 359.584C205.631 360.299 205.45 361.029 205.087 361.776C204.735 362.512 204.26 363.248 203.663 363.984C203.066 364.72 202.404 365.445 201.679 366.16C201.988 366.117 202.319 366.085 202.671 366.064C203.034 366.032 203.354 366.016 203.631 366.016H206.191V368H198.255ZM211.66 355.024C212.428 355.024 213.106 355.173 213.692 355.472C214.29 355.76 214.759 356.16 215.1 356.672C215.452 357.173 215.628 357.755 215.628 358.416C215.628 359.077 215.452 359.664 215.1 360.176C214.759 360.677 214.29 361.072 213.692 361.36C213.106 361.648 212.428 361.792 211.66 361.792C210.914 361.792 210.242 361.648 209.644 361.36C209.047 361.072 208.572 360.677 208.22 360.176C207.879 359.664 207.708 359.077 207.708 358.416C207.708 357.755 207.879 357.168 208.22 356.656C208.572 356.144 209.047 355.744 209.644 355.456C210.242 355.168 210.914 355.024 211.66 355.024ZM211.676 356.752C211.314 356.752 210.988 356.821 210.7 356.96C210.412 357.088 210.183 357.275 210.012 357.52C209.852 357.765 209.772 358.064 209.772 358.416C209.772 358.768 209.852 359.072 210.012 359.328C210.183 359.573 210.407 359.76 210.684 359.888C210.972 360.016 211.303 360.08 211.676 360.08C212.039 360.08 212.359 360.016 212.636 359.888C212.924 359.76 213.148 359.573 213.308 359.328C213.479 359.072 213.564 358.768 213.564 358.416C213.564 358.064 213.479 357.765 213.308 357.52C213.148 357.275 212.924 357.088 212.636 356.96C212.348 356.821 212.028 356.752 211.676 356.752ZM217.676 354.608H219.804V362.016H217.676V354.608ZM209.932 362.624H219.804V366.672H212.044V368.48H209.948V365.136H217.692V364.256H209.932V362.624ZM209.948 367.6H220.172V369.264H209.948V367.6ZM233.076 357.744H236.516V359.472H233.076V357.744ZM228.916 355.504H230.628V357.104C230.628 358.107 230.484 359.051 230.196 359.936C229.908 360.821 229.46 361.595 228.852 362.256C228.255 362.907 227.487 363.403 226.548 363.744L225.428 362.08C226.047 361.867 226.575 361.589 227.012 361.248C227.449 360.907 227.807 360.517 228.084 360.08C228.361 359.632 228.569 359.157 228.708 358.656C228.847 358.155 228.916 357.637 228.916 357.104V355.504ZM229.364 355.504H231.06V357.12C231.06 357.6 231.124 358.069 231.252 358.528C231.38 358.987 231.577 359.424 231.844 359.84C232.111 360.256 232.452 360.629 232.868 360.96C233.295 361.28 233.796 361.541 234.372 361.744L233.252 363.376C232.367 363.045 231.636 362.571 231.06 361.952C230.484 361.333 230.057 360.608 229.78 359.776C229.503 358.944 229.364 358.059 229.364 357.12V355.504ZM235.78 354.608H237.924V365.536H235.78V354.608ZM228.116 367.456H238.244V369.168H228.116V367.456ZM228.116 364.448H230.244V368.416H228.116V364.448ZM240.579 361.36H241.603C242.318 361.36 242.958 361.355 243.523 361.344C244.099 361.323 244.643 361.291 245.155 361.248C245.667 361.195 246.195 361.125 246.739 361.04L246.931 362.736C246.366 362.832 245.816 362.907 245.283 362.96C244.75 363.013 244.184 363.045 243.587 363.056C243 363.067 242.339 363.072 241.603 363.072H240.579V361.36ZM240.579 355.584H246.403V357.28H242.627V362.304H240.579V355.584ZM242.019 358.496H246.259V360.096H242.019V358.496ZM250.675 354.592H252.707V363.648H250.675V354.592ZM248.915 358.224H251.267V359.936H248.915V358.224ZM247.523 354.864H249.507V363.552H247.523V354.864ZM242.515 364.272H252.707V369.424H250.579V365.984H242.515V364.272Z" fill="#3D2000"/>
</g>
<defs>
<clipPath id="clip0_1_7551">
<rect width="270" height="195.136" fill="white" transform="translate(45 119.727)"/>
</clipPath>
<clipPath id="clip1_1_7551">
<rect width="270" height="29.4545" fill="white" transform="translate(45 119.727)"/>
</clipPath>
<clipPath id="clip2_1_7551">
<rect width="270" height="29.4545" fill="white" transform="translate(45 152.864)"/>
</clipPath>
<clipPath id="clip3_1_7551">
<rect width="270" height="29.4545" fill="white" transform="translate(45 186)"/>
</clipPath>
<clipPath id="clip4_1_7551">
<rect width="270" height="29.4545" fill="white" transform="translate(45 219.136)"/>
</clipPath>
<clipPath id="clip5_1_7551">
<rect width="270" height="29.4545" fill="white" transform="translate(45 252.273)"/>
</clipPath>
<clipPath id="clip6_1_7551">
<rect width="270" height="29.4545" fill="white" transform="translate(45 285.409)"/>
</clipPath>
<clipPath id="clip7_1_7551">
<rect x="45.5" y="338" width="269" height="48" rx="16" fill="white"/>
</clipPath>
</defs>
</svg>
