<svg width="70" height="70" viewBox="0 0 70 70" fill="none" xmlns="http://www.w3.org/2000/svg">
<g clip-path="url(#clip0_1_6970)">
<path d="M36.8337 0H30.9396C30.5305 0.205211 28.4671 0.378401 27.8128 0.515844C26.1655 0.864881 24.5449 1.33193 22.963 1.91346C20.3232 2.8706 18.3887 4.06329 16.0737 5.63124C11.8969 8.45997 8.66121 11.5526 5.93399 15.8234C2.91821 20.5464 0.813568 24.8345 0.277206 30.5391C0.217331 31.2383 0.166222 31.9384 0.123894 32.639C0.0991135 33.0817 0.0970459 33.6709 0 34.0826V37.9154C0.0985947 38.3804 0.0877533 38.8781 0.127502 39.3561C0.172417 39.8986 0.229721 40.435 0.285988 40.9762C0.503838 42.9221 0.90081 44.8432 1.47227 46.7144C3.10406 51.9067 6.68665 57.5186 10.7266 61.1936C12.2263 62.5575 14.2189 63.6546 15.9926 64.6037C19.1421 66.289 22.3625 67.2768 25.8021 68.1633C27.7231 68.6585 29.7499 69.3663 31.7222 69.6338C33.483 69.8731 36.0492 69.8903 37.83 69.6928C39.6926 69.4865 41.8273 68.7818 43.6184 68.2463C45.8483 67.584 48.0704 66.8944 50.2842 66.1787C52.0505 65.6083 53.6642 64.8989 55.2461 63.8907C57.5263 62.4379 59.2656 60.363 61.1686 58.4662C61.419 58.217 61.7298 57.9031 61.9488 57.6309C64.2329 54.7928 66.5128 51.7053 67.4169 48.0999C67.7214 46.8864 67.8855 45.6495 68.1936 44.4372C68.7472 42.5414 69.4751 40.7043 69.6719 38.7198C69.7099 38.3366 69.8378 37.2508 70 36.9708V34.0132C69.8139 33.6874 69.6314 31.8011 69.5644 31.3356C69.4496 30.5376 69.2858 29.8923 69.095 29.1029C68.3257 26.0212 67.2862 23.0152 65.9889 20.1205C63.9046 15.5425 61.2042 11.427 57.2957 8.24078C56.4286 7.53388 55.5305 6.95022 54.5999 6.33772C52.1278 4.68579 49.4683 3.3406 46.6788 2.33109C43.8278 1.3164 40.7093 0.534701 37.7168 0.158483C37.4226 0.121496 37.1075 0.116182 36.8337 0Z" fill="#5E2205"/>
<path d="M49.1055 4.83512C49.0981 4.82986 49.0908 4.82459 49.0834 4.81932C45.1519 2.91158 40.8495 1.72411 36.5061 1.3347C35.6694 1.25969 34.7736 1.13159 33.9359 1.15648C31.3069 1.23459 28.6684 1.67081 26.1086 2.2415C23.982 2.84492 22.0321 3.5108 20.1004 4.62207C19.8439 4.76966 19.1804 5.14654 18.9677 5.34032C18.8974 5.38378 18.5089 5.61713 18.4682 5.65244C17.8231 6.01143 17.2165 6.47792 16.6022 6.89264C12.6871 9.53666 9.05602 12.983 6.66745 17.1194C6.27254 17.8036 5.47084 18.8403 5.44038 19.6106C5.39083 20.8427 4.74348 20.364 4.24017 21.3243C3.04614 23.6449 2.24754 26.1526 1.87792 28.7419C1.72254 29.3467 1.66317 30.1282 1.57231 30.7532C1.21767 33.2007 1.18979 35.6607 1.29562 38.1276C1.30801 38.4127 1.3204 39.4299 1.38596 39.6542C1.96981 45.0949 3.35897 49.3032 6.39024 53.8557C7.54194 55.5853 8.19238 56.5826 9.62283 58.1602C10.7152 59.3648 11.5427 60.0094 12.6939 61.0584C13.7681 61.8963 17.2165 63.7654 18.4284 64.2418C18.8074 64.457 21.4568 65.6366 21.7724 65.6643C22.1653 65.8294 23.173 66.0561 23.6564 66.1893C27.5259 67.2513 31.7976 68.8169 35.8455 68.6168C39.3446 68.4434 42.7604 67.1771 46.0506 66.1088C48.903 65.1544 52.251 64.4032 54.7473 62.6438C56.7148 61.2574 59.0141 58.9302 60.6501 57.1295C62.9326 54.6168 64.9064 51.315 66.0311 48.1195C66.2852 47.3976 66.5017 46.625 66.616 45.866C66.6962 45.492 66.6312 44.6941 66.7505 44.3668C67.1242 43.3419 67.4634 42.5813 67.6851 41.5006C67.8628 40.9427 68.0216 40.3787 68.1612 39.8098C68.9902 36.3693 68.699 33.0612 67.9056 29.6479C67.2322 26.7511 66.166 23.9665 65.0123 21.2289C64.7814 20.6811 64.4995 19.9725 64.2023 19.4797C61.206 12.5851 55.8057 7.85279 49.1055 4.83512Z" fill="#F2C25D"/>
<path d="M3.5379 39.1443C2.73775 39.4683 2.25559 39.6075 1.3842 39.6541C1.96806 45.0949 3.35722 49.3032 6.38848 53.8556C7.54018 55.5852 8.19062 56.5825 9.62108 58.1601C10.7134 59.3647 11.5409 60.0094 12.6921 61.0583C13.7664 61.8962 17.2147 63.7653 18.4266 64.2417C18.8056 64.457 21.455 65.6365 21.7706 65.6642C22.1635 65.8293 23.1712 66.056 23.6546 66.1892C27.5241 67.2512 31.7958 68.8168 35.8438 68.6167C39.3428 68.4433 42.7586 67.177 46.0488 66.1088C48.9012 65.1544 52.2492 64.4032 54.7456 62.6438C56.7131 61.2573 59.0124 58.9301 60.6483 57.1294C62.9309 54.6167 64.9046 51.3149 66.0294 48.1194C66.2835 47.3975 66.4999 46.6249 66.6143 45.866C66.6945 45.4919 66.6294 44.694 66.7488 44.3667C67.1224 43.3418 67.4616 42.5812 67.6833 41.5006C67.1599 41.6919 66.2007 42.1607 65.9442 42.6455C65.4844 43.5146 65.4225 44.5983 64.9859 45.5307C64.0322 47.5673 62.9799 49.6705 61.6811 51.5095C60.1893 53.6221 58.3315 55.7822 56.2026 57.2464C55.2288 57.8827 53.5916 58.6423 52.5064 59.1615C51.2073 59.7529 49.9051 60.4064 48.5709 60.91C47.7269 61.2286 46.8027 61.3691 45.9546 61.7118C45.1874 62.0216 44.4759 62.4165 43.719 62.7425C42.124 63.4331 40.4522 63.9257 38.74 64.2094C37.4473 64.4392 36.14 64.574 34.8282 64.6137C32.3876 64.679 29.8629 64.3582 27.4564 64.0448C25.2567 63.7585 24.0395 62.9875 22.7127 61.2427C21.7691 60.002 19.8146 58.7097 18.3468 58.2552C16.9561 57.8247 15.5282 57.6361 14.3074 56.6723C12.7339 55.4667 11.5776 53.9162 10.3412 52.383C6.60994 47.7959 4.54195 45.1264 3.5379 39.1443Z" fill="#E09C3E"/>
<path d="M18.8486 60.9888C16.7943 60.1096 14.6855 59.8729 12.6934 61.0582C13.7677 61.8961 17.2161 63.7652 18.428 64.2417C18.6045 63.8013 18.3502 62.6238 18.2852 62.1046C18.1644 61.1382 18.4877 61.5127 18.8486 60.9888Z" fill="#83471E"/>
<path d="M21.7702 65.6641C21.9349 63.3505 20.9431 61.9113 18.8469 60.9888C18.486 61.5127 18.1627 61.1382 18.2835 62.1046C18.3485 62.6238 18.6027 63.8013 18.4262 64.2417C18.8053 64.4569 21.4546 65.6365 21.7702 65.6641Z" fill="#6F3312"/>
<path d="M1.87693 28.7417C1.72154 29.3465 1.66218 30.128 1.57132 30.753C1.21667 33.2005 1.1888 35.6605 1.29462 38.1274C1.30701 38.4125 1.3194 39.4297 1.38496 39.654C2.25635 39.6074 2.73851 39.4682 3.53866 39.1442C6.78003 37.396 7.42117 32.4515 4.81734 29.8464C3.64654 28.6752 3.33371 29.0333 1.94145 28.8699L1.87693 28.7417Z" fill="#83471E"/>
<path d="M26.1075 2.24146C23.9808 2.84487 22.031 3.51075 20.0992 4.62202C19.8427 4.76961 19.1793 5.14649 18.9666 5.34027C19.1951 6.04131 19.2997 6.53685 19.71 7.16842C21.0825 9.28053 22.8774 8.98027 24.9423 8.36918C25.5398 8.16064 26.535 7.46226 26.8848 6.9605C28.0809 5.24477 27.6336 3.46982 26.1075 2.24146Z" fill="#83471E"/>
<path d="M49.1042 4.83496L49.0314 5.04001C49.2562 5.47524 49.4607 5.73168 49.08 6.17331L48.9705 6.32282L48.9821 6.39637C51.6444 7.32779 53.9367 9.04785 56.1206 10.7728C56.6887 11.2216 58.0047 11.328 58.2095 12.2133C58.6604 12.3324 58.8845 12.9648 58.4819 13.3336C59.9899 13.635 62.6301 21.1068 64.2767 20.7086C64.4535 20.4769 64.1881 19.8414 64.2009 19.4796C61.2046 12.5849 55.8043 7.85263 49.1042 4.83496Z" fill="#F4D79A"/>
<path d="M18.9671 5.34009C18.8968 5.38355 18.5083 5.6169 18.4676 5.65222C18.6426 6.19921 18.3325 7.19347 18.5479 7.83491C19.3285 10.1575 22.1745 11.1611 24.1191 9.61745C24.4274 9.37177 25.0101 8.782 24.9429 8.369C22.878 8.98009 21.0831 9.28036 19.7106 7.16824C19.3003 6.53667 19.1957 6.04113 18.9671 5.34009Z" fill="#E09C3E"/>
<path d="M49.0801 6.17325C48.6195 5.9434 46.9143 5.20569 46.472 5.2913L46.4345 5.35754C46.6965 5.56738 48.6752 6.34475 48.9822 6.39631L48.9706 6.32276L49.0801 6.17325Z" fill="#F4D79A"/>
<path d="M58.4816 13.3337C58.8842 12.9649 58.66 12.3325 58.2092 12.2134C57.7709 12.6484 57.9511 13.1082 58.4816 13.3337Z" fill="#F6E8C8"/>
<path d="M47.9634 25.7068C45.2603 25.4877 42.8943 27.5296 42.6815 30.2653C42.4686 33.001 44.4897 35.3924 47.1934 35.604C49.8919 35.8152 52.2495 33.7749 52.4619 31.0444C52.6743 28.3141 50.6613 25.9255 47.9634 25.7068Z" fill="#5E2205"/>
<path d="M49.3751 27.0782C48.2859 26.9748 47.3208 27.786 47.2214 28.8884C47.122 29.9909 47.9262 30.9654 49.0159 31.063C50.1015 31.1603 51.0602 30.3502 51.1592 29.2519C51.2582 28.1536 50.4602 27.1813 49.3751 27.0782Z" fill="#FBFAF9"/>
<path d="M46.128 31.43C45.6061 31.267 45.052 31.5606 44.887 32.0876C44.7219 32.6144 45.0078 33.1774 45.5273 33.3485C46.0524 33.5213 46.6161 33.2282 46.7829 32.6955C46.9497 32.1628 46.6557 31.5946 46.128 31.43Z" fill="#FBFAF9"/>
<path d="M22.0118 25.7139C19.3054 25.5149 16.9548 27.5803 16.77 30.3198C16.5857 33.0593 18.6368 35.4288 21.3448 35.6037C24.036 35.7775 26.3598 33.7173 26.5434 30.9948C26.727 28.2723 24.7014 25.9117 22.0118 25.7139Z" fill="#5E2205"/>
<path d="M23.5075 27.0866C22.4257 26.9438 21.4349 27.7171 21.2967 28.8122C21.1586 29.9072 21.9255 30.9077 23.008 31.0445C24.0864 31.1808 25.0704 30.4084 25.208 29.3175C25.3457 28.2267 24.585 27.2288 23.5075 27.0866Z" fill="#FBFAF9"/>
<path d="M20.1721 31.4208C19.6327 31.2682 19.0736 31.5891 18.9261 32.1358C18.7786 32.6826 19.099 33.2464 19.6401 33.3924C20.1768 33.5372 20.7282 33.2163 20.8745 32.6742C21.0208 32.132 20.707 31.5721 20.1721 31.4208Z" fill="#FBFAF9"/>
<path d="M46.7319 57.2715C47.0032 56.723 47.3339 56.1129 47.355 55.498C47.4524 52.6625 44.2394 50.6819 41.7312 51.5535C40.626 51.9369 39.7194 52.7534 39.2148 53.8196C38.2097 55.9363 38.7511 58.3988 40.9747 59.4003C41.7397 60.3484 42.8239 60.5783 43.9925 60.4518C45.3151 60.3087 46.9422 58.6773 46.7319 57.2715Z" fill="#83471E"/>
<path d="M46.732 57.2715C45.4467 58.6093 44.5162 59.4514 42.5099 59.5193C41.9399 59.5387 41.4536 59.4112 40.9749 59.4002C41.7399 60.3483 42.824 60.5782 43.9926 60.4518C45.3152 60.3086 46.9423 58.6772 46.732 57.2715Z" fill="#E09C3E"/>
<path d="M61.7576 25.3349C62.7106 23.7867 63.3624 22.3517 62.7431 20.5683C62.3231 19.3585 61.5759 18.7014 60.4942 18.087C59.6141 17.5872 58.3932 17.5975 57.4574 17.9071C54.8757 18.8 54.664 20.6079 55.4598 22.9617C55.2671 23.4705 55.3723 23.9859 55.5967 24.4967C56.4355 26.406 58.4367 27.7308 60.4977 26.9047C60.983 26.7102 61.7925 25.9194 61.7576 25.3349Z" fill="#83471E"/>
<path d="M61.7587 25.3351C61.5001 25.5648 61.2117 25.7574 60.9014 25.9077C60.076 26.2995 59.2425 26.2039 58.4113 25.8791C56.9863 25.3223 56.0936 24.324 55.4609 22.9619C55.2682 23.4707 55.3734 23.9861 55.5978 24.4969C56.4366 26.4062 58.4378 27.731 60.4988 26.9049C60.9841 26.7104 61.7936 25.9196 61.7587 25.3351Z" fill="#E09C3E"/>
<path d="M24.0411 54.3973C24.7069 53.4293 25.2425 52.4843 25.0165 51.2518C24.7971 50.0592 24.0022 49.1666 23.0384 48.4728C21.615 47.4483 19.0154 46.8403 17.823 48.5215C16.5469 50.32 16.7116 53.4758 18.6023 54.8053C18.6387 54.9296 18.6741 55.043 18.746 55.1521C19.1755 55.8156 19.8507 56.2763 20.6196 56.4304C21.8956 56.6869 23.1726 56.1144 23.7995 54.9547C23.907 54.7556 23.9998 54.6313 24.0411 54.3973Z" fill="#83471E"/>
<path d="M24.0432 54.3972C21.5209 55.6071 21.2244 55.6713 18.6043 54.8052C18.6408 54.9295 18.6762 55.0429 18.7481 55.1521C19.1775 55.8155 19.8528 56.2762 20.6217 56.4304C21.8977 56.6868 23.1747 56.1143 23.8016 54.9546C23.9091 54.7556 24.0019 54.6312 24.0432 54.3972Z" fill="#E09C3E"/>
<path d="M37.4173 17.0948C37.5335 17.0023 37.6463 16.9055 37.7555 16.8045C39.2345 15.4211 39.4952 13.2075 38.0861 11.67C36.2798 9.69922 32.1104 10.0916 31.3924 12.9482C31.2773 13.406 31.2752 13.7732 31.2741 14.2389C31.2122 14.389 31.2168 14.3527 31.1203 14.4612C30.2313 15.4601 30.749 16.7811 31.5153 17.6699C32.8647 19.235 34.9096 19.8111 36.5653 18.3339C36.8169 18.1094 37.3791 17.4307 37.4173 17.0948Z" fill="#83471E"/>
<path d="M31.2733 14.239C31.2115 14.389 31.216 14.3528 31.1195 14.4613C30.2305 15.4602 30.7483 16.7812 31.5146 17.67C32.864 19.2351 34.9089 19.8112 36.5646 18.334C36.8161 18.1095 37.3783 17.4308 37.4165 17.0949C36.9003 17.1697 36.2986 17.4667 35.7098 17.5432C33.3292 17.8525 31.6268 16.6777 31.2733 14.239Z" fill="#E09C3E"/>
<path d="M56.799 41.1735C51.2474 40.8485 50.8497 47.9206 55.9269 48.8843C56.9742 48.9354 57.6476 48.9609 58.6003 48.421C60.414 47.3931 60.7478 45.1532 59.7433 43.4144C59.1633 42.4106 57.9379 41.4582 56.799 41.1735Z" fill="#83471E"/>
<path d="M35.1111 33.546C31.0786 33.1686 30.3775 41.435 34.3491 42.501C38.4652 42.8714 39.1369 34.507 35.1111 33.546Z" fill="#5E2205"/>
<path d="M18.7787 36.0128C17.4943 35.7903 15.4955 36.1487 14.4919 36.9668C13.6407 37.6604 13.3567 38.6179 14.0913 39.519C14.8393 40.4357 16.2605 40.8185 17.3843 40.9248C18.3476 41.1972 20.8459 40.6046 21.5719 39.9154C24.0306 37.5813 20.665 36.2139 18.7787 36.0128Z" fill="#F69973"/>
<path d="M17.9086 37.0782C17.6825 37.0742 17.65 37.0607 17.5044 37.2259C17.3341 37.7699 18.4275 39.3782 18.8741 39.6606C19.0357 39.6308 19.056 39.617 19.1951 39.5272C19.5518 39.0196 18.2989 37.4097 17.9086 37.0782Z" fill="#EC6D48"/>
<path d="M20.0507 37.3521C19.8892 37.3925 19.8664 37.3985 19.7313 37.4957C19.4376 38.1064 20.4684 39.1026 20.9178 39.4188C20.9943 39.4079 21.0868 39.3868 21.1642 39.3715C21.7437 38.9091 20.4384 37.5331 20.0507 37.3521Z" fill="#EC6D48"/>
<path d="M16.0066 37.3857C15.8398 37.3862 15.8151 37.3849 15.6669 37.4604C15.287 37.9734 16.2296 39.1309 16.6188 39.4232C16.8723 39.4064 16.8733 39.4137 17.0359 39.2822C17.2904 38.7298 16.3901 37.7567 16.0066 37.3857Z" fill="#EC6D48"/>
<path d="M50.9647 35.8061C49.7788 35.6901 48.1099 36.0935 47.1659 36.819C46.3011 37.4836 46.0095 38.5603 46.7747 39.4296C47.6434 40.4166 49.0765 40.6904 50.3194 40.7782C51.6428 40.8697 53.2517 40.5684 54.3085 39.7146C55.0859 39.0866 55.3063 37.9998 54.5884 37.225C53.6343 36.1954 52.2966 35.9037 50.9647 35.8061Z" fill="#F69973"/>
<path d="M50.2997 37.0361C50.1324 37.0244 50.1064 37.0281 49.943 37.0677C49.8563 37.1508 49.8125 37.1658 49.8171 37.3155C49.8322 37.803 50.891 39.2383 51.1896 39.4788C51.3715 39.462 51.4335 39.4697 51.593 39.3735C51.9317 38.8198 50.7038 37.3861 50.2997 37.0361Z" fill="#EC6D48"/>
<path d="M52.4474 37.1855C52.2246 37.263 52.218 37.2533 52.0973 37.4121C51.9885 37.9366 52.9301 39.0378 53.3497 39.3055C53.451 39.2664 53.593 39.2157 53.6558 39.1303C54.0454 38.6003 52.7739 37.4312 52.4474 37.1855Z" fill="#EC6D48"/>
<path d="M48.2885 37.242C48.0184 37.2425 47.9273 37.2039 47.7919 37.4606C47.7981 37.9833 48.5717 38.9419 48.9335 39.309C49.2003 39.3038 49.3158 39.2239 49.4155 38.9927C49.41 38.4418 48.6688 37.6269 48.2885 37.242Z" fill="#EC6D48"/>
<path d="M50.0002 8.33573C48.7338 8.11183 47.5287 8.97236 47.3127 10.2549C47.0966 11.5374 47.9519 12.7534 49.2202 12.9667C50.4811 13.1788 51.6742 12.3194 51.889 11.0443C52.1037 9.76921 51.2594 8.55832 50.0002 8.33573Z" fill="#83471E"/>
<path d="M12.5471 15.1075C12.1424 15.0913 11.8796 15.0696 11.5064 15.2118C10.1379 15.7336 9.5778 17.6622 10.8942 18.5845C11.0919 18.7231 11.2364 18.791 11.4548 18.8856C13.4293 19.1479 15.0549 16.5928 12.5471 15.1075Z" fill="#83471E"/>
<path d="M66.5091 33.2237C66.5925 34.1308 66.5948 34.8731 66.4998 35.7731C66.4461 36.2818 66.2196 38.1436 66.4717 38.4915C67.7086 38.1022 67.4195 33.7712 67.2375 32.7461C67.2027 32.9518 67.2268 33.0052 67.046 33.1309C66.9042 33.2296 66.6697 33.2884 66.5091 33.2237Z" fill="#F6E8C8"/>
<path d="M67.2383 32.7459C67.0447 31.575 66.9138 30.8395 66.1845 29.8464C66.1376 31.2869 66.2573 31.8168 66.5098 33.2235C66.6705 33.2882 66.905 33.2294 67.0468 33.1307C67.2275 33.005 67.2034 32.9516 67.2383 32.7459Z" fill="#FBFAF9"/>
</g>
<defs>
<clipPath id="clip0_1_6970">
<rect width="70" height="70" fill="white" transform="matrix(-1 0 0 1 70 0)"/>
</clipPath>
</defs>
</svg>
